<?xml version="1.0" encoding="UTF-8" standalone="no"?>
<!DOCTYPE svg PUBLIC "-//W3C//DTD SVG 1.1//EN"
 "http://www.w3.org/Graphics/SVG/1.1/DTD/svg11.dtd">
<!-- Generated by graphviz version 2.43.0 (0)
 -->
<!-- Title: %3 Pages: 1 -->
<svg width="2595pt" height="291pt"
 viewBox="0.00 0.00 2594.74 291.00" xmlns="http://www.w3.org/2000/svg" xmlns:xlink="http://www.w3.org/1999/xlink">
<g id="graph0" class="graph" transform="scale(1 1) rotate(0) translate(4 287)">
<title>%3</title>
<polygon fill="white" stroke="transparent" points="-4,4 -4,-287 2590.74,-287 2590.74,4 -4,4"/>
<!-- administrative operational to componentservice association -->
<g id="node1" class="node">
<title>administrative operational to componentservice association</title>
<ellipse fill="none" stroke="black" cx="1511.39" cy="-265" rx="287.85" ry="18"/>
<text text-anchor="middle" x="1511.39" y="-261.3" font-family="Times,serif" font-size="14.00">administrative operational to componentservice association</text>
</g>
<!-- association -->
<g id="node2" class="node">
<title>association</title>
<ellipse fill="none" stroke="black" cx="62.39" cy="-178" rx="62.29" ry="18"/>
<text text-anchor="middle" x="62.39" y="-174.3" font-family="Times,serif" font-size="14.00">association</text>
</g>
<!-- administrative operational to componentservice association&#45;&gt;association -->
<g id="edge1" class="edge">
<title>administrative operational to componentservice association&#45;&gt;association</title>
<path fill="none" stroke="black" d="M1263.9,-255.74C1089.08,-249.5 849.32,-240.12 638.39,-229 413.78,-217.16 355.79,-229.64 133.39,-196 127.91,-195.17 122.23,-194.13 116.58,-192.97"/>
<polygon fill="black" stroke="black" points="116.99,-189.48 106.48,-190.78 115.51,-196.32 116.99,-189.48"/>
<text text-anchor="middle" x="652.39" y="-217.8" font-family="Times,serif" font-size="14.00">is_a</text>
</g>
<!-- administrative operational to entity association mixin -->
<g id="node3" class="node">
<title>administrative operational to entity association mixin</title>
<ellipse fill="none" stroke="black" cx="402.39" cy="-178" rx="259.95" ry="18"/>
<text text-anchor="middle" x="402.39" y="-174.3" font-family="Times,serif" font-size="14.00">administrative operational to entity association mixin</text>
</g>
<!-- administrative operational to componentservice association&#45;&gt;administrative operational to entity association mixin -->
<g id="edge2" class="edge">
<title>administrative operational to componentservice association&#45;&gt;administrative operational to entity association mixin</title>
<path fill="none" stroke="black" d="M1259.71,-256.22C1123.81,-250.85 953.23,-242.24 801.39,-229 705.85,-220.67 597.95,-206.88 518.47,-195.89"/>
<polygon fill="black" stroke="black" points="518.82,-192.41 508.43,-194.5 517.86,-199.34 518.82,-192.41"/>
<text text-anchor="middle" x="817.89" y="-217.8" font-family="Times,serif" font-size="14.00">uses</text>
</g>
<!-- id -->
<g id="node4" class="node">
<title>id</title>
<ellipse fill="none" stroke="blue" cx="718.39" cy="-178" rx="38.19" ry="18"/>
<text text-anchor="middle" x="718.39" y="-174.3" font-family="Times,serif" font-size="14.00">string</text>
</g>
<!-- administrative operational to componentservice association&#45;&gt;id -->
<g id="edge3" class="edge">
<title>administrative operational to componentservice association&#45;&gt;id</title>
<path fill="none" stroke="blue" d="M1256.6,-256.61C1154.01,-251.58 1034.77,-243.15 927.39,-229 854.98,-219.46 836.77,-215.57 766.39,-196 763.29,-195.14 760.09,-194.17 756.89,-193.15"/>
<polygon fill="blue" stroke="blue" points="757.97,-189.83 747.38,-189.99 755.76,-196.47 757.97,-189.83"/>
<text text-anchor="middle" x="934.39" y="-217.8" font-family="Times,serif" font-size="14.00">id</text>
</g>
<!-- iri -->
<g id="node5" class="node">
<title>iri</title>
<ellipse fill="none" stroke="blue" cx="819.39" cy="-178" rx="44.39" ry="18"/>
<text text-anchor="middle" x="819.39" y="-174.3" font-family="Times,serif" font-size="14.00">iri type</text>
</g>
<!-- administrative operational to componentservice association&#45;&gt;iri -->
<g id="edge4" class="edge">
<title>administrative operational to componentservice association&#45;&gt;iri</title>
<path fill="none" stroke="blue" d="M1284.83,-253.86C1203.97,-248.57 1112.37,-240.68 1029.39,-229 958.79,-219.06 941.32,-214.25 872.39,-196 869.02,-195.11 865.55,-194.13 862.07,-193.11"/>
<polygon fill="blue" stroke="blue" points="862.9,-189.7 852.32,-190.14 860.87,-196.4 862.9,-189.7"/>
<text text-anchor="middle" x="1037.39" y="-217.8" font-family="Times,serif" font-size="14.00">iri</text>
</g>
<!-- name -->
<g id="node6" class="node">
<title>name</title>
<ellipse fill="none" stroke="blue" cx="938.39" cy="-178" rx="56.59" ry="18"/>
<text text-anchor="middle" x="938.39" y="-174.3" font-family="Times,serif" font-size="14.00">label type</text>
</g>
<!-- administrative operational to componentservice association&#45;&gt;name -->
<g id="edge5" class="edge">
<title>administrative operational to componentservice association&#45;&gt;name</title>
<path fill="none" stroke="blue" d="M1297.05,-252.96C1236.68,-247.76 1171.19,-240.15 1111.39,-229 1067.76,-220.86 1019.31,-206.37 984.81,-195.08"/>
<polygon fill="blue" stroke="blue" points="985.61,-191.66 975.02,-191.84 983.41,-198.3 985.61,-191.66"/>
<text text-anchor="middle" x="1131.39" y="-217.8" font-family="Times,serif" font-size="14.00">name</text>
</g>
<!-- description -->
<g id="node7" class="node">
<title>description</title>
<ellipse fill="none" stroke="blue" cx="1088.39" cy="-178" rx="75.29" ry="18"/>
<text text-anchor="middle" x="1088.39" y="-174.3" font-family="Times,serif" font-size="14.00">narrative text</text>
</g>
<!-- administrative operational to componentservice association&#45;&gt;description -->
<g id="edge6" class="edge">
<title>administrative operational to componentservice association&#45;&gt;description</title>
<path fill="none" stroke="blue" d="M1311.18,-252.05C1272.01,-246.88 1231.56,-239.5 1194.39,-229 1170.22,-222.17 1144.71,-210.3 1124.78,-199.84"/>
<polygon fill="blue" stroke="blue" points="1126.22,-196.64 1115.75,-195 1122.91,-202.81 1126.22,-196.64"/>
<text text-anchor="middle" x="1234.89" y="-217.8" font-family="Times,serif" font-size="14.00">description</text>
</g>
<!-- source -->
<g id="node8" class="node">
<title>source</title>
<ellipse fill="none" stroke="blue" cx="1238.39" cy="-178" rx="56.59" ry="18"/>
<text text-anchor="middle" x="1238.39" y="-174.3" font-family="Times,serif" font-size="14.00">label type</text>
</g>
<!-- administrative operational to componentservice association&#45;&gt;source -->
<g id="edge7" class="edge">
<title>administrative operational to componentservice association&#45;&gt;source</title>
<path fill="none" stroke="blue" d="M1369.3,-249.31C1347.06,-244.37 1324.72,-237.78 1304.39,-229 1289.28,-222.47 1274.47,-211.77 1262.73,-201.94"/>
<polygon fill="blue" stroke="blue" points="1264.97,-199.25 1255.12,-195.34 1260.38,-204.53 1264.97,-199.25"/>
<text text-anchor="middle" x="1328.39" y="-217.8" font-family="Times,serif" font-size="14.00">source</text>
</g>
<!-- provided by -->
<g id="node9" class="node">
<title>provided by</title>
<ellipse fill="none" stroke="blue" cx="1350.39" cy="-178" rx="37.09" ry="18"/>
<text text-anchor="middle" x="1350.39" y="-174.3" font-family="Times,serif" font-size="14.00">agent</text>
</g>
<!-- administrative operational to componentservice association&#45;&gt;provided by -->
<g id="edge8" class="edge">
<title>administrative operational to componentservice association&#45;&gt;provided by</title>
<path fill="none" stroke="blue" d="M1413.01,-248.02C1391.8,-242.87 1373.35,-236.52 1365.39,-229 1359.03,-222.98 1355.33,-214.38 1353.19,-206"/>
<polygon fill="blue" stroke="blue" points="1356.61,-205.24 1351.29,-196.08 1349.74,-206.56 1356.61,-205.24"/>
<text text-anchor="middle" x="1407.89" y="-217.8" font-family="Times,serif" font-size="14.00">provided by</text>
</g>
<!-- has attribute -->
<g id="node10" class="node">
<title>has attribute</title>
<ellipse fill="none" stroke="blue" cx="1457.39" cy="-178" rx="51.99" ry="18"/>
<text text-anchor="middle" x="1457.39" y="-174.3" font-family="Times,serif" font-size="14.00">attribute</text>
</g>
<!-- administrative operational to componentservice association&#45;&gt;has attribute -->
<g id="edge9" class="edge">
<title>administrative operational to componentservice association&#45;&gt;has attribute</title>
<path fill="none" stroke="blue" d="M1475.36,-247.11C1468.59,-242.25 1462.39,-236.24 1458.39,-229 1454.65,-222.2 1453.4,-214.06 1453.35,-206.33"/>
<polygon fill="blue" stroke="blue" points="1456.86,-206.41 1453.92,-196.23 1449.87,-206.02 1456.86,-206.41"/>
<text text-anchor="middle" x="1505.39" y="-217.8" font-family="Times,serif" font-size="14.00">has attribute</text>
</g>
<!-- subject -->
<g id="node11" class="node">
<title>subject</title>
<ellipse fill="none" stroke="blue" cx="1635.39" cy="-178" rx="69.59" ry="18"/>
<text text-anchor="middle" x="1635.39" y="-174.3" font-family="Times,serif" font-size="14.00">named thing</text>
</g>
<!-- administrative operational to componentservice association&#45;&gt;subject -->
<g id="edge10" class="edge">
<title>administrative operational to componentservice association&#45;&gt;subject</title>
<path fill="none" stroke="blue" d="M1549.33,-247.05C1559.72,-241.8 1570.77,-235.63 1580.39,-229 1591.52,-221.33 1602.74,-211.57 1612.12,-202.72"/>
<polygon fill="blue" stroke="blue" points="1614.77,-205.02 1619.53,-195.56 1609.9,-199.99 1614.77,-205.02"/>
<text text-anchor="middle" x="1624.39" y="-217.8" font-family="Times,serif" font-size="14.00">subject</text>
</g>
<!-- predicate -->
<g id="node12" class="node">
<title>predicate</title>
<ellipse fill="none" stroke="blue" cx="1881.39" cy="-178" rx="77.99" ry="18"/>
<text text-anchor="middle" x="1881.39" y="-174.3" font-family="Times,serif" font-size="14.00">predicate type</text>
</g>
<!-- administrative operational to componentservice association&#45;&gt;predicate -->
<g id="edge11" class="edge">
<title>administrative operational to componentservice association&#45;&gt;predicate</title>
<path fill="none" stroke="blue" d="M1653.82,-249.32C1687.43,-244.27 1722.93,-237.64 1755.39,-229 1784.21,-221.33 1815.36,-209.01 1839.48,-198.52"/>
<polygon fill="blue" stroke="blue" points="1840.96,-201.69 1848.69,-194.45 1838.13,-195.29 1840.96,-201.69"/>
<text text-anchor="middle" x="1832.39" y="-217.8" font-family="Times,serif" font-size="14.00">predicate</text>
</g>
<!-- relation -->
<g id="node13" class="node">
<title>relation</title>
<ellipse fill="none" stroke="blue" cx="1621.39" cy="-18" rx="57.39" ry="18"/>
<text text-anchor="middle" x="1621.39" y="-14.3" font-family="Times,serif" font-size="14.00">uriorcurie</text>
</g>
<!-- administrative operational to componentservice association&#45;&gt;relation -->
<g id="edge12" class="edge">
<title>administrative operational to componentservice association&#45;&gt;relation</title>
<path fill="none" stroke="blue" d="M1537.74,-247C1543.55,-241.93 1548.98,-235.87 1552.39,-229 1559.23,-215.24 1552.71,-174.91 1556.39,-160 1566.86,-117.63 1590.09,-72.45 1605.75,-44.97"/>
<polygon fill="blue" stroke="blue" points="1608.95,-46.43 1610.94,-36.02 1602.9,-42.91 1608.95,-46.43"/>
<text text-anchor="middle" x="1595.39" y="-130.8" font-family="Times,serif" font-size="14.00">relation</text>
</g>
<!-- negated -->
<g id="node14" class="node">
<title>negated</title>
<ellipse fill="none" stroke="blue" cx="2024.39" cy="-178" rx="46.59" ry="18"/>
<text text-anchor="middle" x="2024.39" y="-174.3" font-family="Times,serif" font-size="14.00">boolean</text>
</g>
<!-- administrative operational to componentservice association&#45;&gt;negated -->
<g id="edge13" class="edge">
<title>administrative operational to componentservice association&#45;&gt;negated</title>
<path fill="none" stroke="blue" d="M1712.88,-252.09C1764.56,-246.93 1819.82,-239.55 1870.39,-229 1909.63,-220.82 1952.93,-206.24 1983.59,-194.93"/>
<polygon fill="blue" stroke="blue" points="1984.94,-198.16 1993.08,-191.39 1982.49,-191.61 1984.94,-198.16"/>
<text text-anchor="middle" x="1955.39" y="-217.8" font-family="Times,serif" font-size="14.00">negated</text>
</g>
<!-- qualifiers -->
<g id="node15" class="node">
<title>qualifiers</title>
<ellipse fill="none" stroke="blue" cx="2165.39" cy="-178" rx="76.89" ry="18"/>
<text text-anchor="middle" x="2165.39" y="-174.3" font-family="Times,serif" font-size="14.00">ontology class</text>
</g>
<!-- administrative operational to componentservice association&#45;&gt;qualifiers -->
<g id="edge14" class="edge">
<title>administrative operational to componentservice association&#45;&gt;qualifiers</title>
<path fill="none" stroke="blue" d="M1722.2,-252.7C1825.34,-246.33 1937.95,-237.88 1988.39,-229 2031.66,-221.38 2079.53,-207.51 2114.58,-196.31"/>
<polygon fill="blue" stroke="blue" points="2115.67,-199.64 2124.1,-193.23 2113.51,-192.98 2115.67,-199.64"/>
<text text-anchor="middle" x="2086.89" y="-217.8" font-family="Times,serif" font-size="14.00">qualifiers</text>
</g>
<!-- publications -->
<g id="node16" class="node">
<title>publications</title>
<ellipse fill="none" stroke="blue" cx="2322.39" cy="-178" rx="62.29" ry="18"/>
<text text-anchor="middle" x="2322.39" y="-174.3" font-family="Times,serif" font-size="14.00">publication</text>
</g>
<!-- administrative operational to componentservice association&#45;&gt;publications -->
<g id="edge15" class="edge">
<title>administrative operational to componentservice association&#45;&gt;publications</title>
<path fill="none" stroke="blue" d="M1715.9,-252.29C1746.89,-250.51 1778.49,-248.71 1808.39,-247 1948.84,-238.98 1985.35,-250.32 2124.39,-229 2175.28,-221.2 2232.13,-206.16 2271.82,-194.61"/>
<polygon fill="blue" stroke="blue" points="2272.92,-197.93 2281.53,-191.75 2270.95,-191.22 2272.92,-197.93"/>
<text text-anchor="middle" x="2240.39" y="-217.8" font-family="Times,serif" font-size="14.00">publications</text>
</g>
<!-- type -->
<g id="node17" class="node">
<title>type</title>
<ellipse fill="none" stroke="black" cx="2434.39" cy="-178" rx="31.4" ry="18"/>
<text text-anchor="middle" x="2434.39" y="-174.3" font-family="Times,serif" font-size="14.00">type</text>
</g>
<!-- administrative operational to componentservice association&#45;&gt;type -->
<g id="edge16" class="edge">
<title>administrative operational to componentservice association&#45;&gt;type</title>
<path fill="none" stroke="blue" d="M1711.06,-252.03C1743.59,-250.24 1776.93,-248.49 1808.39,-247 1915.02,-241.95 2183.21,-247.16 2288.39,-229 2328.48,-222.08 2372.38,-205.78 2401.46,-193.66"/>
<polygon fill="blue" stroke="blue" points="2402.89,-196.86 2410.73,-189.73 2400.16,-190.41 2402.89,-196.86"/>
<text text-anchor="middle" x="2362.39" y="-217.8" font-family="Times,serif" font-size="14.00">type</text>
</g>
<!-- category -->
<g id="node19" class="node">
<title>category</title>
<ellipse fill="none" stroke="black" cx="2535.39" cy="-178" rx="51.19" ry="18"/>
<text text-anchor="middle" x="2535.39" y="-174.3" font-family="Times,serif" font-size="14.00">category</text>
</g>
<!-- administrative operational to componentservice association&#45;&gt;category -->
<g id="edge17" class="edge">
<title>administrative operational to componentservice association&#45;&gt;category</title>
<path fill="none" stroke="blue" d="M1709.86,-251.93C1742.76,-250.13 1776.53,-248.41 1808.39,-247 1935.89,-241.35 2256.69,-251.04 2382.39,-229 2421.39,-222.16 2464.08,-207.58 2494.43,-195.92"/>
<polygon fill="blue" stroke="blue" points="2495.79,-199.15 2503.84,-192.25 2493.25,-192.63 2495.79,-199.15"/>
<text text-anchor="middle" x="2473.89" y="-217.8" font-family="Times,serif" font-size="14.00">category</text>
</g>
<!-- object -->
<g id="node21" class="node">
<title>object</title>
<ellipse fill="none" stroke="black" cx="1688.39" cy="-91" rx="38.99" ry="18"/>
<text text-anchor="middle" x="1688.39" y="-87.3" font-family="Times,serif" font-size="14.00">object</text>
</g>
<!-- administrative operational to componentservice association&#45;&gt;object -->
<g id="edge18" class="edge">
<title>administrative operational to componentservice association&#45;&gt;object</title>
<path fill="none" stroke="blue" d="M1633.61,-248.7C1664.79,-238.7 1694.95,-222.42 1714.39,-196 1732.8,-170.99 1737.68,-155.52 1725.39,-127 1723.31,-122.15 1720.18,-117.66 1716.61,-113.62"/>
<polygon fill="blue" stroke="blue" points="1718.93,-110.99 1709.36,-106.44 1714.01,-115.97 1718.93,-110.99"/>
<text text-anchor="middle" x="1754.39" y="-174.3" font-family="Times,serif" font-size="14.00">object</text>
</g>
<!-- subject&#45;&gt;relation -->
<g id="edge20" class="edge">
<title>subject&#45;&gt;relation</title>
<path fill="none" stroke="black" stroke-dasharray="1,5" d="M1633.87,-159.79C1631.45,-132.48 1626.71,-78.99 1623.82,-46.38"/>
<polygon fill="black" stroke="black" points="1627.29,-45.84 1622.92,-36.19 1620.31,-46.46 1627.29,-45.84"/>
</g>
<!-- subject&#45;&gt;object -->
<g id="edge19" class="edge">
<title>subject&#45;&gt;object</title>
<path fill="none" stroke="black" d="M1646.12,-159.8C1653.76,-147.54 1664.16,-130.87 1672.73,-117.13"/>
<polygon fill="black" stroke="black" points="1675.72,-118.93 1678.05,-108.6 1669.78,-115.23 1675.72,-118.93"/>
<text text-anchor="middle" x="1693.39" y="-130.8" font-family="Times,serif" font-size="14.00">relation</text>
</g>
<!-- association_type -->
<g id="node18" class="node">
<title>association_type</title>
<ellipse fill="none" stroke="blue" cx="1855.39" cy="-265" rx="38.19" ry="18"/>
<text text-anchor="middle" x="1855.39" y="-261.3" font-family="Times,serif" font-size="14.00">string</text>
</g>
<!-- association_category -->
<g id="node20" class="node">
<title>association_category</title>
<ellipse fill="none" stroke="blue" cx="1974.39" cy="-265" rx="62.29" ry="18"/>
<text text-anchor="middle" x="1974.39" y="-261.3" font-family="Times,serif" font-size="14.00">association</text>
</g>
<!-- object&#45;&gt;relation -->
<g id="edge21" class="edge">
<title>object&#45;&gt;relation</title>
<path fill="none" stroke="black" stroke-dasharray="1,5" d="M1673.52,-74.24C1664.92,-65.13 1653.92,-53.47 1644.24,-43.21"/>
<polygon fill="black" stroke="black" points="1646.56,-40.57 1637.16,-35.7 1641.47,-45.38 1646.56,-40.57"/>
</g>
<!-- administrative operational to componentservice association_object -->
<g id="node22" class="node">
<title>administrative operational to componentservice association_object</title>
<ellipse fill="none" stroke="blue" cx="2219.39" cy="-265" rx="164.37" ry="18"/>
<text text-anchor="middle" x="2219.39" y="-261.3" font-family="Times,serif" font-size="14.00">componentservice or servicetype</text>
</g>
</g>
</svg>
