<?xml version="1.0" encoding="UTF-8" standalone="no"?>
<!DOCTYPE svg PUBLIC "-//W3C//DTD SVG 1.1//EN"
 "http://www.w3.org/Graphics/SVG/1.1/DTD/svg11.dtd">
<!-- Generated by graphviz version 2.43.0 (0)
 -->
<!-- Title: %3 Pages: 1 -->
<svg width="1683pt" height="131pt"
 viewBox="0.00 0.00 1682.79 131.00" xmlns="http://www.w3.org/2000/svg" xmlns:xlink="http://www.w3.org/1999/xlink">
<g id="graph0" class="graph" transform="scale(1 1) rotate(0) translate(4 127)">
<title>%3</title>
<polygon fill="white" stroke="transparent" points="-4,4 -4,-127 1678.79,-127 1678.79,4 -4,4"/>
<!-- administrative operation -->
<g id="node1" class="node">
<title>administrative operation</title>
<ellipse fill="none" stroke="black" cx="811.59" cy="-105" rx="126.18" ry="18"/>
<text text-anchor="middle" x="811.59" y="-101.3" font-family="Times,serif" font-size="14.00">administrative operation</text>
</g>
<!-- operational entity -->
<g id="node2" class="node">
<title>operational entity</title>
<ellipse fill="none" stroke="black" cx="93.59" cy="-18" rx="93.68" ry="18"/>
<text text-anchor="middle" x="93.59" y="-14.3" font-family="Times,serif" font-size="14.00">operational entity</text>
</g>
<!-- administrative operation&#45;&gt;operational entity -->
<g id="edge1" class="edge">
<title>administrative operation&#45;&gt;operational entity</title>
<path fill="none" stroke="black" d="M691.3,-99.6C594.35,-95 454.72,-85.98 333.59,-69 273.78,-60.62 206.53,-46.16 158.47,-34.95"/>
<polygon fill="black" stroke="black" points="159.05,-31.49 148.52,-32.61 157.45,-38.3 159.05,-31.49"/>
<text text-anchor="middle" x="347.59" y="-57.8" font-family="Times,serif" font-size="14.00">is_a</text>
</g>
<!-- cluster -->
<g id="node3" class="node">
<title>cluster</title>
<ellipse fill="none" stroke="black" cx="247.59" cy="-18" rx="42.79" ry="18"/>
<text text-anchor="middle" x="247.59" y="-14.3" font-family="Times,serif" font-size="14.00">cluster</text>
</g>
<!-- administrative operation&#45;&gt;cluster -->
<g id="edge2" class="edge">
<title>administrative operation&#45;&gt;cluster</title>
<path fill="none" stroke="black" d="M696.57,-97.55C622.09,-92.32 523.19,-83.39 436.59,-69 374.81,-58.73 359.85,-53.08 299.59,-36 296.29,-35.07 292.89,-34.06 289.48,-33.01"/>
<polygon fill="black" stroke="black" points="290.51,-29.67 279.92,-30.01 288.42,-36.35 290.51,-29.67"/>
<text text-anchor="middle" x="453.09" y="-57.8" font-family="Times,serif" font-size="14.00">uses</text>
</g>
<!-- id -->
<g id="node4" class="node">
<title>id</title>
<ellipse fill="none" stroke="blue" cx="346.59" cy="-18" rx="38.19" ry="18"/>
<text text-anchor="middle" x="346.59" y="-14.3" font-family="Times,serif" font-size="14.00">string</text>
</g>
<!-- administrative operation&#45;&gt;id -->
<g id="edge3" class="edge">
<title>administrative operation&#45;&gt;id</title>
<path fill="none" stroke="blue" d="M710.77,-94.09C625.43,-84.15 500.46,-65.96 394.59,-36 391.49,-35.12 388.29,-34.15 385.09,-33.12"/>
<polygon fill="blue" stroke="blue" points="386.18,-29.8 375.59,-29.95 383.96,-36.44 386.18,-29.8"/>
<text text-anchor="middle" x="537.59" y="-57.8" font-family="Times,serif" font-size="14.00">id</text>
</g>
<!-- iri -->
<g id="node5" class="node">
<title>iri</title>
<ellipse fill="none" stroke="blue" cx="447.59" cy="-18" rx="44.39" ry="18"/>
<text text-anchor="middle" x="447.59" y="-14.3" font-family="Times,serif" font-size="14.00">iri type</text>
</g>
<!-- administrative operation&#45;&gt;iri -->
<g id="edge4" class="edge">
<title>administrative operation&#45;&gt;iri</title>
<path fill="none" stroke="blue" d="M734.81,-90.6C701.71,-84.52 662.64,-76.91 627.59,-69 571.12,-56.25 557.22,-52.03 501.59,-36 498.08,-34.99 494.45,-33.91 490.81,-32.81"/>
<polygon fill="blue" stroke="blue" points="491.8,-29.45 481.22,-29.86 489.75,-36.15 491.8,-29.45"/>
<text text-anchor="middle" x="635.59" y="-57.8" font-family="Times,serif" font-size="14.00">iri</text>
</g>
<!-- type -->
<g id="node6" class="node">
<title>type</title>
<ellipse fill="none" stroke="blue" cx="548.59" cy="-18" rx="38.19" ry="18"/>
<text text-anchor="middle" x="548.59" y="-14.3" font-family="Times,serif" font-size="14.00">string</text>
</g>
<!-- administrative operation&#45;&gt;type -->
<g id="edge5" class="edge">
<title>administrative operation&#45;&gt;type</title>
<path fill="none" stroke="blue" d="M757.84,-88.71C737.36,-82.75 713.84,-75.74 692.59,-69 649.18,-55.24 638.56,-51.08 595.59,-36 592.91,-35.06 590.14,-34.08 587.35,-33.08"/>
<polygon fill="blue" stroke="blue" points="588.49,-29.78 577.89,-29.7 586.13,-36.37 588.49,-29.78"/>
<text text-anchor="middle" x="708.59" y="-57.8" font-family="Times,serif" font-size="14.00">type</text>
</g>
<!-- name -->
<g id="node7" class="node">
<title>name</title>
<ellipse fill="none" stroke="blue" cx="661.59" cy="-18" rx="56.59" ry="18"/>
<text text-anchor="middle" x="661.59" y="-14.3" font-family="Times,serif" font-size="14.00">label type</text>
</g>
<!-- administrative operation&#45;&gt;name -->
<g id="edge6" class="edge">
<title>administrative operation&#45;&gt;name</title>
<path fill="none" stroke="blue" d="M782.31,-87.41C757.91,-73.58 723.06,-53.83 697.07,-39.1"/>
<polygon fill="blue" stroke="blue" points="698.7,-36.01 688.28,-34.12 695.25,-42.1 698.7,-36.01"/>
<text text-anchor="middle" x="765.59" y="-57.8" font-family="Times,serif" font-size="14.00">name</text>
</g>
<!-- description -->
<g id="node8" class="node">
<title>description</title>
<ellipse fill="none" stroke="blue" cx="811.59" cy="-18" rx="75.29" ry="18"/>
<text text-anchor="middle" x="811.59" y="-14.3" font-family="Times,serif" font-size="14.00">narrative text</text>
</g>
<!-- administrative operation&#45;&gt;description -->
<g id="edge7" class="edge">
<title>administrative operation&#45;&gt;description</title>
<path fill="none" stroke="blue" d="M811.59,-86.8C811.59,-75.16 811.59,-59.55 811.59,-46.24"/>
<polygon fill="blue" stroke="blue" points="815.09,-46.18 811.59,-36.18 808.09,-46.18 815.09,-46.18"/>
<text text-anchor="middle" x="852.09" y="-57.8" font-family="Times,serif" font-size="14.00">description</text>
</g>
<!-- source -->
<g id="node9" class="node">
<title>source</title>
<ellipse fill="none" stroke="blue" cx="961.59" cy="-18" rx="56.59" ry="18"/>
<text text-anchor="middle" x="961.59" y="-14.3" font-family="Times,serif" font-size="14.00">label type</text>
</g>
<!-- administrative operation&#45;&gt;source -->
<g id="edge8" class="edge">
<title>administrative operation&#45;&gt;source</title>
<path fill="none" stroke="blue" d="M856.33,-88.17C869.63,-82.78 884.01,-76.26 896.59,-69 910.19,-61.16 924.13,-50.8 935.59,-41.54"/>
<polygon fill="blue" stroke="blue" points="937.98,-44.11 943.47,-35.05 933.52,-38.71 937.98,-44.11"/>
<text text-anchor="middle" x="943.59" y="-57.8" font-family="Times,serif" font-size="14.00">source</text>
</g>
<!-- provided by -->
<g id="node10" class="node">
<title>provided by</title>
<ellipse fill="none" stroke="blue" cx="1073.59" cy="-18" rx="37.09" ry="18"/>
<text text-anchor="middle" x="1073.59" y="-14.3" font-family="Times,serif" font-size="14.00">agent</text>
</g>
<!-- administrative operation&#45;&gt;provided by -->
<g id="edge9" class="edge">
<title>administrative operation&#45;&gt;provided by</title>
<path fill="none" stroke="blue" d="M889.95,-90.78C916.27,-85.31 945.55,-78.08 971.59,-69 995.87,-60.53 1021.87,-47.73 1041.54,-37.19"/>
<polygon fill="blue" stroke="blue" points="1043.27,-40.24 1050.38,-32.39 1039.92,-34.09 1043.27,-40.24"/>
<text text-anchor="middle" x="1049.09" y="-57.8" font-family="Times,serif" font-size="14.00">provided by</text>
</g>
<!-- has attribute -->
<g id="node11" class="node">
<title>has attribute</title>
<ellipse fill="none" stroke="blue" cx="1180.59" cy="-18" rx="51.99" ry="18"/>
<text text-anchor="middle" x="1180.59" y="-14.3" font-family="Times,serif" font-size="14.00">attribute</text>
</g>
<!-- administrative operation&#45;&gt;has attribute -->
<g id="edge10" class="edge">
<title>administrative operation&#45;&gt;has attribute</title>
<path fill="none" stroke="blue" d="M902.72,-92.46C917.39,-90.62 932.41,-88.75 946.59,-87 1012.79,-78.83 1032.4,-90.36 1095.59,-69 1115.25,-62.35 1135.35,-50.79 1151.06,-40.46"/>
<polygon fill="blue" stroke="blue" points="1153.45,-43.07 1159.77,-34.57 1149.53,-37.27 1153.45,-43.07"/>
<text text-anchor="middle" x="1174.59" y="-57.8" font-family="Times,serif" font-size="14.00">has attribute</text>
</g>
<!-- category -->
<g id="node12" class="node">
<title>category</title>
<ellipse fill="none" stroke="black" cx="1301.59" cy="-18" rx="51.19" ry="18"/>
<text text-anchor="middle" x="1301.59" y="-14.3" font-family="Times,serif" font-size="14.00">category</text>
</g>
<!-- administrative operation&#45;&gt;category -->
<g id="edge11" class="edge">
<title>administrative operation&#45;&gt;category</title>
<path fill="none" stroke="blue" d="M899.74,-92.12C915.33,-90.24 931.42,-88.44 946.59,-87 1008.44,-81.12 1166.68,-88.73 1225.59,-69 1243.57,-62.98 1261.41,-51.6 1275.28,-41.22"/>
<polygon fill="blue" stroke="blue" points="1277.61,-43.84 1283.37,-34.95 1273.32,-38.31 1277.61,-43.84"/>
<text text-anchor="middle" x="1287.09" y="-57.8" font-family="Times,serif" font-size="14.00">category</text>
</g>
<!-- in taxon -->
<g id="node14" class="node">
<title>in taxon</title>
<ellipse fill="none" stroke="blue" cx="1443.59" cy="-18" rx="72.59" ry="18"/>
<text text-anchor="middle" x="1443.59" y="-14.3" font-family="Times,serif" font-size="14.00">system taxon</text>
</g>
<!-- administrative operation&#45;&gt;in taxon -->
<g id="edge12" class="edge">
<title>administrative operation&#45;&gt;in taxon</title>
<path fill="none" stroke="blue" d="M898.99,-91.99C914.81,-90.1 931.18,-88.34 946.59,-87 1113.27,-72.54 1159.32,-105.48 1322.59,-69 1351.25,-62.6 1381.8,-49.92 1405.04,-38.94"/>
<polygon fill="blue" stroke="blue" points="1406.71,-42.01 1414.2,-34.51 1403.67,-35.71 1406.71,-42.01"/>
<text text-anchor="middle" x="1396.59" y="-57.8" font-family="Times,serif" font-size="14.00">in taxon</text>
</g>
<!-- has control actor -->
<g id="node15" class="node">
<title>has control actor</title>
<ellipse fill="none" stroke="blue" cx="1604.59" cy="-18" rx="70.39" ry="18"/>
<text text-anchor="middle" x="1604.59" y="-14.3" font-family="Times,serif" font-size="14.00">control actor</text>
</g>
<!-- administrative operation&#45;&gt;has control actor -->
<g id="edge13" class="edge">
<title>administrative operation&#45;&gt;has control actor</title>
<path fill="none" stroke="blue" d="M898.62,-91.9C914.55,-90.01 931.05,-88.27 946.59,-87 1160.7,-69.56 1217.44,-102.75 1429.59,-69 1473.05,-62.09 1521.01,-47.9 1555.71,-36.4"/>
<polygon fill="blue" stroke="blue" points="1557.22,-39.58 1565.59,-33.08 1554.99,-32.95 1557.22,-39.58"/>
<text text-anchor="middle" x="1554.09" y="-57.8" font-family="Times,serif" font-size="14.00">has control actor</text>
</g>
<!-- named thing_category -->
<g id="node13" class="node">
<title>named thing_category</title>
<ellipse fill="none" stroke="blue" cx="1025.59" cy="-105" rx="69.59" ry="18"/>
<text text-anchor="middle" x="1025.59" y="-101.3" font-family="Times,serif" font-size="14.00">named thing</text>
</g>
</g>
</svg>
