<?xml version="1.0" encoding="UTF-8" standalone="no"?>
<!DOCTYPE svg PUBLIC "-//W3C//DTD SVG 1.1//EN"
 "http://www.w3.org/Graphics/SVG/1.1/DTD/svg11.dtd">
<!-- Generated by graphviz version 2.43.0 (0)
 -->
<!-- Title: %3 Pages: 1 -->
<svg width="1954pt" height="131pt"
 viewBox="0.00 0.00 1954.33 131.00" xmlns="http://www.w3.org/2000/svg" xmlns:xlink="http://www.w3.org/1999/xlink">
<g id="graph0" class="graph" transform="scale(1 1) rotate(0) translate(4 127)">
<title>%3</title>
<polygon fill="white" stroke="transparent" points="-4,4 -4,-127 1950.33,-127 1950.33,4 -4,4"/>
<!-- administrative operational exposure -->
<g id="node1" class="node">
<title>administrative operational exposure</title>
<ellipse fill="none" stroke="black" cx="1030.09" cy="-105" rx="179.27" ry="18"/>
<text text-anchor="middle" x="1030.09" y="-101.3" font-family="Times,serif" font-size="14.00">administrative operational exposure</text>
</g>
<!-- administrative operation -->
<g id="node2" class="node">
<title>administrative operation</title>
<ellipse fill="none" stroke="black" cx="126.09" cy="-18" rx="126.18" ry="18"/>
<text text-anchor="middle" x="126.09" y="-14.3" font-family="Times,serif" font-size="14.00">administrative operation</text>
</g>
<!-- administrative operational exposure&#45;&gt;administrative operation -->
<g id="edge1" class="edge">
<title>administrative operational exposure&#45;&gt;administrative operation</title>
<path fill="none" stroke="black" d="M866.9,-97.5C754.11,-92.13 600.74,-83.05 466.09,-69 379.84,-60 281.92,-45.1 213.39,-33.9"/>
<polygon fill="black" stroke="black" points="213.94,-30.44 203.5,-32.28 212.8,-37.35 213.94,-30.44"/>
<text text-anchor="middle" x="480.09" y="-57.8" font-family="Times,serif" font-size="14.00">is_a</text>
</g>
<!-- exposure event -->
<g id="node3" class="node">
<title>exposure event</title>
<ellipse fill="none" stroke="black" cx="352.09" cy="-18" rx="81.79" ry="18"/>
<text text-anchor="middle" x="352.09" y="-14.3" font-family="Times,serif" font-size="14.00">exposure event</text>
</g>
<!-- administrative operational exposure&#45;&gt;exposure event -->
<g id="edge2" class="edge">
<title>administrative operational exposure&#45;&gt;exposure event</title>
<path fill="none" stroke="black" d="M869.64,-96.92C783.48,-91.76 675.63,-83.12 580.09,-69 522.76,-60.53 458.33,-45.92 412.63,-34.67"/>
<polygon fill="black" stroke="black" points="413.43,-31.26 402.88,-32.25 411.74,-38.06 413.43,-31.26"/>
<text text-anchor="middle" x="596.59" y="-57.8" font-family="Times,serif" font-size="14.00">uses</text>
</g>
<!-- id -->
<g id="node4" class="node">
<title>id</title>
<ellipse fill="none" stroke="blue" cx="490.09" cy="-18" rx="38.19" ry="18"/>
<text text-anchor="middle" x="490.09" y="-14.3" font-family="Times,serif" font-size="14.00">string</text>
</g>
<!-- administrative operational exposure&#45;&gt;id -->
<g id="edge3" class="edge">
<title>administrative operational exposure&#45;&gt;id</title>
<path fill="none" stroke="blue" d="M885.94,-94.26C786.76,-85.09 652.75,-67.82 538.09,-36 534.98,-35.14 531.78,-34.17 528.58,-33.16"/>
<polygon fill="blue" stroke="blue" points="529.67,-29.83 519.07,-30 527.46,-36.47 529.67,-29.83"/>
<text text-anchor="middle" x="692.09" y="-57.8" font-family="Times,serif" font-size="14.00">id</text>
</g>
<!-- iri -->
<g id="node5" class="node">
<title>iri</title>
<ellipse fill="none" stroke="blue" cx="591.09" cy="-18" rx="44.39" ry="18"/>
<text text-anchor="middle" x="591.09" y="-14.3" font-family="Times,serif" font-size="14.00">iri type</text>
</g>
<!-- administrative operational exposure&#45;&gt;iri -->
<g id="edge4" class="edge">
<title>administrative operational exposure&#45;&gt;iri</title>
<path fill="none" stroke="blue" d="M924.35,-90.42C882.43,-84.55 833.86,-77.16 790.09,-69 725.12,-56.89 708.88,-53.27 645.09,-36 641.51,-35.03 637.81,-33.98 634.11,-32.89"/>
<polygon fill="blue" stroke="blue" points="634.96,-29.49 624.38,-29.95 632.94,-36.19 634.96,-29.49"/>
<text text-anchor="middle" x="798.09" y="-57.8" font-family="Times,serif" font-size="14.00">iri</text>
</g>
<!-- type -->
<g id="node6" class="node">
<title>type</title>
<ellipse fill="none" stroke="blue" cx="692.09" cy="-18" rx="38.19" ry="18"/>
<text text-anchor="middle" x="692.09" y="-14.3" font-family="Times,serif" font-size="14.00">string</text>
</g>
<!-- administrative operational exposure&#45;&gt;type -->
<g id="edge5" class="edge">
<title>administrative operational exposure&#45;&gt;type</title>
<path fill="none" stroke="blue" d="M951.81,-88.74C892.79,-76.5 810.14,-57.81 739.09,-36 736.33,-35.15 733.49,-34.24 730.64,-33.29"/>
<polygon fill="blue" stroke="blue" points="731.62,-29.92 721.02,-29.97 729.33,-36.54 731.62,-29.92"/>
<text text-anchor="middle" x="874.09" y="-57.8" font-family="Times,serif" font-size="14.00">type</text>
</g>
<!-- name -->
<g id="node7" class="node">
<title>name</title>
<ellipse fill="none" stroke="blue" cx="805.09" cy="-18" rx="56.59" ry="18"/>
<text text-anchor="middle" x="805.09" y="-14.3" font-family="Times,serif" font-size="14.00">label type</text>
</g>
<!-- administrative operational exposure&#45;&gt;name -->
<g id="edge6" class="edge">
<title>administrative operational exposure&#45;&gt;name</title>
<path fill="none" stroke="blue" d="M986.44,-87.51C947.01,-72.61 889.24,-50.79 849.55,-35.8"/>
<polygon fill="blue" stroke="blue" points="850.72,-32.5 840.13,-32.24 848.25,-39.05 850.72,-32.5"/>
<text text-anchor="middle" x="951.09" y="-57.8" font-family="Times,serif" font-size="14.00">name</text>
</g>
<!-- description -->
<g id="node8" class="node">
<title>description</title>
<ellipse fill="none" stroke="blue" cx="955.09" cy="-18" rx="75.29" ry="18"/>
<text text-anchor="middle" x="955.09" y="-14.3" font-family="Times,serif" font-size="14.00">narrative text</text>
</g>
<!-- administrative operational exposure&#45;&gt;description -->
<g id="edge7" class="edge">
<title>administrative operational exposure&#45;&gt;description</title>
<path fill="none" stroke="blue" d="M1014.91,-86.8C1003.96,-74.39 989.02,-57.46 976.81,-43.62"/>
<polygon fill="blue" stroke="blue" points="979.23,-41.07 969.99,-35.89 973.98,-45.7 979.23,-41.07"/>
<text text-anchor="middle" x="1037.59" y="-57.8" font-family="Times,serif" font-size="14.00">description</text>
</g>
<!-- source -->
<g id="node9" class="node">
<title>source</title>
<ellipse fill="none" stroke="blue" cx="1105.09" cy="-18" rx="56.59" ry="18"/>
<text text-anchor="middle" x="1105.09" y="-14.3" font-family="Times,serif" font-size="14.00">label type</text>
</g>
<!-- administrative operational exposure&#45;&gt;source -->
<g id="edge8" class="edge">
<title>administrative operational exposure&#45;&gt;source</title>
<path fill="none" stroke="blue" d="M1060.95,-87.26C1068.53,-82.13 1076.17,-75.96 1082.09,-69 1087.9,-62.17 1092.54,-53.63 1096.09,-45.55"/>
<polygon fill="blue" stroke="blue" points="1099.42,-46.65 1099.88,-36.07 1092.92,-44.05 1099.42,-46.65"/>
<text text-anchor="middle" x="1116.09" y="-57.8" font-family="Times,serif" font-size="14.00">source</text>
</g>
<!-- provided by -->
<g id="node10" class="node">
<title>provided by</title>
<ellipse fill="none" stroke="blue" cx="1217.09" cy="-18" rx="37.09" ry="18"/>
<text text-anchor="middle" x="1217.09" y="-14.3" font-family="Times,serif" font-size="14.00">agent</text>
</g>
<!-- administrative operational exposure&#45;&gt;provided by -->
<g id="edge9" class="edge">
<title>administrative operational exposure&#45;&gt;provided by</title>
<path fill="none" stroke="blue" d="M1093.81,-88.15C1110.55,-82.99 1128.33,-76.6 1144.09,-69 1160.43,-61.12 1177.24,-49.87 1190.6,-40.03"/>
<polygon fill="blue" stroke="blue" points="1192.96,-42.63 1198.84,-33.82 1188.75,-37.04 1192.96,-42.63"/>
<text text-anchor="middle" x="1212.59" y="-57.8" font-family="Times,serif" font-size="14.00">provided by</text>
</g>
<!-- has attribute -->
<g id="node11" class="node">
<title>has attribute</title>
<ellipse fill="none" stroke="blue" cx="1324.09" cy="-18" rx="51.99" ry="18"/>
<text text-anchor="middle" x="1324.09" y="-14.3" font-family="Times,serif" font-size="14.00">attribute</text>
</g>
<!-- administrative operational exposure&#45;&gt;has attribute -->
<g id="edge10" class="edge">
<title>administrative operational exposure&#45;&gt;has attribute</title>
<path fill="none" stroke="blue" d="M1171.25,-93.81C1201.04,-88.55 1231.72,-80.69 1259.09,-69 1274.19,-62.55 1288.89,-51.76 1300.47,-41.85"/>
<polygon fill="blue" stroke="blue" points="1302.81,-44.45 1307.96,-35.19 1298.16,-39.22 1302.81,-44.45"/>
<text text-anchor="middle" x="1332.09" y="-57.8" font-family="Times,serif" font-size="14.00">has attribute</text>
</g>
<!-- category -->
<g id="node12" class="node">
<title>category</title>
<ellipse fill="none" stroke="black" cx="1445.09" cy="-18" rx="51.19" ry="18"/>
<text text-anchor="middle" x="1445.09" y="-14.3" font-family="Times,serif" font-size="14.00">category</text>
</g>
<!-- administrative operational exposure&#45;&gt;category -->
<g id="edge11" class="edge">
<title>administrative operational exposure&#45;&gt;category</title>
<path fill="none" stroke="blue" d="M1157.31,-92.23C1256.27,-82.95 1377.72,-71.2 1383.09,-69 1397.71,-63.01 1411.63,-52.41 1422.56,-42.5"/>
<polygon fill="blue" stroke="blue" points="1425.11,-44.91 1429.96,-35.49 1420.3,-39.83 1425.11,-44.91"/>
<text text-anchor="middle" x="1439.59" y="-57.8" font-family="Times,serif" font-size="14.00">category</text>
</g>
<!-- in taxon -->
<g id="node14" class="node">
<title>in taxon</title>
<ellipse fill="none" stroke="blue" cx="1587.09" cy="-18" rx="72.59" ry="18"/>
<text text-anchor="middle" x="1587.09" y="-14.3" font-family="Times,serif" font-size="14.00">system taxon</text>
</g>
<!-- administrative operational exposure&#45;&gt;in taxon -->
<g id="edge12" class="edge">
<title>administrative operational exposure&#45;&gt;in taxon</title>
<path fill="none" stroke="blue" d="M1156.47,-92.22C1177.06,-90.4 1198.16,-88.6 1218.09,-87 1332.22,-77.84 1364,-96.76 1475.09,-69 1501.18,-62.48 1528.79,-50.22 1550.07,-39.47"/>
<polygon fill="blue" stroke="blue" points="1551.79,-42.52 1559.07,-34.83 1548.58,-36.3 1551.79,-42.52"/>
<text text-anchor="middle" x="1546.09" y="-57.8" font-family="Times,serif" font-size="14.00">in taxon</text>
</g>
<!-- has control actor -->
<g id="node15" class="node">
<title>has control actor</title>
<ellipse fill="none" stroke="blue" cx="1748.09" cy="-18" rx="70.39" ry="18"/>
<text text-anchor="middle" x="1748.09" y="-14.3" font-family="Times,serif" font-size="14.00">control actor</text>
</g>
<!-- administrative operational exposure&#45;&gt;has control actor -->
<g id="edge13" class="edge">
<title>administrative operational exposure&#45;&gt;has control actor</title>
<path fill="none" stroke="blue" d="M1154.67,-92.02C1175.82,-90.19 1197.57,-88.44 1218.09,-87 1378.34,-75.76 1420.73,-95.98 1579.09,-69 1620.82,-61.89 1666.8,-47.86 1700.25,-36.47"/>
<polygon fill="blue" stroke="blue" points="1701.47,-39.76 1709.78,-33.18 1699.18,-33.14 1701.47,-39.76"/>
<text text-anchor="middle" x="1701.59" y="-57.8" font-family="Times,serif" font-size="14.00">has control actor</text>
</g>
<!-- timepoint -->
<g id="node16" class="node">
<title>timepoint</title>
<ellipse fill="none" stroke="blue" cx="1891.09" cy="-18" rx="55.49" ry="18"/>
<text text-anchor="middle" x="1891.09" y="-14.3" font-family="Times,serif" font-size="14.00">time type</text>
</g>
<!-- administrative operational exposure&#45;&gt;timepoint -->
<g id="edge14" class="edge">
<title>administrative operational exposure&#45;&gt;timepoint</title>
<path fill="none" stroke="blue" d="M1152.88,-91.87C1174.59,-90.02 1196.99,-88.3 1218.09,-87 1339.7,-79.51 1646.84,-94 1766.09,-69 1796.58,-62.61 1829.21,-49.31 1853.49,-38.04"/>
<polygon fill="blue" stroke="blue" points="1855.15,-41.13 1862.69,-33.68 1852.15,-34.8 1855.15,-41.13"/>
<text text-anchor="middle" x="1850.09" y="-57.8" font-family="Times,serif" font-size="14.00">timepoint</text>
</g>
<!-- named thing_category -->
<g id="node13" class="node">
<title>named thing_category</title>
<ellipse fill="none" stroke="blue" cx="1297.09" cy="-105" rx="69.59" ry="18"/>
<text text-anchor="middle" x="1297.09" y="-101.3" font-family="Times,serif" font-size="14.00">named thing</text>
</g>
</g>
</svg>
