<?xml version="1.0" encoding="UTF-8" standalone="no"?>
<!DOCTYPE svg PUBLIC "-//W3C//DTD SVG 1.1//EN"
 "http://www.w3.org/Graphics/SVG/1.1/DTD/svg11.dtd">
<!-- Generated by graphviz version 2.43.0 (0)
 -->
<!-- Title: %3 Pages: 1 -->
<svg width="2504pt" height="131pt"
 viewBox="0.00 0.00 2504.38 131.00" xmlns="http://www.w3.org/2000/svg" xmlns:xlink="http://www.w3.org/1999/xlink">
<g id="graph0" class="graph" transform="scale(1 1) rotate(0) translate(4 127)">
<title>%3</title>
<polygon fill="white" stroke="transparent" points="-4,4 -4,-127 2500.38,-127 2500.38,4 -4,4"/>
<!-- administrative operational to componentservice interaction exposure -->
<g id="node1" class="node">
<title>administrative operational to componentservice interaction exposure</title>
<ellipse fill="none" stroke="black" cx="1385.38" cy="-105" rx="332.54" ry="18"/>
<text text-anchor="middle" x="1385.38" y="-101.3" font-family="Times,serif" font-size="14.00">administrative operational to componentservice interaction exposure</text>
</g>
<!-- administrative operational exposure -->
<g id="node2" class="node">
<title>administrative operational exposure</title>
<ellipse fill="none" stroke="black" cx="179.38" cy="-18" rx="179.27" ry="18"/>
<text text-anchor="middle" x="179.38" y="-14.3" font-family="Times,serif" font-size="14.00">administrative operational exposure</text>
</g>
<!-- administrative operational to componentservice interaction exposure&#45;&gt;administrative operational exposure -->
<g id="edge1" class="edge">
<title>administrative operational to componentservice interaction exposure&#45;&gt;administrative operational exposure</title>
<path fill="none" stroke="black" d="M1133.83,-93.18C1008.84,-87.2 855.58,-78.96 718.38,-69 578.29,-58.83 418.06,-43.49 308.96,-32.49"/>
<polygon fill="black" stroke="black" points="309.19,-28.99 298.89,-31.47 308.49,-35.96 309.19,-28.99"/>
<text text-anchor="middle" x="732.38" y="-57.8" font-family="Times,serif" font-size="14.00">is_a</text>
</g>
<!-- componentservice grouping mixin -->
<g id="node3" class="node">
<title>componentservice grouping mixin</title>
<ellipse fill="none" stroke="black" cx="545.38" cy="-18" rx="168.97" ry="18"/>
<text text-anchor="middle" x="545.38" y="-14.3" font-family="Times,serif" font-size="14.00">componentservice grouping mixin</text>
</g>
<!-- administrative operational to componentservice interaction exposure&#45;&gt;componentservice grouping mixin -->
<g id="edge2" class="edge">
<title>administrative operational to componentservice interaction exposure&#45;&gt;componentservice grouping mixin</title>
<path fill="none" stroke="black" d="M1139.36,-92.85C1048.67,-87.44 945.19,-79.71 851.38,-69 777.8,-60.6 694.92,-46.78 633.99,-35.8"/>
<polygon fill="black" stroke="black" points="634.49,-32.34 624.03,-34 633.24,-39.22 634.49,-32.34"/>
<text text-anchor="middle" x="867.88" y="-57.8" font-family="Times,serif" font-size="14.00">uses</text>
</g>
<!-- id -->
<g id="node4" class="node">
<title>id</title>
<ellipse fill="none" stroke="blue" cx="770.38" cy="-18" rx="38.19" ry="18"/>
<text text-anchor="middle" x="770.38" y="-14.3" font-family="Times,serif" font-size="14.00">string</text>
</g>
<!-- administrative operational to componentservice interaction exposure&#45;&gt;id -->
<g id="edge3" class="edge">
<title>administrative operational to componentservice interaction exposure&#45;&gt;id</title>
<path fill="none" stroke="blue" d="M1174.4,-91.06C1110,-85.76 1039.12,-78.57 974.38,-69 904.28,-58.64 886.6,-55.2 818.38,-36 815.28,-35.13 812.08,-34.15 808.88,-33.13"/>
<polygon fill="blue" stroke="blue" points="809.97,-29.81 799.38,-29.96 807.76,-36.45 809.97,-29.81"/>
<text text-anchor="middle" x="981.38" y="-57.8" font-family="Times,serif" font-size="14.00">id</text>
</g>
<!-- iri -->
<g id="node5" class="node">
<title>iri</title>
<ellipse fill="none" stroke="blue" cx="871.38" cy="-18" rx="44.39" ry="18"/>
<text text-anchor="middle" x="871.38" y="-14.3" font-family="Times,serif" font-size="14.00">iri type</text>
</g>
<!-- administrative operational to componentservice interaction exposure&#45;&gt;iri -->
<g id="edge4" class="edge">
<title>administrative operational to componentservice interaction exposure&#45;&gt;iri</title>
<path fill="none" stroke="blue" d="M1215.74,-89.49C1166.72,-84.22 1113.27,-77.44 1064.38,-69 1001.81,-58.2 986.59,-52.88 925.38,-36 921.81,-35.01 918.12,-33.95 914.42,-32.85"/>
<polygon fill="blue" stroke="blue" points="915.27,-29.45 904.69,-29.9 913.24,-36.15 915.27,-29.45"/>
<text text-anchor="middle" x="1072.38" y="-57.8" font-family="Times,serif" font-size="14.00">iri</text>
</g>
<!-- type -->
<g id="node6" class="node">
<title>type</title>
<ellipse fill="none" stroke="blue" cx="972.38" cy="-18" rx="38.19" ry="18"/>
<text text-anchor="middle" x="972.38" y="-14.3" font-family="Times,serif" font-size="14.00">string</text>
</g>
<!-- administrative operational to componentservice interaction exposure&#45;&gt;type -->
<g id="edge5" class="edge">
<title>administrative operational to componentservice interaction exposure&#45;&gt;type</title>
<path fill="none" stroke="blue" d="M1266.1,-88.15C1229.79,-82.74 1189.84,-76.22 1153.38,-69 1093.22,-57.08 1078.08,-53.79 1019.38,-36 1016.62,-35.16 1013.78,-34.26 1010.93,-33.31"/>
<polygon fill="blue" stroke="blue" points="1011.9,-29.94 1001.31,-30 1009.63,-36.56 1011.9,-29.94"/>
<text text-anchor="middle" x="1169.38" y="-57.8" font-family="Times,serif" font-size="14.00">type</text>
</g>
<!-- name -->
<g id="node7" class="node">
<title>name</title>
<ellipse fill="none" stroke="blue" cx="1085.38" cy="-18" rx="56.59" ry="18"/>
<text text-anchor="middle" x="1085.38" y="-14.3" font-family="Times,serif" font-size="14.00">label type</text>
</g>
<!-- administrative operational to componentservice interaction exposure&#45;&gt;name -->
<g id="edge6" class="edge">
<title>administrative operational to componentservice interaction exposure&#45;&gt;name</title>
<path fill="none" stroke="blue" d="M1307.43,-87.43C1283.84,-82.02 1257.95,-75.67 1234.38,-69 1199.24,-59.05 1160.11,-45.84 1130.77,-35.49"/>
<polygon fill="blue" stroke="blue" points="1131.81,-32.15 1121.21,-32.1 1129.47,-38.74 1131.81,-32.15"/>
<text text-anchor="middle" x="1254.38" y="-57.8" font-family="Times,serif" font-size="14.00">name</text>
</g>
<!-- description -->
<g id="node8" class="node">
<title>description</title>
<ellipse fill="none" stroke="blue" cx="1235.38" cy="-18" rx="75.29" ry="18"/>
<text text-anchor="middle" x="1235.38" y="-14.3" font-family="Times,serif" font-size="14.00">narrative text</text>
</g>
<!-- administrative operational to componentservice interaction exposure&#45;&gt;description -->
<g id="edge7" class="edge">
<title>administrative operational to componentservice interaction exposure&#45;&gt;description</title>
<path fill="none" stroke="blue" d="M1338,-87.09C1325.45,-81.91 1312.13,-75.78 1300.38,-69 1286.99,-61.27 1273.25,-51.1 1261.89,-41.95"/>
<polygon fill="blue" stroke="blue" points="1264.01,-39.16 1254.06,-35.52 1259.56,-44.57 1264.01,-39.16"/>
<text text-anchor="middle" x="1340.88" y="-57.8" font-family="Times,serif" font-size="14.00">description</text>
</g>
<!-- source -->
<g id="node9" class="node">
<title>source</title>
<ellipse fill="none" stroke="blue" cx="1385.38" cy="-18" rx="56.59" ry="18"/>
<text text-anchor="middle" x="1385.38" y="-14.3" font-family="Times,serif" font-size="14.00">label type</text>
</g>
<!-- administrative operational to componentservice interaction exposure&#45;&gt;source -->
<g id="edge8" class="edge">
<title>administrative operational to componentservice interaction exposure&#45;&gt;source</title>
<path fill="none" stroke="blue" d="M1385.38,-86.8C1385.38,-75.16 1385.38,-59.55 1385.38,-46.24"/>
<polygon fill="blue" stroke="blue" points="1388.88,-46.18 1385.38,-36.18 1381.88,-46.18 1388.88,-46.18"/>
<text text-anchor="middle" x="1409.38" y="-57.8" font-family="Times,serif" font-size="14.00">source</text>
</g>
<!-- provided by -->
<g id="node10" class="node">
<title>provided by</title>
<ellipse fill="none" stroke="blue" cx="1497.38" cy="-18" rx="37.09" ry="18"/>
<text text-anchor="middle" x="1497.38" y="-14.3" font-family="Times,serif" font-size="14.00">agent</text>
</g>
<!-- administrative operational to componentservice interaction exposure&#45;&gt;provided by -->
<g id="edge9" class="edge">
<title>administrative operational to componentservice interaction exposure&#45;&gt;provided by</title>
<path fill="none" stroke="blue" d="M1411.94,-86.89C1420.21,-81.35 1429.29,-75.07 1437.38,-69 1449.23,-60.12 1461.88,-49.72 1472.5,-40.71"/>
<polygon fill="blue" stroke="blue" points="1474.85,-43.3 1480.18,-34.14 1470.3,-37.98 1474.85,-43.3"/>
<text text-anchor="middle" x="1498.88" y="-57.8" font-family="Times,serif" font-size="14.00">provided by</text>
</g>
<!-- has attribute -->
<g id="node11" class="node">
<title>has attribute</title>
<ellipse fill="none" stroke="blue" cx="1604.38" cy="-18" rx="51.99" ry="18"/>
<text text-anchor="middle" x="1604.38" y="-14.3" font-family="Times,serif" font-size="14.00">attribute</text>
</g>
<!-- administrative operational to componentservice interaction exposure&#45;&gt;has attribute -->
<g id="edge10" class="edge">
<title>administrative operational to componentservice interaction exposure&#45;&gt;has attribute</title>
<path fill="none" stroke="blue" d="M1493.28,-87.97C1511.2,-83.19 1529.2,-77 1545.38,-69 1558.81,-62.36 1571.74,-52.01 1582.06,-42.45"/>
<polygon fill="blue" stroke="blue" points="1584.63,-44.83 1589.4,-35.36 1579.77,-39.79 1584.63,-44.83"/>
<text text-anchor="middle" x="1616.38" y="-57.8" font-family="Times,serif" font-size="14.00">has attribute</text>
</g>
<!-- category -->
<g id="node12" class="node">
<title>category</title>
<ellipse fill="none" stroke="black" cx="1725.38" cy="-18" rx="51.19" ry="18"/>
<text text-anchor="middle" x="1725.38" y="-14.3" font-family="Times,serif" font-size="14.00">category</text>
</g>
<!-- administrative operational to componentservice interaction exposure&#45;&gt;category -->
<g id="edge11" class="edge">
<title>administrative operational to componentservice interaction exposure&#45;&gt;category</title>
<path fill="none" stroke="blue" d="M1565.43,-89.85C1608.47,-84.61 1647.65,-77.75 1667.38,-69 1681.14,-62.9 1694.06,-52.42 1704.21,-42.63"/>
<polygon fill="blue" stroke="blue" points="1706.85,-44.94 1711.39,-35.36 1701.87,-40.02 1706.85,-44.94"/>
<text text-anchor="middle" x="1722.88" y="-57.8" font-family="Times,serif" font-size="14.00">category</text>
</g>
<!-- in taxon -->
<g id="node14" class="node">
<title>in taxon</title>
<ellipse fill="none" stroke="blue" cx="1867.38" cy="-18" rx="72.59" ry="18"/>
<text text-anchor="middle" x="1867.38" y="-14.3" font-family="Times,serif" font-size="14.00">system taxon</text>
</g>
<!-- administrative operational to componentservice interaction exposure&#45;&gt;in taxon -->
<g id="edge12" class="edge">
<title>administrative operational to componentservice interaction exposure&#45;&gt;in taxon</title>
<path fill="none" stroke="blue" d="M1630.76,-92.84C1673.74,-87.53 1717.7,-79.9 1758.38,-69 1783.5,-62.27 1810.05,-50.21 1830.65,-39.62"/>
<polygon fill="blue" stroke="blue" points="1832.45,-42.63 1839.68,-34.88 1829.2,-36.43 1832.45,-42.63"/>
<text text-anchor="middle" x="1828.38" y="-57.8" font-family="Times,serif" font-size="14.00">in taxon</text>
</g>
<!-- has control actor -->
<g id="node15" class="node">
<title>has control actor</title>
<ellipse fill="none" stroke="blue" cx="2028.38" cy="-18" rx="70.39" ry="18"/>
<text text-anchor="middle" x="2028.38" y="-14.3" font-family="Times,serif" font-size="14.00">control actor</text>
</g>
<!-- administrative operational to componentservice interaction exposure&#45;&gt;has control actor -->
<g id="edge13" class="edge">
<title>administrative operational to componentservice interaction exposure&#45;&gt;has control actor</title>
<path fill="none" stroke="blue" d="M1613.72,-91.9C1711.51,-85.74 1814.02,-77.72 1861.38,-69 1902.11,-61.5 1947.02,-47.73 1980,-36.54"/>
<polygon fill="blue" stroke="blue" points="1981.51,-39.72 1989.83,-33.16 1979.24,-33.1 1981.51,-39.72"/>
<text text-anchor="middle" x="1982.88" y="-57.8" font-family="Times,serif" font-size="14.00">has control actor</text>
</g>
<!-- timepoint -->
<g id="node16" class="node">
<title>timepoint</title>
<ellipse fill="none" stroke="blue" cx="2171.38" cy="-18" rx="55.49" ry="18"/>
<text text-anchor="middle" x="2171.38" y="-14.3" font-family="Times,serif" font-size="14.00">time type</text>
</g>
<!-- administrative operational to componentservice interaction exposure&#45;&gt;timepoint -->
<g id="edge14" class="edge">
<title>administrative operational to componentservice interaction exposure&#45;&gt;timepoint</title>
<path fill="none" stroke="blue" d="M1618.5,-92.12C1806.98,-82.44 2042.02,-70.19 2047.38,-69 2077.59,-62.31 2109.96,-49.03 2134.05,-37.83"/>
<polygon fill="blue" stroke="blue" points="2135.65,-40.95 2143.19,-33.51 2132.65,-34.63 2135.65,-40.95"/>
<text text-anchor="middle" x="2128.38" y="-57.8" font-family="Times,serif" font-size="14.00">timepoint</text>
</g>
<!-- has componentservice or servicetype -->
<g id="node17" class="node">
<title>has componentservice or servicetype</title>
<ellipse fill="none" stroke="blue" cx="2339.38" cy="-18" rx="94.78" ry="18"/>
<text text-anchor="middle" x="2339.38" y="-14.3" font-family="Times,serif" font-size="14.00">componentservice</text>
</g>
<!-- administrative operational to componentservice interaction exposure&#45;&gt;has componentservice or servicetype -->
<g id="edge15" class="edge">
<title>administrative operational to componentservice interaction exposure&#45;&gt;has componentservice or servicetype</title>
<path fill="none" stroke="blue" d="M1618.33,-92.11C1654.5,-90.34 1691.45,-88.58 1726.38,-87 1922.35,-78.12 1973.78,-100.61 2167.38,-69 2208.73,-62.25 2254.18,-48.76 2287.98,-37.49"/>
<polygon fill="blue" stroke="blue" points="2289.28,-40.75 2297.63,-34.23 2287.03,-34.12 2289.28,-40.75"/>
<text text-anchor="middle" x="2363.38" y="-57.8" font-family="Times,serif" font-size="14.00">has componentservice or servicetype</text>
</g>
<!-- named thing_category -->
<g id="node13" class="node">
<title>named thing_category</title>
<ellipse fill="none" stroke="blue" cx="1805.38" cy="-105" rx="69.59" ry="18"/>
<text text-anchor="middle" x="1805.38" y="-101.3" font-family="Times,serif" font-size="14.00">named thing</text>
</g>
</g>
</svg>
