<?xml version="1.0" encoding="UTF-8" standalone="no"?>
<!DOCTYPE svg PUBLIC "-//W3C//DTD SVG 1.1//EN"
 "http://www.w3.org/Graphics/SVG/1.1/DTD/svg11.dtd">
<!-- Generated by graphviz version 2.43.0 (0)
 -->
<!-- Title: %3 Pages: 1 -->
<svg width="999pt" height="131pt"
 viewBox="0.00 0.00 998.99 131.00" xmlns="http://www.w3.org/2000/svg" xmlns:xlink="http://www.w3.org/1999/xlink">
<g id="graph0" class="graph" transform="scale(1 1) rotate(0) translate(4 127)">
<title>%3</title>
<polygon fill="white" stroke="transparent" points="-4,4 -4,-127 994.99,-127 994.99,4 -4,4"/>
<!-- attribute -->
<g id="node1" class="node">
<title>attribute</title>
<ellipse fill="none" stroke="black" cx="460.44" cy="-105" rx="51.99" ry="18"/>
<text text-anchor="middle" x="460.44" y="-101.3" font-family="Times,serif" font-size="14.00">attribute</text>
</g>
<!-- annotation -->
<g id="node2" class="node">
<title>annotation</title>
<ellipse fill="none" stroke="black" cx="60.44" cy="-18" rx="60.39" ry="18"/>
<text text-anchor="middle" x="60.44" y="-14.3" font-family="Times,serif" font-size="14.00">annotation</text>
</g>
<!-- attribute&#45;&gt;annotation -->
<g id="edge1" class="edge">
<title>attribute&#45;&gt;annotation</title>
<path fill="none" stroke="black" d="M410.48,-99.92C359.07,-95.06 276.91,-85.46 207.44,-69 172.1,-60.62 133.23,-47.21 104.34,-36.38"/>
<polygon fill="black" stroke="black" points="105.54,-33.09 94.94,-32.82 103.05,-39.64 105.54,-33.09"/>
<text text-anchor="middle" x="221.44" y="-57.8" font-family="Times,serif" font-size="14.00">is_a</text>
</g>
<!-- name -->
<g id="node3" class="node">
<title>name</title>
<ellipse fill="none" stroke="black" cx="175.44" cy="-18" rx="36.29" ry="18"/>
<text text-anchor="middle" x="175.44" y="-14.3" font-family="Times,serif" font-size="14.00">name</text>
</g>
<!-- attribute&#45;&gt;name -->
<g id="edge2" class="edge">
<title>attribute&#45;&gt;name</title>
<path fill="none" stroke="blue" d="M411.26,-98.95C372.51,-94.02 317.51,-84.86 271.44,-69 248.49,-61.1 224.26,-48.44 205.88,-37.84"/>
<polygon fill="blue" stroke="blue" points="207.5,-34.73 197.11,-32.67 203.95,-40.76 207.5,-34.73"/>
<text text-anchor="middle" x="291.44" y="-57.8" font-family="Times,serif" font-size="14.00">name</text>
</g>
<!-- has attribute type -->
<g id="node5" class="node">
<title>has attribute type</title>
<ellipse fill="none" stroke="blue" cx="306.44" cy="-18" rx="76.89" ry="18"/>
<text text-anchor="middle" x="306.44" y="-14.3" font-family="Times,serif" font-size="14.00">ontology class</text>
</g>
<!-- attribute&#45;&gt;has attribute type -->
<g id="edge3" class="edge">
<title>attribute&#45;&gt;has attribute type</title>
<path fill="none" stroke="blue" d="M408.94,-101.84C381.22,-98.16 348.16,-89.36 325.44,-69 318.68,-62.94 314.32,-54.22 311.5,-45.75"/>
<polygon fill="blue" stroke="blue" points="314.87,-44.82 308.86,-36.1 308.12,-46.67 314.87,-44.82"/>
<text text-anchor="middle" x="390.44" y="-57.8" font-family="Times,serif" font-size="14.00">has attribute type</text>
</g>
<!-- has quantitative value -->
<g id="node6" class="node">
<title>has quantitative value</title>
<ellipse fill="none" stroke="blue" cx="478.44" cy="-18" rx="77.19" ry="18"/>
<text text-anchor="middle" x="478.44" y="-14.3" font-family="Times,serif" font-size="14.00">quantity value</text>
</g>
<!-- attribute&#45;&gt;has quantitative value -->
<g id="edge4" class="edge">
<title>attribute&#45;&gt;has quantitative value</title>
<path fill="none" stroke="blue" d="M458.98,-86.64C458.6,-76.91 458.89,-64.64 461.44,-54 462.14,-51.11 463.1,-48.17 464.21,-45.3"/>
<polygon fill="blue" stroke="blue" points="467.53,-46.45 468.42,-35.89 461.14,-43.59 467.53,-46.45"/>
<text text-anchor="middle" x="541.44" y="-57.8" font-family="Times,serif" font-size="14.00">has quantitative value</text>
</g>
<!-- has qualitative value -->
<g id="node7" class="node">
<title>has qualitative value</title>
<ellipse fill="none" stroke="blue" cx="643.44" cy="-18" rx="69.59" ry="18"/>
<text text-anchor="middle" x="643.44" y="-14.3" font-family="Times,serif" font-size="14.00">named thing</text>
</g>
<!-- attribute&#45;&gt;has qualitative value -->
<g id="edge5" class="edge">
<title>attribute&#45;&gt;has qualitative value</title>
<path fill="none" stroke="blue" d="M498.7,-92.75C506.21,-90.71 514.05,-88.69 521.44,-87 565.47,-76.93 585.97,-96.94 621.44,-69 628.73,-63.26 633.66,-54.62 636.97,-46.12"/>
<polygon fill="blue" stroke="blue" points="640.36,-46.99 640.15,-36.4 633.71,-44.81 640.36,-46.99"/>
<text text-anchor="middle" x="707.94" y="-57.8" font-family="Times,serif" font-size="14.00">has qualitative value</text>
</g>
<!-- iri -->
<g id="node8" class="node">
<title>iri</title>
<ellipse fill="none" stroke="blue" cx="815.44" cy="-18" rx="44.39" ry="18"/>
<text text-anchor="middle" x="815.44" y="-14.3" font-family="Times,serif" font-size="14.00">iri type</text>
</g>
<!-- attribute&#45;&gt;iri -->
<g id="edge6" class="edge">
<title>attribute&#45;&gt;iri</title>
<path fill="none" stroke="blue" d="M497.59,-92.35C505.4,-90.27 513.64,-88.34 521.44,-87 579.62,-77.03 736.33,-100.18 786.44,-69 795.3,-63.49 801.74,-54.22 806.27,-45.14"/>
<polygon fill="blue" stroke="blue" points="809.51,-46.49 810.33,-35.92 803.1,-43.67 809.51,-46.49"/>
<text text-anchor="middle" x="809.44" y="-57.8" font-family="Times,serif" font-size="14.00">iri</text>
</g>
<!-- source -->
<g id="node9" class="node">
<title>source</title>
<ellipse fill="none" stroke="blue" cx="934.44" cy="-18" rx="56.59" ry="18"/>
<text text-anchor="middle" x="934.44" y="-14.3" font-family="Times,serif" font-size="14.00">label type</text>
</g>
<!-- attribute&#45;&gt;source -->
<g id="edge7" class="edge">
<title>attribute&#45;&gt;source</title>
<path fill="none" stroke="blue" d="M497.58,-92.3C505.4,-90.22 513.64,-88.31 521.44,-87 653.18,-64.95 691.64,-100.52 821.44,-69 848.5,-62.43 877.17,-49.67 898.86,-38.68"/>
<polygon fill="blue" stroke="blue" points="900.73,-41.66 908,-33.95 897.51,-35.44 900.73,-41.66"/>
<text text-anchor="middle" x="887.44" y="-57.8" font-family="Times,serif" font-size="14.00">source</text>
</g>
<!-- attribute_name -->
<g id="node4" class="node">
<title>attribute_name</title>
<ellipse fill="none" stroke="blue" cx="587.44" cy="-105" rx="56.59" ry="18"/>
<text text-anchor="middle" x="587.44" y="-101.3" font-family="Times,serif" font-size="14.00">label type</text>
</g>
</g>
</svg>
