<?xml version="1.0" encoding="UTF-8" standalone="no"?>
<!DOCTYPE svg PUBLIC "-//W3C//DTD SVG 1.1//EN"
 "http://www.w3.org/Graphics/SVG/1.1/DTD/svg11.dtd">
<!-- Generated by graphviz version 2.43.0 (0)
 -->
<!-- Title: %3 Pages: 1 -->
<svg width="1468pt" height="131pt"
 viewBox="0.00 0.00 1467.78 131.00" xmlns="http://www.w3.org/2000/svg" xmlns:xlink="http://www.w3.org/1999/xlink">
<g id="graph0" class="graph" transform="scale(1 1) rotate(0) translate(4 127)">
<title>%3</title>
<polygon fill="white" stroke="transparent" points="-4,4 -4,-127 1463.78,-127 1463.78,4 -4,4"/>
<!-- awareness -->
<g id="node1" class="node">
<title>awareness</title>
<ellipse fill="none" stroke="black" cx="754.99" cy="-105" rx="59.59" ry="18"/>
<text text-anchor="middle" x="754.99" y="-101.3" font-family="Times,serif" font-size="14.00">awareness</text>
</g>
<!-- notification component -->
<g id="node2" class="node">
<title>notification component</title>
<ellipse fill="none" stroke="black" cx="116.99" cy="-18" rx="116.98" ry="18"/>
<text text-anchor="middle" x="116.99" y="-14.3" font-family="Times,serif" font-size="14.00">notification component</text>
</g>
<!-- awareness&#45;&gt;notification component -->
<g id="edge1" class="edge">
<title>awareness&#45;&gt;notification component</title>
<path fill="none" stroke="black" d="M697.12,-100.15C624.14,-94.92 494.89,-84.42 384.99,-69 319.71,-59.84 246.14,-45.85 192.62,-34.99"/>
<polygon fill="black" stroke="black" points="193.02,-31.5 182.53,-32.94 191.62,-38.36 193.02,-31.5"/>
<text text-anchor="middle" x="398.99" y="-57.8" font-family="Times,serif" font-size="14.00">is_a</text>
</g>
<!-- id -->
<g id="node3" class="node">
<title>id</title>
<ellipse fill="none" stroke="blue" cx="289.99" cy="-18" rx="38.19" ry="18"/>
<text text-anchor="middle" x="289.99" y="-14.3" font-family="Times,serif" font-size="14.00">string</text>
</g>
<!-- awareness&#45;&gt;id -->
<g id="edge2" class="edge">
<title>awareness&#45;&gt;id</title>
<path fill="none" stroke="blue" d="M698.46,-98.91C617.44,-90.7 464.15,-71.7 337.99,-36 334.88,-35.12 331.69,-34.15 328.49,-33.12"/>
<polygon fill="blue" stroke="blue" points="329.58,-29.8 318.99,-29.95 327.36,-36.44 329.58,-29.8"/>
<text text-anchor="middle" x="480.99" y="-57.8" font-family="Times,serif" font-size="14.00">id</text>
</g>
<!-- iri -->
<g id="node4" class="node">
<title>iri</title>
<ellipse fill="none" stroke="blue" cx="390.99" cy="-18" rx="44.39" ry="18"/>
<text text-anchor="middle" x="390.99" y="-14.3" font-family="Times,serif" font-size="14.00">iri type</text>
</g>
<!-- awareness&#45;&gt;iri -->
<g id="edge3" class="edge">
<title>awareness&#45;&gt;iri</title>
<path fill="none" stroke="blue" d="M704.43,-95.34C667.35,-88.76 615.87,-79.13 570.99,-69 514.52,-56.25 500.61,-52.03 444.99,-36 441.48,-34.99 437.85,-33.91 434.2,-32.81"/>
<polygon fill="blue" stroke="blue" points="435.2,-29.45 424.62,-29.86 433.15,-36.15 435.2,-29.45"/>
<text text-anchor="middle" x="578.99" y="-57.8" font-family="Times,serif" font-size="14.00">iri</text>
</g>
<!-- type -->
<g id="node5" class="node">
<title>type</title>
<ellipse fill="none" stroke="blue" cx="491.99" cy="-18" rx="38.19" ry="18"/>
<text text-anchor="middle" x="491.99" y="-14.3" font-family="Times,serif" font-size="14.00">string</text>
</g>
<!-- awareness&#45;&gt;type -->
<g id="edge4" class="edge">
<title>awareness&#45;&gt;type</title>
<path fill="none" stroke="blue" d="M713,-92.12C690.16,-85.53 661.44,-77.07 635.99,-69 592.58,-55.24 581.96,-51.08 538.99,-36 536.3,-35.06 533.53,-34.08 530.75,-33.08"/>
<polygon fill="blue" stroke="blue" points="531.89,-29.78 521.29,-29.7 529.53,-36.37 531.89,-29.78"/>
<text text-anchor="middle" x="651.99" y="-57.8" font-family="Times,serif" font-size="14.00">type</text>
</g>
<!-- name -->
<g id="node6" class="node">
<title>name</title>
<ellipse fill="none" stroke="blue" cx="604.99" cy="-18" rx="56.59" ry="18"/>
<text text-anchor="middle" x="604.99" y="-14.3" font-family="Times,serif" font-size="14.00">label type</text>
</g>
<!-- awareness&#45;&gt;name -->
<g id="edge5" class="edge">
<title>awareness&#45;&gt;name</title>
<path fill="none" stroke="blue" d="M728.17,-88.8C703.64,-74.9 667.19,-54.25 640.3,-39.01"/>
<polygon fill="blue" stroke="blue" points="642,-35.95 631.57,-34.06 638.55,-42.04 642,-35.95"/>
<text text-anchor="middle" x="708.99" y="-57.8" font-family="Times,serif" font-size="14.00">name</text>
</g>
<!-- description -->
<g id="node7" class="node">
<title>description</title>
<ellipse fill="none" stroke="blue" cx="754.99" cy="-18" rx="75.29" ry="18"/>
<text text-anchor="middle" x="754.99" y="-14.3" font-family="Times,serif" font-size="14.00">narrative text</text>
</g>
<!-- awareness&#45;&gt;description -->
<g id="edge6" class="edge">
<title>awareness&#45;&gt;description</title>
<path fill="none" stroke="blue" d="M754.99,-86.8C754.99,-75.16 754.99,-59.55 754.99,-46.24"/>
<polygon fill="blue" stroke="blue" points="758.49,-46.18 754.99,-36.18 751.49,-46.18 758.49,-46.18"/>
<text text-anchor="middle" x="795.49" y="-57.8" font-family="Times,serif" font-size="14.00">description</text>
</g>
<!-- source -->
<g id="node8" class="node">
<title>source</title>
<ellipse fill="none" stroke="blue" cx="904.99" cy="-18" rx="56.59" ry="18"/>
<text text-anchor="middle" x="904.99" y="-14.3" font-family="Times,serif" font-size="14.00">label type</text>
</g>
<!-- awareness&#45;&gt;source -->
<g id="edge7" class="edge">
<title>awareness&#45;&gt;source</title>
<path fill="none" stroke="blue" d="M792.82,-90.9C807.92,-85.05 825.2,-77.53 839.99,-69 853.59,-61.16 867.53,-50.8 878.99,-41.54"/>
<polygon fill="blue" stroke="blue" points="881.38,-44.11 886.86,-35.05 876.92,-38.71 881.38,-44.11"/>
<text text-anchor="middle" x="886.99" y="-57.8" font-family="Times,serif" font-size="14.00">source</text>
</g>
<!-- provided by -->
<g id="node9" class="node">
<title>provided by</title>
<ellipse fill="none" stroke="blue" cx="1016.99" cy="-18" rx="37.09" ry="18"/>
<text text-anchor="middle" x="1016.99" y="-14.3" font-family="Times,serif" font-size="14.00">agent</text>
</g>
<!-- awareness&#45;&gt;provided by -->
<g id="edge8" class="edge">
<title>awareness&#45;&gt;provided by</title>
<path fill="none" stroke="blue" d="M798.81,-92.69C806.83,-90.72 815.15,-88.75 822.99,-87 863.66,-77.94 875.5,-82.28 914.99,-69 939.52,-60.75 965.7,-47.82 985.4,-37.18"/>
<polygon fill="blue" stroke="blue" points="987.16,-40.2 994.23,-32.32 983.78,-34.07 987.16,-40.2"/>
<text text-anchor="middle" x="992.49" y="-57.8" font-family="Times,serif" font-size="14.00">provided by</text>
</g>
<!-- has attribute -->
<g id="node10" class="node">
<title>has attribute</title>
<ellipse fill="none" stroke="blue" cx="1123.99" cy="-18" rx="51.99" ry="18"/>
<text text-anchor="middle" x="1123.99" y="-14.3" font-family="Times,serif" font-size="14.00">attribute</text>
</g>
<!-- awareness&#45;&gt;has attribute -->
<g id="edge9" class="edge">
<title>awareness&#45;&gt;has attribute</title>
<path fill="none" stroke="blue" d="M797.57,-92.23C805.95,-90.24 814.71,-88.37 822.99,-87 918.03,-71.27 947.17,-98.15 1038.99,-69 1059.09,-62.62 1079.53,-50.8 1095.33,-40.26"/>
<polygon fill="blue" stroke="blue" points="1097.33,-43.12 1103.59,-34.57 1093.37,-37.35 1097.33,-43.12"/>
<text text-anchor="middle" x="1118.99" y="-57.8" font-family="Times,serif" font-size="14.00">has attribute</text>
</g>
<!-- category -->
<g id="node11" class="node">
<title>category</title>
<ellipse fill="none" stroke="black" cx="1244.99" cy="-18" rx="51.19" ry="18"/>
<text text-anchor="middle" x="1244.99" y="-14.3" font-family="Times,serif" font-size="14.00">category</text>
</g>
<!-- awareness&#45;&gt;category -->
<g id="edge10" class="edge">
<title>awareness&#45;&gt;category</title>
<path fill="none" stroke="blue" d="M797.18,-92.11C805.66,-90.1 814.57,-88.26 822.99,-87 899.36,-75.58 1096.69,-93.28 1169.99,-69 1187.83,-63.09 1205.43,-51.72 1219.1,-41.32"/>
<polygon fill="blue" stroke="blue" points="1221.39,-43.97 1227.07,-35.02 1217.05,-38.48 1221.39,-43.97"/>
<text text-anchor="middle" x="1230.49" y="-57.8" font-family="Times,serif" font-size="14.00">category</text>
</g>
<!-- in taxon -->
<g id="node13" class="node">
<title>in taxon</title>
<ellipse fill="none" stroke="blue" cx="1386.99" cy="-18" rx="72.59" ry="18"/>
<text text-anchor="middle" x="1386.99" y="-14.3" font-family="Times,serif" font-size="14.00">system taxon</text>
</g>
<!-- awareness&#45;&gt;in taxon -->
<g id="edge11" class="edge">
<title>awareness&#45;&gt;in taxon</title>
<path fill="none" stroke="blue" d="M796.8,-92.12C805.4,-90.08 814.44,-88.23 822.99,-87 1018.04,-58.96 1073.53,-111.28 1265.99,-69 1294.67,-62.7 1325.22,-50.02 1348.45,-39.01"/>
<polygon fill="blue" stroke="blue" points="1350.14,-42.08 1357.61,-34.58 1347.08,-35.78 1350.14,-42.08"/>
<text text-anchor="middle" x="1338.99" y="-57.8" font-family="Times,serif" font-size="14.00">in taxon</text>
</g>
<!-- named thing_category -->
<g id="node12" class="node">
<title>named thing_category</title>
<ellipse fill="none" stroke="blue" cx="901.99" cy="-105" rx="69.59" ry="18"/>
<text text-anchor="middle" x="901.99" y="-101.3" font-family="Times,serif" font-size="14.00">named thing</text>
</g>
</g>
</svg>
