<?xml version="1.0" encoding="UTF-8" standalone="no"?>
<!DOCTYPE svg PUBLIC "-//W3C//DTD SVG 1.1//EN"
 "http://www.w3.org/Graphics/SVG/1.1/DTD/svg11.dtd">
<!-- Generated by graphviz version 2.43.0 (0)
 -->
<!-- Title: %3 Pages: 1 -->
<svg width="3267pt" height="291pt"
 viewBox="0.00 0.00 3267.48 291.00" xmlns="http://www.w3.org/2000/svg" xmlns:xlink="http://www.w3.org/1999/xlink">
<g id="graph0" class="graph" transform="scale(1 1) rotate(0) translate(4 287)">
<title>%3</title>
<polygon fill="white" stroke="transparent" points="-4,4 -4,-287 3263.48,-287 3263.48,4 -4,4"/>
<!-- behavior to behavioral feature association -->
<g id="node1" class="node">
<title>behavior to behavioral feature association</title>
<ellipse fill="none" stroke="black" cx="1676.39" cy="-265" rx="206.06" ry="18"/>
<text text-anchor="middle" x="1676.39" y="-261.3" font-family="Times,serif" font-size="14.00">behavior to behavioral feature association</text>
</g>
<!-- association -->
<g id="node2" class="node">
<title>association</title>
<ellipse fill="none" stroke="black" cx="62.39" cy="-178" rx="62.29" ry="18"/>
<text text-anchor="middle" x="62.39" y="-174.3" font-family="Times,serif" font-size="14.00">association</text>
</g>
<!-- behavior to behavioral feature association&#45;&gt;association -->
<g id="edge1" class="edge">
<title>behavior to behavioral feature association&#45;&gt;association</title>
<path fill="none" stroke="black" d="M1477.02,-260.39C1254.75,-255.74 884.66,-246.14 566.39,-229 373.67,-218.62 324.07,-225.9 133.39,-196 127.99,-195.15 122.4,-194.11 116.83,-192.96"/>
<polygon fill="black" stroke="black" points="117.39,-189.5 106.87,-190.79 115.9,-196.34 117.39,-189.5"/>
<text text-anchor="middle" x="580.39" y="-217.8" font-family="Times,serif" font-size="14.00">is_a</text>
</g>
<!-- entity to observable feature association mixin -->
<g id="node3" class="node">
<title>entity to observable feature association mixin</title>
<ellipse fill="none" stroke="black" cx="366.39" cy="-178" rx="223.66" ry="18"/>
<text text-anchor="middle" x="366.39" y="-174.3" font-family="Times,serif" font-size="14.00">entity to observable feature association mixin</text>
</g>
<!-- behavior to behavioral feature association&#45;&gt;entity to observable feature association mixin -->
<g id="edge2" class="edge">
<title>behavior to behavioral feature association&#45;&gt;entity to observable feature association mixin</title>
<path fill="none" stroke="black" d="M1472.39,-262.41C1279.96,-259.51 983.61,-251.41 727.39,-229 639.8,-221.34 540.93,-207.26 468.84,-195.99"/>
<polygon fill="black" stroke="black" points="469.27,-192.52 458.85,-194.42 468.18,-199.43 469.27,-192.52"/>
<text text-anchor="middle" x="743.89" y="-217.8" font-family="Times,serif" font-size="14.00">uses</text>
</g>
<!-- id -->
<g id="node4" class="node">
<title>id</title>
<ellipse fill="none" stroke="blue" cx="646.39" cy="-178" rx="38.19" ry="18"/>
<text text-anchor="middle" x="646.39" y="-174.3" font-family="Times,serif" font-size="14.00">string</text>
</g>
<!-- behavior to behavioral feature association&#45;&gt;id -->
<g id="edge3" class="edge">
<title>behavior to behavioral feature association&#45;&gt;id</title>
<path fill="none" stroke="blue" d="M1470.51,-264.21C1304.23,-262.23 1064.48,-254.47 856.39,-229 783.46,-220.07 765.2,-215.65 694.39,-196 691.29,-195.14 688.09,-194.17 684.89,-193.16"/>
<polygon fill="blue" stroke="blue" points="685.97,-189.83 675.38,-190 683.76,-196.47 685.97,-189.83"/>
<text text-anchor="middle" x="863.39" y="-217.8" font-family="Times,serif" font-size="14.00">id</text>
</g>
<!-- iri -->
<g id="node5" class="node">
<title>iri</title>
<ellipse fill="none" stroke="blue" cx="747.39" cy="-178" rx="44.39" ry="18"/>
<text text-anchor="middle" x="747.39" y="-174.3" font-family="Times,serif" font-size="14.00">iri type</text>
</g>
<!-- behavior to behavioral feature association&#45;&gt;iri -->
<g id="edge4" class="edge">
<title>behavior to behavioral feature association&#45;&gt;iri</title>
<path fill="none" stroke="blue" d="M1473.05,-261.98C1330.49,-258.61 1135.72,-250.11 965.39,-229 891.18,-219.8 872.78,-214.78 800.39,-196 797.02,-195.12 793.54,-194.16 790.06,-193.14"/>
<polygon fill="blue" stroke="blue" points="790.89,-189.74 780.3,-190.19 788.86,-196.44 790.89,-189.74"/>
<text text-anchor="middle" x="973.39" y="-217.8" font-family="Times,serif" font-size="14.00">iri</text>
</g>
<!-- name -->
<g id="node6" class="node">
<title>name</title>
<ellipse fill="none" stroke="blue" cx="866.39" cy="-178" rx="56.59" ry="18"/>
<text text-anchor="middle" x="866.39" y="-174.3" font-family="Times,serif" font-size="14.00">label type</text>
</g>
<!-- behavior to behavioral feature association&#45;&gt;name -->
<g id="edge5" class="edge">
<title>behavior to behavioral feature association&#45;&gt;name</title>
<path fill="none" stroke="blue" d="M1471.15,-263.13C1348.87,-259.97 1190.99,-251.27 1052.39,-229 1004.36,-221.28 950.84,-206.19 913.59,-194.59"/>
<polygon fill="blue" stroke="blue" points="914.6,-191.24 904.01,-191.57 912.5,-197.92 914.6,-191.24"/>
<text text-anchor="middle" x="1072.39" y="-217.8" font-family="Times,serif" font-size="14.00">name</text>
</g>
<!-- description -->
<g id="node7" class="node">
<title>description</title>
<ellipse fill="none" stroke="blue" cx="1016.39" cy="-178" rx="75.29" ry="18"/>
<text text-anchor="middle" x="1016.39" y="-174.3" font-family="Times,serif" font-size="14.00">narrative text</text>
</g>
<!-- behavior to behavioral feature association&#45;&gt;description -->
<g id="edge6" class="edge">
<title>behavior to behavioral feature association&#45;&gt;description</title>
<path fill="none" stroke="blue" d="M1486.9,-257.88C1360.09,-252.59 1205.17,-243.46 1141.39,-229 1111.91,-222.32 1080.32,-209.63 1056.27,-198.7"/>
<polygon fill="blue" stroke="blue" points="1057.66,-195.49 1047.11,-194.46 1054.71,-201.84 1057.66,-195.49"/>
<text text-anchor="middle" x="1181.89" y="-217.8" font-family="Times,serif" font-size="14.00">description</text>
</g>
<!-- source -->
<g id="node8" class="node">
<title>source</title>
<ellipse fill="none" stroke="blue" cx="1166.39" cy="-178" rx="56.59" ry="18"/>
<text text-anchor="middle" x="1166.39" y="-174.3" font-family="Times,serif" font-size="14.00">label type</text>
</g>
<!-- behavior to behavioral feature association&#45;&gt;source -->
<g id="edge7" class="edge">
<title>behavior to behavioral feature association&#45;&gt;source</title>
<path fill="none" stroke="blue" d="M1497.86,-255.97C1406.33,-250.46 1305.12,-241.78 1261.39,-229 1239.15,-222.5 1216.11,-210.52 1198.29,-199.92"/>
<polygon fill="blue" stroke="blue" points="1199.83,-196.76 1189.47,-194.53 1196.18,-202.73 1199.83,-196.76"/>
<text text-anchor="middle" x="1285.39" y="-217.8" font-family="Times,serif" font-size="14.00">source</text>
</g>
<!-- provided by -->
<g id="node9" class="node">
<title>provided by</title>
<ellipse fill="none" stroke="blue" cx="1278.39" cy="-178" rx="37.09" ry="18"/>
<text text-anchor="middle" x="1278.39" y="-174.3" font-family="Times,serif" font-size="14.00">agent</text>
</g>
<!-- behavior to behavioral feature association&#45;&gt;provided by -->
<g id="edge8" class="edge">
<title>behavior to behavioral feature association&#45;&gt;provided by</title>
<path fill="none" stroke="blue" d="M1499.9,-255.63C1432.88,-250.42 1365.47,-242.11 1335.39,-229 1321.55,-222.96 1308.66,-212.29 1298.66,-202.35"/>
<polygon fill="blue" stroke="blue" points="1301.05,-199.79 1291.6,-194.99 1295.99,-204.63 1301.05,-199.79"/>
<text text-anchor="middle" x="1377.89" y="-217.8" font-family="Times,serif" font-size="14.00">provided by</text>
</g>
<!-- has attribute -->
<g id="node10" class="node">
<title>has attribute</title>
<ellipse fill="none" stroke="blue" cx="1385.39" cy="-178" rx="51.99" ry="18"/>
<text text-anchor="middle" x="1385.39" y="-174.3" font-family="Times,serif" font-size="14.00">attribute</text>
</g>
<!-- behavior to behavioral feature association&#45;&gt;has attribute -->
<g id="edge9" class="edge">
<title>behavior to behavioral feature association&#45;&gt;has attribute</title>
<path fill="none" stroke="blue" d="M1527.58,-252.55C1500.53,-247.3 1473.08,-239.77 1448.39,-229 1433.77,-222.62 1419.65,-211.97 1408.5,-202.14"/>
<polygon fill="blue" stroke="blue" points="1410.67,-199.38 1400.94,-195.2 1405.94,-204.54 1410.67,-199.38"/>
<text text-anchor="middle" x="1495.39" y="-217.8" font-family="Times,serif" font-size="14.00">has attribute</text>
</g>
<!-- predicate -->
<g id="node11" class="node">
<title>predicate</title>
<ellipse fill="none" stroke="blue" cx="1533.39" cy="-178" rx="77.99" ry="18"/>
<text text-anchor="middle" x="1533.39" y="-174.3" font-family="Times,serif" font-size="14.00">predicate type</text>
</g>
<!-- behavior to behavioral feature association&#45;&gt;predicate -->
<g id="edge10" class="edge">
<title>behavior to behavioral feature association&#45;&gt;predicate</title>
<path fill="none" stroke="blue" d="M1591.25,-248.59C1579,-243.74 1567.24,-237.37 1557.39,-229 1550.15,-222.84 1544.92,-213.98 1541.23,-205.43"/>
<polygon fill="blue" stroke="blue" points="1544.5,-204.19 1537.69,-196.07 1537.95,-206.66 1544.5,-204.19"/>
<text text-anchor="middle" x="1591.39" y="-217.8" font-family="Times,serif" font-size="14.00">predicate</text>
</g>
<!-- relation -->
<g id="node12" class="node">
<title>relation</title>
<ellipse fill="none" stroke="blue" cx="2293.39" cy="-18" rx="57.39" ry="18"/>
<text text-anchor="middle" x="2293.39" y="-14.3" font-family="Times,serif" font-size="14.00">uriorcurie</text>
</g>
<!-- behavior to behavioral feature association&#45;&gt;relation -->
<g id="edge11" class="edge">
<title>behavior to behavioral feature association&#45;&gt;relation</title>
<path fill="none" stroke="blue" d="M1666.1,-246.87C1654.11,-224.43 1638.33,-185.01 1658.39,-160 1729.39,-71.51 2080.12,-35.07 2227.73,-23.48"/>
<polygon fill="blue" stroke="blue" points="2228.3,-26.95 2238,-22.69 2227.76,-19.97 2228.3,-26.95"/>
<text text-anchor="middle" x="1726.39" y="-130.8" font-family="Times,serif" font-size="14.00">relation</text>
</g>
<!-- negated -->
<g id="node13" class="node">
<title>negated</title>
<ellipse fill="none" stroke="blue" cx="1714.39" cy="-178" rx="46.59" ry="18"/>
<text text-anchor="middle" x="1714.39" y="-174.3" font-family="Times,serif" font-size="14.00">boolean</text>
</g>
<!-- behavior to behavioral feature association&#45;&gt;negated -->
<g id="edge12" class="edge">
<title>behavior to behavioral feature association&#45;&gt;negated</title>
<path fill="none" stroke="blue" d="M1684.08,-246.8C1689.42,-234.85 1696.64,-218.72 1702.69,-205.18"/>
<polygon fill="blue" stroke="blue" points="1705.96,-206.44 1706.85,-195.89 1699.57,-203.59 1705.96,-206.44"/>
<text text-anchor="middle" x="1727.39" y="-217.8" font-family="Times,serif" font-size="14.00">negated</text>
</g>
<!-- qualifiers -->
<g id="node14" class="node">
<title>qualifiers</title>
<ellipse fill="none" stroke="blue" cx="1855.39" cy="-178" rx="76.89" ry="18"/>
<text text-anchor="middle" x="1855.39" y="-174.3" font-family="Times,serif" font-size="14.00">ontology class</text>
</g>
<!-- behavior to behavioral feature association&#45;&gt;qualifiers -->
<g id="edge13" class="edge">
<title>behavior to behavioral feature association&#45;&gt;qualifiers</title>
<path fill="none" stroke="blue" d="M1718.59,-247.28C1732.06,-241.72 1746.96,-235.32 1760.39,-229 1779.61,-219.96 1800.53,-209.07 1817.84,-199.76"/>
<polygon fill="blue" stroke="blue" points="1819.92,-202.61 1827.05,-194.77 1816.59,-196.46 1819.92,-202.61"/>
<text text-anchor="middle" x="1823.89" y="-217.8" font-family="Times,serif" font-size="14.00">qualifiers</text>
</g>
<!-- publications -->
<g id="node15" class="node">
<title>publications</title>
<ellipse fill="none" stroke="blue" cx="2012.39" cy="-178" rx="62.29" ry="18"/>
<text text-anchor="middle" x="2012.39" y="-174.3" font-family="Times,serif" font-size="14.00">publication</text>
</g>
<!-- behavior to behavioral feature association&#45;&gt;publications -->
<g id="edge14" class="edge">
<title>behavior to behavioral feature association&#45;&gt;publications</title>
<path fill="none" stroke="blue" d="M1769.62,-248.86C1799.15,-243.4 1831.81,-236.66 1861.39,-229 1897.06,-219.76 1936.57,-206.57 1966.22,-196.06"/>
<polygon fill="blue" stroke="blue" points="1967.64,-199.27 1975.88,-192.61 1965.28,-192.68 1967.64,-199.27"/>
<text text-anchor="middle" x="1956.39" y="-217.8" font-family="Times,serif" font-size="14.00">publications</text>
</g>
<!-- type -->
<g id="node16" class="node">
<title>type</title>
<ellipse fill="none" stroke="black" cx="2124.39" cy="-178" rx="31.4" ry="18"/>
<text text-anchor="middle" x="2124.39" y="-174.3" font-family="Times,serif" font-size="14.00">type</text>
</g>
<!-- behavior to behavioral feature association&#45;&gt;type -->
<g id="edge15" class="edge">
<title>behavior to behavioral feature association&#45;&gt;type</title>
<path fill="none" stroke="blue" d="M1824.1,-252.39C1894.47,-246.02 1970.55,-237.66 2004.39,-229 2035.53,-221.03 2069.15,-206.46 2092.86,-195.1"/>
<polygon fill="blue" stroke="blue" points="2094.61,-198.14 2102.07,-190.61 2091.54,-191.84 2094.61,-198.14"/>
<text text-anchor="middle" x="2065.39" y="-217.8" font-family="Times,serif" font-size="14.00">type</text>
</g>
<!-- category -->
<g id="node18" class="node">
<title>category</title>
<ellipse fill="none" stroke="black" cx="2225.39" cy="-178" rx="51.19" ry="18"/>
<text text-anchor="middle" x="2225.39" y="-174.3" font-family="Times,serif" font-size="14.00">category</text>
</g>
<!-- behavior to behavioral feature association&#45;&gt;category -->
<g id="edge16" class="edge">
<title>behavior to behavioral feature association&#45;&gt;category</title>
<path fill="none" stroke="blue" d="M1823.1,-252.34C1935.08,-243.29 2072.38,-231.83 2085.39,-229 2120.02,-221.47 2157.78,-207.63 2185.35,-196.42"/>
<polygon fill="blue" stroke="blue" points="2186.75,-199.63 2194.65,-192.58 2184.07,-193.16 2186.75,-199.63"/>
<text text-anchor="middle" x="2168.89" y="-217.8" font-family="Times,serif" font-size="14.00">category</text>
</g>
<!-- subject -->
<g id="node20" class="node">
<title>subject</title>
<ellipse fill="none" stroke="black" cx="2339.39" cy="-178" rx="44.39" ry="18"/>
<text text-anchor="middle" x="2339.39" y="-174.3" font-family="Times,serif" font-size="14.00">subject</text>
</g>
<!-- behavior to behavioral feature association&#45;&gt;subject -->
<g id="edge17" class="edge">
<title>behavior to behavioral feature association&#45;&gt;subject</title>
<path fill="none" stroke="blue" d="M1820.93,-252.14C1844.47,-250.34 1868.61,-248.56 1891.39,-247 2030.41,-237.51 2068,-257.51 2204.39,-229 2238.6,-221.85 2275.72,-207.59 2302.36,-196.13"/>
<polygon fill="blue" stroke="blue" points="2303.92,-199.26 2311.67,-192.05 2301.11,-192.85 2303.92,-199.26"/>
<text text-anchor="middle" x="2280.39" y="-217.8" font-family="Times,serif" font-size="14.00">subject</text>
</g>
<!-- object -->
<g id="node22" class="node">
<title>object</title>
<ellipse fill="none" stroke="black" cx="2360.39" cy="-91" rx="38.99" ry="18"/>
<text text-anchor="middle" x="2360.39" y="-87.3" font-family="Times,serif" font-size="14.00">object</text>
</g>
<!-- behavior to behavioral feature association&#45;&gt;object -->
<g id="edge18" class="edge">
<title>behavior to behavioral feature association&#45;&gt;object</title>
<path fill="none" stroke="blue" d="M1819.17,-251.99C1843.27,-250.17 1868.04,-248.42 1891.39,-247 1984.42,-241.33 2219.3,-248.68 2310.39,-229 2348.79,-220.7 2366.72,-225.74 2392.39,-196 2412.79,-172.38 2419.1,-155.03 2405.39,-127 2402.54,-121.17 2398.19,-116.02 2393.3,-111.6"/>
<polygon fill="blue" stroke="blue" points="2395.32,-108.73 2385.32,-105.25 2390.96,-114.21 2395.32,-108.73"/>
<text text-anchor="middle" x="2434.39" y="-174.3" font-family="Times,serif" font-size="14.00">object</text>
</g>
<!-- frequency qualifier -->
<g id="node24" class="node">
<title>frequency qualifier</title>
<ellipse fill="none" stroke="blue" cx="2566.39" cy="-178" rx="85.29" ry="18"/>
<text text-anchor="middle" x="2566.39" y="-174.3" font-family="Times,serif" font-size="14.00">frequency value</text>
</g>
<!-- behavior to behavioral feature association&#45;&gt;frequency qualifier -->
<g id="edge19" class="edge">
<title>behavior to behavioral feature association&#45;&gt;frequency qualifier</title>
<path fill="none" stroke="blue" d="M1817.71,-251.9C1842.27,-250.06 1867.56,-248.34 1891.39,-247 2011.72,-240.25 2315.2,-252.52 2433.39,-229 2464.82,-222.75 2498.6,-209.97 2524.25,-198.89"/>
<polygon fill="blue" stroke="blue" points="2525.92,-201.98 2533.67,-194.75 2523.1,-195.57 2525.92,-201.98"/>
<text text-anchor="middle" x="2554.39" y="-217.8" font-family="Times,serif" font-size="14.00">frequency qualifier</text>
</g>
<!-- severity qualifier -->
<g id="node25" class="node">
<title>severity qualifier</title>
<ellipse fill="none" stroke="blue" cx="2745.39" cy="-178" rx="76.09" ry="18"/>
<text text-anchor="middle" x="2745.39" y="-174.3" font-family="Times,serif" font-size="14.00">severity value</text>
</g>
<!-- behavior to behavioral feature association&#45;&gt;severity qualifier -->
<g id="edge20" class="edge">
<title>behavior to behavioral feature association&#45;&gt;severity qualifier</title>
<path fill="none" stroke="blue" d="M1816.84,-251.79C1841.66,-249.95 1867.28,-248.25 1891.39,-247 1972.98,-242.78 2546.52,-246.12 2626.39,-229 2654.7,-222.93 2684.75,-210.25 2707.57,-199.18"/>
<polygon fill="blue" stroke="blue" points="2709.16,-202.3 2716.56,-194.72 2706.05,-196.03 2709.16,-202.3"/>
<text text-anchor="middle" x="2735.39" y="-217.8" font-family="Times,serif" font-size="14.00">severity qualifier</text>
</g>
<!-- onset qualifier -->
<g id="node26" class="node">
<title>onset qualifier</title>
<ellipse fill="none" stroke="blue" cx="2875.39" cy="-178" rx="36.29" ry="18"/>
<text text-anchor="middle" x="2875.39" y="-174.3" font-family="Times,serif" font-size="14.00">onset</text>
</g>
<!-- behavior to behavioral feature association&#45;&gt;onset qualifier -->
<g id="edge21" class="edge">
<title>behavior to behavioral feature association&#45;&gt;onset qualifier</title>
<path fill="none" stroke="blue" d="M1815.97,-251.76C1841.06,-249.9 1866.99,-248.21 1891.39,-247 1941.84,-244.51 2752.2,-244.11 2800.39,-229 2818.82,-223.22 2836.91,-211.4 2850.7,-200.7"/>
<polygon fill="blue" stroke="blue" points="2853.11,-203.25 2858.7,-194.25 2848.72,-197.8 2853.11,-203.25"/>
<text text-anchor="middle" x="2882.89" y="-217.8" font-family="Times,serif" font-size="14.00">onset qualifier</text>
</g>
<!-- architectural style qualifier -->
<g id="node27" class="node">
<title>architectural style qualifier</title>
<ellipse fill="none" stroke="blue" cx="3094.39" cy="-178" rx="165.17" ry="18"/>
<text text-anchor="middle" x="3094.39" y="-174.3" font-family="Times,serif" font-size="14.00">computational architectural style</text>
</g>
<!-- behavior to behavioral feature association&#45;&gt;architectural style qualifier -->
<g id="edge22" class="edge">
<title>behavior to behavioral feature association&#45;&gt;architectural style qualifier</title>
<path fill="none" stroke="blue" d="M1815.68,-251.73C1840.86,-249.87 1866.9,-248.18 1891.39,-247 2007.61,-241.41 2823.6,-247.96 2938.39,-229 2974.86,-222.98 3014.49,-210.19 3044.69,-199.05"/>
<polygon fill="blue" stroke="blue" points="3046.01,-202.29 3054.15,-195.5 3043.55,-195.74 3046.01,-202.29"/>
<text text-anchor="middle" x="3097.39" y="-217.8" font-family="Times,serif" font-size="14.00">architectural style qualifier</text>
</g>
<!-- association_type -->
<g id="node17" class="node">
<title>association_type</title>
<ellipse fill="none" stroke="blue" cx="1938.39" cy="-265" rx="38.19" ry="18"/>
<text text-anchor="middle" x="1938.39" y="-261.3" font-family="Times,serif" font-size="14.00">string</text>
</g>
<!-- association_category -->
<g id="node19" class="node">
<title>association_category</title>
<ellipse fill="none" stroke="blue" cx="2057.39" cy="-265" rx="62.29" ry="18"/>
<text text-anchor="middle" x="2057.39" y="-261.3" font-family="Times,serif" font-size="14.00">association</text>
</g>
<!-- subject&#45;&gt;relation -->
<g id="edge24" class="edge">
<title>subject&#45;&gt;relation</title>
<path fill="none" stroke="black" stroke-dasharray="1,5" d="M2331.81,-160.24C2325.89,-146.64 2317.79,-126.88 2312.39,-109 2306.14,-88.27 2301.18,-64.24 2297.9,-46.23"/>
<polygon fill="black" stroke="black" points="2301.3,-45.38 2296.12,-36.14 2294.41,-46.59 2301.3,-45.38"/>
</g>
<!-- subject&#45;&gt;object -->
<g id="edge23" class="edge">
<title>subject&#45;&gt;object</title>
<path fill="none" stroke="black" d="M2342.37,-159.77C2344.16,-150.09 2346.62,-137.8 2349.39,-127 2350.08,-124.32 2350.85,-121.53 2351.66,-118.76"/>
<polygon fill="black" stroke="black" points="2355.07,-119.57 2354.65,-108.98 2348.38,-117.52 2355.07,-119.57"/>
<text text-anchor="middle" x="2377.39" y="-130.8" font-family="Times,serif" font-size="14.00">relation</text>
</g>
<!-- behavior to behavioral feature association_subject -->
<g id="node21" class="node">
<title>behavior to behavioral feature association_subject</title>
<ellipse fill="none" stroke="blue" cx="2189.39" cy="-265" rx="51.19" ry="18"/>
<text text-anchor="middle" x="2189.39" y="-261.3" font-family="Times,serif" font-size="14.00">behavior</text>
</g>
<!-- object&#45;&gt;relation -->
<g id="edge25" class="edge">
<title>object&#45;&gt;relation</title>
<path fill="none" stroke="black" stroke-dasharray="1,5" d="M2345.52,-74.24C2336.92,-65.13 2325.92,-53.47 2316.24,-43.21"/>
<polygon fill="black" stroke="black" points="2318.56,-40.57 2309.16,-35.7 2313.47,-45.38 2318.56,-40.57"/>
</g>
<!-- behavior to behavioral feature association_object -->
<g id="node23" class="node">
<title>behavior to behavioral feature association_object</title>
<ellipse fill="none" stroke="blue" cx="2355.39" cy="-265" rx="96.38" ry="18"/>
<text text-anchor="middle" x="2355.39" y="-261.3" font-family="Times,serif" font-size="14.00">behavioral feature</text>
</g>
</g>
</svg>
