<?xml version="1.0" encoding="UTF-8" standalone="no"?>
<!DOCTYPE svg PUBLIC "-//W3C//DTD SVG 1.1//EN"
 "http://www.w3.org/Graphics/SVG/1.1/DTD/svg11.dtd">
<!-- Generated by graphviz version 2.43.0 (0)
 -->
<!-- Title: %3 Pages: 1 -->
<svg width="1430pt" height="131pt"
 viewBox="0.00 0.00 1429.93 131.00" xmlns="http://www.w3.org/2000/svg" xmlns:xlink="http://www.w3.org/1999/xlink">
<g id="graph0" class="graph" transform="scale(1 1) rotate(0) translate(4 127)">
<title>%3</title>
<polygon fill="white" stroke="transparent" points="-4,4 -4,-127 1425.93,-127 1425.93,4 -4,4"/>
<!-- behavioral feature -->
<g id="node1" class="node">
<title>behavioral feature</title>
<ellipse fill="none" stroke="black" cx="717.14" cy="-105" rx="96.38" ry="18"/>
<text text-anchor="middle" x="717.14" y="-101.3" font-family="Times,serif" font-size="14.00">behavioral feature</text>
</g>
<!-- observable feature -->
<g id="node2" class="node">
<title>observable feature</title>
<ellipse fill="none" stroke="black" cx="98.14" cy="-18" rx="98.28" ry="18"/>
<text text-anchor="middle" x="98.14" y="-14.3" font-family="Times,serif" font-size="14.00">observable feature</text>
</g>
<!-- behavioral feature&#45;&gt;observable feature -->
<g id="edge1" class="edge">
<title>behavioral feature&#45;&gt;observable feature</title>
<path fill="none" stroke="black" d="M627.86,-98.17C552.73,-92.63 442.57,-83.06 347.14,-69 285.62,-59.94 216.31,-45.69 166.47,-34.71"/>
<polygon fill="black" stroke="black" points="166.97,-31.24 156.45,-32.49 165.46,-38.07 166.97,-31.24"/>
<text text-anchor="middle" x="361.14" y="-57.8" font-family="Times,serif" font-size="14.00">is_a</text>
</g>
<!-- id -->
<g id="node3" class="node">
<title>id</title>
<ellipse fill="none" stroke="blue" cx="252.14" cy="-18" rx="38.19" ry="18"/>
<text text-anchor="middle" x="252.14" y="-14.3" font-family="Times,serif" font-size="14.00">string</text>
</g>
<!-- behavioral feature&#45;&gt;id -->
<g id="edge2" class="edge">
<title>behavioral feature&#45;&gt;id</title>
<path fill="none" stroke="blue" d="M633.64,-96.05C548.57,-86.64 413.42,-68.05 300.14,-36 297.04,-35.12 293.84,-34.15 290.64,-33.12"/>
<polygon fill="blue" stroke="blue" points="291.73,-29.8 281.14,-29.95 289.51,-36.44 291.73,-29.8"/>
<text text-anchor="middle" x="443.14" y="-57.8" font-family="Times,serif" font-size="14.00">id</text>
</g>
<!-- iri -->
<g id="node4" class="node">
<title>iri</title>
<ellipse fill="none" stroke="blue" cx="353.14" cy="-18" rx="44.39" ry="18"/>
<text text-anchor="middle" x="353.14" y="-14.3" font-family="Times,serif" font-size="14.00">iri type</text>
</g>
<!-- behavioral feature&#45;&gt;iri -->
<g id="edge3" class="edge">
<title>behavioral feature&#45;&gt;iri</title>
<path fill="none" stroke="blue" d="M649.19,-92.22C614.37,-85.89 571.36,-77.63 533.14,-69 476.67,-56.25 462.77,-52.03 407.14,-36 403.63,-34.99 400,-33.91 396.36,-32.81"/>
<polygon fill="blue" stroke="blue" points="397.35,-29.45 386.77,-29.86 395.3,-36.15 397.35,-29.45"/>
<text text-anchor="middle" x="541.14" y="-57.8" font-family="Times,serif" font-size="14.00">iri</text>
</g>
<!-- type -->
<g id="node5" class="node">
<title>type</title>
<ellipse fill="none" stroke="blue" cx="454.14" cy="-18" rx="38.19" ry="18"/>
<text text-anchor="middle" x="454.14" y="-14.3" font-family="Times,serif" font-size="14.00">string</text>
</g>
<!-- behavioral feature&#45;&gt;type -->
<g id="edge4" class="edge">
<title>behavioral feature&#45;&gt;type</title>
<path fill="none" stroke="blue" d="M666.62,-89.65C645.41,-83.49 620.52,-76.09 598.14,-69 554.73,-55.24 544.11,-51.08 501.14,-36 498.45,-35.06 495.68,-34.08 492.9,-33.08"/>
<polygon fill="blue" stroke="blue" points="494.04,-29.78 483.44,-29.7 491.68,-36.37 494.04,-29.78"/>
<text text-anchor="middle" x="614.14" y="-57.8" font-family="Times,serif" font-size="14.00">type</text>
</g>
<!-- name -->
<g id="node6" class="node">
<title>name</title>
<ellipse fill="none" stroke="blue" cx="567.14" cy="-18" rx="56.59" ry="18"/>
<text text-anchor="middle" x="567.14" y="-14.3" font-family="Times,serif" font-size="14.00">label type</text>
</g>
<!-- behavioral feature&#45;&gt;name -->
<g id="edge5" class="edge">
<title>behavioral feature&#45;&gt;name</title>
<path fill="none" stroke="blue" d="M688.57,-87.81C664.09,-73.94 628.72,-53.9 602.46,-39.02"/>
<polygon fill="blue" stroke="blue" points="604.02,-35.87 593.59,-33.99 600.56,-41.96 604.02,-35.87"/>
<text text-anchor="middle" x="671.14" y="-57.8" font-family="Times,serif" font-size="14.00">name</text>
</g>
<!-- description -->
<g id="node7" class="node">
<title>description</title>
<ellipse fill="none" stroke="blue" cx="717.14" cy="-18" rx="75.29" ry="18"/>
<text text-anchor="middle" x="717.14" y="-14.3" font-family="Times,serif" font-size="14.00">narrative text</text>
</g>
<!-- behavioral feature&#45;&gt;description -->
<g id="edge6" class="edge">
<title>behavioral feature&#45;&gt;description</title>
<path fill="none" stroke="blue" d="M717.14,-86.8C717.14,-75.16 717.14,-59.55 717.14,-46.24"/>
<polygon fill="blue" stroke="blue" points="720.64,-46.18 717.14,-36.18 713.64,-46.18 720.64,-46.18"/>
<text text-anchor="middle" x="757.64" y="-57.8" font-family="Times,serif" font-size="14.00">description</text>
</g>
<!-- source -->
<g id="node8" class="node">
<title>source</title>
<ellipse fill="none" stroke="blue" cx="867.14" cy="-18" rx="56.59" ry="18"/>
<text text-anchor="middle" x="867.14" y="-14.3" font-family="Times,serif" font-size="14.00">label type</text>
</g>
<!-- behavioral feature&#45;&gt;source -->
<g id="edge7" class="edge">
<title>behavioral feature&#45;&gt;source</title>
<path fill="none" stroke="blue" d="M760.13,-88.87C773.92,-83.35 789.01,-76.57 802.14,-69 815.74,-61.16 829.68,-50.8 841.14,-41.54"/>
<polygon fill="blue" stroke="blue" points="843.53,-44.11 849.02,-35.05 839.07,-38.71 843.53,-44.11"/>
<text text-anchor="middle" x="849.14" y="-57.8" font-family="Times,serif" font-size="14.00">source</text>
</g>
<!-- provided by -->
<g id="node9" class="node">
<title>provided by</title>
<ellipse fill="none" stroke="blue" cx="979.14" cy="-18" rx="37.09" ry="18"/>
<text text-anchor="middle" x="979.14" y="-14.3" font-family="Times,serif" font-size="14.00">agent</text>
</g>
<!-- behavioral feature&#45;&gt;provided by -->
<g id="edge8" class="edge">
<title>behavioral feature&#45;&gt;provided by</title>
<path fill="none" stroke="blue" d="M787.06,-92.49C815.44,-86.85 848.28,-79.07 877.14,-69 901.42,-60.53 927.42,-47.73 947.09,-37.19"/>
<polygon fill="blue" stroke="blue" points="948.82,-40.24 955.93,-32.39 945.47,-34.09 948.82,-40.24"/>
<text text-anchor="middle" x="954.64" y="-57.8" font-family="Times,serif" font-size="14.00">provided by</text>
</g>
<!-- has attribute -->
<g id="node10" class="node">
<title>has attribute</title>
<ellipse fill="none" stroke="blue" cx="1086.14" cy="-18" rx="51.99" ry="18"/>
<text text-anchor="middle" x="1086.14" y="-14.3" font-family="Times,serif" font-size="14.00">attribute</text>
</g>
<!-- behavioral feature&#45;&gt;has attribute -->
<g id="edge9" class="edge">
<title>behavioral feature&#45;&gt;has attribute</title>
<path fill="none" stroke="blue" d="M785.68,-92.29C797.81,-90.4 810.33,-88.55 822.14,-87 901.42,-76.61 925.14,-93.85 1001.14,-69 1020.87,-62.55 1040.97,-51 1056.67,-40.62"/>
<polygon fill="blue" stroke="blue" points="1059.07,-43.22 1065.37,-34.7 1055.13,-37.44 1059.07,-43.22"/>
<text text-anchor="middle" x="1081.14" y="-57.8" font-family="Times,serif" font-size="14.00">has attribute</text>
</g>
<!-- category -->
<g id="node11" class="node">
<title>category</title>
<ellipse fill="none" stroke="black" cx="1207.14" cy="-18" rx="51.19" ry="18"/>
<text text-anchor="middle" x="1207.14" y="-14.3" font-family="Times,serif" font-size="14.00">category</text>
</g>
<!-- behavioral feature&#45;&gt;category -->
<g id="edge10" class="edge">
<title>behavioral feature&#45;&gt;category</title>
<path fill="none" stroke="blue" d="M784.22,-92.09C796.79,-90.16 809.84,-88.35 822.14,-87 890.73,-79.48 1066.7,-90.9 1132.14,-69 1149.96,-63.04 1167.56,-51.67 1181.23,-41.27"/>
<polygon fill="blue" stroke="blue" points="1183.52,-43.93 1189.2,-34.99 1179.19,-38.43 1183.52,-43.93"/>
<text text-anchor="middle" x="1192.64" y="-57.8" font-family="Times,serif" font-size="14.00">category</text>
</g>
<!-- in taxon -->
<g id="node13" class="node">
<title>in taxon</title>
<ellipse fill="none" stroke="blue" cx="1349.14" cy="-18" rx="72.59" ry="18"/>
<text text-anchor="middle" x="1349.14" y="-14.3" font-family="Times,serif" font-size="14.00">system taxon</text>
</g>
<!-- behavioral feature&#45;&gt;in taxon -->
<g id="edge11" class="edge">
<title>behavioral feature&#45;&gt;in taxon</title>
<path fill="none" stroke="blue" d="M783.92,-92C796.58,-90.06 809.74,-88.27 822.14,-87 911.98,-77.77 1139.97,-88.54 1228.14,-69 1256.81,-62.65 1287.36,-49.97 1310.59,-38.97"/>
<polygon fill="blue" stroke="blue" points="1312.28,-42.05 1319.75,-34.54 1309.23,-35.74 1312.28,-42.05"/>
<text text-anchor="middle" x="1301.14" y="-57.8" font-family="Times,serif" font-size="14.00">in taxon</text>
</g>
<!-- named thing_category -->
<g id="node12" class="node">
<title>named thing_category</title>
<ellipse fill="none" stroke="blue" cx="901.14" cy="-105" rx="69.59" ry="18"/>
<text text-anchor="middle" x="901.14" y="-101.3" font-family="Times,serif" font-size="14.00">named thing</text>
</g>
</g>
</svg>
