<?xml version="1.0" encoding="UTF-8" standalone="no"?>
<!DOCTYPE svg PUBLIC "-//W3C//DTD SVG 1.1//EN"
 "http://www.w3.org/Graphics/SVG/1.1/DTD/svg11.dtd">
<!-- Generated by graphviz version 2.43.0 (0)
 -->
<!-- Title: %3 Pages: 1 -->
<svg width="1889pt" height="131pt"
 viewBox="0.00 0.00 1889.04 131.00" xmlns="http://www.w3.org/2000/svg" xmlns:xlink="http://www.w3.org/1999/xlink">
<g id="graph0" class="graph" transform="scale(1 1) rotate(0) translate(4 127)">
<title>%3</title>
<polygon fill="white" stroke="transparent" points="-4,4 -4,-127 1885.04,-127 1885.04,4 -4,4"/>
<!-- biotic exposure -->
<g id="node1" class="node">
<title>biotic exposure</title>
<ellipse fill="none" stroke="black" cx="923.79" cy="-105" rx="81.79" ry="18"/>
<text text-anchor="middle" x="923.79" y="-101.3" font-family="Times,serif" font-size="14.00">biotic exposure</text>
</g>
<!-- system taxon -->
<g id="node2" class="node">
<title>system taxon</title>
<ellipse fill="none" stroke="black" cx="72.79" cy="-18" rx="72.59" ry="18"/>
<text text-anchor="middle" x="72.79" y="-14.3" font-family="Times,serif" font-size="14.00">system taxon</text>
</g>
<!-- biotic exposure&#45;&gt;system taxon -->
<g id="edge1" class="edge">
<title>biotic exposure&#45;&gt;system taxon</title>
<path fill="none" stroke="black" d="M843.26,-101.48C733.63,-97.47 531.4,-88.09 359.79,-69 282.38,-60.39 194.24,-44.04 136.3,-32.39"/>
<polygon fill="black" stroke="black" points="136.7,-28.89 126.2,-30.34 135.31,-35.75 136.7,-28.89"/>
<text text-anchor="middle" x="373.79" y="-57.8" font-family="Times,serif" font-size="14.00">is_a</text>
</g>
<!-- exposure event -->
<g id="node3" class="node">
<title>exposure event</title>
<ellipse fill="none" stroke="black" cx="245.79" cy="-18" rx="81.79" ry="18"/>
<text text-anchor="middle" x="245.79" y="-14.3" font-family="Times,serif" font-size="14.00">exposure event</text>
</g>
<!-- biotic exposure&#45;&gt;exposure event -->
<g id="edge2" class="edge">
<title>biotic exposure&#45;&gt;exposure event</title>
<path fill="none" stroke="black" d="M843.76,-101.12C753.48,-97.09 602.47,-88.02 473.79,-69 416.46,-60.53 352.04,-45.92 306.33,-34.67"/>
<polygon fill="black" stroke="black" points="307.13,-31.26 296.58,-32.25 305.45,-38.06 307.13,-31.26"/>
<text text-anchor="middle" x="490.29" y="-57.8" font-family="Times,serif" font-size="14.00">uses</text>
</g>
<!-- id -->
<g id="node4" class="node">
<title>id</title>
<ellipse fill="none" stroke="blue" cx="383.79" cy="-18" rx="38.19" ry="18"/>
<text text-anchor="middle" x="383.79" y="-14.3" font-family="Times,serif" font-size="14.00">string</text>
</g>
<!-- biotic exposure&#45;&gt;id -->
<g id="edge3" class="edge">
<title>biotic exposure&#45;&gt;id</title>
<path fill="none" stroke="blue" d="M845.37,-99.62C747.17,-92.67 574.5,-75.6 431.79,-36 428.68,-35.14 425.49,-34.17 422.29,-33.16"/>
<polygon fill="blue" stroke="blue" points="423.37,-29.83 412.78,-30 421.16,-36.47 423.37,-29.83"/>
<text text-anchor="middle" x="585.79" y="-57.8" font-family="Times,serif" font-size="14.00">id</text>
</g>
<!-- iri -->
<g id="node5" class="node">
<title>iri</title>
<ellipse fill="none" stroke="blue" cx="484.79" cy="-18" rx="44.39" ry="18"/>
<text text-anchor="middle" x="484.79" y="-14.3" font-family="Times,serif" font-size="14.00">iri type</text>
</g>
<!-- biotic exposure&#45;&gt;iri -->
<g id="edge4" class="edge">
<title>biotic exposure&#45;&gt;iri</title>
<path fill="none" stroke="blue" d="M854.5,-95.37C806.43,-89.02 741.02,-79.67 683.79,-69 618.82,-56.89 602.59,-53.27 538.79,-36 535.22,-35.03 531.52,-33.98 527.82,-32.89"/>
<polygon fill="blue" stroke="blue" points="528.67,-29.49 518.08,-29.95 526.64,-36.19 528.67,-29.49"/>
<text text-anchor="middle" x="691.79" y="-57.8" font-family="Times,serif" font-size="14.00">iri</text>
</g>
<!-- type -->
<g id="node6" class="node">
<title>type</title>
<ellipse fill="none" stroke="blue" cx="585.79" cy="-18" rx="38.19" ry="18"/>
<text text-anchor="middle" x="585.79" y="-14.3" font-family="Times,serif" font-size="14.00">string</text>
</g>
<!-- biotic exposure&#45;&gt;type -->
<g id="edge5" class="edge">
<title>biotic exposure&#45;&gt;type</title>
<path fill="none" stroke="blue" d="M864.36,-92.59C805.1,-80.64 711.78,-60.24 632.79,-36 630.03,-35.15 627.2,-34.24 624.35,-33.29"/>
<polygon fill="blue" stroke="blue" points="625.32,-29.92 614.73,-29.97 623.04,-36.54 625.32,-29.92"/>
<text text-anchor="middle" x="767.79" y="-57.8" font-family="Times,serif" font-size="14.00">type</text>
</g>
<!-- name -->
<g id="node7" class="node">
<title>name</title>
<ellipse fill="none" stroke="blue" cx="698.79" cy="-18" rx="56.59" ry="18"/>
<text text-anchor="middle" x="698.79" y="-14.3" font-family="Times,serif" font-size="14.00">label type</text>
</g>
<!-- biotic exposure&#45;&gt;name -->
<g id="edge6" class="edge">
<title>biotic exposure&#45;&gt;name</title>
<path fill="none" stroke="blue" d="M884.6,-89.19C845.2,-74.31 784.56,-51.4 743.36,-35.83"/>
<polygon fill="blue" stroke="blue" points="744.43,-32.5 733.84,-32.24 741.96,-39.05 744.43,-32.5"/>
<text text-anchor="middle" x="844.79" y="-57.8" font-family="Times,serif" font-size="14.00">name</text>
</g>
<!-- description -->
<g id="node8" class="node">
<title>description</title>
<ellipse fill="none" stroke="blue" cx="848.79" cy="-18" rx="75.29" ry="18"/>
<text text-anchor="middle" x="848.79" y="-14.3" font-family="Times,serif" font-size="14.00">narrative text</text>
</g>
<!-- biotic exposure&#45;&gt;description -->
<g id="edge7" class="edge">
<title>biotic exposure&#45;&gt;description</title>
<path fill="none" stroke="blue" d="M908.98,-87.21C897.98,-74.75 882.83,-57.57 870.48,-43.57"/>
<polygon fill="blue" stroke="blue" points="872.82,-40.94 863.58,-35.76 867.57,-45.57 872.82,-40.94"/>
<text text-anchor="middle" x="931.29" y="-57.8" font-family="Times,serif" font-size="14.00">description</text>
</g>
<!-- source -->
<g id="node9" class="node">
<title>source</title>
<ellipse fill="none" stroke="blue" cx="998.79" cy="-18" rx="56.59" ry="18"/>
<text text-anchor="middle" x="998.79" y="-14.3" font-family="Times,serif" font-size="14.00">label type</text>
</g>
<!-- biotic exposure&#45;&gt;source -->
<g id="edge8" class="edge">
<title>biotic exposure&#45;&gt;source</title>
<path fill="none" stroke="blue" d="M953.3,-88.17C961.32,-82.86 969.52,-76.38 975.79,-69 981.6,-62.17 986.24,-53.63 989.79,-45.55"/>
<polygon fill="blue" stroke="blue" points="993.12,-46.65 993.58,-36.07 986.62,-44.05 993.12,-46.65"/>
<text text-anchor="middle" x="1009.79" y="-57.8" font-family="Times,serif" font-size="14.00">source</text>
</g>
<!-- provided by -->
<g id="node10" class="node">
<title>provided by</title>
<ellipse fill="none" stroke="blue" cx="1110.79" cy="-18" rx="37.09" ry="18"/>
<text text-anchor="middle" x="1110.79" y="-14.3" font-family="Times,serif" font-size="14.00">agent</text>
</g>
<!-- biotic exposure&#45;&gt;provided by -->
<g id="edge9" class="edge">
<title>biotic exposure&#45;&gt;provided by</title>
<path fill="none" stroke="blue" d="M976.98,-91.28C996.59,-85.66 1018.68,-78.22 1037.79,-69 1054.14,-61.12 1070.94,-49.87 1084.3,-40.03"/>
<polygon fill="blue" stroke="blue" points="1086.66,-42.63 1092.54,-33.82 1082.45,-37.04 1086.66,-42.63"/>
<text text-anchor="middle" x="1106.29" y="-57.8" font-family="Times,serif" font-size="14.00">provided by</text>
</g>
<!-- has attribute -->
<g id="node11" class="node">
<title>has attribute</title>
<ellipse fill="none" stroke="blue" cx="1217.79" cy="-18" rx="51.99" ry="18"/>
<text text-anchor="middle" x="1217.79" y="-14.3" font-family="Times,serif" font-size="14.00">attribute</text>
</g>
<!-- biotic exposure&#45;&gt;has attribute -->
<g id="edge10" class="edge">
<title>biotic exposure&#45;&gt;has attribute</title>
<path fill="none" stroke="blue" d="M982.77,-92.35C993.09,-90.46 1003.74,-88.6 1013.79,-87 1075.31,-77.21 1095.23,-92.81 1152.79,-69 1167.97,-62.72 1182.67,-51.95 1194.24,-42"/>
<polygon fill="blue" stroke="blue" points="1196.6,-44.59 1201.72,-35.32 1191.93,-39.37 1196.6,-44.59"/>
<text text-anchor="middle" x="1225.79" y="-57.8" font-family="Times,serif" font-size="14.00">has attribute</text>
</g>
<!-- category -->
<g id="node12" class="node">
<title>category</title>
<ellipse fill="none" stroke="black" cx="1338.79" cy="-18" rx="51.19" ry="18"/>
<text text-anchor="middle" x="1338.79" y="-14.3" font-family="Times,serif" font-size="14.00">category</text>
</g>
<!-- biotic exposure&#45;&gt;category -->
<g id="edge11" class="edge">
<title>biotic exposure&#45;&gt;category</title>
<path fill="none" stroke="blue" d="M981.25,-92.1C992.03,-90.16 1003.23,-88.35 1013.79,-87 1071.9,-79.55 1222.25,-90.37 1276.79,-69 1291.5,-63.23 1305.44,-52.65 1316.35,-42.71"/>
<polygon fill="blue" stroke="blue" points="1318.92,-45.09 1323.74,-35.65 1314.09,-40.03 1318.92,-45.09"/>
<text text-anchor="middle" x="1333.29" y="-57.8" font-family="Times,serif" font-size="14.00">category</text>
</g>
<!-- has taxonomic rank -->
<g id="node14" class="node">
<title>has taxonomic rank</title>
<ellipse fill="none" stroke="black" cx="1509.79" cy="-18" rx="101.28" ry="18"/>
<text text-anchor="middle" x="1509.79" y="-14.3" font-family="Times,serif" font-size="14.00">has taxonomic rank</text>
</g>
<!-- biotic exposure&#45;&gt;has taxonomic rank -->
<g id="edge12" class="edge">
<title>biotic exposure&#45;&gt;has taxonomic rank</title>
<path fill="none" stroke="blue" d="M980.75,-92.03C991.67,-90.08 1003.06,-88.28 1013.79,-87 1170.66,-68.3 1213.83,-99.72 1368.79,-69 1401.84,-62.45 1437.59,-49.7 1464.83,-38.72"/>
<polygon fill="blue" stroke="blue" points="1466.17,-41.95 1474.09,-34.92 1463.51,-35.48 1466.17,-41.95"/>
<text text-anchor="middle" x="1490.79" y="-57.8" font-family="Times,serif" font-size="14.00">has taxonomic rank</text>
</g>
<!-- subclass of -->
<g id="node16" class="node">
<title>subclass of</title>
<ellipse fill="none" stroke="black" cx="1690.79" cy="-18" rx="61.99" ry="18"/>
<text text-anchor="middle" x="1690.79" y="-14.3" font-family="Times,serif" font-size="14.00">subclass of</text>
</g>
<!-- biotic exposure&#45;&gt;subclass of -->
<g id="edge13" class="edge">
<title>biotic exposure&#45;&gt;subclass of</title>
<path fill="none" stroke="blue" d="M980.73,-91.88C991.66,-89.94 1003.05,-88.18 1013.79,-87 1135.57,-73.59 1444.85,-93.96 1564.79,-69 1595.3,-62.65 1627.96,-49.49 1652.39,-38.27"/>
<polygon fill="blue" stroke="blue" points="1654.09,-41.33 1661.65,-33.92 1651.11,-35 1654.09,-41.33"/>
<text text-anchor="middle" x="1654.29" y="-57.8" font-family="Times,serif" font-size="14.00">subclass of</text>
</g>
<!-- timepoint -->
<g id="node18" class="node">
<title>timepoint</title>
<ellipse fill="none" stroke="blue" cx="1825.79" cy="-18" rx="55.49" ry="18"/>
<text text-anchor="middle" x="1825.79" y="-14.3" font-family="Times,serif" font-size="14.00">time type</text>
</g>
<!-- biotic exposure&#45;&gt;timepoint -->
<g id="edge14" class="edge">
<title>biotic exposure&#45;&gt;timepoint</title>
<path fill="none" stroke="blue" d="M980.24,-91.91C991.32,-89.94 1002.88,-88.17 1013.79,-87 1164.98,-70.84 1548.75,-99.11 1697.79,-69 1729.31,-62.63 1763.12,-49.11 1788.08,-37.73"/>
<polygon fill="blue" stroke="blue" points="1789.59,-40.89 1797.18,-33.5 1786.64,-34.54 1789.59,-40.89"/>
<text text-anchor="middle" x="1782.79" y="-57.8" font-family="Times,serif" font-size="14.00">timepoint</text>
</g>
<!-- named thing_category -->
<g id="node13" class="node">
<title>named thing_category</title>
<ellipse fill="none" stroke="blue" cx="1092.79" cy="-105" rx="69.59" ry="18"/>
<text text-anchor="middle" x="1092.79" y="-101.3" font-family="Times,serif" font-size="14.00">named thing</text>
</g>
<!-- system taxon_has taxonomic rank -->
<g id="node15" class="node">
<title>system taxon_has taxonomic rank</title>
<ellipse fill="none" stroke="blue" cx="1262.79" cy="-105" rx="82.59" ry="18"/>
<text text-anchor="middle" x="1262.79" y="-101.3" font-family="Times,serif" font-size="14.00">taxonomic rank</text>
</g>
<!-- system taxon_subclass of -->
<g id="node17" class="node">
<title>system taxon_subclass of</title>
<ellipse fill="none" stroke="blue" cx="1435.79" cy="-105" rx="72.59" ry="18"/>
<text text-anchor="middle" x="1435.79" y="-101.3" font-family="Times,serif" font-size="14.00">system taxon</text>
</g>
</g>
</svg>
