<?xml version="1.0" encoding="UTF-8" standalone="no"?>
<!DOCTYPE svg PUBLIC "-//W3C//DTD SVG 1.1//EN"
 "http://www.w3.org/Graphics/SVG/1.1/DTD/svg11.dtd">
<!-- Generated by graphviz version 2.43.0 (0)
 -->
<!-- Title: %3 Pages: 1 -->
<svg width="1297pt" height="131pt"
 viewBox="0.00 0.00 1296.99 131.00" xmlns="http://www.w3.org/2000/svg" xmlns:xlink="http://www.w3.org/1999/xlink">
<g id="graph0" class="graph" transform="scale(1 1) rotate(0) translate(4 127)">
<title>%3</title>
<polygon fill="white" stroke="transparent" points="-4,4 -4,-127 1292.99,-127 1292.99,4 -4,4"/>
<!-- bitstream -->
<g id="node1" class="node">
<title>bitstream</title>
<ellipse fill="none" stroke="black" cx="584.2" cy="-105" rx="55.79" ry="18"/>
<text text-anchor="middle" x="584.2" y="-101.3" font-family="Times,serif" font-size="14.00">bitstream</text>
</g>
<!-- data -->
<g id="node2" class="node">
<title>data</title>
<ellipse fill="none" stroke="black" cx="31.2" cy="-18" rx="31.4" ry="18"/>
<text text-anchor="middle" x="31.2" y="-14.3" font-family="Times,serif" font-size="14.00">data</text>
</g>
<!-- bitstream&#45;&gt;data -->
<g id="edge1" class="edge">
<title>bitstream&#45;&gt;data</title>
<path fill="none" stroke="black" d="M529.36,-101.12C456.87,-96.78 325.33,-87.09 214.2,-69 150.25,-58.59 133.89,-55.81 72.2,-36 69.76,-35.22 67.26,-34.35 64.76,-33.44"/>
<polygon fill="black" stroke="black" points="65.82,-30.09 55.23,-29.74 63.29,-36.62 65.82,-30.09"/>
<text text-anchor="middle" x="228.2" y="-57.8" font-family="Times,serif" font-size="14.00">is_a</text>
</g>
<!-- id -->
<g id="node3" class="node">
<title>id</title>
<ellipse fill="none" stroke="blue" cx="119.2" cy="-18" rx="38.19" ry="18"/>
<text text-anchor="middle" x="119.2" y="-14.3" font-family="Times,serif" font-size="14.00">string</text>
</g>
<!-- bitstream&#45;&gt;id -->
<g id="edge2" class="edge">
<title>bitstream&#45;&gt;id</title>
<path fill="none" stroke="blue" d="M531.02,-99.25C450.94,-91.23 295.13,-72.2 167.2,-36 164.09,-35.12 160.9,-34.15 157.7,-33.12"/>
<polygon fill="blue" stroke="blue" points="158.79,-29.8 148.19,-29.95 156.57,-36.44 158.79,-29.8"/>
<text text-anchor="middle" x="310.2" y="-57.8" font-family="Times,serif" font-size="14.00">id</text>
</g>
<!-- iri -->
<g id="node4" class="node">
<title>iri</title>
<ellipse fill="none" stroke="blue" cx="220.2" cy="-18" rx="44.39" ry="18"/>
<text text-anchor="middle" x="220.2" y="-14.3" font-family="Times,serif" font-size="14.00">iri type</text>
</g>
<!-- bitstream&#45;&gt;iri -->
<g id="edge3" class="edge">
<title>bitstream&#45;&gt;iri</title>
<path fill="none" stroke="blue" d="M535.97,-95.75C498.75,-89.17 446.03,-79.35 400.2,-69 343.73,-56.25 329.82,-52.03 274.2,-36 270.69,-34.99 267.05,-33.91 263.41,-32.81"/>
<polygon fill="blue" stroke="blue" points="264.41,-29.45 253.82,-29.86 262.35,-36.15 264.41,-29.45"/>
<text text-anchor="middle" x="408.2" y="-57.8" font-family="Times,serif" font-size="14.00">iri</text>
</g>
<!-- type -->
<g id="node5" class="node">
<title>type</title>
<ellipse fill="none" stroke="blue" cx="321.2" cy="-18" rx="38.19" ry="18"/>
<text text-anchor="middle" x="321.2" y="-14.3" font-family="Times,serif" font-size="14.00">string</text>
</g>
<!-- bitstream&#45;&gt;type -->
<g id="edge4" class="edge">
<title>bitstream&#45;&gt;type</title>
<path fill="none" stroke="blue" d="M543.59,-92.51C520.53,-85.87 491.17,-77.23 465.2,-69 421.79,-55.24 411.17,-51.08 368.2,-36 365.51,-35.06 362.74,-34.08 359.95,-33.08"/>
<polygon fill="blue" stroke="blue" points="361.09,-29.78 350.5,-29.7 358.73,-36.37 361.09,-29.78"/>
<text text-anchor="middle" x="481.2" y="-57.8" font-family="Times,serif" font-size="14.00">type</text>
</g>
<!-- name -->
<g id="node6" class="node">
<title>name</title>
<ellipse fill="none" stroke="blue" cx="434.2" cy="-18" rx="56.59" ry="18"/>
<text text-anchor="middle" x="434.2" y="-14.3" font-family="Times,serif" font-size="14.00">label type</text>
</g>
<!-- bitstream&#45;&gt;name -->
<g id="edge5" class="edge">
<title>bitstream&#45;&gt;name</title>
<path fill="none" stroke="blue" d="M557.73,-89C533.17,-75.08 496.44,-54.27 469.42,-38.96"/>
<polygon fill="blue" stroke="blue" points="471.08,-35.88 460.66,-33.99 467.63,-41.97 471.08,-35.88"/>
<text text-anchor="middle" x="538.2" y="-57.8" font-family="Times,serif" font-size="14.00">name</text>
</g>
<!-- description -->
<g id="node7" class="node">
<title>description</title>
<ellipse fill="none" stroke="blue" cx="584.2" cy="-18" rx="75.29" ry="18"/>
<text text-anchor="middle" x="584.2" y="-14.3" font-family="Times,serif" font-size="14.00">narrative text</text>
</g>
<!-- bitstream&#45;&gt;description -->
<g id="edge6" class="edge">
<title>bitstream&#45;&gt;description</title>
<path fill="none" stroke="blue" d="M584.2,-86.8C584.2,-75.16 584.2,-59.55 584.2,-46.24"/>
<polygon fill="blue" stroke="blue" points="587.7,-46.18 584.2,-36.18 580.7,-46.18 587.7,-46.18"/>
<text text-anchor="middle" x="624.7" y="-57.8" font-family="Times,serif" font-size="14.00">description</text>
</g>
<!-- source -->
<g id="node8" class="node">
<title>source</title>
<ellipse fill="none" stroke="blue" cx="734.2" cy="-18" rx="56.59" ry="18"/>
<text text-anchor="middle" x="734.2" y="-14.3" font-family="Times,serif" font-size="14.00">label type</text>
</g>
<!-- bitstream&#45;&gt;source -->
<g id="edge7" class="edge">
<title>bitstream&#45;&gt;source</title>
<path fill="none" stroke="blue" d="M621.18,-91.23C636.48,-85.33 654.13,-77.69 669.2,-69 682.79,-61.16 696.73,-50.8 708.2,-41.54"/>
<polygon fill="blue" stroke="blue" points="710.58,-44.11 716.07,-35.05 706.13,-38.71 710.58,-44.11"/>
<text text-anchor="middle" x="716.2" y="-57.8" font-family="Times,serif" font-size="14.00">source</text>
</g>
<!-- provided by -->
<g id="node9" class="node">
<title>provided by</title>
<ellipse fill="none" stroke="blue" cx="846.2" cy="-18" rx="37.09" ry="18"/>
<text text-anchor="middle" x="846.2" y="-14.3" font-family="Times,serif" font-size="14.00">agent</text>
</g>
<!-- bitstream&#45;&gt;provided by -->
<g id="edge8" class="edge">
<title>bitstream&#45;&gt;provided by</title>
<path fill="none" stroke="blue" d="M625.06,-92.66C632.72,-90.67 640.68,-88.7 648.2,-87 690.54,-77.42 703,-82.68 744.2,-69 768.76,-60.85 794.94,-47.91 814.63,-37.25"/>
<polygon fill="blue" stroke="blue" points="816.39,-40.27 823.46,-32.37 813.01,-34.14 816.39,-40.27"/>
<text text-anchor="middle" x="821.7" y="-57.8" font-family="Times,serif" font-size="14.00">provided by</text>
</g>
<!-- has attribute -->
<g id="node10" class="node">
<title>has attribute</title>
<ellipse fill="none" stroke="blue" cx="953.2" cy="-18" rx="51.99" ry="18"/>
<text text-anchor="middle" x="953.2" y="-14.3" font-family="Times,serif" font-size="14.00">attribute</text>
</g>
<!-- bitstream&#45;&gt;has attribute -->
<g id="edge9" class="edge">
<title>bitstream&#45;&gt;has attribute</title>
<path fill="none" stroke="blue" d="M623.9,-92.28C631.89,-90.26 640.27,-88.37 648.2,-87 744.88,-70.34 774.67,-98.62 868.2,-69 888.3,-62.63 908.74,-50.82 924.54,-40.27"/>
<polygon fill="blue" stroke="blue" points="926.55,-43.13 932.8,-34.58 922.58,-37.37 926.55,-43.13"/>
<text text-anchor="middle" x="948.2" y="-57.8" font-family="Times,serif" font-size="14.00">has attribute</text>
</g>
<!-- category -->
<g id="node11" class="node">
<title>category</title>
<ellipse fill="none" stroke="black" cx="1074.2" cy="-18" rx="51.19" ry="18"/>
<text text-anchor="middle" x="1074.2" y="-14.3" font-family="Times,serif" font-size="14.00">category</text>
</g>
<!-- bitstream&#45;&gt;category -->
<g id="edge10" class="edge">
<title>bitstream&#45;&gt;category</title>
<path fill="none" stroke="blue" d="M623.53,-92.18C631.62,-90.13 640.13,-88.26 648.2,-87 725.36,-74.91 925.05,-93.54 999.2,-69 1017.04,-63.1 1034.64,-51.73 1048.31,-41.32"/>
<polygon fill="blue" stroke="blue" points="1050.6,-43.97 1056.27,-35.03 1046.26,-38.48 1050.6,-43.97"/>
<text text-anchor="middle" x="1059.7" y="-57.8" font-family="Times,serif" font-size="14.00">category</text>
</g>
<!-- in taxon -->
<g id="node13" class="node">
<title>in taxon</title>
<ellipse fill="none" stroke="blue" cx="1216.2" cy="-18" rx="72.59" ry="18"/>
<text text-anchor="middle" x="1216.2" y="-14.3" font-family="Times,serif" font-size="14.00">system taxon</text>
</g>
<!-- bitstream&#45;&gt;in taxon -->
<g id="edge11" class="edge">
<title>bitstream&#45;&gt;in taxon</title>
<path fill="none" stroke="blue" d="M623.51,-92.11C631.61,-90.07 640.13,-88.22 648.2,-87 844.79,-57.3 900.99,-111.62 1095.2,-69 1123.88,-62.7 1154.43,-50.03 1177.66,-39.02"/>
<polygon fill="blue" stroke="blue" points="1179.34,-42.09 1186.82,-34.58 1176.29,-35.79 1179.34,-42.09"/>
<text text-anchor="middle" x="1171.2" y="-57.8" font-family="Times,serif" font-size="14.00">in taxon</text>
</g>
<!-- named thing_category -->
<g id="node12" class="node">
<title>named thing_category</title>
<ellipse fill="none" stroke="blue" cx="727.2" cy="-105" rx="69.59" ry="18"/>
<text text-anchor="middle" x="727.2" y="-101.3" font-family="Times,serif" font-size="14.00">named thing</text>
</g>
</g>
</svg>
