<?xml version="1.0" encoding="UTF-8" standalone="no"?>
<!DOCTYPE svg PUBLIC "-//W3C//DTD SVG 1.1//EN"
 "http://www.w3.org/Graphics/SVG/1.1/DTD/svg11.dtd">
<!-- Generated by graphviz version 2.43.0 (0)
 -->
<!-- Title: %3 Pages: 1 -->
<svg width="1459pt" height="131pt"
 viewBox="0.00 0.00 1458.74 131.00" xmlns="http://www.w3.org/2000/svg" xmlns:xlink="http://www.w3.org/1999/xlink">
<g id="graph0" class="graph" transform="scale(1 1) rotate(0) translate(4 127)">
<title>%3</title>
<polygon fill="white" stroke="transparent" points="-4,4 -4,-127 1454.74,-127 1454.74,4 -4,4"/>
<!-- case -->
<g id="node1" class="node">
<title>case</title>
<ellipse fill="none" stroke="black" cx="706.94" cy="-105" rx="31.4" ry="18"/>
<text text-anchor="middle" x="706.94" y="-101.3" font-family="Times,serif" font-size="14.00">case</text>
</g>
<!-- individual system -->
<g id="node2" class="node">
<title>individual system</title>
<ellipse fill="none" stroke="black" cx="92.94" cy="-18" rx="92.88" ry="18"/>
<text text-anchor="middle" x="92.94" y="-14.3" font-family="Times,serif" font-size="14.00">individual system</text>
</g>
<!-- case&#45;&gt;individual system -->
<g id="edge1" class="edge">
<title>case&#45;&gt;individual system</title>
<path fill="none" stroke="black" d="M676.11,-102.21C612.46,-98.27 462.02,-87.68 336.94,-69 276.33,-59.95 208.04,-45.59 159.15,-34.58"/>
<polygon fill="black" stroke="black" points="159.86,-31.15 149.33,-32.36 158.31,-37.98 159.86,-31.15"/>
<text text-anchor="middle" x="350.94" y="-57.8" font-family="Times,serif" font-size="14.00">is_a</text>
</g>
<!-- id -->
<g id="node3" class="node">
<title>id</title>
<ellipse fill="none" stroke="blue" cx="241.94" cy="-18" rx="38.19" ry="18"/>
<text text-anchor="middle" x="241.94" y="-14.3" font-family="Times,serif" font-size="14.00">string</text>
</g>
<!-- case&#45;&gt;id -->
<g id="edge2" class="edge">
<title>case&#45;&gt;id</title>
<path fill="none" stroke="blue" d="M676.34,-101.42C606.65,-95.03 431.28,-75.99 289.94,-36 286.84,-35.12 283.64,-34.15 280.44,-33.12"/>
<polygon fill="blue" stroke="blue" points="281.53,-29.8 270.94,-29.95 279.31,-36.44 281.53,-29.8"/>
<text text-anchor="middle" x="432.94" y="-57.8" font-family="Times,serif" font-size="14.00">id</text>
</g>
<!-- iri -->
<g id="node4" class="node">
<title>iri</title>
<ellipse fill="none" stroke="blue" cx="342.94" cy="-18" rx="44.39" ry="18"/>
<text text-anchor="middle" x="342.94" y="-14.3" font-family="Times,serif" font-size="14.00">iri type</text>
</g>
<!-- case&#45;&gt;iri -->
<g id="edge3" class="edge">
<title>case&#45;&gt;iri</title>
<path fill="none" stroke="blue" d="M677.5,-99.04C641.06,-92.75 577.18,-81.25 522.94,-69 466.47,-56.25 452.57,-52.03 396.94,-36 393.43,-34.99 389.8,-33.91 386.16,-32.81"/>
<polygon fill="blue" stroke="blue" points="387.15,-29.45 376.57,-29.86 385.1,-36.15 387.15,-29.45"/>
<text text-anchor="middle" x="530.94" y="-57.8" font-family="Times,serif" font-size="14.00">iri</text>
</g>
<!-- type -->
<g id="node5" class="node">
<title>type</title>
<ellipse fill="none" stroke="blue" cx="443.94" cy="-18" rx="38.19" ry="18"/>
<text text-anchor="middle" x="443.94" y="-14.3" font-family="Times,serif" font-size="14.00">string</text>
</g>
<!-- case&#45;&gt;type -->
<g id="edge4" class="edge">
<title>case&#45;&gt;type</title>
<path fill="none" stroke="blue" d="M679.43,-96.26C655.25,-89.38 619.14,-78.89 587.94,-69 544.53,-55.24 533.91,-51.08 490.94,-36 488.26,-35.06 485.49,-34.08 482.7,-33.08"/>
<polygon fill="blue" stroke="blue" points="483.84,-29.78 473.24,-29.7 481.48,-36.37 483.84,-29.78"/>
<text text-anchor="middle" x="603.94" y="-57.8" font-family="Times,serif" font-size="14.00">type</text>
</g>
<!-- name -->
<g id="node6" class="node">
<title>name</title>
<ellipse fill="none" stroke="blue" cx="556.94" cy="-18" rx="56.59" ry="18"/>
<text text-anchor="middle" x="556.94" y="-14.3" font-family="Times,serif" font-size="14.00">label type</text>
</g>
<!-- case&#45;&gt;name -->
<g id="edge5" class="edge">
<title>case&#45;&gt;name</title>
<path fill="none" stroke="blue" d="M685.45,-91.82C661.18,-78.07 621.32,-55.48 592.42,-39.1"/>
<polygon fill="blue" stroke="blue" points="593.88,-35.91 583.45,-34.02 590.43,-42 593.88,-35.91"/>
<text text-anchor="middle" x="660.94" y="-57.8" font-family="Times,serif" font-size="14.00">name</text>
</g>
<!-- description -->
<g id="node7" class="node">
<title>description</title>
<ellipse fill="none" stroke="blue" cx="706.94" cy="-18" rx="75.29" ry="18"/>
<text text-anchor="middle" x="706.94" y="-14.3" font-family="Times,serif" font-size="14.00">narrative text</text>
</g>
<!-- case&#45;&gt;description -->
<g id="edge6" class="edge">
<title>case&#45;&gt;description</title>
<path fill="none" stroke="blue" d="M706.94,-86.8C706.94,-75.16 706.94,-59.55 706.94,-46.24"/>
<polygon fill="blue" stroke="blue" points="710.44,-46.18 706.94,-36.18 703.44,-46.18 710.44,-46.18"/>
<text text-anchor="middle" x="747.44" y="-57.8" font-family="Times,serif" font-size="14.00">description</text>
</g>
<!-- source -->
<g id="node8" class="node">
<title>source</title>
<ellipse fill="none" stroke="blue" cx="856.94" cy="-18" rx="56.59" ry="18"/>
<text text-anchor="middle" x="856.94" y="-14.3" font-family="Times,serif" font-size="14.00">label type</text>
</g>
<!-- case&#45;&gt;source -->
<g id="edge7" class="edge">
<title>case&#45;&gt;source</title>
<path fill="none" stroke="blue" d="M731.45,-93.49C736.56,-91.32 741.92,-89.07 746.94,-87 766.86,-78.79 773.23,-79.67 791.94,-69 805.58,-61.23 819.52,-50.88 830.98,-41.61"/>
<polygon fill="blue" stroke="blue" points="833.37,-44.18 838.85,-35.11 828.91,-38.78 833.37,-44.18"/>
<text text-anchor="middle" x="838.94" y="-57.8" font-family="Times,serif" font-size="14.00">source</text>
</g>
<!-- provided by -->
<g id="node9" class="node">
<title>provided by</title>
<ellipse fill="none" stroke="blue" cx="968.94" cy="-18" rx="37.09" ry="18"/>
<text text-anchor="middle" x="968.94" y="-14.3" font-family="Times,serif" font-size="14.00">agent</text>
</g>
<!-- case&#45;&gt;provided by -->
<g id="edge8" class="edge">
<title>case&#45;&gt;provided by</title>
<path fill="none" stroke="blue" d="M730.27,-92.92C735.66,-90.69 741.42,-88.56 746.94,-87 798.84,-72.34 815.46,-85.06 866.94,-69 891.81,-61.24 918.17,-48.18 937.86,-37.35"/>
<polygon fill="blue" stroke="blue" points="939.67,-40.35 946.68,-32.41 936.25,-34.24 939.67,-40.35"/>
<text text-anchor="middle" x="947.44" y="-57.8" font-family="Times,serif" font-size="14.00">provided by</text>
</g>
<!-- category -->
<g id="node10" class="node">
<title>category</title>
<ellipse fill="none" stroke="black" cx="1074.94" cy="-18" rx="51.19" ry="18"/>
<text text-anchor="middle" x="1074.94" y="-14.3" font-family="Times,serif" font-size="14.00">category</text>
</g>
<!-- case&#45;&gt;category -->
<g id="edge9" class="edge">
<title>case&#45;&gt;category</title>
<path fill="none" stroke="blue" d="M730.19,-92.6C735.58,-90.39 741.37,-88.35 746.94,-87 853.93,-61.12 889.22,-102.88 993.94,-69 1013,-62.83 1032.17,-51.3 1047.07,-40.86"/>
<polygon fill="blue" stroke="blue" points="1049.27,-43.59 1055.32,-34.89 1045.17,-37.92 1049.27,-43.59"/>
<text text-anchor="middle" x="1056.44" y="-57.8" font-family="Times,serif" font-size="14.00">category</text>
</g>
<!-- has attribute -->
<g id="node12" class="node">
<title>has attribute</title>
<ellipse fill="none" stroke="black" cx="1215.94" cy="-18" rx="71.49" ry="18"/>
<text text-anchor="middle" x="1215.94" y="-14.3" font-family="Times,serif" font-size="14.00">has attribute</text>
</g>
<!-- case&#45;&gt;has attribute -->
<g id="edge10" class="edge">
<title>case&#45;&gt;has attribute</title>
<path fill="none" stroke="blue" d="M729.75,-92.69C735.25,-90.42 741.21,-88.32 746.94,-87 896.54,-52.44 942.02,-102.16 1091.94,-69 1121.35,-62.49 1152.81,-49.74 1176.68,-38.74"/>
<polygon fill="blue" stroke="blue" points="1178.2,-41.89 1185.76,-34.47 1175.23,-35.55 1178.2,-41.89"/>
<text text-anchor="middle" x="1184.94" y="-57.8" font-family="Times,serif" font-size="14.00">has attribute</text>
</g>
<!-- in taxon -->
<g id="node14" class="node">
<title>in taxon</title>
<ellipse fill="none" stroke="blue" cx="1377.94" cy="-18" rx="72.59" ry="18"/>
<text text-anchor="middle" x="1377.94" y="-14.3" font-family="Times,serif" font-size="14.00">system taxon</text>
</g>
<!-- case&#45;&gt;in taxon -->
<g id="edge11" class="edge">
<title>case&#45;&gt;in taxon</title>
<path fill="none" stroke="blue" d="M729.73,-92.63C735.24,-90.36 741.2,-88.28 746.94,-87 959.21,-39.68 1022.28,-109.58 1235.94,-69 1270.17,-62.5 1307.25,-49.22 1334.93,-37.97"/>
<polygon fill="blue" stroke="blue" points="1336.4,-41.15 1344.31,-34.09 1333.73,-34.68 1336.4,-41.15"/>
<text text-anchor="middle" x="1315.94" y="-57.8" font-family="Times,serif" font-size="14.00">in taxon</text>
</g>
<!-- named thing_category -->
<g id="node11" class="node">
<title>named thing_category</title>
<ellipse fill="none" stroke="blue" cx="825.94" cy="-105" rx="69.59" ry="18"/>
<text text-anchor="middle" x="825.94" y="-101.3" font-family="Times,serif" font-size="14.00">named thing</text>
</g>
<!-- systemic entity_has attribute -->
<g id="node13" class="node">
<title>systemic entity_has attribute</title>
<ellipse fill="none" stroke="blue" cx="965.94" cy="-105" rx="51.99" ry="18"/>
<text text-anchor="middle" x="965.94" y="-101.3" font-family="Times,serif" font-size="14.00">attribute</text>
</g>
</g>
</svg>
