<?xml version="1.0" encoding="UTF-8" standalone="no"?>
<!DOCTYPE svg PUBLIC "-//W3C//DTD SVG 1.1//EN"
 "http://www.w3.org/Graphics/SVG/1.1/DTD/svg11.dtd">
<!-- Generated by graphviz version 2.43.0 (0)
 -->
<!-- Title: %3 Pages: 1 -->
<svg width="3651pt" height="291pt"
 viewBox="0.00 0.00 3651.48 291.00" xmlns="http://www.w3.org/2000/svg" xmlns:xlink="http://www.w3.org/1999/xlink">
<g id="graph0" class="graph" transform="scale(1 1) rotate(0) translate(4 287)">
<title>%3</title>
<polygon fill="white" stroke="transparent" points="-4,4 -4,-287 3647.48,-287 3647.48,4 -4,4"/>
<!-- case to observable feature association -->
<g id="node1" class="node">
<title>case to observable feature association</title>
<ellipse fill="none" stroke="black" cx="2024.39" cy="-265" rx="188.47" ry="18"/>
<text text-anchor="middle" x="2024.39" y="-261.3" font-family="Times,serif" font-size="14.00">case to observable feature association</text>
</g>
<!-- association -->
<g id="node2" class="node">
<title>association</title>
<ellipse fill="none" stroke="black" cx="62.39" cy="-178" rx="62.29" ry="18"/>
<text text-anchor="middle" x="62.39" y="-174.3" font-family="Times,serif" font-size="14.00">association</text>
</g>
<!-- case to observable feature association&#45;&gt;association -->
<g id="edge1" class="edge">
<title>case to observable feature association&#45;&gt;association</title>
<path fill="none" stroke="black" d="M1840.23,-261.1C1582.67,-256.6 1100.26,-246.57 689.39,-229 442.07,-218.42 378.27,-232.29 133.39,-196 127.91,-195.19 122.23,-194.16 116.57,-193"/>
<polygon fill="black" stroke="black" points="116.99,-189.51 106.47,-190.82 115.51,-196.35 116.99,-189.51"/>
<text text-anchor="middle" x="703.39" y="-217.8" font-family="Times,serif" font-size="14.00">is_a</text>
</g>
<!-- entity to observable feature association mixin -->
<g id="node3" class="node">
<title>entity to observable feature association mixin</title>
<ellipse fill="none" stroke="black" cx="366.39" cy="-178" rx="223.66" ry="18"/>
<text text-anchor="middle" x="366.39" y="-174.3" font-family="Times,serif" font-size="14.00">entity to observable feature association mixin</text>
</g>
<!-- case to observable feature association&#45;&gt;entity to observable feature association mixin -->
<g id="edge2" class="edge">
<title>case to observable feature association&#45;&gt;entity to observable feature association mixin</title>
<path fill="none" stroke="black" d="M1839.31,-261.46C1619.54,-257.68 1241.98,-248.76 918.39,-229 777.26,-220.38 616.29,-205.18 504.74,-193.8"/>
<polygon fill="black" stroke="black" points="505.08,-190.32 494.78,-192.78 504.37,-197.28 505.08,-190.32"/>
<text text-anchor="middle" x="934.89" y="-217.8" font-family="Times,serif" font-size="14.00">uses</text>
</g>
<!-- case to entity association mixin -->
<g id="node4" class="node">
<title>case to entity association mixin</title>
<ellipse fill="none" stroke="black" cx="765.39" cy="-178" rx="157.07" ry="18"/>
<text text-anchor="middle" x="765.39" y="-174.3" font-family="Times,serif" font-size="14.00">case to entity association mixin</text>
</g>
<!-- case to observable feature association&#45;&gt;case to entity association mixin -->
<g id="edge3" class="edge">
<title>case to observable feature association&#45;&gt;case to entity association mixin</title>
<path fill="none" stroke="black" d="M1835.67,-264.43C1641.16,-263.17 1329.35,-256.38 1061.39,-229 988.86,-221.59 907.2,-207.34 848.05,-195.95"/>
<polygon fill="black" stroke="black" points="848.5,-192.47 838.02,-194 847.17,-199.34 848.5,-192.47"/>
<text text-anchor="middle" x="1077.89" y="-217.8" font-family="Times,serif" font-size="14.00">uses</text>
</g>
<!-- id -->
<g id="node5" class="node">
<title>id</title>
<ellipse fill="none" stroke="blue" cx="979.39" cy="-178" rx="38.19" ry="18"/>
<text text-anchor="middle" x="979.39" y="-174.3" font-family="Times,serif" font-size="14.00">string</text>
</g>
<!-- case to observable feature association&#45;&gt;id -->
<g id="edge4" class="edge">
<title>case to observable feature association&#45;&gt;id</title>
<path fill="none" stroke="blue" d="M1835.79,-264.4C1666.71,-262.77 1412.19,-255.44 1192.39,-229 1118.14,-220.07 1099.49,-215.87 1027.39,-196 1024.28,-195.14 1021.08,-194.18 1017.88,-193.17"/>
<polygon fill="blue" stroke="blue" points="1018.97,-189.84 1008.37,-190.01 1016.76,-196.49 1018.97,-189.84"/>
<text text-anchor="middle" x="1199.39" y="-217.8" font-family="Times,serif" font-size="14.00">id</text>
</g>
<!-- iri -->
<g id="node6" class="node">
<title>iri</title>
<ellipse fill="none" stroke="blue" cx="1080.39" cy="-178" rx="44.39" ry="18"/>
<text text-anchor="middle" x="1080.39" y="-174.3" font-family="Times,serif" font-size="14.00">iri type</text>
</g>
<!-- case to observable feature association&#45;&gt;iri -->
<g id="edge5" class="edge">
<title>case to observable feature association&#45;&gt;iri</title>
<path fill="none" stroke="blue" d="M1838.33,-262.13C1692.81,-258.93 1485.63,-250.57 1305.39,-229 1228.11,-219.75 1208.81,-215.26 1133.39,-196 1130.02,-195.14 1126.54,-194.18 1123.05,-193.17"/>
<polygon fill="blue" stroke="blue" points="1123.88,-189.77 1113.29,-190.23 1121.86,-196.47 1123.88,-189.77"/>
<text text-anchor="middle" x="1313.39" y="-217.8" font-family="Times,serif" font-size="14.00">iri</text>
</g>
<!-- name -->
<g id="node7" class="node">
<title>name</title>
<ellipse fill="none" stroke="blue" cx="1199.39" cy="-178" rx="56.59" ry="18"/>
<text text-anchor="middle" x="1199.39" y="-174.3" font-family="Times,serif" font-size="14.00">label type</text>
</g>
<!-- case to observable feature association&#45;&gt;name -->
<g id="edge6" class="edge">
<title>case to observable feature association&#45;&gt;name</title>
<path fill="none" stroke="blue" d="M1836.95,-263.01C1711.37,-260.04 1542.69,-251.58 1395.39,-229 1344.19,-221.15 1286.93,-205.75 1247.58,-194.1"/>
<polygon fill="blue" stroke="blue" points="1248.56,-190.74 1237.98,-191.23 1246.56,-197.45 1248.56,-190.74"/>
<text text-anchor="middle" x="1415.39" y="-217.8" font-family="Times,serif" font-size="14.00">name</text>
</g>
<!-- description -->
<g id="node8" class="node">
<title>description</title>
<ellipse fill="none" stroke="blue" cx="1349.39" cy="-178" rx="75.29" ry="18"/>
<text text-anchor="middle" x="1349.39" y="-174.3" font-family="Times,serif" font-size="14.00">narrative text</text>
</g>
<!-- case to observable feature association&#45;&gt;description -->
<g id="edge7" class="edge">
<title>case to observable feature association&#45;&gt;description</title>
<path fill="none" stroke="blue" d="M1851.46,-257.8C1722.29,-252.21 1557.05,-242.73 1490.39,-229 1456.83,-222.09 1420.41,-209.02 1392.99,-197.98"/>
<polygon fill="blue" stroke="blue" points="1394.27,-194.72 1383.69,-194.17 1391.62,-201.19 1394.27,-194.72"/>
<text text-anchor="middle" x="1530.89" y="-217.8" font-family="Times,serif" font-size="14.00">description</text>
</g>
<!-- source -->
<g id="node9" class="node">
<title>source</title>
<ellipse fill="none" stroke="blue" cx="1499.39" cy="-178" rx="56.59" ry="18"/>
<text text-anchor="middle" x="1499.39" y="-174.3" font-family="Times,serif" font-size="14.00">label type</text>
</g>
<!-- case to observable feature association&#45;&gt;source -->
<g id="edge8" class="edge">
<title>case to observable feature association&#45;&gt;source</title>
<path fill="none" stroke="blue" d="M1842.52,-260.22C1772.04,-255.67 1691.19,-246.61 1619.39,-229 1590.69,-221.96 1559.95,-209.04 1536.77,-198.1"/>
<polygon fill="blue" stroke="blue" points="1538.17,-194.89 1527.64,-193.7 1535.14,-201.19 1538.17,-194.89"/>
<text text-anchor="middle" x="1643.39" y="-217.8" font-family="Times,serif" font-size="14.00">source</text>
</g>
<!-- provided by -->
<g id="node10" class="node">
<title>provided by</title>
<ellipse fill="none" stroke="blue" cx="1611.39" cy="-178" rx="37.09" ry="18"/>
<text text-anchor="middle" x="1611.39" y="-174.3" font-family="Times,serif" font-size="14.00">agent</text>
</g>
<!-- case to observable feature association&#45;&gt;provided by -->
<g id="edge9" class="edge">
<title>case to observable feature association&#45;&gt;provided by</title>
<path fill="none" stroke="blue" d="M1854.5,-257.13C1805.9,-252.01 1753.4,-243.39 1706.39,-229 1683.33,-221.94 1659.3,-209.24 1641.18,-198.4"/>
<polygon fill="blue" stroke="blue" points="1642.63,-195.19 1632.28,-192.95 1638.98,-201.16 1642.63,-195.19"/>
<text text-anchor="middle" x="1748.89" y="-217.8" font-family="Times,serif" font-size="14.00">provided by</text>
</g>
<!-- has attribute -->
<g id="node11" class="node">
<title>has attribute</title>
<ellipse fill="none" stroke="blue" cx="1718.39" cy="-178" rx="51.99" ry="18"/>
<text text-anchor="middle" x="1718.39" y="-174.3" font-family="Times,serif" font-size="14.00">attribute</text>
</g>
<!-- case to observable feature association&#45;&gt;has attribute -->
<g id="edge10" class="edge">
<title>case to observable feature association&#45;&gt;has attribute</title>
<path fill="none" stroke="blue" d="M1923.3,-249.72C1894.27,-244.46 1862.8,-237.62 1834.39,-229 1807.4,-220.81 1778.25,-208.23 1755.92,-197.73"/>
<polygon fill="blue" stroke="blue" points="1757.33,-194.53 1746.8,-193.38 1754.32,-200.85 1757.33,-194.53"/>
<text text-anchor="middle" x="1881.39" y="-217.8" font-family="Times,serif" font-size="14.00">has attribute</text>
</g>
<!-- subject -->
<g id="node12" class="node">
<title>subject</title>
<ellipse fill="none" stroke="blue" cx="1858.39" cy="-178" rx="69.59" ry="18"/>
<text text-anchor="middle" x="1858.39" y="-174.3" font-family="Times,serif" font-size="14.00">named thing</text>
</g>
<!-- case to observable feature association&#45;&gt;subject -->
<g id="edge11" class="edge">
<title>case to observable feature association&#45;&gt;subject</title>
<path fill="none" stroke="blue" d="M1991.6,-247.21C1964.49,-233.32 1925.92,-213.58 1897.26,-198.9"/>
<polygon fill="blue" stroke="blue" points="1898.83,-195.77 1888.33,-194.33 1895.64,-202 1898.83,-195.77"/>
<text text-anchor="middle" x="1977.39" y="-217.8" font-family="Times,serif" font-size="14.00">subject</text>
</g>
<!-- predicate -->
<g id="node13" class="node">
<title>predicate</title>
<ellipse fill="none" stroke="blue" cx="2024.39" cy="-178" rx="77.99" ry="18"/>
<text text-anchor="middle" x="2024.39" y="-174.3" font-family="Times,serif" font-size="14.00">predicate type</text>
</g>
<!-- case to observable feature association&#45;&gt;predicate -->
<g id="edge12" class="edge">
<title>case to observable feature association&#45;&gt;predicate</title>
<path fill="none" stroke="blue" d="M2024.39,-246.8C2024.39,-235.16 2024.39,-219.55 2024.39,-206.24"/>
<polygon fill="blue" stroke="blue" points="2027.89,-206.18 2024.39,-196.18 2020.89,-206.18 2027.89,-206.18"/>
<text text-anchor="middle" x="2058.39" y="-217.8" font-family="Times,serif" font-size="14.00">predicate</text>
</g>
<!-- object -->
<g id="node14" class="node">
<title>object</title>
<ellipse fill="none" stroke="blue" cx="2073.39" cy="-91" rx="69.59" ry="18"/>
<text text-anchor="middle" x="2073.39" y="-87.3" font-family="Times,serif" font-size="14.00">named thing</text>
</g>
<!-- case to observable feature association&#45;&gt;object -->
<g id="edge13" class="edge">
<title>case to observable feature association&#45;&gt;object</title>
<path fill="none" stroke="blue" d="M2070.57,-247.45C2079.93,-242.56 2089.12,-236.47 2096.39,-229 2107.64,-217.46 2107.98,-211.75 2111.39,-196 2114.78,-180.36 2115.43,-175.48 2111.39,-160 2107.44,-144.84 2099.29,-129.47 2091.54,-117.19"/>
<polygon fill="blue" stroke="blue" points="2094.46,-115.26 2086.03,-108.84 2088.61,-119.11 2094.46,-115.26"/>
<text text-anchor="middle" x="2136.39" y="-174.3" font-family="Times,serif" font-size="14.00">object</text>
</g>
<!-- relation -->
<g id="node15" class="node">
<title>relation</title>
<ellipse fill="none" stroke="blue" cx="2073.39" cy="-18" rx="57.39" ry="18"/>
<text text-anchor="middle" x="2073.39" y="-14.3" font-family="Times,serif" font-size="14.00">uriorcurie</text>
</g>
<!-- case to observable feature association&#45;&gt;relation -->
<g id="edge14" class="edge">
<title>case to observable feature association&#45;&gt;relation</title>
<path fill="none" stroke="blue" d="M2095.13,-248.24C2121.86,-238.22 2149.04,-222.02 2162.39,-196 2174.33,-172.75 2166.26,-95.99 2152.39,-73 2143.51,-58.27 2128.89,-46.63 2114.63,-37.98"/>
<polygon fill="blue" stroke="blue" points="2116.28,-34.89 2105.86,-32.98 2112.81,-40.97 2116.28,-34.89"/>
<text text-anchor="middle" x="2196.39" y="-130.8" font-family="Times,serif" font-size="14.00">relation</text>
</g>
<!-- negated -->
<g id="node16" class="node">
<title>negated</title>
<ellipse fill="none" stroke="blue" cx="2285.39" cy="-178" rx="46.59" ry="18"/>
<text text-anchor="middle" x="2285.39" y="-174.3" font-family="Times,serif" font-size="14.00">boolean</text>
</g>
<!-- case to observable feature association&#45;&gt;negated -->
<g id="edge15" class="edge">
<title>case to observable feature association&#45;&gt;negated</title>
<path fill="none" stroke="blue" d="M2152.19,-251.71C2176.85,-246.56 2201.97,-239.28 2224.39,-229 2238.62,-222.48 2252.3,-211.82 2263.08,-202.01"/>
<polygon fill="blue" stroke="blue" points="2265.54,-204.51 2270.39,-195.09 2260.72,-199.42 2265.54,-204.51"/>
<text text-anchor="middle" x="2277.39" y="-217.8" font-family="Times,serif" font-size="14.00">negated</text>
</g>
<!-- qualifiers -->
<g id="node17" class="node">
<title>qualifiers</title>
<ellipse fill="none" stroke="blue" cx="2426.39" cy="-178" rx="76.89" ry="18"/>
<text text-anchor="middle" x="2426.39" y="-174.3" font-family="Times,serif" font-size="14.00">ontology class</text>
</g>
<!-- case to observable feature association&#45;&gt;qualifiers -->
<g id="edge16" class="edge">
<title>case to observable feature association&#45;&gt;qualifiers</title>
<path fill="none" stroke="blue" d="M2153.23,-251.82C2214.61,-245.3 2280.94,-236.97 2310.39,-229 2337.07,-221.78 2365.58,-209.55 2387.67,-199"/>
<polygon fill="blue" stroke="blue" points="2389.26,-202.12 2396.72,-194.6 2386.19,-195.83 2389.26,-202.12"/>
<text text-anchor="middle" x="2386.89" y="-217.8" font-family="Times,serif" font-size="14.00">qualifiers</text>
</g>
<!-- publications -->
<g id="node18" class="node">
<title>publications</title>
<ellipse fill="none" stroke="blue" cx="2583.39" cy="-178" rx="62.29" ry="18"/>
<text text-anchor="middle" x="2583.39" y="-174.3" font-family="Times,serif" font-size="14.00">publication</text>
</g>
<!-- case to observable feature association&#45;&gt;publications -->
<g id="edge17" class="edge">
<title>case to observable feature association&#45;&gt;publications</title>
<path fill="none" stroke="blue" d="M2159.12,-252.38C2273.96,-242.45 2421.07,-229.66 2424.39,-229 2463.32,-221.27 2506.18,-207.47 2537.58,-196.33"/>
<polygon fill="blue" stroke="blue" points="2539.13,-199.49 2547.35,-192.81 2536.76,-192.9 2539.13,-199.49"/>
<text text-anchor="middle" x="2526.39" y="-217.8" font-family="Times,serif" font-size="14.00">publications</text>
</g>
<!-- type -->
<g id="node19" class="node">
<title>type</title>
<ellipse fill="none" stroke="black" cx="2695.39" cy="-178" rx="31.4" ry="18"/>
<text text-anchor="middle" x="2695.39" y="-174.3" font-family="Times,serif" font-size="14.00">type</text>
</g>
<!-- case to observable feature association&#45;&gt;type -->
<g id="edge18" class="edge">
<title>case to observable feature association&#45;&gt;type</title>
<path fill="none" stroke="blue" d="M2155.88,-252.07C2178.07,-250.24 2200.88,-248.47 2222.39,-247 2300.54,-241.65 2497.98,-246.18 2574.39,-229 2606.16,-221.86 2640.27,-207.05 2664.15,-195.39"/>
<polygon fill="blue" stroke="blue" points="2666.01,-198.38 2673.4,-190.78 2662.89,-192.11 2666.01,-198.38"/>
<text text-anchor="middle" x="2635.39" y="-217.8" font-family="Times,serif" font-size="14.00">type</text>
</g>
<!-- category -->
<g id="node21" class="node">
<title>category</title>
<ellipse fill="none" stroke="black" cx="2796.39" cy="-178" rx="51.19" ry="18"/>
<text text-anchor="middle" x="2796.39" y="-174.3" font-family="Times,serif" font-size="14.00">category</text>
</g>
<!-- case to observable feature association&#45;&gt;category -->
<g id="edge19" class="edge">
<title>case to observable feature association&#45;&gt;category</title>
<path fill="none" stroke="blue" d="M2154.8,-251.98C2177.33,-250.14 2200.53,-248.39 2222.39,-247 2318.51,-240.88 2560.84,-247.3 2655.39,-229 2690.75,-222.16 2729.17,-208.06 2756.96,-196.57"/>
<polygon fill="blue" stroke="blue" points="2758.47,-199.74 2766.33,-192.64 2755.75,-193.29 2758.47,-199.74"/>
<text text-anchor="middle" x="2738.89" y="-217.8" font-family="Times,serif" font-size="14.00">category</text>
</g>
<!-- frequency qualifier -->
<g id="node23" class="node">
<title>frequency qualifier</title>
<ellipse fill="none" stroke="blue" cx="2950.39" cy="-178" rx="85.29" ry="18"/>
<text text-anchor="middle" x="2950.39" y="-174.3" font-family="Times,serif" font-size="14.00">frequency value</text>
</g>
<!-- case to observable feature association&#45;&gt;frequency qualifier -->
<g id="edge20" class="edge">
<title>case to observable feature association&#45;&gt;frequency qualifier</title>
<path fill="none" stroke="blue" d="M2153.73,-251.9C2176.59,-250.05 2200.18,-248.31 2222.39,-247 2344.91,-239.75 2653.13,-247.91 2774.39,-229 2817.24,-222.32 2864.44,-208.54 2899.17,-197.14"/>
<polygon fill="blue" stroke="blue" points="2900.69,-200.32 2909.07,-193.84 2898.48,-193.68 2900.69,-200.32"/>
<text text-anchor="middle" x="2906.39" y="-217.8" font-family="Times,serif" font-size="14.00">frequency qualifier</text>
</g>
<!-- severity qualifier -->
<g id="node24" class="node">
<title>severity qualifier</title>
<ellipse fill="none" stroke="blue" cx="3129.39" cy="-178" rx="76.09" ry="18"/>
<text text-anchor="middle" x="3129.39" y="-174.3" font-family="Times,serif" font-size="14.00">severity value</text>
</g>
<!-- case to observable feature association&#45;&gt;severity qualifier -->
<g id="edge21" class="edge">
<title>case to observable feature association&#45;&gt;severity qualifier</title>
<path fill="none" stroke="blue" d="M2152.92,-251.8C2176.03,-249.94 2199.92,-248.23 2222.39,-247 2390.19,-237.81 2812.82,-257.73 2978.39,-229 3015.06,-222.64 3054.97,-209.12 3084.55,-197.74"/>
<polygon fill="blue" stroke="blue" points="3086.12,-200.88 3094.16,-193.98 3083.57,-194.36 3086.12,-200.88"/>
<text text-anchor="middle" x="3099.39" y="-217.8" font-family="Times,serif" font-size="14.00">severity qualifier</text>
</g>
<!-- onset qualifier -->
<g id="node25" class="node">
<title>onset qualifier</title>
<ellipse fill="none" stroke="blue" cx="3259.39" cy="-178" rx="36.29" ry="18"/>
<text text-anchor="middle" x="3259.39" y="-174.3" font-family="Times,serif" font-size="14.00">onset</text>
</g>
<!-- case to observable feature association&#45;&gt;onset qualifier -->
<g id="edge22" class="edge">
<title>case to observable feature association&#45;&gt;onset qualifier</title>
<path fill="none" stroke="blue" d="M2152.39,-251.76C2175.66,-249.89 2199.74,-248.19 2222.39,-247 2326.94,-241.52 3063.01,-255.08 3164.39,-229 3188.07,-222.91 3212.41,-209.94 3230.54,-198.73"/>
<polygon fill="blue" stroke="blue" points="3232.85,-201.41 3239.41,-193.08 3229.09,-195.5 3232.85,-201.41"/>
<text text-anchor="middle" x="3254.89" y="-217.8" font-family="Times,serif" font-size="14.00">onset qualifier</text>
</g>
<!-- architectural style qualifier -->
<g id="node26" class="node">
<title>architectural style qualifier</title>
<ellipse fill="none" stroke="blue" cx="3478.39" cy="-178" rx="165.17" ry="18"/>
<text text-anchor="middle" x="3478.39" y="-174.3" font-family="Times,serif" font-size="14.00">computational architectural style</text>
</g>
<!-- case to observable feature association&#45;&gt;architectural style qualifier -->
<g id="edge23" class="edge">
<title>case to observable feature association&#45;&gt;architectural style qualifier</title>
<path fill="none" stroke="blue" d="M2152.12,-251.73C2175.48,-249.86 2199.65,-248.16 2222.39,-247 2343.14,-240.82 3190.9,-247.42 3310.39,-229 3349.78,-222.93 3392.83,-209.99 3425.49,-198.79"/>
<polygon fill="blue" stroke="blue" points="3426.99,-201.98 3435.28,-195.38 3424.68,-195.37 3426.99,-201.98"/>
<text text-anchor="middle" x="3473.39" y="-217.8" font-family="Times,serif" font-size="14.00">architectural style qualifier</text>
</g>
<!-- subject&#45;&gt;object -->
<g id="edge24" class="edge">
<title>subject&#45;&gt;object</title>
<path fill="none" stroke="black" d="M1894.87,-162.58C1931.39,-148.14 1987.72,-125.87 2027.31,-110.22"/>
<polygon fill="black" stroke="black" points="2028.73,-113.42 2036.74,-106.49 2026.16,-106.91 2028.73,-113.42"/>
<text text-anchor="middle" x="2007.39" y="-130.8" font-family="Times,serif" font-size="14.00">relation</text>
</g>
<!-- subject&#45;&gt;relation -->
<g id="edge25" class="edge">
<title>subject&#45;&gt;relation</title>
<path fill="none" stroke="black" stroke-dasharray="1,5" d="M1878.87,-160.8C1905.27,-140.04 1952.73,-103.14 1994.39,-73 2009.67,-61.95 2026.92,-50.09 2041.39,-40.31"/>
<polygon fill="black" stroke="black" points="2043.67,-43 2050.01,-34.51 2039.76,-37.19 2043.67,-43"/>
</g>
<!-- object&#45;&gt;relation -->
<g id="edge26" class="edge">
<title>object&#45;&gt;relation</title>
<path fill="none" stroke="black" stroke-dasharray="1,5" d="M2073.39,-72.81C2073.39,-64.79 2073.39,-55.05 2073.39,-46.07"/>
<polygon fill="black" stroke="black" points="2076.89,-46.03 2073.39,-36.03 2069.89,-46.03 2076.89,-46.03"/>
</g>
<!-- association_type -->
<g id="node20" class="node">
<title>association_type</title>
<ellipse fill="none" stroke="blue" cx="2269.39" cy="-265" rx="38.19" ry="18"/>
<text text-anchor="middle" x="2269.39" y="-261.3" font-family="Times,serif" font-size="14.00">string</text>
</g>
<!-- association_category -->
<g id="node22" class="node">
<title>association_category</title>
<ellipse fill="none" stroke="blue" cx="2388.39" cy="-265" rx="62.29" ry="18"/>
<text text-anchor="middle" x="2388.39" y="-261.3" font-family="Times,serif" font-size="14.00">association</text>
</g>
</g>
</svg>
