<?xml version="1.0" encoding="UTF-8" standalone="no"?>
<!DOCTYPE svg PUBLIC "-//W3C//DTD SVG 1.1//EN"
 "http://www.w3.org/Graphics/SVG/1.1/DTD/svg11.dtd">
<!-- Generated by graphviz version 2.43.0 (0)
 -->
<!-- Title: %3 Pages: 1 -->
<svg width="1666pt" height="131pt"
 viewBox="0.00 0.00 1665.68 131.00" xmlns="http://www.w3.org/2000/svg" xmlns:xlink="http://www.w3.org/1999/xlink">
<g id="graph0" class="graph" transform="scale(1 1) rotate(0) translate(4 127)">
<title>%3</title>
<polygon fill="white" stroke="transparent" points="-4,4 -4,-127 1661.68,-127 1661.68,4 -4,4"/>
<!-- coding sequence -->
<g id="node1" class="node">
<title>coding sequence</title>
<ellipse fill="none" stroke="black" cx="763.19" cy="-105" rx="87.99" ry="18"/>
<text text-anchor="middle" x="763.19" y="-101.3" font-family="Times,serif" font-size="14.00">coding sequence</text>
</g>
<!-- workload entity -->
<g id="node2" class="node">
<title>workload entity</title>
<ellipse fill="none" stroke="black" cx="83.19" cy="-18" rx="83.39" ry="18"/>
<text text-anchor="middle" x="83.19" y="-14.3" font-family="Times,serif" font-size="14.00">workload entity</text>
</g>
<!-- coding sequence&#45;&gt;workload entity -->
<g id="edge1" class="edge">
<title>coding sequence&#45;&gt;workload entity</title>
<path fill="none" stroke="black" d="M677.93,-100.62C588.08,-96.28 442.63,-87.05 318.19,-69 258.84,-60.39 192.04,-45.68 144.87,-34.44"/>
<polygon fill="black" stroke="black" points="145.65,-31.03 135.11,-32.1 144.01,-37.83 145.65,-31.03"/>
<text text-anchor="middle" x="332.19" y="-57.8" font-family="Times,serif" font-size="14.00">is_a</text>
</g>
<!-- id -->
<g id="node3" class="node">
<title>id</title>
<ellipse fill="none" stroke="blue" cx="223.19" cy="-18" rx="38.19" ry="18"/>
<text text-anchor="middle" x="223.19" y="-14.3" font-family="Times,serif" font-size="14.00">string</text>
</g>
<!-- coding sequence&#45;&gt;id -->
<g id="edge2" class="edge">
<title>coding sequence&#45;&gt;id</title>
<path fill="none" stroke="blue" d="M680,-99.28C581.05,-92.12 411.61,-74.96 271.19,-36 268.08,-35.14 264.88,-34.17 261.69,-33.16"/>
<polygon fill="blue" stroke="blue" points="262.77,-29.83 252.18,-30 260.56,-36.47 262.77,-29.83"/>
<text text-anchor="middle" x="425.19" y="-57.8" font-family="Times,serif" font-size="14.00">id</text>
</g>
<!-- iri -->
<g id="node4" class="node">
<title>iri</title>
<ellipse fill="none" stroke="blue" cx="324.19" cy="-18" rx="44.39" ry="18"/>
<text text-anchor="middle" x="324.19" y="-14.3" font-family="Times,serif" font-size="14.00">iri type</text>
</g>
<!-- coding sequence&#45;&gt;iri -->
<g id="edge3" class="edge">
<title>coding sequence&#45;&gt;iri</title>
<path fill="none" stroke="blue" d="M690.48,-94.92C642.76,-88.58 579.07,-79.42 523.19,-69 458.22,-56.89 441.99,-53.27 378.19,-36 374.61,-35.03 370.92,-33.98 367.22,-32.89"/>
<polygon fill="blue" stroke="blue" points="368.07,-29.49 357.48,-29.95 366.04,-36.19 368.07,-29.49"/>
<text text-anchor="middle" x="531.19" y="-57.8" font-family="Times,serif" font-size="14.00">iri</text>
</g>
<!-- type -->
<g id="node5" class="node">
<title>type</title>
<ellipse fill="none" stroke="blue" cx="425.19" cy="-18" rx="38.19" ry="18"/>
<text text-anchor="middle" x="425.19" y="-14.3" font-family="Times,serif" font-size="14.00">string</text>
</g>
<!-- coding sequence&#45;&gt;type -->
<g id="edge4" class="edge">
<title>coding sequence&#45;&gt;type</title>
<path fill="none" stroke="blue" d="M701.51,-92.14C642.16,-80.13 550.19,-59.94 472.19,-36 469.43,-35.15 466.59,-34.24 463.75,-33.29"/>
<polygon fill="blue" stroke="blue" points="464.72,-29.92 454.13,-29.97 462.44,-36.54 464.72,-29.92"/>
<text text-anchor="middle" x="607.19" y="-57.8" font-family="Times,serif" font-size="14.00">type</text>
</g>
<!-- name -->
<g id="node6" class="node">
<title>name</title>
<ellipse fill="none" stroke="blue" cx="538.19" cy="-18" rx="56.59" ry="18"/>
<text text-anchor="middle" x="538.19" y="-14.3" font-family="Times,serif" font-size="14.00">label type</text>
</g>
<!-- coding sequence&#45;&gt;name -->
<g id="edge5" class="edge">
<title>coding sequence&#45;&gt;name</title>
<path fill="none" stroke="blue" d="M723.23,-88.9C683.83,-74.02 623.74,-51.32 582.81,-35.85"/>
<polygon fill="blue" stroke="blue" points="583.94,-32.54 573.35,-32.28 581.47,-39.09 583.94,-32.54"/>
<text text-anchor="middle" x="684.19" y="-57.8" font-family="Times,serif" font-size="14.00">name</text>
</g>
<!-- description -->
<g id="node7" class="node">
<title>description</title>
<ellipse fill="none" stroke="blue" cx="688.19" cy="-18" rx="75.29" ry="18"/>
<text text-anchor="middle" x="688.19" y="-14.3" font-family="Times,serif" font-size="14.00">narrative text</text>
</g>
<!-- coding sequence&#45;&gt;description -->
<g id="edge6" class="edge">
<title>coding sequence&#45;&gt;description</title>
<path fill="none" stroke="blue" d="M748.38,-87.21C737.38,-74.75 722.23,-57.57 709.88,-43.57"/>
<polygon fill="blue" stroke="blue" points="712.22,-40.94 702.98,-35.76 706.97,-45.57 712.22,-40.94"/>
<text text-anchor="middle" x="770.69" y="-57.8" font-family="Times,serif" font-size="14.00">description</text>
</g>
<!-- source -->
<g id="node8" class="node">
<title>source</title>
<ellipse fill="none" stroke="blue" cx="838.19" cy="-18" rx="56.59" ry="18"/>
<text text-anchor="middle" x="838.19" y="-14.3" font-family="Times,serif" font-size="14.00">label type</text>
</g>
<!-- coding sequence&#45;&gt;source -->
<g id="edge7" class="edge">
<title>coding sequence&#45;&gt;source</title>
<path fill="none" stroke="blue" d="M792.97,-87.99C800.91,-82.71 808.99,-76.3 815.19,-69 821,-62.17 825.64,-53.63 829.19,-45.55"/>
<polygon fill="blue" stroke="blue" points="832.52,-46.65 832.98,-36.07 826.02,-44.05 832.52,-46.65"/>
<text text-anchor="middle" x="849.19" y="-57.8" font-family="Times,serif" font-size="14.00">source</text>
</g>
<!-- provided by -->
<g id="node9" class="node">
<title>provided by</title>
<ellipse fill="none" stroke="blue" cx="950.19" cy="-18" rx="37.09" ry="18"/>
<text text-anchor="middle" x="950.19" y="-14.3" font-family="Times,serif" font-size="14.00">agent</text>
</g>
<!-- coding sequence&#45;&gt;provided by -->
<g id="edge8" class="edge">
<title>coding sequence&#45;&gt;provided by</title>
<path fill="none" stroke="blue" d="M817.82,-90.87C837.07,-85.3 858.54,-77.99 877.19,-69 893.54,-61.12 910.34,-49.87 923.7,-40.03"/>
<polygon fill="blue" stroke="blue" points="926.06,-42.63 931.94,-33.82 921.85,-37.04 926.06,-42.63"/>
<text text-anchor="middle" x="945.69" y="-57.8" font-family="Times,serif" font-size="14.00">provided by</text>
</g>
<!-- has attribute -->
<g id="node10" class="node">
<title>has attribute</title>
<ellipse fill="none" stroke="blue" cx="1057.19" cy="-18" rx="51.99" ry="18"/>
<text text-anchor="middle" x="1057.19" y="-14.3" font-family="Times,serif" font-size="14.00">attribute</text>
</g>
<!-- coding sequence&#45;&gt;has attribute -->
<g id="edge9" class="edge">
<title>coding sequence&#45;&gt;has attribute</title>
<path fill="none" stroke="blue" d="M826.39,-92.43C837.32,-90.54 848.57,-88.66 859.19,-87 918.13,-77.8 937.14,-91.96 992.19,-69 1007.35,-62.68 1022.05,-51.9 1033.62,-41.96"/>
<polygon fill="blue" stroke="blue" points="1035.98,-44.56 1041.1,-35.29 1031.31,-39.33 1035.98,-44.56"/>
<text text-anchor="middle" x="1065.19" y="-57.8" font-family="Times,serif" font-size="14.00">has attribute</text>
</g>
<!-- category -->
<g id="node11" class="node">
<title>category</title>
<ellipse fill="none" stroke="black" cx="1178.19" cy="-18" rx="51.19" ry="18"/>
<text text-anchor="middle" x="1178.19" y="-14.3" font-family="Times,serif" font-size="14.00">category</text>
</g>
<!-- coding sequence&#45;&gt;category -->
<g id="edge10" class="edge">
<title>coding sequence&#45;&gt;category</title>
<path fill="none" stroke="blue" d="M824.76,-92.11C836.18,-90.18 848.02,-88.38 859.19,-87 916.01,-80 1062.91,-89.93 1116.19,-69 1130.9,-63.22 1144.83,-52.64 1155.75,-42.7"/>
<polygon fill="blue" stroke="blue" points="1158.32,-45.08 1163.13,-35.64 1153.48,-40.02 1158.32,-45.08"/>
<text text-anchor="middle" x="1172.69" y="-57.8" font-family="Times,serif" font-size="14.00">category</text>
</g>
<!-- in taxon -->
<g id="node13" class="node">
<title>in taxon</title>
<ellipse fill="none" stroke="blue" cx="1320.19" cy="-18" rx="72.59" ry="18"/>
<text text-anchor="middle" x="1320.19" y="-14.3" font-family="Times,serif" font-size="14.00">system taxon</text>
</g>
<!-- coding sequence&#45;&gt;in taxon -->
<g id="edge11" class="edge">
<title>coding sequence&#45;&gt;in taxon</title>
<path fill="none" stroke="blue" d="M824.23,-92.03C835.8,-90.09 847.84,-88.29 859.19,-87 1013.51,-69.43 1057.17,-105.27 1208.19,-69 1234.53,-62.68 1262.34,-50.29 1283.66,-39.44"/>
<polygon fill="blue" stroke="blue" points="1285.42,-42.46 1292.67,-34.74 1282.19,-36.26 1285.42,-42.46"/>
<text text-anchor="middle" x="1279.19" y="-57.8" font-family="Times,serif" font-size="14.00">in taxon</text>
</g>
<!-- has computational sequence -->
<g id="node14" class="node">
<title>has computational sequence</title>
<ellipse fill="none" stroke="blue" cx="1534.19" cy="-18" rx="123.48" ry="18"/>
<text text-anchor="middle" x="1534.19" y="-14.3" font-family="Times,serif" font-size="14.00">computational sequence</text>
</g>
<!-- coding sequence&#45;&gt;has computational sequence -->
<g id="edge12" class="edge">
<title>coding sequence&#45;&gt;has computational sequence</title>
<path fill="none" stroke="blue" d="M823.96,-91.96C835.61,-90.01 847.75,-88.23 859.19,-87 1059.52,-65.38 1112.42,-95.24 1312.19,-69 1365.91,-61.94 1425.77,-48.1 1469.79,-36.77"/>
<polygon fill="blue" stroke="blue" points="1470.7,-40.15 1479.5,-34.24 1468.94,-33.37 1470.7,-40.15"/>
<text text-anchor="middle" x="1494.69" y="-57.8" font-family="Times,serif" font-size="14.00">has computational sequence</text>
</g>
<!-- named thing_category -->
<g id="node12" class="node">
<title>named thing_category</title>
<ellipse fill="none" stroke="blue" cx="938.19" cy="-105" rx="69.59" ry="18"/>
<text text-anchor="middle" x="938.19" y="-101.3" font-family="Times,serif" font-size="14.00">named thing</text>
</g>
</g>
</svg>
