<?xml version="1.0" encoding="UTF-8" standalone="no"?>
<!DOCTYPE svg PUBLIC "-//W3C//DTD SVG 1.1//EN"
 "http://www.w3.org/Graphics/SVG/1.1/DTD/svg11.dtd">
<!-- Generated by graphviz version 2.43.0 (0)
 -->
<!-- Title: %3 Pages: 1 -->
<svg width="1998pt" height="131pt"
 viewBox="0.00 0.00 1997.68 131.00" xmlns="http://www.w3.org/2000/svg" xmlns:xlink="http://www.w3.org/1999/xlink">
<g id="graph0" class="graph" transform="scale(1 1) rotate(0) translate(4 127)">
<title>%3</title>
<polygon fill="white" stroke="transparent" points="-4,4 -4,-127 1993.68,-127 1993.68,4 -4,4"/>
<!-- computational process -->
<g id="node1" class="node">
<title>computational process</title>
<ellipse fill="none" stroke="black" cx="1057.74" cy="-105" rx="115.88" ry="18"/>
<text text-anchor="middle" x="1057.74" y="-101.3" font-family="Times,serif" font-size="14.00">computational process</text>
</g>
<!-- computational process or activity -->
<g id="node2" class="node">
<title>computational process or activity</title>
<ellipse fill="none" stroke="black" cx="165.74" cy="-18" rx="165.97" ry="18"/>
<text text-anchor="middle" x="165.74" y="-14.3" font-family="Times,serif" font-size="14.00">computational process or activity</text>
</g>
<!-- computational process&#45;&gt;computational process or activity -->
<g id="edge1" class="edge">
<title>computational process&#45;&gt;computational process or activity</title>
<path fill="none" stroke="black" d="M946.88,-99.73C834.87,-94.77 656.96,-85.14 503.74,-69 421.25,-60.31 328.04,-46.2 260.42,-35.18"/>
<polygon fill="black" stroke="black" points="260.65,-31.67 250.22,-33.51 259.52,-38.58 260.65,-31.67"/>
<text text-anchor="middle" x="517.74" y="-57.8" font-family="Times,serif" font-size="14.00">is_a</text>
</g>
<!-- occurrent -->
<g id="node3" class="node">
<title>occurrent</title>
<ellipse fill="none" stroke="black" cx="405.74" cy="-18" rx="55.79" ry="18"/>
<text text-anchor="middle" x="405.74" y="-14.3" font-family="Times,serif" font-size="14.00">occurrent</text>
</g>
<!-- computational process&#45;&gt;occurrent -->
<g id="edge2" class="edge">
<title>computational process&#45;&gt;occurrent</title>
<path fill="none" stroke="black" d="M945.74,-100.23C854.34,-95.97 722.09,-87.1 607.74,-69 554.83,-60.62 495.44,-45.18 454.83,-33.66"/>
<polygon fill="black" stroke="black" points="455.76,-30.29 445.18,-30.9 453.83,-37.02 455.76,-30.29"/>
<text text-anchor="middle" x="624.24" y="-57.8" font-family="Times,serif" font-size="14.00">uses</text>
</g>
<!-- id -->
<g id="node4" class="node">
<title>id</title>
<ellipse fill="none" stroke="blue" cx="517.74" cy="-18" rx="38.19" ry="18"/>
<text text-anchor="middle" x="517.74" y="-14.3" font-family="Times,serif" font-size="14.00">string</text>
</g>
<!-- computational process&#45;&gt;id -->
<g id="edge3" class="edge">
<title>computational process&#45;&gt;id</title>
<path fill="none" stroke="blue" d="M951.95,-97.56C851.18,-89.52 695.98,-72.14 565.74,-36 562.63,-35.14 559.43,-34.17 556.23,-33.16"/>
<polygon fill="blue" stroke="blue" points="557.31,-29.83 546.72,-30 555.1,-36.47 557.31,-29.83"/>
<text text-anchor="middle" x="719.74" y="-57.8" font-family="Times,serif" font-size="14.00">id</text>
</g>
<!-- iri -->
<g id="node5" class="node">
<title>iri</title>
<ellipse fill="none" stroke="blue" cx="618.74" cy="-18" rx="44.39" ry="18"/>
<text text-anchor="middle" x="618.74" y="-14.3" font-family="Times,serif" font-size="14.00">iri type</text>
</g>
<!-- computational process&#45;&gt;iri -->
<g id="edge4" class="edge">
<title>computational process&#45;&gt;iri</title>
<path fill="none" stroke="blue" d="M971.09,-93.05C925.34,-86.84 868.34,-78.43 817.74,-69 752.76,-56.89 736.53,-53.27 672.74,-36 669.16,-35.03 665.46,-33.98 661.76,-32.89"/>
<polygon fill="blue" stroke="blue" points="662.61,-29.49 652.03,-29.95 660.58,-36.19 662.61,-29.49"/>
<text text-anchor="middle" x="825.74" y="-57.8" font-family="Times,serif" font-size="14.00">iri</text>
</g>
<!-- type -->
<g id="node6" class="node">
<title>type</title>
<ellipse fill="none" stroke="blue" cx="719.74" cy="-18" rx="38.19" ry="18"/>
<text text-anchor="middle" x="719.74" y="-14.3" font-family="Times,serif" font-size="14.00">string</text>
</g>
<!-- computational process&#45;&gt;type -->
<g id="edge5" class="edge">
<title>computational process&#45;&gt;type</title>
<path fill="none" stroke="blue" d="M988.24,-90.55C928.83,-78.39 841.38,-58.91 766.74,-36 763.97,-35.15 761.14,-34.24 758.29,-33.29"/>
<polygon fill="blue" stroke="blue" points="759.26,-29.92 748.67,-29.97 756.98,-36.54 759.26,-29.92"/>
<text text-anchor="middle" x="901.74" y="-57.8" font-family="Times,serif" font-size="14.00">type</text>
</g>
<!-- name -->
<g id="node7" class="node">
<title>name</title>
<ellipse fill="none" stroke="blue" cx="832.74" cy="-18" rx="56.59" ry="18"/>
<text text-anchor="middle" x="832.74" y="-14.3" font-family="Times,serif" font-size="14.00">label type</text>
</g>
<!-- computational process&#45;&gt;name -->
<g id="edge6" class="edge">
<title>computational process&#45;&gt;name</title>
<path fill="none" stroke="blue" d="M1015.94,-88.21C976.49,-73.31 917.54,-51.04 877.23,-35.81"/>
<polygon fill="blue" stroke="blue" points="878.25,-32.45 867.66,-32.19 875.78,-39 878.25,-32.45"/>
<text text-anchor="middle" x="978.74" y="-57.8" font-family="Times,serif" font-size="14.00">name</text>
</g>
<!-- description -->
<g id="node8" class="node">
<title>description</title>
<ellipse fill="none" stroke="blue" cx="982.74" cy="-18" rx="75.29" ry="18"/>
<text text-anchor="middle" x="982.74" y="-14.3" font-family="Times,serif" font-size="14.00">narrative text</text>
</g>
<!-- computational process&#45;&gt;description -->
<g id="edge7" class="edge">
<title>computational process&#45;&gt;description</title>
<path fill="none" stroke="blue" d="M1042.56,-86.8C1031.61,-74.39 1016.67,-57.46 1004.46,-43.62"/>
<polygon fill="blue" stroke="blue" points="1006.87,-41.07 997.63,-35.89 1001.63,-45.7 1006.87,-41.07"/>
<text text-anchor="middle" x="1065.24" y="-57.8" font-family="Times,serif" font-size="14.00">description</text>
</g>
<!-- source -->
<g id="node9" class="node">
<title>source</title>
<ellipse fill="none" stroke="blue" cx="1132.74" cy="-18" rx="56.59" ry="18"/>
<text text-anchor="middle" x="1132.74" y="-14.3" font-family="Times,serif" font-size="14.00">label type</text>
</g>
<!-- computational process&#45;&gt;source -->
<g id="edge8" class="edge">
<title>computational process&#45;&gt;source</title>
<path fill="none" stroke="blue" d="M1088.05,-87.63C1095.81,-82.42 1103.67,-76.13 1109.74,-69 1115.54,-62.17 1120.19,-53.63 1123.73,-45.55"/>
<polygon fill="blue" stroke="blue" points="1127.06,-46.65 1127.53,-36.07 1120.56,-44.05 1127.06,-46.65"/>
<text text-anchor="middle" x="1143.74" y="-57.8" font-family="Times,serif" font-size="14.00">source</text>
</g>
<!-- provided by -->
<g id="node10" class="node">
<title>provided by</title>
<ellipse fill="none" stroke="blue" cx="1244.74" cy="-18" rx="37.09" ry="18"/>
<text text-anchor="middle" x="1244.74" y="-14.3" font-family="Times,serif" font-size="14.00">agent</text>
</g>
<!-- computational process&#45;&gt;provided by -->
<g id="edge9" class="edge">
<title>computational process&#45;&gt;provided by</title>
<path fill="none" stroke="blue" d="M1117.02,-89.5C1135.03,-84.12 1154.58,-77.27 1171.74,-69 1188.08,-61.12 1204.88,-49.87 1218.24,-40.03"/>
<polygon fill="blue" stroke="blue" points="1220.6,-42.63 1226.49,-33.82 1216.39,-37.04 1220.6,-42.63"/>
<text text-anchor="middle" x="1240.24" y="-57.8" font-family="Times,serif" font-size="14.00">provided by</text>
</g>
<!-- has attribute -->
<g id="node11" class="node">
<title>has attribute</title>
<ellipse fill="none" stroke="blue" cx="1351.74" cy="-18" rx="51.99" ry="18"/>
<text text-anchor="middle" x="1351.74" y="-14.3" font-family="Times,serif" font-size="14.00">attribute</text>
</g>
<!-- computational process&#45;&gt;has attribute -->
<g id="edge10" class="edge">
<title>computational process&#45;&gt;has attribute</title>
<path fill="none" stroke="blue" d="M1140.38,-92.36C1203.14,-83.35 1279.84,-71.95 1286.74,-69 1301.84,-62.55 1316.53,-51.76 1328.12,-41.85"/>
<polygon fill="blue" stroke="blue" points="1330.46,-44.45 1335.61,-35.19 1325.81,-39.22 1330.46,-44.45"/>
<text text-anchor="middle" x="1359.74" y="-57.8" font-family="Times,serif" font-size="14.00">has attribute</text>
</g>
<!-- category -->
<g id="node12" class="node">
<title>category</title>
<ellipse fill="none" stroke="black" cx="1472.74" cy="-18" rx="51.19" ry="18"/>
<text text-anchor="middle" x="1472.74" y="-14.3" font-family="Times,serif" font-size="14.00">category</text>
</g>
<!-- computational process&#45;&gt;category -->
<g id="edge11" class="edge">
<title>computational process&#45;&gt;category</title>
<path fill="none" stroke="blue" d="M1139.03,-92.17C1153.25,-90.3 1167.91,-88.49 1181.74,-87 1232.49,-81.53 1363.3,-87.87 1410.74,-69 1425.42,-63.16 1439.34,-52.57 1450.27,-42.64"/>
<polygon fill="blue" stroke="blue" points="1452.83,-45.03 1457.66,-35.6 1448,-39.96 1452.83,-45.03"/>
<text text-anchor="middle" x="1467.24" y="-57.8" font-family="Times,serif" font-size="14.00">category</text>
</g>
<!-- has input -->
<g id="node14" class="node">
<title>has input</title>
<ellipse fill="none" stroke="blue" cx="1611.74" cy="-18" rx="69.59" ry="18"/>
<text text-anchor="middle" x="1611.74" y="-14.3" font-family="Times,serif" font-size="14.00">named thing</text>
</g>
<!-- computational process&#45;&gt;has input -->
<g id="edge12" class="edge">
<title>computational process&#45;&gt;has input</title>
<path fill="none" stroke="blue" d="M1138.33,-92C1152.76,-90.12 1167.68,-88.36 1181.74,-87 1323.97,-73.28 1364.04,-103.39 1502.74,-69 1528.32,-62.66 1555.26,-50.36 1575.95,-39.55"/>
<polygon fill="blue" stroke="blue" points="1577.83,-42.51 1585,-34.71 1574.53,-36.34 1577.83,-42.51"/>
<text text-anchor="middle" x="1577.24" y="-57.8" font-family="Times,serif" font-size="14.00">has input</text>
</g>
<!-- has output -->
<g id="node15" class="node">
<title>has output</title>
<ellipse fill="none" stroke="blue" cx="1768.74" cy="-18" rx="69.59" ry="18"/>
<text text-anchor="middle" x="1768.74" y="-14.3" font-family="Times,serif" font-size="14.00">named thing</text>
</g>
<!-- computational process&#45;&gt;has output -->
<g id="edge13" class="edge">
<title>computational process&#45;&gt;has output</title>
<path fill="none" stroke="blue" d="M1137.65,-91.91C1152.29,-90.02 1167.45,-88.27 1181.74,-87 1373.59,-69.9 1425.16,-103.06 1614.74,-69 1652.43,-62.23 1693.63,-48.5 1723.92,-37.14"/>
<polygon fill="blue" stroke="blue" points="1725.25,-40.38 1733.35,-33.55 1722.76,-33.84 1725.25,-40.38"/>
<text text-anchor="middle" x="1710.24" y="-57.8" font-family="Times,serif" font-size="14.00">has output</text>
</g>
<!-- enabled by -->
<g id="node16" class="node">
<title>enabled by</title>
<ellipse fill="none" stroke="blue" cx="1922.74" cy="-18" rx="66.89" ry="18"/>
<text text-anchor="middle" x="1922.74" y="-14.3" font-family="Times,serif" font-size="14.00">cyber entity</text>
</g>
<!-- computational process&#45;&gt;enabled by -->
<g id="edge14" class="edge">
<title>computational process&#45;&gt;enabled by</title>
<path fill="none" stroke="blue" d="M1136.98,-91.88C1151.82,-89.97 1167.23,-88.22 1181.74,-87 1434.75,-65.73 1502.03,-109.15 1752.74,-69 1795.17,-62.2 1841.92,-47.93 1875.64,-36.37"/>
<polygon fill="blue" stroke="blue" points="1876.93,-39.63 1885.23,-33.04 1874.63,-33.02 1876.93,-39.63"/>
<text text-anchor="middle" x="1859.24" y="-57.8" font-family="Times,serif" font-size="14.00">enabled by</text>
</g>
<!-- named thing_category -->
<g id="node13" class="node">
<title>named thing_category</title>
<ellipse fill="none" stroke="blue" cx="1260.74" cy="-105" rx="69.59" ry="18"/>
<text text-anchor="middle" x="1260.74" y="-101.3" font-family="Times,serif" font-size="14.00">named thing</text>
</g>
</g>
</svg>
