<?xml version="1.0" encoding="UTF-8" standalone="no"?>
<!DOCTYPE svg PUBLIC "-//W3C//DTD SVG 1.1//EN"
 "http://www.w3.org/Graphics/SVG/1.1/DTD/svg11.dtd">
<!-- Generated by graphviz version 2.43.0 (0)
 -->
<!-- Title: %3 Pages: 1 -->
<svg width="2348pt" height="291pt"
 viewBox="0.00 0.00 2347.83 291.00" xmlns="http://www.w3.org/2000/svg" xmlns:xlink="http://www.w3.org/1999/xlink">
<g id="graph0" class="graph" transform="scale(1 1) rotate(0) translate(4 287)">
<title>%3</title>
<polygon fill="white" stroke="transparent" points="-4,4 -4,-287 2343.83,-287 2343.83,4 -4,4"/>
<!-- componentservice regulatory relationship -->
<g id="node1" class="node">
<title>componentservice regulatory relationship</title>
<ellipse fill="none" stroke="black" cx="1029.39" cy="-265" rx="205.26" ry="18"/>
<text text-anchor="middle" x="1029.39" y="-261.3" font-family="Times,serif" font-size="14.00">componentservice regulatory relationship</text>
</g>
<!-- association -->
<g id="node2" class="node">
<title>association</title>
<ellipse fill="none" stroke="black" cx="62.39" cy="-178" rx="62.29" ry="18"/>
<text text-anchor="middle" x="62.39" y="-174.3" font-family="Times,serif" font-size="14.00">association</text>
</g>
<!-- componentservice regulatory relationship&#45;&gt;association -->
<g id="edge1" class="edge">
<title>componentservice regulatory relationship&#45;&gt;association</title>
<path fill="none" stroke="black" d="M834.38,-259.25C646,-253.9 374.25,-243.94 269.39,-229 215.52,-221.32 155.16,-205.94 113.59,-194.26"/>
<polygon fill="black" stroke="black" points="114.54,-190.89 103.96,-191.52 112.63,-197.62 114.54,-190.89"/>
<text text-anchor="middle" x="283.39" y="-217.8" font-family="Times,serif" font-size="14.00">is_a</text>
</g>
<!-- id -->
<g id="node3" class="node">
<title>id</title>
<ellipse fill="none" stroke="blue" cx="181.39" cy="-178" rx="38.19" ry="18"/>
<text text-anchor="middle" x="181.39" y="-174.3" font-family="Times,serif" font-size="14.00">string</text>
</g>
<!-- componentservice regulatory relationship&#45;&gt;id -->
<g id="edge2" class="edge">
<title>componentservice regulatory relationship&#45;&gt;id</title>
<path fill="none" stroke="blue" d="M830.1,-260.63C703.69,-256.64 536.95,-247.93 390.39,-229 317.95,-219.64 299.77,-215.57 229.39,-196 226.29,-195.14 223.09,-194.17 219.89,-193.15"/>
<polygon fill="blue" stroke="blue" points="220.97,-189.83 210.38,-189.99 218.76,-196.47 220.97,-189.83"/>
<text text-anchor="middle" x="397.39" y="-217.8" font-family="Times,serif" font-size="14.00">id</text>
</g>
<!-- iri -->
<g id="node4" class="node">
<title>iri</title>
<ellipse fill="none" stroke="blue" cx="282.39" cy="-178" rx="44.39" ry="18"/>
<text text-anchor="middle" x="282.39" y="-174.3" font-family="Times,serif" font-size="14.00">iri type</text>
</g>
<!-- componentservice regulatory relationship&#45;&gt;iri -->
<g id="edge3" class="edge">
<title>componentservice regulatory relationship&#45;&gt;iri</title>
<path fill="none" stroke="blue" d="M839.24,-258.19C736.23,-253.39 606.94,-244.69 492.39,-229 421.75,-219.32 404.32,-214.25 335.39,-196 332.02,-195.11 328.55,-194.13 325.07,-193.11"/>
<polygon fill="blue" stroke="blue" points="325.9,-189.7 315.32,-190.14 323.87,-196.4 325.9,-189.7"/>
<text text-anchor="middle" x="500.39" y="-217.8" font-family="Times,serif" font-size="14.00">iri</text>
</g>
<!-- name -->
<g id="node5" class="node">
<title>name</title>
<ellipse fill="none" stroke="blue" cx="401.39" cy="-178" rx="56.59" ry="18"/>
<text text-anchor="middle" x="401.39" y="-174.3" font-family="Times,serif" font-size="14.00">label type</text>
</g>
<!-- componentservice regulatory relationship&#45;&gt;name -->
<g id="edge4" class="edge">
<title>componentservice regulatory relationship&#45;&gt;name</title>
<path fill="none" stroke="blue" d="M839.57,-258.08C757.53,-253.28 660.73,-244.63 574.39,-229 530.57,-221.07 481.96,-206.48 447.45,-195.11"/>
<polygon fill="blue" stroke="blue" points="448.26,-191.68 437.66,-191.84 446.04,-198.32 448.26,-191.68"/>
<text text-anchor="middle" x="594.39" y="-217.8" font-family="Times,serif" font-size="14.00">name</text>
</g>
<!-- description -->
<g id="node6" class="node">
<title>description</title>
<ellipse fill="none" stroke="blue" cx="551.39" cy="-178" rx="75.29" ry="18"/>
<text text-anchor="middle" x="551.39" y="-174.3" font-family="Times,serif" font-size="14.00">narrative text</text>
</g>
<!-- componentservice regulatory relationship&#45;&gt;description -->
<g id="edge5" class="edge">
<title>componentservice regulatory relationship&#45;&gt;description</title>
<path fill="none" stroke="blue" d="M836.35,-258.81C777.78,-253.8 713.77,-244.82 656.39,-229 632.2,-222.33 606.74,-210.35 586.95,-199.78"/>
<polygon fill="blue" stroke="blue" points="588.46,-196.62 578.01,-194.9 585.11,-202.76 588.46,-196.62"/>
<text text-anchor="middle" x="696.89" y="-217.8" font-family="Times,serif" font-size="14.00">description</text>
</g>
<!-- source -->
<g id="node7" class="node">
<title>source</title>
<ellipse fill="none" stroke="blue" cx="701.39" cy="-178" rx="56.59" ry="18"/>
<text text-anchor="middle" x="701.39" y="-174.3" font-family="Times,serif" font-size="14.00">label type</text>
</g>
<!-- componentservice regulatory relationship&#45;&gt;source -->
<g id="edge6" class="edge">
<title>componentservice regulatory relationship&#45;&gt;source</title>
<path fill="none" stroke="blue" d="M860.04,-254.73C828.14,-249.31 795.64,-241.16 766.39,-229 751.23,-222.69 736.53,-211.92 724.96,-201.98"/>
<polygon fill="blue" stroke="blue" points="727.27,-199.35 717.48,-195.3 722.6,-204.57 727.27,-199.35"/>
<text text-anchor="middle" x="790.39" y="-217.8" font-family="Times,serif" font-size="14.00">source</text>
</g>
<!-- provided by -->
<g id="node8" class="node">
<title>provided by</title>
<ellipse fill="none" stroke="blue" cx="813.39" cy="-178" rx="37.09" ry="18"/>
<text text-anchor="middle" x="813.39" y="-174.3" font-family="Times,serif" font-size="14.00">agent</text>
</g>
<!-- componentservice regulatory relationship&#45;&gt;provided by -->
<g id="edge7" class="edge">
<title>componentservice regulatory relationship&#45;&gt;provided by</title>
<path fill="none" stroke="blue" d="M893.65,-251.45C864.2,-246.28 838.52,-239.05 827.39,-229 820.93,-223.16 817.35,-214.6 815.4,-206.2"/>
<polygon fill="blue" stroke="blue" points="818.83,-205.53 813.74,-196.24 811.93,-206.68 818.83,-205.53"/>
<text text-anchor="middle" x="869.89" y="-217.8" font-family="Times,serif" font-size="14.00">provided by</text>
</g>
<!-- has attribute -->
<g id="node9" class="node">
<title>has attribute</title>
<ellipse fill="none" stroke="blue" cx="920.39" cy="-178" rx="51.99" ry="18"/>
<text text-anchor="middle" x="920.39" y="-174.3" font-family="Times,serif" font-size="14.00">attribute</text>
</g>
<!-- componentservice regulatory relationship&#45;&gt;has attribute -->
<g id="edge8" class="edge">
<title>componentservice regulatory relationship&#45;&gt;has attribute</title>
<path fill="none" stroke="blue" d="M944.85,-248.56C935.74,-243.68 927.56,-237.31 921.39,-229 916.64,-222.6 915.17,-214.36 915.24,-206.43"/>
<polygon fill="blue" stroke="blue" points="918.73,-206.6 916.06,-196.35 911.76,-206.03 918.73,-206.6"/>
<text text-anchor="middle" x="968.39" y="-217.8" font-family="Times,serif" font-size="14.00">has attribute</text>
</g>
<!-- relation -->
<g id="node10" class="node">
<title>relation</title>
<ellipse fill="none" stroke="blue" cx="1781.39" cy="-18" rx="57.39" ry="18"/>
<text text-anchor="middle" x="1781.39" y="-14.3" font-family="Times,serif" font-size="14.00">uriorcurie</text>
</g>
<!-- componentservice regulatory relationship&#45;&gt;relation -->
<g id="edge9" class="edge">
<title>componentservice regulatory relationship&#45;&gt;relation</title>
<path fill="none" stroke="blue" d="M1024.93,-246.99C1018.56,-220.94 1008.72,-172.83 1019.39,-160 1107.83,-53.7 1545.51,-27.2 1714.58,-20.89"/>
<polygon fill="blue" stroke="blue" points="1714.74,-24.38 1724.6,-20.52 1714.48,-17.39 1714.74,-24.38"/>
<text text-anchor="middle" x="1086.39" y="-130.8" font-family="Times,serif" font-size="14.00">relation</text>
</g>
<!-- negated -->
<g id="node11" class="node">
<title>negated</title>
<ellipse fill="none" stroke="blue" cx="1075.39" cy="-178" rx="46.59" ry="18"/>
<text text-anchor="middle" x="1075.39" y="-174.3" font-family="Times,serif" font-size="14.00">boolean</text>
</g>
<!-- componentservice regulatory relationship&#45;&gt;negated -->
<g id="edge10" class="edge">
<title>componentservice regulatory relationship&#45;&gt;negated</title>
<path fill="none" stroke="blue" d="M1038.7,-246.8C1045.23,-234.74 1054.07,-218.4 1061.44,-204.79"/>
<polygon fill="blue" stroke="blue" points="1064.58,-206.35 1066.26,-195.89 1058.42,-203.01 1064.58,-206.35"/>
<text text-anchor="middle" x="1084.39" y="-217.8" font-family="Times,serif" font-size="14.00">negated</text>
</g>
<!-- qualifiers -->
<g id="node12" class="node">
<title>qualifiers</title>
<ellipse fill="none" stroke="blue" cx="1216.39" cy="-178" rx="76.89" ry="18"/>
<text text-anchor="middle" x="1216.39" y="-174.3" font-family="Times,serif" font-size="14.00">ontology class</text>
</g>
<!-- componentservice regulatory relationship&#45;&gt;qualifiers -->
<g id="edge11" class="edge">
<title>componentservice regulatory relationship&#45;&gt;qualifiers</title>
<path fill="none" stroke="blue" d="M1073.58,-247.32C1087.69,-241.75 1103.3,-235.35 1117.39,-229 1137.58,-219.91 1159.6,-208.9 1177.74,-199.53"/>
<polygon fill="blue" stroke="blue" points="1179.58,-202.52 1186.84,-194.8 1176.35,-196.31 1179.58,-202.52"/>
<text text-anchor="middle" x="1181.89" y="-217.8" font-family="Times,serif" font-size="14.00">qualifiers</text>
</g>
<!-- publications -->
<g id="node13" class="node">
<title>publications</title>
<ellipse fill="none" stroke="blue" cx="1373.39" cy="-178" rx="62.29" ry="18"/>
<text text-anchor="middle" x="1373.39" y="-174.3" font-family="Times,serif" font-size="14.00">publication</text>
</g>
<!-- componentservice regulatory relationship&#45;&gt;publications -->
<g id="edge12" class="edge">
<title>componentservice regulatory relationship&#45;&gt;publications</title>
<path fill="none" stroke="blue" d="M1124.64,-248.99C1155.1,-243.52 1188.83,-236.74 1219.39,-229 1256.03,-219.72 1296.66,-206.4 1326.99,-195.84"/>
<polygon fill="blue" stroke="blue" points="1328.18,-199.13 1336.45,-192.51 1325.86,-192.52 1328.18,-199.13"/>
<text text-anchor="middle" x="1315.39" y="-217.8" font-family="Times,serif" font-size="14.00">publications</text>
</g>
<!-- type -->
<g id="node14" class="node">
<title>type</title>
<ellipse fill="none" stroke="black" cx="1485.39" cy="-178" rx="31.4" ry="18"/>
<text text-anchor="middle" x="1485.39" y="-174.3" font-family="Times,serif" font-size="14.00">type</text>
</g>
<!-- componentservice regulatory relationship&#45;&gt;type -->
<g id="edge13" class="edge">
<title>componentservice regulatory relationship&#45;&gt;type</title>
<path fill="none" stroke="blue" d="M1178.01,-252.54C1250.15,-246.14 1328.61,-237.72 1363.39,-229 1395.15,-221.04 1429.5,-206.37 1453.63,-194.97"/>
<polygon fill="blue" stroke="blue" points="1455.18,-198.11 1462.68,-190.63 1452.15,-191.8 1455.18,-198.11"/>
<text text-anchor="middle" x="1424.39" y="-217.8" font-family="Times,serif" font-size="14.00">type</text>
</g>
<!-- category -->
<g id="node16" class="node">
<title>category</title>
<ellipse fill="none" stroke="black" cx="1586.39" cy="-178" rx="51.19" ry="18"/>
<text text-anchor="middle" x="1586.39" y="-174.3" font-family="Times,serif" font-size="14.00">category</text>
</g>
<!-- componentservice regulatory relationship&#45;&gt;category -->
<g id="edge14" class="edge">
<title>componentservice regulatory relationship&#45;&gt;category</title>
<path fill="none" stroke="blue" d="M1174.17,-252.22C1291.2,-242.63 1437.65,-230.45 1444.39,-229 1479.6,-221.45 1518.03,-207.54 1546.03,-196.31"/>
<polygon fill="blue" stroke="blue" points="1547.53,-199.48 1555.47,-192.47 1544.89,-193 1547.53,-199.48"/>
<text text-anchor="middle" x="1527.89" y="-217.8" font-family="Times,serif" font-size="14.00">category</text>
</g>
<!-- predicate -->
<g id="node18" class="node">
<title>predicate</title>
<ellipse fill="none" stroke="black" cx="1710.39" cy="-178" rx="54.69" ry="18"/>
<text text-anchor="middle" x="1710.39" y="-174.3" font-family="Times,serif" font-size="14.00">predicate</text>
</g>
<!-- componentservice regulatory relationship&#45;&gt;predicate -->
<g id="edge15" class="edge">
<title>componentservice regulatory relationship&#45;&gt;predicate</title>
<path fill="none" stroke="blue" d="M1173.63,-252.14C1197.27,-250.33 1221.51,-248.55 1244.39,-247 1386.07,-237.4 1424,-256.11 1563.39,-229 1600.01,-221.88 1639.98,-207.85 1668.99,-196.46"/>
<polygon fill="blue" stroke="blue" points="1670.4,-199.67 1678.39,-192.71 1667.8,-193.17 1670.4,-199.67"/>
<text text-anchor="middle" x="1651.39" y="-217.8" font-family="Times,serif" font-size="14.00">predicate</text>
</g>
<!-- subject -->
<g id="node20" class="node">
<title>subject</title>
<ellipse fill="none" stroke="black" cx="1827.39" cy="-178" rx="44.39" ry="18"/>
<text text-anchor="middle" x="1827.39" y="-174.3" font-family="Times,serif" font-size="14.00">subject</text>
</g>
<!-- componentservice regulatory relationship&#45;&gt;subject -->
<g id="edge16" class="edge">
<title>componentservice regulatory relationship&#45;&gt;subject</title>
<path fill="none" stroke="blue" d="M1171.59,-251.98C1195.87,-250.15 1220.85,-248.41 1244.39,-247 1343.19,-241.1 1592.28,-248.08 1689.39,-229 1724.47,-222.11 1762.54,-207.76 1789.79,-196.19"/>
<polygon fill="blue" stroke="blue" points="1791.53,-199.25 1799.32,-192.07 1788.75,-192.83 1791.53,-199.25"/>
<text text-anchor="middle" x="1765.39" y="-217.8" font-family="Times,serif" font-size="14.00">subject</text>
</g>
<!-- object -->
<g id="node22" class="node">
<title>object</title>
<ellipse fill="none" stroke="black" cx="1848.39" cy="-91" rx="38.99" ry="18"/>
<text text-anchor="middle" x="1848.39" y="-87.3" font-family="Times,serif" font-size="14.00">object</text>
</g>
<!-- componentservice regulatory relationship&#45;&gt;object -->
<g id="edge17" class="edge">
<title>componentservice regulatory relationship&#45;&gt;object</title>
<path fill="none" stroke="blue" d="M1170.43,-251.91C1195.07,-250.07 1220.47,-248.34 1244.39,-247 1366.71,-240.17 1675.36,-253.52 1795.39,-229 1835.1,-220.89 1853.72,-226.51 1880.39,-196 1900.93,-172.51 1907.1,-155.03 1893.39,-127 1890.54,-121.17 1886.19,-116.02 1881.3,-111.6"/>
<polygon fill="blue" stroke="blue" points="1883.32,-108.73 1873.32,-105.25 1878.96,-114.21 1883.32,-108.73"/>
<text text-anchor="middle" x="1921.39" y="-174.3" font-family="Times,serif" font-size="14.00">object</text>
</g>
<!-- association_type -->
<g id="node15" class="node">
<title>association_type</title>
<ellipse fill="none" stroke="blue" cx="1291.39" cy="-265" rx="38.19" ry="18"/>
<text text-anchor="middle" x="1291.39" y="-261.3" font-family="Times,serif" font-size="14.00">string</text>
</g>
<!-- association_category -->
<g id="node17" class="node">
<title>association_category</title>
<ellipse fill="none" stroke="blue" cx="1410.39" cy="-265" rx="62.29" ry="18"/>
<text text-anchor="middle" x="1410.39" y="-261.3" font-family="Times,serif" font-size="14.00">association</text>
</g>
<!-- componentservice regulatory relationship_predicate -->
<g id="node19" class="node">
<title>componentservice regulatory relationship_predicate</title>
<ellipse fill="none" stroke="blue" cx="1568.39" cy="-265" rx="77.99" ry="18"/>
<text text-anchor="middle" x="1568.39" y="-261.3" font-family="Times,serif" font-size="14.00">predicate type</text>
</g>
<!-- subject&#45;&gt;relation -->
<g id="edge19" class="edge">
<title>subject&#45;&gt;relation</title>
<path fill="none" stroke="black" stroke-dasharray="1,5" d="M1819.81,-160.24C1813.89,-146.64 1805.79,-126.88 1800.39,-109 1794.14,-88.27 1789.18,-64.24 1785.9,-46.23"/>
<polygon fill="black" stroke="black" points="1789.3,-45.38 1784.12,-36.14 1782.41,-46.59 1789.3,-45.38"/>
</g>
<!-- subject&#45;&gt;object -->
<g id="edge18" class="edge">
<title>subject&#45;&gt;object</title>
<path fill="none" stroke="black" d="M1830.37,-159.77C1832.16,-150.09 1834.62,-137.8 1837.39,-127 1838.08,-124.32 1838.85,-121.53 1839.66,-118.76"/>
<polygon fill="black" stroke="black" points="1843.07,-119.57 1842.65,-108.98 1836.38,-117.52 1843.07,-119.57"/>
<text text-anchor="middle" x="1865.39" y="-130.8" font-family="Times,serif" font-size="14.00">relation</text>
</g>
<!-- componentservice regulatory relationship_subject -->
<g id="node21" class="node">
<title>componentservice regulatory relationship_subject</title>
<ellipse fill="none" stroke="blue" cx="1828.39" cy="-265" rx="164.37" ry="18"/>
<text text-anchor="middle" x="1828.39" y="-261.3" font-family="Times,serif" font-size="14.00">componentservice or servicetype</text>
</g>
<!-- object&#45;&gt;relation -->
<g id="edge20" class="edge">
<title>object&#45;&gt;relation</title>
<path fill="none" stroke="black" stroke-dasharray="1,5" d="M1833.52,-74.24C1824.92,-65.13 1813.92,-53.47 1804.24,-43.21"/>
<polygon fill="black" stroke="black" points="1806.56,-40.57 1797.16,-35.7 1801.47,-45.38 1806.56,-40.57"/>
</g>
<!-- componentservice regulatory relationship_object -->
<g id="node23" class="node">
<title>componentservice regulatory relationship_object</title>
<ellipse fill="none" stroke="blue" cx="2175.39" cy="-265" rx="164.37" ry="18"/>
<text text-anchor="middle" x="2175.39" y="-261.3" font-family="Times,serif" font-size="14.00">componentservice or servicetype</text>
</g>
</g>
</svg>
