<?xml version="1.0" encoding="UTF-8" standalone="no"?>
<!DOCTYPE svg PUBLIC "-//W3C//DTD SVG 1.1//EN"
 "http://www.w3.org/Graphics/SVG/1.1/DTD/svg11.dtd">
<!-- Generated by graphviz version 2.43.0 (0)
 -->
<!-- Title: %3 Pages: 1 -->
<svg width="3727pt" height="291pt"
 viewBox="0.00 0.00 3727.48 291.00" xmlns="http://www.w3.org/2000/svg" xmlns:xlink="http://www.w3.org/1999/xlink">
<g id="graph0" class="graph" transform="scale(1 1) rotate(0) translate(4 287)">
<title>%3</title>
<polygon fill="white" stroke="transparent" points="-4,4 -4,-287 3723.48,-287 3723.48,4 -4,4"/>
<!-- componentservice to observable feature association -->
<g id="node1" class="node">
<title>componentservice to observable feature association</title>
<ellipse fill="none" stroke="black" cx="2099.39" cy="-265" rx="252.36" ry="18"/>
<text text-anchor="middle" x="2099.39" y="-261.3" font-family="Times,serif" font-size="14.00">componentservice to observable feature association</text>
</g>
<!-- association -->
<g id="node2" class="node">
<title>association</title>
<ellipse fill="none" stroke="black" cx="62.39" cy="-178" rx="62.29" ry="18"/>
<text text-anchor="middle" x="62.39" y="-174.3" font-family="Times,serif" font-size="14.00">association</text>
</g>
<!-- componentservice to observable feature association&#45;&gt;association -->
<g id="edge1" class="edge">
<title>componentservice to observable feature association&#45;&gt;association</title>
<path fill="none" stroke="black" d="M1859.37,-259.46C1593.89,-254.03 1153.51,-243.76 774.39,-229 489.34,-217.9 415.74,-236.72 133.39,-196 127.91,-195.21 122.22,-194.19 116.56,-193.05"/>
<polygon fill="black" stroke="black" points="116.98,-189.56 106.46,-190.88 115.51,-196.4 116.98,-189.56"/>
<text text-anchor="middle" x="788.39" y="-217.8" font-family="Times,serif" font-size="14.00">is_a</text>
</g>
<!-- entity to observable feature association mixin -->
<g id="node3" class="node">
<title>entity to observable feature association mixin</title>
<ellipse fill="none" stroke="black" cx="366.39" cy="-178" rx="223.66" ry="18"/>
<text text-anchor="middle" x="366.39" y="-174.3" font-family="Times,serif" font-size="14.00">entity to observable feature association mixin</text>
</g>
<!-- componentservice to observable feature association&#45;&gt;entity to observable feature association mixin -->
<g id="edge2" class="edge">
<title>componentservice to observable feature association&#45;&gt;entity to observable feature association mixin</title>
<path fill="none" stroke="black" d="M1860.52,-259.22C1642.18,-254.14 1310.42,-244.65 1022.39,-229 850.52,-219.66 653.68,-203.99 520.82,-192.68"/>
<polygon fill="black" stroke="black" points="520.83,-189.17 510.57,-191.8 520.23,-196.14 520.83,-189.17"/>
<text text-anchor="middle" x="1038.89" y="-217.8" font-family="Times,serif" font-size="14.00">uses</text>
</g>
<!-- componentservice to entity association mixin -->
<g id="node4" class="node">
<title>componentservice to entity association mixin</title>
<ellipse fill="none" stroke="black" cx="829.39" cy="-178" rx="220.96" ry="18"/>
<text text-anchor="middle" x="829.39" y="-174.3" font-family="Times,serif" font-size="14.00">componentservice to entity association mixin</text>
</g>
<!-- componentservice to observable feature association&#45;&gt;componentservice to entity association mixin -->
<g id="edge3" class="edge">
<title>componentservice to observable feature association&#45;&gt;componentservice to entity association mixin</title>
<path fill="none" stroke="black" d="M1852.69,-261.23C1668.95,-257.54 1412.1,-248.95 1187.39,-229 1100.53,-221.29 1002.48,-207.21 930.99,-195.96"/>
<polygon fill="black" stroke="black" points="931.5,-192.5 921.08,-194.39 930.41,-199.41 931.5,-192.5"/>
<text text-anchor="middle" x="1203.89" y="-217.8" font-family="Times,serif" font-size="14.00">uses</text>
</g>
<!-- id -->
<g id="node5" class="node">
<title>id</title>
<ellipse fill="none" stroke="blue" cx="1106.39" cy="-178" rx="38.19" ry="18"/>
<text text-anchor="middle" x="1106.39" y="-174.3" font-family="Times,serif" font-size="14.00">string</text>
</g>
<!-- componentservice to observable feature association&#45;&gt;id -->
<g id="edge4" class="edge">
<title>componentservice to observable feature association&#45;&gt;id</title>
<path fill="none" stroke="blue" d="M1849.08,-262.75C1694.96,-259.52 1493.65,-250.88 1316.39,-229 1243.47,-220 1225.2,-215.65 1154.39,-196 1151.29,-195.14 1148.09,-194.17 1144.89,-193.16"/>
<polygon fill="blue" stroke="blue" points="1145.97,-189.83 1135.38,-190 1143.76,-196.47 1145.97,-189.83"/>
<text text-anchor="middle" x="1323.39" y="-217.8" font-family="Times,serif" font-size="14.00">id</text>
</g>
<!-- iri -->
<g id="node6" class="node">
<title>iri</title>
<ellipse fill="none" stroke="blue" cx="1207.39" cy="-178" rx="44.39" ry="18"/>
<text text-anchor="middle" x="1207.39" y="-174.3" font-family="Times,serif" font-size="14.00">iri type</text>
</g>
<!-- componentservice to observable feature association&#45;&gt;iri -->
<g id="edge5" class="edge">
<title>componentservice to observable feature association&#45;&gt;iri</title>
<path fill="none" stroke="blue" d="M1857.27,-259.94C1728.59,-255.64 1567.96,-246.86 1425.39,-229 1351.19,-219.7 1332.78,-214.78 1260.39,-196 1257.02,-195.12 1253.54,-194.16 1250.06,-193.14"/>
<polygon fill="blue" stroke="blue" points="1250.89,-189.74 1240.3,-190.19 1248.86,-196.44 1250.89,-189.74"/>
<text text-anchor="middle" x="1433.39" y="-217.8" font-family="Times,serif" font-size="14.00">iri</text>
</g>
<!-- name -->
<g id="node7" class="node">
<title>name</title>
<ellipse fill="none" stroke="blue" cx="1326.39" cy="-178" rx="56.59" ry="18"/>
<text text-anchor="middle" x="1326.39" y="-174.3" font-family="Times,serif" font-size="14.00">label type</text>
</g>
<!-- componentservice to observable feature association&#45;&gt;name -->
<g id="edge6" class="edge">
<title>componentservice to observable feature association&#45;&gt;name</title>
<path fill="none" stroke="blue" d="M1855.06,-260.51C1749.18,-256.15 1624.12,-247.15 1512.39,-229 1464.37,-221.2 1410.85,-206.11 1373.6,-194.54"/>
<polygon fill="blue" stroke="blue" points="1374.61,-191.19 1364.02,-191.53 1372.51,-197.87 1374.61,-191.19"/>
<text text-anchor="middle" x="1532.39" y="-217.8" font-family="Times,serif" font-size="14.00">name</text>
</g>
<!-- description -->
<g id="node8" class="node">
<title>description</title>
<ellipse fill="none" stroke="blue" cx="1476.39" cy="-178" rx="75.29" ry="18"/>
<text text-anchor="middle" x="1476.39" y="-174.3" font-family="Times,serif" font-size="14.00">narrative text</text>
</g>
<!-- componentservice to observable feature association&#45;&gt;description -->
<g id="edge7" class="edge">
<title>componentservice to observable feature association&#45;&gt;description</title>
<path fill="none" stroke="blue" d="M1885.08,-255.49C1775.61,-249.84 1654.51,-241.18 1601.39,-229 1572.03,-222.27 1540.55,-209.64 1516.52,-198.76"/>
<polygon fill="blue" stroke="blue" points="1517.92,-195.55 1507.37,-194.54 1514.99,-201.91 1517.92,-195.55"/>
<text text-anchor="middle" x="1641.89" y="-217.8" font-family="Times,serif" font-size="14.00">description</text>
</g>
<!-- source -->
<g id="node9" class="node">
<title>source</title>
<ellipse fill="none" stroke="blue" cx="1626.39" cy="-178" rx="56.59" ry="18"/>
<text text-anchor="middle" x="1626.39" y="-174.3" font-family="Times,serif" font-size="14.00">label type</text>
</g>
<!-- componentservice to observable feature association&#45;&gt;source -->
<g id="edge8" class="edge">
<title>componentservice to observable feature association&#45;&gt;source</title>
<path fill="none" stroke="blue" d="M1908.73,-253.2C1833.55,-247.51 1756.78,-239.5 1721.39,-229 1699.18,-222.41 1676.14,-210.43 1658.31,-199.84"/>
<polygon fill="blue" stroke="blue" points="1659.85,-196.69 1649.49,-194.47 1656.21,-202.67 1659.85,-196.69"/>
<text text-anchor="middle" x="1745.39" y="-217.8" font-family="Times,serif" font-size="14.00">source</text>
</g>
<!-- provided by -->
<g id="node10" class="node">
<title>provided by</title>
<ellipse fill="none" stroke="blue" cx="1738.39" cy="-178" rx="37.09" ry="18"/>
<text text-anchor="middle" x="1738.39" y="-174.3" font-family="Times,serif" font-size="14.00">agent</text>
</g>
<!-- componentservice to observable feature association&#45;&gt;provided by -->
<g id="edge9" class="edge">
<title>componentservice to observable feature association&#45;&gt;provided by</title>
<path fill="none" stroke="blue" d="M1921.15,-252.2C1869.11,-246.84 1819.92,-239.31 1796.39,-229 1782.42,-222.87 1769.32,-212.19 1759.12,-202.27"/>
<polygon fill="blue" stroke="blue" points="1761.42,-199.61 1751.92,-194.92 1756.42,-204.51 1761.42,-199.61"/>
<text text-anchor="middle" x="1838.89" y="-217.8" font-family="Times,serif" font-size="14.00">provided by</text>
</g>
<!-- has attribute -->
<g id="node11" class="node">
<title>has attribute</title>
<ellipse fill="none" stroke="blue" cx="1845.39" cy="-178" rx="51.99" ry="18"/>
<text text-anchor="middle" x="1845.39" y="-174.3" font-family="Times,serif" font-size="14.00">attribute</text>
</g>
<!-- componentservice to observable feature association&#45;&gt;has attribute -->
<g id="edge10" class="edge">
<title>componentservice to observable feature association&#45;&gt;has attribute</title>
<path fill="none" stroke="blue" d="M1972.37,-249.39C1950.8,-244.45 1929.05,-237.84 1909.39,-229 1894.8,-222.44 1880.58,-211.87 1869.25,-202.14"/>
<polygon fill="blue" stroke="blue" points="1871.35,-199.32 1861.56,-195.27 1866.69,-204.54 1871.35,-199.32"/>
<text text-anchor="middle" x="1956.39" y="-217.8" font-family="Times,serif" font-size="14.00">has attribute</text>
</g>
<!-- predicate -->
<g id="node12" class="node">
<title>predicate</title>
<ellipse fill="none" stroke="blue" cx="1993.39" cy="-178" rx="77.99" ry="18"/>
<text text-anchor="middle" x="1993.39" y="-174.3" font-family="Times,serif" font-size="14.00">predicate type</text>
</g>
<!-- componentservice to observable feature association&#45;&gt;predicate -->
<g id="edge11" class="edge">
<title>componentservice to observable feature association&#45;&gt;predicate</title>
<path fill="none" stroke="blue" d="M2044.83,-247.28C2034.9,-242.5 2025.22,-236.49 2017.39,-229 2010.69,-222.59 2005.64,-213.92 2001.94,-205.61"/>
<polygon fill="blue" stroke="blue" points="2005.13,-204.18 1998.2,-196.17 1998.63,-206.75 2005.13,-204.18"/>
<text text-anchor="middle" x="2051.39" y="-217.8" font-family="Times,serif" font-size="14.00">predicate</text>
</g>
<!-- object -->
<g id="node13" class="node">
<title>object</title>
<ellipse fill="none" stroke="blue" cx="2489.39" cy="-91" rx="69.59" ry="18"/>
<text text-anchor="middle" x="2489.39" y="-87.3" font-family="Times,serif" font-size="14.00">named thing</text>
</g>
<!-- componentservice to observable feature association&#45;&gt;object -->
<g id="edge12" class="edge">
<title>componentservice to observable feature association&#45;&gt;object</title>
<path fill="none" stroke="blue" d="M2106.43,-246.62C2117.52,-220.06 2139.35,-171.26 2154.39,-160 2194.9,-129.69 2330.05,-109.59 2415.81,-99.55"/>
<polygon fill="blue" stroke="blue" points="2416.22,-103.02 2425.75,-98.4 2415.42,-96.07 2416.22,-103.02"/>
<text text-anchor="middle" x="2176.39" y="-174.3" font-family="Times,serif" font-size="14.00">object</text>
</g>
<!-- relation -->
<g id="node14" class="node">
<title>relation</title>
<ellipse fill="none" stroke="blue" cx="2489.39" cy="-18" rx="57.39" ry="18"/>
<text text-anchor="middle" x="2489.39" y="-14.3" font-family="Times,serif" font-size="14.00">uriorcurie</text>
</g>
<!-- componentservice to observable feature association&#45;&gt;relation -->
<g id="edge13" class="edge">
<title>componentservice to observable feature association&#45;&gt;relation</title>
<path fill="none" stroke="blue" d="M2098.59,-246.75C2098.24,-218.01 2101.83,-160.22 2133.39,-127 2209.33,-47.07 2342.28,-25.71 2422.45,-20.36"/>
<polygon fill="blue" stroke="blue" points="2422.67,-23.85 2432.44,-19.76 2422.25,-16.86 2422.67,-23.85"/>
<text text-anchor="middle" x="2161.39" y="-130.8" font-family="Times,serif" font-size="14.00">relation</text>
</g>
<!-- negated -->
<g id="node15" class="node">
<title>negated</title>
<ellipse fill="none" stroke="blue" cx="2254.39" cy="-178" rx="46.59" ry="18"/>
<text text-anchor="middle" x="2254.39" y="-174.3" font-family="Times,serif" font-size="14.00">boolean</text>
</g>
<!-- componentservice to observable feature association&#45;&gt;negated -->
<g id="edge14" class="edge">
<title>componentservice to observable feature association&#45;&gt;negated</title>
<path fill="none" stroke="blue" d="M2130.39,-247C2156.15,-232.88 2192.8,-212.78 2219.57,-198.1"/>
<polygon fill="blue" stroke="blue" points="2221.51,-201.03 2228.59,-193.15 2218.14,-194.89 2221.51,-201.03"/>
<text text-anchor="middle" x="2215.39" y="-217.8" font-family="Times,serif" font-size="14.00">negated</text>
</g>
<!-- qualifiers -->
<g id="node16" class="node">
<title>qualifiers</title>
<ellipse fill="none" stroke="blue" cx="2395.39" cy="-178" rx="76.89" ry="18"/>
<text text-anchor="middle" x="2395.39" y="-174.3" font-family="Times,serif" font-size="14.00">ontology class</text>
</g>
<!-- componentservice to observable feature association&#45;&gt;qualifiers -->
<g id="edge15" class="edge">
<title>componentservice to observable feature association&#45;&gt;qualifiers</title>
<path fill="none" stroke="blue" d="M2174.8,-247.79C2198.48,-242.29 2224.64,-235.81 2248.39,-229 2281.42,-219.53 2318.01,-207.09 2346.42,-196.99"/>
<polygon fill="blue" stroke="blue" points="2347.87,-200.19 2356.1,-193.53 2345.51,-193.6 2347.87,-200.19"/>
<text text-anchor="middle" x="2326.89" y="-217.8" font-family="Times,serif" font-size="14.00">qualifiers</text>
</g>
<!-- publications -->
<g id="node17" class="node">
<title>publications</title>
<ellipse fill="none" stroke="blue" cx="2552.39" cy="-178" rx="62.29" ry="18"/>
<text text-anchor="middle" x="2552.39" y="-174.3" font-family="Times,serif" font-size="14.00">publication</text>
</g>
<!-- componentservice to observable feature association&#45;&gt;publications -->
<g id="edge16" class="edge">
<title>componentservice to observable feature association&#45;&gt;publications</title>
<path fill="none" stroke="blue" d="M2233.4,-249.7C2275.51,-244.3 2322.06,-237.39 2364.39,-229 2411.38,-219.69 2464.01,-205.35 2501.6,-194.41"/>
<polygon fill="blue" stroke="blue" points="2502.7,-197.74 2511.31,-191.56 2500.73,-191.02 2502.7,-197.74"/>
<text text-anchor="middle" x="2471.39" y="-217.8" font-family="Times,serif" font-size="14.00">publications</text>
</g>
<!-- type -->
<g id="node18" class="node">
<title>type</title>
<ellipse fill="none" stroke="black" cx="2664.39" cy="-178" rx="31.4" ry="18"/>
<text text-anchor="middle" x="2664.39" y="-174.3" font-family="Times,serif" font-size="14.00">type</text>
</g>
<!-- componentservice to observable feature association&#45;&gt;type -->
<g id="edge17" class="edge">
<title>componentservice to observable feature association&#45;&gt;type</title>
<path fill="none" stroke="blue" d="M2283.74,-252.7C2374.96,-246.29 2474.89,-237.8 2519.39,-229 2558.65,-221.24 2601.79,-205.36 2630.72,-193.57"/>
<polygon fill="blue" stroke="blue" points="2632.43,-196.65 2640.33,-189.59 2629.75,-190.18 2632.43,-196.65"/>
<text text-anchor="middle" x="2588.39" y="-217.8" font-family="Times,serif" font-size="14.00">type</text>
</g>
<!-- category -->
<g id="node20" class="node">
<title>category</title>
<ellipse fill="none" stroke="black" cx="2765.39" cy="-178" rx="51.19" ry="18"/>
<text text-anchor="middle" x="2765.39" y="-174.3" font-family="Times,serif" font-size="14.00">category</text>
</g>
<!-- componentservice to observable feature association&#45;&gt;category -->
<g id="edge18" class="edge">
<title>componentservice to observable feature association&#45;&gt;category</title>
<path fill="none" stroke="blue" d="M2277.65,-252.24C2421.06,-242.7 2600.1,-230.58 2608.39,-229 2648.08,-221.43 2691.75,-207 2722.94,-195.58"/>
<polygon fill="blue" stroke="blue" points="2724.45,-198.75 2732.61,-191.99 2722.02,-192.19 2724.45,-198.75"/>
<text text-anchor="middle" x="2697.89" y="-217.8" font-family="Times,serif" font-size="14.00">category</text>
</g>
<!-- subject -->
<g id="node22" class="node">
<title>subject</title>
<ellipse fill="none" stroke="black" cx="2879.39" cy="-178" rx="44.39" ry="18"/>
<text text-anchor="middle" x="2879.39" y="-174.3" font-family="Times,serif" font-size="14.00">subject</text>
</g>
<!-- componentservice to observable feature association&#45;&gt;subject -->
<g id="edge19" class="edge">
<title>componentservice to observable feature association&#45;&gt;subject</title>
<path fill="none" stroke="blue" d="M2276.24,-252.13C2304.71,-250.33 2333.86,-248.56 2361.39,-247 2526.66,-237.64 2570.82,-260.12 2733.39,-229 2770.99,-221.8 2812.09,-207.07 2841.07,-195.45"/>
<polygon fill="blue" stroke="blue" points="2842.48,-198.66 2850.42,-191.65 2839.83,-192.18 2842.48,-198.66"/>
<text text-anchor="middle" x="2813.39" y="-217.8" font-family="Times,serif" font-size="14.00">subject</text>
</g>
<!-- frequency qualifier -->
<g id="node24" class="node">
<title>frequency qualifier</title>
<ellipse fill="none" stroke="blue" cx="3026.39" cy="-178" rx="85.29" ry="18"/>
<text text-anchor="middle" x="3026.39" y="-174.3" font-family="Times,serif" font-size="14.00">frequency value</text>
</g>
<!-- componentservice to observable feature association&#45;&gt;frequency qualifier -->
<g id="edge20" class="edge">
<title>componentservice to observable feature association&#45;&gt;frequency qualifier</title>
<path fill="none" stroke="blue" d="M2274.11,-251.99C2303.25,-250.18 2333.17,-248.44 2361.39,-247 2575.49,-236.06 2631.5,-261.46 2843.39,-229 2888.18,-222.14 2937.68,-208.21 2973.89,-196.8"/>
<polygon fill="blue" stroke="blue" points="2975.27,-200.03 2983.74,-193.65 2973.14,-193.36 2975.27,-200.03"/>
<text text-anchor="middle" x="2978.39" y="-217.8" font-family="Times,serif" font-size="14.00">frequency qualifier</text>
</g>
<!-- severity qualifier -->
<g id="node25" class="node">
<title>severity qualifier</title>
<ellipse fill="none" stroke="blue" cx="3205.39" cy="-178" rx="76.09" ry="18"/>
<text text-anchor="middle" x="3205.39" y="-174.3" font-family="Times,serif" font-size="14.00">severity value</text>
</g>
<!-- componentservice to observable feature association&#45;&gt;severity qualifier -->
<g id="edge21" class="edge">
<title>componentservice to observable feature association&#45;&gt;severity qualifier</title>
<path fill="none" stroke="blue" d="M2271.98,-251.85C2301.79,-250.02 2332.48,-248.32 2361.39,-247 2514.4,-240.04 2899.42,-254.77 3050.39,-229 3088.12,-222.56 3129.28,-208.95 3159.7,-197.56"/>
<polygon fill="blue" stroke="blue" points="3161.08,-200.78 3169.18,-193.95 3158.59,-194.24 3161.08,-200.78"/>
<text text-anchor="middle" x="3172.39" y="-217.8" font-family="Times,serif" font-size="14.00">severity qualifier</text>
</g>
<!-- onset qualifier -->
<g id="node26" class="node">
<title>onset qualifier</title>
<ellipse fill="none" stroke="blue" cx="3335.39" cy="-178" rx="36.29" ry="18"/>
<text text-anchor="middle" x="3335.39" y="-174.3" font-family="Times,serif" font-size="14.00">onset</text>
</g>
<!-- componentservice to observable feature association&#45;&gt;onset qualifier -->
<g id="edge22" class="edge">
<title>componentservice to observable feature association&#45;&gt;onset qualifier</title>
<path fill="none" stroke="blue" d="M2270.92,-251.78C2301.06,-249.94 2332.13,-248.25 2361.39,-247 2458.66,-242.85 3142.98,-252.72 3237.39,-229 3261.91,-222.84 3287.27,-209.69 3306.05,-198.42"/>
<polygon fill="blue" stroke="blue" points="3308.03,-201.3 3314.71,-193.07 3304.36,-195.35 3308.03,-201.3"/>
<text text-anchor="middle" x="3328.89" y="-217.8" font-family="Times,serif" font-size="14.00">onset qualifier</text>
</g>
<!-- architectural style qualifier -->
<g id="node27" class="node">
<title>architectural style qualifier</title>
<ellipse fill="none" stroke="blue" cx="3554.39" cy="-178" rx="165.17" ry="18"/>
<text text-anchor="middle" x="3554.39" y="-174.3" font-family="Times,serif" font-size="14.00">computational architectural style</text>
</g>
<!-- componentservice to observable feature association&#45;&gt;architectural style qualifier -->
<g id="edge23" class="edge">
<title>componentservice to observable feature association&#45;&gt;architectural style qualifier</title>
<path fill="none" stroke="blue" d="M2270.22,-251.75C2300.57,-249.9 2331.91,-248.22 2361.39,-247 2474.98,-242.32 3272.02,-246.19 3384.39,-229 3424.39,-222.88 3468.16,-209.85 3501.27,-198.63"/>
<polygon fill="blue" stroke="blue" points="3502.43,-201.93 3510.75,-195.37 3500.15,-195.31 3502.43,-201.93"/>
<text text-anchor="middle" x="3548.39" y="-217.8" font-family="Times,serif" font-size="14.00">architectural style qualifier</text>
</g>
<!-- object&#45;&gt;relation -->
<g id="edge26" class="edge">
<title>object&#45;&gt;relation</title>
<path fill="none" stroke="black" stroke-dasharray="1,5" d="M2489.39,-72.81C2489.39,-64.79 2489.39,-55.05 2489.39,-46.07"/>
<polygon fill="black" stroke="black" points="2492.89,-46.03 2489.39,-36.03 2485.89,-46.03 2492.89,-46.03"/>
</g>
<!-- association_type -->
<g id="node19" class="node">
<title>association_type</title>
<ellipse fill="none" stroke="blue" cx="2408.39" cy="-265" rx="38.19" ry="18"/>
<text text-anchor="middle" x="2408.39" y="-261.3" font-family="Times,serif" font-size="14.00">string</text>
</g>
<!-- association_category -->
<g id="node21" class="node">
<title>association_category</title>
<ellipse fill="none" stroke="blue" cx="2527.39" cy="-265" rx="62.29" ry="18"/>
<text text-anchor="middle" x="2527.39" y="-261.3" font-family="Times,serif" font-size="14.00">association</text>
</g>
<!-- subject&#45;&gt;object -->
<g id="edge24" class="edge">
<title>subject&#45;&gt;object</title>
<path fill="none" stroke="black" d="M2846.83,-165.63C2839.82,-163.5 2832.41,-161.48 2825.39,-160 2754.51,-145.05 2734.46,-156.05 2663.39,-142 2621.02,-133.62 2573.99,-119.83 2539.52,-108.85"/>
<polygon fill="black" stroke="black" points="2540.29,-105.42 2529.7,-105.69 2538.15,-112.08 2540.29,-105.42"/>
<text text-anchor="middle" x="2691.39" y="-130.8" font-family="Times,serif" font-size="14.00">relation</text>
</g>
<!-- subject&#45;&gt;relation -->
<g id="edge25" class="edge">
<title>subject&#45;&gt;relation</title>
<path fill="none" stroke="black" stroke-dasharray="1,5" d="M2849.12,-164.73C2780.38,-136.89 2612.35,-68.81 2532.67,-36.53"/>
<polygon fill="black" stroke="black" points="2533.53,-33.1 2522.95,-32.59 2530.9,-39.59 2533.53,-33.1"/>
</g>
<!-- componentservice to observable feature association_subject -->
<g id="node23" class="node">
<title>componentservice to observable feature association_subject</title>
<ellipse fill="none" stroke="blue" cx="2772.39" cy="-265" rx="164.37" ry="18"/>
<text text-anchor="middle" x="2772.39" y="-261.3" font-family="Times,serif" font-size="14.00">componentservice or servicetype</text>
</g>
</g>
</svg>
