<?xml version="1.0" encoding="UTF-8" standalone="no"?>
<!DOCTYPE svg PUBLIC "-//W3C//DTD SVG 1.1//EN"
 "http://www.w3.org/Graphics/SVG/1.1/DTD/svg11.dtd">
<!-- Generated by graphviz version 2.43.0 (0)
 -->
<!-- Title: %3 Pages: 1 -->
<svg width="1666pt" height="131pt"
 viewBox="0.00 0.00 1665.68 131.00" xmlns="http://www.w3.org/2000/svg" xmlns:xlink="http://www.w3.org/1999/xlink">
<g id="graph0" class="graph" transform="scale(1 1) rotate(0) translate(4 127)">
<title>%3</title>
<polygon fill="white" stroke="transparent" points="-4,4 -4,-127 1661.68,-127 1661.68,4 -4,4"/>
<!-- componentserviceinstance -->
<g id="node1" class="node">
<title>componentserviceinstance</title>
<ellipse fill="none" stroke="black" cx="763.19" cy="-105" rx="133.78" ry="18"/>
<text text-anchor="middle" x="763.19" y="-101.3" font-family="Times,serif" font-size="14.00">componentserviceinstance</text>
</g>
<!-- workload entity -->
<g id="node2" class="node">
<title>workload entity</title>
<ellipse fill="none" stroke="black" cx="83.19" cy="-18" rx="83.39" ry="18"/>
<text text-anchor="middle" x="83.19" y="-14.3" font-family="Times,serif" font-size="14.00">workload entity</text>
</g>
<!-- componentserviceinstance&#45;&gt;workload entity -->
<g id="edge1" class="edge">
<title>componentserviceinstance&#45;&gt;workload entity</title>
<path fill="none" stroke="black" d="M638.03,-98.55C548.58,-93.58 425.56,-84.58 318.19,-69 258.84,-60.39 192.04,-45.68 144.87,-34.44"/>
<polygon fill="black" stroke="black" points="145.65,-31.03 135.11,-32.1 144.01,-37.83 145.65,-31.03"/>
<text text-anchor="middle" x="332.19" y="-57.8" font-family="Times,serif" font-size="14.00">is_a</text>
</g>
<!-- id -->
<g id="node3" class="node">
<title>id</title>
<ellipse fill="none" stroke="blue" cx="223.19" cy="-18" rx="38.19" ry="18"/>
<text text-anchor="middle" x="223.19" y="-14.3" font-family="Times,serif" font-size="14.00">string</text>
</g>
<!-- componentserviceinstance&#45;&gt;id -->
<g id="edge2" class="edge">
<title>componentserviceinstance&#45;&gt;id</title>
<path fill="none" stroke="blue" d="M644.85,-96.53C544.06,-88.07 396.14,-70.67 271.19,-36 268.08,-35.14 264.88,-34.17 261.69,-33.16"/>
<polygon fill="blue" stroke="blue" points="262.77,-29.83 252.18,-30 260.56,-36.47 262.77,-29.83"/>
<text text-anchor="middle" x="425.19" y="-57.8" font-family="Times,serif" font-size="14.00">id</text>
</g>
<!-- iri -->
<g id="node4" class="node">
<title>iri</title>
<ellipse fill="none" stroke="blue" cx="324.19" cy="-18" rx="44.39" ry="18"/>
<text text-anchor="middle" x="324.19" y="-14.3" font-family="Times,serif" font-size="14.00">iri type</text>
</g>
<!-- componentserviceinstance&#45;&gt;iri -->
<g id="edge3" class="edge">
<title>componentserviceinstance&#45;&gt;iri</title>
<path fill="none" stroke="blue" d="M669.45,-92.08C624.99,-85.98 571.21,-77.95 523.19,-69 458.22,-56.89 441.99,-53.27 378.19,-36 374.61,-35.03 370.92,-33.98 367.22,-32.89"/>
<polygon fill="blue" stroke="blue" points="368.07,-29.49 357.48,-29.95 366.04,-36.19 368.07,-29.49"/>
<text text-anchor="middle" x="531.19" y="-57.8" font-family="Times,serif" font-size="14.00">iri</text>
</g>
<!-- type -->
<g id="node5" class="node">
<title>type</title>
<ellipse fill="none" stroke="blue" cx="425.19" cy="-18" rx="38.19" ry="18"/>
<text text-anchor="middle" x="425.19" y="-14.3" font-family="Times,serif" font-size="14.00">string</text>
</g>
<!-- componentserviceinstance&#45;&gt;type -->
<g id="edge4" class="edge">
<title>componentserviceinstance&#45;&gt;type</title>
<path fill="none" stroke="blue" d="M690.41,-89.87C631.1,-77.67 545.47,-58.49 472.19,-36 469.43,-35.15 466.59,-34.24 463.75,-33.29"/>
<polygon fill="blue" stroke="blue" points="464.72,-29.92 454.13,-29.97 462.44,-36.54 464.72,-29.92"/>
<text text-anchor="middle" x="607.19" y="-57.8" font-family="Times,serif" font-size="14.00">type</text>
</g>
<!-- name -->
<g id="node6" class="node">
<title>name</title>
<ellipse fill="none" stroke="blue" cx="538.19" cy="-18" rx="56.59" ry="18"/>
<text text-anchor="middle" x="538.19" y="-14.3" font-family="Times,serif" font-size="14.00">label type</text>
</g>
<!-- componentserviceinstance&#45;&gt;name -->
<g id="edge5" class="edge">
<title>componentserviceinstance&#45;&gt;name</title>
<path fill="none" stroke="blue" d="M720.61,-87.91C681.18,-73.02 622.77,-50.95 582.73,-35.82"/>
<polygon fill="blue" stroke="blue" points="583.81,-32.49 573.22,-32.23 581.34,-39.04 583.81,-32.49"/>
<text text-anchor="middle" x="684.19" y="-57.8" font-family="Times,serif" font-size="14.00">name</text>
</g>
<!-- description -->
<g id="node7" class="node">
<title>description</title>
<ellipse fill="none" stroke="blue" cx="688.19" cy="-18" rx="75.29" ry="18"/>
<text text-anchor="middle" x="688.19" y="-14.3" font-family="Times,serif" font-size="14.00">narrative text</text>
</g>
<!-- componentserviceinstance&#45;&gt;description -->
<g id="edge6" class="edge">
<title>componentserviceinstance&#45;&gt;description</title>
<path fill="none" stroke="blue" d="M748.02,-86.8C737.07,-74.39 722.13,-57.46 709.91,-43.62"/>
<polygon fill="blue" stroke="blue" points="712.33,-41.07 703.09,-35.89 707.08,-45.7 712.33,-41.07"/>
<text text-anchor="middle" x="770.69" y="-57.8" font-family="Times,serif" font-size="14.00">description</text>
</g>
<!-- source -->
<g id="node8" class="node">
<title>source</title>
<ellipse fill="none" stroke="blue" cx="838.19" cy="-18" rx="56.59" ry="18"/>
<text text-anchor="middle" x="838.19" y="-14.3" font-family="Times,serif" font-size="14.00">label type</text>
</g>
<!-- componentserviceinstance&#45;&gt;source -->
<g id="edge7" class="edge">
<title>componentserviceinstance&#45;&gt;source</title>
<path fill="none" stroke="blue" d="M793.78,-87.45C801.45,-82.27 809.2,-76.05 815.19,-69 821,-62.17 825.64,-53.63 829.19,-45.55"/>
<polygon fill="blue" stroke="blue" points="832.52,-46.65 832.98,-36.07 826.02,-44.05 832.52,-46.65"/>
<text text-anchor="middle" x="849.19" y="-57.8" font-family="Times,serif" font-size="14.00">source</text>
</g>
<!-- provided by -->
<g id="node9" class="node">
<title>provided by</title>
<ellipse fill="none" stroke="blue" cx="950.19" cy="-18" rx="37.09" ry="18"/>
<text text-anchor="middle" x="950.19" y="-14.3" font-family="Times,serif" font-size="14.00">agent</text>
</g>
<!-- componentserviceinstance&#45;&gt;provided by -->
<g id="edge8" class="edge">
<title>componentserviceinstance&#45;&gt;provided by</title>
<path fill="none" stroke="blue" d="M824.25,-88.96C841.76,-83.67 860.59,-77 877.19,-69 893.54,-61.12 910.34,-49.87 923.7,-40.03"/>
<polygon fill="blue" stroke="blue" points="926.06,-42.63 931.94,-33.82 921.85,-37.04 926.06,-42.63"/>
<text text-anchor="middle" x="945.69" y="-57.8" font-family="Times,serif" font-size="14.00">provided by</text>
</g>
<!-- has attribute -->
<g id="node10" class="node">
<title>has attribute</title>
<ellipse fill="none" stroke="blue" cx="1057.19" cy="-18" rx="51.99" ry="18"/>
<text text-anchor="middle" x="1057.19" y="-14.3" font-family="Times,serif" font-size="14.00">attribute</text>
</g>
<!-- componentserviceinstance&#45;&gt;has attribute -->
<g id="edge9" class="edge">
<title>componentserviceinstance&#45;&gt;has attribute</title>
<path fill="none" stroke="blue" d="M856.17,-92.02C913.88,-84.2 979.43,-74.45 992.19,-69 1007.3,-62.55 1021.99,-51.76 1033.57,-41.85"/>
<polygon fill="blue" stroke="blue" points="1035.91,-44.45 1041.06,-35.19 1031.26,-39.22 1035.91,-44.45"/>
<text text-anchor="middle" x="1065.19" y="-57.8" font-family="Times,serif" font-size="14.00">has attribute</text>
</g>
<!-- category -->
<g id="node11" class="node">
<title>category</title>
<ellipse fill="none" stroke="black" cx="1178.19" cy="-18" rx="51.19" ry="18"/>
<text text-anchor="middle" x="1178.19" y="-14.3" font-family="Times,serif" font-size="14.00">category</text>
</g>
<!-- componentserviceinstance&#45;&gt;category -->
<g id="edge10" class="edge">
<title>componentserviceinstance&#45;&gt;category</title>
<path fill="none" stroke="blue" d="M857.86,-92.21C873.65,-90.38 889.88,-88.57 905.19,-87 952.01,-82.2 1072.52,-86.54 1116.19,-69 1130.86,-63.11 1144.78,-52.52 1155.71,-42.59"/>
<polygon fill="blue" stroke="blue" points="1158.26,-44.99 1163.1,-35.56 1153.44,-39.92 1158.26,-44.99"/>
<text text-anchor="middle" x="1172.69" y="-57.8" font-family="Times,serif" font-size="14.00">category</text>
</g>
<!-- in taxon -->
<g id="node13" class="node">
<title>in taxon</title>
<ellipse fill="none" stroke="blue" cx="1320.19" cy="-18" rx="72.59" ry="18"/>
<text text-anchor="middle" x="1320.19" y="-14.3" font-family="Times,serif" font-size="14.00">system taxon</text>
</g>
<!-- componentserviceinstance&#45;&gt;in taxon -->
<g id="edge11" class="edge">
<title>componentserviceinstance&#45;&gt;in taxon</title>
<path fill="none" stroke="blue" d="M856.3,-92.05C872.58,-90.19 889.37,-88.42 905.19,-87 1039.56,-74.98 1077.14,-101.02 1208.19,-69 1234.5,-62.57 1262.31,-50.19 1283.64,-39.36"/>
<polygon fill="blue" stroke="blue" points="1285.39,-42.39 1292.66,-34.67 1282.17,-36.18 1285.39,-42.39"/>
<text text-anchor="middle" x="1279.19" y="-57.8" font-family="Times,serif" font-size="14.00">in taxon</text>
</g>
<!-- has computational sequence -->
<g id="node14" class="node">
<title>has computational sequence</title>
<ellipse fill="none" stroke="blue" cx="1534.19" cy="-18" rx="123.48" ry="18"/>
<text text-anchor="middle" x="1534.19" y="-14.3" font-family="Times,serif" font-size="14.00">computational sequence</text>
</g>
<!-- componentserviceinstance&#45;&gt;has computational sequence -->
<g id="edge12" class="edge">
<title>componentserviceinstance&#45;&gt;has computational sequence</title>
<path fill="none" stroke="blue" d="M855.52,-91.93C872.04,-90.06 889.11,-88.32 905.19,-87 1085.65,-72.23 1132.72,-92.99 1312.19,-69 1365.89,-61.82 1425.76,-47.99 1469.78,-36.69"/>
<polygon fill="blue" stroke="blue" points="1470.69,-40.07 1479.49,-34.17 1468.93,-33.29 1470.69,-40.07"/>
<text text-anchor="middle" x="1494.69" y="-57.8" font-family="Times,serif" font-size="14.00">has computational sequence</text>
</g>
<!-- named thing_category -->
<g id="node12" class="node">
<title>named thing_category</title>
<ellipse fill="none" stroke="blue" cx="984.19" cy="-105" rx="69.59" ry="18"/>
<text text-anchor="middle" x="984.19" y="-101.3" font-family="Times,serif" font-size="14.00">named thing</text>
</g>
</g>
</svg>
