<?xml version="1.0" encoding="UTF-8" standalone="no"?>
<!DOCTYPE svg PUBLIC "-//W3C//DTD SVG 1.1//EN"
 "http://www.w3.org/Graphics/SVG/1.1/DTD/svg11.dtd">
<!-- Generated by graphviz version 2.43.0 (0)
 -->
<!-- Title: %3 Pages: 1 -->
<svg width="2030pt" height="131pt"
 viewBox="0.00 0.00 2029.59 131.00" xmlns="http://www.w3.org/2000/svg" xmlns:xlink="http://www.w3.org/1999/xlink">
<g id="graph0" class="graph" transform="scale(1 1) rotate(0) translate(4 127)">
<title>%3</title>
<polygon fill="white" stroke="transparent" points="-4,4 -4,-127 2025.59,-127 2025.59,4 -4,4"/>
<!-- componentservice family -->
<g id="node1" class="node">
<title>componentservice family</title>
<ellipse fill="none" stroke="black" cx="1064.59" cy="-105" rx="126.98" ry="18"/>
<text text-anchor="middle" x="1064.59" y="-101.3" font-family="Times,serif" font-size="14.00">componentservice family</text>
</g>
<!-- operational entity -->
<g id="node2" class="node">
<title>operational entity</title>
<ellipse fill="none" stroke="black" cx="93.59" cy="-18" rx="93.68" ry="18"/>
<text text-anchor="middle" x="93.59" y="-14.3" font-family="Times,serif" font-size="14.00">operational entity</text>
</g>
<!-- componentservice family&#45;&gt;operational entity -->
<g id="edge1" class="edge">
<title>componentservice family&#45;&gt;operational entity</title>
<path fill="none" stroke="black" d="M946.28,-98.46C778.85,-89.78 463.45,-70.31 196.59,-36 188.04,-34.9 179.1,-33.62 170.23,-32.27"/>
<polygon fill="black" stroke="black" points="170.67,-28.8 160.25,-30.72 169.6,-35.71 170.67,-28.8"/>
<text text-anchor="middle" x="520.59" y="-57.8" font-family="Times,serif" font-size="14.00">is_a</text>
</g>
<!-- componentservice grouping mixin -->
<g id="node3" class="node">
<title>componentservice grouping mixin</title>
<ellipse fill="none" stroke="black" cx="374.59" cy="-18" rx="168.97" ry="18"/>
<text text-anchor="middle" x="374.59" y="-14.3" font-family="Times,serif" font-size="14.00">componentservice grouping mixin</text>
</g>
<!-- componentservice family&#45;&gt;componentservice grouping mixin -->
<g id="edge2" class="edge">
<title>componentservice family&#45;&gt;componentservice grouping mixin</title>
<path fill="none" stroke="black" d="M955.68,-95.7C880.73,-89.53 778.96,-80.25 689.59,-69 614.91,-59.6 530.73,-46.08 468.19,-35.47"/>
<polygon fill="black" stroke="black" points="468.39,-31.96 457.95,-33.73 467.22,-38.86 468.39,-31.96"/>
<text text-anchor="middle" x="706.09" y="-57.8" font-family="Times,serif" font-size="14.00">uses</text>
</g>
<!-- id -->
<g id="node4" class="node">
<title>id</title>
<ellipse fill="none" stroke="blue" cx="599.59" cy="-18" rx="38.19" ry="18"/>
<text text-anchor="middle" x="599.59" y="-14.3" font-family="Times,serif" font-size="14.00">string</text>
</g>
<!-- componentservice family&#45;&gt;id -->
<g id="edge3" class="edge">
<title>componentservice family&#45;&gt;id</title>
<path fill="none" stroke="blue" d="M963.77,-94.09C878.43,-84.15 753.46,-65.96 647.59,-36 644.49,-35.12 641.29,-34.15 638.09,-33.12"/>
<polygon fill="blue" stroke="blue" points="639.18,-29.8 628.59,-29.95 636.96,-36.44 639.18,-29.8"/>
<text text-anchor="middle" x="790.59" y="-57.8" font-family="Times,serif" font-size="14.00">id</text>
</g>
<!-- iri -->
<g id="node5" class="node">
<title>iri</title>
<ellipse fill="none" stroke="blue" cx="700.59" cy="-18" rx="44.39" ry="18"/>
<text text-anchor="middle" x="700.59" y="-14.3" font-family="Times,serif" font-size="14.00">iri type</text>
</g>
<!-- componentservice family&#45;&gt;iri -->
<g id="edge4" class="edge">
<title>componentservice family&#45;&gt;iri</title>
<path fill="none" stroke="blue" d="M987.81,-90.6C954.71,-84.52 915.64,-76.91 880.59,-69 824.12,-56.25 810.22,-52.03 754.59,-36 751.08,-34.99 747.45,-33.91 743.81,-32.81"/>
<polygon fill="blue" stroke="blue" points="744.8,-29.45 734.22,-29.86 742.75,-36.15 744.8,-29.45"/>
<text text-anchor="middle" x="888.59" y="-57.8" font-family="Times,serif" font-size="14.00">iri</text>
</g>
<!-- type -->
<g id="node6" class="node">
<title>type</title>
<ellipse fill="none" stroke="blue" cx="801.59" cy="-18" rx="38.19" ry="18"/>
<text text-anchor="middle" x="801.59" y="-14.3" font-family="Times,serif" font-size="14.00">string</text>
</g>
<!-- componentservice family&#45;&gt;type -->
<g id="edge5" class="edge">
<title>componentservice family&#45;&gt;type</title>
<path fill="none" stroke="blue" d="M1010.54,-88.62C990.13,-82.68 966.74,-75.7 945.59,-69 902.18,-55.24 891.56,-51.08 848.59,-36 845.91,-35.06 843.14,-34.08 840.35,-33.08"/>
<polygon fill="blue" stroke="blue" points="841.49,-29.78 830.89,-29.7 839.13,-36.37 841.49,-29.78"/>
<text text-anchor="middle" x="961.59" y="-57.8" font-family="Times,serif" font-size="14.00">type</text>
</g>
<!-- name -->
<g id="node7" class="node">
<title>name</title>
<ellipse fill="none" stroke="blue" cx="914.59" cy="-18" rx="56.59" ry="18"/>
<text text-anchor="middle" x="914.59" y="-14.3" font-family="Times,serif" font-size="14.00">label type</text>
</g>
<!-- componentservice family&#45;&gt;name -->
<g id="edge6" class="edge">
<title>componentservice family&#45;&gt;name</title>
<path fill="none" stroke="blue" d="M1035.31,-87.41C1010.91,-73.58 976.06,-53.83 950.07,-39.1"/>
<polygon fill="blue" stroke="blue" points="951.7,-36.01 941.28,-34.12 948.25,-42.1 951.7,-36.01"/>
<text text-anchor="middle" x="1018.59" y="-57.8" font-family="Times,serif" font-size="14.00">name</text>
</g>
<!-- description -->
<g id="node8" class="node">
<title>description</title>
<ellipse fill="none" stroke="blue" cx="1064.59" cy="-18" rx="75.29" ry="18"/>
<text text-anchor="middle" x="1064.59" y="-14.3" font-family="Times,serif" font-size="14.00">narrative text</text>
</g>
<!-- componentservice family&#45;&gt;description -->
<g id="edge7" class="edge">
<title>componentservice family&#45;&gt;description</title>
<path fill="none" stroke="blue" d="M1064.59,-86.8C1064.59,-75.16 1064.59,-59.55 1064.59,-46.24"/>
<polygon fill="blue" stroke="blue" points="1068.09,-46.18 1064.59,-36.18 1061.09,-46.18 1068.09,-46.18"/>
<text text-anchor="middle" x="1105.09" y="-57.8" font-family="Times,serif" font-size="14.00">description</text>
</g>
<!-- source -->
<g id="node9" class="node">
<title>source</title>
<ellipse fill="none" stroke="blue" cx="1214.59" cy="-18" rx="56.59" ry="18"/>
<text text-anchor="middle" x="1214.59" y="-14.3" font-family="Times,serif" font-size="14.00">label type</text>
</g>
<!-- componentservice family&#45;&gt;source -->
<g id="edge8" class="edge">
<title>componentservice family&#45;&gt;source</title>
<path fill="none" stroke="blue" d="M1109.77,-87.99C1122.95,-82.63 1137.15,-76.18 1149.59,-69 1163.19,-61.16 1177.13,-50.8 1188.59,-41.54"/>
<polygon fill="blue" stroke="blue" points="1190.98,-44.11 1196.47,-35.05 1186.52,-38.71 1190.98,-44.11"/>
<text text-anchor="middle" x="1196.59" y="-57.8" font-family="Times,serif" font-size="14.00">source</text>
</g>
<!-- provided by -->
<g id="node10" class="node">
<title>provided by</title>
<ellipse fill="none" stroke="blue" cx="1326.59" cy="-18" rx="37.09" ry="18"/>
<text text-anchor="middle" x="1326.59" y="-14.3" font-family="Times,serif" font-size="14.00">agent</text>
</g>
<!-- componentservice family&#45;&gt;provided by -->
<g id="edge9" class="edge">
<title>componentservice family&#45;&gt;provided by</title>
<path fill="none" stroke="blue" d="M1142.95,-90.78C1169.27,-85.31 1198.55,-78.08 1224.59,-69 1248.87,-60.53 1274.87,-47.73 1294.54,-37.19"/>
<polygon fill="blue" stroke="blue" points="1296.27,-40.24 1303.38,-32.39 1292.92,-34.09 1296.27,-40.24"/>
<text text-anchor="middle" x="1302.09" y="-57.8" font-family="Times,serif" font-size="14.00">provided by</text>
</g>
<!-- has attribute -->
<g id="node11" class="node">
<title>has attribute</title>
<ellipse fill="none" stroke="blue" cx="1433.59" cy="-18" rx="51.99" ry="18"/>
<text text-anchor="middle" x="1433.59" y="-14.3" font-family="Times,serif" font-size="14.00">attribute</text>
</g>
<!-- componentservice family&#45;&gt;has attribute -->
<g id="edge10" class="edge">
<title>componentservice family&#45;&gt;has attribute</title>
<path fill="none" stroke="blue" d="M1155.72,-92.46C1170.39,-90.62 1185.41,-88.75 1199.59,-87 1265.79,-78.83 1285.4,-90.36 1348.59,-69 1368.25,-62.35 1388.35,-50.79 1404.06,-40.46"/>
<polygon fill="blue" stroke="blue" points="1406.45,-43.07 1412.77,-34.57 1402.53,-37.27 1406.45,-43.07"/>
<text text-anchor="middle" x="1427.59" y="-57.8" font-family="Times,serif" font-size="14.00">has attribute</text>
</g>
<!-- category -->
<g id="node12" class="node">
<title>category</title>
<ellipse fill="none" stroke="black" cx="1554.59" cy="-18" rx="51.19" ry="18"/>
<text text-anchor="middle" x="1554.59" y="-14.3" font-family="Times,serif" font-size="14.00">category</text>
</g>
<!-- componentservice family&#45;&gt;category -->
<g id="edge11" class="edge">
<title>componentservice family&#45;&gt;category</title>
<path fill="none" stroke="blue" d="M1153.1,-92.07C1168.58,-90.21 1184.54,-88.43 1199.59,-87 1261.44,-81.12 1419.68,-88.73 1478.59,-69 1496.57,-62.98 1514.41,-51.6 1528.28,-41.22"/>
<polygon fill="blue" stroke="blue" points="1530.61,-43.84 1536.37,-34.95 1526.32,-38.31 1530.61,-43.84"/>
<text text-anchor="middle" x="1540.09" y="-57.8" font-family="Times,serif" font-size="14.00">category</text>
</g>
<!-- in taxon -->
<g id="node14" class="node">
<title>in taxon</title>
<ellipse fill="none" stroke="blue" cx="1696.59" cy="-18" rx="72.59" ry="18"/>
<text text-anchor="middle" x="1696.59" y="-14.3" font-family="Times,serif" font-size="14.00">system taxon</text>
</g>
<!-- componentservice family&#45;&gt;in taxon -->
<g id="edge12" class="edge">
<title>componentservice family&#45;&gt;in taxon</title>
<path fill="none" stroke="blue" d="M1152.36,-91.95C1168.06,-90.08 1184.29,-88.33 1199.59,-87 1366.27,-72.54 1412.32,-105.48 1575.59,-69 1604.25,-62.6 1634.8,-49.92 1658.04,-38.94"/>
<polygon fill="blue" stroke="blue" points="1659.71,-42.01 1667.2,-34.51 1656.67,-35.71 1659.71,-42.01"/>
<text text-anchor="middle" x="1649.59" y="-57.8" font-family="Times,serif" font-size="14.00">in taxon</text>
</g>
<!-- has componentservice or servicetype -->
<g id="node15" class="node">
<title>has componentservice or servicetype</title>
<ellipse fill="none" stroke="blue" cx="1882.59" cy="-18" rx="94.78" ry="18"/>
<text text-anchor="middle" x="1882.59" y="-14.3" font-family="Times,serif" font-size="14.00">componentservice</text>
</g>
<!-- componentservice family&#45;&gt;has componentservice or servicetype -->
<g id="edge13" class="edge">
<title>componentservice family&#45;&gt;has componentservice or servicetype</title>
<path fill="none" stroke="blue" d="M1151.62,-91.9C1167.55,-90.01 1184.05,-88.27 1199.59,-87 1413.7,-69.56 1469.91,-99.21 1682.59,-69 1731.59,-62.04 1786.01,-48.01 1825.7,-36.58"/>
<polygon fill="blue" stroke="blue" points="1826.84,-39.89 1835.46,-33.73 1824.88,-33.17 1826.84,-39.89"/>
<text text-anchor="middle" x="1888.59" y="-57.8" font-family="Times,serif" font-size="14.00">has componentservice or servicetype</text>
</g>
<!-- named thing_category -->
<g id="node13" class="node">
<title>named thing_category</title>
<ellipse fill="none" stroke="blue" cx="1278.59" cy="-105" rx="69.59" ry="18"/>
<text text-anchor="middle" x="1278.59" y="-101.3" font-family="Times,serif" font-size="14.00">named thing</text>
</g>
</g>
</svg>
