<?xml version="1.0" encoding="UTF-8" standalone="no"?>
<!DOCTYPE svg PUBLIC "-//W3C//DTD SVG 1.1//EN"
 "http://www.w3.org/Graphics/SVG/1.1/DTD/svg11.dtd">
<!-- Generated by graphviz version 2.43.0 (0)
 -->
<!-- Title: %3 Pages: 1 -->
<svg width="982pt" height="131pt"
 viewBox="0.00 0.00 981.54 131.00" xmlns="http://www.w3.org/2000/svg" xmlns:xlink="http://www.w3.org/1999/xlink">
<g id="graph0" class="graph" transform="scale(1 1) rotate(0) translate(4 127)">
<title>%3</title>
<polygon fill="white" stroke="transparent" points="-4,4 -4,-127 977.54,-127 977.54,4 -4,4"/>
<!-- computational architectural style -->
<g id="node1" class="node">
<title>computational architectural style</title>
<ellipse fill="none" stroke="black" cx="443" cy="-105" rx="165.17" ry="18"/>
<text text-anchor="middle" x="443" y="-101.3" font-family="Times,serif" font-size="14.00">computational architectural style</text>
</g>
<!-- attribute -->
<g id="node2" class="node">
<title>attribute</title>
<ellipse fill="none" stroke="black" cx="52" cy="-18" rx="51.99" ry="18"/>
<text text-anchor="middle" x="52" y="-14.3" font-family="Times,serif" font-size="14.00">attribute</text>
</g>
<!-- computational architectural style&#45;&gt;attribute -->
<g id="edge1" class="edge">
<title>computational architectural style&#45;&gt;attribute</title>
<path fill="none" stroke="black" d="M322.96,-92.63C280.58,-87.24 232.82,-79.6 190,-69 156.51,-60.72 119.85,-47.21 92.73,-36.32"/>
<polygon fill="black" stroke="black" points="93.78,-32.97 83.2,-32.45 91.14,-39.46 93.78,-32.97"/>
<text text-anchor="middle" x="204" y="-57.8" font-family="Times,serif" font-size="14.00">is_a</text>
</g>
<!-- name -->
<g id="node3" class="node">
<title>name</title>
<ellipse fill="none" stroke="black" cx="158" cy="-18" rx="36.29" ry="18"/>
<text text-anchor="middle" x="158" y="-14.3" font-family="Times,serif" font-size="14.00">name</text>
</g>
<!-- computational architectural style&#45;&gt;name -->
<g id="edge2" class="edge">
<title>computational architectural style&#45;&gt;name</title>
<path fill="none" stroke="blue" d="M341.02,-90.83C312.42,-85.6 281.6,-78.51 254,-69 231.04,-61.1 206.81,-48.44 188.44,-37.84"/>
<polygon fill="blue" stroke="blue" points="190.05,-34.73 179.66,-32.67 186.5,-40.76 190.05,-34.73"/>
<text text-anchor="middle" x="274" y="-57.8" font-family="Times,serif" font-size="14.00">name</text>
</g>
<!-- has attribute type -->
<g id="node5" class="node">
<title>has attribute type</title>
<ellipse fill="none" stroke="blue" cx="289" cy="-18" rx="76.89" ry="18"/>
<text text-anchor="middle" x="289" y="-14.3" font-family="Times,serif" font-size="14.00">ontology class</text>
</g>
<!-- computational architectural style&#45;&gt;has attribute type -->
<g id="edge3" class="edge">
<title>computational architectural style&#45;&gt;has attribute type</title>
<path fill="none" stroke="blue" d="M344.76,-90.53C331.32,-85.41 318.54,-78.45 308,-69 301.24,-62.94 296.87,-54.22 294.05,-45.75"/>
<polygon fill="blue" stroke="blue" points="297.42,-44.82 291.41,-36.1 290.67,-46.67 297.42,-44.82"/>
<text text-anchor="middle" x="373" y="-57.8" font-family="Times,serif" font-size="14.00">has attribute type</text>
</g>
<!-- has quantitative value -->
<g id="node6" class="node">
<title>has quantitative value</title>
<ellipse fill="none" stroke="blue" cx="461" cy="-18" rx="77.19" ry="18"/>
<text text-anchor="middle" x="461" y="-14.3" font-family="Times,serif" font-size="14.00">quantity value</text>
</g>
<!-- computational architectural style&#45;&gt;has quantitative value -->
<g id="edge4" class="edge">
<title>computational architectural style&#45;&gt;has quantitative value</title>
<path fill="none" stroke="blue" d="M441.53,-86.64C441.15,-76.91 441.44,-64.64 444,-54 444.69,-51.11 445.65,-48.17 446.76,-45.3"/>
<polygon fill="blue" stroke="blue" points="450.08,-46.45 450.97,-35.89 443.69,-43.59 450.08,-46.45"/>
<text text-anchor="middle" x="524" y="-57.8" font-family="Times,serif" font-size="14.00">has quantitative value</text>
</g>
<!-- has qualitative value -->
<g id="node7" class="node">
<title>has qualitative value</title>
<ellipse fill="none" stroke="blue" cx="626" cy="-18" rx="69.59" ry="18"/>
<text text-anchor="middle" x="626" y="-14.3" font-family="Times,serif" font-size="14.00">named thing</text>
</g>
<!-- computational architectural style&#45;&gt;has qualitative value -->
<g id="edge5" class="edge">
<title>computational architectural style&#45;&gt;has qualitative value</title>
<path fill="none" stroke="blue" d="M540.17,-90.34C567.8,-84.86 593.31,-77.73 604,-69 611.17,-63.13 616.08,-54.46 619.4,-45.97"/>
<polygon fill="blue" stroke="blue" points="622.79,-46.87 622.61,-36.28 616.14,-44.67 622.79,-46.87"/>
<text text-anchor="middle" x="690.5" y="-57.8" font-family="Times,serif" font-size="14.00">has qualitative value</text>
</g>
<!-- iri -->
<g id="node8" class="node">
<title>iri</title>
<ellipse fill="none" stroke="blue" cx="798" cy="-18" rx="44.39" ry="18"/>
<text text-anchor="middle" x="798" y="-14.3" font-family="Times,serif" font-size="14.00">iri type</text>
</g>
<!-- computational architectural style&#45;&gt;iri -->
<g id="edge6" class="edge">
<title>computational architectural style&#45;&gt;iri</title>
<path fill="none" stroke="blue" d="M562.08,-92.46C653.37,-83.42 764.52,-71.91 769,-69 777.52,-63.46 783.84,-54.47 788.37,-45.63"/>
<polygon fill="blue" stroke="blue" points="791.67,-46.82 792.59,-36.27 785.29,-43.94 791.67,-46.82"/>
<text text-anchor="middle" x="792" y="-57.8" font-family="Times,serif" font-size="14.00">iri</text>
</g>
<!-- source -->
<g id="node9" class="node">
<title>source</title>
<ellipse fill="none" stroke="blue" cx="917" cy="-18" rx="56.59" ry="18"/>
<text text-anchor="middle" x="917" y="-14.3" font-family="Times,serif" font-size="14.00">label type</text>
</g>
<!-- computational architectural style&#45;&gt;source -->
<g id="edge7" class="edge">
<title>computational architectural style&#45;&gt;source</title>
<path fill="none" stroke="blue" d="M561.39,-92.41C580,-90.59 599.02,-88.74 617,-87 700.1,-78.94 723.23,-90.16 804,-69 830.75,-61.99 859.22,-49.36 880.88,-38.55"/>
<polygon fill="blue" stroke="blue" points="882.71,-41.55 890.03,-33.89 879.53,-35.31 882.71,-41.55"/>
<text text-anchor="middle" x="870" y="-57.8" font-family="Times,serif" font-size="14.00">source</text>
</g>
<!-- attribute_name -->
<g id="node4" class="node">
<title>attribute_name</title>
<ellipse fill="none" stroke="blue" cx="683" cy="-105" rx="56.59" ry="18"/>
<text text-anchor="middle" x="683" y="-101.3" font-family="Times,serif" font-size="14.00">label type</text>
</g>
</g>
</svg>
