<?xml version="1.0" encoding="UTF-8" standalone="no"?>
<!DOCTYPE svg PUBLIC "-//W3C//DTD SVG 1.1//EN"
 "http://www.w3.org/Graphics/SVG/1.1/DTD/svg11.dtd">
<!-- Generated by graphviz version 2.43.0 (0)
 -->
<!-- Title: %3 Pages: 1 -->
<svg width="1880pt" height="131pt"
 viewBox="0.00 0.00 1880.18 131.00" xmlns="http://www.w3.org/2000/svg" xmlns:xlink="http://www.w3.org/1999/xlink">
<g id="graph0" class="graph" transform="scale(1 1) rotate(0) translate(4 127)">
<title>%3</title>
<polygon fill="white" stroke="transparent" points="-4,4 -4,-127 1876.18,-127 1876.18,4 -4,4"/>
<!-- computational process or activity -->
<g id="node1" class="node">
<title>computational process or activity</title>
<ellipse fill="none" stroke="black" cx="940.24" cy="-105" rx="165.97" ry="18"/>
<text text-anchor="middle" x="940.24" y="-101.3" font-family="Times,serif" font-size="14.00">computational process or activity</text>
</g>
<!-- computational entity -->
<g id="node2" class="node">
<title>computational entity</title>
<ellipse fill="none" stroke="black" cx="107.24" cy="-18" rx="107.48" ry="18"/>
<text text-anchor="middle" x="107.24" y="-14.3" font-family="Times,serif" font-size="14.00">computational entity</text>
</g>
<!-- computational process or activity&#45;&gt;computational entity -->
<g id="edge1" class="edge">
<title>computational process or activity&#45;&gt;computational entity</title>
<path fill="none" stroke="black" d="M783.99,-98.89C672.77,-94.1 519.95,-85.15 386.24,-69 316.07,-60.52 236.82,-45.82 180.76,-34.55"/>
<polygon fill="black" stroke="black" points="181.42,-31.11 170.92,-32.55 180.03,-37.97 181.42,-31.11"/>
<text text-anchor="middle" x="400.24" y="-57.8" font-family="Times,serif" font-size="14.00">is_a</text>
</g>
<!-- occurrent -->
<g id="node3" class="node">
<title>occurrent</title>
<ellipse fill="none" stroke="black" cx="288.24" cy="-18" rx="55.79" ry="18"/>
<text text-anchor="middle" x="288.24" y="-14.3" font-family="Times,serif" font-size="14.00">occurrent</text>
</g>
<!-- computational process or activity&#45;&gt;occurrent -->
<g id="edge2" class="edge">
<title>computational process or activity&#45;&gt;occurrent</title>
<path fill="none" stroke="black" d="M786.96,-98.12C699.61,-93.26 588.34,-84.53 490.24,-69 437.33,-60.62 377.95,-45.18 337.34,-33.66"/>
<polygon fill="black" stroke="black" points="338.27,-30.29 327.69,-30.9 336.34,-37.02 338.27,-30.29"/>
<text text-anchor="middle" x="506.74" y="-57.8" font-family="Times,serif" font-size="14.00">uses</text>
</g>
<!-- id -->
<g id="node4" class="node">
<title>id</title>
<ellipse fill="none" stroke="blue" cx="400.24" cy="-18" rx="38.19" ry="18"/>
<text text-anchor="middle" x="400.24" y="-14.3" font-family="Times,serif" font-size="14.00">string</text>
</g>
<!-- computational process or activity&#45;&gt;id -->
<g id="edge3" class="edge">
<title>computational process or activity&#45;&gt;id</title>
<path fill="none" stroke="blue" d="M803.04,-94.89C703.24,-85.9 565.6,-68.57 448.24,-36 445.13,-35.14 441.93,-34.17 438.73,-33.16"/>
<polygon fill="blue" stroke="blue" points="439.82,-29.83 429.22,-30 437.61,-36.47 439.82,-29.83"/>
<text text-anchor="middle" x="602.24" y="-57.8" font-family="Times,serif" font-size="14.00">id</text>
</g>
<!-- iri -->
<g id="node5" class="node">
<title>iri</title>
<ellipse fill="none" stroke="blue" cx="501.24" cy="-18" rx="44.39" ry="18"/>
<text text-anchor="middle" x="501.24" y="-14.3" font-family="Times,serif" font-size="14.00">iri type</text>
</g>
<!-- computational process or activity&#45;&gt;iri -->
<g id="edge4" class="edge">
<title>computational process or activity&#45;&gt;iri</title>
<path fill="none" stroke="blue" d="M837.47,-90.83C794.88,-84.9 745.05,-77.35 700.24,-69 635.27,-56.89 619.04,-53.27 555.24,-36 551.66,-35.03 547.97,-33.98 544.26,-32.89"/>
<polygon fill="blue" stroke="blue" points="545.12,-29.49 534.53,-29.95 543.09,-36.19 545.12,-29.49"/>
<text text-anchor="middle" x="708.24" y="-57.8" font-family="Times,serif" font-size="14.00">iri</text>
</g>
<!-- type -->
<g id="node6" class="node">
<title>type</title>
<ellipse fill="none" stroke="blue" cx="602.24" cy="-18" rx="38.19" ry="18"/>
<text text-anchor="middle" x="602.24" y="-14.3" font-family="Times,serif" font-size="14.00">string</text>
</g>
<!-- computational process or activity&#45;&gt;type -->
<g id="edge5" class="edge">
<title>computational process or activity&#45;&gt;type</title>
<path fill="none" stroke="blue" d="M863.2,-88.99C804.1,-76.76 720.79,-57.96 649.24,-36 646.48,-35.15 643.64,-34.24 640.8,-33.29"/>
<polygon fill="blue" stroke="blue" points="641.77,-29.92 631.17,-29.97 639.49,-36.54 641.77,-29.92"/>
<text text-anchor="middle" x="784.24" y="-57.8" font-family="Times,serif" font-size="14.00">type</text>
</g>
<!-- name -->
<g id="node7" class="node">
<title>name</title>
<ellipse fill="none" stroke="blue" cx="715.24" cy="-18" rx="56.59" ry="18"/>
<text text-anchor="middle" x="715.24" y="-14.3" font-family="Times,serif" font-size="14.00">label type</text>
</g>
<!-- computational process or activity&#45;&gt;name -->
<g id="edge6" class="edge">
<title>computational process or activity&#45;&gt;name</title>
<path fill="none" stroke="blue" d="M896.86,-87.61C857.46,-72.73 799.58,-50.86 759.81,-35.84"/>
<polygon fill="blue" stroke="blue" points="760.96,-32.53 750.37,-32.27 758.48,-39.08 760.96,-32.53"/>
<text text-anchor="middle" x="861.24" y="-57.8" font-family="Times,serif" font-size="14.00">name</text>
</g>
<!-- description -->
<g id="node8" class="node">
<title>description</title>
<ellipse fill="none" stroke="blue" cx="865.24" cy="-18" rx="75.29" ry="18"/>
<text text-anchor="middle" x="865.24" y="-14.3" font-family="Times,serif" font-size="14.00">narrative text</text>
</g>
<!-- computational process or activity&#45;&gt;description -->
<g id="edge7" class="edge">
<title>computational process or activity&#45;&gt;description</title>
<path fill="none" stroke="blue" d="M925.06,-86.8C914.11,-74.39 899.17,-57.46 886.96,-43.62"/>
<polygon fill="blue" stroke="blue" points="889.38,-41.07 880.14,-35.89 884.13,-45.7 889.38,-41.07"/>
<text text-anchor="middle" x="947.74" y="-57.8" font-family="Times,serif" font-size="14.00">description</text>
</g>
<!-- source -->
<g id="node9" class="node">
<title>source</title>
<ellipse fill="none" stroke="blue" cx="1015.24" cy="-18" rx="56.59" ry="18"/>
<text text-anchor="middle" x="1015.24" y="-14.3" font-family="Times,serif" font-size="14.00">label type</text>
</g>
<!-- computational process or activity&#45;&gt;source -->
<g id="edge8" class="edge">
<title>computational process or activity&#45;&gt;source</title>
<path fill="none" stroke="blue" d="M971.1,-87.26C978.68,-82.13 986.32,-75.96 992.24,-69 998.05,-62.17 1002.69,-53.63 1006.24,-45.55"/>
<polygon fill="blue" stroke="blue" points="1009.57,-46.65 1010.03,-36.07 1003.07,-44.05 1009.57,-46.65"/>
<text text-anchor="middle" x="1026.24" y="-57.8" font-family="Times,serif" font-size="14.00">source</text>
</g>
<!-- provided by -->
<g id="node10" class="node">
<title>provided by</title>
<ellipse fill="none" stroke="blue" cx="1127.24" cy="-18" rx="37.09" ry="18"/>
<text text-anchor="middle" x="1127.24" y="-14.3" font-family="Times,serif" font-size="14.00">agent</text>
</g>
<!-- computational process or activity&#45;&gt;provided by -->
<g id="edge9" class="edge">
<title>computational process or activity&#45;&gt;provided by</title>
<path fill="none" stroke="blue" d="M1003.37,-88.33C1020.28,-83.14 1038.3,-76.69 1054.24,-69 1070.59,-61.12 1087.39,-49.87 1100.75,-40.03"/>
<polygon fill="blue" stroke="blue" points="1103.11,-42.63 1108.99,-33.82 1098.9,-37.04 1103.11,-42.63"/>
<text text-anchor="middle" x="1122.74" y="-57.8" font-family="Times,serif" font-size="14.00">provided by</text>
</g>
<!-- has attribute -->
<g id="node11" class="node">
<title>has attribute</title>
<ellipse fill="none" stroke="blue" cx="1234.24" cy="-18" rx="51.99" ry="18"/>
<text text-anchor="middle" x="1234.24" y="-14.3" font-family="Times,serif" font-size="14.00">attribute</text>
</g>
<!-- computational process or activity&#45;&gt;has attribute -->
<g id="edge10" class="edge">
<title>computational process or activity&#45;&gt;has attribute</title>
<path fill="none" stroke="blue" d="M1076.28,-94.69C1107.65,-89.44 1140.3,-81.36 1169.24,-69 1184.35,-62.55 1199.04,-51.76 1210.62,-41.85"/>
<polygon fill="blue" stroke="blue" points="1212.96,-44.45 1218.11,-35.19 1208.31,-39.22 1212.96,-44.45"/>
<text text-anchor="middle" x="1242.24" y="-57.8" font-family="Times,serif" font-size="14.00">has attribute</text>
</g>
<!-- category -->
<g id="node12" class="node">
<title>category</title>
<ellipse fill="none" stroke="black" cx="1355.24" cy="-18" rx="51.19" ry="18"/>
<text text-anchor="middle" x="1355.24" y="-14.3" font-family="Times,serif" font-size="14.00">category</text>
</g>
<!-- computational process or activity&#45;&gt;category -->
<g id="edge11" class="edge">
<title>computational process or activity&#45;&gt;category</title>
<path fill="none" stroke="blue" d="M1058.45,-92.38C1160.77,-82.3 1292.54,-69.29 1293.24,-69 1307.86,-63.01 1321.78,-52.41 1332.72,-42.5"/>
<polygon fill="blue" stroke="blue" points="1335.27,-44.91 1340.12,-35.49 1330.45,-39.83 1335.27,-44.91"/>
<text text-anchor="middle" x="1349.74" y="-57.8" font-family="Times,serif" font-size="14.00">category</text>
</g>
<!-- has input -->
<g id="node14" class="node">
<title>has input</title>
<ellipse fill="none" stroke="blue" cx="1494.24" cy="-18" rx="69.59" ry="18"/>
<text text-anchor="middle" x="1494.24" y="-14.3" font-family="Times,serif" font-size="14.00">named thing</text>
</g>
<!-- computational process or activity&#45;&gt;has input -->
<g id="edge12" class="edge">
<title>computational process or activity&#45;&gt;has input</title>
<path fill="none" stroke="blue" d="M1056.72,-92.12C1075.93,-90.3 1095.64,-88.53 1114.24,-87 1234.55,-77.13 1268.23,-98.65 1385.24,-69 1410.79,-62.52 1437.73,-50.22 1458.43,-39.44"/>
<polygon fill="blue" stroke="blue" points="1460.3,-42.42 1467.48,-34.63 1457.01,-36.24 1460.3,-42.42"/>
<text text-anchor="middle" x="1459.74" y="-57.8" font-family="Times,serif" font-size="14.00">has input</text>
</g>
<!-- has output -->
<g id="node15" class="node">
<title>has output</title>
<ellipse fill="none" stroke="blue" cx="1651.24" cy="-18" rx="69.59" ry="18"/>
<text text-anchor="middle" x="1651.24" y="-14.3" font-family="Times,serif" font-size="14.00">named thing</text>
</g>
<!-- computational process or activity&#45;&gt;has output -->
<g id="edge13" class="edge">
<title>computational process or activity&#45;&gt;has output</title>
<path fill="none" stroke="blue" d="M1054.83,-91.98C1074.62,-90.14 1095.02,-88.39 1114.24,-87 1284.21,-74.71 1329.6,-99.58 1497.24,-69 1534.79,-62.15 1575.84,-48.5 1606.11,-37.19"/>
<polygon fill="blue" stroke="blue" points="1607.43,-40.43 1615.54,-33.61 1604.95,-33.88 1607.43,-40.43"/>
<text text-anchor="middle" x="1592.74" y="-57.8" font-family="Times,serif" font-size="14.00">has output</text>
</g>
<!-- enabled by -->
<g id="node16" class="node">
<title>enabled by</title>
<ellipse fill="none" stroke="blue" cx="1805.24" cy="-18" rx="66.89" ry="18"/>
<text text-anchor="middle" x="1805.24" y="-14.3" font-family="Times,serif" font-size="14.00">cyber entity</text>
</g>
<!-- computational process or activity&#45;&gt;enabled by -->
<g id="edge14" class="edge">
<title>computational process or activity&#45;&gt;enabled by</title>
<path fill="none" stroke="blue" d="M1053.88,-91.86C1073.97,-90.01 1094.71,-88.29 1114.24,-87 1345.43,-71.73 1406.52,-105.98 1635.24,-69 1677.67,-62.14 1724.42,-47.88 1758.14,-36.33"/>
<polygon fill="blue" stroke="blue" points="1759.43,-39.59 1767.72,-33 1757.13,-32.98 1759.43,-39.59"/>
<text text-anchor="middle" x="1736.74" y="-57.8" font-family="Times,serif" font-size="14.00">enabled by</text>
</g>
<!-- named thing_category -->
<g id="node13" class="node">
<title>named thing_category</title>
<ellipse fill="none" stroke="blue" cx="1193.24" cy="-105" rx="69.59" ry="18"/>
<text text-anchor="middle" x="1193.24" y="-101.3" font-family="Times,serif" font-size="14.00">named thing</text>
</g>
</g>
</svg>
