<?xml version="1.0" encoding="UTF-8" standalone="no"?>
<!DOCTYPE svg PUBLIC "-//W3C//DTD SVG 1.1//EN"
 "http://www.w3.org/Graphics/SVG/1.1/DTD/svg11.dtd">
<!-- Generated by graphviz version 2.43.0 (0)
 -->
<!-- Title: %3 Pages: 1 -->
<svg width="1224pt" height="131pt"
 viewBox="0.00 0.00 1224.04 131.00" xmlns="http://www.w3.org/2000/svg" xmlns:xlink="http://www.w3.org/1999/xlink">
<g id="graph0" class="graph" transform="scale(1 1) rotate(0) translate(4 127)">
<title>%3</title>
<polygon fill="white" stroke="transparent" points="-4,4 -4,-127 1220.04,-127 1220.04,4 -4,4"/>
<!-- componentservice ontology class -->
<g id="node1" class="node">
<title>componentservice ontology class</title>
<ellipse fill="none" stroke="black" cx="599.69" cy="-105" rx="163.57" ry="18"/>
<text text-anchor="middle" x="599.69" y="-101.3" font-family="Times,serif" font-size="14.00">componentservice ontology class</text>
</g>
<!-- ontology class -->
<g id="node2" class="node">
<title>ontology class</title>
<ellipse fill="none" stroke="black" cx="76.69" cy="-18" rx="76.89" ry="18"/>
<text text-anchor="middle" x="76.69" y="-14.3" font-family="Times,serif" font-size="14.00">ontology class</text>
</g>
<!-- componentservice ontology class&#45;&gt;ontology class -->
<g id="edge1" class="edge">
<title>componentservice ontology class&#45;&gt;ontology class</title>
<path fill="none" stroke="black" d="M478.85,-92.81C423.98,-86.98 358.37,-78.97 299.69,-69 243.87,-59.51 180.99,-45.07 136.26,-34.14"/>
<polygon fill="black" stroke="black" points="136.98,-30.71 126.44,-31.72 135.31,-37.51 136.98,-30.71"/>
<text text-anchor="middle" x="313.69" y="-57.8" font-family="Times,serif" font-size="14.00">is_a</text>
</g>
<!-- id -->
<g id="node3" class="node">
<title>id</title>
<ellipse fill="none" stroke="blue" cx="209.69" cy="-18" rx="38.19" ry="18"/>
<text text-anchor="middle" x="209.69" y="-14.3" font-family="Times,serif" font-size="14.00">string</text>
</g>
<!-- componentservice ontology class&#45;&gt;id -->
<g id="edge2" class="edge">
<title>componentservice ontology class&#45;&gt;id</title>
<path fill="none" stroke="blue" d="M508.36,-90.04C438.9,-78.42 341.36,-59.92 257.69,-36 254.59,-35.11 251.4,-34.13 248.2,-33.11"/>
<polygon fill="blue" stroke="blue" points="249.29,-29.78 238.7,-29.92 247.07,-36.42 249.29,-29.78"/>
<text text-anchor="middle" x="395.69" y="-57.8" font-family="Times,serif" font-size="14.00">id</text>
</g>
<!-- iri -->
<g id="node4" class="node">
<title>iri</title>
<ellipse fill="none" stroke="blue" cx="310.69" cy="-18" rx="44.39" ry="18"/>
<text text-anchor="middle" x="310.69" y="-14.3" font-family="Times,serif" font-size="14.00">iri type</text>
</g>
<!-- componentservice ontology class&#45;&gt;iri -->
<g id="edge3" class="edge">
<title>componentservice ontology class&#45;&gt;iri</title>
<path fill="none" stroke="blue" d="M542.07,-88.1C520.86,-82.19 496.66,-75.37 474.69,-69 425.67,-54.78 413.48,-51 364.69,-36 361.2,-34.93 357.58,-33.81 353.95,-32.67"/>
<polygon fill="blue" stroke="blue" points="354.96,-29.32 344.37,-29.68 352.87,-36.01 354.96,-29.32"/>
<text text-anchor="middle" x="482.69" y="-57.8" font-family="Times,serif" font-size="14.00">iri</text>
</g>
<!-- type -->
<g id="node5" class="node">
<title>type</title>
<ellipse fill="none" stroke="blue" cx="411.69" cy="-18" rx="38.19" ry="18"/>
<text text-anchor="middle" x="411.69" y="-14.3" font-family="Times,serif" font-size="14.00">string</text>
</g>
<!-- componentservice ontology class&#45;&gt;type -->
<g id="edge4" class="edge">
<title>componentservice ontology class&#45;&gt;type</title>
<path fill="none" stroke="blue" d="M563,-87.41C529.64,-72.33 480.71,-50.2 447.6,-35.23"/>
<polygon fill="blue" stroke="blue" points="448.84,-31.95 438.29,-31.02 445.96,-38.33 448.84,-31.95"/>
<text text-anchor="middle" x="533.69" y="-57.8" font-family="Times,serif" font-size="14.00">type</text>
</g>
<!-- name -->
<g id="node6" class="node">
<title>name</title>
<ellipse fill="none" stroke="blue" cx="524.69" cy="-18" rx="56.59" ry="18"/>
<text text-anchor="middle" x="524.69" y="-14.3" font-family="Times,serif" font-size="14.00">label type</text>
</g>
<!-- componentservice ontology class&#45;&gt;name -->
<g id="edge5" class="edge">
<title>componentservice ontology class&#45;&gt;name</title>
<path fill="none" stroke="blue" d="M584.52,-86.8C573.5,-74.31 558.43,-57.24 546.18,-43.35"/>
<polygon fill="blue" stroke="blue" points="548.58,-40.78 539.34,-35.6 543.33,-45.41 548.58,-40.78"/>
<text text-anchor="middle" x="586.69" y="-57.8" font-family="Times,serif" font-size="14.00">name</text>
</g>
<!-- description -->
<g id="node7" class="node">
<title>description</title>
<ellipse fill="none" stroke="blue" cx="674.69" cy="-18" rx="75.29" ry="18"/>
<text text-anchor="middle" x="674.69" y="-14.3" font-family="Times,serif" font-size="14.00">narrative text</text>
</g>
<!-- componentservice ontology class&#45;&gt;description -->
<g id="edge6" class="edge">
<title>componentservice ontology class&#45;&gt;description</title>
<path fill="none" stroke="blue" d="M614.87,-86.8C625.82,-74.39 640.76,-57.46 652.97,-43.62"/>
<polygon fill="blue" stroke="blue" points="655.8,-45.7 659.79,-35.89 650.55,-41.07 655.8,-45.7"/>
<text text-anchor="middle" x="682.19" y="-57.8" font-family="Times,serif" font-size="14.00">description</text>
</g>
<!-- source -->
<g id="node8" class="node">
<title>source</title>
<ellipse fill="none" stroke="blue" cx="824.69" cy="-18" rx="56.59" ry="18"/>
<text text-anchor="middle" x="824.69" y="-14.3" font-family="Times,serif" font-size="14.00">label type</text>
</g>
<!-- componentservice ontology class&#45;&gt;source -->
<g id="edge7" class="edge">
<title>componentservice ontology class&#45;&gt;source</title>
<path fill="none" stroke="blue" d="M665.78,-88.51C685.64,-83.13 707.29,-76.53 726.69,-69 748.32,-60.6 771.49,-48.92 789.87,-38.95"/>
<polygon fill="blue" stroke="blue" points="791.66,-41.96 798.74,-34.07 788.29,-35.83 791.66,-41.96"/>
<text text-anchor="middle" x="784.69" y="-57.8" font-family="Times,serif" font-size="14.00">source</text>
</g>
<!-- provided by -->
<g id="node9" class="node">
<title>provided by</title>
<ellipse fill="none" stroke="blue" cx="936.69" cy="-18" rx="37.09" ry="18"/>
<text text-anchor="middle" x="936.69" y="-14.3" font-family="Times,serif" font-size="14.00">agent</text>
</g>
<!-- componentservice ontology class&#45;&gt;provided by -->
<g id="edge8" class="edge">
<title>componentservice ontology class&#45;&gt;provided by</title>
<path fill="none" stroke="blue" d="M705.79,-91.28C740.24,-85.9 778.41,-78.6 812.69,-69 843.67,-60.32 877.46,-46.39 901.92,-35.43"/>
<polygon fill="blue" stroke="blue" points="903.49,-38.56 911.15,-31.24 900.59,-32.19 903.49,-38.56"/>
<text text-anchor="middle" x="897.19" y="-57.8" font-family="Times,serif" font-size="14.00">provided by</text>
</g>
<!-- has attribute -->
<g id="node10" class="node">
<title>has attribute</title>
<ellipse fill="none" stroke="blue" cx="1043.69" cy="-18" rx="51.99" ry="18"/>
<text text-anchor="middle" x="1043.69" y="-14.3" font-family="Times,serif" font-size="14.00">attribute</text>
</g>
<!-- componentservice ontology class&#45;&gt;has attribute -->
<g id="edge9" class="edge">
<title>componentservice ontology class&#45;&gt;has attribute</title>
<path fill="none" stroke="blue" d="M716.77,-92.33C815.38,-82.47 940.9,-69.81 943.69,-69 967.24,-62.16 991.9,-49.9 1010.84,-39.23"/>
<polygon fill="blue" stroke="blue" points="1012.73,-42.18 1019.65,-34.15 1009.24,-36.11 1012.73,-42.18"/>
<text text-anchor="middle" x="1028.69" y="-57.8" font-family="Times,serif" font-size="14.00">has attribute</text>
</g>
<!-- category -->
<g id="node11" class="node">
<title>category</title>
<ellipse fill="none" stroke="black" cx="1164.69" cy="-18" rx="51.19" ry="18"/>
<text text-anchor="middle" x="1164.69" y="-14.3" font-family="Times,serif" font-size="14.00">category</text>
</g>
<!-- componentservice ontology class&#45;&gt;category -->
<g id="edge10" class="edge">
<title>componentservice ontology class&#45;&gt;category</title>
<path fill="none" stroke="blue" d="M713.9,-92.06C733.18,-90.24 753,-88.47 771.69,-87 840.04,-81.63 1014.09,-88.94 1079.69,-69 1099.87,-62.87 1120.31,-51.06 1136.09,-40.46"/>
<polygon fill="blue" stroke="blue" points="1138.12,-43.31 1144.35,-34.74 1134.13,-37.56 1138.12,-43.31"/>
<text text-anchor="middle" x="1143.19" y="-57.8" font-family="Times,serif" font-size="14.00">category</text>
</g>
<!-- named thing_category -->
<g id="node12" class="node">
<title>named thing_category</title>
<ellipse fill="none" stroke="blue" cx="850.69" cy="-105" rx="69.59" ry="18"/>
<text text-anchor="middle" x="850.69" y="-101.3" font-family="Times,serif" font-size="14.00">named thing</text>
</g>
</g>
</svg>
