<?xml version="1.0" encoding="UTF-8" standalone="no"?>
<!DOCTYPE svg PUBLIC "-//W3C//DTD SVG 1.1//EN"
 "http://www.w3.org/Graphics/SVG/1.1/DTD/svg11.dtd">
<!-- Generated by graphviz version 2.43.0 (0)
 -->
<!-- Title: %3 Pages: 1 -->
<svg width="2257pt" height="291pt"
 viewBox="0.00 0.00 2256.83 291.00" xmlns="http://www.w3.org/2000/svg" xmlns:xlink="http://www.w3.org/1999/xlink">
<g id="graph0" class="graph" transform="scale(1 1) rotate(0) translate(4 287)">
<title>%3</title>
<polygon fill="white" stroke="transparent" points="-4,4 -4,-287 2252.83,-287 2252.83,4 -4,4"/>
<!-- componentservice to componentservice association -->
<g id="node1" class="node">
<title>componentservice to componentservice association</title>
<ellipse fill="none" stroke="black" cx="1068.39" cy="-265" rx="248.86" ry="18"/>
<text text-anchor="middle" x="1068.39" y="-261.3" font-family="Times,serif" font-size="14.00">componentservice to componentservice association</text>
</g>
<!-- association -->
<g id="node2" class="node">
<title>association</title>
<ellipse fill="none" stroke="black" cx="62.39" cy="-178" rx="62.29" ry="18"/>
<text text-anchor="middle" x="62.39" y="-174.3" font-family="Times,serif" font-size="14.00">association</text>
</g>
<!-- componentservice to componentservice association&#45;&gt;association -->
<g id="edge1" class="edge">
<title>componentservice to componentservice association&#45;&gt;association</title>
<path fill="none" stroke="black" d="M834.45,-258.84C637.9,-253.57 372.73,-244 267.39,-229 214.12,-221.41 154.49,-206.07 113.34,-194.37"/>
<polygon fill="black" stroke="black" points="114.13,-190.96 103.55,-191.56 112.19,-197.68 114.13,-190.96"/>
<text text-anchor="middle" x="281.39" y="-217.8" font-family="Times,serif" font-size="14.00">is_a</text>
</g>
<!-- id -->
<g id="node3" class="node">
<title>id</title>
<ellipse fill="none" stroke="blue" cx="181.39" cy="-178" rx="38.19" ry="18"/>
<text text-anchor="middle" x="181.39" y="-174.3" font-family="Times,serif" font-size="14.00">string</text>
</g>
<!-- componentservice to componentservice association&#45;&gt;id -->
<g id="edge2" class="edge">
<title>componentservice to componentservice association&#45;&gt;id</title>
<path fill="none" stroke="blue" d="M827.93,-260.29C698.21,-256.1 535.59,-247.31 391.39,-229 318.5,-219.74 300.2,-215.65 229.39,-196 226.29,-195.14 223.09,-194.17 219.89,-193.16"/>
<polygon fill="blue" stroke="blue" points="220.97,-189.83 210.38,-190 218.76,-196.47 220.97,-189.83"/>
<text text-anchor="middle" x="398.39" y="-217.8" font-family="Times,serif" font-size="14.00">id</text>
</g>
<!-- iri -->
<g id="node4" class="node">
<title>iri</title>
<ellipse fill="none" stroke="blue" cx="282.39" cy="-178" rx="44.39" ry="18"/>
<text text-anchor="middle" x="282.39" y="-174.3" font-family="Times,serif" font-size="14.00">iri type</text>
</g>
<!-- componentservice to componentservice association&#45;&gt;iri -->
<g id="edge3" class="edge">
<title>componentservice to componentservice association&#45;&gt;iri</title>
<path fill="none" stroke="blue" d="M843.41,-257.27C738.54,-252.32 612.25,-243.75 499.39,-229 425.67,-219.36 407.35,-214.72 335.39,-196 332.02,-195.12 328.54,-194.15 325.06,-193.14"/>
<polygon fill="blue" stroke="blue" points="325.89,-189.73 315.31,-190.19 323.86,-196.43 325.89,-189.73"/>
<text text-anchor="middle" x="507.39" y="-217.8" font-family="Times,serif" font-size="14.00">iri</text>
</g>
<!-- name -->
<g id="node5" class="node">
<title>name</title>
<ellipse fill="none" stroke="blue" cx="401.39" cy="-178" rx="56.59" ry="18"/>
<text text-anchor="middle" x="401.39" y="-174.3" font-family="Times,serif" font-size="14.00">label type</text>
</g>
<!-- componentservice to componentservice association&#45;&gt;name -->
<g id="edge4" class="edge">
<title>componentservice to componentservice association&#45;&gt;name</title>
<path fill="none" stroke="blue" d="M846.1,-256.89C763.78,-251.89 669.93,-243.41 585.39,-229 538.27,-220.97 485.75,-206.08 448.93,-194.64"/>
<polygon fill="blue" stroke="blue" points="449.57,-191.17 438.98,-191.51 447.47,-197.85 449.57,-191.17"/>
<text text-anchor="middle" x="605.39" y="-217.8" font-family="Times,serif" font-size="14.00">name</text>
</g>
<!-- description -->
<g id="node6" class="node">
<title>description</title>
<ellipse fill="none" stroke="blue" cx="551.39" cy="-178" rx="75.29" ry="18"/>
<text text-anchor="middle" x="551.39" y="-174.3" font-family="Times,serif" font-size="14.00">narrative text</text>
</g>
<!-- componentservice to componentservice association&#45;&gt;description -->
<g id="edge5" class="edge">
<title>componentservice to componentservice association&#45;&gt;description</title>
<path fill="none" stroke="blue" d="M849.68,-256.39C791.8,-251.19 729.75,-242.71 673.39,-229 645.05,-222.1 614.69,-209.68 591.35,-198.95"/>
<polygon fill="blue" stroke="blue" points="592.66,-195.7 582.12,-194.62 589.69,-202.04 592.66,-195.7"/>
<text text-anchor="middle" x="713.89" y="-217.8" font-family="Times,serif" font-size="14.00">description</text>
</g>
<!-- source -->
<g id="node7" class="node">
<title>source</title>
<ellipse fill="none" stroke="blue" cx="701.39" cy="-178" rx="56.59" ry="18"/>
<text text-anchor="middle" x="701.39" y="-174.3" font-family="Times,serif" font-size="14.00">label type</text>
</g>
<!-- componentservice to componentservice association&#45;&gt;source -->
<g id="edge6" class="edge">
<title>componentservice to componentservice association&#45;&gt;source</title>
<path fill="none" stroke="blue" d="M893.27,-252.14C858.96,-246.96 823.64,-239.56 791.39,-229 770.76,-222.24 749.43,-210.64 732.73,-200.31"/>
<polygon fill="blue" stroke="blue" points="734.27,-197.14 723.95,-194.74 730.52,-203.05 734.27,-197.14"/>
<text text-anchor="middle" x="815.39" y="-217.8" font-family="Times,serif" font-size="14.00">source</text>
</g>
<!-- provided by -->
<g id="node8" class="node">
<title>provided by</title>
<ellipse fill="none" stroke="blue" cx="813.39" cy="-178" rx="37.09" ry="18"/>
<text text-anchor="middle" x="813.39" y="-174.3" font-family="Times,serif" font-size="14.00">agent</text>
</g>
<!-- componentservice to componentservice association&#45;&gt;provided by -->
<g id="edge7" class="edge">
<title>componentservice to componentservice association&#45;&gt;provided by</title>
<path fill="none" stroke="blue" d="M921.96,-250.43C901.62,-245.31 881.51,-238.37 863.39,-229 851.3,-222.74 840.3,-212.52 831.71,-202.94"/>
<polygon fill="blue" stroke="blue" points="834.24,-200.51 825.1,-195.15 828.9,-205.04 834.24,-200.51"/>
<text text-anchor="middle" x="905.89" y="-217.8" font-family="Times,serif" font-size="14.00">provided by</text>
</g>
<!-- has attribute -->
<g id="node9" class="node">
<title>has attribute</title>
<ellipse fill="none" stroke="blue" cx="920.39" cy="-178" rx="51.99" ry="18"/>
<text text-anchor="middle" x="920.39" y="-174.3" font-family="Times,serif" font-size="14.00">attribute</text>
</g>
<!-- componentservice to componentservice association&#45;&gt;has attribute -->
<g id="edge8" class="edge">
<title>componentservice to componentservice association&#45;&gt;has attribute</title>
<path fill="none" stroke="blue" d="M1008.9,-247.51C995.7,-242.57 982.15,-236.44 970.39,-229 959.48,-222.09 949.1,-212.42 940.65,-203.42"/>
<polygon fill="blue" stroke="blue" points="943.05,-200.86 933.75,-195.77 937.85,-205.55 943.05,-200.86"/>
<text text-anchor="middle" x="1017.39" y="-217.8" font-family="Times,serif" font-size="14.00">has attribute</text>
</g>
<!-- predicate -->
<g id="node10" class="node">
<title>predicate</title>
<ellipse fill="none" stroke="blue" cx="1068.39" cy="-178" rx="77.99" ry="18"/>
<text text-anchor="middle" x="1068.39" y="-174.3" font-family="Times,serif" font-size="14.00">predicate type</text>
</g>
<!-- componentservice to componentservice association&#45;&gt;predicate -->
<g id="edge9" class="edge">
<title>componentservice to componentservice association&#45;&gt;predicate</title>
<path fill="none" stroke="blue" d="M1068.39,-246.8C1068.39,-235.16 1068.39,-219.55 1068.39,-206.24"/>
<polygon fill="blue" stroke="blue" points="1071.89,-206.18 1068.39,-196.18 1064.89,-206.18 1071.89,-206.18"/>
<text text-anchor="middle" x="1102.39" y="-217.8" font-family="Times,serif" font-size="14.00">predicate</text>
</g>
<!-- relation -->
<g id="node11" class="node">
<title>relation</title>
<ellipse fill="none" stroke="blue" cx="1828.39" cy="-18" rx="57.39" ry="18"/>
<text text-anchor="middle" x="1828.39" y="-14.3" font-family="Times,serif" font-size="14.00">uriorcurie</text>
</g>
<!-- componentservice to componentservice association&#45;&gt;relation -->
<g id="edge10" class="edge">
<title>componentservice to componentservice association&#45;&gt;relation</title>
<path fill="none" stroke="blue" d="M1111.48,-247.08C1121.52,-242.08 1131.78,-236.03 1140.39,-229 1170.36,-204.56 1160.78,-180.77 1193.39,-160 1374.97,-44.34 1638.26,-22.75 1760.86,-19.26"/>
<polygon fill="blue" stroke="blue" points="1760.96,-22.76 1770.87,-19.01 1760.78,-15.76 1760.96,-22.76"/>
<text text-anchor="middle" x="1280.39" y="-130.8" font-family="Times,serif" font-size="14.00">relation</text>
</g>
<!-- negated -->
<g id="node12" class="node">
<title>negated</title>
<ellipse fill="none" stroke="blue" cx="1249.39" cy="-178" rx="46.59" ry="18"/>
<text text-anchor="middle" x="1249.39" y="-174.3" font-family="Times,serif" font-size="14.00">boolean</text>
</g>
<!-- componentservice to componentservice association&#45;&gt;negated -->
<g id="edge11" class="edge">
<title>componentservice to componentservice association&#45;&gt;negated</title>
<path fill="none" stroke="blue" d="M1141.62,-247.73C1157.52,-242.82 1173.9,-236.64 1188.39,-229 1201.91,-221.88 1215.23,-211.46 1225.96,-201.98"/>
<polygon fill="blue" stroke="blue" points="1228.59,-204.32 1233.62,-194.99 1223.87,-199.15 1228.59,-204.32"/>
<text text-anchor="middle" x="1239.39" y="-217.8" font-family="Times,serif" font-size="14.00">negated</text>
</g>
<!-- qualifiers -->
<g id="node13" class="node">
<title>qualifiers</title>
<ellipse fill="none" stroke="blue" cx="1390.39" cy="-178" rx="76.89" ry="18"/>
<text text-anchor="middle" x="1390.39" y="-174.3" font-family="Times,serif" font-size="14.00">ontology class</text>
</g>
<!-- componentservice to componentservice association&#45;&gt;qualifiers -->
<g id="edge12" class="edge">
<title>componentservice to componentservice association&#45;&gt;qualifiers</title>
<path fill="none" stroke="blue" d="M1183.56,-249.01C1212.84,-243.91 1244.03,-237.32 1272.39,-229 1298.92,-221.22 1327.5,-209.21 1349.88,-198.91"/>
<polygon fill="blue" stroke="blue" points="1351.49,-202.03 1359.07,-194.62 1348.53,-195.68 1351.49,-202.03"/>
<text text-anchor="middle" x="1345.89" y="-217.8" font-family="Times,serif" font-size="14.00">qualifiers</text>
</g>
<!-- publications -->
<g id="node14" class="node">
<title>publications</title>
<ellipse fill="none" stroke="blue" cx="1547.39" cy="-178" rx="62.29" ry="18"/>
<text text-anchor="middle" x="1547.39" y="-174.3" font-family="Times,serif" font-size="14.00">publication</text>
</g>
<!-- componentservice to componentservice association&#45;&gt;publications -->
<g id="edge13" class="edge">
<title>componentservice to componentservice association&#45;&gt;publications</title>
<path fill="none" stroke="blue" d="M1233.2,-251.5C1281.86,-246.25 1335.03,-238.97 1383.39,-229 1423.55,-220.72 1467.98,-206.88 1500.45,-195.85"/>
<polygon fill="blue" stroke="blue" points="1501.8,-199.09 1510.13,-192.53 1499.53,-192.47 1501.8,-199.09"/>
<text text-anchor="middle" x="1487.39" y="-217.8" font-family="Times,serif" font-size="14.00">publications</text>
</g>
<!-- type -->
<g id="node15" class="node">
<title>type</title>
<ellipse fill="none" stroke="black" cx="1659.39" cy="-178" rx="31.4" ry="18"/>
<text text-anchor="middle" x="1659.39" y="-174.3" font-family="Times,serif" font-size="14.00">type</text>
</g>
<!-- componentservice to componentservice association&#45;&gt;type -->
<g id="edge14" class="edge">
<title>componentservice to componentservice association&#45;&gt;type</title>
<path fill="none" stroke="blue" d="M1243.02,-252.15C1369.53,-243.36 1520.86,-232.35 1535.39,-229 1567.94,-221.5 1603.08,-206.63 1627.61,-195.05"/>
<polygon fill="blue" stroke="blue" points="1629.29,-198.12 1636.79,-190.64 1626.26,-191.82 1629.29,-198.12"/>
<text text-anchor="middle" x="1597.39" y="-217.8" font-family="Times,serif" font-size="14.00">type</text>
</g>
<!-- category -->
<g id="node17" class="node">
<title>category</title>
<ellipse fill="none" stroke="black" cx="1760.39" cy="-178" rx="51.19" ry="18"/>
<text text-anchor="middle" x="1760.39" y="-174.3" font-family="Times,serif" font-size="14.00">category</text>
</g>
<!-- componentservice to componentservice association&#45;&gt;category -->
<g id="edge15" class="edge">
<title>componentservice to componentservice association&#45;&gt;category</title>
<path fill="none" stroke="blue" d="M1244.99,-252.27C1272.25,-250.49 1300.08,-248.68 1326.39,-247 1455.71,-238.74 1490.37,-254.63 1617.39,-229 1653.02,-221.81 1691.86,-207.81 1720.06,-196.45"/>
<polygon fill="blue" stroke="blue" points="1721.64,-199.59 1729.57,-192.56 1718.99,-193.11 1721.64,-199.59"/>
<text text-anchor="middle" x="1701.89" y="-217.8" font-family="Times,serif" font-size="14.00">category</text>
</g>
<!-- subject -->
<g id="node19" class="node">
<title>subject</title>
<ellipse fill="none" stroke="black" cx="1874.39" cy="-178" rx="44.39" ry="18"/>
<text text-anchor="middle" x="1874.39" y="-174.3" font-family="Times,serif" font-size="14.00">subject</text>
</g>
<!-- componentservice to componentservice association&#45;&gt;subject -->
<g id="edge16" class="edge">
<title>componentservice to componentservice association&#45;&gt;subject</title>
<path fill="none" stroke="blue" d="M1241.84,-252.05C1270.09,-250.25 1299.05,-248.5 1326.39,-247 1417.68,-241.99 1647.74,-246.88 1737.39,-229 1772.22,-222.05 1810.02,-207.71 1837.07,-196.16"/>
<polygon fill="blue" stroke="blue" points="1838.75,-199.24 1846.52,-192.05 1835.96,-192.82 1838.75,-199.24"/>
<text text-anchor="middle" x="1813.39" y="-217.8" font-family="Times,serif" font-size="14.00">subject</text>
</g>
<!-- object -->
<g id="node21" class="node">
<title>object</title>
<ellipse fill="none" stroke="black" cx="1895.39" cy="-91" rx="38.99" ry="18"/>
<text text-anchor="middle" x="1895.39" y="-87.3" font-family="Times,serif" font-size="14.00">object</text>
</g>
<!-- componentservice to componentservice association&#45;&gt;object -->
<g id="edge17" class="edge">
<title>componentservice to componentservice association&#45;&gt;object</title>
<path fill="none" stroke="blue" d="M1240.09,-251.94C1268.9,-250.13 1298.49,-248.4 1326.39,-247 1441.21,-241.22 1730.83,-252.35 1843.39,-229 1882.67,-220.85 1901.06,-226.25 1927.39,-196 1947.89,-172.46 1954.1,-155.03 1940.39,-127 1937.54,-121.17 1933.19,-116.02 1928.3,-111.6"/>
<polygon fill="blue" stroke="blue" points="1930.32,-108.73 1920.32,-105.25 1925.96,-114.21 1930.32,-108.73"/>
<text text-anchor="middle" x="1968.39" y="-174.3" font-family="Times,serif" font-size="14.00">object</text>
</g>
<!-- association_type -->
<g id="node16" class="node">
<title>association_type</title>
<ellipse fill="none" stroke="blue" cx="1373.39" cy="-265" rx="38.19" ry="18"/>
<text text-anchor="middle" x="1373.39" y="-261.3" font-family="Times,serif" font-size="14.00">string</text>
</g>
<!-- association_category -->
<g id="node18" class="node">
<title>association_category</title>
<ellipse fill="none" stroke="blue" cx="1492.39" cy="-265" rx="62.29" ry="18"/>
<text text-anchor="middle" x="1492.39" y="-261.3" font-family="Times,serif" font-size="14.00">association</text>
</g>
<!-- subject&#45;&gt;relation -->
<g id="edge19" class="edge">
<title>subject&#45;&gt;relation</title>
<path fill="none" stroke="black" stroke-dasharray="1,5" d="M1866.81,-160.24C1860.89,-146.64 1852.79,-126.88 1847.39,-109 1841.14,-88.27 1836.18,-64.24 1832.9,-46.23"/>
<polygon fill="black" stroke="black" points="1836.3,-45.38 1831.12,-36.14 1829.41,-46.59 1836.3,-45.38"/>
</g>
<!-- subject&#45;&gt;object -->
<g id="edge18" class="edge">
<title>subject&#45;&gt;object</title>
<path fill="none" stroke="black" d="M1877.37,-159.77C1879.16,-150.09 1881.62,-137.8 1884.39,-127 1885.08,-124.32 1885.85,-121.53 1886.66,-118.76"/>
<polygon fill="black" stroke="black" points="1890.07,-119.57 1889.65,-108.98 1883.38,-117.52 1890.07,-119.57"/>
<text text-anchor="middle" x="1912.39" y="-130.8" font-family="Times,serif" font-size="14.00">relation</text>
</g>
<!-- componentservice to componentservice association_subject -->
<g id="node20" class="node">
<title>componentservice to componentservice association_subject</title>
<ellipse fill="none" stroke="blue" cx="1737.39" cy="-265" rx="164.37" ry="18"/>
<text text-anchor="middle" x="1737.39" y="-261.3" font-family="Times,serif" font-size="14.00">componentservice or servicetype</text>
</g>
<!-- object&#45;&gt;relation -->
<g id="edge20" class="edge">
<title>object&#45;&gt;relation</title>
<path fill="none" stroke="black" stroke-dasharray="1,5" d="M1880.52,-74.24C1871.92,-65.13 1860.92,-53.47 1851.24,-43.21"/>
<polygon fill="black" stroke="black" points="1853.56,-40.57 1844.16,-35.7 1848.47,-45.38 1853.56,-40.57"/>
</g>
<!-- componentservice to componentservice association_object -->
<g id="node22" class="node">
<title>componentservice to componentservice association_object</title>
<ellipse fill="none" stroke="blue" cx="2084.39" cy="-265" rx="164.37" ry="18"/>
<text text-anchor="middle" x="2084.39" y="-261.3" font-family="Times,serif" font-size="14.00">componentservice or servicetype</text>
</g>
</g>
</svg>
