<?xml version="1.0" encoding="UTF-8" standalone="no"?>
<!DOCTYPE svg PUBLIC "-//W3C//DTD SVG 1.1//EN"
 "http://www.w3.org/Graphics/SVG/1.1/DTD/svg11.dtd">
<!-- Generated by graphviz version 2.43.0 (0)
 -->
<!-- Title: %3 Pages: 1 -->
<svg width="878pt" height="131pt"
 viewBox="0.00 0.00 878.28 131.00" xmlns="http://www.w3.org/2000/svg" xmlns:xlink="http://www.w3.org/1999/xlink">
<g id="graph0" class="graph" transform="scale(1 1) rotate(0) translate(4 127)">
<title>%3</title>
<polygon fill="white" stroke="transparent" points="-4,4 -4,-127 874.28,-127 874.28,4 -4,4"/>
<!-- componentservice availability mixin -->
<g id="node1" class="node">
<title>componentservice availability mixin</title>
<ellipse fill="none" stroke="black" cx="403.49" cy="-105" rx="178.17" ry="18"/>
<text text-anchor="middle" x="403.49" y="-101.3" font-family="Times,serif" font-size="14.00">componentservice availability mixin</text>
</g>
<!-- quantifier qualifier -->
<g id="node2" class="node">
<title>quantifier qualifier</title>
<ellipse fill="none" stroke="black" cx="97.49" cy="-18" rx="97.48" ry="18"/>
<text text-anchor="middle" x="97.49" y="-14.3" font-family="Times,serif" font-size="14.00">quantifier qualifier</text>
</g>
<!-- componentservice availability mixin&#45;&gt;quantifier qualifier -->
<g id="edge1" class="edge">
<title>componentservice availability mixin&#45;&gt;quantifier qualifier</title>
<path fill="none" stroke="blue" d="M303.32,-90.09C273.74,-84.79 241.52,-77.84 212.49,-69 187.27,-61.32 160.19,-49.72 138.64,-39.62"/>
<polygon fill="blue" stroke="blue" points="139.99,-36.39 129.46,-35.26 136.99,-42.71 139.99,-36.39"/>
<text text-anchor="middle" x="279.49" y="-57.8" font-family="Times,serif" font-size="14.00">quantifier qualifier</text>
</g>
<!-- availability site -->
<g id="node4" class="node">
<title>availability site</title>
<ellipse fill="none" stroke="blue" cx="308.49" cy="-18" rx="95.58" ry="18"/>
<text text-anchor="middle" x="308.49" y="-14.3" font-family="Times,serif" font-size="14.00">deployment entity</text>
</g>
<!-- componentservice availability mixin&#45;&gt;availability site -->
<g id="edge2" class="edge">
<title>componentservice availability mixin&#45;&gt;availability site</title>
<path fill="none" stroke="blue" d="M384.27,-86.8C370.14,-74.16 350.76,-56.82 335.14,-42.85"/>
<polygon fill="blue" stroke="blue" points="337.15,-39.94 327.36,-35.89 332.48,-45.16 337.15,-39.94"/>
<text text-anchor="middle" x="417.49" y="-57.8" font-family="Times,serif" font-size="14.00">availability site</text>
</g>
<!-- stage qualifier -->
<g id="node5" class="node">
<title>stage qualifier</title>
<ellipse fill="none" stroke="blue" cx="499.49" cy="-18" rx="77.19" ry="18"/>
<text text-anchor="middle" x="499.49" y="-14.3" font-family="Times,serif" font-size="14.00">lifecycle stage</text>
</g>
<!-- componentservice availability mixin&#45;&gt;stage qualifier -->
<g id="edge3" class="edge">
<title>componentservice availability mixin&#45;&gt;stage qualifier</title>
<path fill="none" stroke="blue" d="M450.28,-87.52C459.77,-82.63 469.1,-76.51 476.49,-69 482.95,-62.44 487.8,-53.74 491.34,-45.44"/>
<polygon fill="blue" stroke="blue" points="494.64,-46.62 494.92,-36.03 488.1,-44.13 494.64,-46.62"/>
<text text-anchor="middle" x="538.99" y="-57.8" font-family="Times,serif" font-size="14.00">stage qualifier</text>
</g>
<!-- observable state -->
<g id="node6" class="node">
<title>observable state</title>
<ellipse fill="none" stroke="blue" cx="732.49" cy="-18" rx="137.58" ry="18"/>
<text text-anchor="middle" x="732.49" y="-14.3" font-family="Times,serif" font-size="14.00">error or observable feature</text>
</g>
<!-- componentservice availability mixin&#45;&gt;observable state -->
<g id="edge4" class="edge">
<title>componentservice availability mixin&#45;&gt;observable state</title>
<path fill="none" stroke="blue" d="M498.91,-89.73C529.67,-84.27 563.74,-77.33 594.49,-69 624.48,-60.88 657.21,-49.15 683.26,-39.1"/>
<polygon fill="blue" stroke="blue" points="684.86,-42.23 692.9,-35.34 682.31,-35.71 684.86,-42.23"/>
<text text-anchor="middle" x="699.99" y="-57.8" font-family="Times,serif" font-size="14.00">observable state</text>
</g>
<!-- componentservice availability mixin_quantifier qualifier -->
<g id="node3" class="node">
<title>componentservice availability mixin_quantifier qualifier</title>
<ellipse fill="none" stroke="blue" cx="676.49" cy="-105" rx="76.89" ry="18"/>
<text text-anchor="middle" x="676.49" y="-101.3" font-family="Times,serif" font-size="14.00">ontology class</text>
</g>
</g>
</svg>
