<?xml version="1.0" encoding="UTF-8" standalone="no"?>
<!DOCTYPE svg PUBLIC "-//W3C//DTD SVG 1.1//EN"
 "http://www.w3.org/Graphics/SVG/1.1/DTD/svg11.dtd">
<!-- Generated by graphviz version 2.43.0 (0)
 -->
<!-- Title: %3 Pages: 1 -->
<svg width="1273pt" height="131pt"
 viewBox="0.00 0.00 1273.39 131.00" xmlns="http://www.w3.org/2000/svg" xmlns:xlink="http://www.w3.org/1999/xlink">
<g id="graph0" class="graph" transform="scale(1 1) rotate(0) translate(4 127)">
<title>%3</title>
<polygon fill="white" stroke="transparent" points="-4,4 -4,-127 1269.39,-127 1269.39,4 -4,4"/>
<!-- component type -->
<g id="node1" class="node">
<title>component type</title>
<ellipse fill="none" stroke="black" cx="609.89" cy="-105" rx="85.29" ry="18"/>
<text text-anchor="middle" x="609.89" y="-101.3" font-family="Times,serif" font-size="14.00">component type</text>
</g>
<!-- systemic entity -->
<g id="node2" class="node">
<title>systemic entity</title>
<ellipse fill="none" stroke="black" cx="81.89" cy="-18" rx="81.79" ry="18"/>
<text text-anchor="middle" x="81.89" y="-14.3" font-family="Times,serif" font-size="14.00">systemic entity</text>
</g>
<!-- component type&#45;&gt;systemic entity -->
<g id="edge1" class="edge">
<title>component type&#45;&gt;systemic entity</title>
<path fill="none" stroke="black" d="M533.15,-97.17C472.36,-91.26 385.4,-81.65 309.89,-69 253.3,-59.52 189.55,-45.23 143.88,-34.35"/>
<polygon fill="black" stroke="black" points="144.67,-30.94 134.13,-32.01 143.04,-37.75 144.67,-30.94"/>
<text text-anchor="middle" x="323.89" y="-57.8" font-family="Times,serif" font-size="14.00">is_a</text>
</g>
<!-- id -->
<g id="node3" class="node">
<title>id</title>
<ellipse fill="none" stroke="blue" cx="219.89" cy="-18" rx="38.19" ry="18"/>
<text text-anchor="middle" x="219.89" y="-14.3" font-family="Times,serif" font-size="14.00">string</text>
</g>
<!-- component type&#45;&gt;id -->
<g id="edge2" class="edge">
<title>component type&#45;&gt;id</title>
<path fill="none" stroke="blue" d="M542.27,-93.93C472.71,-82.78 361.6,-62.79 267.89,-36 264.79,-35.11 261.6,-34.13 258.4,-33.11"/>
<polygon fill="blue" stroke="blue" points="259.49,-29.78 248.9,-29.92 257.27,-36.42 259.49,-29.78"/>
<text text-anchor="middle" x="405.89" y="-57.8" font-family="Times,serif" font-size="14.00">id</text>
</g>
<!-- iri -->
<g id="node4" class="node">
<title>iri</title>
<ellipse fill="none" stroke="blue" cx="320.89" cy="-18" rx="44.39" ry="18"/>
<text text-anchor="middle" x="320.89" y="-14.3" font-family="Times,serif" font-size="14.00">iri type</text>
</g>
<!-- component type&#45;&gt;iri -->
<g id="edge3" class="edge">
<title>component type&#45;&gt;iri</title>
<path fill="none" stroke="blue" d="M560.26,-90.33C537.3,-83.95 509.68,-76.19 484.89,-69 435.87,-54.78 423.68,-51 374.89,-36 371.4,-34.93 367.78,-33.81 364.15,-32.67"/>
<polygon fill="blue" stroke="blue" points="365.16,-29.32 354.57,-29.68 363.07,-36.01 365.16,-29.32"/>
<text text-anchor="middle" x="492.89" y="-57.8" font-family="Times,serif" font-size="14.00">iri</text>
</g>
<!-- type -->
<g id="node5" class="node">
<title>type</title>
<ellipse fill="none" stroke="blue" cx="421.89" cy="-18" rx="38.19" ry="18"/>
<text text-anchor="middle" x="421.89" y="-14.3" font-family="Times,serif" font-size="14.00">string</text>
</g>
<!-- component type&#45;&gt;type -->
<g id="edge4" class="edge">
<title>component type&#45;&gt;type</title>
<path fill="none" stroke="blue" d="M575.41,-88.41C542.12,-73.36 491.93,-50.66 458.08,-35.36"/>
<polygon fill="blue" stroke="blue" points="459.12,-31.99 448.56,-31.06 456.23,-38.37 459.12,-31.99"/>
<text text-anchor="middle" x="543.89" y="-57.8" font-family="Times,serif" font-size="14.00">type</text>
</g>
<!-- name -->
<g id="node6" class="node">
<title>name</title>
<ellipse fill="none" stroke="blue" cx="534.89" cy="-18" rx="56.59" ry="18"/>
<text text-anchor="middle" x="534.89" y="-14.3" font-family="Times,serif" font-size="14.00">label type</text>
</g>
<!-- component type&#45;&gt;name -->
<g id="edge5" class="edge">
<title>component type&#45;&gt;name</title>
<path fill="none" stroke="blue" d="M595.08,-87.21C584.01,-74.67 568.73,-57.35 556.34,-43.3"/>
<polygon fill="blue" stroke="blue" points="558.67,-40.65 549.42,-35.47 553.42,-45.28 558.67,-40.65"/>
<text text-anchor="middle" x="596.89" y="-57.8" font-family="Times,serif" font-size="14.00">name</text>
</g>
<!-- description -->
<g id="node7" class="node">
<title>description</title>
<ellipse fill="none" stroke="blue" cx="684.89" cy="-18" rx="75.29" ry="18"/>
<text text-anchor="middle" x="684.89" y="-14.3" font-family="Times,serif" font-size="14.00">narrative text</text>
</g>
<!-- component type&#45;&gt;description -->
<g id="edge6" class="edge">
<title>component type&#45;&gt;description</title>
<path fill="none" stroke="blue" d="M624.71,-87.21C635.7,-74.75 650.86,-57.57 663.21,-43.57"/>
<polygon fill="blue" stroke="blue" points="666.11,-45.57 670.11,-35.76 660.87,-40.94 666.11,-45.57"/>
<text text-anchor="middle" x="692.39" y="-57.8" font-family="Times,serif" font-size="14.00">description</text>
</g>
<!-- source -->
<g id="node8" class="node">
<title>source</title>
<ellipse fill="none" stroke="blue" cx="834.89" cy="-18" rx="56.59" ry="18"/>
<text text-anchor="middle" x="834.89" y="-14.3" font-family="Times,serif" font-size="14.00">label type</text>
</g>
<!-- component type&#45;&gt;source -->
<g id="edge7" class="edge">
<title>component type&#45;&gt;source</title>
<path fill="none" stroke="blue" d="M665.38,-91.31C687.91,-85.5 713.97,-77.9 736.89,-69 758.52,-60.6 781.69,-48.92 800.07,-38.95"/>
<polygon fill="blue" stroke="blue" points="801.86,-41.96 808.94,-34.07 798.49,-35.83 801.86,-41.96"/>
<text text-anchor="middle" x="794.89" y="-57.8" font-family="Times,serif" font-size="14.00">source</text>
</g>
<!-- provided by -->
<g id="node9" class="node">
<title>provided by</title>
<ellipse fill="none" stroke="blue" cx="946.89" cy="-18" rx="37.09" ry="18"/>
<text text-anchor="middle" x="946.89" y="-14.3" font-family="Times,serif" font-size="14.00">agent</text>
</g>
<!-- component type&#45;&gt;provided by -->
<g id="edge8" class="edge">
<title>component type&#45;&gt;provided by</title>
<path fill="none" stroke="blue" d="M671.79,-92.54C682.49,-90.64 693.5,-88.72 703.89,-87 756.66,-78.24 771.29,-83.1 822.89,-69 853.93,-60.52 887.7,-46.57 912.16,-35.55"/>
<polygon fill="blue" stroke="blue" points="913.73,-38.68 921.37,-31.34 910.82,-32.31 913.73,-38.68"/>
<text text-anchor="middle" x="907.39" y="-57.8" font-family="Times,serif" font-size="14.00">provided by</text>
</g>
<!-- category -->
<g id="node10" class="node">
<title>category</title>
<ellipse fill="none" stroke="black" cx="1052.89" cy="-18" rx="51.19" ry="18"/>
<text text-anchor="middle" x="1052.89" y="-14.3" font-family="Times,serif" font-size="14.00">category</text>
</g>
<!-- component type&#45;&gt;category -->
<g id="edge9" class="edge">
<title>component type&#45;&gt;category</title>
<path fill="none" stroke="blue" d="M669.92,-92.16C681.18,-90.22 692.87,-88.39 703.89,-87 814.42,-73.07 846.52,-98.69 953.89,-69 977.5,-62.47 1002.08,-50.09 1020.85,-39.28"/>
<polygon fill="blue" stroke="blue" points="1022.73,-42.23 1029.57,-34.13 1019.18,-36.2 1022.73,-42.23"/>
<text text-anchor="middle" x="1022.39" y="-57.8" font-family="Times,serif" font-size="14.00">category</text>
</g>
<!-- has attribute -->
<g id="node12" class="node">
<title>has attribute</title>
<ellipse fill="none" stroke="black" cx="1193.89" cy="-18" rx="71.49" ry="18"/>
<text text-anchor="middle" x="1193.89" y="-14.3" font-family="Times,serif" font-size="14.00">has attribute</text>
</g>
<!-- component type&#45;&gt;has attribute -->
<g id="edge10" class="edge">
<title>component type&#45;&gt;has attribute</title>
<path fill="none" stroke="blue" d="M669.39,-92.05C680.81,-90.1 692.69,-88.29 703.89,-87 860.39,-68.95 903.55,-100.54 1057.89,-69 1090.49,-62.34 1125.71,-49.22 1152.13,-38.08"/>
<polygon fill="blue" stroke="blue" points="1153.64,-41.25 1161.45,-34.09 1150.88,-34.81 1153.64,-41.25"/>
<text text-anchor="middle" x="1153.89" y="-57.8" font-family="Times,serif" font-size="14.00">has attribute</text>
</g>
<!-- named thing_category -->
<g id="node11" class="node">
<title>named thing_category</title>
<ellipse fill="none" stroke="blue" cx="782.89" cy="-105" rx="69.59" ry="18"/>
<text text-anchor="middle" x="782.89" y="-101.3" font-family="Times,serif" font-size="14.00">named thing</text>
</g>
<!-- systemic entity_has attribute -->
<g id="node13" class="node">
<title>systemic entity_has attribute</title>
<ellipse fill="none" stroke="blue" cx="922.89" cy="-105" rx="51.99" ry="18"/>
<text text-anchor="middle" x="922.89" y="-101.3" font-family="Times,serif" font-size="14.00">attribute</text>
</g>
</g>
</svg>
