<?xml version="1.0" encoding="UTF-8" standalone="no"?>
<!DOCTYPE svg PUBLIC "-//W3C//DTD SVG 1.1//EN"
 "http://www.w3.org/Graphics/SVG/1.1/DTD/svg11.dtd">
<!-- Generated by graphviz version 2.43.0 (0)
 -->
<!-- Title: %3 Pages: 1 -->
<svg width="761pt" height="131pt"
 viewBox="0.00 0.00 760.63 131.00" xmlns="http://www.w3.org/2000/svg" xmlns:xlink="http://www.w3.org/1999/xlink">
<g id="graph0" class="graph" transform="scale(1 1) rotate(0) translate(4 127)">
<title>%3</title>
<polygon fill="white" stroke="transparent" points="-4,4 -4,-127 756.63,-127 756.63,4 -4,4"/>
<!-- componentservice -->
<g id="node1" class="node">
<title>componentservice</title>
<ellipse fill="none" stroke="black" cx="429.44" cy="-105" rx="94.78" ry="18"/>
<text text-anchor="middle" x="429.44" y="-101.3" font-family="Times,serif" font-size="14.00">componentservice</text>
</g>
<!-- componentservice or servicetype -->
<g id="node2" class="node">
<title>componentservice or servicetype</title>
<ellipse fill="none" stroke="black" cx="164.44" cy="-18" rx="164.37" ry="18"/>
<text text-anchor="middle" x="164.44" y="-14.3" font-family="Times,serif" font-size="14.00">componentservice or servicetype</text>
</g>
<!-- componentservice&#45;&gt;componentservice or servicetype -->
<g id="edge1" class="edge">
<title>componentservice&#45;&gt;componentservice or servicetype</title>
<path fill="none" stroke="black" d="M351.2,-94.71C318.99,-89.38 281.74,-81.23 249.44,-69 231.1,-62.06 212.16,-51.32 196.82,-41.57"/>
<polygon fill="black" stroke="black" points="198.53,-38.51 188.24,-35.98 194.71,-44.38 198.53,-38.51"/>
<text text-anchor="middle" x="263.44" y="-57.8" font-family="Times,serif" font-size="14.00">is_a</text>
</g>
<!-- componentservice&#45;&gt;componentservice or servicetype -->
<g id="edge2" class="edge">
<title>componentservice&#45;&gt;componentservice or servicetype</title>
<path fill="none" stroke="black" d="M384.61,-89.03C354.37,-78.98 313.56,-65.53 277.44,-54 261,-48.75 243.18,-43.18 226.66,-38.06"/>
<polygon fill="black" stroke="black" points="227.69,-34.71 217.1,-35.1 225.62,-41.4 227.69,-34.71"/>
<text text-anchor="middle" x="340.94" y="-57.8" font-family="Times,serif" font-size="14.00">uses</text>
</g>
<!-- name -->
<g id="node3" class="node">
<title>name</title>
<ellipse fill="none" stroke="black" cx="383.44" cy="-18" rx="36.29" ry="18"/>
<text text-anchor="middle" x="383.44" y="-14.3" font-family="Times,serif" font-size="14.00">name</text>
</g>
<!-- componentservice&#45;&gt;name -->
<g id="edge3" class="edge">
<title>componentservice&#45;&gt;name</title>
<path fill="none" stroke="blue" d="M420.13,-86.8C413.56,-74.66 404.64,-58.19 397.25,-44.52"/>
<polygon fill="blue" stroke="blue" points="400.25,-42.73 392.42,-35.6 394.1,-46.06 400.25,-42.73"/>
<text text-anchor="middle" x="429.44" y="-57.8" font-family="Times,serif" font-size="14.00">name</text>
</g>
<!-- symbol -->
<g id="node5" class="node">
<title>symbol</title>
<ellipse fill="none" stroke="blue" cx="476.44" cy="-18" rx="38.19" ry="18"/>
<text text-anchor="middle" x="476.44" y="-14.3" font-family="Times,serif" font-size="14.00">string</text>
</g>
<!-- componentservice&#45;&gt;symbol -->
<g id="edge4" class="edge">
<title>componentservice&#45;&gt;symbol</title>
<path fill="none" stroke="blue" d="M442,-86.93C445.87,-81.34 450.02,-75.02 453.44,-69 457.68,-61.52 461.78,-53.12 465.32,-45.37"/>
<polygon fill="blue" stroke="blue" points="468.61,-46.58 469.46,-36.02 462.21,-43.75 468.61,-46.58"/>
<text text-anchor="middle" x="487.44" y="-57.8" font-family="Times,serif" font-size="14.00">symbol</text>
</g>
<!-- synonym -->
<g id="node6" class="node">
<title>synonym</title>
<ellipse fill="none" stroke="blue" cx="589.44" cy="-18" rx="56.59" ry="18"/>
<text text-anchor="middle" x="589.44" y="-14.3" font-family="Times,serif" font-size="14.00">label type</text>
</g>
<!-- componentservice&#45;&gt;synonym -->
<g id="edge5" class="edge">
<title>componentservice&#45;&gt;synonym</title>
<path fill="none" stroke="blue" d="M473.3,-88.82C487.68,-83.26 503.53,-76.47 517.44,-69 532.36,-60.99 547.92,-50.49 560.74,-41.18"/>
<polygon fill="blue" stroke="blue" points="563.17,-43.73 569.13,-34.97 559.01,-38.1 563.17,-43.73"/>
<text text-anchor="middle" x="574.44" y="-57.8" font-family="Times,serif" font-size="14.00">synonym</text>
</g>
<!-- xref -->
<g id="node7" class="node">
<title>xref</title>
<ellipse fill="none" stroke="blue" cx="708.44" cy="-18" rx="44.39" ry="18"/>
<text text-anchor="middle" x="708.44" y="-14.3" font-family="Times,serif" font-size="14.00">iri type</text>
</g>
<!-- componentservice&#45;&gt;xref -->
<g id="edge6" class="edge">
<title>componentservice&#45;&gt;xref</title>
<path fill="none" stroke="blue" d="M498.83,-92.65C540.79,-85.38 590.01,-76.03 610.44,-69 633.15,-61.18 657.19,-48.98 675.78,-38.59"/>
<polygon fill="blue" stroke="blue" points="677.75,-41.5 684.71,-33.51 674.28,-35.42 677.75,-41.5"/>
<text text-anchor="middle" x="657.94" y="-57.8" font-family="Times,serif" font-size="14.00">xref</text>
</g>
<!-- macrooperational machine mixin_name -->
<g id="node4" class="node">
<title>macrooperational machine mixin_name</title>
<ellipse fill="none" stroke="blue" cx="609.44" cy="-105" rx="67.69" ry="18"/>
<text text-anchor="middle" x="609.44" y="-101.3" font-family="Times,serif" font-size="14.00">symbol type</text>
</g>
</g>
</svg>
