<?xml version="1.0" encoding="UTF-8" standalone="no"?>
<!DOCTYPE svg PUBLIC "-//W3C//DTD SVG 1.1//EN"
 "http://www.w3.org/Graphics/SVG/1.1/DTD/svg11.dtd">
<!-- Generated by graphviz version 2.43.0 (0)
 -->
<!-- Title: %3 Pages: 1 -->
<svg width="1210pt" height="131pt"
 viewBox="0.00 0.00 1209.89 131.00" xmlns="http://www.w3.org/2000/svg" xmlns:xlink="http://www.w3.org/1999/xlink">
<g id="graph0" class="graph" transform="scale(1 1) rotate(0) translate(4 127)">
<title>%3</title>
<polygon fill="white" stroke="transparent" points="-4,4 -4,-127 1205.89,-127 1205.89,4 -4,4"/>
<!-- computational entity -->
<g id="node1" class="node">
<title>computational entity</title>
<ellipse fill="none" stroke="black" cx="585.54" cy="-105" rx="107.48" ry="18"/>
<text text-anchor="middle" x="585.54" y="-101.3" font-family="Times,serif" font-size="14.00">computational entity</text>
</g>
<!-- named thing -->
<g id="node2" class="node">
<title>named thing</title>
<ellipse fill="none" stroke="black" cx="69.54" cy="-18" rx="69.59" ry="18"/>
<text text-anchor="middle" x="69.54" y="-14.3" font-family="Times,serif" font-size="14.00">named thing</text>
</g>
<!-- computational entity&#45;&gt;named thing -->
<g id="edge1" class="edge">
<title>computational entity&#45;&gt;named thing</title>
<path fill="none" stroke="black" d="M492.92,-95.88C433.43,-90.01 354.65,-80.99 285.54,-69 231.01,-59.54 169.59,-44.93 126.22,-33.94"/>
<polygon fill="black" stroke="black" points="126.98,-30.52 116.43,-31.44 125.25,-37.31 126.98,-30.52"/>
<text text-anchor="middle" x="299.54" y="-57.8" font-family="Times,serif" font-size="14.00">is_a</text>
</g>
<!-- id -->
<g id="node3" class="node">
<title>id</title>
<ellipse fill="none" stroke="blue" cx="195.54" cy="-18" rx="38.19" ry="18"/>
<text text-anchor="middle" x="195.54" y="-14.3" font-family="Times,serif" font-size="14.00">string</text>
</g>
<!-- computational entity&#45;&gt;id -->
<g id="edge2" class="edge">
<title>computational entity&#45;&gt;id</title>
<path fill="none" stroke="blue" d="M508.62,-92.42C438.73,-81.03 333.18,-61.63 243.54,-36 240.44,-35.11 237.25,-34.13 234.05,-33.11"/>
<polygon fill="blue" stroke="blue" points="235.14,-29.78 224.55,-29.92 232.92,-36.42 235.14,-29.78"/>
<text text-anchor="middle" x="381.54" y="-57.8" font-family="Times,serif" font-size="14.00">id</text>
</g>
<!-- iri -->
<g id="node4" class="node">
<title>iri</title>
<ellipse fill="none" stroke="blue" cx="296.54" cy="-18" rx="44.39" ry="18"/>
<text text-anchor="middle" x="296.54" y="-14.3" font-family="Times,serif" font-size="14.00">iri type</text>
</g>
<!-- computational entity&#45;&gt;iri -->
<g id="edge3" class="edge">
<title>computational entity&#45;&gt;iri</title>
<path fill="none" stroke="blue" d="M532.26,-89.31C510.06,-83.13 484.03,-75.81 460.54,-69 411.52,-54.78 399.33,-51 350.54,-36 347.05,-34.93 343.43,-33.81 339.8,-32.67"/>
<polygon fill="blue" stroke="blue" points="340.81,-29.32 330.22,-29.68 338.72,-36.01 340.81,-29.32"/>
<text text-anchor="middle" x="468.54" y="-57.8" font-family="Times,serif" font-size="14.00">iri</text>
</g>
<!-- type -->
<g id="node5" class="node">
<title>type</title>
<ellipse fill="none" stroke="blue" cx="397.54" cy="-18" rx="38.19" ry="18"/>
<text text-anchor="middle" x="397.54" y="-14.3" font-family="Times,serif" font-size="14.00">string</text>
</g>
<!-- computational entity&#45;&gt;type -->
<g id="edge4" class="edge">
<title>computational entity&#45;&gt;type</title>
<path fill="none" stroke="blue" d="M549.74,-87.81C516.38,-72.73 466.91,-50.36 433.5,-35.26"/>
<polygon fill="blue" stroke="blue" points="434.67,-31.94 424.11,-31.01 431.78,-38.32 434.67,-31.94"/>
<text text-anchor="middle" x="519.54" y="-57.8" font-family="Times,serif" font-size="14.00">type</text>
</g>
<!-- name -->
<g id="node6" class="node">
<title>name</title>
<ellipse fill="none" stroke="blue" cx="510.54" cy="-18" rx="56.59" ry="18"/>
<text text-anchor="middle" x="510.54" y="-14.3" font-family="Times,serif" font-size="14.00">label type</text>
</g>
<!-- computational entity&#45;&gt;name -->
<g id="edge5" class="edge">
<title>computational entity&#45;&gt;name</title>
<path fill="none" stroke="blue" d="M570.37,-86.8C559.35,-74.31 544.28,-57.24 532.03,-43.35"/>
<polygon fill="blue" stroke="blue" points="534.43,-40.78 525.19,-35.6 529.18,-45.41 534.43,-40.78"/>
<text text-anchor="middle" x="572.54" y="-57.8" font-family="Times,serif" font-size="14.00">name</text>
</g>
<!-- description -->
<g id="node7" class="node">
<title>description</title>
<ellipse fill="none" stroke="blue" cx="660.54" cy="-18" rx="75.29" ry="18"/>
<text text-anchor="middle" x="660.54" y="-14.3" font-family="Times,serif" font-size="14.00">narrative text</text>
</g>
<!-- computational entity&#45;&gt;description -->
<g id="edge6" class="edge">
<title>computational entity&#45;&gt;description</title>
<path fill="none" stroke="blue" d="M600.72,-86.8C611.67,-74.39 626.61,-57.46 638.82,-43.62"/>
<polygon fill="blue" stroke="blue" points="641.65,-45.7 645.64,-35.89 636.4,-41.07 641.65,-45.7"/>
<text text-anchor="middle" x="668.04" y="-57.8" font-family="Times,serif" font-size="14.00">description</text>
</g>
<!-- source -->
<g id="node8" class="node">
<title>source</title>
<ellipse fill="none" stroke="blue" cx="810.54" cy="-18" rx="56.59" ry="18"/>
<text text-anchor="middle" x="810.54" y="-14.3" font-family="Times,serif" font-size="14.00">label type</text>
</g>
<!-- computational entity&#45;&gt;source -->
<g id="edge7" class="edge">
<title>computational entity&#45;&gt;source</title>
<path fill="none" stroke="blue" d="M645.8,-90.07C667.18,-84.43 691.22,-77.28 712.54,-69 734.17,-60.6 757.34,-48.92 775.72,-38.95"/>
<polygon fill="blue" stroke="blue" points="777.52,-41.96 784.59,-34.07 774.14,-35.83 777.52,-41.96"/>
<text text-anchor="middle" x="770.54" y="-57.8" font-family="Times,serif" font-size="14.00">source</text>
</g>
<!-- provided by -->
<g id="node9" class="node">
<title>provided by</title>
<ellipse fill="none" stroke="blue" cx="922.54" cy="-18" rx="37.09" ry="18"/>
<text text-anchor="middle" x="922.54" y="-14.3" font-family="Times,serif" font-size="14.00">agent</text>
</g>
<!-- computational entity&#45;&gt;provided by -->
<g id="edge8" class="edge">
<title>computational entity&#45;&gt;provided by</title>
<path fill="none" stroke="blue" d="M661.86,-92.3C717.48,-83.63 785.33,-72.7 798.54,-69 829.52,-60.32 863.31,-46.39 887.77,-35.43"/>
<polygon fill="blue" stroke="blue" points="889.34,-38.56 897,-31.24 886.45,-32.19 889.34,-38.56"/>
<text text-anchor="middle" x="883.04" y="-57.8" font-family="Times,serif" font-size="14.00">provided by</text>
</g>
<!-- has attribute -->
<g id="node10" class="node">
<title>has attribute</title>
<ellipse fill="none" stroke="blue" cx="1029.54" cy="-18" rx="51.99" ry="18"/>
<text text-anchor="middle" x="1029.54" y="-14.3" font-family="Times,serif" font-size="14.00">attribute</text>
</g>
<!-- computational entity&#45;&gt;has attribute -->
<g id="edge9" class="edge">
<title>computational entity&#45;&gt;has attribute</title>
<path fill="none" stroke="blue" d="M661.26,-92.16C674.66,-90.28 688.5,-88.47 701.54,-87 802.55,-75.62 831.61,-96.23 929.54,-69 953.33,-62.39 978.16,-50 997.13,-39.21"/>
<polygon fill="blue" stroke="blue" points="999.07,-42.14 1005.95,-34.08 995.54,-36.09 999.07,-42.14"/>
<text text-anchor="middle" x="1014.54" y="-57.8" font-family="Times,serif" font-size="14.00">has attribute</text>
</g>
<!-- category -->
<g id="node11" class="node">
<title>category</title>
<ellipse fill="none" stroke="black" cx="1150.54" cy="-18" rx="51.19" ry="18"/>
<text text-anchor="middle" x="1150.54" y="-14.3" font-family="Times,serif" font-size="14.00">category</text>
</g>
<!-- computational entity&#45;&gt;category -->
<g id="edge10" class="edge">
<title>computational entity&#45;&gt;category</title>
<path fill="none" stroke="blue" d="M659.98,-92.01C673.77,-90.1 688.07,-88.32 701.54,-87 782.15,-79.12 987.95,-92.2 1065.54,-69 1085.75,-62.96 1106.19,-51.15 1121.96,-40.53"/>
<polygon fill="blue" stroke="blue" points="1124,-43.38 1130.21,-34.79 1120.01,-37.63 1124,-43.38"/>
<text text-anchor="middle" x="1129.04" y="-57.8" font-family="Times,serif" font-size="14.00">category</text>
</g>
<!-- named thing_category -->
<g id="node12" class="node">
<title>named thing_category</title>
<ellipse fill="none" stroke="blue" cx="780.54" cy="-105" rx="69.59" ry="18"/>
<text text-anchor="middle" x="780.54" y="-101.3" font-family="Times,serif" font-size="14.00">named thing</text>
</g>
</g>
</svg>
