<?xml version="1.0" encoding="UTF-8" standalone="no"?>
<!DOCTYPE svg PUBLIC "-//W3C//DTD SVG 1.1//EN"
 "http://www.w3.org/Graphics/SVG/1.1/DTD/svg11.dtd">
<!-- Generated by graphviz version 2.43.0 (0)
 -->
<!-- Title: %3 Pages: 1 -->
<svg width="3595pt" height="291pt"
 viewBox="0.00 0.00 3594.72 291.00" xmlns="http://www.w3.org/2000/svg" xmlns:xlink="http://www.w3.org/1999/xlink">
<g id="graph0" class="graph" transform="scale(1 1) rotate(0) translate(4 287)">
<title>%3</title>
<polygon fill="white" stroke="transparent" points="-4,4 -4,-287 3590.72,-287 3590.72,4 -4,4"/>
<!-- componentservice to componentservice coavailability association -->
<g id="node1" class="node">
<title>componentservice to componentservice coavailability association</title>
<ellipse fill="none" stroke="black" cx="1891.93" cy="-265" rx="313.04" ry="18"/>
<text text-anchor="middle" x="1891.93" y="-261.3" font-family="Times,serif" font-size="14.00">componentservice to componentservice coavailability association</text>
</g>
<!-- componentservice to componentservice association -->
<g id="node2" class="node">
<title>componentservice to componentservice association</title>
<ellipse fill="none" stroke="black" cx="248.93" cy="-178" rx="248.86" ry="18"/>
<text text-anchor="middle" x="248.93" y="-174.3" font-family="Times,serif" font-size="14.00">componentservice to componentservice association</text>
</g>
<!-- componentservice to componentservice coavailability association&#45;&gt;componentservice to componentservice association -->
<g id="edge1" class="edge">
<title>componentservice to componentservice coavailability association&#45;&gt;componentservice to componentservice association</title>
<path fill="none" stroke="black" d="M1604.29,-257.85C1397.85,-252.55 1113.1,-243.43 862.93,-229 706.21,-219.96 527.37,-204.85 403.28,-193.6"/>
<polygon fill="black" stroke="black" points="403.6,-190.12 393.32,-192.7 402.96,-197.09 403.6,-190.12"/>
<text text-anchor="middle" x="876.93" y="-217.8" font-family="Times,serif" font-size="14.00">is_a</text>
</g>
<!-- componentservice availability mixin -->
<g id="node3" class="node">
<title>componentservice availability mixin</title>
<ellipse fill="none" stroke="black" cx="693.93" cy="-178" rx="178.17" ry="18"/>
<text text-anchor="middle" x="693.93" y="-174.3" font-family="Times,serif" font-size="14.00">componentservice availability mixin</text>
</g>
<!-- componentservice to componentservice coavailability association&#45;&gt;componentservice availability mixin -->
<g id="edge2" class="edge">
<title>componentservice to componentservice coavailability association&#45;&gt;componentservice availability mixin</title>
<path fill="none" stroke="black" d="M1586.94,-260.87C1416.05,-256.88 1199.25,-248.1 1006.93,-229 930.81,-221.44 845.06,-207.35 782.59,-196.05"/>
<polygon fill="black" stroke="black" points="782.85,-192.54 772.38,-194.19 781.59,-199.42 782.85,-192.54"/>
<text text-anchor="middle" x="1023.43" y="-217.8" font-family="Times,serif" font-size="14.00">uses</text>
</g>
<!-- id -->
<g id="node4" class="node">
<title>id</title>
<ellipse fill="none" stroke="blue" cx="927.93" cy="-178" rx="38.19" ry="18"/>
<text text-anchor="middle" x="927.93" y="-174.3" font-family="Times,serif" font-size="14.00">string</text>
</g>
<!-- componentservice to componentservice coavailability association&#45;&gt;id -->
<g id="edge3" class="edge">
<title>componentservice to componentservice coavailability association&#45;&gt;id</title>
<path fill="none" stroke="blue" d="M1586.23,-260.99C1447.7,-256.78 1282.1,-247.77 1133.93,-229 1062.76,-219.98 1045.01,-215.35 975.93,-196 972.82,-195.13 969.62,-194.16 966.43,-193.14"/>
<polygon fill="blue" stroke="blue" points="967.51,-189.81 956.92,-189.97 965.3,-196.46 967.51,-189.81"/>
<text text-anchor="middle" x="1140.93" y="-217.8" font-family="Times,serif" font-size="14.00">id</text>
</g>
<!-- iri -->
<g id="node5" class="node">
<title>iri</title>
<ellipse fill="none" stroke="blue" cx="1028.93" cy="-178" rx="44.39" ry="18"/>
<text text-anchor="middle" x="1028.93" y="-174.3" font-family="Times,serif" font-size="14.00">iri type</text>
</g>
<!-- componentservice to componentservice coavailability association&#45;&gt;iri -->
<g id="edge4" class="edge">
<title>componentservice to componentservice coavailability association&#45;&gt;iri</title>
<path fill="none" stroke="blue" d="M1602.1,-258.14C1488.21,-253.32 1356.58,-244.63 1237.93,-229 1167.67,-219.75 1150.42,-214.18 1081.93,-196 1078.56,-195.11 1075.08,-194.12 1071.6,-193.1"/>
<polygon fill="blue" stroke="blue" points="1072.44,-189.7 1061.85,-190.13 1070.4,-196.39 1072.44,-189.7"/>
<text text-anchor="middle" x="1245.93" y="-217.8" font-family="Times,serif" font-size="14.00">iri</text>
</g>
<!-- name -->
<g id="node6" class="node">
<title>name</title>
<ellipse fill="none" stroke="blue" cx="1147.93" cy="-178" rx="56.59" ry="18"/>
<text text-anchor="middle" x="1147.93" y="-174.3" font-family="Times,serif" font-size="14.00">label type</text>
</g>
<!-- componentservice to componentservice coavailability association&#45;&gt;name -->
<g id="edge5" class="edge">
<title>componentservice to componentservice coavailability association&#45;&gt;name</title>
<path fill="none" stroke="blue" d="M1599.12,-258.58C1509.08,-253.57 1409.99,-244.65 1319.93,-229 1276.29,-221.42 1227.96,-206.79 1193.67,-195.31"/>
<polygon fill="blue" stroke="blue" points="1194.54,-191.91 1183.95,-192.01 1192.3,-198.54 1194.54,-191.91"/>
<text text-anchor="middle" x="1339.93" y="-217.8" font-family="Times,serif" font-size="14.00">name</text>
</g>
<!-- description -->
<g id="node7" class="node">
<title>description</title>
<ellipse fill="none" stroke="blue" cx="1297.93" cy="-178" rx="75.29" ry="18"/>
<text text-anchor="middle" x="1297.93" y="-174.3" font-family="Times,serif" font-size="14.00">narrative text</text>
</g>
<!-- componentservice to componentservice coavailability association&#45;&gt;description -->
<g id="edge6" class="edge">
<title>componentservice to componentservice coavailability association&#45;&gt;description</title>
<path fill="none" stroke="blue" d="M1637.54,-254.46C1542.57,-249.07 1446.9,-240.95 1401.93,-229 1377.86,-222.6 1352.64,-210.63 1333.07,-200"/>
<polygon fill="blue" stroke="blue" points="1334.66,-196.88 1324.22,-195.08 1331.26,-203 1334.66,-196.88"/>
<text text-anchor="middle" x="1442.43" y="-217.8" font-family="Times,serif" font-size="14.00">description</text>
</g>
<!-- source -->
<g id="node8" class="node">
<title>source</title>
<ellipse fill="none" stroke="blue" cx="1447.93" cy="-178" rx="56.59" ry="18"/>
<text text-anchor="middle" x="1447.93" y="-174.3" font-family="Times,serif" font-size="14.00">label type</text>
</g>
<!-- componentservice to componentservice coavailability association&#45;&gt;source -->
<g id="edge7" class="edge">
<title>componentservice to componentservice coavailability association&#45;&gt;source</title>
<path fill="none" stroke="blue" d="M1657.51,-253.04C1596.53,-247.81 1540.07,-240.16 1511.93,-229 1496.95,-223.06 1482.59,-212.46 1471.29,-202.55"/>
<polygon fill="blue" stroke="blue" points="1473.36,-199.7 1463.63,-195.52 1468.63,-204.86 1473.36,-199.7"/>
<text text-anchor="middle" x="1535.93" y="-217.8" font-family="Times,serif" font-size="14.00">source</text>
</g>
<!-- provided by -->
<g id="node9" class="node">
<title>provided by</title>
<ellipse fill="none" stroke="blue" cx="1559.93" cy="-178" rx="37.09" ry="18"/>
<text text-anchor="middle" x="1559.93" y="-174.3" font-family="Times,serif" font-size="14.00">agent</text>
</g>
<!-- componentservice to componentservice coavailability association&#45;&gt;provided by -->
<g id="edge8" class="edge">
<title>componentservice to componentservice coavailability association&#45;&gt;provided by</title>
<path fill="none" stroke="blue" d="M1693.1,-251.04C1634.7,-245.48 1583.49,-238.13 1572.93,-229 1566.37,-223.33 1562.91,-214.81 1561.14,-206.4"/>
<polygon fill="blue" stroke="blue" points="1564.6,-205.82 1559.74,-196.4 1557.66,-206.79 1564.6,-205.82"/>
<text text-anchor="middle" x="1615.43" y="-217.8" font-family="Times,serif" font-size="14.00">provided by</text>
</g>
<!-- has attribute -->
<g id="node10" class="node">
<title>has attribute</title>
<ellipse fill="none" stroke="blue" cx="1666.93" cy="-178" rx="51.99" ry="18"/>
<text text-anchor="middle" x="1666.93" y="-174.3" font-family="Times,serif" font-size="14.00">attribute</text>
</g>
<!-- componentservice to componentservice coavailability association&#45;&gt;has attribute -->
<g id="edge9" class="edge">
<title>componentservice to componentservice coavailability association&#45;&gt;has attribute</title>
<path fill="none" stroke="blue" d="M1715.33,-250.12C1693.51,-245.09 1676.02,-238.26 1667.93,-229 1662.55,-222.84 1660.99,-214.44 1661.17,-206.29"/>
<polygon fill="blue" stroke="blue" points="1664.66,-206.57 1662.18,-196.27 1657.7,-205.87 1664.66,-206.57"/>
<text text-anchor="middle" x="1714.93" y="-217.8" font-family="Times,serif" font-size="14.00">has attribute</text>
</g>
<!-- relation -->
<g id="node11" class="node">
<title>relation</title>
<ellipse fill="none" stroke="blue" cx="2400.93" cy="-18" rx="57.39" ry="18"/>
<text text-anchor="middle" x="2400.93" y="-14.3" font-family="Times,serif" font-size="14.00">uriorcurie</text>
</g>
<!-- componentservice to componentservice coavailability association&#45;&gt;relation -->
<g id="edge10" class="edge">
<title>componentservice to componentservice coavailability association&#45;&gt;relation</title>
<path fill="none" stroke="blue" d="M1842.67,-247.07C1795.99,-228.36 1737,-196.06 1765.93,-160 1836.93,-71.51 2187.65,-35.07 2335.27,-23.48"/>
<polygon fill="blue" stroke="blue" points="2335.84,-26.95 2345.54,-22.69 2335.3,-19.97 2335.84,-26.95"/>
<text text-anchor="middle" x="1833.93" y="-130.8" font-family="Times,serif" font-size="14.00">relation</text>
</g>
<!-- negated -->
<g id="node12" class="node">
<title>negated</title>
<ellipse fill="none" stroke="blue" cx="1821.93" cy="-178" rx="46.59" ry="18"/>
<text text-anchor="middle" x="1821.93" y="-174.3" font-family="Times,serif" font-size="14.00">boolean</text>
</g>
<!-- componentservice to componentservice coavailability association&#45;&gt;negated -->
<g id="edge11" class="edge">
<title>componentservice to componentservice coavailability association&#45;&gt;negated</title>
<path fill="none" stroke="blue" d="M1877.76,-246.8C1867.41,-234.23 1853.23,-217.01 1841.76,-203.08"/>
<polygon fill="blue" stroke="blue" points="1844.42,-200.8 1835.36,-195.31 1839.02,-205.25 1844.42,-200.8"/>
<text text-anchor="middle" x="1890.93" y="-217.8" font-family="Times,serif" font-size="14.00">negated</text>
</g>
<!-- qualifiers -->
<g id="node13" class="node">
<title>qualifiers</title>
<ellipse fill="none" stroke="blue" cx="1962.93" cy="-178" rx="76.89" ry="18"/>
<text text-anchor="middle" x="1962.93" y="-174.3" font-family="Times,serif" font-size="14.00">ontology class</text>
</g>
<!-- componentservice to componentservice coavailability association&#45;&gt;qualifiers -->
<g id="edge12" class="edge">
<title>componentservice to componentservice coavailability association&#45;&gt;qualifiers</title>
<path fill="none" stroke="blue" d="M1908.15,-246.79C1913.29,-241.2 1918.93,-234.91 1923.93,-229 1930.68,-221.01 1937.79,-212.07 1944.06,-203.97"/>
<polygon fill="blue" stroke="blue" points="1946.93,-205.99 1950.25,-195.93 1941.38,-201.72 1946.93,-205.99"/>
<text text-anchor="middle" x="1970.43" y="-217.8" font-family="Times,serif" font-size="14.00">qualifiers</text>
</g>
<!-- publications -->
<g id="node14" class="node">
<title>publications</title>
<ellipse fill="none" stroke="blue" cx="2119.93" cy="-178" rx="62.29" ry="18"/>
<text text-anchor="middle" x="2119.93" y="-174.3" font-family="Times,serif" font-size="14.00">publication</text>
</g>
<!-- componentservice to componentservice coavailability association&#45;&gt;publications -->
<g id="edge13" class="edge">
<title>componentservice to componentservice coavailability association&#45;&gt;publications</title>
<path fill="none" stroke="blue" d="M1952.62,-247.27C1970.58,-241.89 1990.19,-235.61 2007.93,-229 2032.33,-219.91 2058.97,-208.1 2080.15,-198.24"/>
<polygon fill="blue" stroke="blue" points="2081.9,-201.28 2089.46,-193.86 2078.92,-194.95 2081.9,-201.28"/>
<text text-anchor="middle" x="2086.93" y="-217.8" font-family="Times,serif" font-size="14.00">publications</text>
</g>
<!-- type -->
<g id="node15" class="node">
<title>type</title>
<ellipse fill="none" stroke="black" cx="2231.93" cy="-178" rx="31.4" ry="18"/>
<text text-anchor="middle" x="2231.93" y="-174.3" font-family="Times,serif" font-size="14.00">type</text>
</g>
<!-- componentservice to componentservice coavailability association&#45;&gt;type -->
<g id="edge14" class="edge">
<title>componentservice to componentservice coavailability association&#45;&gt;type</title>
<path fill="none" stroke="blue" d="M2047.94,-249.38C2077.24,-244.44 2107.32,-237.83 2134.93,-229 2158.97,-221.31 2184.25,-208.09 2202.98,-197.17"/>
<polygon fill="blue" stroke="blue" points="2204.81,-200.15 2211.61,-192.03 2201.22,-194.14 2204.81,-200.15"/>
<text text-anchor="middle" x="2186.93" y="-217.8" font-family="Times,serif" font-size="14.00">type</text>
</g>
<!-- category -->
<g id="node17" class="node">
<title>category</title>
<ellipse fill="none" stroke="black" cx="2332.93" cy="-178" rx="51.19" ry="18"/>
<text text-anchor="middle" x="2332.93" y="-174.3" font-family="Times,serif" font-size="14.00">category</text>
</g>
<!-- componentservice to componentservice coavailability association&#45;&gt;category -->
<g id="edge15" class="edge">
<title>componentservice to componentservice coavailability association&#45;&gt;category</title>
<path fill="none" stroke="blue" d="M2084.94,-250.8C2125.59,-245.73 2167.95,-238.71 2206.93,-229 2237.37,-221.41 2270.27,-208.17 2294.82,-197.22"/>
<polygon fill="blue" stroke="blue" points="2296.47,-200.32 2304.13,-193 2293.58,-193.94 2296.47,-200.32"/>
<text text-anchor="middle" x="2285.43" y="-217.8" font-family="Times,serif" font-size="14.00">category</text>
</g>
<!-- subject -->
<g id="node19" class="node">
<title>subject</title>
<ellipse fill="none" stroke="black" cx="2446.93" cy="-178" rx="44.39" ry="18"/>
<text text-anchor="middle" x="2446.93" y="-174.3" font-family="Times,serif" font-size="14.00">subject</text>
</g>
<!-- componentservice to componentservice coavailability association&#45;&gt;subject -->
<g id="edge16" class="edge">
<title>componentservice to componentservice coavailability association&#45;&gt;subject</title>
<path fill="none" stroke="blue" d="M2110.61,-252.08C2194.91,-246.24 2280.63,-238.42 2320.93,-229 2352.29,-221.67 2386.12,-207.89 2410.82,-196.65"/>
<polygon fill="blue" stroke="blue" points="2412.55,-199.71 2420.15,-192.33 2409.61,-193.36 2412.55,-199.71"/>
<text text-anchor="middle" x="2393.93" y="-217.8" font-family="Times,serif" font-size="14.00">subject</text>
</g>
<!-- object -->
<g id="node21" class="node">
<title>object</title>
<ellipse fill="none" stroke="black" cx="2467.93" cy="-91" rx="38.99" ry="18"/>
<text text-anchor="middle" x="2467.93" y="-87.3" font-family="Times,serif" font-size="14.00">object</text>
</g>
<!-- componentservice to componentservice coavailability association&#45;&gt;object -->
<g id="edge17" class="edge">
<title>componentservice to componentservice coavailability association&#45;&gt;object</title>
<path fill="none" stroke="blue" d="M2103.84,-251.73C2245.17,-243.27 2407.92,-232.88 2423.93,-229 2459.72,-220.33 2476.24,-224.2 2499.93,-196 2520,-172.11 2526.64,-155.03 2512.93,-127 2510.07,-121.17 2505.73,-116.02 2500.84,-111.6"/>
<polygon fill="blue" stroke="blue" points="2502.85,-108.73 2492.85,-105.25 2498.5,-114.21 2502.85,-108.73"/>
<text text-anchor="middle" x="2541.93" y="-174.3" font-family="Times,serif" font-size="14.00">object</text>
</g>
<!-- predicate -->
<g id="node23" class="node">
<title>predicate</title>
<ellipse fill="none" stroke="black" cx="2643.93" cy="-178" rx="54.69" ry="18"/>
<text text-anchor="middle" x="2643.93" y="-174.3" font-family="Times,serif" font-size="14.00">predicate</text>
</g>
<!-- componentservice to componentservice coavailability association&#45;&gt;predicate -->
<g id="edge18" class="edge">
<title>componentservice to componentservice coavailability association&#45;&gt;predicate</title>
<path fill="none" stroke="blue" d="M2114.04,-252.27C2300.92,-242.37 2538.28,-229.68 2540.93,-229 2565.52,-222.65 2591.22,-210.18 2610.8,-199.29"/>
<polygon fill="blue" stroke="blue" points="2612.66,-202.25 2619.61,-194.26 2609.19,-196.17 2612.66,-202.25"/>
<text text-anchor="middle" x="2613.93" y="-217.8" font-family="Times,serif" font-size="14.00">predicate</text>
</g>
<!-- quantifier qualifier -->
<g id="node25" class="node">
<title>quantifier qualifier</title>
<ellipse fill="none" stroke="black" cx="2813.93" cy="-178" rx="97.48" ry="18"/>
<text text-anchor="middle" x="2813.93" y="-174.3" font-family="Times,serif" font-size="14.00">quantifier qualifier</text>
</g>
<!-- componentservice to componentservice coavailability association&#45;&gt;quantifier qualifier -->
<g id="edge19" class="edge">
<title>componentservice to componentservice coavailability association&#45;&gt;quantifier qualifier</title>
<path fill="none" stroke="blue" d="M2111.27,-252.12C2145.95,-250.34 2181.41,-248.57 2214.93,-247 2312.01,-242.45 2556.14,-245.47 2651.93,-229 2690.57,-222.36 2732.87,-209.09 2764.55,-197.89"/>
<polygon fill="blue" stroke="blue" points="2765.79,-201.16 2774.02,-194.49 2763.43,-194.57 2765.79,-201.16"/>
<text text-anchor="middle" x="2777.93" y="-217.8" font-family="Times,serif" font-size="14.00">quantifier qualifier</text>
</g>
<!-- availability site -->
<g id="node27" class="node">
<title>availability site</title>
<ellipse fill="none" stroke="blue" cx="3024.93" cy="-178" rx="95.58" ry="18"/>
<text text-anchor="middle" x="3024.93" y="-174.3" font-family="Times,serif" font-size="14.00">deployment entity</text>
</g>
<!-- componentservice to componentservice coavailability association&#45;&gt;availability site -->
<g id="edge20" class="edge">
<title>componentservice to componentservice coavailability association&#45;&gt;availability site</title>
<path fill="none" stroke="blue" d="M2107.77,-251.91C2143.56,-250.12 2180.28,-248.4 2214.93,-247 2355.76,-241.3 2709.62,-250.42 2848.93,-229 2891.36,-222.47 2938.05,-208.9 2972.67,-197.54"/>
<polygon fill="blue" stroke="blue" points="2974.17,-200.73 2982.55,-194.25 2971.96,-194.09 2974.17,-200.73"/>
<text text-anchor="middle" x="2972.93" y="-217.8" font-family="Times,serif" font-size="14.00">availability site</text>
</g>
<!-- stage qualifier -->
<g id="node28" class="node">
<title>stage qualifier</title>
<ellipse fill="none" stroke="blue" cx="3215.93" cy="-178" rx="77.19" ry="18"/>
<text text-anchor="middle" x="3215.93" y="-174.3" font-family="Times,serif" font-size="14.00">lifecycle stage</text>
</g>
<!-- componentservice to componentservice coavailability association&#45;&gt;stage qualifier -->
<g id="edge21" class="edge">
<title>componentservice to componentservice coavailability association&#45;&gt;stage qualifier</title>
<path fill="none" stroke="blue" d="M2105.59,-251.83C2142.06,-250.02 2179.58,-248.32 2214.93,-247 2396.4,-240.23 2852.2,-255 3031.93,-229 3077.6,-222.39 3128.09,-208.16 3164.6,-196.56"/>
<polygon fill="blue" stroke="blue" points="3166.07,-199.76 3174.52,-193.37 3163.93,-193.1 3166.07,-199.76"/>
<text text-anchor="middle" x="3155.43" y="-217.8" font-family="Times,serif" font-size="14.00">stage qualifier</text>
</g>
<!-- observable state -->
<g id="node29" class="node">
<title>observable state</title>
<ellipse fill="none" stroke="blue" cx="3448.93" cy="-178" rx="137.58" ry="18"/>
<text text-anchor="middle" x="3448.93" y="-174.3" font-family="Times,serif" font-size="14.00">error or observable feature</text>
</g>
<!-- componentservice to componentservice coavailability association&#45;&gt;observable state -->
<g id="edge22" class="edge">
<title>componentservice to componentservice coavailability association&#45;&gt;observable state</title>
<path fill="none" stroke="blue" d="M2104.72,-251.76C2141.46,-249.94 2179.29,-248.26 2214.93,-247 2436.16,-239.18 2990.96,-253.87 3210.93,-229 3268.9,-222.45 3333.62,-208.4 3380.92,-196.86"/>
<polygon fill="blue" stroke="blue" points="3381.87,-200.23 3390.74,-194.44 3380.2,-193.44 3381.87,-200.23"/>
<text text-anchor="middle" x="3363.43" y="-217.8" font-family="Times,serif" font-size="14.00">observable state</text>
</g>
<!-- association_type -->
<g id="node16" class="node">
<title>association_type</title>
<ellipse fill="none" stroke="blue" cx="2261.93" cy="-265" rx="38.19" ry="18"/>
<text text-anchor="middle" x="2261.93" y="-261.3" font-family="Times,serif" font-size="14.00">string</text>
</g>
<!-- association_category -->
<g id="node18" class="node">
<title>association_category</title>
<ellipse fill="none" stroke="blue" cx="2380.93" cy="-265" rx="62.29" ry="18"/>
<text text-anchor="middle" x="2380.93" y="-261.3" font-family="Times,serif" font-size="14.00">association</text>
</g>
<!-- subject&#45;&gt;relation -->
<g id="edge24" class="edge">
<title>subject&#45;&gt;relation</title>
<path fill="none" stroke="black" stroke-dasharray="1,5" d="M2439.34,-160.24C2433.42,-146.64 2425.32,-126.88 2419.93,-109 2413.67,-88.27 2408.71,-64.24 2405.43,-46.23"/>
<polygon fill="black" stroke="black" points="2408.83,-45.38 2403.65,-36.14 2401.94,-46.59 2408.83,-45.38"/>
</g>
<!-- subject&#45;&gt;object -->
<g id="edge23" class="edge">
<title>subject&#45;&gt;object</title>
<path fill="none" stroke="black" d="M2449.9,-159.77C2451.69,-150.09 2454.16,-137.8 2456.93,-127 2457.62,-124.32 2458.39,-121.53 2459.2,-118.76"/>
<polygon fill="black" stroke="black" points="2462.61,-119.57 2462.19,-108.98 2455.91,-117.52 2462.61,-119.57"/>
<text text-anchor="middle" x="2484.93" y="-130.8" font-family="Times,serif" font-size="14.00">relation</text>
</g>
<!-- componentservice to componentservice association_subject -->
<g id="node20" class="node">
<title>componentservice to componentservice association_subject</title>
<ellipse fill="none" stroke="blue" cx="2625.93" cy="-265" rx="164.37" ry="18"/>
<text text-anchor="middle" x="2625.93" y="-261.3" font-family="Times,serif" font-size="14.00">componentservice or servicetype</text>
</g>
<!-- object&#45;&gt;relation -->
<g id="edge25" class="edge">
<title>object&#45;&gt;relation</title>
<path fill="none" stroke="black" stroke-dasharray="1,5" d="M2453.06,-74.24C2444.46,-65.13 2433.45,-53.47 2423.77,-43.21"/>
<polygon fill="black" stroke="black" points="2426.1,-40.57 2416.69,-35.7 2421.01,-45.38 2426.1,-40.57"/>
</g>
<!-- componentservice to componentservice association_object -->
<g id="node22" class="node">
<title>componentservice to componentservice association_object</title>
<ellipse fill="none" stroke="blue" cx="2972.93" cy="-265" rx="164.37" ry="18"/>
<text text-anchor="middle" x="2972.93" y="-261.3" font-family="Times,serif" font-size="14.00">componentservice or servicetype</text>
</g>
<!-- componentservice to componentservice coavailability association_predicate -->
<g id="node24" class="node">
<title>componentservice to componentservice coavailability association_predicate</title>
<ellipse fill="none" stroke="blue" cx="3232.93" cy="-265" rx="77.99" ry="18"/>
<text text-anchor="middle" x="3232.93" y="-261.3" font-family="Times,serif" font-size="14.00">predicate type</text>
</g>
<!-- componentservice availability mixin_quantifier qualifier -->
<g id="node26" class="node">
<title>componentservice availability mixin_quantifier qualifier</title>
<ellipse fill="none" stroke="blue" cx="3405.93" cy="-265" rx="76.89" ry="18"/>
<text text-anchor="middle" x="3405.93" y="-261.3" font-family="Times,serif" font-size="14.00">ontology class</text>
</g>
</g>
</svg>
