<?xml version="1.0" encoding="UTF-8" standalone="no"?>
<!DOCTYPE svg PUBLIC "-//W3C//DTD SVG 1.1//EN"
 "http://www.w3.org/Graphics/SVG/1.1/DTD/svg11.dtd">
<!-- Generated by graphviz version 2.43.0 (0)
 -->
<!-- Title: %3 Pages: 1 -->
<svg width="3265pt" height="291pt"
 viewBox="0.00 0.00 3265.39 291.00" xmlns="http://www.w3.org/2000/svg" xmlns:xlink="http://www.w3.org/1999/xlink">
<g id="graph0" class="graph" transform="scale(1 1) rotate(0) translate(4 287)">
<title>%3</title>
<polygon fill="white" stroke="transparent" points="-4,4 -4,-287 3261.39,-287 3261.39,4 -4,4"/>
<!-- componentservice to error association -->
<g id="node1" class="node">
<title>componentservice to error association</title>
<ellipse fill="none" stroke="black" cx="1920.39" cy="-265" rx="188.47" ry="18"/>
<text text-anchor="middle" x="1920.39" y="-261.3" font-family="Times,serif" font-size="14.00">componentservice to error association</text>
</g>
<!-- association -->
<g id="node2" class="node">
<title>association</title>
<ellipse fill="none" stroke="black" cx="62.39" cy="-178" rx="62.29" ry="18"/>
<text text-anchor="middle" x="62.39" y="-174.3" font-family="Times,serif" font-size="14.00">association</text>
</g>
<!-- componentservice to error association&#45;&gt;association -->
<g id="edge1" class="edge">
<title>componentservice to error association&#45;&gt;association</title>
<path fill="none" stroke="black" d="M1736.24,-261.06C1488.45,-256.63 1034.03,-246.79 646.39,-229 418.16,-218.53 359.31,-230.06 133.39,-196 127.91,-195.17 122.23,-194.13 116.57,-192.98"/>
<polygon fill="black" stroke="black" points="116.99,-189.48 106.48,-190.79 115.51,-196.33 116.99,-189.48"/>
<text text-anchor="middle" x="660.39" y="-217.8" font-family="Times,serif" font-size="14.00">is_a</text>
</g>
<!-- entity to error association mixin -->
<g id="node3" class="node">
<title>entity to error association mixin</title>
<ellipse fill="none" stroke="black" cx="303.39" cy="-178" rx="160.57" ry="18"/>
<text text-anchor="middle" x="303.39" y="-174.3" font-family="Times,serif" font-size="14.00">entity to error association mixin</text>
</g>
<!-- componentservice to error association&#45;&gt;entity to error association mixin -->
<g id="edge2" class="edge">
<title>componentservice to error association&#45;&gt;entity to error association mixin</title>
<path fill="none" stroke="black" d="M1738.55,-260.18C1533.74,-255.32 1190.99,-245.52 896.39,-229 708.12,-218.44 661.22,-212.72 473.39,-196 458.49,-194.67 442.86,-193.21 427.36,-191.71"/>
<polygon fill="black" stroke="black" points="427.5,-188.21 417.21,-190.73 426.82,-195.18 427.5,-188.21"/>
<text text-anchor="middle" x="912.89" y="-217.8" font-family="Times,serif" font-size="14.00">uses</text>
</g>
<!-- componentservice to entity association mixin -->
<g id="node4" class="node">
<title>componentservice to entity association mixin</title>
<ellipse fill="none" stroke="black" cx="703.39" cy="-178" rx="220.96" ry="18"/>
<text text-anchor="middle" x="703.39" y="-174.3" font-family="Times,serif" font-size="14.00">componentservice to entity association mixin</text>
</g>
<!-- componentservice to error association&#45;&gt;componentservice to entity association mixin -->
<g id="edge3" class="edge">
<title>componentservice to error association&#45;&gt;componentservice to entity association mixin</title>
<path fill="none" stroke="black" d="M1734.89,-261.69C1560.69,-258.27 1292.92,-249.83 1061.39,-229 974.69,-221.2 876.82,-207.17 805.36,-195.95"/>
<polygon fill="black" stroke="black" points="805.88,-192.49 795.45,-194.39 804.79,-199.41 805.88,-192.49"/>
<text text-anchor="middle" x="1077.89" y="-217.8" font-family="Times,serif" font-size="14.00">uses</text>
</g>
<!-- id -->
<g id="node5" class="node">
<title>id</title>
<ellipse fill="none" stroke="blue" cx="980.39" cy="-178" rx="38.19" ry="18"/>
<text text-anchor="middle" x="980.39" y="-174.3" font-family="Times,serif" font-size="14.00">string</text>
</g>
<!-- componentservice to error association&#45;&gt;id -->
<g id="edge4" class="edge">
<title>componentservice to error association&#45;&gt;id</title>
<path fill="none" stroke="blue" d="M1733.2,-262.81C1585.54,-260 1374.66,-251.82 1191.39,-229 1118.05,-219.87 1099.63,-215.72 1028.39,-196 1025.28,-195.14 1022.09,-194.18 1018.89,-193.16"/>
<polygon fill="blue" stroke="blue" points="1019.97,-189.83 1009.38,-190 1017.76,-196.48 1019.97,-189.83"/>
<text text-anchor="middle" x="1198.39" y="-217.8" font-family="Times,serif" font-size="14.00">id</text>
</g>
<!-- iri -->
<g id="node6" class="node">
<title>iri</title>
<ellipse fill="none" stroke="blue" cx="1081.39" cy="-178" rx="44.39" ry="18"/>
<text text-anchor="middle" x="1081.39" y="-174.3" font-family="Times,serif" font-size="14.00">iri type</text>
</g>
<!-- componentservice to error association&#45;&gt;iri -->
<g id="edge5" class="edge">
<title>componentservice to error association&#45;&gt;iri</title>
<path fill="none" stroke="blue" d="M1738.02,-260.4C1614.18,-256.32 1446.92,-247.61 1300.39,-229 1225.77,-219.52 1207.22,-214.85 1134.39,-196 1131.02,-195.13 1127.54,-194.16 1124.06,-193.15"/>
<polygon fill="blue" stroke="blue" points="1124.89,-189.74 1114.3,-190.2 1122.86,-196.44 1124.89,-189.74"/>
<text text-anchor="middle" x="1308.39" y="-217.8" font-family="Times,serif" font-size="14.00">iri</text>
</g>
<!-- name -->
<g id="node7" class="node">
<title>name</title>
<ellipse fill="none" stroke="blue" cx="1200.39" cy="-178" rx="56.59" ry="18"/>
<text text-anchor="middle" x="1200.39" y="-174.3" font-family="Times,serif" font-size="14.00">label type</text>
</g>
<!-- componentservice to error association&#45;&gt;name -->
<g id="edge6" class="edge">
<title>componentservice to error association&#45;&gt;name</title>
<path fill="none" stroke="blue" d="M1736.84,-260.8C1633.6,-256.79 1502.68,-248.01 1387.39,-229 1339.15,-221.04 1285.34,-205.98 1247.87,-194.46"/>
<polygon fill="blue" stroke="blue" points="1248.83,-191.09 1238.24,-191.46 1246.75,-197.77 1248.83,-191.09"/>
<text text-anchor="middle" x="1407.39" y="-217.8" font-family="Times,serif" font-size="14.00">name</text>
</g>
<!-- description -->
<g id="node8" class="node">
<title>description</title>
<ellipse fill="none" stroke="blue" cx="1350.39" cy="-178" rx="75.29" ry="18"/>
<text text-anchor="middle" x="1350.39" y="-174.3" font-family="Times,serif" font-size="14.00">narrative text</text>
</g>
<!-- componentservice to error association&#45;&gt;description -->
<g id="edge7" class="edge">
<title>componentservice to error association&#45;&gt;description</title>
<path fill="none" stroke="blue" d="M1735.33,-261.58C1655.2,-257.41 1560.83,-248.27 1477.39,-229 1447.64,-222.13 1415.65,-209.5 1391.22,-198.66"/>
<polygon fill="blue" stroke="blue" points="1392.47,-195.38 1381.92,-194.45 1389.59,-201.76 1392.47,-195.38"/>
<text text-anchor="middle" x="1517.89" y="-217.8" font-family="Times,serif" font-size="14.00">description</text>
</g>
<!-- source -->
<g id="node9" class="node">
<title>source</title>
<ellipse fill="none" stroke="blue" cx="1500.39" cy="-178" rx="56.59" ry="18"/>
<text text-anchor="middle" x="1500.39" y="-174.3" font-family="Times,serif" font-size="14.00">label type</text>
</g>
<!-- componentservice to error association&#45;&gt;source -->
<g id="edge8" class="edge">
<title>componentservice to error association&#45;&gt;source</title>
<path fill="none" stroke="blue" d="M1750.56,-257.15C1700.78,-252.05 1646.76,-243.43 1598.39,-229 1575.53,-222.18 1551.65,-210.11 1533.19,-199.54"/>
<polygon fill="blue" stroke="blue" points="1534.72,-196.38 1524.33,-194.34 1531.18,-202.42 1534.72,-196.38"/>
<text text-anchor="middle" x="1622.39" y="-217.8" font-family="Times,serif" font-size="14.00">source</text>
</g>
<!-- provided by -->
<g id="node10" class="node">
<title>provided by</title>
<ellipse fill="none" stroke="blue" cx="1612.39" cy="-178" rx="37.09" ry="18"/>
<text text-anchor="middle" x="1612.39" y="-174.3" font-family="Times,serif" font-size="14.00">agent</text>
</g>
<!-- componentservice to error association&#45;&gt;provided by -->
<g id="edge9" class="edge">
<title>componentservice to error association&#45;&gt;provided by</title>
<path fill="none" stroke="blue" d="M1763.97,-254.95C1733.09,-249.56 1701.55,-241.36 1673.39,-229 1658.87,-222.62 1644.99,-211.77 1634.16,-201.81"/>
<polygon fill="blue" stroke="blue" points="1636.48,-199.18 1626.84,-194.79 1631.63,-204.23 1636.48,-199.18"/>
<text text-anchor="middle" x="1715.89" y="-217.8" font-family="Times,serif" font-size="14.00">provided by</text>
</g>
<!-- has attribute -->
<g id="node11" class="node">
<title>has attribute</title>
<ellipse fill="none" stroke="blue" cx="1719.39" cy="-178" rx="51.99" ry="18"/>
<text text-anchor="middle" x="1719.39" y="-174.3" font-family="Times,serif" font-size="14.00">attribute</text>
</g>
<!-- componentservice to error association&#45;&gt;has attribute -->
<g id="edge10" class="edge">
<title>componentservice to error association&#45;&gt;has attribute</title>
<path fill="none" stroke="blue" d="M1840.01,-248.71C1821.56,-243.7 1802.39,-237.23 1785.39,-229 1770.68,-221.87 1756.01,-211.21 1744.25,-201.56"/>
<polygon fill="blue" stroke="blue" points="1746.51,-198.88 1736.61,-195.09 1741.98,-204.22 1746.51,-198.88"/>
<text text-anchor="middle" x="1832.39" y="-217.8" font-family="Times,serif" font-size="14.00">has attribute</text>
</g>
<!-- predicate -->
<g id="node12" class="node">
<title>predicate</title>
<ellipse fill="none" stroke="blue" cx="1867.39" cy="-178" rx="77.99" ry="18"/>
<text text-anchor="middle" x="1867.39" y="-174.3" font-family="Times,serif" font-size="14.00">predicate type</text>
</g>
<!-- componentservice to error association&#45;&gt;predicate -->
<g id="edge11" class="edge">
<title>componentservice to error association&#45;&gt;predicate</title>
<path fill="none" stroke="blue" d="M1904.76,-246.84C1900.16,-241.35 1895.31,-235.11 1891.39,-229 1886.67,-221.62 1882.27,-213.17 1878.56,-205.34"/>
<polygon fill="blue" stroke="blue" points="1881.74,-203.87 1874.41,-196.22 1875.37,-206.77 1881.74,-203.87"/>
<text text-anchor="middle" x="1925.39" y="-217.8" font-family="Times,serif" font-size="14.00">predicate</text>
</g>
<!-- object -->
<g id="node13" class="node">
<title>object</title>
<ellipse fill="none" stroke="blue" cx="2363.39" cy="-91" rx="69.59" ry="18"/>
<text text-anchor="middle" x="2363.39" y="-87.3" font-family="Times,serif" font-size="14.00">named thing</text>
</g>
<!-- componentservice to error association&#45;&gt;object -->
<g id="edge12" class="edge">
<title>componentservice to error association&#45;&gt;object</title>
<path fill="none" stroke="blue" d="M1961.04,-247.35C1970.37,-242.34 1979.77,-236.22 1987.39,-229 2013.3,-204.48 1999.31,-180.65 2028.39,-160 2069.66,-130.7 2204.65,-110.26 2290.16,-99.87"/>
<polygon fill="blue" stroke="blue" points="2290.81,-103.32 2300.33,-98.66 2289.98,-96.37 2290.81,-103.32"/>
<text text-anchor="middle" x="2050.39" y="-174.3" font-family="Times,serif" font-size="14.00">object</text>
</g>
<!-- relation -->
<g id="node14" class="node">
<title>relation</title>
<ellipse fill="none" stroke="blue" cx="2363.39" cy="-18" rx="57.39" ry="18"/>
<text text-anchor="middle" x="2363.39" y="-14.3" font-family="Times,serif" font-size="14.00">uriorcurie</text>
</g>
<!-- componentservice to error association&#45;&gt;relation -->
<g id="edge13" class="edge">
<title>componentservice to error association&#45;&gt;relation</title>
<path fill="none" stroke="blue" d="M1942.43,-246.76C1948.38,-241.47 1954.51,-235.35 1959.39,-229 1990.41,-188.66 1972.43,-159.72 2011.39,-127 2094.2,-57.46 2221.26,-32.67 2297.94,-23.85"/>
<polygon fill="blue" stroke="blue" points="2298.39,-27.32 2307.96,-22.75 2297.63,-20.36 2298.39,-27.32"/>
<text text-anchor="middle" x="2039.39" y="-130.8" font-family="Times,serif" font-size="14.00">relation</text>
</g>
<!-- negated -->
<g id="node15" class="node">
<title>negated</title>
<ellipse fill="none" stroke="blue" cx="2128.39" cy="-178" rx="46.59" ry="18"/>
<text text-anchor="middle" x="2128.39" y="-174.3" font-family="Times,serif" font-size="14.00">boolean</text>
</g>
<!-- componentservice to error association&#45;&gt;negated -->
<g id="edge14" class="edge">
<title>componentservice to error association&#45;&gt;negated</title>
<path fill="none" stroke="blue" d="M1979.77,-247.85C1997.28,-242.49 2016.32,-236.07 2033.39,-229 2054.51,-220.26 2077.2,-208.42 2095.1,-198.46"/>
<polygon fill="blue" stroke="blue" points="2097,-201.4 2103.99,-193.44 2093.56,-195.3 2097,-201.4"/>
<text text-anchor="middle" x="2095.39" y="-217.8" font-family="Times,serif" font-size="14.00">negated</text>
</g>
<!-- qualifiers -->
<g id="node16" class="node">
<title>qualifiers</title>
<ellipse fill="none" stroke="blue" cx="2269.39" cy="-178" rx="76.89" ry="18"/>
<text text-anchor="middle" x="2269.39" y="-174.3" font-family="Times,serif" font-size="14.00">ontology class</text>
</g>
<!-- componentservice to error association&#45;&gt;qualifiers -->
<g id="edge15" class="edge">
<title>componentservice to error association&#45;&gt;qualifiers</title>
<path fill="none" stroke="blue" d="M2025.1,-250.03C2058.38,-244.62 2095.16,-237.62 2128.39,-229 2160.64,-220.64 2195.96,-208.11 2223.19,-197.68"/>
<polygon fill="blue" stroke="blue" points="2224.77,-200.82 2232.83,-193.95 2222.24,-194.29 2224.77,-200.82"/>
<text text-anchor="middle" x="2209.89" y="-217.8" font-family="Times,serif" font-size="14.00">qualifiers</text>
</g>
<!-- publications -->
<g id="node17" class="node">
<title>publications</title>
<ellipse fill="none" stroke="blue" cx="2426.39" cy="-178" rx="62.29" ry="18"/>
<text text-anchor="middle" x="2426.39" y="-174.3" font-family="Times,serif" font-size="14.00">publication</text>
</g>
<!-- componentservice to error association&#45;&gt;publications -->
<g id="edge16" class="edge">
<title>componentservice to error association&#45;&gt;publications</title>
<path fill="none" stroke="blue" d="M2052.3,-252.11C2126.22,-245.01 2210.74,-236.03 2247.39,-229 2292,-220.44 2341.67,-206.18 2377.35,-195.07"/>
<polygon fill="blue" stroke="blue" points="2378.54,-198.37 2387.03,-192.03 2376.44,-191.69 2378.54,-198.37"/>
<text text-anchor="middle" x="2351.39" y="-217.8" font-family="Times,serif" font-size="14.00">publications</text>
</g>
<!-- type -->
<g id="node18" class="node">
<title>type</title>
<ellipse fill="none" stroke="black" cx="2538.39" cy="-178" rx="31.4" ry="18"/>
<text text-anchor="middle" x="2538.39" y="-174.3" font-family="Times,serif" font-size="14.00">type</text>
</g>
<!-- componentservice to error association&#45;&gt;type -->
<g id="edge17" class="edge">
<title>componentservice to error association&#45;&gt;type</title>
<path fill="none" stroke="blue" d="M2053.23,-252.2C2075,-250.38 2097.32,-248.58 2118.39,-247 2243.19,-237.65 2276.61,-253.17 2399.39,-229 2436.98,-221.6 2478.04,-205.81 2505.71,-193.94"/>
<polygon fill="blue" stroke="blue" points="2507.15,-197.13 2514.91,-189.93 2504.35,-190.72 2507.15,-197.13"/>
<text text-anchor="middle" x="2466.39" y="-217.8" font-family="Times,serif" font-size="14.00">type</text>
</g>
<!-- category -->
<g id="node20" class="node">
<title>category</title>
<ellipse fill="none" stroke="black" cx="2639.39" cy="-178" rx="51.19" ry="18"/>
<text text-anchor="middle" x="2639.39" y="-174.3" font-family="Times,serif" font-size="14.00">category</text>
</g>
<!-- componentservice to error association&#45;&gt;category -->
<g id="edge18" class="edge">
<title>componentservice to error association&#45;&gt;category</title>
<path fill="none" stroke="blue" d="M2051.61,-252.05C2073.89,-250.22 2096.79,-248.46 2118.39,-247 2281.78,-235.99 2325.36,-258.7 2486.39,-229 2525.2,-221.84 2567.75,-207.37 2598.11,-195.83"/>
<polygon fill="blue" stroke="blue" points="2599.44,-199.06 2607.51,-192.19 2596.92,-192.53 2599.44,-199.06"/>
<text text-anchor="middle" x="2573.89" y="-217.8" font-family="Times,serif" font-size="14.00">category</text>
</g>
<!-- subject -->
<g id="node22" class="node">
<title>subject</title>
<ellipse fill="none" stroke="black" cx="2753.39" cy="-178" rx="44.39" ry="18"/>
<text text-anchor="middle" x="2753.39" y="-174.3" font-family="Times,serif" font-size="14.00">subject</text>
</g>
<!-- componentservice to error association&#45;&gt;subject -->
<g id="edge19" class="edge">
<title>componentservice to error association&#45;&gt;subject</title>
<path fill="none" stroke="blue" d="M2050.27,-251.93C2072.96,-250.09 2096.35,-248.35 2118.39,-247 2227.37,-240.33 2502.08,-249.13 2609.39,-229 2646.39,-222.06 2686.73,-207.4 2715.27,-195.74"/>
<polygon fill="blue" stroke="blue" points="2716.96,-198.82 2724.85,-191.75 2714.27,-192.36 2716.96,-198.82"/>
<text text-anchor="middle" x="2688.39" y="-217.8" font-family="Times,serif" font-size="14.00">subject</text>
</g>
<!-- frequency qualifier -->
<g id="node24" class="node">
<title>frequency qualifier</title>
<ellipse fill="none" stroke="blue" cx="2900.39" cy="-178" rx="85.29" ry="18"/>
<text text-anchor="middle" x="2900.39" y="-174.3" font-family="Times,serif" font-size="14.00">frequency value</text>
</g>
<!-- componentservice to error association&#45;&gt;frequency qualifier -->
<g id="edge20" class="edge">
<title>componentservice to error association&#45;&gt;frequency qualifier</title>
<path fill="none" stroke="blue" d="M2049.46,-251.87C2072.4,-250.02 2096.09,-248.29 2118.39,-247 2251.56,-239.29 2586.48,-248.81 2718.39,-229 2762.97,-222.31 2812.2,-208.37 2848.2,-196.9"/>
<polygon fill="blue" stroke="blue" points="2849.55,-200.15 2857.99,-193.74 2847.4,-193.49 2849.55,-200.15"/>
<text text-anchor="middle" x="2857.39" y="-217.8" font-family="Times,serif" font-size="14.00">frequency qualifier</text>
</g>
<!-- severity qualifier -->
<g id="node25" class="node">
<title>severity qualifier</title>
<ellipse fill="none" stroke="blue" cx="3079.39" cy="-178" rx="76.09" ry="18"/>
<text text-anchor="middle" x="3079.39" y="-174.3" font-family="Times,serif" font-size="14.00">severity value</text>
</g>
<!-- componentservice to error association&#45;&gt;severity qualifier -->
<g id="edge21" class="edge">
<title>componentservice to error association&#45;&gt;severity qualifier</title>
<path fill="none" stroke="blue" d="M2048.65,-251.79C2071.85,-249.93 2095.83,-248.22 2118.39,-247 2298.4,-237.28 2751.79,-259.85 2929.39,-229 2965.84,-222.67 3005.48,-209.15 3034.86,-197.76"/>
<polygon fill="blue" stroke="blue" points="3036.39,-200.92 3044.41,-193.99 3033.82,-194.41 3036.39,-200.92"/>
<text text-anchor="middle" x="3049.39" y="-217.8" font-family="Times,serif" font-size="14.00">severity qualifier</text>
</g>
<!-- onset qualifier -->
<g id="node26" class="node">
<title>onset qualifier</title>
<ellipse fill="none" stroke="blue" cx="3216.39" cy="-178" rx="36.29" ry="18"/>
<text text-anchor="middle" x="3216.39" y="-174.3" font-family="Times,serif" font-size="14.00">onset</text>
</g>
<!-- componentservice to error association&#45;&gt;onset qualifier -->
<g id="edge22" class="edge">
<title>componentservice to error association&#45;&gt;onset qualifier</title>
<path fill="none" stroke="blue" d="M2048.12,-251.76C2071.48,-249.88 2095.65,-248.18 2118.39,-247 2228.93,-241.26 3006.8,-254.98 3114.39,-229 3140.05,-222.81 3166.75,-209.43 3186.4,-198.07"/>
<polygon fill="blue" stroke="blue" points="3188.36,-200.97 3195.17,-192.86 3184.78,-194.95 3188.36,-200.97"/>
<text text-anchor="middle" x="3205.89" y="-217.8" font-family="Times,serif" font-size="14.00">onset qualifier</text>
</g>
<!-- object&#45;&gt;relation -->
<g id="edge25" class="edge">
<title>object&#45;&gt;relation</title>
<path fill="none" stroke="black" stroke-dasharray="1,5" d="M2363.39,-72.81C2363.39,-64.79 2363.39,-55.05 2363.39,-46.07"/>
<polygon fill="black" stroke="black" points="2366.89,-46.03 2363.39,-36.03 2359.89,-46.03 2366.89,-46.03"/>
</g>
<!-- association_type -->
<g id="node19" class="node">
<title>association_type</title>
<ellipse fill="none" stroke="blue" cx="2165.39" cy="-265" rx="38.19" ry="18"/>
<text text-anchor="middle" x="2165.39" y="-261.3" font-family="Times,serif" font-size="14.00">string</text>
</g>
<!-- association_category -->
<g id="node21" class="node">
<title>association_category</title>
<ellipse fill="none" stroke="blue" cx="2284.39" cy="-265" rx="62.29" ry="18"/>
<text text-anchor="middle" x="2284.39" y="-261.3" font-family="Times,serif" font-size="14.00">association</text>
</g>
<!-- subject&#45;&gt;object -->
<g id="edge23" class="edge">
<title>subject&#45;&gt;object</title>
<path fill="none" stroke="black" d="M2720.83,-165.63C2713.82,-163.5 2706.41,-161.48 2699.39,-160 2628.51,-145.05 2608.46,-156.05 2537.39,-142 2495.02,-133.62 2447.99,-119.83 2413.52,-108.85"/>
<polygon fill="black" stroke="black" points="2414.29,-105.42 2403.7,-105.69 2412.15,-112.08 2414.29,-105.42"/>
<text text-anchor="middle" x="2565.39" y="-130.8" font-family="Times,serif" font-size="14.00">relation</text>
</g>
<!-- subject&#45;&gt;relation -->
<g id="edge24" class="edge">
<title>subject&#45;&gt;relation</title>
<path fill="none" stroke="black" stroke-dasharray="1,5" d="M2723.12,-164.73C2654.38,-136.89 2486.35,-68.81 2406.67,-36.53"/>
<polygon fill="black" stroke="black" points="2407.53,-33.1 2396.95,-32.59 2404.9,-39.59 2407.53,-33.1"/>
</g>
<!-- componentservice to error association_subject -->
<g id="node23" class="node">
<title>componentservice to error association_subject</title>
<ellipse fill="none" stroke="blue" cx="2529.39" cy="-265" rx="164.37" ry="18"/>
<text text-anchor="middle" x="2529.39" y="-261.3" font-family="Times,serif" font-size="14.00">componentservice or servicetype</text>
</g>
</g>
</svg>
