<?xml version="1.0" encoding="UTF-8" standalone="no"?>
<!DOCTYPE svg PUBLIC "-//W3C//DTD SVG 1.1//EN"
 "http://www.w3.org/Graphics/SVG/1.1/DTD/svg11.dtd">
<!-- Generated by graphviz version 2.43.0 (0)
 -->
<!-- Title: %3 Pages: 1 -->
<svg width="2631pt" height="291pt"
 viewBox="0.00 0.00 2631.39 291.00" xmlns="http://www.w3.org/2000/svg" xmlns:xlink="http://www.w3.org/1999/xlink">
<g id="graph0" class="graph" transform="scale(1 1) rotate(0) translate(4 287)">
<title>%3</title>
<polygon fill="white" stroke="transparent" points="-4,4 -4,-287 2627.39,-287 2627.39,4 -4,4"/>
<!-- componentservice to availability site association -->
<g id="node1" class="node">
<title>componentservice to availability site association</title>
<ellipse fill="none" stroke="black" cx="1075.39" cy="-265" rx="235.86" ry="18"/>
<text text-anchor="middle" x="1075.39" y="-261.3" font-family="Times,serif" font-size="14.00">componentservice to availability site association</text>
</g>
<!-- association -->
<g id="node2" class="node">
<title>association</title>
<ellipse fill="none" stroke="black" cx="62.39" cy="-178" rx="62.29" ry="18"/>
<text text-anchor="middle" x="62.39" y="-174.3" font-family="Times,serif" font-size="14.00">association</text>
</g>
<!-- componentservice to availability site association&#45;&gt;association -->
<g id="edge1" class="edge">
<title>componentservice to availability site association&#45;&gt;association</title>
<path fill="none" stroke="black" d="M851.76,-259.17C652.68,-253.98 376.7,-244.34 268.39,-229 214.87,-221.42 154.95,-206.08 113.59,-194.37"/>
<polygon fill="black" stroke="black" points="114.33,-190.95 103.75,-191.56 112.41,-197.68 114.33,-190.95"/>
<text text-anchor="middle" x="282.39" y="-217.8" font-family="Times,serif" font-size="14.00">is_a</text>
</g>
<!-- id -->
<g id="node3" class="node">
<title>id</title>
<ellipse fill="none" stroke="blue" cx="181.39" cy="-178" rx="38.19" ry="18"/>
<text text-anchor="middle" x="181.39" y="-174.3" font-family="Times,serif" font-size="14.00">string</text>
</g>
<!-- componentservice to availability site association&#45;&gt;id -->
<g id="edge2" class="edge">
<title>componentservice to availability site association&#45;&gt;id</title>
<path fill="none" stroke="blue" d="M844.48,-261.18C710.55,-257.31 538.93,-248.56 387.39,-229 316.25,-219.82 298.47,-215.35 229.39,-196 226.29,-195.13 223.09,-194.16 219.89,-193.14"/>
<polygon fill="blue" stroke="blue" points="220.98,-189.81 210.38,-189.97 218.76,-196.46 220.98,-189.81"/>
<text text-anchor="middle" x="394.39" y="-217.8" font-family="Times,serif" font-size="14.00">id</text>
</g>
<!-- iri -->
<g id="node4" class="node">
<title>iri</title>
<ellipse fill="none" stroke="blue" cx="282.39" cy="-178" rx="44.39" ry="18"/>
<text text-anchor="middle" x="282.39" y="-174.3" font-family="Times,serif" font-size="14.00">iri type</text>
</g>
<!-- componentservice to availability site association&#45;&gt;iri -->
<g id="edge3" class="edge">
<title>componentservice to availability site association&#45;&gt;iri</title>
<path fill="none" stroke="blue" d="M855.6,-258.45C746.08,-253.74 611.86,-245.05 492.39,-229 421.73,-219.5 404.32,-214.25 335.39,-196 332.02,-195.11 328.55,-194.13 325.07,-193.11"/>
<polygon fill="blue" stroke="blue" points="325.9,-189.7 315.32,-190.14 323.87,-196.4 325.9,-189.7"/>
<text text-anchor="middle" x="500.39" y="-217.8" font-family="Times,serif" font-size="14.00">iri</text>
</g>
<!-- name -->
<g id="node5" class="node">
<title>name</title>
<ellipse fill="none" stroke="blue" cx="401.39" cy="-178" rx="56.59" ry="18"/>
<text text-anchor="middle" x="401.39" y="-174.3" font-family="Times,serif" font-size="14.00">label type</text>
</g>
<!-- componentservice to availability site association&#45;&gt;name -->
<g id="edge4" class="edge">
<title>componentservice to availability site association&#45;&gt;name</title>
<path fill="none" stroke="blue" d="M854.37,-258.64C766.69,-253.9 665.29,-245.12 574.39,-229 530.55,-221.22 481.93,-206.62 447.43,-195.2"/>
<polygon fill="blue" stroke="blue" points="448.24,-191.78 437.65,-191.92 446.02,-198.41 448.24,-191.78"/>
<text text-anchor="middle" x="594.39" y="-217.8" font-family="Times,serif" font-size="14.00">name</text>
</g>
<!-- description -->
<g id="node6" class="node">
<title>description</title>
<ellipse fill="none" stroke="blue" cx="551.39" cy="-178" rx="75.29" ry="18"/>
<text text-anchor="middle" x="551.39" y="-174.3" font-family="Times,serif" font-size="14.00">narrative text</text>
</g>
<!-- componentservice to availability site association&#45;&gt;description -->
<g id="edge5" class="edge">
<title>componentservice to availability site association&#45;&gt;description</title>
<path fill="none" stroke="blue" d="M882.91,-254.59C793.98,-248.88 698.81,-240.46 656.39,-229 632.16,-222.45 606.71,-210.47 586.93,-199.88"/>
<polygon fill="blue" stroke="blue" points="588.44,-196.72 577.98,-194.98 585.07,-202.86 588.44,-196.72"/>
<text text-anchor="middle" x="696.89" y="-217.8" font-family="Times,serif" font-size="14.00">description</text>
</g>
<!-- source -->
<g id="node7" class="node">
<title>source</title>
<ellipse fill="none" stroke="blue" cx="701.39" cy="-178" rx="56.59" ry="18"/>
<text text-anchor="middle" x="701.39" y="-174.3" font-family="Times,serif" font-size="14.00">label type</text>
</g>
<!-- componentservice to availability site association&#45;&gt;source -->
<g id="edge6" class="edge">
<title>componentservice to availability site association&#45;&gt;source</title>
<path fill="none" stroke="blue" d="M903.83,-252.61C847.23,-247.12 792.17,-239.42 766.39,-229 751.17,-222.84 736.46,-212.08 724.9,-202.11"/>
<polygon fill="blue" stroke="blue" points="727.21,-199.48 717.43,-195.41 722.54,-204.69 727.21,-199.48"/>
<text text-anchor="middle" x="790.39" y="-217.8" font-family="Times,serif" font-size="14.00">source</text>
</g>
<!-- provided by -->
<g id="node8" class="node">
<title>provided by</title>
<ellipse fill="none" stroke="blue" cx="813.39" cy="-178" rx="37.09" ry="18"/>
<text text-anchor="middle" x="813.39" y="-174.3" font-family="Times,serif" font-size="14.00">agent</text>
</g>
<!-- componentservice to availability site association&#45;&gt;provided by -->
<g id="edge7" class="edge">
<title>componentservice to availability site association&#45;&gt;provided by</title>
<path fill="none" stroke="blue" d="M900.31,-252.87C867.8,-247.68 840.07,-240.1 827.39,-229 820.84,-223.26 817.23,-214.72 815.29,-206.32"/>
<polygon fill="blue" stroke="blue" points="818.73,-205.64 813.66,-196.34 811.82,-206.77 818.73,-205.64"/>
<text text-anchor="middle" x="869.89" y="-217.8" font-family="Times,serif" font-size="14.00">provided by</text>
</g>
<!-- has attribute -->
<g id="node9" class="node">
<title>has attribute</title>
<ellipse fill="none" stroke="blue" cx="920.39" cy="-178" rx="51.99" ry="18"/>
<text text-anchor="middle" x="920.39" y="-174.3" font-family="Times,serif" font-size="14.00">attribute</text>
</g>
<!-- componentservice to availability site association&#45;&gt;has attribute -->
<g id="edge8" class="edge">
<title>componentservice to availability site association&#45;&gt;has attribute</title>
<path fill="none" stroke="blue" d="M966.15,-248.98C945.52,-243.94 928.24,-237.4 921.39,-229 916.23,-222.66 914.73,-214.21 914.9,-206.07"/>
<polygon fill="blue" stroke="blue" points="918.38,-206.39 915.85,-196.1 911.41,-205.72 918.38,-206.39"/>
<text text-anchor="middle" x="968.39" y="-217.8" font-family="Times,serif" font-size="14.00">has attribute</text>
</g>
<!-- relation -->
<g id="node10" class="node">
<title>relation</title>
<ellipse fill="none" stroke="blue" cx="2040.39" cy="-18" rx="57.39" ry="18"/>
<text text-anchor="middle" x="2040.39" y="-14.3" font-family="Times,serif" font-size="14.00">uriorcurie</text>
</g>
<!-- componentservice to availability site association&#45;&gt;relation -->
<g id="edge9" class="edge">
<title>componentservice to availability site association&#45;&gt;relation</title>
<path fill="none" stroke="blue" d="M1054.2,-246.73C1029.86,-224.84 996.09,-186.75 1019.39,-160 1082.54,-87.54 1758.88,-37.39 1974.65,-23.14"/>
<polygon fill="blue" stroke="blue" points="1975.12,-26.62 1984.87,-22.47 1974.66,-19.63 1975.12,-26.62"/>
<text text-anchor="middle" x="1118.39" y="-130.8" font-family="Times,serif" font-size="14.00">relation</text>
</g>
<!-- negated -->
<g id="node11" class="node">
<title>negated</title>
<ellipse fill="none" stroke="blue" cx="1075.39" cy="-178" rx="46.59" ry="18"/>
<text text-anchor="middle" x="1075.39" y="-174.3" font-family="Times,serif" font-size="14.00">boolean</text>
</g>
<!-- componentservice to availability site association&#45;&gt;negated -->
<g id="edge10" class="edge">
<title>componentservice to availability site association&#45;&gt;negated</title>
<path fill="none" stroke="blue" d="M1075.39,-246.8C1075.39,-235.16 1075.39,-219.55 1075.39,-206.24"/>
<polygon fill="blue" stroke="blue" points="1078.89,-206.18 1075.39,-196.18 1071.89,-206.18 1078.89,-206.18"/>
<text text-anchor="middle" x="1104.39" y="-217.8" font-family="Times,serif" font-size="14.00">negated</text>
</g>
<!-- qualifiers -->
<g id="node12" class="node">
<title>qualifiers</title>
<ellipse fill="none" stroke="blue" cx="1216.39" cy="-178" rx="76.89" ry="18"/>
<text text-anchor="middle" x="1216.39" y="-174.3" font-family="Times,serif" font-size="14.00">ontology class</text>
</g>
<!-- componentservice to availability site association&#45;&gt;qualifiers -->
<g id="edge11" class="edge">
<title>componentservice to availability site association&#45;&gt;qualifiers</title>
<path fill="none" stroke="blue" d="M1106.16,-247.04C1116.18,-241.4 1127.32,-235.03 1137.39,-229 1152.48,-219.98 1168.93,-209.64 1182.91,-200.72"/>
<polygon fill="blue" stroke="blue" points="1185.16,-203.43 1191.69,-195.09 1181.38,-197.54 1185.16,-203.43"/>
<text text-anchor="middle" x="1195.89" y="-217.8" font-family="Times,serif" font-size="14.00">qualifiers</text>
</g>
<!-- publications -->
<g id="node13" class="node">
<title>publications</title>
<ellipse fill="none" stroke="blue" cx="1373.39" cy="-178" rx="62.29" ry="18"/>
<text text-anchor="middle" x="1373.39" y="-174.3" font-family="Times,serif" font-size="14.00">publication</text>
</g>
<!-- componentservice to availability site association&#45;&gt;publications -->
<g id="edge12" class="edge">
<title>componentservice to availability site association&#45;&gt;publications</title>
<path fill="none" stroke="blue" d="M1156.67,-248.03C1181.46,-242.62 1208.69,-236.12 1233.39,-229 1265.64,-219.71 1301.25,-206.96 1328.49,-196.66"/>
<polygon fill="blue" stroke="blue" points="1330.02,-199.82 1338.12,-192.98 1327.53,-193.28 1330.02,-199.82"/>
<text text-anchor="middle" x="1324.39" y="-217.8" font-family="Times,serif" font-size="14.00">publications</text>
</g>
<!-- type -->
<g id="node14" class="node">
<title>type</title>
<ellipse fill="none" stroke="black" cx="1485.39" cy="-178" rx="31.4" ry="18"/>
<text text-anchor="middle" x="1485.39" y="-174.3" font-family="Times,serif" font-size="14.00">type</text>
</g>
<!-- componentservice to availability site association&#45;&gt;type -->
<g id="edge13" class="edge">
<title>componentservice to availability site association&#45;&gt;type</title>
<path fill="none" stroke="blue" d="M1247.09,-252.6C1288.58,-247.44 1332.46,-239.92 1372.39,-229 1401.36,-221.08 1432.44,-206.87 1454.66,-195.61"/>
<polygon fill="blue" stroke="blue" points="1456.32,-198.69 1463.61,-191 1453.12,-192.47 1456.32,-198.69"/>
<text text-anchor="middle" x="1430.39" y="-217.8" font-family="Times,serif" font-size="14.00">type</text>
</g>
<!-- category -->
<g id="node16" class="node">
<title>category</title>
<ellipse fill="none" stroke="black" cx="1586.39" cy="-178" rx="51.19" ry="18"/>
<text text-anchor="middle" x="1586.39" y="-174.3" font-family="Times,serif" font-size="14.00">category</text>
</g>
<!-- componentservice to availability site association&#45;&gt;category -->
<g id="edge14" class="edge">
<title>componentservice to availability site association&#45;&gt;category</title>
<path fill="none" stroke="blue" d="M1245.08,-252.43C1325.22,-246.1 1411.65,-237.77 1450.39,-229 1483.83,-221.43 1520.2,-207.75 1546.91,-196.61"/>
<polygon fill="blue" stroke="blue" points="1548.45,-199.76 1556.29,-192.64 1545.72,-193.32 1548.45,-199.76"/>
<text text-anchor="middle" x="1531.89" y="-217.8" font-family="Times,serif" font-size="14.00">category</text>
</g>
<!-- stage qualifier -->
<g id="node18" class="node">
<title>stage qualifier</title>
<ellipse fill="none" stroke="black" cx="1733.39" cy="-178" rx="77.19" ry="18"/>
<text text-anchor="middle" x="1733.39" y="-174.3" font-family="Times,serif" font-size="14.00">stage qualifier</text>
</g>
<!-- componentservice to availability site association&#45;&gt;stage qualifier -->
<g id="edge15" class="edge">
<title>componentservice to availability site association&#45;&gt;stage qualifier</title>
<path fill="none" stroke="blue" d="M1242.81,-252.31C1383.81,-242.42 1563.31,-229.75 1567.39,-229 1607.5,-221.63 1651.65,-208.05 1684.33,-196.91"/>
<polygon fill="blue" stroke="blue" points="1685.78,-200.11 1694.09,-193.54 1683.49,-193.49 1685.78,-200.11"/>
<text text-anchor="middle" x="1679.89" y="-217.8" font-family="Times,serif" font-size="14.00">stage qualifier</text>
</g>
<!-- quantifier qualifier -->
<g id="node20" class="node">
<title>quantifier qualifier</title>
<ellipse fill="none" stroke="black" cx="1926.39" cy="-178" rx="97.48" ry="18"/>
<text text-anchor="middle" x="1926.39" y="-174.3" font-family="Times,serif" font-size="14.00">quantifier qualifier</text>
</g>
<!-- componentservice to availability site association&#45;&gt;quantifier qualifier -->
<g id="edge16" class="edge">
<title>componentservice to availability site association&#45;&gt;quantifier qualifier</title>
<path fill="none" stroke="blue" d="M1239.43,-252.03C1266.47,-250.22 1294.21,-248.48 1320.39,-247 1504.72,-236.61 1552.84,-256.53 1735.39,-229 1781.75,-222.01 1833.1,-208.21 1870.87,-196.88"/>
<polygon fill="blue" stroke="blue" points="1872.1,-200.17 1880.65,-193.91 1870.07,-193.47 1872.1,-200.17"/>
<text text-anchor="middle" x="1872.39" y="-217.8" font-family="Times,serif" font-size="14.00">quantifier qualifier</text>
</g>
<!-- subject -->
<g id="node22" class="node">
<title>subject</title>
<ellipse fill="none" stroke="black" cx="2086.39" cy="-178" rx="44.39" ry="18"/>
<text text-anchor="middle" x="2086.39" y="-174.3" font-family="Times,serif" font-size="14.00">subject</text>
</g>
<!-- componentservice to availability site association&#45;&gt;subject -->
<g id="edge17" class="edge">
<title>componentservice to availability site association&#45;&gt;subject</title>
<path fill="none" stroke="blue" d="M1237.11,-251.85C1264.88,-250.03 1293.46,-248.32 1320.39,-247 1458.73,-240.2 1807.2,-254.15 1943.39,-229 1980.18,-222.21 2020.23,-207.53 2048.56,-195.82"/>
<polygon fill="blue" stroke="blue" points="2050.21,-198.93 2058.07,-191.82 2047.5,-192.47 2050.21,-198.93"/>
<text text-anchor="middle" x="2026.39" y="-217.8" font-family="Times,serif" font-size="14.00">subject</text>
</g>
<!-- object -->
<g id="node24" class="node">
<title>object</title>
<ellipse fill="none" stroke="black" cx="2107.39" cy="-91" rx="38.99" ry="18"/>
<text text-anchor="middle" x="2107.39" y="-87.3" font-family="Times,serif" font-size="14.00">object</text>
</g>
<!-- componentservice to availability site association&#45;&gt;object -->
<g id="edge18" class="edge">
<title>componentservice to availability site association&#45;&gt;object</title>
<path fill="none" stroke="blue" d="M1236.12,-251.81C1264.2,-249.98 1293.14,-248.28 1320.39,-247 1402.11,-243.17 1976.25,-245.37 2056.39,-229 2095.29,-221.06 2113.39,-225.99 2139.39,-196 2159.84,-172.42 2166.1,-155.03 2152.39,-127 2149.54,-121.17 2145.19,-116.02 2140.3,-111.6"/>
<polygon fill="blue" stroke="blue" points="2142.32,-108.73 2132.32,-105.25 2137.96,-114.21 2142.32,-108.73"/>
<text text-anchor="middle" x="2180.39" y="-174.3" font-family="Times,serif" font-size="14.00">object</text>
</g>
<!-- predicate -->
<g id="node26" class="node">
<title>predicate</title>
<ellipse fill="none" stroke="black" cx="2283.39" cy="-178" rx="54.69" ry="18"/>
<text text-anchor="middle" x="2283.39" y="-174.3" font-family="Times,serif" font-size="14.00">predicate</text>
</g>
<!-- componentservice to availability site association&#45;&gt;predicate -->
<g id="edge19" class="edge">
<title>componentservice to availability site association&#45;&gt;predicate</title>
<path fill="none" stroke="blue" d="M1235.45,-251.78C1263.74,-249.93 1292.92,-248.24 1320.39,-247 1415.87,-242.69 2087.48,-251.39 2180.39,-229 2205.25,-223.01 2231.13,-210.42 2250.73,-199.37"/>
<polygon fill="blue" stroke="blue" points="2252.64,-202.31 2259.55,-194.27 2249.14,-196.25 2252.64,-202.31"/>
<text text-anchor="middle" x="2255.39" y="-217.8" font-family="Times,serif" font-size="14.00">predicate</text>
</g>
<!-- association_type -->
<g id="node15" class="node">
<title>association_type</title>
<ellipse fill="none" stroke="blue" cx="1367.39" cy="-265" rx="38.19" ry="18"/>
<text text-anchor="middle" x="1367.39" y="-261.3" font-family="Times,serif" font-size="14.00">string</text>
</g>
<!-- association_category -->
<g id="node17" class="node">
<title>association_category</title>
<ellipse fill="none" stroke="blue" cx="1486.39" cy="-265" rx="62.29" ry="18"/>
<text text-anchor="middle" x="1486.39" y="-261.3" font-family="Times,serif" font-size="14.00">association</text>
</g>
<!-- componentservice to availability site association_stage qualifier -->
<g id="node19" class="node">
<title>componentservice to availability site association_stage qualifier</title>
<ellipse fill="none" stroke="blue" cx="1644.39" cy="-265" rx="77.19" ry="18"/>
<text text-anchor="middle" x="1644.39" y="-261.3" font-family="Times,serif" font-size="14.00">lifecycle stage</text>
</g>
<!-- componentservice to availability site association_quantifier qualifier -->
<g id="node21" class="node">
<title>componentservice to availability site association_quantifier qualifier</title>
<ellipse fill="none" stroke="blue" cx="1816.39" cy="-265" rx="76.89" ry="18"/>
<text text-anchor="middle" x="1816.39" y="-261.3" font-family="Times,serif" font-size="14.00">ontology class</text>
</g>
<!-- subject&#45;&gt;relation -->
<g id="edge21" class="edge">
<title>subject&#45;&gt;relation</title>
<path fill="none" stroke="black" stroke-dasharray="1,5" d="M2078.81,-160.24C2072.89,-146.64 2064.79,-126.88 2059.39,-109 2053.14,-88.27 2048.18,-64.24 2044.9,-46.23"/>
<polygon fill="black" stroke="black" points="2048.3,-45.38 2043.12,-36.14 2041.41,-46.59 2048.3,-45.38"/>
</g>
<!-- subject&#45;&gt;object -->
<g id="edge20" class="edge">
<title>subject&#45;&gt;object</title>
<path fill="none" stroke="black" d="M2089.37,-159.77C2091.16,-150.09 2093.62,-137.8 2096.39,-127 2097.08,-124.32 2097.85,-121.53 2098.66,-118.76"/>
<polygon fill="black" stroke="black" points="2102.07,-119.57 2101.65,-108.98 2095.38,-117.52 2102.07,-119.57"/>
<text text-anchor="middle" x="2124.39" y="-130.8" font-family="Times,serif" font-size="14.00">relation</text>
</g>
<!-- componentservice to availability site association_subject -->
<g id="node23" class="node">
<title>componentservice to availability site association_subject</title>
<ellipse fill="none" stroke="blue" cx="2075.39" cy="-265" rx="164.37" ry="18"/>
<text text-anchor="middle" x="2075.39" y="-261.3" font-family="Times,serif" font-size="14.00">componentservice or servicetype</text>
</g>
<!-- object&#45;&gt;relation -->
<g id="edge22" class="edge">
<title>object&#45;&gt;relation</title>
<path fill="none" stroke="black" stroke-dasharray="1,5" d="M2092.52,-74.24C2083.92,-65.13 2072.92,-53.47 2063.24,-43.21"/>
<polygon fill="black" stroke="black" points="2065.56,-40.57 2056.16,-35.7 2060.47,-45.38 2065.56,-40.57"/>
</g>
<!-- componentservice to availability site association_object -->
<g id="node25" class="node">
<title>componentservice to availability site association_object</title>
<ellipse fill="none" stroke="blue" cx="2353.39" cy="-265" rx="95.58" ry="18"/>
<text text-anchor="middle" x="2353.39" y="-261.3" font-family="Times,serif" font-size="14.00">deployment entity</text>
</g>
<!-- componentservice to availability site association_predicate -->
<g id="node27" class="node">
<title>componentservice to availability site association_predicate</title>
<ellipse fill="none" stroke="blue" cx="2545.39" cy="-265" rx="77.99" ry="18"/>
<text text-anchor="middle" x="2545.39" y="-261.3" font-family="Times,serif" font-size="14.00">predicate type</text>
</g>
</g>
</svg>
