<?xml version="1.0" encoding="UTF-8" standalone="no"?>
<!DOCTYPE svg PUBLIC "-//W3C//DTD SVG 1.1//EN"
 "http://www.w3.org/Graphics/SVG/1.1/DTD/svg11.dtd">
<!-- Generated by graphviz version 2.43.0 (0)
 -->
<!-- Title: %3 Pages: 1 -->
<svg width="2906pt" height="291pt"
 viewBox="0.00 0.00 2905.68 291.00" xmlns="http://www.w3.org/2000/svg" xmlns:xlink="http://www.w3.org/1999/xlink">
<g id="graph0" class="graph" transform="scale(1 1) rotate(0) translate(4 287)">
<title>%3</title>
<polygon fill="white" stroke="transparent" points="-4,4 -4,-287 2901.68,-287 2901.68,4 -4,4"/>
<!-- componentservice has variant that contributes to error association -->
<g id="node1" class="node">
<title>componentservice has variant that contributes to error association</title>
<ellipse fill="none" stroke="black" cx="1472.48" cy="-265" rx="321.94" ry="18"/>
<text text-anchor="middle" x="1472.48" y="-261.3" font-family="Times,serif" font-size="14.00">componentservice has variant that contributes to error association</text>
</g>
<!-- componentservice to error association -->
<g id="node2" class="node">
<title>componentservice to error association</title>
<ellipse fill="none" stroke="black" cx="188.48" cy="-178" rx="188.47" ry="18"/>
<text text-anchor="middle" x="188.48" y="-174.3" font-family="Times,serif" font-size="14.00">componentservice to error association</text>
</g>
<!-- componentservice has variant that contributes to error association&#45;&gt;componentservice to error association -->
<g id="edge1" class="edge">
<title>componentservice has variant that contributes to error association&#45;&gt;componentservice to error association</title>
<path fill="none" stroke="black" d="M1157.22,-261.37C971.29,-257.59 731.62,-248.85 519.48,-229 438.71,-221.44 347.62,-207.26 281.47,-195.93"/>
<polygon fill="black" stroke="black" points="281.93,-192.45 271.48,-194.2 280.74,-199.35 281.93,-192.45"/>
<text text-anchor="middle" x="533.48" y="-217.8" font-family="Times,serif" font-size="14.00">is_a</text>
</g>
<!-- id -->
<g id="node3" class="node">
<title>id</title>
<ellipse fill="none" stroke="blue" cx="433.48" cy="-178" rx="38.19" ry="18"/>
<text text-anchor="middle" x="433.48" y="-174.3" font-family="Times,serif" font-size="14.00">string</text>
</g>
<!-- componentservice has variant that contributes to error association&#45;&gt;id -->
<g id="edge2" class="edge">
<title>componentservice has variant that contributes to error association&#45;&gt;id</title>
<path fill="none" stroke="blue" d="M1154.13,-262.36C999.52,-258.57 811.32,-249.51 643.48,-229 570.55,-220.09 552.29,-215.65 481.48,-196 478.37,-195.14 475.18,-194.17 471.98,-193.16"/>
<polygon fill="blue" stroke="blue" points="473.06,-189.83 462.47,-190 470.85,-196.47 473.06,-189.83"/>
<text text-anchor="middle" x="650.48" y="-217.8" font-family="Times,serif" font-size="14.00">id</text>
</g>
<!-- iri -->
<g id="node4" class="node">
<title>iri</title>
<ellipse fill="none" stroke="blue" cx="534.48" cy="-178" rx="44.39" ry="18"/>
<text text-anchor="middle" x="534.48" y="-174.3" font-family="Times,serif" font-size="14.00">iri type</text>
</g>
<!-- componentservice has variant that contributes to error association&#45;&gt;iri -->
<g id="edge3" class="edge">
<title>componentservice has variant that contributes to error association&#45;&gt;iri</title>
<path fill="none" stroke="blue" d="M1167.71,-259.22C1039.18,-254.6 888.17,-245.77 752.48,-229 678.26,-219.83 659.87,-214.78 587.48,-196 584.11,-195.12 580.63,-194.16 577.15,-193.14"/>
<polygon fill="blue" stroke="blue" points="577.98,-189.74 567.39,-190.19 575.95,-196.44 577.98,-189.74"/>
<text text-anchor="middle" x="760.48" y="-217.8" font-family="Times,serif" font-size="14.00">iri</text>
</g>
<!-- name -->
<g id="node5" class="node">
<title>name</title>
<ellipse fill="none" stroke="blue" cx="653.48" cy="-178" rx="56.59" ry="18"/>
<text text-anchor="middle" x="653.48" y="-174.3" font-family="Times,serif" font-size="14.00">label type</text>
</g>
<!-- componentservice has variant that contributes to error association&#45;&gt;name -->
<g id="edge4" class="edge">
<title>componentservice has variant that contributes to error association&#45;&gt;name</title>
<path fill="none" stroke="blue" d="M1164.44,-259.78C1060.71,-254.97 944.63,-245.85 839.48,-229 791.44,-221.3 737.93,-206.2 700.68,-194.6"/>
<polygon fill="blue" stroke="blue" points="701.69,-191.25 691.1,-191.58 699.59,-197.93 701.69,-191.25"/>
<text text-anchor="middle" x="859.48" y="-217.8" font-family="Times,serif" font-size="14.00">name</text>
</g>
<!-- description -->
<g id="node6" class="node">
<title>description</title>
<ellipse fill="none" stroke="blue" cx="803.48" cy="-178" rx="75.29" ry="18"/>
<text text-anchor="middle" x="803.48" y="-174.3" font-family="Times,serif" font-size="14.00">narrative text</text>
</g>
<!-- componentservice has variant that contributes to error association&#45;&gt;description -->
<g id="edge5" class="edge">
<title>componentservice has variant that contributes to error association&#45;&gt;description</title>
<path fill="none" stroke="blue" d="M1207.49,-254.77C1096.73,-249.28 981.56,-241 928.48,-229 899,-222.33 867.4,-209.64 843.35,-198.71"/>
<polygon fill="blue" stroke="blue" points="844.74,-195.5 834.2,-194.47 841.8,-201.85 844.74,-195.5"/>
<text text-anchor="middle" x="968.98" y="-217.8" font-family="Times,serif" font-size="14.00">description</text>
</g>
<!-- source -->
<g id="node7" class="node">
<title>source</title>
<ellipse fill="none" stroke="blue" cx="953.48" cy="-178" rx="56.59" ry="18"/>
<text text-anchor="middle" x="953.48" y="-174.3" font-family="Times,serif" font-size="14.00">label type</text>
</g>
<!-- componentservice has variant that contributes to error association&#45;&gt;source -->
<g id="edge6" class="edge">
<title>componentservice has variant that contributes to error association&#45;&gt;source</title>
<path fill="none" stroke="blue" d="M1236.89,-252.74C1159.86,-247.29 1084.78,-239.57 1048.48,-229 1026.24,-222.52 1003.19,-210.54 985.37,-199.93"/>
<polygon fill="blue" stroke="blue" points="986.92,-196.78 976.56,-194.55 983.27,-202.75 986.92,-196.78"/>
<text text-anchor="middle" x="1072.48" y="-217.8" font-family="Times,serif" font-size="14.00">source</text>
</g>
<!-- provided by -->
<g id="node8" class="node">
<title>provided by</title>
<ellipse fill="none" stroke="blue" cx="1065.48" cy="-178" rx="37.09" ry="18"/>
<text text-anchor="middle" x="1065.48" y="-174.3" font-family="Times,serif" font-size="14.00">agent</text>
</g>
<!-- componentservice has variant that contributes to error association&#45;&gt;provided by -->
<g id="edge7" class="edge">
<title>componentservice has variant that contributes to error association&#45;&gt;provided by</title>
<path fill="none" stroke="blue" d="M1247.22,-252.13C1194.52,-246.93 1146.71,-239.52 1122.48,-229 1108.63,-222.98 1095.74,-212.31 1085.74,-202.37"/>
<polygon fill="blue" stroke="blue" points="1088.13,-199.8 1078.68,-195 1083.07,-204.64 1088.13,-199.8"/>
<text text-anchor="middle" x="1164.98" y="-217.8" font-family="Times,serif" font-size="14.00">provided by</text>
</g>
<!-- has attribute -->
<g id="node9" class="node">
<title>has attribute</title>
<ellipse fill="none" stroke="blue" cx="1172.48" cy="-178" rx="51.99" ry="18"/>
<text text-anchor="middle" x="1172.48" y="-174.3" font-family="Times,serif" font-size="14.00">attribute</text>
</g>
<!-- componentservice has variant that contributes to error association&#45;&gt;has attribute -->
<g id="edge8" class="edge">
<title>componentservice has variant that contributes to error association&#45;&gt;has attribute</title>
<path fill="none" stroke="blue" d="M1301.17,-249.69C1278.55,-244.64 1256.09,-237.93 1235.48,-229 1220.84,-222.66 1206.72,-212.02 1195.57,-202.18"/>
<polygon fill="blue" stroke="blue" points="1197.74,-199.42 1188.01,-195.23 1193,-204.57 1197.74,-199.42"/>
<text text-anchor="middle" x="1282.48" y="-217.8" font-family="Times,serif" font-size="14.00">has attribute</text>
</g>
<!-- predicate -->
<g id="node10" class="node">
<title>predicate</title>
<ellipse fill="none" stroke="blue" cx="1320.48" cy="-178" rx="77.99" ry="18"/>
<text text-anchor="middle" x="1320.48" y="-174.3" font-family="Times,serif" font-size="14.00">predicate type</text>
</g>
<!-- componentservice has variant that contributes to error association&#45;&gt;predicate -->
<g id="edge9" class="edge">
<title>componentservice has variant that contributes to error association&#45;&gt;predicate</title>
<path fill="none" stroke="blue" d="M1376.69,-247.76C1365.05,-243.02 1353.95,-236.89 1344.48,-229 1337.18,-222.91 1331.93,-214.07 1328.25,-205.51"/>
<polygon fill="blue" stroke="blue" points="1331.52,-204.26 1324.73,-196.13 1324.97,-206.72 1331.52,-204.26"/>
<text text-anchor="middle" x="1378.48" y="-217.8" font-family="Times,serif" font-size="14.00">predicate</text>
</g>
<!-- object -->
<g id="node11" class="node">
<title>object</title>
<ellipse fill="none" stroke="blue" cx="2139.48" cy="-91" rx="69.59" ry="18"/>
<text text-anchor="middle" x="2139.48" y="-87.3" font-family="Times,serif" font-size="14.00">named thing</text>
</g>
<!-- componentservice has variant that contributes to error association&#45;&gt;object -->
<g id="edge10" class="edge">
<title>componentservice has variant that contributes to error association&#45;&gt;object</title>
<path fill="none" stroke="blue" d="M1468.1,-246.93C1463.3,-223.83 1458.99,-182.87 1481.48,-160 1521.44,-119.37 1894.93,-100.87 2060.78,-94.6"/>
<polygon fill="blue" stroke="blue" points="2061.06,-98.1 2070.92,-94.23 2060.8,-91.1 2061.06,-98.1"/>
<text text-anchor="middle" x="1503.48" y="-174.3" font-family="Times,serif" font-size="14.00">object</text>
</g>
<!-- relation -->
<g id="node12" class="node">
<title>relation</title>
<ellipse fill="none" stroke="blue" cx="2139.48" cy="-18" rx="57.39" ry="18"/>
<text text-anchor="middle" x="2139.48" y="-14.3" font-family="Times,serif" font-size="14.00">uriorcurie</text>
</g>
<!-- componentservice has variant that contributes to error association&#45;&gt;relation -->
<g id="edge11" class="edge">
<title>componentservice has variant that contributes to error association&#45;&gt;relation</title>
<path fill="none" stroke="blue" d="M1465.01,-246.56C1453.66,-217.02 1436.65,-157.37 1469.48,-127 1556.52,-46.5 1920.78,-25.82 2072.6,-20.66"/>
<polygon fill="blue" stroke="blue" points="2072.84,-24.15 2082.72,-20.33 2072.61,-17.16 2072.84,-24.15"/>
<text text-anchor="middle" x="1497.48" y="-130.8" font-family="Times,serif" font-size="14.00">relation</text>
</g>
<!-- negated -->
<g id="node13" class="node">
<title>negated</title>
<ellipse fill="none" stroke="blue" cx="1581.48" cy="-178" rx="46.59" ry="18"/>
<text text-anchor="middle" x="1581.48" y="-174.3" font-family="Times,serif" font-size="14.00">boolean</text>
</g>
<!-- componentservice has variant that contributes to error association&#45;&gt;negated -->
<g id="edge12" class="edge">
<title>componentservice has variant that contributes to error association&#45;&gt;negated</title>
<path fill="none" stroke="blue" d="M1494.28,-247C1511.3,-233.73 1535.08,-215.18 1553.51,-200.81"/>
<polygon fill="blue" stroke="blue" points="1555.83,-203.45 1561.56,-194.54 1551.52,-197.93 1555.83,-203.45"/>
<text text-anchor="middle" x="1563.48" y="-217.8" font-family="Times,serif" font-size="14.00">negated</text>
</g>
<!-- qualifiers -->
<g id="node14" class="node">
<title>qualifiers</title>
<ellipse fill="none" stroke="blue" cx="1722.48" cy="-178" rx="76.89" ry="18"/>
<text text-anchor="middle" x="1722.48" y="-174.3" font-family="Times,serif" font-size="14.00">ontology class</text>
</g>
<!-- componentservice has variant that contributes to error association&#45;&gt;qualifiers -->
<g id="edge13" class="edge">
<title>componentservice has variant that contributes to error association&#45;&gt;qualifiers</title>
<path fill="none" stroke="blue" d="M1536.27,-247.35C1555.73,-241.91 1577.1,-235.56 1596.48,-229 1623.81,-219.75 1653.87,-207.89 1677.77,-198.04"/>
<polygon fill="blue" stroke="blue" points="1679.38,-201.16 1687.27,-194.1 1676.69,-194.7 1679.38,-201.16"/>
<text text-anchor="middle" x="1668.98" y="-217.8" font-family="Times,serif" font-size="14.00">qualifiers</text>
</g>
<!-- publications -->
<g id="node15" class="node">
<title>publications</title>
<ellipse fill="none" stroke="blue" cx="1879.48" cy="-178" rx="62.29" ry="18"/>
<text text-anchor="middle" x="1879.48" y="-174.3" font-family="Times,serif" font-size="14.00">publication</text>
</g>
<!-- componentservice has variant that contributes to error association&#45;&gt;publications -->
<g id="edge14" class="edge">
<title>componentservice has variant that contributes to error association&#45;&gt;publications</title>
<path fill="none" stroke="blue" d="M1597.82,-248.39C1633.14,-243.14 1671.47,-236.64 1706.48,-229 1748.74,-219.78 1795.85,-205.92 1830.22,-195.13"/>
<polygon fill="blue" stroke="blue" points="1831.54,-198.39 1840.01,-192.03 1829.42,-191.71 1831.54,-198.39"/>
<text text-anchor="middle" x="1808.48" y="-217.8" font-family="Times,serif" font-size="14.00">publications</text>
</g>
<!-- type -->
<g id="node16" class="node">
<title>type</title>
<ellipse fill="none" stroke="black" cx="1991.48" cy="-178" rx="31.4" ry="18"/>
<text text-anchor="middle" x="1991.48" y="-174.3" font-family="Times,serif" font-size="14.00">type</text>
</g>
<!-- componentservice has variant that contributes to error association&#45;&gt;type -->
<g id="edge15" class="edge">
<title>componentservice has variant that contributes to error association&#45;&gt;type</title>
<path fill="none" stroke="blue" d="M1702.08,-252.39C1753.26,-247.22 1807.02,-239.76 1856.48,-229 1892.37,-221.19 1931.54,-205.87 1958.4,-194.24"/>
<polygon fill="blue" stroke="blue" points="1959.97,-197.37 1967.71,-190.14 1957.15,-190.96 1959.97,-197.37"/>
<text text-anchor="middle" x="1922.48" y="-217.8" font-family="Times,serif" font-size="14.00">type</text>
</g>
<!-- category -->
<g id="node18" class="node">
<title>category</title>
<ellipse fill="none" stroke="black" cx="2092.48" cy="-178" rx="51.19" ry="18"/>
<text text-anchor="middle" x="2092.48" y="-174.3" font-family="Times,serif" font-size="14.00">category</text>
</g>
<!-- componentservice has variant that contributes to error association&#45;&gt;category -->
<g id="edge16" class="edge">
<title>componentservice has variant that contributes to error association&#45;&gt;category</title>
<path fill="none" stroke="blue" d="M1700.87,-252.29C1796.61,-246.28 1896.3,-238.27 1942.48,-229 1980.08,-221.45 2021.32,-207.25 2051.02,-195.91"/>
<polygon fill="blue" stroke="blue" points="2052.57,-199.06 2060.63,-192.18 2050.04,-192.53 2052.57,-199.06"/>
<text text-anchor="middle" x="2028.98" y="-217.8" font-family="Times,serif" font-size="14.00">category</text>
</g>
<!-- frequency qualifier -->
<g id="node20" class="node">
<title>frequency qualifier</title>
<ellipse fill="none" stroke="blue" cx="2246.48" cy="-178" rx="85.29" ry="18"/>
<text text-anchor="middle" x="2246.48" y="-174.3" font-family="Times,serif" font-size="14.00">frequency value</text>
</g>
<!-- componentservice has variant that contributes to error association&#45;&gt;frequency qualifier -->
<g id="edge17" class="edge">
<title>componentservice has variant that contributes to error association&#45;&gt;frequency qualifier</title>
<path fill="none" stroke="blue" d="M1694.55,-251.95C1854.7,-243.09 2045.88,-232.07 2064.48,-229 2108.66,-221.71 2157.54,-207.95 2193.5,-196.71"/>
<polygon fill="blue" stroke="blue" points="2194.81,-199.97 2203.29,-193.62 2192.7,-193.3 2194.81,-199.97"/>
<text text-anchor="middle" x="2198.48" y="-217.8" font-family="Times,serif" font-size="14.00">frequency qualifier</text>
</g>
<!-- severity qualifier -->
<g id="node21" class="node">
<title>severity qualifier</title>
<ellipse fill="none" stroke="blue" cx="2425.48" cy="-178" rx="76.09" ry="18"/>
<text text-anchor="middle" x="2425.48" y="-174.3" font-family="Times,serif" font-size="14.00">severity value</text>
</g>
<!-- componentservice has variant that contributes to error association&#45;&gt;severity qualifier -->
<g id="edge18" class="edge">
<title>componentservice has variant that contributes to error association&#45;&gt;severity qualifier</title>
<path fill="none" stroke="blue" d="M1696.81,-252.09C1732.49,-250.31 1768.99,-248.55 1803.48,-247 1907.23,-242.34 2168.22,-247.11 2270.48,-229 2308.04,-222.35 2349.06,-208.82 2379.46,-197.51"/>
<polygon fill="blue" stroke="blue" points="2380.82,-200.74 2388.94,-193.93 2378.35,-194.19 2380.82,-200.74"/>
<text text-anchor="middle" x="2388.48" y="-217.8" font-family="Times,serif" font-size="14.00">severity qualifier</text>
</g>
<!-- onset qualifier -->
<g id="node22" class="node">
<title>onset qualifier</title>
<ellipse fill="none" stroke="blue" cx="2555.48" cy="-178" rx="36.29" ry="18"/>
<text text-anchor="middle" x="2555.48" y="-174.3" font-family="Times,serif" font-size="14.00">onset</text>
</g>
<!-- componentservice has variant that contributes to error association&#45;&gt;onset qualifier -->
<g id="edge19" class="edge">
<title>componentservice has variant that contributes to error association&#45;&gt;onset qualifier</title>
<path fill="none" stroke="blue" d="M1693.67,-251.91C1730.34,-250.12 1767.98,-248.4 1803.48,-247 1875.68,-244.15 2383.33,-246.3 2453.48,-229 2479.11,-222.68 2505.81,-209.31 2525.46,-197.98"/>
<polygon fill="blue" stroke="blue" points="2527.42,-200.89 2534.24,-192.79 2523.85,-194.87 2527.42,-200.89"/>
<text text-anchor="middle" x="2545.98" y="-217.8" font-family="Times,serif" font-size="14.00">onset qualifier</text>
</g>
<!-- sequence variant qualifier -->
<g id="node23" class="node">
<title>sequence variant qualifier</title>
<ellipse fill="none" stroke="blue" cx="2700.48" cy="-178" rx="90.18" ry="18"/>
<text text-anchor="middle" x="2700.48" y="-174.3" font-family="Times,serif" font-size="14.00">sequence variant</text>
</g>
<!-- componentservice has variant that contributes to error association&#45;&gt;sequence variant qualifier -->
<g id="edge20" class="edge">
<title>componentservice has variant that contributes to error association&#45;&gt;sequence variant qualifier</title>
<path fill="none" stroke="blue" d="M1692.33,-251.82C1729.43,-250.02 1767.54,-248.33 1803.48,-247 1892.11,-243.73 2515.45,-250.52 2601.48,-229 2624.6,-223.22 2648.5,-211.34 2667.03,-200.62"/>
<polygon fill="blue" stroke="blue" points="2668.86,-203.6 2675.66,-195.47 2665.28,-197.58 2668.86,-203.6"/>
<text text-anchor="middle" x="2733.98" y="-217.8" font-family="Times,serif" font-size="14.00">sequence variant qualifier</text>
</g>
<!-- subject -->
<g id="node24" class="node">
<title>subject</title>
<ellipse fill="none" stroke="black" cx="2853.48" cy="-178" rx="44.39" ry="18"/>
<text text-anchor="middle" x="2853.48" y="-174.3" font-family="Times,serif" font-size="14.00">subject</text>
</g>
<!-- componentservice has variant that contributes to error association&#45;&gt;subject -->
<g id="edge21" class="edge">
<title>componentservice has variant that contributes to error association&#45;&gt;subject</title>
<path fill="none" stroke="blue" d="M1690.55,-251.75C1728.2,-249.94 1766.97,-248.26 1803.48,-247 1832.03,-246.02 2807.7,-244.82 2831.48,-229 2839.4,-223.73 2844.49,-214.92 2847.75,-206.15"/>
<polygon fill="blue" stroke="blue" points="2851.14,-207.04 2850.72,-196.46 2844.45,-205 2851.14,-207.04"/>
<text text-anchor="middle" x="2869.48" y="-217.8" font-family="Times,serif" font-size="14.00">subject</text>
</g>
<!-- object&#45;&gt;relation -->
<g id="edge24" class="edge">
<title>object&#45;&gt;relation</title>
<path fill="none" stroke="black" stroke-dasharray="1,5" d="M2139.48,-72.81C2139.48,-64.79 2139.48,-55.05 2139.48,-46.07"/>
<polygon fill="black" stroke="black" points="2142.98,-46.03 2139.48,-36.03 2135.98,-46.03 2142.98,-46.03"/>
</g>
<!-- association_type -->
<g id="node17" class="node">
<title>association_type</title>
<ellipse fill="none" stroke="blue" cx="1850.48" cy="-265" rx="38.19" ry="18"/>
<text text-anchor="middle" x="1850.48" y="-261.3" font-family="Times,serif" font-size="14.00">string</text>
</g>
<!-- association_category -->
<g id="node19" class="node">
<title>association_category</title>
<ellipse fill="none" stroke="blue" cx="1969.48" cy="-265" rx="62.29" ry="18"/>
<text text-anchor="middle" x="1969.48" y="-261.3" font-family="Times,serif" font-size="14.00">association</text>
</g>
<!-- subject&#45;&gt;object -->
<g id="edge22" class="edge">
<title>subject&#45;&gt;object</title>
<path fill="none" stroke="black" d="M2821.55,-165.5C2814.37,-163.33 2806.74,-161.32 2799.48,-160 2657.6,-134.15 2618.96,-156.63 2475.48,-142 2381.17,-132.38 2272.82,-115.13 2205.25,-103.62"/>
<polygon fill="black" stroke="black" points="2205.62,-100.13 2195.17,-101.9 2204.44,-107.03 2205.62,-100.13"/>
<text text-anchor="middle" x="2503.48" y="-130.8" font-family="Times,serif" font-size="14.00">relation</text>
</g>
<!-- subject&#45;&gt;relation -->
<g id="edge23" class="edge">
<title>subject&#45;&gt;relation</title>
<path fill="none" stroke="black" stroke-dasharray="1,5" d="M2820.21,-165.98C2813.39,-163.88 2806.23,-161.78 2799.48,-160 2579.52,-102.02 2313.61,-50.89 2197.94,-29.56"/>
<polygon fill="black" stroke="black" points="2198.35,-26.08 2187.88,-27.71 2197.09,-32.97 2198.35,-26.08"/>
</g>
<!-- componentservice has variant that contributes to error association_subject -->
<g id="node25" class="node">
<title>componentservice has variant that contributes to error association_subject</title>
<ellipse fill="none" stroke="blue" cx="2214.48" cy="-265" rx="164.37" ry="18"/>
<text text-anchor="middle" x="2214.48" y="-261.3" font-family="Times,serif" font-size="14.00">componentservice or servicetype</text>
</g>
</g>
</svg>
