<?xml version="1.0" encoding="UTF-8" standalone="no"?>
<!DOCTYPE svg PUBLIC "-//W3C//DTD SVG 1.1//EN"
 "http://www.w3.org/Graphics/SVG/1.1/DTD/svg11.dtd">
<!-- Generated by graphviz version 2.43.0 (0)
 -->
<!-- Title: %3 Pages: 1 -->
<svg width="3583pt" height="291pt"
 viewBox="0.00 0.00 3583.07 291.00" xmlns="http://www.w3.org/2000/svg" xmlns:xlink="http://www.w3.org/1999/xlink">
<g id="graph0" class="graph" transform="scale(1 1) rotate(0) translate(4 287)">
<title>%3</title>
<polygon fill="white" stroke="transparent" points="-4,4 -4,-287 3579.07,-287 3579.07,4 -4,4"/>
<!-- component type as a model of error association -->
<g id="node1" class="node">
<title>component type as a model of error association</title>
<ellipse fill="none" stroke="black" cx="2240.07" cy="-265" rx="231.26" ry="18"/>
<text text-anchor="middle" x="2240.07" y="-261.3" font-family="Times,serif" font-size="14.00">component type as a model of error association</text>
</g>
<!-- component type to error or observable feature association -->
<g id="node2" class="node">
<title>component type to error or observable feature association</title>
<ellipse fill="none" stroke="black" cx="282.07" cy="-178" rx="282.15" ry="18"/>
<text text-anchor="middle" x="282.07" y="-174.3" font-family="Times,serif" font-size="14.00">component type to error or observable feature association</text>
</g>
<!-- component type as a model of error association&#45;&gt;component type to error or observable feature association -->
<g id="edge1" class="edge">
<title>component type as a model of error association&#45;&gt;component type to error or observable feature association</title>
<path fill="none" stroke="black" d="M2017.34,-260.09C1774.32,-255.24 1373.89,-245.52 1029.07,-229 835.85,-219.74 614.82,-204.35 463.62,-193.09"/>
<polygon fill="black" stroke="black" points="463.54,-189.57 453.31,-192.32 463.02,-196.55 463.54,-189.57"/>
<text text-anchor="middle" x="1043.07" y="-217.8" font-family="Times,serif" font-size="14.00">is_a</text>
</g>
<!-- model to error association mixin -->
<g id="node3" class="node">
<title>model to error association mixin</title>
<ellipse fill="none" stroke="black" cx="743.07" cy="-178" rx="161.37" ry="18"/>
<text text-anchor="middle" x="743.07" y="-174.3" font-family="Times,serif" font-size="14.00">model to error association mixin</text>
</g>
<!-- component type as a model of error association&#45;&gt;model to error association mixin -->
<g id="edge2" class="edge">
<title>component type as a model of error association&#45;&gt;model to error association mixin</title>
<path fill="none" stroke="black" d="M2016.28,-260.42C1812.87,-256.15 1504.57,-247.18 1237.07,-229 1107.16,-220.17 958.55,-204.35 858.55,-192.86"/>
<polygon fill="black" stroke="black" points="858.76,-189.37 848.42,-191.7 857.96,-196.32 858.76,-189.37"/>
<text text-anchor="middle" x="1253.57" y="-217.8" font-family="Times,serif" font-size="14.00">uses</text>
</g>
<!-- entity to error association mixin -->
<g id="node4" class="node">
<title>entity to error association mixin</title>
<ellipse fill="none" stroke="black" cx="1083.07" cy="-178" rx="160.57" ry="18"/>
<text text-anchor="middle" x="1083.07" y="-174.3" font-family="Times,serif" font-size="14.00">entity to error association mixin</text>
</g>
<!-- component type as a model of error association&#45;&gt;entity to error association mixin -->
<g id="edge3" class="edge">
<title>component type as a model of error association&#45;&gt;entity to error association mixin</title>
<path fill="none" stroke="black" d="M2010.73,-262.46C1837.37,-259.41 1593.74,-251.09 1381.07,-229 1308.32,-221.44 1226.42,-207.29 1166.91,-195.96"/>
<polygon fill="black" stroke="black" points="1167.29,-192.47 1156.81,-194.02 1165.98,-199.34 1167.29,-192.47"/>
<text text-anchor="middle" x="1397.57" y="-217.8" font-family="Times,serif" font-size="14.00">uses</text>
</g>
<!-- id -->
<g id="node5" class="node">
<title>id</title>
<ellipse fill="none" stroke="blue" cx="1300.07" cy="-178" rx="38.19" ry="18"/>
<text text-anchor="middle" x="1300.07" y="-174.3" font-family="Times,serif" font-size="14.00">string</text>
</g>
<!-- component type as a model of error association&#45;&gt;id -->
<g id="edge4" class="edge">
<title>component type as a model of error association&#45;&gt;id</title>
<path fill="none" stroke="blue" d="M2011.92,-261.92C1867.82,-258.42 1677.99,-249.78 1511.07,-229 1437.73,-219.87 1419.31,-215.72 1348.07,-196 1344.97,-195.14 1341.77,-194.18 1338.57,-193.16"/>
<polygon fill="blue" stroke="blue" points="1339.65,-189.83 1329.06,-190 1337.44,-196.48 1339.65,-189.83"/>
<text text-anchor="middle" x="1518.07" y="-217.8" font-family="Times,serif" font-size="14.00">id</text>
</g>
<!-- iri -->
<g id="node6" class="node">
<title>iri</title>
<ellipse fill="none" stroke="blue" cx="1401.07" cy="-178" rx="44.39" ry="18"/>
<text text-anchor="middle" x="1401.07" y="-174.3" font-family="Times,serif" font-size="14.00">iri type</text>
</g>
<!-- component type as a model of error association&#45;&gt;iri -->
<g id="edge5" class="edge">
<title>component type as a model of error association&#45;&gt;iri</title>
<path fill="none" stroke="blue" d="M2021.33,-259.11C1902.3,-254.58 1752.69,-245.84 1620.07,-229 1545.45,-219.52 1526.9,-214.85 1454.07,-196 1450.7,-195.13 1447.22,-194.16 1443.74,-193.15"/>
<polygon fill="blue" stroke="blue" points="1444.57,-189.74 1433.98,-190.2 1442.54,-196.44 1444.57,-189.74"/>
<text text-anchor="middle" x="1628.07" y="-217.8" font-family="Times,serif" font-size="14.00">iri</text>
</g>
<!-- name -->
<g id="node7" class="node">
<title>name</title>
<ellipse fill="none" stroke="blue" cx="1520.07" cy="-178" rx="56.59" ry="18"/>
<text text-anchor="middle" x="1520.07" y="-174.3" font-family="Times,serif" font-size="14.00">label type</text>
</g>
<!-- component type as a model of error association&#45;&gt;name -->
<g id="edge6" class="edge">
<title>component type as a model of error association&#45;&gt;name</title>
<path fill="none" stroke="blue" d="M2020.49,-259.24C1923.87,-254.67 1809.32,-245.86 1707.07,-229 1658.83,-221.04 1605.02,-205.98 1567.56,-194.46"/>
<polygon fill="blue" stroke="blue" points="1568.51,-191.09 1557.92,-191.46 1566.43,-197.77 1568.51,-191.09"/>
<text text-anchor="middle" x="1727.07" y="-217.8" font-family="Times,serif" font-size="14.00">name</text>
</g>
<!-- description -->
<g id="node8" class="node">
<title>description</title>
<ellipse fill="none" stroke="blue" cx="1670.07" cy="-178" rx="75.29" ry="18"/>
<text text-anchor="middle" x="1670.07" y="-174.3" font-family="Times,serif" font-size="14.00">narrative text</text>
</g>
<!-- component type as a model of error association&#45;&gt;description -->
<g id="edge7" class="edge">
<title>component type as a model of error association&#45;&gt;description</title>
<path fill="none" stroke="blue" d="M2019.83,-259.47C1948.11,-254.59 1868.58,-245.51 1797.07,-229 1767.32,-222.13 1735.33,-209.5 1710.9,-198.66"/>
<polygon fill="blue" stroke="blue" points="1712.15,-195.38 1701.6,-194.45 1709.27,-201.76 1712.15,-195.38"/>
<text text-anchor="middle" x="1837.57" y="-217.8" font-family="Times,serif" font-size="14.00">description</text>
</g>
<!-- source -->
<g id="node9" class="node">
<title>source</title>
<ellipse fill="none" stroke="blue" cx="1820.07" cy="-178" rx="56.59" ry="18"/>
<text text-anchor="middle" x="1820.07" y="-174.3" font-family="Times,serif" font-size="14.00">label type</text>
</g>
<!-- component type as a model of error association&#45;&gt;source -->
<g id="edge8" class="edge">
<title>component type as a model of error association&#45;&gt;source</title>
<path fill="none" stroke="blue" d="M2049.22,-254.81C2005.52,-249.53 1959.7,-241.42 1918.07,-229 1895.22,-222.18 1871.33,-210.11 1852.87,-199.54"/>
<polygon fill="blue" stroke="blue" points="1854.4,-196.38 1844.01,-194.34 1850.86,-202.42 1854.4,-196.38"/>
<text text-anchor="middle" x="1942.07" y="-217.8" font-family="Times,serif" font-size="14.00">source</text>
</g>
<!-- provided by -->
<g id="node10" class="node">
<title>provided by</title>
<ellipse fill="none" stroke="blue" cx="1932.07" cy="-178" rx="37.09" ry="18"/>
<text text-anchor="middle" x="1932.07" y="-174.3" font-family="Times,serif" font-size="14.00">agent</text>
</g>
<!-- component type as a model of error association&#45;&gt;provided by -->
<g id="edge9" class="edge">
<title>component type as a model of error association&#45;&gt;provided by</title>
<path fill="none" stroke="blue" d="M2071.23,-252.63C2044.39,-247.29 2017.46,-239.71 1993.07,-229 1978.55,-222.62 1964.67,-211.77 1953.84,-201.81"/>
<polygon fill="blue" stroke="blue" points="1956.16,-199.18 1946.52,-194.79 1951.31,-204.23 1956.16,-199.18"/>
<text text-anchor="middle" x="2035.57" y="-217.8" font-family="Times,serif" font-size="14.00">provided by</text>
</g>
<!-- has attribute -->
<g id="node11" class="node">
<title>has attribute</title>
<ellipse fill="none" stroke="blue" cx="2039.07" cy="-178" rx="51.99" ry="18"/>
<text text-anchor="middle" x="2039.07" y="-174.3" font-family="Times,serif" font-size="14.00">attribute</text>
</g>
<!-- component type as a model of error association&#45;&gt;has attribute -->
<g id="edge10" class="edge">
<title>component type as a model of error association&#45;&gt;has attribute</title>
<path fill="none" stroke="blue" d="M2157.56,-248.12C2139.77,-243.2 2121.42,-236.92 2105.07,-229 2090.36,-221.87 2075.69,-211.21 2063.93,-201.56"/>
<polygon fill="blue" stroke="blue" points="2066.19,-198.88 2056.29,-195.09 2061.66,-204.22 2066.19,-198.88"/>
<text text-anchor="middle" x="2152.07" y="-217.8" font-family="Times,serif" font-size="14.00">has attribute</text>
</g>
<!-- predicate -->
<g id="node12" class="node">
<title>predicate</title>
<ellipse fill="none" stroke="blue" cx="2187.07" cy="-178" rx="77.99" ry="18"/>
<text text-anchor="middle" x="2187.07" y="-174.3" font-family="Times,serif" font-size="14.00">predicate type</text>
</g>
<!-- component type as a model of error association&#45;&gt;predicate -->
<g id="edge11" class="edge">
<title>component type as a model of error association&#45;&gt;predicate</title>
<path fill="none" stroke="blue" d="M2224.44,-246.84C2219.84,-241.35 2214.99,-235.11 2211.07,-229 2206.35,-221.62 2201.95,-213.17 2198.24,-205.34"/>
<polygon fill="blue" stroke="blue" points="2201.42,-203.87 2194.09,-196.22 2195.05,-206.77 2201.42,-203.87"/>
<text text-anchor="middle" x="2245.07" y="-217.8" font-family="Times,serif" font-size="14.00">predicate</text>
</g>
<!-- object -->
<g id="node13" class="node">
<title>object</title>
<ellipse fill="none" stroke="blue" cx="2683.07" cy="-91" rx="69.59" ry="18"/>
<text text-anchor="middle" x="2683.07" y="-87.3" font-family="Times,serif" font-size="14.00">named thing</text>
</g>
<!-- component type as a model of error association&#45;&gt;object -->
<g id="edge12" class="edge">
<title>component type as a model of error association&#45;&gt;object</title>
<path fill="none" stroke="blue" d="M2281.07,-247.16C2290.28,-242.19 2299.55,-236.13 2307.07,-229 2332.98,-204.48 2318.99,-180.65 2348.07,-160 2389.34,-130.7 2524.33,-110.26 2609.84,-99.87"/>
<polygon fill="blue" stroke="blue" points="2610.49,-103.32 2620.01,-98.66 2609.66,-96.37 2610.49,-103.32"/>
<text text-anchor="middle" x="2370.07" y="-174.3" font-family="Times,serif" font-size="14.00">object</text>
</g>
<!-- relation -->
<g id="node14" class="node">
<title>relation</title>
<ellipse fill="none" stroke="blue" cx="2683.07" cy="-18" rx="57.39" ry="18"/>
<text text-anchor="middle" x="2683.07" y="-14.3" font-family="Times,serif" font-size="14.00">uriorcurie</text>
</g>
<!-- component type as a model of error association&#45;&gt;relation -->
<g id="edge13" class="edge">
<title>component type as a model of error association&#45;&gt;relation</title>
<path fill="none" stroke="blue" d="M2262.11,-246.76C2268.06,-241.47 2274.2,-235.35 2279.07,-229 2310.09,-188.66 2292.11,-159.72 2331.07,-127 2413.88,-57.46 2540.94,-32.67 2617.62,-23.85"/>
<polygon fill="blue" stroke="blue" points="2618.07,-27.32 2627.64,-22.75 2617.31,-20.36 2618.07,-27.32"/>
<text text-anchor="middle" x="2359.07" y="-130.8" font-family="Times,serif" font-size="14.00">relation</text>
</g>
<!-- negated -->
<g id="node15" class="node">
<title>negated</title>
<ellipse fill="none" stroke="blue" cx="2448.07" cy="-178" rx="46.59" ry="18"/>
<text text-anchor="middle" x="2448.07" y="-174.3" font-family="Times,serif" font-size="14.00">boolean</text>
</g>
<!-- component type as a model of error association&#45;&gt;negated -->
<g id="edge14" class="edge">
<title>component type as a model of error association&#45;&gt;negated</title>
<path fill="none" stroke="blue" d="M2300.33,-247.58C2317.59,-242.28 2336.28,-235.95 2353.07,-229 2374.19,-220.26 2396.88,-208.42 2414.78,-198.46"/>
<polygon fill="blue" stroke="blue" points="2416.68,-201.4 2423.67,-193.44 2413.24,-195.3 2416.68,-201.4"/>
<text text-anchor="middle" x="2415.07" y="-217.8" font-family="Times,serif" font-size="14.00">negated</text>
</g>
<!-- qualifiers -->
<g id="node16" class="node">
<title>qualifiers</title>
<ellipse fill="none" stroke="blue" cx="2589.07" cy="-178" rx="76.89" ry="18"/>
<text text-anchor="middle" x="2589.07" y="-174.3" font-family="Times,serif" font-size="14.00">ontology class</text>
</g>
<!-- component type as a model of error association&#45;&gt;qualifiers -->
<g id="edge15" class="edge">
<title>component type as a model of error association&#45;&gt;qualifiers</title>
<path fill="none" stroke="blue" d="M2350.13,-249.15C2381.97,-243.87 2416.62,-237.16 2448.07,-229 2480.32,-220.64 2515.64,-208.11 2542.87,-197.68"/>
<polygon fill="blue" stroke="blue" points="2544.45,-200.82 2552.51,-193.95 2541.92,-194.29 2544.45,-200.82"/>
<text text-anchor="middle" x="2529.57" y="-217.8" font-family="Times,serif" font-size="14.00">qualifiers</text>
</g>
<!-- publications -->
<g id="node17" class="node">
<title>publications</title>
<ellipse fill="none" stroke="blue" cx="2746.07" cy="-178" rx="62.29" ry="18"/>
<text text-anchor="middle" x="2746.07" y="-174.3" font-family="Times,serif" font-size="14.00">publication</text>
</g>
<!-- component type as a model of error association&#45;&gt;publications -->
<g id="edge16" class="edge">
<title>component type as a model of error association&#45;&gt;publications</title>
<path fill="none" stroke="blue" d="M2401.36,-252.09C2454.42,-246.75 2513.53,-239.27 2567.07,-229 2611.68,-220.44 2661.35,-206.18 2697.03,-195.07"/>
<polygon fill="blue" stroke="blue" points="2698.22,-198.37 2706.71,-192.03 2696.12,-191.69 2698.22,-198.37"/>
<text text-anchor="middle" x="2671.07" y="-217.8" font-family="Times,serif" font-size="14.00">publications</text>
</g>
<!-- type -->
<g id="node18" class="node">
<title>type</title>
<ellipse fill="none" stroke="black" cx="2858.07" cy="-178" rx="31.4" ry="18"/>
<text text-anchor="middle" x="2858.07" y="-174.3" font-family="Times,serif" font-size="14.00">type</text>
</g>
<!-- component type as a model of error association&#45;&gt;type -->
<g id="edge17" class="edge">
<title>component type as a model of error association&#45;&gt;type</title>
<path fill="none" stroke="blue" d="M2404.07,-252.26C2541.2,-242.4 2715.13,-229.8 2719.07,-229 2756.63,-221.43 2797.69,-205.67 2825.37,-193.85"/>
<polygon fill="blue" stroke="blue" points="2826.8,-197.05 2834.58,-189.86 2824.01,-190.63 2826.8,-197.05"/>
<text text-anchor="middle" x="2786.07" y="-217.8" font-family="Times,serif" font-size="14.00">type</text>
</g>
<!-- category -->
<g id="node20" class="node">
<title>category</title>
<ellipse fill="none" stroke="black" cx="2959.07" cy="-178" rx="51.19" ry="18"/>
<text text-anchor="middle" x="2959.07" y="-174.3" font-family="Times,serif" font-size="14.00">category</text>
</g>
<!-- component type as a model of error association&#45;&gt;category -->
<g id="edge18" class="edge">
<title>component type as a model of error association&#45;&gt;category</title>
<path fill="none" stroke="blue" d="M2402.75,-252.19C2428.93,-250.38 2455.75,-248.59 2481.07,-247 2625.45,-237.91 2663.89,-255.7 2806.07,-229 2844.86,-221.72 2887.41,-207.26 2917.77,-195.75"/>
<polygon fill="blue" stroke="blue" points="2919.11,-198.99 2927.18,-192.13 2916.59,-192.45 2919.11,-198.99"/>
<text text-anchor="middle" x="2893.57" y="-217.8" font-family="Times,serif" font-size="14.00">category</text>
</g>
<!-- subject -->
<g id="node22" class="node">
<title>subject</title>
<ellipse fill="none" stroke="black" cx="3073.07" cy="-178" rx="44.39" ry="18"/>
<text text-anchor="middle" x="3073.07" y="-174.3" font-family="Times,serif" font-size="14.00">subject</text>
</g>
<!-- component type as a model of error association&#45;&gt;subject -->
<g id="edge19" class="edge">
<title>component type as a model of error association&#45;&gt;subject</title>
<path fill="none" stroke="blue" d="M2400.46,-252.01C2427.36,-250.19 2455,-248.44 2481.07,-247 2580.56,-241.49 2831.18,-247.54 2929.07,-229 2965.94,-222.02 3006.14,-207.43 3034.68,-195.81"/>
<polygon fill="blue" stroke="blue" points="3036.36,-198.9 3044.26,-191.84 3033.68,-192.43 3036.36,-198.9"/>
<text text-anchor="middle" x="3008.07" y="-217.8" font-family="Times,serif" font-size="14.00">subject</text>
</g>
<!-- frequency qualifier -->
<g id="node24" class="node">
<title>frequency qualifier</title>
<ellipse fill="none" stroke="blue" cx="3220.07" cy="-178" rx="85.29" ry="18"/>
<text text-anchor="middle" x="3220.07" y="-174.3" font-family="Times,serif" font-size="14.00">frequency value</text>
</g>
<!-- component type as a model of error association&#45;&gt;frequency qualifier -->
<g id="edge20" class="edge">
<title>component type as a model of error association&#45;&gt;frequency qualifier</title>
<path fill="none" stroke="blue" d="M2399.15,-251.92C2426.47,-250.09 2454.58,-248.36 2481.07,-247 2604.75,-240.64 2915.63,-247.53 3038.07,-229 3082.65,-222.25 3131.87,-208.32 3167.88,-196.87"/>
<polygon fill="blue" stroke="blue" points="3169.22,-200.11 3177.67,-193.72 3167.07,-193.45 3169.22,-200.11"/>
<text text-anchor="middle" x="3172.07" y="-217.8" font-family="Times,serif" font-size="14.00">frequency qualifier</text>
</g>
<!-- severity qualifier -->
<g id="node25" class="node">
<title>severity qualifier</title>
<ellipse fill="none" stroke="blue" cx="3399.07" cy="-178" rx="76.09" ry="18"/>
<text text-anchor="middle" x="3399.07" y="-174.3" font-family="Times,serif" font-size="14.00">severity value</text>
</g>
<!-- component type as a model of error association&#45;&gt;severity qualifier -->
<g id="edge21" class="edge">
<title>component type as a model of error association&#45;&gt;severity qualifier</title>
<path fill="none" stroke="blue" d="M2397.85,-251.81C2425.57,-249.97 2454.16,-248.27 2481.07,-247 2650.49,-239.03 3076.85,-257.33 3244.07,-229 3281.81,-222.61 3322.97,-209 3353.39,-197.59"/>
<polygon fill="blue" stroke="blue" points="3354.77,-200.81 3362.87,-193.97 3352.28,-194.27 3354.77,-200.81"/>
<text text-anchor="middle" x="3366.07" y="-217.8" font-family="Times,serif" font-size="14.00">severity qualifier</text>
</g>
<!-- onset qualifier -->
<g id="node26" class="node">
<title>onset qualifier</title>
<ellipse fill="none" stroke="blue" cx="3536.07" cy="-178" rx="36.29" ry="18"/>
<text text-anchor="middle" x="3536.07" y="-174.3" font-family="Times,serif" font-size="14.00">onset</text>
</g>
<!-- component type as a model of error association&#45;&gt;onset qualifier -->
<g id="edge22" class="edge">
<title>component type as a model of error association&#45;&gt;onset qualifier</title>
<path fill="none" stroke="blue" d="M2397.19,-251.74C2425.12,-249.9 2453.94,-248.21 2481.07,-247 2586.54,-242.28 3328.32,-253.24 3431.07,-229 3457.66,-222.73 3485.47,-209.12 3505.78,-197.69"/>
<polygon fill="blue" stroke="blue" points="3507.65,-200.65 3514.56,-192.62 3504.15,-194.59 3507.65,-200.65"/>
<text text-anchor="middle" x="3523.57" y="-217.8" font-family="Times,serif" font-size="14.00">onset qualifier</text>
</g>
<!-- object&#45;&gt;relation -->
<g id="edge25" class="edge">
<title>object&#45;&gt;relation</title>
<path fill="none" stroke="black" stroke-dasharray="1,5" d="M2683.07,-72.81C2683.07,-64.79 2683.07,-55.05 2683.07,-46.07"/>
<polygon fill="black" stroke="black" points="2686.58,-46.03 2683.07,-36.03 2679.58,-46.03 2686.58,-46.03"/>
</g>
<!-- association_type -->
<g id="node19" class="node">
<title>association_type</title>
<ellipse fill="none" stroke="blue" cx="2528.07" cy="-265" rx="38.19" ry="18"/>
<text text-anchor="middle" x="2528.07" y="-261.3" font-family="Times,serif" font-size="14.00">string</text>
</g>
<!-- association_category -->
<g id="node21" class="node">
<title>association_category</title>
<ellipse fill="none" stroke="blue" cx="2647.07" cy="-265" rx="62.29" ry="18"/>
<text text-anchor="middle" x="2647.07" y="-261.3" font-family="Times,serif" font-size="14.00">association</text>
</g>
<!-- subject&#45;&gt;object -->
<g id="edge23" class="edge">
<title>subject&#45;&gt;object</title>
<path fill="none" stroke="black" d="M3040.51,-165.63C3033.5,-163.5 3026.1,-161.48 3019.07,-160 2948.19,-145.05 2928.14,-156.05 2857.07,-142 2814.7,-133.62 2767.67,-119.83 2733.2,-108.85"/>
<polygon fill="black" stroke="black" points="2733.97,-105.42 2723.38,-105.69 2731.83,-112.08 2733.97,-105.42"/>
<text text-anchor="middle" x="2885.07" y="-130.8" font-family="Times,serif" font-size="14.00">relation</text>
</g>
<!-- subject&#45;&gt;relation -->
<g id="edge24" class="edge">
<title>subject&#45;&gt;relation</title>
<path fill="none" stroke="black" stroke-dasharray="1,5" d="M3042.8,-164.73C2974.06,-136.89 2806.03,-68.81 2726.35,-36.53"/>
<polygon fill="black" stroke="black" points="2727.21,-33.1 2716.63,-32.59 2724.58,-39.59 2727.21,-33.1"/>
</g>
<!-- component type as a model of error association_subject -->
<g id="node23" class="node">
<title>component type as a model of error association_subject</title>
<ellipse fill="none" stroke="blue" cx="2813.07" cy="-265" rx="85.29" ry="18"/>
<text text-anchor="middle" x="2813.07" y="-261.3" font-family="Times,serif" font-size="14.00">component type</text>
</g>
</g>
</svg>
