<?xml version="1.0" encoding="UTF-8" standalone="no"?>
<!DOCTYPE svg PUBLIC "-//W3C//DTD SVG 1.1//EN"
 "http://www.w3.org/Graphics/SVG/1.1/DTD/svg11.dtd">
<!-- Generated by graphviz version 2.43.0 (0)
 -->
<!-- Title: %3 Pages: 1 -->
<svg width="2273pt" height="291pt"
 viewBox="0.00 0.00 2273.38 291.00" xmlns="http://www.w3.org/2000/svg" xmlns:xlink="http://www.w3.org/1999/xlink">
<g id="graph0" class="graph" transform="scale(1 1) rotate(0) translate(4 287)">
<title>%3</title>
<polygon fill="white" stroke="transparent" points="-4,4 -4,-287 2269.38,-287 2269.38,4 -4,4"/>
<!-- componentserviceinstance to componentservice relationship -->
<g id="node1" class="node">
<title>componentserviceinstance to componentservice relationship</title>
<ellipse fill="none" stroke="black" cx="1242.49" cy="-265" rx="291.65" ry="18"/>
<text text-anchor="middle" x="1242.49" y="-261.3" font-family="Times,serif" font-size="14.00">componentserviceinstance to componentservice relationship</text>
</g>
<!-- sequence feature relationship -->
<g id="node2" class="node">
<title>sequence feature relationship</title>
<ellipse fill="none" stroke="black" cx="149.49" cy="-178" rx="149.47" ry="18"/>
<text text-anchor="middle" x="149.49" y="-174.3" font-family="Times,serif" font-size="14.00">sequence feature relationship</text>
</g>
<!-- componentserviceinstance to componentservice relationship&#45;&gt;sequence feature relationship -->
<g id="edge1" class="edge">
<title>componentserviceinstance to componentservice relationship&#45;&gt;sequence feature relationship</title>
<path fill="none" stroke="black" d="M960.57,-260.34C806.79,-256.17 613.28,-247.39 441.49,-229 369.94,-221.34 289.38,-207.12 231.03,-195.8"/>
<polygon fill="black" stroke="black" points="231.62,-192.35 221.13,-193.86 230.28,-199.22 231.62,-192.35"/>
<text text-anchor="middle" x="455.49" y="-217.8" font-family="Times,serif" font-size="14.00">is_a</text>
</g>
<!-- id -->
<g id="node3" class="node">
<title>id</title>
<ellipse fill="none" stroke="blue" cx="355.49" cy="-178" rx="38.19" ry="18"/>
<text text-anchor="middle" x="355.49" y="-174.3" font-family="Times,serif" font-size="14.00">string</text>
</g>
<!-- componentserviceinstance to componentservice relationship&#45;&gt;id -->
<g id="edge2" class="edge">
<title>componentserviceinstance to componentservice relationship&#45;&gt;id</title>
<path fill="none" stroke="blue" d="M966.62,-259.06C843.48,-254.46 696.84,-245.68 565.49,-229 492.59,-219.74 474.29,-215.65 403.49,-196 400.38,-195.14 397.18,-194.17 393.98,-193.16"/>
<polygon fill="blue" stroke="blue" points="395.06,-189.83 384.47,-190 392.85,-196.47 395.06,-189.83"/>
<text text-anchor="middle" x="572.49" y="-217.8" font-family="Times,serif" font-size="14.00">id</text>
</g>
<!-- iri -->
<g id="node4" class="node">
<title>iri</title>
<ellipse fill="none" stroke="blue" cx="456.49" cy="-178" rx="44.39" ry="18"/>
<text text-anchor="middle" x="456.49" y="-174.3" font-family="Times,serif" font-size="14.00">iri type</text>
</g>
<!-- componentserviceinstance to componentservice relationship&#45;&gt;iri -->
<g id="edge3" class="edge">
<title>componentserviceinstance to componentservice relationship&#45;&gt;iri</title>
<path fill="none" stroke="blue" d="M990.39,-255.93C891.31,-250.82 776.78,-242.5 673.49,-229 599.76,-219.36 581.44,-214.72 509.49,-196 506.11,-195.12 502.63,-194.15 499.15,-193.14"/>
<polygon fill="blue" stroke="blue" points="499.98,-189.73 489.4,-190.19 497.96,-196.43 499.98,-189.73"/>
<text text-anchor="middle" x="681.49" y="-217.8" font-family="Times,serif" font-size="14.00">iri</text>
</g>
<!-- name -->
<g id="node5" class="node">
<title>name</title>
<ellipse fill="none" stroke="blue" cx="575.49" cy="-178" rx="56.59" ry="18"/>
<text text-anchor="middle" x="575.49" y="-174.3" font-family="Times,serif" font-size="14.00">label type</text>
</g>
<!-- componentserviceinstance to componentservice relationship&#45;&gt;name -->
<g id="edge4" class="edge">
<title>componentserviceinstance to componentservice relationship&#45;&gt;name</title>
<path fill="none" stroke="blue" d="M995.98,-255.33C919.79,-250.19 835.84,-242.01 759.49,-229 712.36,-220.97 659.84,-206.08 623.02,-194.64"/>
<polygon fill="blue" stroke="blue" points="623.66,-191.17 613.07,-191.51 621.56,-197.85 623.66,-191.17"/>
<text text-anchor="middle" x="779.49" y="-217.8" font-family="Times,serif" font-size="14.00">name</text>
</g>
<!-- description -->
<g id="node6" class="node">
<title>description</title>
<ellipse fill="none" stroke="blue" cx="725.49" cy="-178" rx="75.29" ry="18"/>
<text text-anchor="middle" x="725.49" y="-174.3" font-family="Times,serif" font-size="14.00">narrative text</text>
</g>
<!-- componentserviceinstance to componentservice relationship&#45;&gt;description -->
<g id="edge5" class="edge">
<title>componentserviceinstance to componentservice relationship&#45;&gt;description</title>
<path fill="none" stroke="blue" d="M1004.57,-254.56C952.33,-249.26 897.66,-241.21 847.49,-229 819.14,-222.1 788.78,-209.68 765.44,-198.95"/>
<polygon fill="blue" stroke="blue" points="766.76,-195.7 756.22,-194.62 763.79,-202.04 766.76,-195.7"/>
<text text-anchor="middle" x="887.99" y="-217.8" font-family="Times,serif" font-size="14.00">description</text>
</g>
<!-- source -->
<g id="node7" class="node">
<title>source</title>
<ellipse fill="none" stroke="blue" cx="875.49" cy="-178" rx="56.59" ry="18"/>
<text text-anchor="middle" x="875.49" y="-174.3" font-family="Times,serif" font-size="14.00">label type</text>
</g>
<!-- componentserviceinstance to componentservice relationship&#45;&gt;source -->
<g id="edge6" class="edge">
<title>componentserviceinstance to componentservice relationship&#45;&gt;source</title>
<path fill="none" stroke="blue" d="M1059.63,-250.94C1027.77,-245.83 995.31,-238.77 965.49,-229 944.85,-222.24 923.53,-210.64 906.82,-200.31"/>
<polygon fill="blue" stroke="blue" points="908.37,-197.14 898.05,-194.74 904.61,-203.05 908.37,-197.14"/>
<text text-anchor="middle" x="989.49" y="-217.8" font-family="Times,serif" font-size="14.00">source</text>
</g>
<!-- provided by -->
<g id="node8" class="node">
<title>provided by</title>
<ellipse fill="none" stroke="blue" cx="987.49" cy="-178" rx="37.09" ry="18"/>
<text text-anchor="middle" x="987.49" y="-174.3" font-family="Times,serif" font-size="14.00">agent</text>
</g>
<!-- componentserviceinstance to componentservice relationship&#45;&gt;provided by -->
<g id="edge7" class="edge">
<title>componentserviceinstance to componentservice relationship&#45;&gt;provided by</title>
<path fill="none" stroke="blue" d="M1092.54,-249.53C1073.41,-244.5 1054.56,-237.83 1037.49,-229 1025.39,-222.74 1014.39,-212.52 1005.8,-202.94"/>
<polygon fill="blue" stroke="blue" points="1008.33,-200.51 999.19,-195.15 1002.99,-205.04 1008.33,-200.51"/>
<text text-anchor="middle" x="1079.99" y="-217.8" font-family="Times,serif" font-size="14.00">provided by</text>
</g>
<!-- has attribute -->
<g id="node9" class="node">
<title>has attribute</title>
<ellipse fill="none" stroke="blue" cx="1094.49" cy="-178" rx="51.99" ry="18"/>
<text text-anchor="middle" x="1094.49" y="-174.3" font-family="Times,serif" font-size="14.00">attribute</text>
</g>
<!-- componentserviceinstance to componentservice relationship&#45;&gt;has attribute -->
<g id="edge8" class="edge">
<title>componentserviceinstance to componentservice relationship&#45;&gt;has attribute</title>
<path fill="none" stroke="blue" d="M1182.48,-247.31C1169.44,-242.41 1156.09,-236.34 1144.49,-229 1133.58,-222.09 1123.19,-212.42 1114.74,-203.42"/>
<polygon fill="blue" stroke="blue" points="1117.14,-200.86 1107.85,-195.77 1111.94,-205.55 1117.14,-200.86"/>
<text text-anchor="middle" x="1191.49" y="-217.8" font-family="Times,serif" font-size="14.00">has attribute</text>
</g>
<!-- predicate -->
<g id="node10" class="node">
<title>predicate</title>
<ellipse fill="none" stroke="blue" cx="1242.49" cy="-178" rx="77.99" ry="18"/>
<text text-anchor="middle" x="1242.49" y="-174.3" font-family="Times,serif" font-size="14.00">predicate type</text>
</g>
<!-- componentserviceinstance to componentservice relationship&#45;&gt;predicate -->
<g id="edge9" class="edge">
<title>componentserviceinstance to componentservice relationship&#45;&gt;predicate</title>
<path fill="none" stroke="blue" d="M1242.49,-246.8C1242.49,-235.16 1242.49,-219.55 1242.49,-206.24"/>
<polygon fill="blue" stroke="blue" points="1245.99,-206.18 1242.49,-196.18 1238.99,-206.18 1245.99,-206.18"/>
<text text-anchor="middle" x="1276.49" y="-217.8" font-family="Times,serif" font-size="14.00">predicate</text>
</g>
<!-- relation -->
<g id="node11" class="node">
<title>relation</title>
<ellipse fill="none" stroke="blue" cx="2002.49" cy="-18" rx="57.39" ry="18"/>
<text text-anchor="middle" x="2002.49" y="-14.3" font-family="Times,serif" font-size="14.00">uriorcurie</text>
</g>
<!-- componentserviceinstance to componentservice relationship&#45;&gt;relation -->
<g id="edge10" class="edge">
<title>componentserviceinstance to componentservice relationship&#45;&gt;relation</title>
<path fill="none" stroke="blue" d="M1285.57,-247.08C1295.61,-242.08 1305.87,-236.03 1314.49,-229 1344.45,-204.56 1334.87,-180.77 1367.49,-160 1549.07,-44.34 1812.35,-22.75 1934.96,-19.26"/>
<polygon fill="blue" stroke="blue" points="1935.05,-22.76 1944.96,-19.01 1934.87,-15.76 1935.05,-22.76"/>
<text text-anchor="middle" x="1454.49" y="-130.8" font-family="Times,serif" font-size="14.00">relation</text>
</g>
<!-- negated -->
<g id="node12" class="node">
<title>negated</title>
<ellipse fill="none" stroke="blue" cx="1423.49" cy="-178" rx="46.59" ry="18"/>
<text text-anchor="middle" x="1423.49" y="-174.3" font-family="Times,serif" font-size="14.00">boolean</text>
</g>
<!-- componentserviceinstance to componentservice relationship&#45;&gt;negated -->
<g id="edge11" class="edge">
<title>componentserviceinstance to componentservice relationship&#45;&gt;negated</title>
<path fill="none" stroke="blue" d="M1316.35,-247.54C1332.04,-242.66 1348.19,-236.54 1362.49,-229 1376,-221.88 1389.32,-211.46 1400.05,-201.98"/>
<polygon fill="blue" stroke="blue" points="1402.69,-204.32 1407.71,-194.99 1397.97,-199.15 1402.69,-204.32"/>
<text text-anchor="middle" x="1413.49" y="-217.8" font-family="Times,serif" font-size="14.00">negated</text>
</g>
<!-- qualifiers -->
<g id="node13" class="node">
<title>qualifiers</title>
<ellipse fill="none" stroke="blue" cx="1564.49" cy="-178" rx="76.89" ry="18"/>
<text text-anchor="middle" x="1564.49" y="-174.3" font-family="Times,serif" font-size="14.00">ontology class</text>
</g>
<!-- componentserviceinstance to componentservice relationship&#45;&gt;qualifiers -->
<g id="edge12" class="edge">
<title>componentserviceinstance to componentservice relationship&#45;&gt;qualifiers</title>
<path fill="none" stroke="blue" d="M1360.59,-248.5C1389.01,-243.46 1419.07,-237.04 1446.49,-229 1473.01,-221.22 1501.59,-209.21 1523.97,-198.91"/>
<polygon fill="blue" stroke="blue" points="1525.58,-202.03 1533.16,-194.62 1522.62,-195.68 1525.58,-202.03"/>
<text text-anchor="middle" x="1519.99" y="-217.8" font-family="Times,serif" font-size="14.00">qualifiers</text>
</g>
<!-- publications -->
<g id="node14" class="node">
<title>publications</title>
<ellipse fill="none" stroke="blue" cx="1721.49" cy="-178" rx="62.29" ry="18"/>
<text text-anchor="middle" x="1721.49" y="-174.3" font-family="Times,serif" font-size="14.00">publication</text>
</g>
<!-- componentserviceinstance to componentservice relationship&#45;&gt;publications -->
<g id="edge13" class="edge">
<title>componentserviceinstance to componentservice relationship&#45;&gt;publications</title>
<path fill="none" stroke="blue" d="M1416.28,-250.52C1462.45,-245.35 1512.08,-238.36 1557.49,-229 1597.65,-220.72 1642.07,-206.88 1674.54,-195.85"/>
<polygon fill="blue" stroke="blue" points="1675.9,-199.09 1684.22,-192.53 1673.62,-192.47 1675.9,-199.09"/>
<text text-anchor="middle" x="1661.49" y="-217.8" font-family="Times,serif" font-size="14.00">publications</text>
</g>
<!-- type -->
<g id="node15" class="node">
<title>type</title>
<ellipse fill="none" stroke="black" cx="1833.49" cy="-178" rx="31.4" ry="18"/>
<text text-anchor="middle" x="1833.49" y="-174.3" font-family="Times,serif" font-size="14.00">type</text>
</g>
<!-- componentserviceinstance to componentservice relationship&#45;&gt;type -->
<g id="edge14" class="edge">
<title>componentserviceinstance to componentservice relationship&#45;&gt;type</title>
<path fill="none" stroke="blue" d="M1442.14,-251.86C1556.71,-244.39 1683,-235.11 1709.49,-229 1742.03,-221.5 1777.17,-206.63 1801.7,-195.05"/>
<polygon fill="blue" stroke="blue" points="1803.38,-198.12 1810.88,-190.64 1800.35,-191.82 1803.38,-198.12"/>
<text text-anchor="middle" x="1771.49" y="-217.8" font-family="Times,serif" font-size="14.00">type</text>
</g>
<!-- category -->
<g id="node17" class="node">
<title>category</title>
<ellipse fill="none" stroke="black" cx="1934.49" cy="-178" rx="51.19" ry="18"/>
<text text-anchor="middle" x="1934.49" y="-174.3" font-family="Times,serif" font-size="14.00">category</text>
</g>
<!-- componentserviceinstance to componentservice relationship&#45;&gt;category -->
<g id="edge15" class="edge">
<title>componentserviceinstance to componentservice relationship&#45;&gt;category</title>
<path fill="none" stroke="blue" d="M1448.1,-252.2C1596.73,-243.45 1774.33,-232.48 1791.49,-229 1827.11,-221.78 1865.95,-207.78 1894.15,-196.43"/>
<polygon fill="blue" stroke="blue" points="1895.72,-199.57 1903.65,-192.54 1893.07,-193.09 1895.72,-199.57"/>
<text text-anchor="middle" x="1875.99" y="-217.8" font-family="Times,serif" font-size="14.00">category</text>
</g>
<!-- subject -->
<g id="node19" class="node">
<title>subject</title>
<ellipse fill="none" stroke="black" cx="2048.49" cy="-178" rx="44.39" ry="18"/>
<text text-anchor="middle" x="2048.49" y="-174.3" font-family="Times,serif" font-size="14.00">subject</text>
</g>
<!-- componentserviceinstance to componentservice relationship&#45;&gt;subject -->
<g id="edge16" class="edge">
<title>componentserviceinstance to componentservice relationship&#45;&gt;subject</title>
<path fill="none" stroke="blue" d="M1447.7,-252.2C1479.76,-250.42 1512.52,-248.63 1543.49,-247 1625.25,-242.69 1831.23,-245.22 1911.49,-229 1946.3,-221.96 1984.09,-207.63 2011.15,-196.1"/>
<polygon fill="blue" stroke="blue" points="2012.83,-199.19 2020.61,-192 2010.04,-192.77 2012.83,-199.19"/>
<text text-anchor="middle" x="1987.49" y="-217.8" font-family="Times,serif" font-size="14.00">subject</text>
</g>
<!-- object -->
<g id="node21" class="node">
<title>object</title>
<ellipse fill="none" stroke="black" cx="2069.49" cy="-91" rx="38.99" ry="18"/>
<text text-anchor="middle" x="2069.49" y="-87.3" font-family="Times,serif" font-size="14.00">object</text>
</g>
<!-- componentserviceinstance to componentservice relationship&#45;&gt;object -->
<g id="edge17" class="edge">
<title>componentserviceinstance to componentservice relationship&#45;&gt;object</title>
<path fill="none" stroke="blue" d="M1445.25,-252.04C1478.09,-250.25 1511.73,-248.5 1543.49,-247 1648.78,-242.03 1914.31,-250.58 2017.49,-229 2056.75,-220.79 2075.15,-226.25 2101.49,-196 2121.98,-172.46 2128.2,-155.03 2114.49,-127 2111.63,-121.17 2107.29,-116.02 2102.4,-111.6"/>
<polygon fill="blue" stroke="blue" points="2104.41,-108.73 2094.41,-105.25 2100.06,-114.21 2104.41,-108.73"/>
<text text-anchor="middle" x="2142.49" y="-174.3" font-family="Times,serif" font-size="14.00">object</text>
</g>
<!-- association_type -->
<g id="node16" class="node">
<title>association_type</title>
<ellipse fill="none" stroke="blue" cx="1590.49" cy="-265" rx="38.19" ry="18"/>
<text text-anchor="middle" x="1590.49" y="-261.3" font-family="Times,serif" font-size="14.00">string</text>
</g>
<!-- association_category -->
<g id="node18" class="node">
<title>association_category</title>
<ellipse fill="none" stroke="blue" cx="1709.49" cy="-265" rx="62.29" ry="18"/>
<text text-anchor="middle" x="1709.49" y="-261.3" font-family="Times,serif" font-size="14.00">association</text>
</g>
<!-- subject&#45;&gt;relation -->
<g id="edge19" class="edge">
<title>subject&#45;&gt;relation</title>
<path fill="none" stroke="black" stroke-dasharray="1,5" d="M2040.9,-160.24C2034.98,-146.64 2026.88,-126.88 2021.49,-109 2015.23,-88.27 2010.27,-64.24 2006.99,-46.23"/>
<polygon fill="black" stroke="black" points="2010.39,-45.38 2005.21,-36.14 2003.5,-46.59 2010.39,-45.38"/>
</g>
<!-- subject&#45;&gt;object -->
<g id="edge18" class="edge">
<title>subject&#45;&gt;object</title>
<path fill="none" stroke="black" d="M2051.46,-159.77C2053.25,-150.09 2055.72,-137.8 2058.49,-127 2059.17,-124.32 2059.95,-121.53 2060.75,-118.76"/>
<polygon fill="black" stroke="black" points="2064.17,-119.57 2063.75,-108.98 2057.47,-117.52 2064.17,-119.57"/>
<text text-anchor="middle" x="2086.49" y="-130.8" font-family="Times,serif" font-size="14.00">relation</text>
</g>
<!-- componentserviceinstance to componentservice relationship_subject -->
<g id="node20" class="node">
<title>componentserviceinstance to componentservice relationship_subject</title>
<ellipse fill="none" stroke="blue" cx="1923.49" cy="-265" rx="133.78" ry="18"/>
<text text-anchor="middle" x="1923.49" y="-261.3" font-family="Times,serif" font-size="14.00">componentserviceinstance</text>
</g>
<!-- object&#45;&gt;relation -->
<g id="edge20" class="edge">
<title>object&#45;&gt;relation</title>
<path fill="none" stroke="black" stroke-dasharray="1,5" d="M2054.62,-74.24C2046.02,-65.13 2035.01,-53.47 2025.33,-43.21"/>
<polygon fill="black" stroke="black" points="2027.66,-40.57 2018.25,-35.7 2022.57,-45.38 2027.66,-40.57"/>
</g>
<!-- componentserviceinstance to componentservice relationship_object -->
<g id="node22" class="node">
<title>componentserviceinstance to componentservice relationship_object</title>
<ellipse fill="none" stroke="blue" cx="2170.49" cy="-265" rx="94.78" ry="18"/>
<text text-anchor="middle" x="2170.49" y="-261.3" font-family="Times,serif" font-size="14.00">componentservice</text>
</g>
</g>
</svg>
