<?xml version="1.0" encoding="UTF-8" standalone="no"?>
<!DOCTYPE svg PUBLIC "-//W3C//DTD SVG 1.1//EN"
 "http://www.w3.org/Graphics/SVG/1.1/DTD/svg11.dtd">
<!-- Generated by graphviz version 2.43.0 (0)
 -->
<!-- Title: %3 Pages: 1 -->
<svg width="3387pt" height="291pt"
 viewBox="0.00 0.00 3386.68 291.00" xmlns="http://www.w3.org/2000/svg" xmlns:xlink="http://www.w3.org/1999/xlink">
<g id="graph0" class="graph" transform="scale(1 1) rotate(0) translate(4 287)">
<title>%3</title>
<polygon fill="white" stroke="transparent" points="-4,4 -4,-287 3382.68,-287 3382.68,4 -4,4"/>
<!-- componentservice as a model of error association -->
<g id="node1" class="node">
<title>componentservice as a model of error association</title>
<ellipse fill="none" stroke="black" cx="2053.48" cy="-265" rx="241.26" ry="18"/>
<text text-anchor="middle" x="2053.48" y="-261.3" font-family="Times,serif" font-size="14.00">componentservice as a model of error association</text>
</g>
<!-- componentservice to error association -->
<g id="node2" class="node">
<title>componentservice to error association</title>
<ellipse fill="none" stroke="black" cx="188.48" cy="-178" rx="188.47" ry="18"/>
<text text-anchor="middle" x="188.48" y="-174.3" font-family="Times,serif" font-size="14.00">componentservice to error association</text>
</g>
<!-- componentservice as a model of error association&#45;&gt;componentservice to error association -->
<g id="edge1" class="edge">
<title>componentservice as a model of error association&#45;&gt;componentservice to error association</title>
<path fill="none" stroke="black" d="M1820.64,-260.26C1576.73,-255.65 1182.52,-246.21 842.48,-229 639.55,-218.73 589.05,-212.02 386.48,-196 368.93,-194.61 350.5,-193.1 332.24,-191.57"/>
<polygon fill="black" stroke="black" points="332.39,-188.07 322.13,-190.72 331.8,-195.05 332.39,-188.07"/>
<text text-anchor="middle" x="856.48" y="-217.8" font-family="Times,serif" font-size="14.00">is_a</text>
</g>
<!-- model to error association mixin -->
<g id="node3" class="node">
<title>model to error association mixin</title>
<ellipse fill="none" stroke="black" cx="556.48" cy="-178" rx="161.37" ry="18"/>
<text text-anchor="middle" x="556.48" y="-174.3" font-family="Times,serif" font-size="14.00">model to error association mixin</text>
</g>
<!-- componentservice as a model of error association&#45;&gt;model to error association mixin -->
<g id="edge2" class="edge">
<title>componentservice as a model of error association&#45;&gt;model to error association mixin</title>
<path fill="none" stroke="black" d="M1820.95,-260.23C1617.52,-255.9 1314.17,-246.93 1050.48,-229 920.56,-220.17 771.96,-204.35 671.96,-192.86"/>
<polygon fill="black" stroke="black" points="672.17,-189.37 661.83,-191.7 671.37,-196.32 672.17,-189.37"/>
<text text-anchor="middle" x="1066.98" y="-217.8" font-family="Times,serif" font-size="14.00">uses</text>
</g>
<!-- entity to error association mixin -->
<g id="node4" class="node">
<title>entity to error association mixin</title>
<ellipse fill="none" stroke="black" cx="896.48" cy="-178" rx="160.57" ry="18"/>
<text text-anchor="middle" x="896.48" y="-174.3" font-family="Times,serif" font-size="14.00">entity to error association mixin</text>
</g>
<!-- componentservice as a model of error association&#45;&gt;entity to error association mixin -->
<g id="edge3" class="edge">
<title>componentservice as a model of error association&#45;&gt;entity to error association mixin</title>
<path fill="none" stroke="black" d="M1814.99,-262.3C1642.29,-259.12 1403.44,-250.7 1194.48,-229 1121.73,-221.44 1039.82,-207.29 980.32,-195.96"/>
<polygon fill="black" stroke="black" points="980.7,-192.47 970.22,-194.02 979.39,-199.34 980.7,-192.47"/>
<text text-anchor="middle" x="1210.98" y="-217.8" font-family="Times,serif" font-size="14.00">uses</text>
</g>
<!-- id -->
<g id="node5" class="node">
<title>id</title>
<ellipse fill="none" stroke="blue" cx="1113.48" cy="-178" rx="38.19" ry="18"/>
<text text-anchor="middle" x="1113.48" y="-174.3" font-family="Times,serif" font-size="14.00">string</text>
</g>
<!-- componentservice as a model of error association&#45;&gt;id -->
<g id="edge4" class="edge">
<title>componentservice as a model of error association&#45;&gt;id</title>
<path fill="none" stroke="blue" d="M1816.32,-261.7C1673.38,-258.06 1487.94,-249.35 1324.48,-229 1251.14,-219.87 1232.72,-215.72 1161.48,-196 1158.37,-195.14 1155.17,-194.18 1151.98,-193.16"/>
<polygon fill="blue" stroke="blue" points="1153.06,-189.83 1142.47,-190 1150.85,-196.48 1153.06,-189.83"/>
<text text-anchor="middle" x="1331.48" y="-217.8" font-family="Times,serif" font-size="14.00">id</text>
</g>
<!-- iri -->
<g id="node6" class="node">
<title>iri</title>
<ellipse fill="none" stroke="blue" cx="1214.48" cy="-178" rx="44.39" ry="18"/>
<text text-anchor="middle" x="1214.48" y="-174.3" font-family="Times,serif" font-size="14.00">iri type</text>
</g>
<!-- componentservice as a model of error association&#45;&gt;iri -->
<g id="edge5" class="edge">
<title>componentservice as a model of error association&#45;&gt;iri</title>
<path fill="none" stroke="blue" d="M1826.77,-258.8C1709.08,-254.19 1563.16,-245.47 1433.48,-229 1358.86,-219.52 1340.3,-214.85 1267.48,-196 1264.11,-195.13 1260.63,-194.16 1257.15,-193.15"/>
<polygon fill="blue" stroke="blue" points="1257.98,-189.74 1247.39,-190.2 1255.95,-196.44 1257.98,-189.74"/>
<text text-anchor="middle" x="1441.48" y="-217.8" font-family="Times,serif" font-size="14.00">iri</text>
</g>
<!-- name -->
<g id="node7" class="node">
<title>name</title>
<ellipse fill="none" stroke="blue" cx="1333.48" cy="-178" rx="56.59" ry="18"/>
<text text-anchor="middle" x="1333.48" y="-174.3" font-family="Times,serif" font-size="14.00">label type</text>
</g>
<!-- componentservice as a model of error association&#45;&gt;name -->
<g id="edge6" class="edge">
<title>componentservice as a model of error association&#45;&gt;name</title>
<path fill="none" stroke="blue" d="M1826.41,-258.88C1731.39,-254.21 1620.1,-245.43 1520.48,-229 1472.24,-221.04 1418.43,-205.98 1380.96,-194.46"/>
<polygon fill="blue" stroke="blue" points="1381.91,-191.09 1371.33,-191.46 1379.84,-197.77 1381.91,-191.09"/>
<text text-anchor="middle" x="1540.48" y="-217.8" font-family="Times,serif" font-size="14.00">name</text>
</g>
<!-- description -->
<g id="node8" class="node">
<title>description</title>
<ellipse fill="none" stroke="blue" cx="1483.48" cy="-178" rx="75.29" ry="18"/>
<text text-anchor="middle" x="1483.48" y="-174.3" font-family="Times,serif" font-size="14.00">narrative text</text>
</g>
<!-- componentservice as a model of error association&#45;&gt;description -->
<g id="edge7" class="edge">
<title>componentservice as a model of error association&#45;&gt;description</title>
<path fill="none" stroke="blue" d="M1826.15,-258.97C1756.3,-253.98 1679.64,-244.97 1610.48,-229 1580.72,-222.13 1548.74,-209.5 1524.31,-198.66"/>
<polygon fill="blue" stroke="blue" points="1525.56,-195.38 1515.01,-194.45 1522.68,-201.76 1525.56,-195.38"/>
<text text-anchor="middle" x="1650.98" y="-217.8" font-family="Times,serif" font-size="14.00">description</text>
</g>
<!-- source -->
<g id="node9" class="node">
<title>source</title>
<ellipse fill="none" stroke="blue" cx="1633.48" cy="-178" rx="56.59" ry="18"/>
<text text-anchor="middle" x="1633.48" y="-174.3" font-family="Times,serif" font-size="14.00">label type</text>
</g>
<!-- componentservice as a model of error association&#45;&gt;source -->
<g id="edge8" class="edge">
<title>componentservice as a model of error association&#45;&gt;source</title>
<path fill="none" stroke="blue" d="M1858.81,-254.34C1816.27,-249.06 1771.9,-241.06 1731.48,-229 1708.62,-222.18 1684.74,-210.11 1666.28,-199.54"/>
<polygon fill="blue" stroke="blue" points="1667.81,-196.38 1657.41,-194.34 1664.27,-202.42 1667.81,-196.38"/>
<text text-anchor="middle" x="1755.48" y="-217.8" font-family="Times,serif" font-size="14.00">source</text>
</g>
<!-- provided by -->
<g id="node10" class="node">
<title>provided by</title>
<ellipse fill="none" stroke="blue" cx="1745.48" cy="-178" rx="37.09" ry="18"/>
<text text-anchor="middle" x="1745.48" y="-174.3" font-family="Times,serif" font-size="14.00">agent</text>
</g>
<!-- componentservice as a model of error association&#45;&gt;provided by -->
<g id="edge9" class="edge">
<title>componentservice as a model of error association&#45;&gt;provided by</title>
<path fill="none" stroke="blue" d="M1882.67,-252.24C1856.49,-246.92 1830.28,-239.45 1806.48,-229 1791.95,-222.62 1778.08,-211.77 1767.25,-201.81"/>
<polygon fill="blue" stroke="blue" points="1769.57,-199.18 1759.93,-194.79 1764.72,-204.23 1769.57,-199.18"/>
<text text-anchor="middle" x="1848.98" y="-217.8" font-family="Times,serif" font-size="14.00">provided by</text>
</g>
<!-- has attribute -->
<g id="node11" class="node">
<title>has attribute</title>
<ellipse fill="none" stroke="blue" cx="1852.48" cy="-178" rx="51.99" ry="18"/>
<text text-anchor="middle" x="1852.48" y="-174.3" font-family="Times,serif" font-size="14.00">attribute</text>
</g>
<!-- componentservice as a model of error association&#45;&gt;has attribute -->
<g id="edge10" class="edge">
<title>componentservice as a model of error association&#45;&gt;has attribute</title>
<path fill="none" stroke="blue" d="M1970.61,-248.02C1952.94,-243.11 1934.72,-236.86 1918.48,-229 1903.77,-221.87 1889.1,-211.21 1877.34,-201.56"/>
<polygon fill="blue" stroke="blue" points="1879.59,-198.88 1869.7,-195.09 1875.07,-204.22 1879.59,-198.88"/>
<text text-anchor="middle" x="1965.48" y="-217.8" font-family="Times,serif" font-size="14.00">has attribute</text>
</g>
<!-- predicate -->
<g id="node12" class="node">
<title>predicate</title>
<ellipse fill="none" stroke="blue" cx="2000.48" cy="-178" rx="77.99" ry="18"/>
<text text-anchor="middle" x="2000.48" y="-174.3" font-family="Times,serif" font-size="14.00">predicate type</text>
</g>
<!-- componentservice as a model of error association&#45;&gt;predicate -->
<g id="edge11" class="edge">
<title>componentservice as a model of error association&#45;&gt;predicate</title>
<path fill="none" stroke="blue" d="M2037.85,-246.84C2033.25,-241.35 2028.4,-235.11 2024.48,-229 2019.76,-221.62 2015.36,-213.17 2011.65,-205.34"/>
<polygon fill="blue" stroke="blue" points="2014.83,-203.87 2007.5,-196.22 2008.45,-206.77 2014.83,-203.87"/>
<text text-anchor="middle" x="2058.48" y="-217.8" font-family="Times,serif" font-size="14.00">predicate</text>
</g>
<!-- object -->
<g id="node13" class="node">
<title>object</title>
<ellipse fill="none" stroke="blue" cx="2720.48" cy="-91" rx="69.59" ry="18"/>
<text text-anchor="middle" x="2720.48" y="-87.3" font-family="Times,serif" font-size="14.00">named thing</text>
</g>
<!-- componentservice as a model of error association&#45;&gt;object -->
<g id="edge12" class="edge">
<title>componentservice as a model of error association&#45;&gt;object</title>
<path fill="none" stroke="blue" d="M2094.48,-247.16C2103.69,-242.19 2112.95,-236.13 2120.48,-229 2146.39,-204.48 2131.6,-179.48 2161.48,-160 2238.75,-109.61 2505.85,-96.56 2640.93,-93.18"/>
<polygon fill="blue" stroke="blue" points="2641.3,-96.67 2651.22,-92.94 2641.14,-89.68 2641.3,-96.67"/>
<text text-anchor="middle" x="2183.48" y="-174.3" font-family="Times,serif" font-size="14.00">object</text>
</g>
<!-- relation -->
<g id="node14" class="node">
<title>relation</title>
<ellipse fill="none" stroke="blue" cx="2720.48" cy="-18" rx="57.39" ry="18"/>
<text text-anchor="middle" x="2720.48" y="-14.3" font-family="Times,serif" font-size="14.00">uriorcurie</text>
</g>
<!-- componentservice as a model of error association&#45;&gt;relation -->
<g id="edge13" class="edge">
<title>componentservice as a model of error association&#45;&gt;relation</title>
<path fill="none" stroke="blue" d="M2075.55,-246.79C2081.5,-241.49 2087.63,-235.37 2092.48,-229 2123.22,-188.7 2103.01,-157.52 2143.48,-127 2223.58,-66.6 2521.72,-35.23 2655.18,-23.96"/>
<polygon fill="blue" stroke="blue" points="2655.59,-27.43 2665.26,-23.12 2655.01,-20.46 2655.59,-27.43"/>
<text text-anchor="middle" x="2171.48" y="-130.8" font-family="Times,serif" font-size="14.00">relation</text>
</g>
<!-- negated -->
<g id="node15" class="node">
<title>negated</title>
<ellipse fill="none" stroke="blue" cx="2261.48" cy="-178" rx="46.59" ry="18"/>
<text text-anchor="middle" x="2261.48" y="-174.3" font-family="Times,serif" font-size="14.00">boolean</text>
</g>
<!-- componentservice as a model of error association&#45;&gt;negated -->
<g id="edge14" class="edge">
<title>componentservice as a model of error association&#45;&gt;negated</title>
<path fill="none" stroke="blue" d="M2114.03,-247.49C2131.21,-242.21 2149.78,-235.91 2166.48,-229 2187.6,-220.26 2210.28,-208.42 2228.19,-198.46"/>
<polygon fill="blue" stroke="blue" points="2230.09,-201.4 2237.08,-193.44 2226.65,-195.3 2230.09,-201.4"/>
<text text-anchor="middle" x="2228.48" y="-217.8" font-family="Times,serif" font-size="14.00">negated</text>
</g>
<!-- qualifiers -->
<g id="node16" class="node">
<title>qualifiers</title>
<ellipse fill="none" stroke="blue" cx="2402.48" cy="-178" rx="76.89" ry="18"/>
<text text-anchor="middle" x="2402.48" y="-174.3" font-family="Times,serif" font-size="14.00">ontology class</text>
</g>
<!-- componentservice as a model of error association&#45;&gt;qualifiers -->
<g id="edge15" class="edge">
<title>componentservice as a model of error association&#45;&gt;qualifiers</title>
<path fill="none" stroke="blue" d="M2164.35,-249.02C2195.96,-243.75 2230.29,-237.09 2261.48,-229 2293.73,-220.64 2329.05,-208.11 2356.28,-197.68"/>
<polygon fill="blue" stroke="blue" points="2357.86,-200.82 2365.92,-193.95 2355.33,-194.29 2357.86,-200.82"/>
<text text-anchor="middle" x="2342.98" y="-217.8" font-family="Times,serif" font-size="14.00">qualifiers</text>
</g>
<!-- publications -->
<g id="node17" class="node">
<title>publications</title>
<ellipse fill="none" stroke="blue" cx="2559.48" cy="-178" rx="62.29" ry="18"/>
<text text-anchor="middle" x="2559.48" y="-174.3" font-family="Times,serif" font-size="14.00">publication</text>
</g>
<!-- componentservice as a model of error association&#45;&gt;publications -->
<g id="edge16" class="edge">
<title>componentservice as a model of error association&#45;&gt;publications</title>
<path fill="none" stroke="blue" d="M2217.69,-251.79C2269.99,-246.47 2327.91,-239.08 2380.48,-229 2425.09,-220.44 2474.76,-206.18 2510.44,-195.07"/>
<polygon fill="blue" stroke="blue" points="2511.63,-198.37 2520.12,-192.03 2509.53,-191.69 2511.63,-198.37"/>
<text text-anchor="middle" x="2484.48" y="-217.8" font-family="Times,serif" font-size="14.00">publications</text>
</g>
<!-- type -->
<g id="node18" class="node">
<title>type</title>
<ellipse fill="none" stroke="black" cx="2671.48" cy="-178" rx="31.4" ry="18"/>
<text text-anchor="middle" x="2671.48" y="-174.3" font-family="Times,serif" font-size="14.00">type</text>
</g>
<!-- componentservice as a model of error association&#45;&gt;type -->
<g id="edge17" class="edge">
<title>componentservice as a model of error association&#45;&gt;type</title>
<path fill="none" stroke="blue" d="M2222.57,-252.14C2357.31,-242.61 2524.72,-230.56 2532.48,-229 2570.04,-221.43 2611.1,-205.67 2638.78,-193.85"/>
<polygon fill="blue" stroke="blue" points="2640.21,-197.05 2647.99,-189.86 2637.42,-190.63 2640.21,-197.05"/>
<text text-anchor="middle" x="2599.48" y="-217.8" font-family="Times,serif" font-size="14.00">type</text>
</g>
<!-- category -->
<g id="node20" class="node">
<title>category</title>
<ellipse fill="none" stroke="black" cx="2772.48" cy="-178" rx="51.19" ry="18"/>
<text text-anchor="middle" x="2772.48" y="-174.3" font-family="Times,serif" font-size="14.00">category</text>
</g>
<!-- componentservice as a model of error association&#45;&gt;category -->
<g id="edge18" class="edge">
<title>componentservice as a model of error association&#45;&gt;category</title>
<path fill="none" stroke="blue" d="M2223.25,-252.2C2250.09,-250.41 2277.54,-248.62 2303.48,-247 2443.88,-238.23 2481.25,-255.07 2619.48,-229 2658.26,-221.69 2700.82,-207.23 2731.18,-195.73"/>
<polygon fill="blue" stroke="blue" points="2732.51,-198.97 2740.59,-192.12 2730,-192.44 2732.51,-198.97"/>
<text text-anchor="middle" x="2706.98" y="-217.8" font-family="Times,serif" font-size="14.00">category</text>
</g>
<!-- frequency qualifier -->
<g id="node22" class="node">
<title>frequency qualifier</title>
<ellipse fill="none" stroke="blue" cx="2926.48" cy="-178" rx="85.29" ry="18"/>
<text text-anchor="middle" x="2926.48" y="-174.3" font-family="Times,serif" font-size="14.00">frequency value</text>
</g>
<!-- componentservice as a model of error association&#45;&gt;frequency qualifier -->
<g id="edge19" class="edge">
<title>componentservice as a model of error association&#45;&gt;frequency qualifier</title>
<path fill="none" stroke="blue" d="M2220.53,-252.01C2248.23,-250.21 2276.66,-248.46 2303.48,-247 2498.47,-236.37 2549.49,-258.79 2742.48,-229 2787.49,-222.05 2837.26,-208.13 2873.68,-196.74"/>
<polygon fill="blue" stroke="blue" points="2875.1,-199.96 2883.58,-193.6 2872.99,-193.29 2875.1,-199.96"/>
<text text-anchor="middle" x="2877.48" y="-217.8" font-family="Times,serif" font-size="14.00">frequency qualifier</text>
</g>
<!-- severity qualifier -->
<g id="node23" class="node">
<title>severity qualifier</title>
<ellipse fill="none" stroke="blue" cx="3105.48" cy="-178" rx="76.09" ry="18"/>
<text text-anchor="middle" x="3105.48" y="-174.3" font-family="Times,serif" font-size="14.00">severity value</text>
</g>
<!-- componentservice as a model of error association&#45;&gt;severity qualifier -->
<g id="edge20" class="edge">
<title>componentservice as a model of error association&#45;&gt;severity qualifier</title>
<path fill="none" stroke="blue" d="M2218.5,-251.84C2246.84,-250.02 2276,-248.32 2303.48,-247 2446.93,-240.13 2807.92,-253.16 2949.48,-229 2987.43,-222.52 3028.86,-208.92 3059.48,-197.53"/>
<polygon fill="blue" stroke="blue" points="3060.91,-200.74 3069.02,-193.93 3058.43,-194.19 3060.91,-200.74"/>
<text text-anchor="middle" x="3072.48" y="-217.8" font-family="Times,serif" font-size="14.00">severity qualifier</text>
</g>
<!-- onset qualifier -->
<g id="node24" class="node">
<title>onset qualifier</title>
<ellipse fill="none" stroke="blue" cx="3235.48" cy="-178" rx="36.29" ry="18"/>
<text text-anchor="middle" x="3235.48" y="-174.3" font-family="Times,serif" font-size="14.00">onset</text>
</g>
<!-- componentservice as a model of error association&#45;&gt;onset qualifier -->
<g id="edge21" class="edge">
<title>componentservice as a model of error association&#45;&gt;onset qualifier</title>
<path fill="none" stroke="blue" d="M2217.15,-251.78C2245.91,-249.94 2275.56,-248.25 2303.48,-247 2396.08,-242.85 3047.6,-251.63 3137.48,-229 3162,-222.83 3187.36,-209.67 3206.13,-198.41"/>
<polygon fill="blue" stroke="blue" points="3208.12,-201.3 3214.79,-193.07 3204.44,-195.34 3208.12,-201.3"/>
<text text-anchor="middle" x="3227.98" y="-217.8" font-family="Times,serif" font-size="14.00">onset qualifier</text>
</g>
<!-- subject -->
<g id="node25" class="node">
<title>subject</title>
<ellipse fill="none" stroke="black" cx="3334.48" cy="-178" rx="44.39" ry="18"/>
<text text-anchor="middle" x="3334.48" y="-174.3" font-family="Times,serif" font-size="14.00">subject</text>
</g>
<!-- componentservice as a model of error association&#45;&gt;subject -->
<g id="edge22" class="edge">
<title>componentservice as a model of error association&#45;&gt;subject</title>
<path fill="none" stroke="blue" d="M2216.81,-251.72C2245.67,-249.89 2275.45,-248.21 2303.48,-247 2357.89,-244.65 3233.26,-250.05 3283.48,-229 3296.3,-223.63 3307.66,-213.38 3316.4,-203.55"/>
<polygon fill="blue" stroke="blue" points="3319.09,-205.79 3322.81,-195.87 3313.72,-201.3 3319.09,-205.79"/>
<text text-anchor="middle" x="3331.48" y="-217.8" font-family="Times,serif" font-size="14.00">subject</text>
</g>
<!-- object&#45;&gt;relation -->
<g id="edge25" class="edge">
<title>object&#45;&gt;relation</title>
<path fill="none" stroke="black" stroke-dasharray="1,5" d="M2720.48,-72.81C2720.48,-64.79 2720.48,-55.05 2720.48,-46.07"/>
<polygon fill="black" stroke="black" points="2723.98,-46.03 2720.48,-36.03 2716.98,-46.03 2723.98,-46.03"/>
</g>
<!-- association_type -->
<g id="node19" class="node">
<title>association_type</title>
<ellipse fill="none" stroke="blue" cx="2350.48" cy="-265" rx="38.19" ry="18"/>
<text text-anchor="middle" x="2350.48" y="-261.3" font-family="Times,serif" font-size="14.00">string</text>
</g>
<!-- association_category -->
<g id="node21" class="node">
<title>association_category</title>
<ellipse fill="none" stroke="blue" cx="2469.48" cy="-265" rx="62.29" ry="18"/>
<text text-anchor="middle" x="2469.48" y="-261.3" font-family="Times,serif" font-size="14.00">association</text>
</g>
<!-- subject&#45;&gt;object -->
<g id="edge23" class="edge">
<title>subject&#45;&gt;object</title>
<path fill="none" stroke="black" d="M3302.54,-165.56C3295.36,-163.38 3287.73,-161.36 3280.48,-160 3160.53,-137.52 3127.66,-156.53 3006.48,-142 2929.05,-132.72 2840.76,-116.39 2783.01,-104.93"/>
<polygon fill="black" stroke="black" points="2783.44,-101.44 2772.94,-102.92 2782.07,-108.31 2783.44,-101.44"/>
<text text-anchor="middle" x="3034.48" y="-130.8" font-family="Times,serif" font-size="14.00">relation</text>
</g>
<!-- subject&#45;&gt;relation -->
<g id="edge24" class="edge">
<title>subject&#45;&gt;relation</title>
<path fill="none" stroke="black" stroke-dasharray="1,5" d="M3301.16,-166.18C3294.34,-164.05 3287.2,-161.9 3280.48,-160 3096.52,-107.93 2875.88,-55.19 2775.29,-31.68"/>
<polygon fill="black" stroke="black" points="2775.9,-28.22 2765.36,-29.36 2774.3,-35.04 2775.9,-28.22"/>
</g>
<!-- componentservice as a model of error association_subject -->
<g id="node26" class="node">
<title>componentservice as a model of error association_subject</title>
<ellipse fill="none" stroke="blue" cx="2714.48" cy="-265" rx="164.37" ry="18"/>
<text text-anchor="middle" x="2714.48" y="-261.3" font-family="Times,serif" font-size="14.00">componentservice or servicetype</text>
</g>
</g>
</svg>
