<?xml version="1.0" encoding="UTF-8" standalone="no"?>
<!DOCTYPE svg PUBLIC "-//W3C//DTD SVG 1.1//EN"
 "http://www.w3.org/Graphics/SVG/1.1/DTD/svg11.dtd">
<!-- Generated by graphviz version 2.43.0 (0)
 -->
<!-- Title: %3 Pages: 1 -->
<svg width="2812pt" height="291pt"
 viewBox="0.00 0.00 2811.92 291.00" xmlns="http://www.w3.org/2000/svg" xmlns:xlink="http://www.w3.org/1999/xlink">
<g id="graph0" class="graph" transform="scale(1 1) rotate(0) translate(4 287)">
<title>%3</title>
<polygon fill="white" stroke="transparent" points="-4,4 -4,-287 2807.92,-287 2807.92,4 -4,4"/>
<!-- componentservice to componentservice homology association -->
<g id="node1" class="node">
<title>componentservice to componentservice homology association</title>
<ellipse fill="none" stroke="black" cx="1401.93" cy="-265" rx="297.05" ry="18"/>
<text text-anchor="middle" x="1401.93" y="-261.3" font-family="Times,serif" font-size="14.00">componentservice to componentservice homology association</text>
</g>
<!-- componentservice to componentservice association -->
<g id="node2" class="node">
<title>componentservice to componentservice association</title>
<ellipse fill="none" stroke="black" cx="248.93" cy="-178" rx="248.86" ry="18"/>
<text text-anchor="middle" x="248.93" y="-174.3" font-family="Times,serif" font-size="14.00">componentservice to componentservice association</text>
</g>
<!-- componentservice to componentservice homology association&#45;&gt;componentservice to componentservice association -->
<g id="edge1" class="edge">
<title>componentservice to componentservice homology association&#45;&gt;componentservice to componentservice association</title>
<path fill="none" stroke="black" d="M1135.59,-256.98C989.62,-251.82 805.6,-243.16 641.93,-229 547.49,-220.83 440.84,-206.97 362.49,-195.91"/>
<polygon fill="black" stroke="black" points="362.51,-192.37 352.12,-194.44 361.53,-199.31 362.51,-192.37"/>
<text text-anchor="middle" x="655.93" y="-217.8" font-family="Times,serif" font-size="14.00">is_a</text>
</g>
<!-- id -->
<g id="node3" class="node">
<title>id</title>
<ellipse fill="none" stroke="blue" cx="553.93" cy="-178" rx="38.19" ry="18"/>
<text text-anchor="middle" x="553.93" y="-174.3" font-family="Times,serif" font-size="14.00">string</text>
</g>
<!-- componentservice to componentservice homology association&#45;&gt;id -->
<g id="edge2" class="edge">
<title>componentservice to componentservice homology association&#45;&gt;id</title>
<path fill="none" stroke="blue" d="M1128.66,-257.89C1015.17,-253.06 882.34,-244.42 762.93,-229 690.49,-219.64 672.3,-215.57 601.93,-196 598.82,-195.14 595.62,-194.17 592.42,-193.15"/>
<polygon fill="blue" stroke="blue" points="593.51,-189.83 582.91,-189.99 591.3,-196.47 593.51,-189.83"/>
<text text-anchor="middle" x="769.93" y="-217.8" font-family="Times,serif" font-size="14.00">id</text>
</g>
<!-- iri -->
<g id="node4" class="node">
<title>iri</title>
<ellipse fill="none" stroke="blue" cx="654.93" cy="-178" rx="44.39" ry="18"/>
<text text-anchor="middle" x="654.93" y="-174.3" font-family="Times,serif" font-size="14.00">iri type</text>
</g>
<!-- componentservice to componentservice homology association&#45;&gt;iri -->
<g id="edge3" class="edge">
<title>componentservice to componentservice homology association&#45;&gt;iri</title>
<path fill="none" stroke="blue" d="M1152.89,-255.15C1061.98,-249.98 958.53,-241.82 864.93,-229 794.29,-219.32 776.86,-214.25 707.93,-196 704.56,-195.11 701.08,-194.13 697.6,-193.11"/>
<polygon fill="blue" stroke="blue" points="698.44,-189.7 687.85,-190.14 696.4,-196.4 698.44,-189.7"/>
<text text-anchor="middle" x="872.93" y="-217.8" font-family="Times,serif" font-size="14.00">iri</text>
</g>
<!-- name -->
<g id="node5" class="node">
<title>name</title>
<ellipse fill="none" stroke="blue" cx="773.93" cy="-178" rx="56.59" ry="18"/>
<text text-anchor="middle" x="773.93" y="-174.3" font-family="Times,serif" font-size="14.00">label type</text>
</g>
<!-- componentservice to componentservice homology association&#45;&gt;name -->
<g id="edge4" class="edge">
<title>componentservice to componentservice homology association&#45;&gt;name</title>
<path fill="none" stroke="blue" d="M1159.6,-254.59C1090.52,-249.41 1015.43,-241.4 946.93,-229 903.11,-221.07 854.49,-206.48 819.98,-195.11"/>
<polygon fill="blue" stroke="blue" points="820.79,-191.68 810.2,-191.84 818.57,-198.32 820.79,-191.68"/>
<text text-anchor="middle" x="966.93" y="-217.8" font-family="Times,serif" font-size="14.00">name</text>
</g>
<!-- description -->
<g id="node6" class="node">
<title>description</title>
<ellipse fill="none" stroke="blue" cx="923.93" cy="-178" rx="75.29" ry="18"/>
<text text-anchor="middle" x="923.93" y="-174.3" font-family="Times,serif" font-size="14.00">narrative text</text>
</g>
<!-- componentservice to componentservice homology association&#45;&gt;description -->
<g id="edge5" class="edge">
<title>componentservice to componentservice homology association&#45;&gt;description</title>
<path fill="none" stroke="blue" d="M1163.88,-254.23C1118.55,-248.85 1071.88,-240.84 1028.93,-229 1004.73,-222.33 979.27,-210.35 959.49,-199.78"/>
<polygon fill="blue" stroke="blue" points="961,-196.62 950.54,-194.9 957.64,-202.76 961,-196.62"/>
<text text-anchor="middle" x="1069.43" y="-217.8" font-family="Times,serif" font-size="14.00">description</text>
</g>
<!-- source -->
<g id="node7" class="node">
<title>source</title>
<ellipse fill="none" stroke="blue" cx="1073.93" cy="-178" rx="56.59" ry="18"/>
<text text-anchor="middle" x="1073.93" y="-174.3" font-family="Times,serif" font-size="14.00">label type</text>
</g>
<!-- componentservice to componentservice homology association&#45;&gt;source -->
<g id="edge6" class="edge">
<title>componentservice to componentservice homology association&#45;&gt;source</title>
<path fill="none" stroke="blue" d="M1213.04,-251.07C1187.57,-245.82 1162.21,-238.68 1138.93,-229 1123.76,-222.69 1109.06,-211.92 1097.49,-201.98"/>
<polygon fill="blue" stroke="blue" points="1099.8,-199.35 1090.01,-195.3 1095.14,-204.57 1099.8,-199.35"/>
<text text-anchor="middle" x="1162.93" y="-217.8" font-family="Times,serif" font-size="14.00">source</text>
</g>
<!-- provided by -->
<g id="node8" class="node">
<title>provided by</title>
<ellipse fill="none" stroke="blue" cx="1185.93" cy="-178" rx="37.09" ry="18"/>
<text text-anchor="middle" x="1185.93" y="-174.3" font-family="Times,serif" font-size="14.00">agent</text>
</g>
<!-- componentservice to componentservice homology association&#45;&gt;provided by -->
<g id="edge7" class="edge">
<title>componentservice to componentservice homology association&#45;&gt;provided by</title>
<path fill="none" stroke="blue" d="M1254.87,-249.32C1230.28,-244.34 1209.6,-237.74 1199.93,-229 1193.46,-223.16 1189.88,-214.6 1187.93,-206.2"/>
<polygon fill="blue" stroke="blue" points="1191.37,-205.53 1186.28,-196.24 1184.46,-206.68 1191.37,-205.53"/>
<text text-anchor="middle" x="1242.43" y="-217.8" font-family="Times,serif" font-size="14.00">provided by</text>
</g>
<!-- has attribute -->
<g id="node9" class="node">
<title>has attribute</title>
<ellipse fill="none" stroke="blue" cx="1292.93" cy="-178" rx="51.99" ry="18"/>
<text text-anchor="middle" x="1292.93" y="-174.3" font-family="Times,serif" font-size="14.00">attribute</text>
</g>
<!-- componentservice to componentservice homology association&#45;&gt;has attribute -->
<g id="edge8" class="edge">
<title>componentservice to componentservice homology association&#45;&gt;has attribute</title>
<path fill="none" stroke="blue" d="M1315.83,-247.71C1307.35,-242.95 1299.74,-236.83 1293.93,-229 1289.18,-222.6 1287.7,-214.36 1287.77,-206.43"/>
<polygon fill="blue" stroke="blue" points="1291.27,-206.6 1288.6,-196.35 1284.29,-206.03 1291.27,-206.6"/>
<text text-anchor="middle" x="1340.93" y="-217.8" font-family="Times,serif" font-size="14.00">has attribute</text>
</g>
<!-- relation -->
<g id="node10" class="node">
<title>relation</title>
<ellipse fill="none" stroke="blue" cx="2026.93" cy="-18" rx="57.39" ry="18"/>
<text text-anchor="middle" x="2026.93" y="-14.3" font-family="Times,serif" font-size="14.00">uriorcurie</text>
</g>
<!-- componentservice to componentservice homology association&#45;&gt;relation -->
<g id="edge9" class="edge">
<title>componentservice to componentservice homology association&#45;&gt;relation</title>
<path fill="none" stroke="blue" d="M1397.42,-246.61C1391.11,-220.53 1381.54,-172.95 1391.93,-160 1462.93,-71.51 1813.65,-35.07 1961.27,-23.48"/>
<polygon fill="blue" stroke="blue" points="1961.84,-26.95 1971.54,-22.69 1961.3,-19.97 1961.84,-26.95"/>
<text text-anchor="middle" x="1459.93" y="-130.8" font-family="Times,serif" font-size="14.00">relation</text>
</g>
<!-- negated -->
<g id="node11" class="node">
<title>negated</title>
<ellipse fill="none" stroke="blue" cx="1447.93" cy="-178" rx="46.59" ry="18"/>
<text text-anchor="middle" x="1447.93" y="-174.3" font-family="Times,serif" font-size="14.00">boolean</text>
</g>
<!-- componentservice to componentservice homology association&#45;&gt;negated -->
<g id="edge10" class="edge">
<title>componentservice to componentservice homology association&#45;&gt;negated</title>
<path fill="none" stroke="blue" d="M1411.24,-246.8C1417.76,-234.74 1426.6,-218.4 1433.97,-204.79"/>
<polygon fill="blue" stroke="blue" points="1437.11,-206.35 1438.79,-195.89 1430.95,-203.01 1437.11,-206.35"/>
<text text-anchor="middle" x="1456.93" y="-217.8" font-family="Times,serif" font-size="14.00">negated</text>
</g>
<!-- qualifiers -->
<g id="node12" class="node">
<title>qualifiers</title>
<ellipse fill="none" stroke="blue" cx="1588.93" cy="-178" rx="76.89" ry="18"/>
<text text-anchor="middle" x="1588.93" y="-174.3" font-family="Times,serif" font-size="14.00">ontology class</text>
</g>
<!-- componentservice to componentservice homology association&#45;&gt;qualifiers -->
<g id="edge11" class="edge">
<title>componentservice to componentservice homology association&#45;&gt;qualifiers</title>
<path fill="none" stroke="blue" d="M1446.57,-247.14C1460.56,-241.61 1475.99,-235.28 1489.93,-229 1510.11,-219.91 1532.13,-208.9 1550.27,-199.53"/>
<polygon fill="blue" stroke="blue" points="1552.11,-202.52 1559.37,-194.8 1548.88,-196.31 1552.11,-202.52"/>
<text text-anchor="middle" x="1554.43" y="-217.8" font-family="Times,serif" font-size="14.00">qualifiers</text>
</g>
<!-- publications -->
<g id="node13" class="node">
<title>publications</title>
<ellipse fill="none" stroke="blue" cx="1745.93" cy="-178" rx="62.29" ry="18"/>
<text text-anchor="middle" x="1745.93" y="-174.3" font-family="Times,serif" font-size="14.00">publication</text>
</g>
<!-- componentservice to componentservice homology association&#45;&gt;publications -->
<g id="edge12" class="edge">
<title>componentservice to componentservice homology association&#45;&gt;publications</title>
<path fill="none" stroke="blue" d="M1502.55,-248.02C1531.57,-242.72 1563.15,-236.29 1591.93,-229 1628.56,-219.72 1669.2,-206.4 1699.52,-195.84"/>
<polygon fill="blue" stroke="blue" points="1700.71,-199.13 1708.99,-192.51 1698.39,-192.52 1700.71,-199.13"/>
<text text-anchor="middle" x="1687.93" y="-217.8" font-family="Times,serif" font-size="14.00">publications</text>
</g>
<!-- type -->
<g id="node14" class="node">
<title>type</title>
<ellipse fill="none" stroke="black" cx="1857.93" cy="-178" rx="31.4" ry="18"/>
<text text-anchor="middle" x="1857.93" y="-174.3" font-family="Times,serif" font-size="14.00">type</text>
</g>
<!-- componentservice to componentservice homology association&#45;&gt;type -->
<g id="edge13" class="edge">
<title>componentservice to componentservice homology association&#45;&gt;type</title>
<path fill="none" stroke="blue" d="M1605.77,-251.89C1649.13,-246.74 1694.36,-239.42 1735.93,-229 1767.68,-221.04 1802.03,-206.37 1826.17,-194.97"/>
<polygon fill="blue" stroke="blue" points="1827.71,-198.11 1835.21,-190.63 1824.68,-191.8 1827.71,-198.11"/>
<text text-anchor="middle" x="1796.93" y="-217.8" font-family="Times,serif" font-size="14.00">type</text>
</g>
<!-- category -->
<g id="node16" class="node">
<title>category</title>
<ellipse fill="none" stroke="black" cx="1958.93" cy="-178" rx="51.19" ry="18"/>
<text text-anchor="middle" x="1958.93" y="-174.3" font-family="Times,serif" font-size="14.00">category</text>
</g>
<!-- componentservice to componentservice homology association&#45;&gt;category -->
<g id="edge14" class="edge">
<title>componentservice to componentservice homology association&#45;&gt;category</title>
<path fill="none" stroke="blue" d="M1603.94,-251.78C1688.4,-245.67 1776.28,-237.72 1816.93,-229 1852.13,-221.45 1890.57,-207.54 1918.56,-196.31"/>
<polygon fill="blue" stroke="blue" points="1920.06,-199.48 1928.01,-192.47 1917.42,-193 1920.06,-199.48"/>
<text text-anchor="middle" x="1900.43" y="-217.8" font-family="Times,serif" font-size="14.00">category</text>
</g>
<!-- subject -->
<g id="node18" class="node">
<title>subject</title>
<ellipse fill="none" stroke="black" cx="2072.93" cy="-178" rx="44.39" ry="18"/>
<text text-anchor="middle" x="2072.93" y="-174.3" font-family="Times,serif" font-size="14.00">subject</text>
</g>
<!-- componentservice to componentservice homology association&#45;&gt;subject -->
<g id="edge15" class="edge">
<title>componentservice to componentservice homology association&#45;&gt;subject</title>
<path fill="none" stroke="blue" d="M1606.76,-251.92C1750.32,-243.24 1919.45,-232.47 1935.93,-229 1970.57,-221.7 2008.24,-207.46 2035.3,-196.03"/>
<polygon fill="blue" stroke="blue" points="2036.95,-199.13 2044.76,-191.97 2034.19,-192.7 2036.95,-199.13"/>
<text text-anchor="middle" x="2012.93" y="-217.8" font-family="Times,serif" font-size="14.00">subject</text>
</g>
<!-- object -->
<g id="node20" class="node">
<title>object</title>
<ellipse fill="none" stroke="black" cx="2093.93" cy="-91" rx="38.99" ry="18"/>
<text text-anchor="middle" x="2093.93" y="-87.3" font-family="Times,serif" font-size="14.00">object</text>
</g>
<!-- componentservice to componentservice homology association&#45;&gt;object -->
<g id="edge16" class="edge">
<title>componentservice to componentservice homology association&#45;&gt;object</title>
<path fill="none" stroke="blue" d="M1612.21,-252.27C1644.27,-250.49 1676.98,-248.69 1707.93,-247 1856.81,-238.86 1897.29,-260.96 2042.93,-229 2081.7,-220.49 2099.92,-225.99 2125.93,-196 2146.37,-172.42 2152.64,-155.03 2138.93,-127 2136.07,-121.17 2131.73,-116.02 2126.84,-111.6"/>
<polygon fill="blue" stroke="blue" points="2128.85,-108.73 2118.85,-105.25 2124.5,-114.21 2128.85,-108.73"/>
<text text-anchor="middle" x="2166.93" y="-174.3" font-family="Times,serif" font-size="14.00">object</text>
</g>
<!-- predicate -->
<g id="node22" class="node">
<title>predicate</title>
<ellipse fill="none" stroke="black" cx="2269.93" cy="-178" rx="54.69" ry="18"/>
<text text-anchor="middle" x="2269.93" y="-174.3" font-family="Times,serif" font-size="14.00">predicate</text>
</g>
<!-- componentservice to componentservice homology association&#45;&gt;predicate -->
<g id="edge17" class="edge">
<title>componentservice to componentservice homology association&#45;&gt;predicate</title>
<path fill="none" stroke="blue" d="M1608.89,-252.04C1642.01,-250.26 1675.91,-248.52 1707.93,-247 1809.89,-242.17 2067.91,-253.82 2166.93,-229 2191.56,-222.83 2217.26,-210.36 2236.83,-199.42"/>
<polygon fill="blue" stroke="blue" points="2238.7,-202.38 2245.64,-194.37 2235.22,-196.31 2238.7,-202.38"/>
<text text-anchor="middle" x="2241.93" y="-217.8" font-family="Times,serif" font-size="14.00">predicate</text>
</g>
<!-- association_type -->
<g id="node15" class="node">
<title>association_type</title>
<ellipse fill="none" stroke="blue" cx="1754.93" cy="-265" rx="38.19" ry="18"/>
<text text-anchor="middle" x="1754.93" y="-261.3" font-family="Times,serif" font-size="14.00">string</text>
</g>
<!-- association_category -->
<g id="node17" class="node">
<title>association_category</title>
<ellipse fill="none" stroke="blue" cx="1873.93" cy="-265" rx="62.29" ry="18"/>
<text text-anchor="middle" x="1873.93" y="-261.3" font-family="Times,serif" font-size="14.00">association</text>
</g>
<!-- subject&#45;&gt;relation -->
<g id="edge19" class="edge">
<title>subject&#45;&gt;relation</title>
<path fill="none" stroke="black" stroke-dasharray="1,5" d="M2065.34,-160.24C2059.42,-146.64 2051.32,-126.88 2045.93,-109 2039.67,-88.27 2034.71,-64.24 2031.43,-46.23"/>
<polygon fill="black" stroke="black" points="2034.83,-45.38 2029.65,-36.14 2027.94,-46.59 2034.83,-45.38"/>
</g>
<!-- subject&#45;&gt;object -->
<g id="edge18" class="edge">
<title>subject&#45;&gt;object</title>
<path fill="none" stroke="black" d="M2075.9,-159.77C2077.69,-150.09 2080.16,-137.8 2082.93,-127 2083.62,-124.32 2084.39,-121.53 2085.2,-118.76"/>
<polygon fill="black" stroke="black" points="2088.61,-119.57 2088.19,-108.98 2081.91,-117.52 2088.61,-119.57"/>
<text text-anchor="middle" x="2110.93" y="-130.8" font-family="Times,serif" font-size="14.00">relation</text>
</g>
<!-- componentservice to componentservice association_subject -->
<g id="node19" class="node">
<title>componentservice to componentservice association_subject</title>
<ellipse fill="none" stroke="blue" cx="2118.93" cy="-265" rx="164.37" ry="18"/>
<text text-anchor="middle" x="2118.93" y="-261.3" font-family="Times,serif" font-size="14.00">componentservice or servicetype</text>
</g>
<!-- object&#45;&gt;relation -->
<g id="edge20" class="edge">
<title>object&#45;&gt;relation</title>
<path fill="none" stroke="black" stroke-dasharray="1,5" d="M2079.06,-74.24C2070.46,-65.13 2059.45,-53.47 2049.77,-43.21"/>
<polygon fill="black" stroke="black" points="2052.1,-40.57 2042.69,-35.7 2047.01,-45.38 2052.1,-40.57"/>
</g>
<!-- componentservice to componentservice association_object -->
<g id="node21" class="node">
<title>componentservice to componentservice association_object</title>
<ellipse fill="none" stroke="blue" cx="2465.93" cy="-265" rx="164.37" ry="18"/>
<text text-anchor="middle" x="2465.93" y="-261.3" font-family="Times,serif" font-size="14.00">componentservice or servicetype</text>
</g>
<!-- componentservice to componentservice homology association_predicate -->
<g id="node23" class="node">
<title>componentservice to componentservice homology association_predicate</title>
<ellipse fill="none" stroke="blue" cx="2725.93" cy="-265" rx="77.99" ry="18"/>
<text text-anchor="middle" x="2725.93" y="-261.3" font-family="Times,serif" font-size="14.00">predicate type</text>
</g>
</g>
</svg>
