<?xml version="1.0" encoding="UTF-8" standalone="no"?>
<!DOCTYPE svg PUBLIC "-//W3C//DTD SVG 1.1//EN"
 "http://www.w3.org/Graphics/SVG/1.1/DTD/svg11.dtd">
<!-- Generated by graphviz version 2.43.0 (0)
 -->
<!-- Title: %3 Pages: 1 -->
<svg width="2992pt" height="291pt"
 viewBox="0.00 0.00 2991.59 291.00" xmlns="http://www.w3.org/2000/svg" xmlns:xlink="http://www.w3.org/1999/xlink">
<g id="graph0" class="graph" transform="scale(1 1) rotate(0) translate(4 287)">
<title>%3</title>
<polygon fill="white" stroke="transparent" points="-4,4 -4,-287 2987.59,-287 2987.59,4 -4,4"/>
<!-- component type to error or observable feature association -->
<g id="node1" class="node">
<title>component type to error or observable feature association</title>
<ellipse fill="none" stroke="black" cx="1906.39" cy="-265" rx="282.15" ry="18"/>
<text text-anchor="middle" x="1906.39" y="-261.3" font-family="Times,serif" font-size="14.00">component type to error or observable feature association</text>
</g>
<!-- association -->
<g id="node2" class="node">
<title>association</title>
<ellipse fill="none" stroke="black" cx="62.39" cy="-178" rx="62.29" ry="18"/>
<text text-anchor="middle" x="62.39" y="-174.3" font-family="Times,serif" font-size="14.00">association</text>
</g>
<!-- component type to error or observable feature association&#45;&gt;association -->
<g id="edge1" class="edge">
<title>component type to error or observable feature association&#45;&gt;association</title>
<path fill="none" stroke="black" d="M1652.21,-257.19C1428.82,-250.9 1094.99,-240.77 804.39,-229 506.5,-216.93 429.59,-237.76 134.39,-196 128.61,-195.18 122.61,-194.12 116.65,-192.92"/>
<polygon fill="black" stroke="black" points="117.22,-189.46 106.71,-190.8 115.76,-196.31 117.22,-189.46"/>
<text text-anchor="middle" x="818.39" y="-217.8" font-family="Times,serif" font-size="14.00">is_a</text>
</g>
<!-- component type to entity association mixin -->
<g id="node3" class="node">
<title>component type to entity association mixin</title>
<ellipse fill="none" stroke="black" cx="354.39" cy="-178" rx="211.46" ry="18"/>
<text text-anchor="middle" x="354.39" y="-174.3" font-family="Times,serif" font-size="14.00">component type to entity association mixin</text>
</g>
<!-- component type to error or observable feature association&#45;&gt;component type to entity association mixin -->
<g id="edge2" class="edge">
<title>component type to error or observable feature association&#45;&gt;component type to entity association mixin</title>
<path fill="none" stroke="black" d="M1668.21,-255.34C1503.16,-248.99 1278.36,-239.65 1080.39,-229 855.35,-216.9 799.19,-212.02 574.39,-196 554.69,-194.6 534,-193.07 513.52,-191.52"/>
<polygon fill="black" stroke="black" points="513.72,-188.03 503.49,-190.76 513.19,-195.01 513.72,-188.03"/>
<text text-anchor="middle" x="1096.89" y="-217.8" font-family="Times,serif" font-size="14.00">uses</text>
</g>
<!-- entity to error or observable feature association mixin -->
<g id="node4" class="node">
<title>entity to error or observable feature association mixin</title>
<ellipse fill="none" stroke="black" cx="846.39" cy="-178" rx="263.45" ry="18"/>
<text text-anchor="middle" x="846.39" y="-174.3" font-family="Times,serif" font-size="14.00">entity to error or observable feature association mixin</text>
</g>
<!-- component type to error or observable feature association&#45;&gt;entity to error or observable feature association mixin -->
<g id="edge3" class="edge">
<title>component type to error or observable feature association&#45;&gt;entity to error or observable feature association mixin</title>
<path fill="none" stroke="black" d="M1668.51,-255.31C1543.84,-249.75 1388.71,-241.23 1250.39,-229 1154.02,-220.48 1045.19,-206.77 964.79,-195.86"/>
<polygon fill="black" stroke="black" points="965.01,-192.36 954.63,-194.48 964.07,-199.3 965.01,-192.36"/>
<text text-anchor="middle" x="1266.89" y="-217.8" font-family="Times,serif" font-size="14.00">uses</text>
</g>
<!-- id -->
<g id="node5" class="node">
<title>id</title>
<ellipse fill="none" stroke="blue" cx="1166.39" cy="-178" rx="38.19" ry="18"/>
<text text-anchor="middle" x="1166.39" y="-174.3" font-family="Times,serif" font-size="14.00">string</text>
</g>
<!-- component type to error or observable feature association&#45;&gt;id -->
<g id="edge4" class="edge">
<title>component type to error or observable feature association&#45;&gt;id</title>
<path fill="none" stroke="blue" d="M1670.04,-255.13C1578.38,-249.92 1472.73,-241.75 1377.39,-229 1304.13,-219.2 1285.63,-215.72 1214.39,-196 1211.28,-195.14 1208.09,-194.18 1204.89,-193.16"/>
<polygon fill="blue" stroke="blue" points="1205.97,-189.83 1195.38,-190 1203.76,-196.48 1205.97,-189.83"/>
<text text-anchor="middle" x="1384.39" y="-217.8" font-family="Times,serif" font-size="14.00">id</text>
</g>
<!-- iri -->
<g id="node6" class="node">
<title>iri</title>
<ellipse fill="none" stroke="blue" cx="1267.39" cy="-178" rx="44.39" ry="18"/>
<text text-anchor="middle" x="1267.39" y="-174.3" font-family="Times,serif" font-size="14.00">iri type</text>
</g>
<!-- component type to error or observable feature association&#45;&gt;iri -->
<g id="edge5" class="edge">
<title>component type to error or observable feature association&#45;&gt;iri</title>
<path fill="none" stroke="blue" d="M1704.3,-252.44C1633.3,-247.05 1553.11,-239.45 1480.39,-229 1408.52,-218.67 1390.62,-214.45 1320.39,-196 1317.02,-195.11 1313.55,-194.14 1310.06,-193.12"/>
<polygon fill="blue" stroke="blue" points="1310.9,-189.72 1300.31,-190.16 1308.87,-196.41 1310.9,-189.72"/>
<text text-anchor="middle" x="1488.39" y="-217.8" font-family="Times,serif" font-size="14.00">iri</text>
</g>
<!-- name -->
<g id="node7" class="node">
<title>name</title>
<ellipse fill="none" stroke="blue" cx="1386.39" cy="-178" rx="56.59" ry="18"/>
<text text-anchor="middle" x="1386.39" y="-174.3" font-family="Times,serif" font-size="14.00">label type</text>
</g>
<!-- component type to error or observable feature association&#45;&gt;name -->
<g id="edge6" class="edge">
<title>component type to error or observable feature association&#45;&gt;name</title>
<path fill="none" stroke="blue" d="M1723.53,-251.27C1671.51,-246.05 1614.99,-238.84 1563.39,-229 1518.67,-220.47 1468.85,-205.93 1433.49,-194.72"/>
<polygon fill="blue" stroke="blue" points="1434.51,-191.37 1423.92,-191.65 1432.38,-198.04 1434.51,-191.37"/>
<text text-anchor="middle" x="1583.39" y="-217.8" font-family="Times,serif" font-size="14.00">name</text>
</g>
<!-- description -->
<g id="node8" class="node">
<title>description</title>
<ellipse fill="none" stroke="blue" cx="1536.39" cy="-178" rx="75.29" ry="18"/>
<text text-anchor="middle" x="1536.39" y="-174.3" font-family="Times,serif" font-size="14.00">narrative text</text>
</g>
<!-- component type to error or observable feature association&#45;&gt;description -->
<g id="edge7" class="edge">
<title>component type to error or observable feature association&#45;&gt;description</title>
<path fill="none" stroke="blue" d="M1748.41,-250.04C1714.7,-245.02 1679.57,-238.21 1647.39,-229 1622.2,-221.79 1595.36,-209.83 1574.39,-199.42"/>
<polygon fill="blue" stroke="blue" points="1575.7,-196.16 1565.2,-194.76 1572.54,-202.4 1575.7,-196.16"/>
<text text-anchor="middle" x="1687.89" y="-217.8" font-family="Times,serif" font-size="14.00">description</text>
</g>
<!-- source -->
<g id="node9" class="node">
<title>source</title>
<ellipse fill="none" stroke="blue" cx="1686.39" cy="-178" rx="56.59" ry="18"/>
<text text-anchor="middle" x="1686.39" y="-174.3" font-family="Times,serif" font-size="14.00">label type</text>
</g>
<!-- component type to error or observable feature association&#45;&gt;source -->
<g id="edge8" class="edge">
<title>component type to error or observable feature association&#45;&gt;source</title>
<path fill="none" stroke="blue" d="M1812.11,-247.94C1793.21,-243.09 1773.82,-236.88 1756.39,-229 1740.92,-222 1725.37,-211.35 1712.88,-201.67"/>
<polygon fill="blue" stroke="blue" points="1714.75,-198.69 1704.75,-195.19 1710.38,-204.16 1714.75,-198.69"/>
<text text-anchor="middle" x="1780.39" y="-217.8" font-family="Times,serif" font-size="14.00">source</text>
</g>
<!-- provided by -->
<g id="node10" class="node">
<title>provided by</title>
<ellipse fill="none" stroke="blue" cx="1798.39" cy="-178" rx="37.09" ry="18"/>
<text text-anchor="middle" x="1798.39" y="-174.3" font-family="Times,serif" font-size="14.00">agent</text>
</g>
<!-- component type to error or observable feature association&#45;&gt;provided by -->
<g id="edge9" class="edge">
<title>component type to error or observable feature association&#45;&gt;provided by</title>
<path fill="none" stroke="blue" d="M1844.36,-247.44C1834.45,-242.71 1824.98,-236.68 1817.39,-229 1811.18,-222.71 1806.95,-214.18 1804.1,-205.94"/>
<polygon fill="blue" stroke="blue" points="1807.43,-204.83 1801.27,-196.21 1800.71,-206.79 1807.43,-204.83"/>
<text text-anchor="middle" x="1859.89" y="-217.8" font-family="Times,serif" font-size="14.00">provided by</text>
</g>
<!-- has attribute -->
<g id="node11" class="node">
<title>has attribute</title>
<ellipse fill="none" stroke="blue" cx="1905.39" cy="-178" rx="51.99" ry="18"/>
<text text-anchor="middle" x="1905.39" y="-174.3" font-family="Times,serif" font-size="14.00">attribute</text>
</g>
<!-- component type to error or observable feature association&#45;&gt;has attribute -->
<g id="edge10" class="edge">
<title>component type to error or observable feature association&#45;&gt;has attribute</title>
<path fill="none" stroke="blue" d="M1906.19,-246.8C1906.06,-235.16 1905.87,-219.55 1905.71,-206.24"/>
<polygon fill="blue" stroke="blue" points="1909.21,-206.13 1905.6,-196.18 1902.21,-206.22 1909.21,-206.13"/>
<text text-anchor="middle" x="1953.39" y="-217.8" font-family="Times,serif" font-size="14.00">has attribute</text>
</g>
<!-- predicate -->
<g id="node12" class="node">
<title>predicate</title>
<ellipse fill="none" stroke="blue" cx="2053.39" cy="-178" rx="77.99" ry="18"/>
<text text-anchor="middle" x="2053.39" y="-174.3" font-family="Times,serif" font-size="14.00">predicate type</text>
</g>
<!-- component type to error or observable feature association&#45;&gt;predicate -->
<g id="edge11" class="edge">
<title>component type to error or observable feature association&#45;&gt;predicate</title>
<path fill="none" stroke="blue" d="M1966.46,-247.4C1979.49,-242.49 1992.83,-236.4 2004.39,-229 2015.16,-222.11 2025.35,-212.44 2033.63,-203.44"/>
<polygon fill="blue" stroke="blue" points="2036.38,-205.6 2040.37,-195.79 2031.13,-200.98 2036.38,-205.6"/>
<text text-anchor="middle" x="2057.39" y="-217.8" font-family="Times,serif" font-size="14.00">predicate</text>
</g>
<!-- object -->
<g id="node13" class="node">
<title>object</title>
<ellipse fill="none" stroke="blue" cx="2549.39" cy="-91" rx="69.59" ry="18"/>
<text text-anchor="middle" x="2549.39" y="-87.3" font-family="Times,serif" font-size="14.00">named thing</text>
</g>
<!-- component type to error or observable feature association&#45;&gt;object -->
<g id="edge12" class="edge">
<title>component type to error or observable feature association&#45;&gt;object</title>
<path fill="none" stroke="blue" d="M2091.71,-251.36C2127.24,-246.24 2158.12,-239.06 2173.39,-229 2203.18,-209.38 2185.31,-180.65 2214.39,-160 2255.66,-130.7 2390.65,-110.26 2476.16,-99.87"/>
<polygon fill="blue" stroke="blue" points="2476.81,-103.32 2486.33,-98.66 2475.98,-96.37 2476.81,-103.32"/>
<text text-anchor="middle" x="2236.39" y="-174.3" font-family="Times,serif" font-size="14.00">object</text>
</g>
<!-- relation -->
<g id="node14" class="node">
<title>relation</title>
<ellipse fill="none" stroke="blue" cx="2549.39" cy="-18" rx="57.39" ry="18"/>
<text text-anchor="middle" x="2549.39" y="-14.3" font-family="Times,serif" font-size="14.00">uriorcurie</text>
</g>
<!-- component type to error or observable feature association&#45;&gt;relation -->
<g id="edge13" class="edge">
<title>component type to error or observable feature association&#45;&gt;relation</title>
<path fill="none" stroke="blue" d="M2032.28,-248.88C2053.84,-244 2075.64,-237.54 2095.39,-229 2118.16,-219.16 2122.36,-213.02 2140.39,-196 2169.32,-168.7 2164.32,-149.1 2197.39,-127 2287.5,-66.8 2412.63,-38.97 2486.88,-27.04"/>
<polygon fill="blue" stroke="blue" points="2487.67,-30.46 2497.01,-25.46 2486.59,-23.54 2487.67,-30.46"/>
<text text-anchor="middle" x="2225.39" y="-130.8" font-family="Times,serif" font-size="14.00">relation</text>
</g>
<!-- negated -->
<g id="node15" class="node">
<title>negated</title>
<ellipse fill="none" stroke="blue" cx="2314.39" cy="-178" rx="46.59" ry="18"/>
<text text-anchor="middle" x="2314.39" y="-174.3" font-family="Times,serif" font-size="14.00">boolean</text>
</g>
<!-- component type to error or observable feature association&#45;&gt;negated -->
<g id="edge14" class="edge">
<title>component type to error or observable feature association&#45;&gt;negated</title>
<path fill="none" stroke="blue" d="M2109.45,-252.46C2146.53,-247.22 2184.5,-239.71 2219.39,-229 2241.85,-222.11 2265.22,-209.88 2283.16,-199.25"/>
<polygon fill="blue" stroke="blue" points="2285.29,-202.05 2292.02,-193.87 2281.65,-196.07 2285.29,-202.05"/>
<text text-anchor="middle" x="2284.39" y="-217.8" font-family="Times,serif" font-size="14.00">negated</text>
</g>
<!-- qualifiers -->
<g id="node16" class="node">
<title>qualifiers</title>
<ellipse fill="none" stroke="blue" cx="2455.39" cy="-178" rx="76.89" ry="18"/>
<text text-anchor="middle" x="2455.39" y="-174.3" font-family="Times,serif" font-size="14.00">ontology class</text>
</g>
<!-- component type to error or observable feature association&#45;&gt;qualifiers -->
<g id="edge15" class="edge">
<title>component type to error or observable feature association&#45;&gt;qualifiers</title>
<path fill="none" stroke="blue" d="M2103.49,-252.1C2188.07,-245.99 2276.7,-237.94 2317.39,-229 2349.87,-221.86 2385.09,-209.01 2411.82,-198.13"/>
<polygon fill="blue" stroke="blue" points="2413.36,-201.28 2421.26,-194.22 2410.68,-194.81 2413.36,-201.28"/>
<text text-anchor="middle" x="2401.89" y="-217.8" font-family="Times,serif" font-size="14.00">qualifiers</text>
</g>
<!-- publications -->
<g id="node17" class="node">
<title>publications</title>
<ellipse fill="none" stroke="blue" cx="2612.39" cy="-178" rx="62.29" ry="18"/>
<text text-anchor="middle" x="2612.39" y="-174.3" font-family="Times,serif" font-size="14.00">publication</text>
</g>
<!-- component type to error or observable feature association&#45;&gt;publications -->
<g id="edge16" class="edge">
<title>component type to error or observable feature association&#45;&gt;publications</title>
<path fill="none" stroke="blue" d="M2103.02,-252.08C2247.88,-243.14 2422.54,-231.95 2439.39,-229 2482.7,-221.41 2530.63,-207.07 2565.03,-195.69"/>
<polygon fill="blue" stroke="blue" points="2566.44,-198.91 2574.81,-192.42 2564.22,-192.27 2566.44,-198.91"/>
<text text-anchor="middle" x="2546.39" y="-217.8" font-family="Times,serif" font-size="14.00">publications</text>
</g>
<!-- type -->
<g id="node18" class="node">
<title>type</title>
<ellipse fill="none" stroke="black" cx="2724.39" cy="-178" rx="31.4" ry="18"/>
<text text-anchor="middle" x="2724.39" y="-174.3" font-family="Times,serif" font-size="14.00">type</text>
</g>
<!-- component type to error or observable feature association&#45;&gt;type -->
<g id="edge17" class="edge">
<title>component type to error or observable feature association&#45;&gt;type</title>
<path fill="none" stroke="blue" d="M2103.61,-252.13C2134.98,-250.34 2167.07,-248.57 2197.39,-247 2285.59,-242.42 2507.85,-246.56 2594.39,-229 2629.07,-221.96 2666.57,-206.64 2692.34,-194.8"/>
<polygon fill="blue" stroke="blue" points="2694.04,-197.87 2701.62,-190.45 2691.08,-191.53 2694.04,-197.87"/>
<text text-anchor="middle" x="2662.39" y="-217.8" font-family="Times,serif" font-size="14.00">type</text>
</g>
<!-- category -->
<g id="node20" class="node">
<title>category</title>
<ellipse fill="none" stroke="black" cx="2825.39" cy="-178" rx="51.19" ry="18"/>
<text text-anchor="middle" x="2825.39" y="-174.3" font-family="Times,serif" font-size="14.00">category</text>
</g>
<!-- component type to error or observable feature association&#45;&gt;category -->
<g id="edge18" class="edge">
<title>component type to error or observable feature association&#45;&gt;category</title>
<path fill="none" stroke="blue" d="M2102.03,-252C2133.9,-250.21 2166.56,-248.47 2197.39,-247 2305.12,-241.85 2576.42,-249.02 2682.39,-229 2718.34,-222.21 2757.44,-208.04 2785.66,-196.51"/>
<polygon fill="blue" stroke="blue" points="2787.27,-199.63 2795.16,-192.56 2784.58,-193.16 2787.27,-199.63"/>
<text text-anchor="middle" x="2766.89" y="-217.8" font-family="Times,serif" font-size="14.00">category</text>
</g>
<!-- subject -->
<g id="node22" class="node">
<title>subject</title>
<ellipse fill="none" stroke="black" cx="2939.39" cy="-178" rx="44.39" ry="18"/>
<text text-anchor="middle" x="2939.39" y="-174.3" font-family="Times,serif" font-size="14.00">subject</text>
</g>
<!-- component type to error or observable feature association&#45;&gt;subject -->
<g id="edge19" class="edge">
<title>component type to error or observable feature association&#45;&gt;subject</title>
<path fill="none" stroke="blue" d="M2100.06,-251.91C2132.55,-250.1 2165.92,-248.39 2197.39,-247 2331.77,-241.08 2670.31,-254.38 2802.39,-229 2837.27,-222.3 2875.06,-207.93 2902.1,-196.31"/>
<polygon fill="blue" stroke="blue" points="2903.79,-199.39 2911.55,-192.17 2900.98,-192.97 2903.79,-199.39"/>
<text text-anchor="middle" x="2881.39" y="-217.8" font-family="Times,serif" font-size="14.00">subject</text>
</g>
<!-- object&#45;&gt;relation -->
<g id="edge22" class="edge">
<title>object&#45;&gt;relation</title>
<path fill="none" stroke="black" stroke-dasharray="1,5" d="M2549.39,-72.81C2549.39,-64.79 2549.39,-55.05 2549.39,-46.07"/>
<polygon fill="black" stroke="black" points="2552.89,-46.03 2549.39,-36.03 2545.89,-46.03 2552.89,-46.03"/>
</g>
<!-- association_type -->
<g id="node19" class="node">
<title>association_type</title>
<ellipse fill="none" stroke="blue" cx="2244.39" cy="-265" rx="38.19" ry="18"/>
<text text-anchor="middle" x="2244.39" y="-261.3" font-family="Times,serif" font-size="14.00">string</text>
</g>
<!-- association_category -->
<g id="node21" class="node">
<title>association_category</title>
<ellipse fill="none" stroke="blue" cx="2363.39" cy="-265" rx="62.29" ry="18"/>
<text text-anchor="middle" x="2363.39" y="-261.3" font-family="Times,serif" font-size="14.00">association</text>
</g>
<!-- subject&#45;&gt;object -->
<g id="edge20" class="edge">
<title>subject&#45;&gt;object</title>
<path fill="none" stroke="black" d="M2906.83,-165.63C2899.82,-163.5 2892.41,-161.48 2885.39,-160 2814.51,-145.05 2794.46,-156.05 2723.39,-142 2681.02,-133.62 2633.99,-119.83 2599.52,-108.85"/>
<polygon fill="black" stroke="black" points="2600.29,-105.42 2589.7,-105.69 2598.15,-112.08 2600.29,-105.42"/>
<text text-anchor="middle" x="2751.39" y="-130.8" font-family="Times,serif" font-size="14.00">relation</text>
</g>
<!-- subject&#45;&gt;relation -->
<g id="edge21" class="edge">
<title>subject&#45;&gt;relation</title>
<path fill="none" stroke="black" stroke-dasharray="1,5" d="M2909.12,-164.73C2840.38,-136.89 2672.35,-68.81 2592.67,-36.53"/>
<polygon fill="black" stroke="black" points="2593.53,-33.1 2582.95,-32.59 2590.9,-39.59 2593.53,-33.1"/>
</g>
<!-- component type to error or observable feature association_subject -->
<g id="node23" class="node">
<title>component type to error or observable feature association_subject</title>
<ellipse fill="none" stroke="blue" cx="2581.39" cy="-265" rx="137.58" ry="18"/>
<text text-anchor="middle" x="2581.39" y="-261.3" font-family="Times,serif" font-size="14.00">error or observable feature</text>
</g>
</g>
</svg>
