<?xml version="1.0" encoding="UTF-8" standalone="no"?>
<!DOCTYPE svg PUBLIC "-//W3C//DTD SVG 1.1//EN"
 "http://www.w3.org/Graphics/SVG/1.1/DTD/svg11.dtd">
<!-- Generated by graphviz version 2.43.0 (0)
 -->
<!-- Title: %3 Pages: 1 -->
<svg width="1860pt" height="131pt"
 viewBox="0.00 0.00 1860.48 131.00" xmlns="http://www.w3.org/2000/svg" xmlns:xlink="http://www.w3.org/1999/xlink">
<g id="graph0" class="graph" transform="scale(1 1) rotate(0) translate(4 127)">
<title>%3</title>
<polygon fill="white" stroke="transparent" points="-4,4 -4,-127 1856.48,-127 1856.48,4 -4,4"/>
<!-- complex orchestration exposure -->
<g id="node1" class="node">
<title>complex orchestration exposure</title>
<ellipse fill="none" stroke="black" cx="936.29" cy="-105" rx="159.77" ry="18"/>
<text text-anchor="middle" x="936.29" y="-101.3" font-family="Times,serif" font-size="14.00">complex orchestration exposure</text>
</g>
<!-- orchestration exposure -->
<g id="node2" class="node">
<title>orchestration exposure</title>
<ellipse fill="none" stroke="black" cx="118.29" cy="-18" rx="118.08" ry="18"/>
<text text-anchor="middle" x="118.29" y="-14.3" font-family="Times,serif" font-size="14.00">orchestration exposure</text>
</g>
<!-- complex orchestration exposure&#45;&gt;orchestration exposure -->
<g id="edge1" class="edge">
<title>complex orchestration exposure&#45;&gt;orchestration exposure</title>
<path fill="none" stroke="black" d="M783.87,-99.51C672.09,-94.98 516.83,-86.09 381.29,-69 316.53,-60.83 243.66,-46.58 191.08,-35.37"/>
<polygon fill="black" stroke="black" points="191.69,-31.92 181.18,-33.25 190.22,-38.77 191.69,-31.92"/>
<text text-anchor="middle" x="395.29" y="-57.8" font-family="Times,serif" font-size="14.00">is_a</text>
</g>
<!-- cluster -->
<g id="node3" class="node">
<title>cluster</title>
<ellipse fill="none" stroke="black" cx="297.29" cy="-18" rx="42.79" ry="18"/>
<text text-anchor="middle" x="297.29" y="-14.3" font-family="Times,serif" font-size="14.00">cluster</text>
</g>
<!-- complex orchestration exposure&#45;&gt;cluster -->
<g id="edge2" class="edge">
<title>complex orchestration exposure&#45;&gt;cluster</title>
<path fill="none" stroke="black" d="M787.39,-98.36C699.4,-93.55 586.04,-84.79 486.29,-69 424.43,-59.21 409.55,-53.08 349.29,-36 345.99,-35.07 342.59,-34.06 339.18,-33.01"/>
<polygon fill="black" stroke="black" points="340.21,-29.67 329.62,-30.01 338.11,-36.35 340.21,-29.67"/>
<text text-anchor="middle" x="502.79" y="-57.8" font-family="Times,serif" font-size="14.00">uses</text>
</g>
<!-- id -->
<g id="node4" class="node">
<title>id</title>
<ellipse fill="none" stroke="blue" cx="396.29" cy="-18" rx="38.19" ry="18"/>
<text text-anchor="middle" x="396.29" y="-14.3" font-family="Times,serif" font-size="14.00">string</text>
</g>
<!-- complex orchestration exposure&#45;&gt;id -->
<g id="edge3" class="edge">
<title>complex orchestration exposure&#45;&gt;id</title>
<path fill="none" stroke="blue" d="M802.26,-95.17C702.21,-86.26 562.9,-68.91 444.29,-36 441.18,-35.14 437.98,-34.17 434.78,-33.16"/>
<polygon fill="blue" stroke="blue" points="435.87,-29.83 425.27,-30 433.66,-36.47 435.87,-29.83"/>
<text text-anchor="middle" x="598.29" y="-57.8" font-family="Times,serif" font-size="14.00">id</text>
</g>
<!-- iri -->
<g id="node5" class="node">
<title>iri</title>
<ellipse fill="none" stroke="blue" cx="497.29" cy="-18" rx="44.39" ry="18"/>
<text text-anchor="middle" x="497.29" y="-14.3" font-family="Times,serif" font-size="14.00">iri type</text>
</g>
<!-- complex orchestration exposure&#45;&gt;iri -->
<g id="edge4" class="edge">
<title>complex orchestration exposure&#45;&gt;iri</title>
<path fill="none" stroke="blue" d="M834.99,-91.03C792.08,-85.07 741.62,-77.45 696.29,-69 631.32,-56.89 615.09,-53.27 551.29,-36 547.71,-35.03 544.01,-33.98 540.31,-32.89"/>
<polygon fill="blue" stroke="blue" points="541.16,-29.49 530.58,-29.95 539.14,-36.19 541.16,-29.49"/>
<text text-anchor="middle" x="704.29" y="-57.8" font-family="Times,serif" font-size="14.00">iri</text>
</g>
<!-- type -->
<g id="node6" class="node">
<title>type</title>
<ellipse fill="none" stroke="blue" cx="598.29" cy="-18" rx="38.19" ry="18"/>
<text text-anchor="middle" x="598.29" y="-14.3" font-family="Times,serif" font-size="14.00">string</text>
</g>
<!-- complex orchestration exposure&#45;&gt;type -->
<g id="edge5" class="edge">
<title>complex orchestration exposure&#45;&gt;type</title>
<path fill="none" stroke="blue" d="M859.86,-89.12C800.72,-76.89 717.08,-58.04 645.29,-36 642.53,-35.15 639.69,-34.24 636.84,-33.29"/>
<polygon fill="blue" stroke="blue" points="637.82,-29.92 627.22,-29.97 635.53,-36.54 637.82,-29.92"/>
<text text-anchor="middle" x="780.29" y="-57.8" font-family="Times,serif" font-size="14.00">type</text>
</g>
<!-- name -->
<g id="node7" class="node">
<title>name</title>
<ellipse fill="none" stroke="blue" cx="711.29" cy="-18" rx="56.59" ry="18"/>
<text text-anchor="middle" x="711.29" y="-14.3" font-family="Times,serif" font-size="14.00">label type</text>
</g>
<!-- complex orchestration exposure&#45;&gt;name -->
<g id="edge6" class="edge">
<title>complex orchestration exposure&#45;&gt;name</title>
<path fill="none" stroke="blue" d="M892.91,-87.61C853.5,-72.73 795.63,-50.86 755.86,-35.84"/>
<polygon fill="blue" stroke="blue" points="757.01,-32.53 746.41,-32.27 754.53,-39.08 757.01,-32.53"/>
<text text-anchor="middle" x="857.29" y="-57.8" font-family="Times,serif" font-size="14.00">name</text>
</g>
<!-- description -->
<g id="node8" class="node">
<title>description</title>
<ellipse fill="none" stroke="blue" cx="861.29" cy="-18" rx="75.29" ry="18"/>
<text text-anchor="middle" x="861.29" y="-14.3" font-family="Times,serif" font-size="14.00">narrative text</text>
</g>
<!-- complex orchestration exposure&#45;&gt;description -->
<g id="edge7" class="edge">
<title>complex orchestration exposure&#45;&gt;description</title>
<path fill="none" stroke="blue" d="M921.11,-86.8C910.16,-74.39 895.22,-57.46 883.01,-43.62"/>
<polygon fill="blue" stroke="blue" points="885.43,-41.07 876.19,-35.89 880.18,-45.7 885.43,-41.07"/>
<text text-anchor="middle" x="943.79" y="-57.8" font-family="Times,serif" font-size="14.00">description</text>
</g>
<!-- source -->
<g id="node9" class="node">
<title>source</title>
<ellipse fill="none" stroke="blue" cx="1011.29" cy="-18" rx="56.59" ry="18"/>
<text text-anchor="middle" x="1011.29" y="-14.3" font-family="Times,serif" font-size="14.00">label type</text>
</g>
<!-- complex orchestration exposure&#45;&gt;source -->
<g id="edge8" class="edge">
<title>complex orchestration exposure&#45;&gt;source</title>
<path fill="none" stroke="blue" d="M967.15,-87.26C974.73,-82.13 982.37,-75.96 988.29,-69 994.1,-62.17 998.74,-53.63 1002.29,-45.55"/>
<polygon fill="blue" stroke="blue" points="1005.62,-46.65 1006.08,-36.07 999.12,-44.05 1005.62,-46.65"/>
<text text-anchor="middle" x="1022.29" y="-57.8" font-family="Times,serif" font-size="14.00">source</text>
</g>
<!-- provided by -->
<g id="node10" class="node">
<title>provided by</title>
<ellipse fill="none" stroke="blue" cx="1123.29" cy="-18" rx="37.09" ry="18"/>
<text text-anchor="middle" x="1123.29" y="-14.3" font-family="Times,serif" font-size="14.00">agent</text>
</g>
<!-- complex orchestration exposure&#45;&gt;provided by -->
<g id="edge9" class="edge">
<title>complex orchestration exposure&#45;&gt;provided by</title>
<path fill="none" stroke="blue" d="M999.12,-88.42C1016.12,-83.22 1034.25,-76.73 1050.29,-69 1066.63,-61.12 1083.44,-49.87 1096.8,-40.03"/>
<polygon fill="blue" stroke="blue" points="1099.16,-42.63 1105.04,-33.82 1094.95,-37.04 1099.16,-42.63"/>
<text text-anchor="middle" x="1118.79" y="-57.8" font-family="Times,serif" font-size="14.00">provided by</text>
</g>
<!-- has attribute -->
<g id="node11" class="node">
<title>has attribute</title>
<ellipse fill="none" stroke="blue" cx="1230.29" cy="-18" rx="51.99" ry="18"/>
<text text-anchor="middle" x="1230.29" y="-14.3" font-family="Times,serif" font-size="14.00">attribute</text>
</g>
<!-- complex orchestration exposure&#45;&gt;has attribute -->
<g id="edge10" class="edge">
<title>complex orchestration exposure&#45;&gt;has attribute</title>
<path fill="none" stroke="blue" d="M1048.51,-92.15C1095.44,-86.1 1143.98,-78.1 1165.29,-69 1180.4,-62.55 1195.09,-51.76 1206.67,-41.85"/>
<polygon fill="blue" stroke="blue" points="1209.01,-44.45 1214.16,-35.19 1204.36,-39.22 1209.01,-44.45"/>
<text text-anchor="middle" x="1238.29" y="-57.8" font-family="Times,serif" font-size="14.00">has attribute</text>
</g>
<!-- category -->
<g id="node12" class="node">
<title>category</title>
<ellipse fill="none" stroke="black" cx="1351.29" cy="-18" rx="51.19" ry="18"/>
<text text-anchor="middle" x="1351.29" y="-14.3" font-family="Times,serif" font-size="14.00">category</text>
</g>
<!-- complex orchestration exposure&#45;&gt;category -->
<g id="edge11" class="edge">
<title>complex orchestration exposure&#45;&gt;category</title>
<path fill="none" stroke="blue" d="M1050.6,-92.37C1068.57,-90.56 1086.93,-88.72 1104.29,-87 1186.5,-78.84 1212.81,-100.24 1289.29,-69 1303.92,-63.02 1317.84,-52.42 1328.77,-42.51"/>
<polygon fill="blue" stroke="blue" points="1331.32,-44.92 1336.17,-35.5 1326.5,-39.84 1331.32,-44.92"/>
<text text-anchor="middle" x="1345.79" y="-57.8" font-family="Times,serif" font-size="14.00">category</text>
</g>
<!-- in taxon -->
<g id="node14" class="node">
<title>in taxon</title>
<ellipse fill="none" stroke="blue" cx="1493.29" cy="-18" rx="72.59" ry="18"/>
<text text-anchor="middle" x="1493.29" y="-14.3" font-family="Times,serif" font-size="14.00">system taxon</text>
</g>
<!-- complex orchestration exposure&#45;&gt;in taxon -->
<g id="edge12" class="edge">
<title>complex orchestration exposure&#45;&gt;in taxon</title>
<path fill="none" stroke="blue" d="M1048.29,-92.1C1066.98,-90.28 1086.18,-88.5 1104.29,-87 1227.24,-76.79 1261.53,-98.61 1381.29,-69 1407.4,-62.54 1435.01,-50.29 1456.28,-39.52"/>
<polygon fill="blue" stroke="blue" points="1458.01,-42.57 1465.29,-34.87 1454.8,-36.35 1458.01,-42.57"/>
<text text-anchor="middle" x="1452.29" y="-57.8" font-family="Times,serif" font-size="14.00">in taxon</text>
</g>
<!-- timepoint -->
<g id="node15" class="node">
<title>timepoint</title>
<ellipse fill="none" stroke="blue" cx="1639.29" cy="-18" rx="55.49" ry="18"/>
<text text-anchor="middle" x="1639.29" y="-14.3" font-family="Times,serif" font-size="14.00">time type</text>
</g>
<!-- complex orchestration exposure&#45;&gt;timepoint -->
<g id="edge13" class="edge">
<title>complex orchestration exposure&#45;&gt;timepoint</title>
<path fill="none" stroke="blue" d="M1046.92,-91.95C1066.03,-90.12 1085.73,-88.38 1104.29,-87 1273.35,-74.46 1318.52,-99.45 1485.29,-69 1523.97,-61.94 1566.35,-47.67 1596.84,-36.17"/>
<polygon fill="blue" stroke="blue" points="1598.22,-39.4 1606.31,-32.55 1595.72,-32.86 1598.22,-39.4"/>
<text text-anchor="middle" x="1577.29" y="-57.8" font-family="Times,serif" font-size="14.00">timepoint</text>
</g>
<!-- has control actor -->
<g id="node16" class="node">
<title>has control actor</title>
<ellipse fill="none" stroke="blue" cx="1782.29" cy="-18" rx="70.39" ry="18"/>
<text text-anchor="middle" x="1782.29" y="-14.3" font-family="Times,serif" font-size="14.00">control actor</text>
</g>
<!-- complex orchestration exposure&#45;&gt;has control actor -->
<g id="edge14" class="edge">
<title>complex orchestration exposure&#45;&gt;has control actor</title>
<path fill="none" stroke="blue" d="M1046,-91.85C1065.4,-90 1085.42,-88.28 1104.29,-87 1331.46,-71.53 1391.64,-106.14 1616.29,-69 1657.19,-62.24 1702.14,-48.28 1734.94,-36.82"/>
<polygon fill="blue" stroke="blue" points="1736.45,-40 1744.71,-33.36 1734.11,-33.4 1736.45,-40"/>
<text text-anchor="middle" x="1737.79" y="-57.8" font-family="Times,serif" font-size="14.00">has control actor</text>
</g>
<!-- named thing_category -->
<g id="node13" class="node">
<title>named thing_category</title>
<ellipse fill="none" stroke="blue" cx="1183.29" cy="-105" rx="69.59" ry="18"/>
<text text-anchor="middle" x="1183.29" y="-101.3" font-family="Times,serif" font-size="14.00">named thing</text>
</g>
</g>
</svg>
