<?xml version="1.0" encoding="UTF-8" standalone="no"?>
<!DOCTYPE svg PUBLIC "-//W3C//DTD SVG 1.1//EN"
 "http://www.w3.org/Graphics/SVG/1.1/DTD/svg11.dtd">
<!-- Generated by graphviz version 2.43.0 (0)
 -->
<!-- Title: %3 Pages: 1 -->
<svg width="1636pt" height="131pt"
 viewBox="0.00 0.00 1636.39 131.00" xmlns="http://www.w3.org/2000/svg" xmlns:xlink="http://www.w3.org/1999/xlink">
<g id="graph0" class="graph" transform="scale(1 1) rotate(0) translate(4 127)">
<title>%3</title>
<polygon fill="white" stroke="transparent" points="-4,4 -4,-127 1632.39,-127 1632.39,4 -4,4"/>
<!-- consumed resource -->
<g id="node1" class="node">
<title>consumed resource</title>
<ellipse fill="none" stroke="black" cx="765.19" cy="-105" rx="100.98" ry="18"/>
<text text-anchor="middle" x="765.19" y="-101.3" font-family="Times,serif" font-size="14.00">consumed resource</text>
</g>
<!-- control actor -->
<g id="node2" class="node">
<title>control actor</title>
<ellipse fill="none" stroke="black" cx="70.19" cy="-18" rx="70.39" ry="18"/>
<text text-anchor="middle" x="70.19" y="-14.3" font-family="Times,serif" font-size="14.00">control actor</text>
</g>
<!-- consumed resource&#45;&gt;control actor -->
<g id="edge1" class="edge">
<title>consumed resource&#45;&gt;control actor</title>
<path fill="none" stroke="black" d="M666.29,-101.18C569.28,-97.38 417.4,-88.65 287.19,-69 231.69,-60.62 169.34,-45.67 125.77,-34.29"/>
<polygon fill="black" stroke="black" points="126.5,-30.86 115.94,-31.7 124.72,-37.63 126.5,-30.86"/>
<text text-anchor="middle" x="301.19" y="-57.8" font-family="Times,serif" font-size="14.00">is_a</text>
</g>
<!-- cluster -->
<g id="node3" class="node">
<title>cluster</title>
<ellipse fill="none" stroke="black" cx="201.19" cy="-18" rx="42.79" ry="18"/>
<text text-anchor="middle" x="201.19" y="-14.3" font-family="Times,serif" font-size="14.00">cluster</text>
</g>
<!-- consumed resource&#45;&gt;cluster -->
<g id="edge2" class="edge">
<title>consumed resource&#45;&gt;cluster</title>
<path fill="none" stroke="black" d="M670.32,-98.91C594.21,-93.93 484.85,-84.73 390.19,-69 328.41,-58.73 313.45,-53.08 253.19,-36 249.9,-35.07 246.49,-34.06 243.08,-33.01"/>
<polygon fill="black" stroke="black" points="244.12,-29.67 233.53,-30.01 242.02,-36.35 244.12,-29.67"/>
<text text-anchor="middle" x="406.69" y="-57.8" font-family="Times,serif" font-size="14.00">uses</text>
</g>
<!-- id -->
<g id="node4" class="node">
<title>id</title>
<ellipse fill="none" stroke="blue" cx="300.19" cy="-18" rx="38.19" ry="18"/>
<text text-anchor="middle" x="300.19" y="-14.3" font-family="Times,serif" font-size="14.00">string</text>
</g>
<!-- consumed resource&#45;&gt;id -->
<g id="edge3" class="edge">
<title>consumed resource&#45;&gt;id</title>
<path fill="none" stroke="blue" d="M678.49,-95.7C593.26,-86.18 460.06,-67.65 348.19,-36 345.09,-35.12 341.89,-34.15 338.7,-33.12"/>
<polygon fill="blue" stroke="blue" points="339.78,-29.8 329.19,-29.95 337.57,-36.44 339.78,-29.8"/>
<text text-anchor="middle" x="491.19" y="-57.8" font-family="Times,serif" font-size="14.00">id</text>
</g>
<!-- iri -->
<g id="node5" class="node">
<title>iri</title>
<ellipse fill="none" stroke="blue" cx="401.19" cy="-18" rx="44.39" ry="18"/>
<text text-anchor="middle" x="401.19" y="-14.3" font-family="Times,serif" font-size="14.00">iri type</text>
</g>
<!-- consumed resource&#45;&gt;iri -->
<g id="edge4" class="edge">
<title>consumed resource&#45;&gt;iri</title>
<path fill="none" stroke="blue" d="M695.5,-91.9C661,-85.62 618.78,-77.49 581.19,-69 524.73,-56.25 510.82,-52.03 455.19,-36 451.68,-34.99 448.05,-33.91 444.41,-32.81"/>
<polygon fill="blue" stroke="blue" points="445.41,-29.45 434.82,-29.86 443.35,-36.15 445.41,-29.45"/>
<text text-anchor="middle" x="589.19" y="-57.8" font-family="Times,serif" font-size="14.00">iri</text>
</g>
<!-- type -->
<g id="node6" class="node">
<title>type</title>
<ellipse fill="none" stroke="blue" cx="502.19" cy="-18" rx="38.19" ry="18"/>
<text text-anchor="middle" x="502.19" y="-14.3" font-family="Times,serif" font-size="14.00">string</text>
</g>
<!-- consumed resource&#45;&gt;type -->
<g id="edge5" class="edge">
<title>consumed resource&#45;&gt;type</title>
<path fill="none" stroke="blue" d="M714.09,-89.48C693.01,-83.36 668.36,-76.03 646.19,-69 602.79,-55.24 592.16,-51.08 549.19,-36 546.51,-35.06 543.74,-34.08 540.95,-33.08"/>
<polygon fill="blue" stroke="blue" points="542.09,-29.78 531.5,-29.7 539.73,-36.37 542.09,-29.78"/>
<text text-anchor="middle" x="662.19" y="-57.8" font-family="Times,serif" font-size="14.00">type</text>
</g>
<!-- name -->
<g id="node7" class="node">
<title>name</title>
<ellipse fill="none" stroke="blue" cx="615.19" cy="-18" rx="56.59" ry="18"/>
<text text-anchor="middle" x="615.19" y="-14.3" font-family="Times,serif" font-size="14.00">label type</text>
</g>
<!-- consumed resource&#45;&gt;name -->
<g id="edge6" class="edge">
<title>consumed resource&#45;&gt;name</title>
<path fill="none" stroke="blue" d="M736.27,-87.61C711.9,-73.8 676.94,-53.99 650.84,-39.2"/>
<polygon fill="blue" stroke="blue" points="652.44,-36.08 642.01,-34.2 648.99,-42.17 652.44,-36.08"/>
<text text-anchor="middle" x="719.19" y="-57.8" font-family="Times,serif" font-size="14.00">name</text>
</g>
<!-- description -->
<g id="node8" class="node">
<title>description</title>
<ellipse fill="none" stroke="blue" cx="765.19" cy="-18" rx="75.29" ry="18"/>
<text text-anchor="middle" x="765.19" y="-14.3" font-family="Times,serif" font-size="14.00">narrative text</text>
</g>
<!-- consumed resource&#45;&gt;description -->
<g id="edge7" class="edge">
<title>consumed resource&#45;&gt;description</title>
<path fill="none" stroke="blue" d="M765.19,-86.8C765.19,-75.16 765.19,-59.55 765.19,-46.24"/>
<polygon fill="blue" stroke="blue" points="768.69,-46.18 765.19,-36.18 761.69,-46.18 768.69,-46.18"/>
<text text-anchor="middle" x="805.69" y="-57.8" font-family="Times,serif" font-size="14.00">description</text>
</g>
<!-- source -->
<g id="node9" class="node">
<title>source</title>
<ellipse fill="none" stroke="blue" cx="915.19" cy="-18" rx="56.59" ry="18"/>
<text text-anchor="middle" x="915.19" y="-14.3" font-family="Times,serif" font-size="14.00">label type</text>
</g>
<!-- consumed resource&#45;&gt;source -->
<g id="edge8" class="edge">
<title>consumed resource&#45;&gt;source</title>
<path fill="none" stroke="blue" d="M808.62,-88.7C822.29,-83.2 837.2,-76.49 850.19,-69 863.79,-61.16 877.73,-50.8 889.2,-41.54"/>
<polygon fill="blue" stroke="blue" points="891.58,-44.11 897.07,-35.05 887.13,-38.71 891.58,-44.11"/>
<text text-anchor="middle" x="897.19" y="-57.8" font-family="Times,serif" font-size="14.00">source</text>
</g>
<!-- provided by -->
<g id="node10" class="node">
<title>provided by</title>
<ellipse fill="none" stroke="blue" cx="1027.19" cy="-18" rx="37.09" ry="18"/>
<text text-anchor="middle" x="1027.19" y="-14.3" font-family="Times,serif" font-size="14.00">agent</text>
</g>
<!-- consumed resource&#45;&gt;provided by -->
<g id="edge9" class="edge">
<title>consumed resource&#45;&gt;provided by</title>
<path fill="none" stroke="blue" d="M836.7,-92.18C864.72,-86.56 896.87,-78.88 925.19,-69 949.47,-60.53 975.47,-47.73 995.14,-37.19"/>
<polygon fill="blue" stroke="blue" points="996.87,-40.24 1003.98,-32.39 993.53,-34.09 996.87,-40.24"/>
<text text-anchor="middle" x="1002.69" y="-57.8" font-family="Times,serif" font-size="14.00">provided by</text>
</g>
<!-- has attribute -->
<g id="node11" class="node">
<title>has attribute</title>
<ellipse fill="none" stroke="blue" cx="1134.19" cy="-18" rx="51.99" ry="18"/>
<text text-anchor="middle" x="1134.19" y="-14.3" font-family="Times,serif" font-size="14.00">attribute</text>
</g>
<!-- consumed resource&#45;&gt;has attribute -->
<g id="edge10" class="edge">
<title>consumed resource&#45;&gt;has attribute</title>
<path fill="none" stroke="blue" d="M836.65,-92.31C849.15,-90.42 862.04,-88.57 874.19,-87 951.74,-76.97 974.9,-93.38 1049.19,-69 1068.91,-62.53 1089.01,-50.98 1104.71,-40.61"/>
<polygon fill="blue" stroke="blue" points="1107.12,-43.2 1113.41,-34.68 1103.18,-37.42 1107.12,-43.2"/>
<text text-anchor="middle" x="1129.19" y="-57.8" font-family="Times,serif" font-size="14.00">has attribute</text>
</g>
<!-- category -->
<g id="node12" class="node">
<title>category</title>
<ellipse fill="none" stroke="black" cx="1255.19" cy="-18" rx="51.19" ry="18"/>
<text text-anchor="middle" x="1255.19" y="-14.3" font-family="Times,serif" font-size="14.00">category</text>
</g>
<!-- consumed resource&#45;&gt;category -->
<g id="edge11" class="edge">
<title>consumed resource&#45;&gt;category</title>
<path fill="none" stroke="blue" d="M835.42,-92.03C848.29,-90.13 861.63,-88.35 874.19,-87 941.92,-79.74 1115.61,-90.65 1180.19,-69 1198.01,-63.03 1215.61,-51.66 1229.29,-41.27"/>
<polygon fill="blue" stroke="blue" points="1231.57,-43.92 1237.26,-34.98 1227.24,-38.43 1231.57,-43.92"/>
<text text-anchor="middle" x="1240.69" y="-57.8" font-family="Times,serif" font-size="14.00">category</text>
</g>
<!-- in taxon -->
<g id="node14" class="node">
<title>in taxon</title>
<ellipse fill="none" stroke="blue" cx="1397.19" cy="-18" rx="72.59" ry="18"/>
<text text-anchor="middle" x="1397.19" y="-14.3" font-family="Times,serif" font-size="14.00">system taxon</text>
</g>
<!-- consumed resource&#45;&gt;in taxon -->
<g id="edge12" class="edge">
<title>consumed resource&#45;&gt;in taxon</title>
<path fill="none" stroke="blue" d="M834.82,-91.97C847.87,-90.05 861.43,-88.28 874.19,-87 963.17,-78.1 1188.89,-88.37 1276.19,-69 1304.86,-62.64 1335.41,-49.96 1358.65,-38.97"/>
<polygon fill="blue" stroke="blue" points="1360.33,-42.04 1367.81,-34.54 1357.28,-35.74 1360.33,-42.04"/>
<text text-anchor="middle" x="1350.19" y="-57.8" font-family="Times,serif" font-size="14.00">in taxon</text>
</g>
<!-- has control actor -->
<g id="node15" class="node">
<title>has control actor</title>
<ellipse fill="none" stroke="blue" cx="1558.19" cy="-18" rx="70.39" ry="18"/>
<text text-anchor="middle" x="1558.19" y="-14.3" font-family="Times,serif" font-size="14.00">control actor</text>
</g>
<!-- consumed resource&#45;&gt;has control actor -->
<g id="edge13" class="edge">
<title>consumed resource&#45;&gt;has control actor</title>
<path fill="none" stroke="blue" d="M834.52,-91.92C847.66,-89.99 861.32,-88.23 874.19,-87 1099.54,-65.52 1159.61,-104.35 1383.19,-69 1426.65,-62.13 1474.61,-47.94 1509.32,-36.42"/>
<polygon fill="blue" stroke="blue" points="1510.83,-39.61 1519.19,-33.1 1508.6,-32.97 1510.83,-39.61"/>
<text text-anchor="middle" x="1507.69" y="-57.8" font-family="Times,serif" font-size="14.00">has control actor</text>
</g>
<!-- named thing_category -->
<g id="node13" class="node">
<title>named thing_category</title>
<ellipse fill="none" stroke="blue" cx="953.19" cy="-105" rx="69.59" ry="18"/>
<text text-anchor="middle" x="953.19" y="-101.3" font-family="Times,serif" font-size="14.00">named thing</text>
</g>
</g>
</svg>
