<?xml version="1.0" encoding="UTF-8" standalone="no"?>
<!DOCTYPE svg PUBLIC "-//W3C//DTD SVG 1.1//EN"
 "http://www.w3.org/Graphics/SVG/1.1/DTD/svg11.dtd">
<!-- Generated by graphviz version 2.43.0 (0)
 -->
<!-- Title: %3 Pages: 1 -->
<svg width="1421pt" height="131pt"
 viewBox="0.00 0.00 1421.39 131.00" xmlns="http://www.w3.org/2000/svg" xmlns:xlink="http://www.w3.org/1999/xlink">
<g id="graph0" class="graph" transform="scale(1 1) rotate(0) translate(4 127)">
<title>%3</title>
<polygon fill="white" stroke="transparent" points="-4,4 -4,-127 1417.39,-127 1417.39,4 -4,4"/>
<!-- control actor -->
<g id="node1" class="node">
<title>control actor</title>
<ellipse fill="none" stroke="black" cx="708.59" cy="-105" rx="70.39" ry="18"/>
<text text-anchor="middle" x="708.59" y="-101.3" font-family="Times,serif" font-size="14.00">control actor</text>
</g>
<!-- operational entity -->
<g id="node2" class="node">
<title>operational entity</title>
<ellipse fill="none" stroke="black" cx="93.59" cy="-18" rx="93.68" ry="18"/>
<text text-anchor="middle" x="93.59" y="-14.3" font-family="Times,serif" font-size="14.00">operational entity</text>
</g>
<!-- control actor&#45;&gt;operational entity -->
<g id="edge1" class="edge">
<title>control actor&#45;&gt;operational entity</title>
<path fill="none" stroke="black" d="M641.15,-99.8C566.79,-94.66 443.73,-84.66 338.59,-69 277.73,-59.94 209.16,-45.58 160.08,-34.58"/>
<polygon fill="black" stroke="black" points="160.74,-31.14 150.22,-32.35 159.2,-37.97 160.74,-31.14"/>
<text text-anchor="middle" x="352.59" y="-57.8" font-family="Times,serif" font-size="14.00">is_a</text>
</g>
<!-- id -->
<g id="node3" class="node">
<title>id</title>
<ellipse fill="none" stroke="blue" cx="243.59" cy="-18" rx="38.19" ry="18"/>
<text text-anchor="middle" x="243.59" y="-14.3" font-family="Times,serif" font-size="14.00">string</text>
</g>
<!-- control actor&#45;&gt;id -->
<g id="edge2" class="edge">
<title>control actor&#45;&gt;id</title>
<path fill="none" stroke="blue" d="M643.66,-98.05C560.78,-89.4 413.52,-70.5 291.59,-36 288.49,-35.12 285.29,-34.15 282.09,-33.12"/>
<polygon fill="blue" stroke="blue" points="283.18,-29.8 272.59,-29.95 280.96,-36.44 283.18,-29.8"/>
<text text-anchor="middle" x="434.59" y="-57.8" font-family="Times,serif" font-size="14.00">id</text>
</g>
<!-- iri -->
<g id="node4" class="node">
<title>iri</title>
<ellipse fill="none" stroke="blue" cx="344.59" cy="-18" rx="44.39" ry="18"/>
<text text-anchor="middle" x="344.59" y="-14.3" font-family="Times,serif" font-size="14.00">iri type</text>
</g>
<!-- control actor&#45;&gt;iri -->
<g id="edge3" class="edge">
<title>control actor&#45;&gt;iri</title>
<path fill="none" stroke="blue" d="M652.01,-94.27C615.52,-87.74 567.09,-78.6 524.59,-69 468.12,-56.25 454.22,-52.03 398.59,-36 395.08,-34.99 391.45,-33.91 387.81,-32.81"/>
<polygon fill="blue" stroke="blue" points="388.8,-29.45 378.22,-29.86 386.75,-36.15 388.8,-29.45"/>
<text text-anchor="middle" x="532.59" y="-57.8" font-family="Times,serif" font-size="14.00">iri</text>
</g>
<!-- type -->
<g id="node5" class="node">
<title>type</title>
<ellipse fill="none" stroke="blue" cx="445.59" cy="-18" rx="38.19" ry="18"/>
<text text-anchor="middle" x="445.59" y="-14.3" font-family="Times,serif" font-size="14.00">string</text>
</g>
<!-- control actor&#45;&gt;type -->
<g id="edge4" class="edge">
<title>control actor&#45;&gt;type</title>
<path fill="none" stroke="blue" d="M663.25,-91.15C640.99,-84.72 613.81,-76.68 589.59,-69 546.18,-55.24 535.56,-51.08 492.59,-36 489.91,-35.06 487.14,-34.08 484.35,-33.08"/>
<polygon fill="blue" stroke="blue" points="485.49,-29.78 474.89,-29.7 483.13,-36.37 485.49,-29.78"/>
<text text-anchor="middle" x="605.59" y="-57.8" font-family="Times,serif" font-size="14.00">type</text>
</g>
<!-- name -->
<g id="node6" class="node">
<title>name</title>
<ellipse fill="none" stroke="blue" cx="558.59" cy="-18" rx="56.59" ry="18"/>
<text text-anchor="middle" x="558.59" y="-14.3" font-family="Times,serif" font-size="14.00">label type</text>
</g>
<!-- control actor&#45;&gt;name -->
<g id="edge5" class="edge">
<title>control actor&#45;&gt;name</title>
<path fill="none" stroke="blue" d="M681.08,-88.41C656.64,-74.56 620.78,-54.24 594.17,-39.16"/>
<polygon fill="blue" stroke="blue" points="595.6,-35.95 585.17,-34.06 592.15,-42.04 595.6,-35.95"/>
<text text-anchor="middle" x="662.59" y="-57.8" font-family="Times,serif" font-size="14.00">name</text>
</g>
<!-- description -->
<g id="node7" class="node">
<title>description</title>
<ellipse fill="none" stroke="blue" cx="708.59" cy="-18" rx="75.29" ry="18"/>
<text text-anchor="middle" x="708.59" y="-14.3" font-family="Times,serif" font-size="14.00">narrative text</text>
</g>
<!-- control actor&#45;&gt;description -->
<g id="edge6" class="edge">
<title>control actor&#45;&gt;description</title>
<path fill="none" stroke="blue" d="M708.59,-86.8C708.59,-75.16 708.59,-59.55 708.59,-46.24"/>
<polygon fill="blue" stroke="blue" points="712.09,-46.18 708.59,-36.18 705.09,-46.18 712.09,-46.18"/>
<text text-anchor="middle" x="749.09" y="-57.8" font-family="Times,serif" font-size="14.00">description</text>
</g>
<!-- source -->
<g id="node8" class="node">
<title>source</title>
<ellipse fill="none" stroke="blue" cx="858.59" cy="-18" rx="56.59" ry="18"/>
<text text-anchor="middle" x="858.59" y="-14.3" font-family="Times,serif" font-size="14.00">label type</text>
</g>
<!-- control actor&#45;&gt;source -->
<g id="edge7" class="edge">
<title>control actor&#45;&gt;source</title>
<path fill="none" stroke="blue" d="M748.55,-90.07C763.13,-84.34 779.49,-77.13 793.59,-69 807.19,-61.16 821.13,-50.8 832.59,-41.54"/>
<polygon fill="blue" stroke="blue" points="834.98,-44.11 840.47,-35.05 830.52,-38.71 834.98,-44.11"/>
<text text-anchor="middle" x="840.59" y="-57.8" font-family="Times,serif" font-size="14.00">source</text>
</g>
<!-- provided by -->
<g id="node9" class="node">
<title>provided by</title>
<ellipse fill="none" stroke="blue" cx="970.59" cy="-18" rx="37.09" ry="18"/>
<text text-anchor="middle" x="970.59" y="-14.3" font-family="Times,serif" font-size="14.00">agent</text>
</g>
<!-- control actor&#45;&gt;provided by -->
<g id="edge8" class="edge">
<title>control actor&#45;&gt;provided by</title>
<path fill="none" stroke="blue" d="M760.69,-92.76C806.38,-82.87 865.96,-69.92 868.59,-69 892.87,-60.53 918.87,-47.73 938.54,-37.19"/>
<polygon fill="blue" stroke="blue" points="940.27,-40.24 947.38,-32.39 936.92,-34.09 940.27,-40.24"/>
<text text-anchor="middle" x="946.09" y="-57.8" font-family="Times,serif" font-size="14.00">provided by</text>
</g>
<!-- has attribute -->
<g id="node10" class="node">
<title>has attribute</title>
<ellipse fill="none" stroke="blue" cx="1077.59" cy="-18" rx="51.99" ry="18"/>
<text text-anchor="middle" x="1077.59" y="-14.3" font-family="Times,serif" font-size="14.00">attribute</text>
</g>
<!-- control actor&#45;&gt;has attribute -->
<g id="edge9" class="edge">
<title>control actor&#45;&gt;has attribute</title>
<path fill="none" stroke="blue" d="M758.57,-92.26C768.16,-90.29 778.16,-88.42 787.59,-87 878.03,-73.35 905.48,-96.87 992.59,-69 1012.54,-62.62 1032.84,-50.92 1048.59,-40.44"/>
<polygon fill="blue" stroke="blue" points="1050.57,-43.32 1056.84,-34.78 1046.62,-37.55 1050.57,-43.32"/>
<text text-anchor="middle" x="1072.59" y="-57.8" font-family="Times,serif" font-size="14.00">has attribute</text>
</g>
<!-- category -->
<g id="node11" class="node">
<title>category</title>
<ellipse fill="none" stroke="black" cx="1198.59" cy="-18" rx="51.19" ry="18"/>
<text text-anchor="middle" x="1198.59" y="-14.3" font-family="Times,serif" font-size="14.00">category</text>
</g>
<!-- control actor&#45;&gt;category -->
<g id="edge10" class="edge">
<title>control actor&#45;&gt;category</title>
<path fill="none" stroke="blue" d="M758.11,-92.09C767.83,-90.11 778,-88.28 787.59,-87 861.71,-77.1 1052.63,-92.58 1123.59,-69 1141.42,-63.08 1159.03,-51.71 1172.7,-41.31"/>
<polygon fill="blue" stroke="blue" points="1174.99,-43.96 1180.66,-35.01 1170.65,-38.47 1174.99,-43.96"/>
<text text-anchor="middle" x="1184.09" y="-57.8" font-family="Times,serif" font-size="14.00">category</text>
</g>
<!-- in taxon -->
<g id="node13" class="node">
<title>in taxon</title>
<ellipse fill="none" stroke="blue" cx="1340.59" cy="-18" rx="72.59" ry="18"/>
<text text-anchor="middle" x="1340.59" y="-14.3" font-family="Times,serif" font-size="14.00">system taxon</text>
</g>
<!-- control actor&#45;&gt;in taxon -->
<g id="edge11" class="edge">
<title>control actor&#45;&gt;in taxon</title>
<path fill="none" stroke="blue" d="M757.67,-92.08C767.53,-90.08 777.85,-88.24 787.59,-87 978.22,-62.7 1031.92,-110.33 1219.59,-69 1248.27,-62.68 1278.82,-50.01 1302.05,-39"/>
<polygon fill="blue" stroke="blue" points="1303.73,-42.07 1311.21,-34.57 1300.68,-35.77 1303.73,-42.07"/>
<text text-anchor="middle" x="1292.59" y="-57.8" font-family="Times,serif" font-size="14.00">in taxon</text>
</g>
<!-- named thing_category -->
<g id="node12" class="node">
<title>named thing_category</title>
<ellipse fill="none" stroke="blue" cx="866.59" cy="-105" rx="69.59" ry="18"/>
<text text-anchor="middle" x="866.59" y="-101.3" font-family="Times,serif" font-size="14.00">named thing</text>
</g>
</g>
</svg>
