<?xml version="1.0" encoding="UTF-8" standalone="no"?>
<!DOCTYPE svg PUBLIC "-//W3C//DTD SVG 1.1//EN"
 "http://www.w3.org/Graphics/SVG/1.1/DTD/svg11.dtd">
<!-- Generated by graphviz version 2.43.0 (0)
 -->
<!-- Title: %3 Pages: 1 -->
<svg width="1487pt" height="131pt"
 viewBox="0.00 0.00 1486.99 131.00" xmlns="http://www.w3.org/2000/svg" xmlns:xlink="http://www.w3.org/1999/xlink">
<g id="graph0" class="graph" transform="scale(1 1) rotate(0) translate(4 127)">
<title>%3</title>
<polygon fill="white" stroke="transparent" points="-4,4 -4,-127 1482.99,-127 1482.99,4 -4,4"/>
<!-- controller -->
<g id="node1" class="node">
<title>controller</title>
<ellipse fill="none" stroke="black" cx="737.19" cy="-105" rx="55.79" ry="18"/>
<text text-anchor="middle" x="737.19" y="-101.3" font-family="Times,serif" font-size="14.00">controller</text>
</g>
<!-- control actor -->
<g id="node2" class="node">
<title>control actor</title>
<ellipse fill="none" stroke="black" cx="70.19" cy="-18" rx="70.39" ry="18"/>
<text text-anchor="middle" x="70.19" y="-14.3" font-family="Times,serif" font-size="14.00">control actor</text>
</g>
<!-- controller&#45;&gt;control actor -->
<g id="edge1" class="edge">
<title>controller&#45;&gt;control actor</title>
<path fill="none" stroke="black" d="M681.75,-102.19C597.28,-98.85 431.46,-90.05 292.19,-69 235.36,-60.41 171.42,-45.43 126.81,-34.1"/>
<polygon fill="black" stroke="black" points="127.58,-30.69 117.03,-31.6 125.85,-37.47 127.58,-30.69"/>
<text text-anchor="middle" x="306.19" y="-57.8" font-family="Times,serif" font-size="14.00">is_a</text>
</g>
<!-- id -->
<g id="node3" class="node">
<title>id</title>
<ellipse fill="none" stroke="blue" cx="197.19" cy="-18" rx="38.19" ry="18"/>
<text text-anchor="middle" x="197.19" y="-14.3" font-family="Times,serif" font-size="14.00">string</text>
</g>
<!-- controller&#45;&gt;id -->
<g id="edge2" class="edge">
<title>controller&#45;&gt;id</title>
<path fill="none" stroke="blue" d="M682.36,-101.19C590.45,-95.44 400.16,-79 245.19,-36 242.08,-35.14 238.89,-34.17 235.69,-33.16"/>
<polygon fill="blue" stroke="blue" points="236.77,-29.83 226.18,-30 234.56,-36.47 236.77,-29.83"/>
<text text-anchor="middle" x="399.19" y="-57.8" font-family="Times,serif" font-size="14.00">id</text>
</g>
<!-- iri -->
<g id="node4" class="node">
<title>iri</title>
<ellipse fill="none" stroke="blue" cx="298.19" cy="-18" rx="44.39" ry="18"/>
<text text-anchor="middle" x="298.19" y="-14.3" font-family="Times,serif" font-size="14.00">iri type</text>
</g>
<!-- controller&#45;&gt;iri -->
<g id="edge3" class="edge">
<title>controller&#45;&gt;iri</title>
<path fill="none" stroke="blue" d="M685.97,-97.72C637.25,-91.47 561.98,-81.08 497.19,-69 432.22,-56.89 415.99,-53.27 352.19,-36 348.62,-35.03 344.92,-33.98 341.22,-32.89"/>
<polygon fill="blue" stroke="blue" points="342.07,-29.49 331.48,-29.95 340.04,-36.19 342.07,-29.49"/>
<text text-anchor="middle" x="505.19" y="-57.8" font-family="Times,serif" font-size="14.00">iri</text>
</g>
<!-- type -->
<g id="node5" class="node">
<title>type</title>
<ellipse fill="none" stroke="blue" cx="399.19" cy="-18" rx="38.19" ry="18"/>
<text text-anchor="middle" x="399.19" y="-14.3" font-family="Times,serif" font-size="14.00">string</text>
</g>
<!-- controller&#45;&gt;type -->
<g id="edge4" class="edge">
<title>controller&#45;&gt;type</title>
<path fill="none" stroke="blue" d="M690.3,-95.1C632.35,-83.63 531.01,-62.03 446.19,-36 443.43,-35.15 440.6,-34.24 437.75,-33.29"/>
<polygon fill="blue" stroke="blue" points="438.72,-29.92 428.13,-29.97 436.44,-36.54 438.72,-29.92"/>
<text text-anchor="middle" x="581.19" y="-57.8" font-family="Times,serif" font-size="14.00">type</text>
</g>
<!-- name -->
<g id="node6" class="node">
<title>name</title>
<ellipse fill="none" stroke="blue" cx="512.19" cy="-18" rx="56.59" ry="18"/>
<text text-anchor="middle" x="512.19" y="-14.3" font-family="Times,serif" font-size="14.00">label type</text>
</g>
<!-- controller&#45;&gt;name -->
<g id="edge5" class="edge">
<title>controller&#45;&gt;name</title>
<path fill="none" stroke="blue" d="M702.04,-90.72C662.82,-75.9 599.31,-51.91 556.67,-35.8"/>
<polygon fill="blue" stroke="blue" points="557.69,-32.45 547.1,-32.19 555.22,-39 557.69,-32.45"/>
<text text-anchor="middle" x="658.19" y="-57.8" font-family="Times,serif" font-size="14.00">name</text>
</g>
<!-- description -->
<g id="node7" class="node">
<title>description</title>
<ellipse fill="none" stroke="blue" cx="662.19" cy="-18" rx="75.29" ry="18"/>
<text text-anchor="middle" x="662.19" y="-14.3" font-family="Times,serif" font-size="14.00">narrative text</text>
</g>
<!-- controller&#45;&gt;description -->
<g id="edge6" class="edge">
<title>controller&#45;&gt;description</title>
<path fill="none" stroke="blue" d="M722.73,-87.61C711.77,-75.19 696.53,-57.91 684.08,-43.8"/>
<polygon fill="blue" stroke="blue" points="686.36,-41.1 677.12,-35.92 681.12,-45.73 686.36,-41.1"/>
<text text-anchor="middle" x="744.69" y="-57.8" font-family="Times,serif" font-size="14.00">description</text>
</g>
<!-- source -->
<g id="node8" class="node">
<title>source</title>
<ellipse fill="none" stroke="blue" cx="812.19" cy="-18" rx="56.59" ry="18"/>
<text text-anchor="middle" x="812.19" y="-14.3" font-family="Times,serif" font-size="14.00">label type</text>
</g>
<!-- controller&#45;&gt;source -->
<g id="edge7" class="edge">
<title>controller&#45;&gt;source</title>
<path fill="none" stroke="blue" d="M765.08,-89.23C773.61,-83.73 782.5,-76.88 789.19,-69 795,-62.17 799.64,-53.63 803.19,-45.55"/>
<polygon fill="blue" stroke="blue" points="806.52,-46.65 806.98,-36.07 800.02,-44.05 806.52,-46.65"/>
<text text-anchor="middle" x="823.19" y="-57.8" font-family="Times,serif" font-size="14.00">source</text>
</g>
<!-- provided by -->
<g id="node9" class="node">
<title>provided by</title>
<ellipse fill="none" stroke="blue" cx="924.19" cy="-18" rx="37.09" ry="18"/>
<text text-anchor="middle" x="924.19" y="-14.3" font-family="Times,serif" font-size="14.00">agent</text>
</g>
<!-- controller&#45;&gt;provided by -->
<g id="edge8" class="edge">
<title>controller&#45;&gt;provided by</title>
<path fill="none" stroke="blue" d="M778.45,-92.75C805.5,-85.1 838.19,-75.27 851.19,-69 867.54,-61.12 884.34,-49.87 897.7,-40.03"/>
<polygon fill="blue" stroke="blue" points="900.06,-42.63 905.94,-33.82 895.85,-37.04 900.06,-42.63"/>
<text text-anchor="middle" x="919.69" y="-57.8" font-family="Times,serif" font-size="14.00">provided by</text>
</g>
<!-- has attribute -->
<g id="node10" class="node">
<title>has attribute</title>
<ellipse fill="none" stroke="blue" cx="1031.19" cy="-18" rx="51.99" ry="18"/>
<text text-anchor="middle" x="1031.19" y="-14.3" font-family="Times,serif" font-size="14.00">attribute</text>
</g>
<!-- controller&#45;&gt;has attribute -->
<g id="edge9" class="edge">
<title>controller&#45;&gt;has attribute</title>
<path fill="none" stroke="blue" d="M777.27,-92.36C785.15,-90.36 793.4,-88.45 801.19,-87 873.71,-73.49 897.75,-96.51 966.19,-69 981.54,-62.83 996.35,-51.96 1007.94,-41.93"/>
<polygon fill="blue" stroke="blue" points="1010.34,-44.48 1015.42,-35.19 1005.65,-39.28 1010.34,-44.48"/>
<text text-anchor="middle" x="1039.19" y="-57.8" font-family="Times,serif" font-size="14.00">has attribute</text>
</g>
<!-- category -->
<g id="node11" class="node">
<title>category</title>
<ellipse fill="none" stroke="black" cx="1152.19" cy="-18" rx="51.19" ry="18"/>
<text text-anchor="middle" x="1152.19" y="-14.3" font-family="Times,serif" font-size="14.00">category</text>
</g>
<!-- controller&#45;&gt;category -->
<g id="edge10" class="edge">
<title>controller&#45;&gt;category</title>
<path fill="none" stroke="blue" d="M776.88,-92.16C784.87,-90.14 793.25,-88.29 801.19,-87 864.71,-76.69 1030.21,-92.29 1090.19,-69 1104.92,-63.28 1118.86,-52.7 1129.77,-42.75"/>
<polygon fill="blue" stroke="blue" points="1132.34,-45.13 1137.15,-35.69 1127.5,-40.07 1132.34,-45.13"/>
<text text-anchor="middle" x="1146.69" y="-57.8" font-family="Times,serif" font-size="14.00">category</text>
</g>
<!-- in taxon -->
<g id="node13" class="node">
<title>in taxon</title>
<ellipse fill="none" stroke="blue" cx="1294.19" cy="-18" rx="72.59" ry="18"/>
<text text-anchor="middle" x="1294.19" y="-14.3" font-family="Times,serif" font-size="14.00">system taxon</text>
</g>
<!-- controller&#45;&gt;in taxon -->
<g id="edge11" class="edge">
<title>controller&#45;&gt;in taxon</title>
<path fill="none" stroke="blue" d="M776.52,-92.15C784.61,-90.11 793.13,-88.25 801.19,-87 968.72,-61.09 1017.27,-108.23 1182.19,-69 1208.54,-62.73 1236.35,-50.35 1257.67,-39.48"/>
<polygon fill="blue" stroke="blue" points="1259.44,-42.51 1266.68,-34.78 1256.2,-36.3 1259.44,-42.51"/>
<text text-anchor="middle" x="1253.19" y="-57.8" font-family="Times,serif" font-size="14.00">in taxon</text>
</g>
<!-- is controller -->
<g id="node14" class="node">
<title>is controller</title>
<ellipse fill="none" stroke="blue" cx="1432.19" cy="-18" rx="46.59" ry="18"/>
<text text-anchor="middle" x="1432.19" y="-14.3" font-family="Times,serif" font-size="14.00">boolean</text>
</g>
<!-- controller&#45;&gt;is controller -->
<g id="edge12" class="edge">
<title>controller&#45;&gt;is controller</title>
<path fill="none" stroke="blue" d="M776.51,-92.09C784.6,-90.05 793.12,-88.21 801.19,-87 1014.53,-55.11 1074.11,-108.36 1286.19,-69 1323.59,-62.06 1364.4,-47.44 1393.35,-35.8"/>
<polygon fill="blue" stroke="blue" points="1394.76,-39 1402.69,-31.98 1392.11,-32.52 1394.76,-39"/>
<text text-anchor="middle" x="1383.69" y="-57.8" font-family="Times,serif" font-size="14.00">is controller</text>
</g>
<!-- named thing_category -->
<g id="node12" class="node">
<title>named thing_category</title>
<ellipse fill="none" stroke="blue" cx="880.19" cy="-105" rx="69.59" ry="18"/>
<text text-anchor="middle" x="880.19" y="-101.3" font-family="Times,serif" font-size="14.00">named thing</text>
</g>
</g>
</svg>
