<?xml version="1.0" encoding="UTF-8" standalone="no"?>
<!DOCTYPE svg PUBLIC "-//W3C//DTD SVG 1.1//EN"
 "http://www.w3.org/Graphics/SVG/1.1/DTD/svg11.dtd">
<!-- Generated by graphviz version 2.43.0 (0)
 -->
<!-- Title: %3 Pages: 1 -->
<svg width="1380pt" height="131pt"
 viewBox="0.00 0.00 1379.89 131.00" xmlns="http://www.w3.org/2000/svg" xmlns:xlink="http://www.w3.org/1999/xlink">
<g id="graph0" class="graph" transform="scale(1 1) rotate(0) translate(4 127)">
<title>%3</title>
<polygon fill="white" stroke="transparent" points="-4,4 -4,-127 1375.89,-127 1375.89,4 -4,4"/>
<!-- cyber entity -->
<g id="node1" class="node">
<title>cyber entity</title>
<ellipse fill="none" stroke="black" cx="680.54" cy="-105" rx="66.89" ry="18"/>
<text text-anchor="middle" x="680.54" y="-101.3" font-family="Times,serif" font-size="14.00">cyber entity</text>
</g>
<!-- named thing -->
<g id="node2" class="node">
<title>named thing</title>
<ellipse fill="none" stroke="black" cx="69.54" cy="-18" rx="69.59" ry="18"/>
<text text-anchor="middle" x="69.54" y="-14.3" font-family="Times,serif" font-size="14.00">named thing</text>
</g>
<!-- cyber entity&#45;&gt;named thing -->
<g id="edge1" class="edge">
<title>cyber entity&#45;&gt;named thing</title>
<path fill="none" stroke="black" d="M617.6,-98.76C549.43,-92.8 437.53,-82.15 341.54,-69 255.33,-57.19 233.99,-52.49 148.54,-36 142.72,-34.88 136.66,-33.66 130.61,-32.41"/>
<polygon fill="black" stroke="black" points="130.98,-28.91 120.47,-30.29 129.55,-35.76 130.98,-28.91"/>
<text text-anchor="middle" x="355.54" y="-57.8" font-family="Times,serif" font-size="14.00">is_a</text>
</g>
<!-- cyber essence -->
<g id="node3" class="node">
<title>cyber essence</title>
<ellipse fill="none" stroke="black" cx="233.54" cy="-18" rx="76.09" ry="18"/>
<text text-anchor="middle" x="233.54" y="-14.3" font-family="Times,serif" font-size="14.00">cyber essence</text>
</g>
<!-- cyber entity&#45;&gt;cyber essence -->
<g id="edge2" class="edge">
<title>cyber entity&#45;&gt;cyber essence</title>
<path fill="none" stroke="black" d="M620.63,-96.69C572.35,-90.44 502.83,-80.62 442.54,-69 391.33,-59.13 333.73,-45.13 291.99,-34.45"/>
<polygon fill="black" stroke="black" points="292.82,-31.05 282.26,-31.95 291.08,-37.83 292.82,-31.05"/>
<text text-anchor="middle" x="459.04" y="-57.8" font-family="Times,serif" font-size="14.00">uses</text>
</g>
<!-- id -->
<g id="node4" class="node">
<title>id</title>
<ellipse fill="none" stroke="blue" cx="365.54" cy="-18" rx="38.19" ry="18"/>
<text text-anchor="middle" x="365.54" y="-14.3" font-family="Times,serif" font-size="14.00">string</text>
</g>
<!-- cyber entity&#45;&gt;id -->
<g id="edge3" class="edge">
<title>cyber entity&#45;&gt;id</title>
<path fill="none" stroke="blue" d="M630.96,-92.8C577.07,-80.29 488.61,-58.8 413.54,-36 410.46,-35.06 407.27,-34.05 404.09,-32.99"/>
<polygon fill="blue" stroke="blue" points="405.19,-29.67 394.59,-29.77 402.93,-36.3 405.19,-29.67"/>
<text text-anchor="middle" x="537.54" y="-57.8" font-family="Times,serif" font-size="14.00">id</text>
</g>
<!-- iri -->
<g id="node5" class="node">
<title>iri</title>
<ellipse fill="none" stroke="blue" cx="466.54" cy="-18" rx="44.39" ry="18"/>
<text text-anchor="middle" x="466.54" y="-14.3" font-family="Times,serif" font-size="14.00">iri type</text>
</g>
<!-- cyber entity&#45;&gt;iri -->
<g id="edge4" class="edge">
<title>cyber entity&#45;&gt;iri</title>
<path fill="none" stroke="blue" d="M644.73,-89.77C606.58,-74.62 546.35,-50.7 506.65,-34.93"/>
<polygon fill="blue" stroke="blue" points="507.85,-31.64 497.27,-31.2 505.27,-38.15 507.85,-31.64"/>
<text text-anchor="middle" x="594.54" y="-57.8" font-family="Times,serif" font-size="14.00">iri</text>
</g>
<!-- type -->
<g id="node6" class="node">
<title>type</title>
<ellipse fill="none" stroke="blue" cx="567.54" cy="-18" rx="38.19" ry="18"/>
<text text-anchor="middle" x="567.54" y="-14.3" font-family="Times,serif" font-size="14.00">string</text>
</g>
<!-- cyber entity&#45;&gt;type -->
<g id="edge5" class="edge">
<title>cyber entity&#45;&gt;type</title>
<path fill="none" stroke="blue" d="M659.02,-87.81C640.87,-74.16 614.77,-54.53 595.09,-39.72"/>
<polygon fill="blue" stroke="blue" points="597.19,-36.92 587.1,-33.71 592.98,-42.52 597.19,-36.92"/>
<text text-anchor="middle" x="647.54" y="-57.8" font-family="Times,serif" font-size="14.00">type</text>
</g>
<!-- name -->
<g id="node7" class="node">
<title>name</title>
<ellipse fill="none" stroke="blue" cx="680.54" cy="-18" rx="56.59" ry="18"/>
<text text-anchor="middle" x="680.54" y="-14.3" font-family="Times,serif" font-size="14.00">label type</text>
</g>
<!-- cyber entity&#45;&gt;name -->
<g id="edge6" class="edge">
<title>cyber entity&#45;&gt;name</title>
<path fill="none" stroke="blue" d="M680.54,-86.8C680.54,-75.16 680.54,-59.55 680.54,-46.24"/>
<polygon fill="blue" stroke="blue" points="684.04,-46.18 680.54,-36.18 677.04,-46.18 684.04,-46.18"/>
<text text-anchor="middle" x="700.54" y="-57.8" font-family="Times,serif" font-size="14.00">name</text>
</g>
<!-- description -->
<g id="node8" class="node">
<title>description</title>
<ellipse fill="none" stroke="blue" cx="830.54" cy="-18" rx="75.29" ry="18"/>
<text text-anchor="middle" x="830.54" y="-14.3" font-family="Times,serif" font-size="14.00">narrative text</text>
</g>
<!-- cyber entity&#45;&gt;description -->
<g id="edge7" class="edge">
<title>cyber entity&#45;&gt;description</title>
<path fill="none" stroke="blue" d="M708.06,-88.41C732.12,-74.78 767.25,-54.87 793.73,-39.86"/>
<polygon fill="blue" stroke="blue" points="795.72,-42.75 802.7,-34.78 792.27,-36.66 795.72,-42.75"/>
<text text-anchor="middle" x="805.04" y="-57.8" font-family="Times,serif" font-size="14.00">description</text>
</g>
<!-- source -->
<g id="node9" class="node">
<title>source</title>
<ellipse fill="none" stroke="blue" cx="980.54" cy="-18" rx="56.59" ry="18"/>
<text text-anchor="middle" x="980.54" y="-14.3" font-family="Times,serif" font-size="14.00">label type</text>
</g>
<!-- cyber entity&#45;&gt;source -->
<g id="edge8" class="edge">
<title>cyber entity&#45;&gt;source</title>
<path fill="none" stroke="blue" d="M729.71,-92.61C738.31,-90.68 747.18,-88.75 755.54,-87 797.18,-78.3 808.63,-80.63 849.54,-69 880.27,-60.27 913.92,-47.35 939.42,-36.83"/>
<polygon fill="blue" stroke="blue" points="940.89,-40.01 948.77,-32.93 938.2,-33.55 940.89,-40.01"/>
<text text-anchor="middle" x="917.54" y="-57.8" font-family="Times,serif" font-size="14.00">source</text>
</g>
<!-- provided by -->
<g id="node10" class="node">
<title>provided by</title>
<ellipse fill="none" stroke="blue" cx="1092.54" cy="-18" rx="37.09" ry="18"/>
<text text-anchor="middle" x="1092.54" y="-14.3" font-family="Times,serif" font-size="14.00">agent</text>
</g>
<!-- cyber entity&#45;&gt;provided by -->
<g id="edge9" class="edge">
<title>cyber entity&#45;&gt;provided by</title>
<path fill="none" stroke="blue" d="M727.98,-92.28C737.09,-90.31 746.58,-88.43 755.54,-87 839.3,-73.6 862.5,-86.28 945.54,-69 991.78,-59.38 1001.94,-51.52 1046.54,-36 1049.09,-35.11 1051.72,-34.18 1054.36,-33.24"/>
<polygon fill="blue" stroke="blue" points="1055.69,-36.48 1063.9,-29.78 1053.3,-29.9 1055.69,-36.48"/>
<text text-anchor="middle" x="1041.04" y="-57.8" font-family="Times,serif" font-size="14.00">provided by</text>
</g>
<!-- has attribute -->
<g id="node11" class="node">
<title>has attribute</title>
<ellipse fill="none" stroke="blue" cx="1199.54" cy="-18" rx="51.99" ry="18"/>
<text text-anchor="middle" x="1199.54" y="-14.3" font-family="Times,serif" font-size="14.00">attribute</text>
</g>
<!-- cyber entity&#45;&gt;has attribute -->
<g id="edge10" class="edge">
<title>cyber entity&#45;&gt;has attribute</title>
<path fill="none" stroke="blue" d="M727.53,-92.08C736.77,-90.09 746.42,-88.27 755.54,-87 901.9,-66.59 943.9,-103.7 1087.54,-69 1114.59,-62.47 1143.2,-49.58 1164.74,-38.52"/>
<polygon fill="blue" stroke="blue" points="1166.58,-41.51 1173.81,-33.76 1163.33,-35.31 1166.58,-41.51"/>
<text text-anchor="middle" x="1176.54" y="-57.8" font-family="Times,serif" font-size="14.00">has attribute</text>
</g>
<!-- category -->
<g id="node12" class="node">
<title>category</title>
<ellipse fill="none" stroke="black" cx="1320.54" cy="-18" rx="51.19" ry="18"/>
<text text-anchor="middle" x="1320.54" y="-14.3" font-family="Times,serif" font-size="14.00">category</text>
</g>
<!-- cyber entity&#45;&gt;category -->
<g id="edge11" class="edge">
<title>cyber entity&#45;&gt;category</title>
<path fill="none" stroke="blue" d="M727.11,-92.04C736.47,-90.04 746.28,-88.22 755.54,-87 859.62,-73.34 1126.26,-96.56 1227.54,-69 1249.84,-62.93 1272.72,-50.72 1290.21,-39.89"/>
<polygon fill="blue" stroke="blue" points="1292.28,-42.71 1298.83,-34.38 1288.52,-36.81 1292.28,-42.71"/>
<text text-anchor="middle" x="1296.04" y="-57.8" font-family="Times,serif" font-size="14.00">category</text>
</g>
<!-- named thing_category -->
<g id="node13" class="node">
<title>named thing_category</title>
<ellipse fill="none" stroke="blue" cx="834.54" cy="-105" rx="69.59" ry="18"/>
<text text-anchor="middle" x="834.54" y="-101.3" font-family="Times,serif" font-size="14.00">named thing</text>
</g>
</g>
</svg>
