<?xml version="1.0" encoding="UTF-8" standalone="no"?>
<!DOCTYPE svg PUBLIC "-//W3C//DTD SVG 1.1//EN"
 "http://www.w3.org/Graphics/SVG/1.1/DTD/svg11.dtd">
<!-- Generated by graphviz version 2.43.0 (0)
 -->
<!-- Title: %3 Pages: 1 -->
<svg width="1768pt" height="131pt"
 viewBox="0.00 0.00 1767.63 131.00" xmlns="http://www.w3.org/2000/svg" xmlns:xlink="http://www.w3.org/1999/xlink">
<g id="graph0" class="graph" transform="scale(1 1) rotate(0) translate(4 127)">
<title>%3</title>
<polygon fill="white" stroke="transparent" points="-4,4 -4,-127 1763.63,-127 1763.63,4 -4,4"/>
<!-- cyber process -->
<g id="node1" class="node">
<title>cyber process</title>
<ellipse fill="none" stroke="black" cx="902.69" cy="-105" rx="75.29" ry="18"/>
<text text-anchor="middle" x="902.69" y="-101.3" font-family="Times,serif" font-size="14.00">cyber process</text>
</g>
<!-- computational process -->
<g id="node2" class="node">
<title>computational process</title>
<ellipse fill="none" stroke="black" cx="115.69" cy="-18" rx="115.88" ry="18"/>
<text text-anchor="middle" x="115.69" y="-14.3" font-family="Times,serif" font-size="14.00">computational process</text>
</g>
<!-- cyber process&#45;&gt;computational process -->
<g id="edge1" class="edge">
<title>cyber process&#45;&gt;computational process</title>
<path fill="none" stroke="black" d="M827.94,-102C725.21,-98.59 534.8,-89.86 373.69,-69 310.38,-60.8 239.2,-46.63 187.67,-35.46"/>
<polygon fill="black" stroke="black" points="188.15,-31.98 177.63,-33.27 186.66,-38.82 188.15,-31.98"/>
<text text-anchor="middle" x="387.69" y="-57.8" font-family="Times,serif" font-size="14.00">is_a</text>
</g>
<!-- id -->
<g id="node3" class="node">
<title>id</title>
<ellipse fill="none" stroke="blue" cx="287.69" cy="-18" rx="38.19" ry="18"/>
<text text-anchor="middle" x="287.69" y="-14.3" font-family="Times,serif" font-size="14.00">string</text>
</g>
<!-- cyber process&#45;&gt;id -->
<g id="edge2" class="edge">
<title>cyber process&#45;&gt;id</title>
<path fill="none" stroke="blue" d="M829.62,-100.51C747.19,-95.94 609.29,-86.38 491.69,-69 421.58,-58.64 403.91,-55.2 335.69,-36 332.58,-35.13 329.39,-34.15 326.19,-33.13"/>
<polygon fill="blue" stroke="blue" points="327.28,-29.81 316.68,-29.96 325.06,-36.45 327.28,-29.81"/>
<text text-anchor="middle" x="498.69" y="-57.8" font-family="Times,serif" font-size="14.00">id</text>
</g>
<!-- iri -->
<g id="node4" class="node">
<title>iri</title>
<ellipse fill="none" stroke="blue" cx="388.69" cy="-18" rx="44.39" ry="18"/>
<text text-anchor="middle" x="388.69" y="-14.3" font-family="Times,serif" font-size="14.00">iri type</text>
</g>
<!-- cyber process&#45;&gt;iri -->
<g id="edge3" class="edge">
<title>cyber process&#45;&gt;iri</title>
<path fill="none" stroke="blue" d="M831.57,-98.8C766.29,-93.43 667.04,-83.73 581.69,-69 519.12,-58.2 503.9,-52.88 442.69,-36 439.12,-35.01 435.42,-33.95 431.72,-32.85"/>
<polygon fill="blue" stroke="blue" points="432.58,-29.45 421.99,-29.9 430.54,-36.15 432.58,-29.45"/>
<text text-anchor="middle" x="589.69" y="-57.8" font-family="Times,serif" font-size="14.00">iri</text>
</g>
<!-- type -->
<g id="node5" class="node">
<title>type</title>
<ellipse fill="none" stroke="blue" cx="489.69" cy="-18" rx="38.19" ry="18"/>
<text text-anchor="middle" x="489.69" y="-14.3" font-family="Times,serif" font-size="14.00">string</text>
</g>
<!-- cyber process&#45;&gt;type -->
<g id="edge4" class="edge">
<title>cyber process&#45;&gt;type</title>
<path fill="none" stroke="blue" d="M837.41,-95.78C790.77,-89.51 726.63,-80.08 670.69,-69 610.52,-57.08 595.39,-53.79 536.69,-36 533.93,-35.16 531.09,-34.26 528.24,-33.31"/>
<polygon fill="blue" stroke="blue" points="529.21,-29.94 518.61,-30 526.93,-36.56 529.21,-29.94"/>
<text text-anchor="middle" x="686.69" y="-57.8" font-family="Times,serif" font-size="14.00">type</text>
</g>
<!-- name -->
<g id="node6" class="node">
<title>name</title>
<ellipse fill="none" stroke="blue" cx="602.69" cy="-18" rx="56.59" ry="18"/>
<text text-anchor="middle" x="602.69" y="-14.3" font-family="Times,serif" font-size="14.00">label type</text>
</g>
<!-- cyber process&#45;&gt;name -->
<g id="edge5" class="edge">
<title>cyber process&#45;&gt;name</title>
<path fill="none" stroke="blue" d="M847.85,-92.62C819.05,-86.31 783.28,-77.94 751.69,-69 716.54,-59.05 677.41,-45.84 648.07,-35.49"/>
<polygon fill="blue" stroke="blue" points="649.11,-32.15 638.52,-32.1 646.77,-38.74 649.11,-32.15"/>
<text text-anchor="middle" x="771.69" y="-57.8" font-family="Times,serif" font-size="14.00">name</text>
</g>
<!-- description -->
<g id="node7" class="node">
<title>description</title>
<ellipse fill="none" stroke="blue" cx="752.69" cy="-18" rx="75.29" ry="18"/>
<text text-anchor="middle" x="752.69" y="-14.3" font-family="Times,serif" font-size="14.00">narrative text</text>
</g>
<!-- cyber process&#45;&gt;description -->
<g id="edge6" class="edge">
<title>cyber process&#45;&gt;description</title>
<path fill="none" stroke="blue" d="M861.87,-89.73C847.51,-84.06 831.51,-76.97 817.69,-69 804.29,-61.27 790.56,-51.1 779.19,-41.95"/>
<polygon fill="blue" stroke="blue" points="781.31,-39.16 771.37,-35.52 776.87,-44.57 781.31,-39.16"/>
<text text-anchor="middle" x="858.19" y="-57.8" font-family="Times,serif" font-size="14.00">description</text>
</g>
<!-- source -->
<g id="node8" class="node">
<title>source</title>
<ellipse fill="none" stroke="blue" cx="902.69" cy="-18" rx="56.59" ry="18"/>
<text text-anchor="middle" x="902.69" y="-14.3" font-family="Times,serif" font-size="14.00">label type</text>
</g>
<!-- cyber process&#45;&gt;source -->
<g id="edge7" class="edge">
<title>cyber process&#45;&gt;source</title>
<path fill="none" stroke="blue" d="M902.69,-86.8C902.69,-75.16 902.69,-59.55 902.69,-46.24"/>
<polygon fill="blue" stroke="blue" points="906.19,-46.18 902.69,-36.18 899.19,-46.18 906.19,-46.18"/>
<text text-anchor="middle" x="926.69" y="-57.8" font-family="Times,serif" font-size="14.00">source</text>
</g>
<!-- provided by -->
<g id="node9" class="node">
<title>provided by</title>
<ellipse fill="none" stroke="blue" cx="1014.69" cy="-18" rx="37.09" ry="18"/>
<text text-anchor="middle" x="1014.69" y="-14.3" font-family="Times,serif" font-size="14.00">agent</text>
</g>
<!-- cyber process&#45;&gt;provided by -->
<g id="edge8" class="edge">
<title>cyber process&#45;&gt;provided by</title>
<path fill="none" stroke="blue" d="M927.65,-87.95C936.34,-82.16 946.07,-75.46 954.69,-69 966.53,-60.12 979.19,-49.72 989.8,-40.71"/>
<polygon fill="blue" stroke="blue" points="992.16,-43.3 997.48,-34.14 987.61,-37.98 992.16,-43.3"/>
<text text-anchor="middle" x="1016.19" y="-57.8" font-family="Times,serif" font-size="14.00">provided by</text>
</g>
<!-- has attribute -->
<g id="node10" class="node">
<title>has attribute</title>
<ellipse fill="none" stroke="blue" cx="1121.69" cy="-18" rx="51.99" ry="18"/>
<text text-anchor="middle" x="1121.69" y="-14.3" font-family="Times,serif" font-size="14.00">attribute</text>
</g>
<!-- cyber process&#45;&gt;has attribute -->
<g id="edge9" class="edge">
<title>cyber process&#45;&gt;has attribute</title>
<path fill="none" stroke="blue" d="M957.62,-92.64C1001.98,-83.36 1057.83,-71.4 1062.69,-69 1076.12,-62.36 1089.05,-52.01 1099.36,-42.45"/>
<polygon fill="blue" stroke="blue" points="1101.94,-44.83 1106.71,-35.36 1097.08,-39.79 1101.94,-44.83"/>
<text text-anchor="middle" x="1133.69" y="-57.8" font-family="Times,serif" font-size="14.00">has attribute</text>
</g>
<!-- category -->
<g id="node11" class="node">
<title>category</title>
<ellipse fill="none" stroke="black" cx="1242.69" cy="-18" rx="51.19" ry="18"/>
<text text-anchor="middle" x="1242.69" y="-14.3" font-family="Times,serif" font-size="14.00">category</text>
</g>
<!-- cyber process&#45;&gt;category -->
<g id="edge10" class="edge">
<title>cyber process&#45;&gt;category</title>
<path fill="none" stroke="blue" d="M956.31,-92.24C966.37,-90.29 976.83,-88.44 986.69,-87 1074.12,-74.22 1103.34,-103.5 1184.69,-69 1198.54,-63.13 1211.48,-52.68 1221.6,-42.84"/>
<polygon fill="blue" stroke="blue" points="1224.27,-45.12 1228.77,-35.53 1219.27,-40.22 1224.27,-45.12"/>
<text text-anchor="middle" x="1240.19" y="-57.8" font-family="Times,serif" font-size="14.00">category</text>
</g>
<!-- has input -->
<g id="node13" class="node">
<title>has input</title>
<ellipse fill="none" stroke="blue" cx="1381.69" cy="-18" rx="69.59" ry="18"/>
<text text-anchor="middle" x="1381.69" y="-14.3" font-family="Times,serif" font-size="14.00">named thing</text>
</g>
<!-- cyber process&#45;&gt;has input -->
<g id="edge11" class="edge">
<title>cyber process&#45;&gt;has input</title>
<path fill="none" stroke="blue" d="M955.83,-92.1C966.03,-90.14 976.66,-88.32 986.69,-87 1114.28,-70.2 1151.04,-101.02 1275.69,-69 1300.47,-62.63 1326.48,-50.46 1346.53,-39.72"/>
<polygon fill="blue" stroke="blue" points="1348.22,-42.79 1355.3,-34.91 1344.85,-36.65 1348.22,-42.79"/>
<text text-anchor="middle" x="1349.19" y="-57.8" font-family="Times,serif" font-size="14.00">has input</text>
</g>
<!-- has output -->
<g id="node14" class="node">
<title>has output</title>
<ellipse fill="none" stroke="blue" cx="1538.69" cy="-18" rx="69.59" ry="18"/>
<text text-anchor="middle" x="1538.69" y="-14.3" font-family="Times,serif" font-size="14.00">named thing</text>
</g>
<!-- cyber process&#45;&gt;has output -->
<g id="edge12" class="edge">
<title>cyber process&#45;&gt;has output</title>
<path fill="none" stroke="blue" d="M955.36,-92.04C965.7,-90.07 976.5,-88.25 986.69,-87 1163.32,-65.29 1211.65,-101.1 1386.69,-69 1423.64,-62.22 1463.96,-48.66 1493.78,-37.36"/>
<polygon fill="blue" stroke="blue" points="1495.4,-40.49 1503.47,-33.63 1492.88,-33.96 1495.4,-40.49"/>
<text text-anchor="middle" x="1481.19" y="-57.8" font-family="Times,serif" font-size="14.00">has output</text>
</g>
<!-- enabled by -->
<g id="node15" class="node">
<title>enabled by</title>
<ellipse fill="none" stroke="blue" cx="1692.69" cy="-18" rx="66.89" ry="18"/>
<text text-anchor="middle" x="1692.69" y="-14.3" font-family="Times,serif" font-size="14.00">cyber entity</text>
</g>
<!-- cyber process&#45;&gt;enabled by -->
<g id="edge13" class="edge">
<title>cyber process&#45;&gt;enabled by</title>
<path fill="none" stroke="blue" d="M955.35,-91.95C965.69,-89.98 976.49,-88.19 986.69,-87 1223.87,-59.22 1287.96,-107.18 1523.69,-69 1565.89,-62.17 1612.36,-47.9 1645.87,-36.35"/>
<polygon fill="blue" stroke="blue" points="1647.12,-39.62 1655.4,-33.02 1644.81,-33.01 1647.12,-39.62"/>
<text text-anchor="middle" x="1625.19" y="-57.8" font-family="Times,serif" font-size="14.00">enabled by</text>
</g>
<!-- named thing_category -->
<g id="node12" class="node">
<title>named thing_category</title>
<ellipse fill="none" stroke="blue" cx="1065.69" cy="-105" rx="69.59" ry="18"/>
<text text-anchor="middle" x="1065.69" y="-101.3" font-family="Times,serif" font-size="14.00">named thing</text>
</g>
</g>
</svg>
