<?xml version="1.0" encoding="UTF-8" standalone="no"?>
<!DOCTYPE svg PUBLIC "-//W3C//DTD SVG 1.1//EN"
 "http://www.w3.org/Graphics/SVG/1.1/DTD/svg11.dtd">
<!-- Generated by graphviz version 2.43.0 (0)
 -->
<!-- Title: %3 Pages: 1 -->
<svg width="1297pt" height="131pt"
 viewBox="0.00 0.00 1296.99 131.00" xmlns="http://www.w3.org/2000/svg" xmlns:xlink="http://www.w3.org/1999/xlink">
<g id="graph0" class="graph" transform="scale(1 1) rotate(0) translate(4 127)">
<title>%3</title>
<polygon fill="white" stroke="transparent" points="-4,4 -4,-127 1292.99,-127 1292.99,4 -4,4"/>
<!-- datastream -->
<g id="node1" class="node">
<title>datastream</title>
<ellipse fill="none" stroke="black" cx="584.2" cy="-105" rx="63.89" ry="18"/>
<text text-anchor="middle" x="584.2" y="-101.3" font-family="Times,serif" font-size="14.00">datastream</text>
</g>
<!-- data -->
<g id="node2" class="node">
<title>data</title>
<ellipse fill="none" stroke="black" cx="31.2" cy="-18" rx="31.4" ry="18"/>
<text text-anchor="middle" x="31.2" y="-14.3" font-family="Times,serif" font-size="14.00">data</text>
</g>
<!-- datastream&#45;&gt;data -->
<g id="edge1" class="edge">
<title>datastream&#45;&gt;data</title>
<path fill="none" stroke="black" d="M522.34,-100.69C448.6,-96.16 321.82,-86.52 214.2,-69 150.25,-58.59 133.89,-55.81 72.2,-36 69.76,-35.22 67.26,-34.35 64.76,-33.44"/>
<polygon fill="black" stroke="black" points="65.82,-30.09 55.23,-29.74 63.29,-36.62 65.82,-30.09"/>
<text text-anchor="middle" x="228.2" y="-57.8" font-family="Times,serif" font-size="14.00">is_a</text>
</g>
<!-- id -->
<g id="node3" class="node">
<title>id</title>
<ellipse fill="none" stroke="blue" cx="119.2" cy="-18" rx="38.19" ry="18"/>
<text text-anchor="middle" x="119.2" y="-14.3" font-family="Times,serif" font-size="14.00">string</text>
</g>
<!-- datastream&#45;&gt;id -->
<g id="edge2" class="edge">
<title>datastream&#45;&gt;id</title>
<path fill="none" stroke="blue" d="M524.57,-98.6C442.79,-90.22 291.77,-71.25 167.2,-36 164.09,-35.12 160.9,-34.15 157.7,-33.12"/>
<polygon fill="blue" stroke="blue" points="158.79,-29.8 148.19,-29.95 156.57,-36.44 158.79,-29.8"/>
<text text-anchor="middle" x="310.2" y="-57.8" font-family="Times,serif" font-size="14.00">id</text>
</g>
<!-- iri -->
<g id="node4" class="node">
<title>iri</title>
<ellipse fill="none" stroke="blue" cx="220.2" cy="-18" rx="44.39" ry="18"/>
<text text-anchor="middle" x="220.2" y="-14.3" font-family="Times,serif" font-size="14.00">iri type</text>
</g>
<!-- datastream&#45;&gt;iri -->
<g id="edge3" class="edge">
<title>datastream&#45;&gt;iri</title>
<path fill="none" stroke="blue" d="M531.26,-94.92C494.38,-88.35 444.13,-78.92 400.2,-69 343.73,-56.25 329.82,-52.03 274.2,-36 270.69,-34.99 267.05,-33.91 263.41,-32.81"/>
<polygon fill="blue" stroke="blue" points="264.41,-29.45 253.82,-29.86 262.35,-36.15 264.41,-29.45"/>
<text text-anchor="middle" x="408.2" y="-57.8" font-family="Times,serif" font-size="14.00">iri</text>
</g>
<!-- type -->
<g id="node5" class="node">
<title>type</title>
<ellipse fill="none" stroke="blue" cx="321.2" cy="-18" rx="38.19" ry="18"/>
<text text-anchor="middle" x="321.2" y="-14.3" font-family="Times,serif" font-size="14.00">string</text>
</g>
<!-- datastream&#45;&gt;type -->
<g id="edge4" class="edge">
<title>datastream&#45;&gt;type</title>
<path fill="none" stroke="blue" d="M540.82,-91.72C518.21,-85.19 490.14,-76.91 465.2,-69 421.79,-55.24 411.17,-51.08 368.2,-36 365.51,-35.06 362.74,-34.08 359.95,-33.08"/>
<polygon fill="blue" stroke="blue" points="361.09,-29.78 350.5,-29.7 358.73,-36.37 361.09,-29.78"/>
<text text-anchor="middle" x="481.2" y="-57.8" font-family="Times,serif" font-size="14.00">type</text>
</g>
<!-- name -->
<g id="node6" class="node">
<title>name</title>
<ellipse fill="none" stroke="blue" cx="434.2" cy="-18" rx="56.59" ry="18"/>
<text text-anchor="middle" x="434.2" y="-14.3" font-family="Times,serif" font-size="14.00">label type</text>
</g>
<!-- datastream&#45;&gt;name -->
<g id="edge5" class="edge">
<title>datastream&#45;&gt;name</title>
<path fill="none" stroke="blue" d="M557.03,-88.61C532.56,-74.74 496.44,-54.27 469.69,-39.11"/>
<polygon fill="blue" stroke="blue" points="471.08,-35.88 460.66,-33.99 467.63,-41.97 471.08,-35.88"/>
<text text-anchor="middle" x="538.2" y="-57.8" font-family="Times,serif" font-size="14.00">name</text>
</g>
<!-- description -->
<g id="node7" class="node">
<title>description</title>
<ellipse fill="none" stroke="blue" cx="584.2" cy="-18" rx="75.29" ry="18"/>
<text text-anchor="middle" x="584.2" y="-14.3" font-family="Times,serif" font-size="14.00">narrative text</text>
</g>
<!-- datastream&#45;&gt;description -->
<g id="edge6" class="edge">
<title>datastream&#45;&gt;description</title>
<path fill="none" stroke="blue" d="M584.2,-86.8C584.2,-75.16 584.2,-59.55 584.2,-46.24"/>
<polygon fill="blue" stroke="blue" points="587.7,-46.18 584.2,-36.18 580.7,-46.18 587.7,-46.18"/>
<text text-anchor="middle" x="624.7" y="-57.8" font-family="Times,serif" font-size="14.00">description</text>
</g>
<!-- source -->
<g id="node8" class="node">
<title>source</title>
<ellipse fill="none" stroke="blue" cx="734.2" cy="-18" rx="56.59" ry="18"/>
<text text-anchor="middle" x="734.2" y="-14.3" font-family="Times,serif" font-size="14.00">label type</text>
</g>
<!-- datastream&#45;&gt;source -->
<g id="edge7" class="edge">
<title>datastream&#45;&gt;source</title>
<path fill="none" stroke="blue" d="M622.88,-90.57C637.77,-84.76 654.68,-77.37 669.2,-69 682.79,-61.16 696.73,-50.8 708.2,-41.54"/>
<polygon fill="blue" stroke="blue" points="710.58,-44.11 716.07,-35.05 706.13,-38.71 710.58,-44.11"/>
<text text-anchor="middle" x="716.2" y="-57.8" font-family="Times,serif" font-size="14.00">source</text>
</g>
<!-- provided by -->
<g id="node9" class="node">
<title>provided by</title>
<ellipse fill="none" stroke="blue" cx="846.2" cy="-18" rx="37.09" ry="18"/>
<text text-anchor="middle" x="846.2" y="-14.3" font-family="Times,serif" font-size="14.00">agent</text>
</g>
<!-- datastream&#45;&gt;provided by -->
<g id="edge8" class="edge">
<title>datastream&#45;&gt;provided by</title>
<path fill="none" stroke="blue" d="M631.01,-92.73C639.39,-90.78 648.04,-88.8 656.2,-87 695.18,-78.41 706.41,-81.89 744.2,-69 768.69,-60.64 794.87,-47.72 814.58,-37.1"/>
<polygon fill="blue" stroke="blue" points="816.33,-40.13 823.42,-32.26 812.97,-33.99 816.33,-40.13"/>
<text text-anchor="middle" x="821.7" y="-57.8" font-family="Times,serif" font-size="14.00">provided by</text>
</g>
<!-- has attribute -->
<g id="node10" class="node">
<title>has attribute</title>
<ellipse fill="none" stroke="blue" cx="953.2" cy="-18" rx="51.99" ry="18"/>
<text text-anchor="middle" x="953.2" y="-14.3" font-family="Times,serif" font-size="14.00">attribute</text>
</g>
<!-- datastream&#45;&gt;has attribute -->
<g id="edge9" class="edge">
<title>datastream&#45;&gt;has attribute</title>
<path fill="none" stroke="blue" d="M629.32,-92.28C638.18,-90.28 647.45,-88.4 656.2,-87 749.58,-72.09 778.09,-97.69 868.2,-69 888.29,-62.6 908.73,-50.78 924.53,-40.24"/>
<polygon fill="blue" stroke="blue" points="926.54,-43.11 932.8,-34.56 922.57,-37.34 926.54,-43.11"/>
<text text-anchor="middle" x="948.2" y="-57.8" font-family="Times,serif" font-size="14.00">has attribute</text>
</g>
<!-- category -->
<g id="node11" class="node">
<title>category</title>
<ellipse fill="none" stroke="black" cx="1074.2" cy="-18" rx="51.19" ry="18"/>
<text text-anchor="middle" x="1074.2" y="-14.3" font-family="Times,serif" font-size="14.00">category</text>
</g>
<!-- datastream&#45;&gt;category -->
<g id="edge10" class="edge">
<title>datastream&#45;&gt;category</title>
<path fill="none" stroke="blue" d="M628.9,-92.14C637.88,-90.12 647.3,-88.27 656.2,-87 731.75,-76.19 926.75,-93.03 999.2,-69 1017.03,-63.09 1034.64,-51.72 1048.3,-41.32"/>
<polygon fill="blue" stroke="blue" points="1050.6,-43.97 1056.27,-35.02 1046.26,-38.47 1050.6,-43.97"/>
<text text-anchor="middle" x="1059.7" y="-57.8" font-family="Times,serif" font-size="14.00">category</text>
</g>
<!-- in taxon -->
<g id="node13" class="node">
<title>in taxon</title>
<ellipse fill="none" stroke="blue" cx="1216.2" cy="-18" rx="72.59" ry="18"/>
<text text-anchor="middle" x="1216.2" y="-14.3" font-family="Times,serif" font-size="14.00">system taxon</text>
</g>
<!-- datastream&#45;&gt;in taxon -->
<g id="edge11" class="edge">
<title>datastream&#45;&gt;in taxon</title>
<path fill="none" stroke="blue" d="M628.89,-92.05C637.87,-90.05 647.29,-88.22 656.2,-87 849.66,-60.44 904.48,-110.93 1095.2,-69 1123.88,-62.69 1154.43,-50.02 1177.66,-39.01"/>
<polygon fill="blue" stroke="blue" points="1179.34,-42.08 1186.82,-34.57 1176.29,-35.78 1179.34,-42.08"/>
<text text-anchor="middle" x="1168.2" y="-57.8" font-family="Times,serif" font-size="14.00">in taxon</text>
</g>
<!-- named thing_category -->
<g id="node12" class="node">
<title>named thing_category</title>
<ellipse fill="none" stroke="blue" cx="735.2" cy="-105" rx="69.59" ry="18"/>
<text text-anchor="middle" x="735.2" y="-101.3" font-family="Times,serif" font-size="14.00">named thing</text>
</g>
</g>
</svg>
