<?xml version="1.0" encoding="UTF-8" standalone="no"?>
<!DOCTYPE svg PUBLIC "-//W3C//DTD SVG 1.1//EN"
 "http://www.w3.org/Graphics/SVG/1.1/DTD/svg11.dtd">
<!-- Generated by graphviz version 2.43.0 (0)
 -->
<!-- Title: %3 Pages: 1 -->
<svg width="2147pt" height="131pt"
 viewBox="0.00 0.00 2146.54 131.00" xmlns="http://www.w3.org/2000/svg" xmlns:xlink="http://www.w3.org/1999/xlink">
<g id="graph0" class="graph" transform="scale(1 1) rotate(0) translate(4 127)">
<title>%3</title>
<polygon fill="white" stroke="transparent" points="-4,4 -4,-127 2142.54,-127 2142.54,4 -4,4"/>
<!-- dataset summary -->
<g id="node1" class="node">
<title>dataset summary</title>
<ellipse fill="none" stroke="black" cx="1116.54" cy="-105" rx="91.78" ry="18"/>
<text text-anchor="middle" x="1116.54" y="-101.3" font-family="Times,serif" font-size="14.00">dataset summary</text>
</g>
<!-- dataset version -->
<g id="node2" class="node">
<title>dataset version</title>
<ellipse fill="none" stroke="black" cx="82.54" cy="-18" rx="82.59" ry="18"/>
<text text-anchor="middle" x="82.54" y="-14.3" font-family="Times,serif" font-size="14.00">dataset version</text>
</g>
<!-- dataset summary&#45;&gt;dataset version -->
<g id="edge1" class="edge">
<title>dataset summary&#45;&gt;dataset version</title>
<path fill="none" stroke="black" d="M1025.87,-102.08C844.77,-97.92 443.96,-86.97 307.54,-69 250.56,-61.49 186.69,-46.67 141.6,-35.1"/>
<polygon fill="black" stroke="black" points="142.26,-31.66 131.7,-32.54 140.5,-38.44 142.26,-31.66"/>
<text text-anchor="middle" x="321.54" y="-57.8" font-family="Times,serif" font-size="14.00">is_a</text>
</g>
<!-- id -->
<g id="node3" class="node">
<title>id</title>
<ellipse fill="none" stroke="blue" cx="221.54" cy="-18" rx="38.19" ry="18"/>
<text text-anchor="middle" x="221.54" y="-14.3" font-family="Times,serif" font-size="14.00">string</text>
</g>
<!-- dataset summary&#45;&gt;id -->
<g id="edge2" class="edge">
<title>dataset summary&#45;&gt;id</title>
<path fill="none" stroke="blue" d="M1024.89,-103.9C892.33,-102.73 639.61,-96.62 426.54,-69 355.83,-59.83 338.19,-55.28 269.54,-36 266.44,-35.13 263.24,-34.16 260.04,-33.14"/>
<polygon fill="blue" stroke="blue" points="261.13,-29.81 250.53,-29.97 258.91,-36.45 261.13,-29.81"/>
<text text-anchor="middle" x="433.54" y="-57.8" font-family="Times,serif" font-size="14.00">id</text>
</g>
<!-- iri -->
<g id="node4" class="node">
<title>iri</title>
<ellipse fill="none" stroke="blue" cx="322.54" cy="-18" rx="44.39" ry="18"/>
<text text-anchor="middle" x="322.54" y="-14.3" font-family="Times,serif" font-size="14.00">iri type</text>
</g>
<!-- dataset summary&#45;&gt;iri -->
<g id="edge3" class="edge">
<title>dataset summary&#45;&gt;iri</title>
<path fill="none" stroke="blue" d="M1025.11,-103.75C906.51,-102.27 693.51,-95.68 513.54,-69 461.72,-61.32 403.69,-44.99 365.35,-33.07"/>
<polygon fill="blue" stroke="blue" points="366.14,-29.65 355.55,-29.99 364.04,-36.33 366.14,-29.65"/>
<text text-anchor="middle" x="521.54" y="-57.8" font-family="Times,serif" font-size="14.00">iri</text>
</g>
<!-- type -->
<g id="node5" class="node">
<title>type</title>
<ellipse fill="none" stroke="blue" cx="423.54" cy="-18" rx="38.19" ry="18"/>
<text text-anchor="middle" x="423.54" y="-14.3" font-family="Times,serif" font-size="14.00">string</text>
</g>
<!-- dataset summary&#45;&gt;type -->
<g id="edge4" class="edge">
<title>dataset summary&#45;&gt;type</title>
<path fill="none" stroke="blue" d="M1025.75,-102.1C924.29,-98.95 755.37,-90.67 611.54,-69 547.9,-59.41 532.24,-54.31 470.54,-36 467.64,-35.14 464.66,-34.2 461.67,-33.21"/>
<polygon fill="blue" stroke="blue" points="462.79,-29.9 452.2,-29.97 460.52,-36.52 462.79,-29.9"/>
<text text-anchor="middle" x="627.54" y="-57.8" font-family="Times,serif" font-size="14.00">type</text>
</g>
<!-- name -->
<g id="node6" class="node">
<title>name</title>
<ellipse fill="none" stroke="blue" cx="536.54" cy="-18" rx="56.59" ry="18"/>
<text text-anchor="middle" x="536.54" y="-14.3" font-family="Times,serif" font-size="14.00">label type</text>
</g>
<!-- dataset summary&#45;&gt;name -->
<g id="edge5" class="edge">
<title>dataset summary&#45;&gt;name</title>
<path fill="none" stroke="blue" d="M1026.54,-101.31C943.62,-97.64 817.45,-89.03 709.54,-69 665.9,-60.9 617.45,-46.4 582.95,-35.1"/>
<polygon fill="blue" stroke="blue" points="583.76,-31.68 573.16,-31.85 581.55,-38.32 583.76,-31.68"/>
<text text-anchor="middle" x="729.54" y="-57.8" font-family="Times,serif" font-size="14.00">name</text>
</g>
<!-- description -->
<g id="node7" class="node">
<title>description</title>
<ellipse fill="none" stroke="blue" cx="686.54" cy="-18" rx="75.29" ry="18"/>
<text text-anchor="middle" x="686.54" y="-14.3" font-family="Times,serif" font-size="14.00">narrative text</text>
</g>
<!-- dataset summary&#45;&gt;description -->
<g id="edge6" class="edge">
<title>dataset summary&#45;&gt;description</title>
<path fill="none" stroke="blue" d="M1025.63,-102.23C959.83,-99.02 869.34,-90.6 792.54,-69 768.36,-62.2 742.85,-50.33 722.92,-39.86"/>
<polygon fill="blue" stroke="blue" points="724.36,-36.66 713.9,-35.02 721.05,-42.83 724.36,-36.66"/>
<text text-anchor="middle" x="833.04" y="-57.8" font-family="Times,serif" font-size="14.00">description</text>
</g>
<!-- source -->
<g id="node8" class="node">
<title>source</title>
<ellipse fill="none" stroke="blue" cx="836.54" cy="-18" rx="56.59" ry="18"/>
<text text-anchor="middle" x="836.54" y="-14.3" font-family="Times,serif" font-size="14.00">label type</text>
</g>
<!-- dataset summary&#45;&gt;source -->
<g id="edge7" class="edge">
<title>dataset summary&#45;&gt;source</title>
<path fill="none" stroke="blue" d="M1029.25,-99.35C989.35,-94.83 942.24,-86.03 902.54,-69 887.41,-62.51 872.6,-51.81 860.86,-41.98"/>
<polygon fill="blue" stroke="blue" points="863.1,-39.29 853.26,-35.37 858.51,-44.57 863.1,-39.29"/>
<text text-anchor="middle" x="926.54" y="-57.8" font-family="Times,serif" font-size="14.00">source</text>
</g>
<!-- provided by -->
<g id="node9" class="node">
<title>provided by</title>
<ellipse fill="none" stroke="blue" cx="948.54" cy="-18" rx="37.09" ry="18"/>
<text text-anchor="middle" x="948.54" y="-14.3" font-family="Times,serif" font-size="14.00">agent</text>
</g>
<!-- dataset summary&#45;&gt;provided by -->
<g id="edge8" class="edge">
<title>dataset summary&#45;&gt;provided by</title>
<path fill="none" stroke="blue" d="M1042.57,-94.25C1009.56,-88.49 975.43,-80.12 963.54,-69 957.14,-63.01 953.44,-54.42 951.31,-46.04"/>
<polygon fill="blue" stroke="blue" points="954.72,-45.27 949.41,-36.11 947.85,-46.59 954.72,-45.27"/>
<text text-anchor="middle" x="1006.04" y="-57.8" font-family="Times,serif" font-size="14.00">provided by</text>
</g>
<!-- has attribute -->
<g id="node10" class="node">
<title>has attribute</title>
<ellipse fill="none" stroke="blue" cx="1055.54" cy="-18" rx="51.99" ry="18"/>
<text text-anchor="middle" x="1055.54" y="-14.3" font-family="Times,serif" font-size="14.00">attribute</text>
</g>
<!-- dataset summary&#45;&gt;has attribute -->
<g id="edge9" class="edge">
<title>dataset summary&#45;&gt;has attribute</title>
<path fill="none" stroke="blue" d="M1077.08,-88.72C1068.93,-83.69 1061.37,-77.21 1056.54,-69 1052.61,-62.31 1051.3,-54.2 1051.26,-46.47"/>
<polygon fill="blue" stroke="blue" points="1054.77,-46.53 1051.87,-36.34 1047.78,-46.11 1054.77,-46.53"/>
<text text-anchor="middle" x="1103.54" y="-57.8" font-family="Times,serif" font-size="14.00">has attribute</text>
</g>
<!-- category -->
<g id="node11" class="node">
<title>category</title>
<ellipse fill="none" stroke="black" cx="1176.54" cy="-18" rx="51.19" ry="18"/>
<text text-anchor="middle" x="1176.54" y="-14.3" font-family="Times,serif" font-size="14.00">category</text>
</g>
<!-- dataset summary&#45;&gt;category -->
<g id="edge10" class="edge">
<title>dataset summary&#45;&gt;category</title>
<path fill="none" stroke="blue" d="M1137.83,-87.22C1143.76,-81.84 1149.85,-75.57 1154.54,-69 1159.64,-61.87 1163.92,-53.37 1167.32,-45.42"/>
<polygon fill="blue" stroke="blue" points="1170.57,-46.71 1171.01,-36.12 1164.06,-44.13 1170.57,-46.71"/>
<text text-anchor="middle" x="1195.04" y="-57.8" font-family="Times,serif" font-size="14.00">category</text>
</g>
<!-- license -->
<g id="node13" class="node">
<title>license</title>
<ellipse fill="none" stroke="blue" cx="1284.54" cy="-18" rx="38.19" ry="18"/>
<text text-anchor="middle" x="1284.54" y="-14.3" font-family="Times,serif" font-size="14.00">string</text>
</g>
<!-- dataset summary&#45;&gt;license -->
<g id="edge11" class="edge">
<title>dataset summary&#45;&gt;license</title>
<path fill="none" stroke="blue" d="M1176.04,-91.19C1194.25,-85.85 1213.86,-78.61 1230.54,-69 1242.77,-61.96 1254.5,-51.68 1263.89,-42.28"/>
<polygon fill="blue" stroke="blue" points="1266.48,-44.63 1270.88,-35 1261.43,-39.79 1266.48,-44.63"/>
<text text-anchor="middle" x="1275.54" y="-57.8" font-family="Times,serif" font-size="14.00">license</text>
</g>
<!-- rights -->
<g id="node14" class="node">
<title>rights</title>
<ellipse fill="none" stroke="blue" cx="1379.54" cy="-18" rx="38.19" ry="18"/>
<text text-anchor="middle" x="1379.54" y="-14.3" font-family="Times,serif" font-size="14.00">string</text>
</g>
<!-- dataset summary&#45;&gt;rights -->
<g id="edge12" class="edge">
<title>dataset summary&#45;&gt;rights</title>
<path fill="none" stroke="blue" d="M1182.29,-92.4C1234.16,-83.15 1298.73,-71.36 1304.54,-69 1322.07,-61.88 1339.77,-50.33 1353.57,-40.12"/>
<polygon fill="blue" stroke="blue" points="1355.79,-42.84 1361.62,-34 1351.55,-37.27 1355.79,-42.84"/>
<text text-anchor="middle" x="1355.04" y="-57.8" font-family="Times,serif" font-size="14.00">rights</text>
</g>
<!-- format -->
<g id="node15" class="node">
<title>format</title>
<ellipse fill="none" stroke="blue" cx="1474.54" cy="-18" rx="38.19" ry="18"/>
<text text-anchor="middle" x="1474.54" y="-14.3" font-family="Times,serif" font-size="14.00">string</text>
</g>
<!-- dataset summary&#45;&gt;format -->
<g id="edge13" class="edge">
<title>dataset summary&#45;&gt;format</title>
<path fill="none" stroke="blue" d="M1181.81,-92.33C1193.36,-90.43 1205.29,-88.57 1216.54,-87 1289.16,-76.85 1310.47,-90.61 1380.54,-69 1403.26,-62 1426.87,-49.41 1444.74,-38.62"/>
<polygon fill="blue" stroke="blue" points="1446.87,-41.42 1453.54,-33.18 1443.19,-35.47 1446.87,-41.42"/>
<text text-anchor="middle" x="1441.04" y="-57.8" font-family="Times,serif" font-size="14.00">format</text>
</g>
<!-- creation date -->
<g id="node16" class="node">
<title>creation date</title>
<ellipse fill="none" stroke="blue" cx="1562.54" cy="-18" rx="31.4" ry="18"/>
<text text-anchor="middle" x="1562.54" y="-14.3" font-family="Times,serif" font-size="14.00">date</text>
</g>
<!-- dataset summary&#45;&gt;creation date -->
<g id="edge14" class="edge">
<title>dataset summary&#45;&gt;creation date</title>
<path fill="none" stroke="blue" d="M1180.69,-92.14C1192.58,-90.22 1204.92,-88.4 1216.54,-87 1328.46,-73.54 1361.27,-100.39 1469.54,-69 1492.78,-62.26 1516.78,-49.18 1534.58,-38.09"/>
<polygon fill="blue" stroke="blue" points="1536.75,-40.85 1543.28,-32.51 1532.97,-34.96 1536.75,-40.85"/>
<text text-anchor="middle" x="1552.04" y="-57.8" font-family="Times,serif" font-size="14.00">creation date</text>
</g>
<!-- has dataset -->
<g id="node17" class="node">
<title>has dataset</title>
<ellipse fill="none" stroke="blue" cx="1657.54" cy="-18" rx="45.49" ry="18"/>
<text text-anchor="middle" x="1657.54" y="-14.3" font-family="Times,serif" font-size="14.00">dataset</text>
</g>
<!-- dataset summary&#45;&gt;has dataset -->
<g id="edge15" class="edge">
<title>dataset summary&#45;&gt;has dataset</title>
<path fill="none" stroke="blue" d="M1180.13,-92C1192.19,-90.06 1204.72,-88.27 1216.54,-87 1259.34,-82.38 1563.84,-85.63 1603.54,-69 1616.75,-63.47 1628.74,-53.2 1638.05,-43.4"/>
<polygon fill="blue" stroke="blue" points="1640.84,-45.53 1644.91,-35.74 1635.63,-40.86 1640.84,-45.53"/>
<text text-anchor="middle" x="1667.04" y="-57.8" font-family="Times,serif" font-size="14.00">has dataset</text>
</g>
<!-- ingest date -->
<g id="node18" class="node">
<title>ingest date</title>
<ellipse fill="none" stroke="blue" cx="1761.54" cy="-18" rx="38.19" ry="18"/>
<text text-anchor="middle" x="1761.54" y="-14.3" font-family="Times,serif" font-size="14.00">string</text>
</g>
<!-- dataset summary&#45;&gt;ingest date -->
<g id="edge16" class="edge">
<title>dataset summary&#45;&gt;ingest date</title>
<path fill="none" stroke="blue" d="M1179.85,-91.94C1191.99,-90 1204.63,-88.22 1216.54,-87 1271.4,-81.37 1662.1,-91.28 1712.54,-69 1724.88,-63.55 1735.72,-53.44 1744.05,-43.72"/>
<polygon fill="blue" stroke="blue" points="1746.91,-45.76 1750.44,-35.77 1741.45,-41.38 1746.91,-45.76"/>
<text text-anchor="middle" x="1774.04" y="-57.8" font-family="Times,serif" font-size="14.00">ingest date</text>
</g>
<!-- has distribution -->
<g id="node19" class="node">
<title>has distribution</title>
<ellipse fill="none" stroke="blue" cx="1920.54" cy="-18" rx="102.88" ry="18"/>
<text text-anchor="middle" x="1920.54" y="-14.3" font-family="Times,serif" font-size="14.00">dataset distribution</text>
</g>
<!-- dataset summary&#45;&gt;has distribution -->
<g id="edge17" class="edge">
<title>dataset summary&#45;&gt;has distribution</title>
<path fill="none" stroke="blue" d="M1179.58,-91.92C1191.8,-89.97 1204.54,-88.19 1216.54,-87 1349.72,-73.75 1688.63,-101.18 1818.54,-69 1842.07,-63.17 1866.51,-51.42 1885.57,-40.77"/>
<polygon fill="blue" stroke="blue" points="1887.54,-43.68 1894.47,-35.66 1884.05,-37.61 1887.54,-43.68"/>
<text text-anchor="middle" x="1916.54" y="-57.8" font-family="Times,serif" font-size="14.00">has distribution</text>
</g>
<!-- source web page -->
<g id="node20" class="node">
<title>source web page</title>
<ellipse fill="none" stroke="blue" cx="2079.54" cy="-18" rx="38.19" ry="18"/>
<text text-anchor="middle" x="2079.54" y="-14.3" font-family="Times,serif" font-size="14.00">string</text>
</g>
<!-- dataset summary&#45;&gt;source web page -->
<g id="edge18" class="edge">
<title>dataset summary&#45;&gt;source web page</title>
<path fill="none" stroke="blue" d="M1179.57,-91.86C1191.79,-89.91 1204.54,-88.16 1216.54,-87 1300.73,-78.89 1895.38,-89.08 1977.54,-69 2003.01,-62.78 2029.54,-49.53 2049.15,-38.24"/>
<polygon fill="blue" stroke="blue" points="2051.09,-41.16 2057.92,-33.05 2047.53,-35.13 2051.09,-41.16"/>
<text text-anchor="middle" x="2078.04" y="-57.8" font-family="Times,serif" font-size="14.00">source web page</text>
</g>
<!-- named thing_category -->
<g id="node12" class="node">
<title>named thing_category</title>
<ellipse fill="none" stroke="blue" cx="1295.54" cy="-105" rx="69.59" ry="18"/>
<text text-anchor="middle" x="1295.54" y="-101.3" font-family="Times,serif" font-size="14.00">named thing</text>
</g>
</g>
</svg>
