<?xml version="1.0" encoding="UTF-8" standalone="no"?>
<!DOCTYPE svg PUBLIC "-//W3C//DTD SVG 1.1//EN"
 "http://www.w3.org/Graphics/SVG/1.1/DTD/svg11.dtd">
<!-- Generated by graphviz version 2.43.0 (0)
 -->
<!-- Title: %3 Pages: 1 -->
<svg width="1468pt" height="131pt"
 viewBox="0.00 0.00 1467.78 131.00" xmlns="http://www.w3.org/2000/svg" xmlns:xlink="http://www.w3.org/1999/xlink">
<g id="graph0" class="graph" transform="scale(1 1) rotate(0) translate(4 127)">
<title>%3</title>
<polygon fill="white" stroke="transparent" points="-4,4 -4,-127 1463.78,-127 1463.78,4 -4,4"/>
<!-- data -->
<g id="node1" class="node">
<title>data</title>
<ellipse fill="none" stroke="black" cx="754.99" cy="-105" rx="31.4" ry="18"/>
<text text-anchor="middle" x="754.99" y="-101.3" font-family="Times,serif" font-size="14.00">data</text>
</g>
<!-- notification component -->
<g id="node2" class="node">
<title>notification component</title>
<ellipse fill="none" stroke="black" cx="116.99" cy="-18" rx="116.98" ry="18"/>
<text text-anchor="middle" x="116.99" y="-14.3" font-family="Times,serif" font-size="14.00">notification component</text>
</g>
<!-- data&#45;&gt;notification component -->
<g id="edge1" class="edge">
<title>data&#45;&gt;notification component</title>
<path fill="none" stroke="black" d="M724.18,-102.03C660.58,-97.75 510.23,-86.57 384.99,-69 319.71,-59.84 246.14,-45.85 192.62,-34.99"/>
<polygon fill="black" stroke="black" points="193.02,-31.5 182.53,-32.94 191.62,-38.36 193.02,-31.5"/>
<text text-anchor="middle" x="398.99" y="-57.8" font-family="Times,serif" font-size="14.00">is_a</text>
</g>
<!-- id -->
<g id="node3" class="node">
<title>id</title>
<ellipse fill="none" stroke="blue" cx="289.99" cy="-18" rx="38.19" ry="18"/>
<text text-anchor="middle" x="289.99" y="-14.3" font-family="Times,serif" font-size="14.00">string</text>
</g>
<!-- data&#45;&gt;id -->
<g id="edge2" class="edge">
<title>data&#45;&gt;id</title>
<path fill="none" stroke="blue" d="M724.38,-101.42C654.7,-95.03 479.33,-75.99 337.99,-36 334.88,-35.12 331.69,-34.15 328.49,-33.12"/>
<polygon fill="blue" stroke="blue" points="329.58,-29.8 318.99,-29.95 327.36,-36.44 329.58,-29.8"/>
<text text-anchor="middle" x="480.99" y="-57.8" font-family="Times,serif" font-size="14.00">id</text>
</g>
<!-- iri -->
<g id="node4" class="node">
<title>iri</title>
<ellipse fill="none" stroke="blue" cx="390.99" cy="-18" rx="44.39" ry="18"/>
<text text-anchor="middle" x="390.99" y="-14.3" font-family="Times,serif" font-size="14.00">iri type</text>
</g>
<!-- data&#45;&gt;iri -->
<g id="edge3" class="edge">
<title>data&#45;&gt;iri</title>
<path fill="none" stroke="blue" d="M725.54,-99.04C689.11,-92.75 625.23,-81.25 570.99,-69 514.52,-56.25 500.61,-52.03 444.99,-36 441.48,-34.99 437.85,-33.91 434.2,-32.81"/>
<polygon fill="blue" stroke="blue" points="435.2,-29.45 424.62,-29.86 433.15,-36.15 435.2,-29.45"/>
<text text-anchor="middle" x="578.99" y="-57.8" font-family="Times,serif" font-size="14.00">iri</text>
</g>
<!-- type -->
<g id="node5" class="node">
<title>type</title>
<ellipse fill="none" stroke="blue" cx="491.99" cy="-18" rx="38.19" ry="18"/>
<text text-anchor="middle" x="491.99" y="-14.3" font-family="Times,serif" font-size="14.00">string</text>
</g>
<!-- data&#45;&gt;type -->
<g id="edge4" class="edge">
<title>data&#45;&gt;type</title>
<path fill="none" stroke="blue" d="M727.48,-96.26C703.29,-89.38 667.19,-78.89 635.99,-69 592.58,-55.24 581.96,-51.08 538.99,-36 536.3,-35.06 533.53,-34.08 530.75,-33.08"/>
<polygon fill="blue" stroke="blue" points="531.89,-29.78 521.29,-29.7 529.53,-36.37 531.89,-29.78"/>
<text text-anchor="middle" x="651.99" y="-57.8" font-family="Times,serif" font-size="14.00">type</text>
</g>
<!-- name -->
<g id="node6" class="node">
<title>name</title>
<ellipse fill="none" stroke="blue" cx="604.99" cy="-18" rx="56.59" ry="18"/>
<text text-anchor="middle" x="604.99" y="-14.3" font-family="Times,serif" font-size="14.00">label type</text>
</g>
<!-- data&#45;&gt;name -->
<g id="edge5" class="edge">
<title>data&#45;&gt;name</title>
<path fill="none" stroke="blue" d="M733.5,-91.82C709.23,-78.07 669.37,-55.48 640.46,-39.1"/>
<polygon fill="blue" stroke="blue" points="641.92,-35.91 631.5,-34.02 638.47,-42 641.92,-35.91"/>
<text text-anchor="middle" x="708.99" y="-57.8" font-family="Times,serif" font-size="14.00">name</text>
</g>
<!-- description -->
<g id="node7" class="node">
<title>description</title>
<ellipse fill="none" stroke="blue" cx="754.99" cy="-18" rx="75.29" ry="18"/>
<text text-anchor="middle" x="754.99" y="-14.3" font-family="Times,serif" font-size="14.00">narrative text</text>
</g>
<!-- data&#45;&gt;description -->
<g id="edge6" class="edge">
<title>data&#45;&gt;description</title>
<path fill="none" stroke="blue" d="M754.99,-86.8C754.99,-75.16 754.99,-59.55 754.99,-46.24"/>
<polygon fill="blue" stroke="blue" points="758.49,-46.18 754.99,-36.18 751.49,-46.18 758.49,-46.18"/>
<text text-anchor="middle" x="795.49" y="-57.8" font-family="Times,serif" font-size="14.00">description</text>
</g>
<!-- source -->
<g id="node8" class="node">
<title>source</title>
<ellipse fill="none" stroke="blue" cx="904.99" cy="-18" rx="56.59" ry="18"/>
<text text-anchor="middle" x="904.99" y="-14.3" font-family="Times,serif" font-size="14.00">label type</text>
</g>
<!-- data&#45;&gt;source -->
<g id="edge7" class="edge">
<title>data&#45;&gt;source</title>
<path fill="none" stroke="blue" d="M779.49,-93.49C784.61,-91.32 789.97,-89.07 794.99,-87 814.9,-78.79 821.28,-79.67 839.99,-69 853.63,-61.23 867.57,-50.88 879.03,-41.61"/>
<polygon fill="blue" stroke="blue" points="881.42,-44.18 886.9,-35.11 876.96,-38.78 881.42,-44.18"/>
<text text-anchor="middle" x="886.99" y="-57.8" font-family="Times,serif" font-size="14.00">source</text>
</g>
<!-- provided by -->
<g id="node9" class="node">
<title>provided by</title>
<ellipse fill="none" stroke="blue" cx="1016.99" cy="-18" rx="37.09" ry="18"/>
<text text-anchor="middle" x="1016.99" y="-14.3" font-family="Times,serif" font-size="14.00">agent</text>
</g>
<!-- data&#45;&gt;provided by -->
<g id="edge8" class="edge">
<title>data&#45;&gt;provided by</title>
<path fill="none" stroke="blue" d="M778.32,-92.92C783.7,-90.69 789.47,-88.56 794.99,-87 846.89,-72.34 863.51,-85.06 914.99,-69 939.86,-61.24 966.22,-48.18 985.91,-37.35"/>
<polygon fill="blue" stroke="blue" points="987.72,-40.35 994.73,-32.41 984.3,-34.24 987.72,-40.35"/>
<text text-anchor="middle" x="995.49" y="-57.8" font-family="Times,serif" font-size="14.00">provided by</text>
</g>
<!-- has attribute -->
<g id="node10" class="node">
<title>has attribute</title>
<ellipse fill="none" stroke="blue" cx="1123.99" cy="-18" rx="51.99" ry="18"/>
<text text-anchor="middle" x="1123.99" y="-14.3" font-family="Times,serif" font-size="14.00">attribute</text>
</g>
<!-- data&#45;&gt;has attribute -->
<g id="edge9" class="edge">
<title>data&#45;&gt;has attribute</title>
<path fill="none" stroke="blue" d="M778.24,-92.6C783.63,-90.39 789.42,-88.35 794.99,-87 901.97,-61.12 937.17,-102.59 1041.99,-69 1061.24,-62.83 1080.64,-51.3 1095.74,-40.86"/>
<polygon fill="blue" stroke="blue" points="1097.99,-43.55 1104.1,-34.89 1093.92,-37.85 1097.99,-43.55"/>
<text text-anchor="middle" x="1120.99" y="-57.8" font-family="Times,serif" font-size="14.00">has attribute</text>
</g>
<!-- category -->
<g id="node11" class="node">
<title>category</title>
<ellipse fill="none" stroke="black" cx="1244.99" cy="-18" rx="51.19" ry="18"/>
<text text-anchor="middle" x="1244.99" y="-14.3" font-family="Times,serif" font-size="14.00">category</text>
</g>
<!-- data&#45;&gt;category -->
<g id="edge10" class="edge">
<title>data&#45;&gt;category</title>
<path fill="none" stroke="blue" d="M777.79,-92.68C783.3,-90.4 789.25,-88.31 794.99,-87 876.75,-68.3 1092.48,-95.71 1171.99,-69 1189.31,-63.18 1206.29,-51.98 1219.52,-41.64"/>
<polygon fill="blue" stroke="blue" points="1222.08,-44.07 1227.63,-35.05 1217.66,-38.64 1222.08,-44.07"/>
<text text-anchor="middle" x="1232.49" y="-57.8" font-family="Times,serif" font-size="14.00">category</text>
</g>
<!-- in taxon -->
<g id="node13" class="node">
<title>in taxon</title>
<ellipse fill="none" stroke="blue" cx="1386.99" cy="-18" rx="72.59" ry="18"/>
<text text-anchor="middle" x="1386.99" y="-14.3" font-family="Times,serif" font-size="14.00">system taxon</text>
</g>
<!-- data&#45;&gt;in taxon -->
<g id="edge11" class="edge">
<title>data&#45;&gt;in taxon</title>
<path fill="none" stroke="blue" d="M777.78,-92.64C783.29,-90.36 789.25,-88.28 794.99,-87 1000.3,-41.1 1062.59,-114.48 1267.99,-69 1296.26,-62.74 1326.3,-50.06 1349.13,-39.04"/>
<polygon fill="blue" stroke="blue" points="1350.71,-42.16 1358.13,-34.6 1347.62,-35.89 1350.71,-42.16"/>
<text text-anchor="middle" x="1343.99" y="-57.8" font-family="Times,serif" font-size="14.00">in taxon</text>
</g>
<!-- named thing_category -->
<g id="node12" class="node">
<title>named thing_category</title>
<ellipse fill="none" stroke="blue" cx="873.99" cy="-105" rx="69.59" ry="18"/>
<text text-anchor="middle" x="873.99" y="-101.3" font-family="Times,serif" font-size="14.00">named thing</text>
</g>
</g>
</svg>
