<?xml version="1.0" encoding="UTF-8" standalone="no"?>
<!DOCTYPE svg PUBLIC "-//W3C//DTD SVG 1.1//EN"
 "http://www.w3.org/Graphics/SVG/1.1/DTD/svg11.dtd">
<!-- Generated by graphviz version 2.43.0 (0)
 -->
<!-- Title: %3 Pages: 1 -->
<svg width="1959pt" height="131pt"
 viewBox="0.00 0.00 1959.19 131.00" xmlns="http://www.w3.org/2000/svg" xmlns:xlink="http://www.w3.org/1999/xlink">
<g id="graph0" class="graph" transform="scale(1 1) rotate(0) translate(4 127)">
<title>%3</title>
<polygon fill="white" stroke="transparent" points="-4,4 -4,-127 1955.19,-127 1955.19,4 -4,4"/>
<!-- dataset version -->
<g id="node1" class="node">
<title>dataset version</title>
<ellipse fill="none" stroke="black" cx="982.5" cy="-105" rx="82.59" ry="18"/>
<text text-anchor="middle" x="982.5" y="-101.3" font-family="Times,serif" font-size="14.00">dataset version</text>
</g>
<!-- dataset -->
<g id="node2" class="node">
<title>dataset</title>
<ellipse fill="none" stroke="black" cx="45.5" cy="-18" rx="45.49" ry="18"/>
<text text-anchor="middle" x="45.5" y="-14.3" font-family="Times,serif" font-size="14.00">dataset</text>
</g>
<!-- dataset version&#45;&gt;dataset -->
<g id="edge1" class="edge">
<title>dataset version&#45;&gt;dataset</title>
<path fill="none" stroke="black" d="M900.97,-102.17C734.77,-98.1 361.83,-87.23 235.5,-69 184.21,-61.6 126.88,-45.37 88.74,-33.4"/>
<polygon fill="black" stroke="black" points="89.59,-30 78.99,-30.31 87.46,-36.67 89.59,-30"/>
<text text-anchor="middle" x="249.5" y="-57.8" font-family="Times,serif" font-size="14.00">is_a</text>
</g>
<!-- id -->
<g id="node3" class="node">
<title>id</title>
<ellipse fill="none" stroke="blue" cx="147.5" cy="-18" rx="38.19" ry="18"/>
<text text-anchor="middle" x="147.5" y="-14.3" font-family="Times,serif" font-size="14.00">string</text>
</g>
<!-- dataset version&#45;&gt;id -->
<g id="edge2" class="edge">
<title>dataset version&#45;&gt;id</title>
<path fill="none" stroke="blue" d="M900.23,-103.27C780.06,-101.33 549.69,-94.31 355.5,-69 283.5,-59.62 265.44,-55.5 195.5,-36 192.39,-35.13 189.19,-34.17 185.99,-33.15"/>
<polygon fill="blue" stroke="blue" points="187.08,-29.82 176.48,-29.98 184.86,-36.46 187.08,-29.82"/>
<text text-anchor="middle" x="362.5" y="-57.8" font-family="Times,serif" font-size="14.00">id</text>
</g>
<!-- iri -->
<g id="node4" class="node">
<title>iri</title>
<ellipse fill="none" stroke="blue" cx="248.5" cy="-18" rx="44.39" ry="18"/>
<text text-anchor="middle" x="248.5" y="-14.3" font-family="Times,serif" font-size="14.00">iri type</text>
</g>
<!-- dataset version&#45;&gt;iri -->
<g id="edge3" class="edge">
<title>dataset version&#45;&gt;iri</title>
<path fill="none" stroke="blue" d="M900.32,-102.87C794.25,-100.45 604.2,-92.86 443.5,-69 390.39,-61.12 330.79,-44.69 291.63,-32.81"/>
<polygon fill="blue" stroke="blue" points="292.47,-29.41 281.88,-29.82 290.41,-36.1 292.47,-29.41"/>
<text text-anchor="middle" x="451.5" y="-57.8" font-family="Times,serif" font-size="14.00">iri</text>
</g>
<!-- type -->
<g id="node5" class="node">
<title>type</title>
<ellipse fill="none" stroke="blue" cx="349.5" cy="-18" rx="38.19" ry="18"/>
<text text-anchor="middle" x="349.5" y="-14.3" font-family="Times,serif" font-size="14.00">string</text>
</g>
<!-- dataset version&#45;&gt;type -->
<g id="edge4" class="edge">
<title>dataset version&#45;&gt;type</title>
<path fill="none" stroke="blue" d="M901.84,-101.16C812.92,-97.2 665.85,-88.22 540.5,-69 475.6,-59.05 459.48,-54.53 396.5,-36 393.59,-35.15 390.61,-34.21 387.62,-33.23"/>
<polygon fill="blue" stroke="blue" points="388.74,-29.91 378.15,-29.99 386.48,-36.54 388.74,-29.91"/>
<text text-anchor="middle" x="556.5" y="-57.8" font-family="Times,serif" font-size="14.00">type</text>
</g>
<!-- name -->
<g id="node6" class="node">
<title>name</title>
<ellipse fill="none" stroke="blue" cx="462.5" cy="-18" rx="56.59" ry="18"/>
<text text-anchor="middle" x="462.5" y="-14.3" font-family="Times,serif" font-size="14.00">label type</text>
</g>
<!-- dataset version&#45;&gt;name -->
<g id="edge5" class="edge">
<title>dataset version&#45;&gt;name</title>
<path fill="none" stroke="blue" d="M903.26,-99.83C833.37,-95.22 729.02,-86.08 639.5,-69 594.77,-60.47 544.95,-45.93 509.59,-34.72"/>
<polygon fill="blue" stroke="blue" points="510.61,-31.37 500.02,-31.65 508.48,-38.04 510.61,-31.37"/>
<text text-anchor="middle" x="659.5" y="-57.8" font-family="Times,serif" font-size="14.00">name</text>
</g>
<!-- description -->
<g id="node7" class="node">
<title>description</title>
<ellipse fill="none" stroke="blue" cx="612.5" cy="-18" rx="75.29" ry="18"/>
<text text-anchor="middle" x="612.5" y="-14.3" font-family="Times,serif" font-size="14.00">narrative text</text>
</g>
<!-- dataset version&#45;&gt;description -->
<g id="edge6" class="edge">
<title>dataset version&#45;&gt;description</title>
<path fill="none" stroke="blue" d="M903.94,-99.31C851.96,-94.77 782.71,-85.95 723.5,-69 698.3,-61.79 671.47,-49.83 650.5,-39.42"/>
<polygon fill="blue" stroke="blue" points="651.8,-36.16 641.3,-34.76 648.64,-42.4 651.8,-36.16"/>
<text text-anchor="middle" x="764" y="-57.8" font-family="Times,serif" font-size="14.00">description</text>
</g>
<!-- source -->
<g id="node8" class="node">
<title>source</title>
<ellipse fill="none" stroke="blue" cx="762.5" cy="-18" rx="56.59" ry="18"/>
<text text-anchor="middle" x="762.5" y="-14.3" font-family="Times,serif" font-size="14.00">label type</text>
</g>
<!-- dataset version&#45;&gt;source -->
<g id="edge7" class="edge">
<title>dataset version&#45;&gt;source</title>
<path fill="none" stroke="blue" d="M916.07,-94.29C889.33,-88.92 858.69,-80.85 832.5,-69 817.02,-62 801.47,-51.35 788.98,-41.67"/>
<polygon fill="blue" stroke="blue" points="790.85,-38.69 780.85,-35.19 786.49,-44.16 790.85,-38.69"/>
<text text-anchor="middle" x="856.5" y="-57.8" font-family="Times,serif" font-size="14.00">source</text>
</g>
<!-- provided by -->
<g id="node9" class="node">
<title>provided by</title>
<ellipse fill="none" stroke="blue" cx="874.5" cy="-18" rx="37.09" ry="18"/>
<text text-anchor="middle" x="874.5" y="-14.3" font-family="Times,serif" font-size="14.00">agent</text>
</g>
<!-- dataset version&#45;&gt;provided by -->
<g id="edge8" class="edge">
<title>dataset version&#45;&gt;provided by</title>
<path fill="none" stroke="blue" d="M928.77,-91.08C915.95,-85.93 903.18,-78.8 893.5,-69 887.28,-62.71 883.06,-54.18 880.21,-45.94"/>
<polygon fill="blue" stroke="blue" points="883.53,-44.83 877.37,-36.21 876.81,-46.79 883.53,-44.83"/>
<text text-anchor="middle" x="936" y="-57.8" font-family="Times,serif" font-size="14.00">provided by</text>
</g>
<!-- has attribute -->
<g id="node10" class="node">
<title>has attribute</title>
<ellipse fill="none" stroke="blue" cx="981.5" cy="-18" rx="51.99" ry="18"/>
<text text-anchor="middle" x="981.5" y="-14.3" font-family="Times,serif" font-size="14.00">attribute</text>
</g>
<!-- dataset version&#45;&gt;has attribute -->
<g id="edge9" class="edge">
<title>dataset version&#45;&gt;has attribute</title>
<path fill="none" stroke="blue" d="M982.29,-86.8C982.16,-75.16 981.97,-59.55 981.82,-46.24"/>
<polygon fill="blue" stroke="blue" points="985.32,-46.13 981.7,-36.18 978.32,-46.22 985.32,-46.13"/>
<text text-anchor="middle" x="1029.5" y="-57.8" font-family="Times,serif" font-size="14.00">has attribute</text>
</g>
<!-- category -->
<g id="node11" class="node">
<title>category</title>
<ellipse fill="none" stroke="black" cx="1102.5" cy="-18" rx="51.19" ry="18"/>
<text text-anchor="middle" x="1102.5" y="-14.3" font-family="Times,serif" font-size="14.00">category</text>
</g>
<!-- dataset version&#45;&gt;category -->
<g id="edge10" class="edge">
<title>dataset version&#45;&gt;category</title>
<path fill="none" stroke="blue" d="M1040.21,-92.02C1054.68,-86.84 1069.26,-79.46 1080.5,-69 1087.18,-62.78 1091.95,-54.16 1095.3,-45.83"/>
<polygon fill="blue" stroke="blue" points="1098.62,-46.94 1098.61,-36.34 1092.01,-44.63 1098.62,-46.94"/>
<text text-anchor="middle" x="1123" y="-57.8" font-family="Times,serif" font-size="14.00">category</text>
</g>
<!-- license -->
<g id="node13" class="node">
<title>license</title>
<ellipse fill="none" stroke="blue" cx="1210.5" cy="-18" rx="38.19" ry="18"/>
<text text-anchor="middle" x="1210.5" y="-14.3" font-family="Times,serif" font-size="14.00">string</text>
</g>
<!-- dataset version&#45;&gt;license -->
<g id="edge11" class="edge">
<title>dataset version&#45;&gt;license</title>
<path fill="none" stroke="blue" d="M1042.3,-92.51C1092.28,-82.85 1155.83,-70.39 1158.5,-69 1170.64,-62.66 1181.9,-52.61 1190.81,-43.18"/>
<polygon fill="blue" stroke="blue" points="1193.64,-45.27 1197.72,-35.5 1188.43,-40.6 1193.64,-45.27"/>
<text text-anchor="middle" x="1204.5" y="-57.8" font-family="Times,serif" font-size="14.00">license</text>
</g>
<!-- rights -->
<g id="node14" class="node">
<title>rights</title>
<ellipse fill="none" stroke="blue" cx="1305.5" cy="-18" rx="38.19" ry="18"/>
<text text-anchor="middle" x="1305.5" y="-14.3" font-family="Times,serif" font-size="14.00">string</text>
</g>
<!-- dataset version&#45;&gt;rights -->
<g id="edge12" class="edge">
<title>dataset version&#45;&gt;rights</title>
<path fill="none" stroke="blue" d="M1041.62,-92.31C1052.21,-90.4 1063.16,-88.54 1073.5,-87 1144.27,-76.42 1166.51,-94.18 1233.5,-69 1250.56,-62.59 1267.41,-51.23 1280.52,-40.96"/>
<polygon fill="blue" stroke="blue" points="1283.01,-43.45 1288.56,-34.43 1278.59,-38.02 1283.01,-43.45"/>
<text text-anchor="middle" x="1283" y="-57.8" font-family="Times,serif" font-size="14.00">rights</text>
</g>
<!-- format -->
<g id="node15" class="node">
<title>format</title>
<ellipse fill="none" stroke="blue" cx="1400.5" cy="-18" rx="38.19" ry="18"/>
<text text-anchor="middle" x="1400.5" y="-14.3" font-family="Times,serif" font-size="14.00">string</text>
</g>
<!-- dataset version&#45;&gt;format -->
<g id="edge13" class="edge">
<title>dataset version&#45;&gt;format</title>
<path fill="none" stroke="blue" d="M1040.6,-92.18C1051.5,-90.23 1062.82,-88.4 1073.5,-87 1177.35,-73.36 1208.03,-98.67 1308.5,-69 1330.91,-62.38 1354.02,-49.8 1371.47,-38.91"/>
<polygon fill="blue" stroke="blue" points="1373.52,-41.75 1380.05,-33.41 1369.74,-35.86 1373.52,-41.75"/>
<text text-anchor="middle" x="1368" y="-57.8" font-family="Times,serif" font-size="14.00">format</text>
</g>
<!-- creation date -->
<g id="node16" class="node">
<title>creation date</title>
<ellipse fill="none" stroke="blue" cx="1488.5" cy="-18" rx="31.4" ry="18"/>
<text text-anchor="middle" x="1488.5" y="-14.3" font-family="Times,serif" font-size="14.00">date</text>
</g>
<!-- dataset version&#45;&gt;creation date -->
<g id="edge14" class="edge">
<title>dataset version&#45;&gt;creation date</title>
<path fill="none" stroke="blue" d="M1040.09,-92.08C1051.14,-90.12 1062.65,-88.31 1073.5,-87 1144.87,-78.38 1327.34,-88.64 1396.5,-69 1419.58,-62.44 1443.31,-49.36 1460.9,-38.22"/>
<polygon fill="blue" stroke="blue" points="1463.03,-41.01 1469.49,-32.61 1459.2,-35.14 1463.03,-41.01"/>
<text text-anchor="middle" x="1479" y="-57.8" font-family="Times,serif" font-size="14.00">creation date</text>
</g>
<!-- has dataset -->
<g id="node17" class="node">
<title>has dataset</title>
<ellipse fill="none" stroke="blue" cx="1583.5" cy="-18" rx="45.49" ry="18"/>
<text text-anchor="middle" x="1583.5" y="-14.3" font-family="Times,serif" font-size="14.00">dataset</text>
</g>
<!-- dataset version&#45;&gt;has dataset -->
<g id="edge15" class="edge">
<title>dataset version&#45;&gt;has dataset</title>
<path fill="none" stroke="blue" d="M1040.07,-91.94C1051.12,-89.99 1062.64,-88.22 1073.5,-87 1123.99,-81.32 1483.65,-88.69 1530.5,-69 1543.56,-63.51 1555.34,-53.25 1564.46,-43.44"/>
<polygon fill="blue" stroke="blue" points="1567.22,-45.6 1571.18,-35.77 1561.96,-40.99 1567.22,-45.6"/>
<text text-anchor="middle" x="1594" y="-57.8" font-family="Times,serif" font-size="14.00">has dataset</text>
</g>
<!-- ingest date -->
<g id="node18" class="node">
<title>ingest date</title>
<ellipse fill="none" stroke="blue" cx="1689.5" cy="-18" rx="38.19" ry="18"/>
<text text-anchor="middle" x="1689.5" y="-14.3" font-family="Times,serif" font-size="14.00">string</text>
</g>
<!-- dataset version&#45;&gt;ingest date -->
<g id="edge16" class="edge">
<title>dataset version&#45;&gt;ingest date</title>
<path fill="none" stroke="blue" d="M1039.58,-91.96C1050.78,-89.99 1062.47,-88.2 1073.5,-87 1136.05,-80.2 1581.75,-94 1639.5,-69 1652.17,-63.51 1663.36,-53.19 1671.92,-43.35"/>
<polygon fill="blue" stroke="blue" points="1674.87,-45.27 1678.47,-35.3 1669.45,-40.85 1674.87,-45.27"/>
<text text-anchor="middle" x="1701" y="-57.8" font-family="Times,serif" font-size="14.00">ingest date</text>
</g>
<!-- has distribution -->
<g id="node19" class="node">
<title>has distribution</title>
<ellipse fill="none" stroke="blue" cx="1848.5" cy="-18" rx="102.88" ry="18"/>
<text text-anchor="middle" x="1848.5" y="-14.3" font-family="Times,serif" font-size="14.00">dataset distribution</text>
</g>
<!-- dataset version&#45;&gt;has distribution -->
<g id="edge17" class="edge">
<title>dataset version&#45;&gt;has distribution</title>
<path fill="none" stroke="blue" d="M1039.57,-91.91C1050.77,-89.94 1062.47,-88.17 1073.5,-87 1222.05,-71.23 1600.37,-104.42 1745.5,-69 1769.5,-63.14 1794.48,-51.18 1813.83,-40.43"/>
<polygon fill="blue" stroke="blue" points="1815.62,-43.44 1822.57,-35.44 1812.15,-37.36 1815.62,-43.44"/>
<text text-anchor="middle" x="1843.5" y="-57.8" font-family="Times,serif" font-size="14.00">has distribution</text>
</g>
<!-- named thing_category -->
<g id="node12" class="node">
<title>named thing_category</title>
<ellipse fill="none" stroke="blue" cx="1152.5" cy="-105" rx="69.59" ry="18"/>
<text text-anchor="middle" x="1152.5" y="-101.3" font-family="Times,serif" font-size="14.00">named thing</text>
</g>
</g>
</svg>
