<?xml version="1.0" encoding="UTF-8" standalone="no"?>
<!DOCTYPE svg PUBLIC "-//W3C//DTD SVG 1.1//EN"
 "http://www.w3.org/Graphics/SVG/1.1/DTD/svg11.dtd">
<!-- Generated by graphviz version 2.43.0 (0)
 -->
<!-- Title: %3 Pages: 1 -->
<svg width="1768pt" height="131pt"
 viewBox="0.00 0.00 1767.63 131.00" xmlns="http://www.w3.org/2000/svg" xmlns:xlink="http://www.w3.org/1999/xlink">
<g id="graph0" class="graph" transform="scale(1 1) rotate(0) translate(4 127)">
<title>%3</title>
<polygon fill="white" stroke="transparent" points="-4,4 -4,-127 1763.63,-127 1763.63,4 -4,4"/>
<!-- death -->
<g id="node1" class="node">
<title>death</title>
<ellipse fill="none" stroke="black" cx="902.69" cy="-105" rx="37.09" ry="18"/>
<text text-anchor="middle" x="902.69" y="-101.3" font-family="Times,serif" font-size="14.00">death</text>
</g>
<!-- computational process -->
<g id="node2" class="node">
<title>computational process</title>
<ellipse fill="none" stroke="black" cx="115.69" cy="-18" rx="115.88" ry="18"/>
<text text-anchor="middle" x="115.69" y="-14.3" font-family="Times,serif" font-size="14.00">computational process</text>
</g>
<!-- death&#45;&gt;computational process -->
<g id="edge1" class="edge">
<title>death&#45;&gt;computational process</title>
<path fill="none" stroke="black" d="M865.66,-103.15C779.19,-100.8 557.39,-92.78 373.69,-69 310.38,-60.8 239.2,-46.63 187.67,-35.46"/>
<polygon fill="black" stroke="black" points="188.15,-31.98 177.63,-33.27 186.66,-38.82 188.15,-31.98"/>
<text text-anchor="middle" x="387.69" y="-57.8" font-family="Times,serif" font-size="14.00">is_a</text>
</g>
<!-- id -->
<g id="node3" class="node">
<title>id</title>
<ellipse fill="none" stroke="blue" cx="287.69" cy="-18" rx="38.19" ry="18"/>
<text text-anchor="middle" x="287.69" y="-14.3" font-family="Times,serif" font-size="14.00">string</text>
</g>
<!-- death&#45;&gt;id -->
<g id="edge2" class="edge">
<title>death&#45;&gt;id</title>
<path fill="none" stroke="blue" d="M865.95,-102.4C793.86,-98.91 628.95,-89.28 491.69,-69 421.58,-58.64 403.91,-55.2 335.69,-36 332.58,-35.13 329.39,-34.15 326.19,-33.13"/>
<polygon fill="blue" stroke="blue" points="327.28,-29.81 316.68,-29.96 325.06,-36.45 327.28,-29.81"/>
<text text-anchor="middle" x="498.69" y="-57.8" font-family="Times,serif" font-size="14.00">id</text>
</g>
<!-- iri -->
<g id="node4" class="node">
<title>iri</title>
<ellipse fill="none" stroke="blue" cx="388.69" cy="-18" rx="44.39" ry="18"/>
<text text-anchor="middle" x="388.69" y="-14.3" font-family="Times,serif" font-size="14.00">iri type</text>
</g>
<!-- death&#45;&gt;iri -->
<g id="edge3" class="edge">
<title>death&#45;&gt;iri</title>
<path fill="none" stroke="blue" d="M865.9,-101.49C806.02,-97.06 683.89,-86.63 581.69,-69 519.12,-58.2 503.9,-52.88 442.69,-36 439.12,-35.01 435.42,-33.95 431.72,-32.85"/>
<polygon fill="blue" stroke="blue" points="432.58,-29.45 421.99,-29.9 430.54,-36.15 432.58,-29.45"/>
<text text-anchor="middle" x="589.69" y="-57.8" font-family="Times,serif" font-size="14.00">iri</text>
</g>
<!-- type -->
<g id="node5" class="node">
<title>type</title>
<ellipse fill="none" stroke="blue" cx="489.69" cy="-18" rx="38.19" ry="18"/>
<text text-anchor="middle" x="489.69" y="-14.3" font-family="Times,serif" font-size="14.00">string</text>
</g>
<!-- death&#45;&gt;type -->
<g id="edge4" class="edge">
<title>death&#45;&gt;type</title>
<path fill="none" stroke="blue" d="M867.14,-99.67C821.46,-93.86 739.82,-82.7 670.69,-69 610.52,-57.08 595.39,-53.79 536.69,-36 533.93,-35.16 531.09,-34.26 528.24,-33.31"/>
<polygon fill="blue" stroke="blue" points="529.21,-29.94 518.61,-30 526.93,-36.56 529.21,-29.94"/>
<text text-anchor="middle" x="686.69" y="-57.8" font-family="Times,serif" font-size="14.00">type</text>
</g>
<!-- name -->
<g id="node6" class="node">
<title>name</title>
<ellipse fill="none" stroke="blue" cx="602.69" cy="-18" rx="56.59" ry="18"/>
<text text-anchor="middle" x="602.69" y="-14.3" font-family="Times,serif" font-size="14.00">label type</text>
</g>
<!-- death&#45;&gt;name -->
<g id="edge5" class="edge">
<title>death&#45;&gt;name</title>
<path fill="none" stroke="blue" d="M869.17,-97.2C838.41,-90.72 791.7,-80.32 751.69,-69 716.54,-59.05 677.41,-45.84 648.07,-35.49"/>
<polygon fill="blue" stroke="blue" points="649.11,-32.15 638.52,-32.1 646.77,-38.74 649.11,-32.15"/>
<text text-anchor="middle" x="771.69" y="-57.8" font-family="Times,serif" font-size="14.00">name</text>
</g>
<!-- description -->
<g id="node7" class="node">
<title>description</title>
<ellipse fill="none" stroke="blue" cx="752.69" cy="-18" rx="75.29" ry="18"/>
<text text-anchor="middle" x="752.69" y="-14.3" font-family="Times,serif" font-size="14.00">narrative text</text>
</g>
<!-- death&#45;&gt;description -->
<g id="edge6" class="edge">
<title>death&#45;&gt;description</title>
<path fill="none" stroke="blue" d="M873.07,-94.01C856.3,-87.82 835.25,-79.13 817.69,-69 804.29,-61.27 790.56,-51.1 779.19,-41.95"/>
<polygon fill="blue" stroke="blue" points="781.31,-39.16 771.37,-35.52 776.87,-44.57 781.31,-39.16"/>
<text text-anchor="middle" x="858.19" y="-57.8" font-family="Times,serif" font-size="14.00">description</text>
</g>
<!-- source -->
<g id="node8" class="node">
<title>source</title>
<ellipse fill="none" stroke="blue" cx="902.69" cy="-18" rx="56.59" ry="18"/>
<text text-anchor="middle" x="902.69" y="-14.3" font-family="Times,serif" font-size="14.00">label type</text>
</g>
<!-- death&#45;&gt;source -->
<g id="edge7" class="edge">
<title>death&#45;&gt;source</title>
<path fill="none" stroke="blue" d="M902.69,-86.8C902.69,-75.16 902.69,-59.55 902.69,-46.24"/>
<polygon fill="blue" stroke="blue" points="906.19,-46.18 902.69,-36.18 899.19,-46.18 906.19,-46.18"/>
<text text-anchor="middle" x="926.69" y="-57.8" font-family="Times,serif" font-size="14.00">source</text>
</g>
<!-- provided by -->
<g id="node9" class="node">
<title>provided by</title>
<ellipse fill="none" stroke="blue" cx="1014.69" cy="-18" rx="37.09" ry="18"/>
<text text-anchor="middle" x="1014.69" y="-14.3" font-family="Times,serif" font-size="14.00">agent</text>
</g>
<!-- death&#45;&gt;provided by -->
<g id="edge8" class="edge">
<title>death&#45;&gt;provided by</title>
<path fill="none" stroke="blue" d="M924.28,-90.18C933.77,-83.93 944.94,-76.31 954.69,-69 966.53,-60.12 979.19,-49.72 989.8,-40.71"/>
<polygon fill="blue" stroke="blue" points="992.16,-43.3 997.48,-34.14 987.61,-37.98 992.16,-43.3"/>
<text text-anchor="middle" x="1016.19" y="-57.8" font-family="Times,serif" font-size="14.00">provided by</text>
</g>
<!-- has attribute -->
<g id="node10" class="node">
<title>has attribute</title>
<ellipse fill="none" stroke="blue" cx="1121.69" cy="-18" rx="51.99" ry="18"/>
<text text-anchor="middle" x="1121.69" y="-14.3" font-family="Times,serif" font-size="14.00">attribute</text>
</g>
<!-- death&#45;&gt;has attribute -->
<g id="edge9" class="edge">
<title>death&#45;&gt;has attribute</title>
<path fill="none" stroke="blue" d="M930.14,-92.85C936.18,-90.68 942.59,-88.59 948.69,-87 998.32,-74.05 1016.06,-90.37 1062.69,-69 1076.31,-62.76 1089.26,-52.46 1099.54,-42.83"/>
<polygon fill="blue" stroke="blue" points="1102.16,-45.17 1106.85,-35.67 1097.26,-40.17 1102.16,-45.17"/>
<text text-anchor="middle" x="1133.69" y="-57.8" font-family="Times,serif" font-size="14.00">has attribute</text>
</g>
<!-- category -->
<g id="node11" class="node">
<title>category</title>
<ellipse fill="none" stroke="black" cx="1242.69" cy="-18" rx="51.19" ry="18"/>
<text text-anchor="middle" x="1242.69" y="-14.3" font-family="Times,serif" font-size="14.00">category</text>
</g>
<!-- death&#45;&gt;category -->
<g id="edge10" class="edge">
<title>death&#45;&gt;category</title>
<path fill="none" stroke="blue" d="M930.05,-92.48C936.09,-90.33 942.53,-88.34 948.69,-87 1051.46,-64.55 1087.55,-109.36 1184.69,-69 1198.58,-63.23 1211.52,-52.79 1221.64,-42.94"/>
<polygon fill="blue" stroke="blue" points="1224.32,-45.21 1228.8,-35.61 1219.31,-40.32 1224.32,-45.21"/>
<text text-anchor="middle" x="1240.19" y="-57.8" font-family="Times,serif" font-size="14.00">category</text>
</g>
<!-- has input -->
<g id="node13" class="node">
<title>has input</title>
<ellipse fill="none" stroke="blue" cx="1381.69" cy="-18" rx="69.59" ry="18"/>
<text text-anchor="middle" x="1381.69" y="-14.3" font-family="Times,serif" font-size="14.00">named thing</text>
</g>
<!-- death&#45;&gt;has input -->
<g id="edge11" class="edge">
<title>death&#45;&gt;has input</title>
<path fill="none" stroke="blue" d="M929.54,-92.55C935.73,-90.35 942.35,-88.31 948.69,-87 1091.21,-57.44 1134.58,-104.71 1275.69,-69 1300.66,-62.68 1326.86,-50.38 1346.97,-39.56"/>
<polygon fill="blue" stroke="blue" points="1348.68,-42.62 1355.75,-34.72 1345.3,-36.49 1348.68,-42.62"/>
<text text-anchor="middle" x="1349.19" y="-57.8" font-family="Times,serif" font-size="14.00">has input</text>
</g>
<!-- has output -->
<g id="node14" class="node">
<title>has output</title>
<ellipse fill="none" stroke="blue" cx="1538.69" cy="-18" rx="69.59" ry="18"/>
<text text-anchor="middle" x="1538.69" y="-14.3" font-family="Times,serif" font-size="14.00">named thing</text>
</g>
<!-- death&#45;&gt;has output -->
<g id="edge12" class="edge">
<title>death&#45;&gt;has output</title>
<path fill="none" stroke="blue" d="M929.52,-92.49C935.71,-90.28 942.34,-88.27 948.69,-87 1139.73,-48.76 1194.99,-103.77 1386.69,-69 1423.65,-62.3 1463.97,-48.73 1493.79,-37.41"/>
<polygon fill="blue" stroke="blue" points="1495.41,-40.54 1503.48,-33.67 1492.89,-34.01 1495.41,-40.54"/>
<text text-anchor="middle" x="1481.19" y="-57.8" font-family="Times,serif" font-size="14.00">has output</text>
</g>
<!-- enabled by -->
<g id="node15" class="node">
<title>enabled by</title>
<ellipse fill="none" stroke="blue" cx="1692.69" cy="-18" rx="66.89" ry="18"/>
<text text-anchor="middle" x="1692.69" y="-14.3" font-family="Times,serif" font-size="14.00">cyber entity</text>
</g>
<!-- death&#45;&gt;enabled by -->
<g id="edge13" class="edge">
<title>death&#45;&gt;enabled by</title>
<path fill="none" stroke="blue" d="M929.51,-92.44C935.7,-90.24 942.34,-88.24 948.69,-87 1199.64,-38.05 1271.25,-109.6 1523.69,-69 1565.89,-62.21 1612.37,-47.94 1645.88,-36.38"/>
<polygon fill="blue" stroke="blue" points="1647.13,-39.65 1655.41,-33.04 1644.81,-33.04 1647.13,-39.65"/>
<text text-anchor="middle" x="1630.19" y="-57.8" font-family="Times,serif" font-size="14.00">enabled by</text>
</g>
<!-- named thing_category -->
<g id="node12" class="node">
<title>named thing_category</title>
<ellipse fill="none" stroke="blue" cx="1027.69" cy="-105" rx="69.59" ry="18"/>
<text text-anchor="middle" x="1027.69" y="-101.3" font-family="Times,serif" font-size="14.00">named thing</text>
</g>
</g>
</svg>
