<?xml version="1.0" encoding="UTF-8" standalone="no"?>
<!DOCTYPE svg PUBLIC "-//W3C//DTD SVG 1.1//EN"
 "http://www.w3.org/Graphics/SVG/1.1/DTD/svg11.dtd">
<!-- Generated by graphviz version 2.43.0 (0)
 -->
<!-- Title: %3 Pages: 1 -->
<svg width="2542pt" height="291pt"
 viewBox="0.00 0.00 2542.22 291.00" xmlns="http://www.w3.org/2000/svg" xmlns:xlink="http://www.w3.org/1999/xlink">
<g id="graph0" class="graph" transform="scale(1 1) rotate(0) translate(4 287)">
<title>%3</title>
<polygon fill="white" stroke="transparent" points="-4,4 -4,-287 2538.22,-287 2538.22,4 -4,4"/>
<!-- deployment entity to deployment entity ontogenic association -->
<g id="node1" class="node">
<title>deployment entity to deployment entity ontogenic association</title>
<ellipse fill="none" stroke="black" cx="1405.23" cy="-265" rx="298.15" ry="18"/>
<text text-anchor="middle" x="1405.23" y="-261.3" font-family="Times,serif" font-size="14.00">deployment entity to deployment entity ontogenic association</text>
</g>
<!-- deployment entity to deployment entity association -->
<g id="node2" class="node">
<title>deployment entity to deployment entity association</title>
<ellipse fill="none" stroke="black" cx="250.23" cy="-178" rx="250.46" ry="18"/>
<text text-anchor="middle" x="250.23" y="-174.3" font-family="Times,serif" font-size="14.00">deployment entity to deployment entity association</text>
</g>
<!-- deployment entity to deployment entity ontogenic association&#45;&gt;deployment entity to deployment entity association -->
<g id="edge1" class="edge">
<title>deployment entity to deployment entity ontogenic association&#45;&gt;deployment entity to deployment entity association</title>
<path fill="none" stroke="black" d="M1138.46,-256.93C992.56,-251.75 808.74,-243.09 645.23,-229 550.12,-220.8 442.69,-206.9 363.89,-195.83"/>
<polygon fill="black" stroke="black" points="364.33,-192.36 353.94,-194.43 363.36,-199.29 364.33,-192.36"/>
<text text-anchor="middle" x="659.23" y="-217.8" font-family="Times,serif" font-size="14.00">is_a</text>
</g>
<!-- id -->
<g id="node3" class="node">
<title>id</title>
<ellipse fill="none" stroke="blue" cx="557.23" cy="-178" rx="38.19" ry="18"/>
<text text-anchor="middle" x="557.23" y="-174.3" font-family="Times,serif" font-size="14.00">string</text>
</g>
<!-- deployment entity to deployment entity ontogenic association&#45;&gt;id -->
<g id="edge2" class="edge">
<title>deployment entity to deployment entity ontogenic association&#45;&gt;id</title>
<path fill="none" stroke="blue" d="M1131.17,-257.86C1017.86,-253.02 885.37,-244.39 766.23,-229 693.79,-219.64 675.6,-215.57 605.23,-196 602.12,-195.14 598.92,-194.17 595.72,-193.15"/>
<polygon fill="blue" stroke="blue" points="596.81,-189.83 586.21,-189.99 594.6,-196.47 596.81,-189.83"/>
<text text-anchor="middle" x="773.23" y="-217.8" font-family="Times,serif" font-size="14.00">id</text>
</g>
<!-- iri -->
<g id="node4" class="node">
<title>iri</title>
<ellipse fill="none" stroke="blue" cx="658.23" cy="-178" rx="44.39" ry="18"/>
<text text-anchor="middle" x="658.23" y="-174.3" font-family="Times,serif" font-size="14.00">iri type</text>
</g>
<!-- deployment entity to deployment entity ontogenic association&#45;&gt;iri -->
<g id="edge3" class="edge">
<title>deployment entity to deployment entity ontogenic association&#45;&gt;iri</title>
<path fill="none" stroke="blue" d="M1155.51,-255.11C1064.77,-249.93 961.6,-241.79 868.23,-229 797.58,-219.32 780.16,-214.25 711.23,-196 707.86,-195.11 704.38,-194.13 700.9,-193.11"/>
<polygon fill="blue" stroke="blue" points="701.74,-189.7 691.15,-190.14 699.7,-196.4 701.74,-189.7"/>
<text text-anchor="middle" x="876.23" y="-217.8" font-family="Times,serif" font-size="14.00">iri</text>
</g>
<!-- name -->
<g id="node5" class="node">
<title>name</title>
<ellipse fill="none" stroke="blue" cx="777.23" cy="-178" rx="56.59" ry="18"/>
<text text-anchor="middle" x="777.23" y="-174.3" font-family="Times,serif" font-size="14.00">label type</text>
</g>
<!-- deployment entity to deployment entity ontogenic association&#45;&gt;name -->
<g id="edge4" class="edge">
<title>deployment entity to deployment entity ontogenic association&#45;&gt;name</title>
<path fill="none" stroke="blue" d="M1162.31,-254.54C1093.4,-249.37 1018.54,-241.36 950.23,-229 906.41,-221.07 857.79,-206.48 823.28,-195.11"/>
<polygon fill="blue" stroke="blue" points="824.09,-191.68 813.5,-191.84 821.87,-198.32 824.09,-191.68"/>
<text text-anchor="middle" x="970.23" y="-217.8" font-family="Times,serif" font-size="14.00">name</text>
</g>
<!-- description -->
<g id="node6" class="node">
<title>description</title>
<ellipse fill="none" stroke="blue" cx="927.23" cy="-178" rx="75.29" ry="18"/>
<text text-anchor="middle" x="927.23" y="-174.3" font-family="Times,serif" font-size="14.00">narrative text</text>
</g>
<!-- deployment entity to deployment entity ontogenic association&#45;&gt;description -->
<g id="edge5" class="edge">
<title>deployment entity to deployment entity ontogenic association&#45;&gt;description</title>
<path fill="none" stroke="blue" d="M1166.68,-254.17C1121.51,-248.79 1075.02,-240.8 1032.23,-229 1008.03,-222.33 982.57,-210.35 962.79,-199.78"/>
<polygon fill="blue" stroke="blue" points="964.29,-196.62 953.84,-194.9 960.94,-202.76 964.29,-196.62"/>
<text text-anchor="middle" x="1072.73" y="-217.8" font-family="Times,serif" font-size="14.00">description</text>
</g>
<!-- source -->
<g id="node7" class="node">
<title>source</title>
<ellipse fill="none" stroke="blue" cx="1077.23" cy="-178" rx="56.59" ry="18"/>
<text text-anchor="middle" x="1077.23" y="-174.3" font-family="Times,serif" font-size="14.00">label type</text>
</g>
<!-- deployment entity to deployment entity ontogenic association&#45;&gt;source -->
<g id="edge6" class="edge">
<title>deployment entity to deployment entity ontogenic association&#45;&gt;source</title>
<path fill="none" stroke="blue" d="M1216.34,-251.07C1190.87,-245.82 1165.51,-238.68 1142.23,-229 1127.06,-222.69 1112.36,-211.92 1100.79,-201.98"/>
<polygon fill="blue" stroke="blue" points="1103.1,-199.35 1093.31,-195.3 1098.44,-204.57 1103.1,-199.35"/>
<text text-anchor="middle" x="1166.23" y="-217.8" font-family="Times,serif" font-size="14.00">source</text>
</g>
<!-- provided by -->
<g id="node8" class="node">
<title>provided by</title>
<ellipse fill="none" stroke="blue" cx="1189.23" cy="-178" rx="37.09" ry="18"/>
<text text-anchor="middle" x="1189.23" y="-174.3" font-family="Times,serif" font-size="14.00">agent</text>
</g>
<!-- deployment entity to deployment entity ontogenic association&#45;&gt;provided by -->
<g id="edge7" class="edge">
<title>deployment entity to deployment entity ontogenic association&#45;&gt;provided by</title>
<path fill="none" stroke="blue" d="M1258.17,-249.32C1233.58,-244.34 1212.9,-237.74 1203.23,-229 1196.76,-223.16 1193.18,-214.6 1191.23,-206.2"/>
<polygon fill="blue" stroke="blue" points="1194.67,-205.53 1189.58,-196.24 1187.76,-206.68 1194.67,-205.53"/>
<text text-anchor="middle" x="1245.73" y="-217.8" font-family="Times,serif" font-size="14.00">provided by</text>
</g>
<!-- has attribute -->
<g id="node9" class="node">
<title>has attribute</title>
<ellipse fill="none" stroke="blue" cx="1296.23" cy="-178" rx="51.99" ry="18"/>
<text text-anchor="middle" x="1296.23" y="-174.3" font-family="Times,serif" font-size="14.00">attribute</text>
</g>
<!-- deployment entity to deployment entity ontogenic association&#45;&gt;has attribute -->
<g id="edge8" class="edge">
<title>deployment entity to deployment entity ontogenic association&#45;&gt;has attribute</title>
<path fill="none" stroke="blue" d="M1319.13,-247.71C1310.65,-242.95 1303.04,-236.83 1297.23,-229 1292.48,-222.6 1291,-214.36 1291.07,-206.43"/>
<polygon fill="blue" stroke="blue" points="1294.57,-206.6 1291.9,-196.35 1287.59,-206.03 1294.57,-206.6"/>
<text text-anchor="middle" x="1344.23" y="-217.8" font-family="Times,serif" font-size="14.00">has attribute</text>
</g>
<!-- relation -->
<g id="node10" class="node">
<title>relation</title>
<ellipse fill="none" stroke="blue" cx="2030.23" cy="-18" rx="57.39" ry="18"/>
<text text-anchor="middle" x="2030.23" y="-14.3" font-family="Times,serif" font-size="14.00">uriorcurie</text>
</g>
<!-- deployment entity to deployment entity ontogenic association&#45;&gt;relation -->
<g id="edge9" class="edge">
<title>deployment entity to deployment entity ontogenic association&#45;&gt;relation</title>
<path fill="none" stroke="blue" d="M1400.72,-246.61C1394.41,-220.53 1384.84,-172.95 1395.23,-160 1466.23,-71.51 1816.95,-35.07 1964.57,-23.48"/>
<polygon fill="blue" stroke="blue" points="1965.14,-26.95 1974.84,-22.69 1964.6,-19.97 1965.14,-26.95"/>
<text text-anchor="middle" x="1463.23" y="-130.8" font-family="Times,serif" font-size="14.00">relation</text>
</g>
<!-- negated -->
<g id="node11" class="node">
<title>negated</title>
<ellipse fill="none" stroke="blue" cx="1451.23" cy="-178" rx="46.59" ry="18"/>
<text text-anchor="middle" x="1451.23" y="-174.3" font-family="Times,serif" font-size="14.00">boolean</text>
</g>
<!-- deployment entity to deployment entity ontogenic association&#45;&gt;negated -->
<g id="edge10" class="edge">
<title>deployment entity to deployment entity ontogenic association&#45;&gt;negated</title>
<path fill="none" stroke="blue" d="M1414.54,-246.8C1421.06,-234.74 1429.9,-218.4 1437.27,-204.79"/>
<polygon fill="blue" stroke="blue" points="1440.41,-206.35 1442.09,-195.89 1434.25,-203.01 1440.41,-206.35"/>
<text text-anchor="middle" x="1460.23" y="-217.8" font-family="Times,serif" font-size="14.00">negated</text>
</g>
<!-- qualifiers -->
<g id="node12" class="node">
<title>qualifiers</title>
<ellipse fill="none" stroke="blue" cx="1592.23" cy="-178" rx="76.89" ry="18"/>
<text text-anchor="middle" x="1592.23" y="-174.3" font-family="Times,serif" font-size="14.00">ontology class</text>
</g>
<!-- deployment entity to deployment entity ontogenic association&#45;&gt;qualifiers -->
<g id="edge11" class="edge">
<title>deployment entity to deployment entity ontogenic association&#45;&gt;qualifiers</title>
<path fill="none" stroke="blue" d="M1449.87,-247.14C1463.86,-241.61 1479.29,-235.28 1493.23,-229 1513.41,-219.91 1535.43,-208.9 1553.57,-199.53"/>
<polygon fill="blue" stroke="blue" points="1555.41,-202.52 1562.67,-194.8 1552.18,-196.31 1555.41,-202.52"/>
<text text-anchor="middle" x="1557.73" y="-217.8" font-family="Times,serif" font-size="14.00">qualifiers</text>
</g>
<!-- publications -->
<g id="node13" class="node">
<title>publications</title>
<ellipse fill="none" stroke="blue" cx="1749.23" cy="-178" rx="62.29" ry="18"/>
<text text-anchor="middle" x="1749.23" y="-174.3" font-family="Times,serif" font-size="14.00">publication</text>
</g>
<!-- deployment entity to deployment entity ontogenic association&#45;&gt;publications -->
<g id="edge12" class="edge">
<title>deployment entity to deployment entity ontogenic association&#45;&gt;publications</title>
<path fill="none" stroke="blue" d="M1505.85,-248.02C1534.87,-242.72 1566.45,-236.29 1595.23,-229 1631.86,-219.72 1672.5,-206.4 1702.82,-195.84"/>
<polygon fill="blue" stroke="blue" points="1704.01,-199.13 1712.29,-192.51 1701.69,-192.52 1704.01,-199.13"/>
<text text-anchor="middle" x="1691.23" y="-217.8" font-family="Times,serif" font-size="14.00">publications</text>
</g>
<!-- type -->
<g id="node14" class="node">
<title>type</title>
<ellipse fill="none" stroke="black" cx="1861.23" cy="-178" rx="31.4" ry="18"/>
<text text-anchor="middle" x="1861.23" y="-174.3" font-family="Times,serif" font-size="14.00">type</text>
</g>
<!-- deployment entity to deployment entity ontogenic association&#45;&gt;type -->
<g id="edge13" class="edge">
<title>deployment entity to deployment entity ontogenic association&#45;&gt;type</title>
<path fill="none" stroke="blue" d="M1609.51,-251.83C1652.74,-246.69 1697.8,-239.39 1739.23,-229 1770.98,-221.04 1805.33,-206.37 1829.47,-194.97"/>
<polygon fill="blue" stroke="blue" points="1831.01,-198.11 1838.51,-190.63 1827.98,-191.8 1831.01,-198.11"/>
<text text-anchor="middle" x="1800.23" y="-217.8" font-family="Times,serif" font-size="14.00">type</text>
</g>
<!-- category -->
<g id="node16" class="node">
<title>category</title>
<ellipse fill="none" stroke="black" cx="1962.23" cy="-178" rx="51.19" ry="18"/>
<text text-anchor="middle" x="1962.23" y="-174.3" font-family="Times,serif" font-size="14.00">category</text>
</g>
<!-- deployment entity to deployment entity ontogenic association&#45;&gt;category -->
<g id="edge14" class="edge">
<title>deployment entity to deployment entity ontogenic association&#45;&gt;category</title>
<path fill="none" stroke="blue" d="M1644.6,-254.25C1702.51,-249.03 1763.94,-241.08 1820.23,-229 1855.43,-221.45 1893.87,-207.54 1921.86,-196.31"/>
<polygon fill="blue" stroke="blue" points="1923.36,-199.48 1931.31,-192.47 1920.72,-193 1923.36,-199.48"/>
<text text-anchor="middle" x="1903.73" y="-217.8" font-family="Times,serif" font-size="14.00">category</text>
</g>
<!-- subject -->
<g id="node18" class="node">
<title>subject</title>
<ellipse fill="none" stroke="black" cx="2076.23" cy="-178" rx="44.39" ry="18"/>
<text text-anchor="middle" x="2076.23" y="-174.3" font-family="Times,serif" font-size="14.00">subject</text>
</g>
<!-- deployment entity to deployment entity ontogenic association&#45;&gt;subject -->
<g id="edge15" class="edge">
<title>deployment entity to deployment entity ontogenic association&#45;&gt;subject</title>
<path fill="none" stroke="blue" d="M1610.43,-251.9C1753.91,-243.22 1922.76,-232.47 1939.23,-229 1973.87,-221.7 2011.54,-207.46 2038.6,-196.03"/>
<polygon fill="blue" stroke="blue" points="2040.25,-199.13 2048.06,-191.97 2037.49,-192.7 2040.25,-199.13"/>
<text text-anchor="middle" x="2016.23" y="-217.8" font-family="Times,serif" font-size="14.00">subject</text>
</g>
<!-- object -->
<g id="node20" class="node">
<title>object</title>
<ellipse fill="none" stroke="black" cx="2097.23" cy="-91" rx="38.99" ry="18"/>
<text text-anchor="middle" x="2097.23" y="-87.3" font-family="Times,serif" font-size="14.00">object</text>
</g>
<!-- deployment entity to deployment entity ontogenic association&#45;&gt;object -->
<g id="edge16" class="edge">
<title>deployment entity to deployment entity ontogenic association&#45;&gt;object</title>
<path fill="none" stroke="blue" d="M1616.89,-252.29C1649.16,-250.51 1682.08,-248.7 1713.23,-247 1861.22,-238.92 1901.46,-260.8 2046.23,-229 2085,-220.48 2103.22,-225.99 2129.23,-196 2149.67,-172.42 2155.94,-155.03 2142.23,-127 2139.37,-121.17 2135.03,-116.02 2130.14,-111.6"/>
<polygon fill="blue" stroke="blue" points="2132.15,-108.73 2122.15,-105.25 2127.8,-114.21 2132.15,-108.73"/>
<text text-anchor="middle" x="2170.23" y="-174.3" font-family="Times,serif" font-size="14.00">object</text>
</g>
<!-- predicate -->
<g id="node22" class="node">
<title>predicate</title>
<ellipse fill="none" stroke="black" cx="2273.23" cy="-178" rx="54.69" ry="18"/>
<text text-anchor="middle" x="2273.23" y="-174.3" font-family="Times,serif" font-size="14.00">predicate</text>
</g>
<!-- deployment entity to deployment entity ontogenic association&#45;&gt;predicate -->
<g id="edge17" class="edge">
<title>deployment entity to deployment entity ontogenic association&#45;&gt;predicate</title>
<path fill="none" stroke="blue" d="M1613.13,-252.08C1646.6,-250.29 1680.86,-248.53 1713.23,-247 1814.75,-242.2 2071.64,-253.72 2170.23,-229 2194.86,-222.82 2220.56,-210.36 2240.13,-199.42"/>
<polygon fill="blue" stroke="blue" points="2242,-202.38 2248.94,-194.37 2238.52,-196.31 2242,-202.38"/>
<text text-anchor="middle" x="2245.23" y="-217.8" font-family="Times,serif" font-size="14.00">predicate</text>
</g>
<!-- association_type -->
<g id="node15" class="node">
<title>association_type</title>
<ellipse fill="none" stroke="blue" cx="1760.23" cy="-265" rx="38.19" ry="18"/>
<text text-anchor="middle" x="1760.23" y="-261.3" font-family="Times,serif" font-size="14.00">string</text>
</g>
<!-- association_category -->
<g id="node17" class="node">
<title>association_category</title>
<ellipse fill="none" stroke="blue" cx="1879.23" cy="-265" rx="62.29" ry="18"/>
<text text-anchor="middle" x="1879.23" y="-261.3" font-family="Times,serif" font-size="14.00">association</text>
</g>
<!-- subject&#45;&gt;relation -->
<g id="edge19" class="edge">
<title>subject&#45;&gt;relation</title>
<path fill="none" stroke="black" stroke-dasharray="1,5" d="M2068.64,-160.24C2062.72,-146.64 2054.62,-126.88 2049.23,-109 2042.97,-88.27 2038.01,-64.24 2034.73,-46.23"/>
<polygon fill="black" stroke="black" points="2038.13,-45.38 2032.95,-36.14 2031.24,-46.59 2038.13,-45.38"/>
</g>
<!-- subject&#45;&gt;object -->
<g id="edge18" class="edge">
<title>subject&#45;&gt;object</title>
<path fill="none" stroke="black" d="M2079.2,-159.77C2080.99,-150.09 2083.46,-137.8 2086.23,-127 2086.92,-124.32 2087.69,-121.53 2088.49,-118.76"/>
<polygon fill="black" stroke="black" points="2091.91,-119.57 2091.49,-108.98 2085.21,-117.52 2091.91,-119.57"/>
<text text-anchor="middle" x="2114.23" y="-130.8" font-family="Times,serif" font-size="14.00">relation</text>
</g>
<!-- deployment entity to deployment entity ontogenic association_subject -->
<g id="node19" class="node">
<title>deployment entity to deployment entity ontogenic association_subject</title>
<ellipse fill="none" stroke="blue" cx="2055.23" cy="-265" rx="95.58" ry="18"/>
<text text-anchor="middle" x="2055.23" y="-261.3" font-family="Times,serif" font-size="14.00">deployment entity</text>
</g>
<!-- object&#45;&gt;relation -->
<g id="edge20" class="edge">
<title>object&#45;&gt;relation</title>
<path fill="none" stroke="black" stroke-dasharray="1,5" d="M2082.36,-74.24C2073.76,-65.13 2062.75,-53.47 2053.07,-43.21"/>
<polygon fill="black" stroke="black" points="2055.4,-40.57 2045.99,-35.7 2050.31,-45.38 2055.4,-40.57"/>
</g>
<!-- deployment entity to deployment entity ontogenic association_object -->
<g id="node21" class="node">
<title>deployment entity to deployment entity ontogenic association_object</title>
<ellipse fill="none" stroke="blue" cx="2264.23" cy="-265" rx="95.58" ry="18"/>
<text text-anchor="middle" x="2264.23" y="-261.3" font-family="Times,serif" font-size="14.00">deployment entity</text>
</g>
<!-- deployment entity to deployment entity ontogenic association_predicate -->
<g id="node23" class="node">
<title>deployment entity to deployment entity ontogenic association_predicate</title>
<ellipse fill="none" stroke="blue" cx="2456.23" cy="-265" rx="77.99" ry="18"/>
<text text-anchor="middle" x="2456.23" y="-261.3" font-family="Times,serif" font-size="14.00">predicate type</text>
</g>
</g>
</svg>
