<?xml version="1.0" encoding="UTF-8" standalone="no"?>
<!DOCTYPE svg PUBLIC "-//W3C//DTD SVG 1.1//EN"
 "http://www.w3.org/Graphics/SVG/1.1/DTD/svg11.dtd">
<!-- Generated by graphviz version 2.43.0 (0)
 -->
<!-- Title: %3 Pages: 1 -->
<svg width="1799pt" height="131pt"
 viewBox="0.00 0.00 1798.69 131.00" xmlns="http://www.w3.org/2000/svg" xmlns:xlink="http://www.w3.org/1999/xlink">
<g id="graph0" class="graph" transform="scale(1 1) rotate(0) translate(4 127)">
<title>%3</title>
<polygon fill="white" stroke="transparent" points="-4,4 -4,-127 1794.69,-127 1794.69,4 -4,4"/>
<!-- deployment entity -->
<g id="node1" class="node">
<title>deployment entity</title>
<ellipse fill="none" stroke="black" cx="896.89" cy="-105" rx="95.58" ry="18"/>
<text text-anchor="middle" x="896.89" y="-101.3" font-family="Times,serif" font-size="14.00">deployment entity</text>
</g>
<!-- systemic entity -->
<g id="node2" class="node">
<title>systemic entity</title>
<ellipse fill="none" stroke="black" cx="81.89" cy="-18" rx="81.79" ry="18"/>
<text text-anchor="middle" x="81.89" y="-14.3" font-family="Times,serif" font-size="14.00">systemic entity</text>
</g>
<!-- deployment entity&#45;&gt;systemic entity -->
<g id="edge1" class="edge">
<title>deployment entity&#45;&gt;systemic entity</title>
<path fill="none" stroke="black" d="M807.24,-98.69C713.13,-92.79 560.93,-82.31 429.89,-69 315.32,-57.36 286.65,-53.91 172.89,-36 165.8,-34.88 158.41,-33.64 151.04,-32.34"/>
<polygon fill="black" stroke="black" points="151.5,-28.87 141.04,-30.55 150.27,-35.76 151.5,-28.87"/>
<text text-anchor="middle" x="443.89" y="-57.8" font-family="Times,serif" font-size="14.00">is_a</text>
</g>
<!-- thing with taxon -->
<g id="node3" class="node">
<title>thing with taxon</title>
<ellipse fill="none" stroke="black" cx="268.89" cy="-18" rx="87.18" ry="18"/>
<text text-anchor="middle" x="268.89" y="-14.3" font-family="Times,serif" font-size="14.00">thing with taxon</text>
</g>
<!-- deployment entity&#45;&gt;thing with taxon -->
<g id="edge2" class="edge">
<title>deployment entity&#45;&gt;thing with taxon</title>
<path fill="none" stroke="black" d="M811.16,-97.01C741.44,-90.91 640.6,-81.14 552.89,-69 468.86,-57.37 448.44,-50.73 364.89,-36 357.65,-34.72 350.1,-33.39 342.55,-32.06"/>
<polygon fill="black" stroke="black" points="343.12,-28.6 332.66,-30.31 341.9,-35.49 343.12,-28.6"/>
<text text-anchor="middle" x="569.39" y="-57.8" font-family="Times,serif" font-size="14.00">uses</text>
</g>
<!-- cyber essence -->
<g id="node4" class="node">
<title>cyber essence</title>
<ellipse fill="none" stroke="black" cx="449.89" cy="-18" rx="76.09" ry="18"/>
<text text-anchor="middle" x="449.89" y="-14.3" font-family="Times,serif" font-size="14.00">cyber essence</text>
</g>
<!-- deployment entity&#45;&gt;cyber essence -->
<g id="edge3" class="edge">
<title>deployment entity&#45;&gt;cyber essence</title>
<path fill="none" stroke="black" d="M819.43,-94.38C772.75,-88.14 712.2,-79.28 658.89,-69 607.68,-59.13 550.08,-45.13 508.33,-34.45"/>
<polygon fill="black" stroke="black" points="509.17,-31.05 498.61,-31.95 507.43,-37.83 509.17,-31.05"/>
<text text-anchor="middle" x="675.39" y="-57.8" font-family="Times,serif" font-size="14.00">uses</text>
</g>
<!-- id -->
<g id="node5" class="node">
<title>id</title>
<ellipse fill="none" stroke="blue" cx="581.89" cy="-18" rx="38.19" ry="18"/>
<text text-anchor="middle" x="581.89" y="-14.3" font-family="Times,serif" font-size="14.00">string</text>
</g>
<!-- deployment entity&#45;&gt;id -->
<g id="edge4" class="edge">
<title>deployment entity&#45;&gt;id</title>
<path fill="none" stroke="blue" d="M838.4,-90.72C784.02,-78 700.95,-57.58 629.89,-36 626.81,-35.06 623.62,-34.05 620.43,-32.99"/>
<polygon fill="blue" stroke="blue" points="621.54,-29.67 610.94,-29.77 619.28,-36.3 621.54,-29.67"/>
<text text-anchor="middle" x="753.89" y="-57.8" font-family="Times,serif" font-size="14.00">id</text>
</g>
<!-- iri -->
<g id="node6" class="node">
<title>iri</title>
<ellipse fill="none" stroke="blue" cx="682.89" cy="-18" rx="44.39" ry="18"/>
<text text-anchor="middle" x="682.89" y="-14.3" font-family="Times,serif" font-size="14.00">iri type</text>
</g>
<!-- deployment entity&#45;&gt;iri -->
<g id="edge5" class="edge">
<title>deployment entity&#45;&gt;iri</title>
<path fill="none" stroke="blue" d="M857.64,-88.41C819.38,-73.21 761.47,-50.21 722.94,-34.91"/>
<polygon fill="blue" stroke="blue" points="724.17,-31.63 713.58,-31.19 721.58,-38.13 724.17,-31.63"/>
<text text-anchor="middle" x="810.89" y="-57.8" font-family="Times,serif" font-size="14.00">iri</text>
</g>
<!-- type -->
<g id="node7" class="node">
<title>type</title>
<ellipse fill="none" stroke="blue" cx="783.89" cy="-18" rx="38.19" ry="18"/>
<text text-anchor="middle" x="783.89" y="-14.3" font-family="Times,serif" font-size="14.00">string</text>
</g>
<!-- deployment entity&#45;&gt;type -->
<g id="edge6" class="edge">
<title>deployment entity&#45;&gt;type</title>
<path fill="none" stroke="blue" d="M874.84,-87.41C856.71,-73.77 830.93,-54.38 811.45,-39.73"/>
<polygon fill="blue" stroke="blue" points="813.35,-36.78 803.26,-33.57 809.14,-42.37 813.35,-36.78"/>
<text text-anchor="middle" x="863.89" y="-57.8" font-family="Times,serif" font-size="14.00">type</text>
</g>
<!-- name -->
<g id="node8" class="node">
<title>name</title>
<ellipse fill="none" stroke="blue" cx="896.89" cy="-18" rx="56.59" ry="18"/>
<text text-anchor="middle" x="896.89" y="-14.3" font-family="Times,serif" font-size="14.00">label type</text>
</g>
<!-- deployment entity&#45;&gt;name -->
<g id="edge7" class="edge">
<title>deployment entity&#45;&gt;name</title>
<path fill="none" stroke="blue" d="M896.89,-86.8C896.89,-75.16 896.89,-59.55 896.89,-46.24"/>
<polygon fill="blue" stroke="blue" points="900.39,-46.18 896.89,-36.18 893.39,-46.18 900.39,-46.18"/>
<text text-anchor="middle" x="916.89" y="-57.8" font-family="Times,serif" font-size="14.00">name</text>
</g>
<!-- description -->
<g id="node9" class="node">
<title>description</title>
<ellipse fill="none" stroke="blue" cx="1046.89" cy="-18" rx="75.29" ry="18"/>
<text text-anchor="middle" x="1046.89" y="-14.3" font-family="Times,serif" font-size="14.00">narrative text</text>
</g>
<!-- deployment entity&#45;&gt;description -->
<g id="edge8" class="edge">
<title>deployment entity&#45;&gt;description</title>
<path fill="none" stroke="blue" d="M925.46,-87.81C949.49,-74.2 984,-54.64 1010.09,-39.85"/>
<polygon fill="blue" stroke="blue" points="1011.97,-42.82 1018.94,-34.84 1008.51,-36.73 1011.97,-42.82"/>
<text text-anchor="middle" x="1021.39" y="-57.8" font-family="Times,serif" font-size="14.00">description</text>
</g>
<!-- source -->
<g id="node10" class="node">
<title>source</title>
<ellipse fill="none" stroke="blue" cx="1196.89" cy="-18" rx="56.59" ry="18"/>
<text text-anchor="middle" x="1196.89" y="-14.3" font-family="Times,serif" font-size="14.00">label type</text>
</g>
<!-- deployment entity&#45;&gt;source -->
<g id="edge9" class="edge">
<title>deployment entity&#45;&gt;source</title>
<path fill="none" stroke="blue" d="M965.35,-92.41C996.33,-86.5 1033.25,-78.54 1065.89,-69 1096.45,-60.07 1129.98,-47.21 1155.47,-36.77"/>
<polygon fill="blue" stroke="blue" points="1156.91,-39.96 1164.82,-32.9 1154.24,-33.49 1156.91,-39.96"/>
<text text-anchor="middle" x="1133.89" y="-57.8" font-family="Times,serif" font-size="14.00">source</text>
</g>
<!-- provided by -->
<g id="node11" class="node">
<title>provided by</title>
<ellipse fill="none" stroke="blue" cx="1308.89" cy="-18" rx="37.09" ry="18"/>
<text text-anchor="middle" x="1308.89" y="-14.3" font-family="Times,serif" font-size="14.00">agent</text>
</g>
<!-- deployment entity&#45;&gt;provided by -->
<g id="edge10" class="edge">
<title>deployment entity&#45;&gt;provided by</title>
<path fill="none" stroke="blue" d="M965.07,-92.35C976.99,-90.46 989.29,-88.6 1000.89,-87 1072.22,-77.19 1091.53,-84.26 1161.89,-69 1208.04,-58.99 1218.29,-51.52 1262.89,-36 1265.44,-35.11 1268.07,-34.18 1270.71,-33.24"/>
<polygon fill="blue" stroke="blue" points="1272.04,-36.48 1280.24,-29.78 1269.65,-29.9 1272.04,-36.48"/>
<text text-anchor="middle" x="1256.39" y="-57.8" font-family="Times,serif" font-size="14.00">provided by</text>
</g>
<!-- category -->
<g id="node12" class="node">
<title>category</title>
<ellipse fill="none" stroke="black" cx="1414.89" cy="-18" rx="51.19" ry="18"/>
<text text-anchor="middle" x="1414.89" y="-14.3" font-family="Times,serif" font-size="14.00">category</text>
</g>
<!-- deployment entity&#45;&gt;category -->
<g id="edge11" class="edge">
<title>deployment entity&#45;&gt;category</title>
<path fill="none" stroke="blue" d="M963.61,-92.06C975.97,-90.14 988.8,-88.35 1000.89,-87 1134.53,-72.13 1172.28,-100.92 1302.89,-69 1329.92,-62.39 1358.54,-49.51 1380.08,-38.47"/>
<polygon fill="blue" stroke="blue" points="1381.91,-41.46 1389.15,-33.72 1378.66,-35.26 1381.91,-41.46"/>
<text text-anchor="middle" x="1376.39" y="-57.8" font-family="Times,serif" font-size="14.00">category</text>
</g>
<!-- has attribute -->
<g id="node14" class="node">
<title>has attribute</title>
<ellipse fill="none" stroke="black" cx="1555.89" cy="-18" rx="71.49" ry="18"/>
<text text-anchor="middle" x="1555.89" y="-14.3" font-family="Times,serif" font-size="14.00">has attribute</text>
</g>
<!-- deployment entity&#45;&gt;has attribute -->
<g id="edge12" class="edge">
<title>deployment entity&#45;&gt;has attribute</title>
<path fill="none" stroke="blue" d="M963.03,-91.99C975.57,-90.05 988.61,-88.27 1000.89,-87 1182.77,-68.22 1232.31,-103.35 1411.89,-69 1446.65,-62.35 1484.39,-49 1512.51,-37.77"/>
<polygon fill="blue" stroke="blue" points="1514.09,-40.91 1522.04,-33.9 1511.46,-34.42 1514.09,-40.91"/>
<text text-anchor="middle" x="1511.89" y="-57.8" font-family="Times,serif" font-size="14.00">has attribute</text>
</g>
<!-- in taxon -->
<g id="node16" class="node">
<title>in taxon</title>
<ellipse fill="none" stroke="blue" cx="1717.89" cy="-18" rx="72.59" ry="18"/>
<text text-anchor="middle" x="1717.89" y="-14.3" font-family="Times,serif" font-size="14.00">system taxon</text>
</g>
<!-- deployment entity&#45;&gt;in taxon -->
<g id="edge13" class="edge">
<title>deployment entity&#45;&gt;in taxon</title>
<path fill="none" stroke="blue" d="M962.74,-91.91C975.37,-89.97 988.51,-88.21 1000.89,-87 1125.26,-74.9 1439.78,-90.39 1562.89,-69 1600.72,-62.43 1642.04,-48.76 1672.49,-37.37"/>
<polygon fill="blue" stroke="blue" points="1673.87,-40.59 1681.98,-33.76 1671.39,-34.04 1673.87,-40.59"/>
<text text-anchor="middle" x="1651.89" y="-57.8" font-family="Times,serif" font-size="14.00">in taxon</text>
</g>
<!-- named thing_category -->
<g id="node13" class="node">
<title>named thing_category</title>
<ellipse fill="none" stroke="blue" cx="1079.89" cy="-105" rx="69.59" ry="18"/>
<text text-anchor="middle" x="1079.89" y="-101.3" font-family="Times,serif" font-size="14.00">named thing</text>
</g>
<!-- systemic entity_has attribute -->
<g id="node15" class="node">
<title>systemic entity_has attribute</title>
<ellipse fill="none" stroke="blue" cx="1219.89" cy="-105" rx="51.99" ry="18"/>
<text text-anchor="middle" x="1219.89" y="-101.3" font-family="Times,serif" font-size="14.00">attribute</text>
</g>
</g>
</svg>
