<?xml version="1.0" encoding="UTF-8" standalone="no"?>
<!DOCTYPE svg PUBLIC "-//W3C//DTD SVG 1.1//EN"
 "http://www.w3.org/Graphics/SVG/1.1/DTD/svg11.dtd">
<!-- Generated by graphviz version 2.43.0 (0)
 -->
<!-- Title: %3 Pages: 1 -->
<svg width="1240pt" height="131pt"
 viewBox="0.00 0.00 1239.84 131.00" xmlns="http://www.w3.org/2000/svg" xmlns:xlink="http://www.w3.org/1999/xlink">
<g id="graph0" class="graph" transform="scale(1 1) rotate(0) translate(4 127)">
<title>%3</title>
<polygon fill="white" stroke="transparent" points="-4,4 -4,-127 1235.84,-127 1235.84,4 -4,4"/>
<!-- empirical intervention -->
<g id="node1" class="node">
<title>empirical intervention</title>
<ellipse fill="none" stroke="black" cx="615.49" cy="-105" rx="114.28" ry="18"/>
<text text-anchor="middle" x="615.49" y="-101.3" font-family="Times,serif" font-size="14.00">empirical intervention</text>
</g>
<!-- empirical entity -->
<g id="node2" class="node">
<title>empirical entity</title>
<ellipse fill="none" stroke="black" cx="84.49" cy="-18" rx="84.49" ry="18"/>
<text text-anchor="middle" x="84.49" y="-14.3" font-family="Times,serif" font-size="14.00">empirical entity</text>
</g>
<!-- empirical intervention&#45;&gt;empirical entity -->
<g id="edge1" class="edge">
<title>empirical intervention&#45;&gt;empirical entity</title>
<path fill="none" stroke="black" d="M519.23,-95.17C460.22,-89.16 383.26,-80.26 315.49,-69 258.36,-59.51 194.01,-45.28 147.76,-34.43"/>
<polygon fill="black" stroke="black" points="148.42,-30.99 137.89,-32.1 146.82,-37.8 148.42,-30.99"/>
<text text-anchor="middle" x="329.49" y="-57.8" font-family="Times,serif" font-size="14.00">is_a</text>
</g>
<!-- id -->
<g id="node3" class="node">
<title>id</title>
<ellipse fill="none" stroke="blue" cx="225.49" cy="-18" rx="38.19" ry="18"/>
<text text-anchor="middle" x="225.49" y="-14.3" font-family="Times,serif" font-size="14.00">string</text>
</g>
<!-- empirical intervention&#45;&gt;id -->
<g id="edge2" class="edge">
<title>empirical intervention&#45;&gt;id</title>
<path fill="none" stroke="blue" d="M536.17,-92.03C466.29,-80.59 362.11,-61.34 273.49,-36 270.39,-35.11 267.2,-34.13 264,-33.11"/>
<polygon fill="blue" stroke="blue" points="265.09,-29.78 254.5,-29.92 262.87,-36.42 265.09,-29.78"/>
<text text-anchor="middle" x="411.49" y="-57.8" font-family="Times,serif" font-size="14.00">id</text>
</g>
<!-- iri -->
<g id="node4" class="node">
<title>iri</title>
<ellipse fill="none" stroke="blue" cx="326.49" cy="-18" rx="44.39" ry="18"/>
<text text-anchor="middle" x="326.49" y="-14.3" font-family="Times,serif" font-size="14.00">iri type</text>
</g>
<!-- empirical intervention&#45;&gt;iri -->
<g id="edge3" class="edge">
<title>empirical intervention&#45;&gt;iri</title>
<path fill="none" stroke="blue" d="M561.29,-89.06C539.29,-82.93 513.65,-75.72 490.49,-69 441.47,-54.78 429.28,-51 380.49,-36 377,-34.93 373.38,-33.81 369.75,-32.67"/>
<polygon fill="blue" stroke="blue" points="370.76,-29.32 360.17,-29.68 368.67,-36.01 370.76,-29.32"/>
<text text-anchor="middle" x="498.49" y="-57.8" font-family="Times,serif" font-size="14.00">iri</text>
</g>
<!-- type -->
<g id="node5" class="node">
<title>type</title>
<ellipse fill="none" stroke="blue" cx="427.49" cy="-18" rx="38.19" ry="18"/>
<text text-anchor="middle" x="427.49" y="-14.3" font-family="Times,serif" font-size="14.00">string</text>
</g>
<!-- empirical intervention&#45;&gt;type -->
<g id="edge4" class="edge">
<title>empirical intervention&#45;&gt;type</title>
<path fill="none" stroke="blue" d="M579.69,-87.81C546.33,-72.73 496.86,-50.36 463.45,-35.26"/>
<polygon fill="blue" stroke="blue" points="464.61,-31.94 454.06,-31.01 461.73,-38.32 464.61,-31.94"/>
<text text-anchor="middle" x="549.49" y="-57.8" font-family="Times,serif" font-size="14.00">type</text>
</g>
<!-- name -->
<g id="node6" class="node">
<title>name</title>
<ellipse fill="none" stroke="blue" cx="540.49" cy="-18" rx="56.59" ry="18"/>
<text text-anchor="middle" x="540.49" y="-14.3" font-family="Times,serif" font-size="14.00">label type</text>
</g>
<!-- empirical intervention&#45;&gt;name -->
<g id="edge5" class="edge">
<title>empirical intervention&#45;&gt;name</title>
<path fill="none" stroke="blue" d="M600.32,-86.8C589.29,-74.31 574.23,-57.24 561.98,-43.35"/>
<polygon fill="blue" stroke="blue" points="564.38,-40.78 555.14,-35.6 559.13,-45.41 564.38,-40.78"/>
<text text-anchor="middle" x="602.49" y="-57.8" font-family="Times,serif" font-size="14.00">name</text>
</g>
<!-- description -->
<g id="node7" class="node">
<title>description</title>
<ellipse fill="none" stroke="blue" cx="690.49" cy="-18" rx="75.29" ry="18"/>
<text text-anchor="middle" x="690.49" y="-14.3" font-family="Times,serif" font-size="14.00">narrative text</text>
</g>
<!-- empirical intervention&#45;&gt;description -->
<g id="edge6" class="edge">
<title>empirical intervention&#45;&gt;description</title>
<path fill="none" stroke="blue" d="M630.67,-86.8C641.62,-74.39 656.56,-57.46 668.77,-43.62"/>
<polygon fill="blue" stroke="blue" points="671.6,-45.7 675.59,-35.89 666.35,-41.07 671.6,-45.7"/>
<text text-anchor="middle" x="697.99" y="-57.8" font-family="Times,serif" font-size="14.00">description</text>
</g>
<!-- source -->
<g id="node8" class="node">
<title>source</title>
<ellipse fill="none" stroke="blue" cx="840.49" cy="-18" rx="56.59" ry="18"/>
<text text-anchor="middle" x="840.49" y="-14.3" font-family="Times,serif" font-size="14.00">label type</text>
</g>
<!-- empirical intervention&#45;&gt;source -->
<g id="edge7" class="edge">
<title>empirical intervention&#45;&gt;source</title>
<path fill="none" stroke="blue" d="M677.03,-89.73C698.09,-84.14 721.6,-77.11 742.49,-69 764.12,-60.6 787.29,-48.92 805.67,-38.95"/>
<polygon fill="blue" stroke="blue" points="807.46,-41.96 814.54,-34.07 804.09,-35.83 807.46,-41.96"/>
<text text-anchor="middle" x="800.49" y="-57.8" font-family="Times,serif" font-size="14.00">source</text>
</g>
<!-- provided by -->
<g id="node9" class="node">
<title>provided by</title>
<ellipse fill="none" stroke="blue" cx="952.49" cy="-18" rx="37.09" ry="18"/>
<text text-anchor="middle" x="952.49" y="-14.3" font-family="Times,serif" font-size="14.00">agent</text>
</g>
<!-- empirical intervention&#45;&gt;provided by -->
<g id="edge8" class="edge">
<title>empirical intervention&#45;&gt;provided by</title>
<path fill="none" stroke="blue" d="M697.49,-92.42C746.66,-85.11 804.22,-75.8 828.49,-69 859.47,-60.32 893.25,-46.39 917.72,-35.43"/>
<polygon fill="blue" stroke="blue" points="919.29,-38.56 926.95,-31.24 916.39,-32.19 919.29,-38.56"/>
<text text-anchor="middle" x="912.99" y="-57.8" font-family="Times,serif" font-size="14.00">provided by</text>
</g>
<!-- has attribute -->
<g id="node10" class="node">
<title>has attribute</title>
<ellipse fill="none" stroke="blue" cx="1059.49" cy="-18" rx="51.99" ry="18"/>
<text text-anchor="middle" x="1059.49" y="-14.3" font-family="Times,serif" font-size="14.00">attribute</text>
</g>
<!-- empirical intervention&#45;&gt;has attribute -->
<g id="edge9" class="edge">
<title>empirical intervention&#45;&gt;has attribute</title>
<path fill="none" stroke="blue" d="M696.13,-92.2C710.23,-90.32 724.78,-88.51 738.49,-87 836.45,-76.25 864.58,-95.52 959.49,-69 983.27,-62.36 1008.1,-49.97 1027.08,-39.19"/>
<polygon fill="blue" stroke="blue" points="1029.01,-42.12 1035.89,-34.06 1025.49,-36.07 1029.01,-42.12"/>
<text text-anchor="middle" x="1044.49" y="-57.8" font-family="Times,serif" font-size="14.00">has attribute</text>
</g>
<!-- category -->
<g id="node11" class="node">
<title>category</title>
<ellipse fill="none" stroke="black" cx="1180.49" cy="-18" rx="51.19" ry="18"/>
<text text-anchor="middle" x="1180.49" y="-14.3" font-family="Times,serif" font-size="14.00">category</text>
</g>
<!-- empirical intervention&#45;&gt;category -->
<g id="edge10" class="edge">
<title>empirical intervention&#45;&gt;category</title>
<path fill="none" stroke="blue" d="M694.77,-92.01C709.29,-90.11 724.33,-88.33 738.49,-87 817.58,-79.56 1019.4,-91.79 1095.49,-69 1115.7,-62.95 1136.14,-51.14 1151.91,-40.52"/>
<polygon fill="blue" stroke="blue" points="1153.95,-43.37 1160.16,-34.79 1149.95,-37.62 1153.95,-43.37"/>
<text text-anchor="middle" x="1158.99" y="-57.8" font-family="Times,serif" font-size="14.00">category</text>
</g>
<!-- named thing_category -->
<g id="node12" class="node">
<title>named thing_category</title>
<ellipse fill="none" stroke="blue" cx="817.49" cy="-105" rx="69.59" ry="18"/>
<text text-anchor="middle" x="817.49" y="-101.3" font-family="Times,serif" font-size="14.00">named thing</text>
</g>
</g>
</svg>
