<?xml version="1.0" encoding="UTF-8" standalone="no"?>
<!DOCTYPE svg PUBLIC "-//W3C//DTD SVG 1.1//EN"
 "http://www.w3.org/Graphics/SVG/1.1/DTD/svg11.dtd">
<!-- Generated by graphviz version 2.43.0 (0)
 -->
<!-- Title: %3 Pages: 1 -->
<svg width="1240pt" height="131pt"
 viewBox="0.00 0.00 1239.84 131.00" xmlns="http://www.w3.org/2000/svg" xmlns:xlink="http://www.w3.org/1999/xlink">
<g id="graph0" class="graph" transform="scale(1 1) rotate(0) translate(4 127)">
<title>%3</title>
<polygon fill="white" stroke="transparent" points="-4,4 -4,-127 1235.84,-127 1235.84,4 -4,4"/>
<!-- empirical trial -->
<g id="node1" class="node">
<title>empirical trial</title>
<ellipse fill="none" stroke="black" cx="615.49" cy="-105" rx="76.89" ry="18"/>
<text text-anchor="middle" x="615.49" y="-101.3" font-family="Times,serif" font-size="14.00">empirical trial</text>
</g>
<!-- empirical entity -->
<g id="node2" class="node">
<title>empirical entity</title>
<ellipse fill="none" stroke="black" cx="84.49" cy="-18" rx="84.49" ry="18"/>
<text text-anchor="middle" x="84.49" y="-14.3" font-family="Times,serif" font-size="14.00">empirical entity</text>
</g>
<!-- empirical trial&#45;&gt;empirical entity -->
<g id="edge1" class="edge">
<title>empirical trial&#45;&gt;empirical entity</title>
<path fill="none" stroke="black" d="M545.21,-97.75C484.24,-91.86 393.73,-82 315.49,-69 258.36,-59.51 194.01,-45.28 147.76,-34.43"/>
<polygon fill="black" stroke="black" points="148.42,-30.99 137.89,-32.1 146.82,-37.8 148.42,-30.99"/>
<text text-anchor="middle" x="329.49" y="-57.8" font-family="Times,serif" font-size="14.00">is_a</text>
</g>
<!-- id -->
<g id="node3" class="node">
<title>id</title>
<ellipse fill="none" stroke="blue" cx="225.49" cy="-18" rx="38.19" ry="18"/>
<text text-anchor="middle" x="225.49" y="-14.3" font-family="Times,serif" font-size="14.00">string</text>
</g>
<!-- empirical trial&#45;&gt;id -->
<g id="edge2" class="edge">
<title>empirical trial&#45;&gt;id</title>
<path fill="none" stroke="blue" d="M552.35,-94.64C483.15,-83.65 369.24,-63.37 273.49,-36 270.39,-35.11 267.2,-34.13 264,-33.11"/>
<polygon fill="blue" stroke="blue" points="265.09,-29.78 254.5,-29.92 262.87,-36.42 265.09,-29.78"/>
<text text-anchor="middle" x="411.49" y="-57.8" font-family="Times,serif" font-size="14.00">id</text>
</g>
<!-- iri -->
<g id="node4" class="node">
<title>iri</title>
<ellipse fill="none" stroke="blue" cx="326.49" cy="-18" rx="44.39" ry="18"/>
<text text-anchor="middle" x="326.49" y="-14.3" font-family="Times,serif" font-size="14.00">iri type</text>
</g>
<!-- empirical trial&#45;&gt;iri -->
<g id="edge3" class="edge">
<title>empirical trial&#45;&gt;iri</title>
<path fill="none" stroke="blue" d="M567.65,-90.83C544.34,-84.35 515.92,-76.37 490.49,-69 441.47,-54.78 429.28,-51 380.49,-36 377,-34.93 373.38,-33.81 369.75,-32.67"/>
<polygon fill="blue" stroke="blue" points="370.76,-29.32 360.17,-29.68 368.67,-36.01 370.76,-29.32"/>
<text text-anchor="middle" x="498.49" y="-57.8" font-family="Times,serif" font-size="14.00">iri</text>
</g>
<!-- type -->
<g id="node5" class="node">
<title>type</title>
<ellipse fill="none" stroke="blue" cx="427.49" cy="-18" rx="38.19" ry="18"/>
<text text-anchor="middle" x="427.49" y="-14.3" font-family="Times,serif" font-size="14.00">string</text>
</g>
<!-- empirical trial&#45;&gt;type -->
<g id="edge4" class="edge">
<title>empirical trial&#45;&gt;type</title>
<path fill="none" stroke="blue" d="M581.88,-88.8C548.48,-73.7 497.43,-50.62 463.29,-35.18"/>
<polygon fill="blue" stroke="blue" points="464.69,-31.98 454.13,-31.04 461.8,-38.35 464.69,-31.98"/>
<text text-anchor="middle" x="549.49" y="-57.8" font-family="Times,serif" font-size="14.00">type</text>
</g>
<!-- name -->
<g id="node6" class="node">
<title>name</title>
<ellipse fill="none" stroke="blue" cx="540.49" cy="-18" rx="56.59" ry="18"/>
<text text-anchor="middle" x="540.49" y="-14.3" font-family="Times,serif" font-size="14.00">label type</text>
</g>
<!-- empirical trial&#45;&gt;name -->
<g id="edge5" class="edge">
<title>empirical trial&#45;&gt;name</title>
<path fill="none" stroke="blue" d="M600.67,-87.21C589.61,-74.67 574.33,-57.35 561.94,-43.3"/>
<polygon fill="blue" stroke="blue" points="564.26,-40.65 555.02,-35.47 559.02,-45.28 564.26,-40.65"/>
<text text-anchor="middle" x="602.49" y="-57.8" font-family="Times,serif" font-size="14.00">name</text>
</g>
<!-- description -->
<g id="node7" class="node">
<title>description</title>
<ellipse fill="none" stroke="blue" cx="690.49" cy="-18" rx="75.29" ry="18"/>
<text text-anchor="middle" x="690.49" y="-14.3" font-family="Times,serif" font-size="14.00">narrative text</text>
</g>
<!-- empirical trial&#45;&gt;description -->
<g id="edge6" class="edge">
<title>empirical trial&#45;&gt;description</title>
<path fill="none" stroke="blue" d="M630.31,-87.21C641.3,-74.75 656.46,-57.57 668.81,-43.57"/>
<polygon fill="blue" stroke="blue" points="671.71,-45.57 675.71,-35.76 666.47,-40.94 671.71,-45.57"/>
<text text-anchor="middle" x="697.99" y="-57.8" font-family="Times,serif" font-size="14.00">description</text>
</g>
<!-- source -->
<g id="node8" class="node">
<title>source</title>
<ellipse fill="none" stroke="blue" cx="840.49" cy="-18" rx="56.59" ry="18"/>
<text text-anchor="middle" x="840.49" y="-14.3" font-family="Times,serif" font-size="14.00">label type</text>
</g>
<!-- empirical trial&#45;&gt;source -->
<g id="edge7" class="edge">
<title>empirical trial&#45;&gt;source</title>
<path fill="none" stroke="blue" d="M668.48,-91.96C691.56,-86.06 718.72,-78.23 742.49,-69 764.12,-60.6 787.29,-48.92 805.67,-38.95"/>
<polygon fill="blue" stroke="blue" points="807.46,-41.96 814.54,-34.07 804.09,-35.83 807.46,-41.96"/>
<text text-anchor="middle" x="800.49" y="-57.8" font-family="Times,serif" font-size="14.00">source</text>
</g>
<!-- provided by -->
<g id="node9" class="node">
<title>provided by</title>
<ellipse fill="none" stroke="blue" cx="952.49" cy="-18" rx="37.09" ry="18"/>
<text text-anchor="middle" x="952.49" y="-14.3" font-family="Times,serif" font-size="14.00">agent</text>
</g>
<!-- empirical trial&#45;&gt;provided by -->
<g id="edge8" class="edge">
<title>empirical trial&#45;&gt;provided by</title>
<path fill="none" stroke="blue" d="M670.73,-92.47C680.62,-90.54 690.85,-88.64 700.49,-87 757.13,-77.36 773,-83.85 828.49,-69 859.57,-60.68 893.34,-46.72 917.79,-35.65"/>
<polygon fill="blue" stroke="blue" points="919.37,-38.78 927,-31.42 916.45,-32.42 919.37,-38.78"/>
<text text-anchor="middle" x="916.99" y="-57.8" font-family="Times,serif" font-size="14.00">provided by</text>
</g>
<!-- has attribute -->
<g id="node10" class="node">
<title>has attribute</title>
<ellipse fill="none" stroke="blue" cx="1059.49" cy="-18" rx="51.99" ry="18"/>
<text text-anchor="middle" x="1059.49" y="-14.3" font-family="Times,serif" font-size="14.00">attribute</text>
</g>
<!-- empirical trial&#45;&gt;has attribute -->
<g id="edge9" class="edge">
<title>empirical trial&#45;&gt;has attribute</title>
<path fill="none" stroke="blue" d="M669.28,-92.15C679.6,-90.19 690.35,-88.36 700.49,-87 816.62,-71.48 850.71,-100.73 963.49,-69 986.14,-62.63 1009.59,-50.53 1027.65,-39.84"/>
<polygon fill="blue" stroke="blue" points="1029.84,-42.6 1036.56,-34.41 1026.2,-36.62 1029.84,-42.6"/>
<text text-anchor="middle" x="1046.49" y="-57.8" font-family="Times,serif" font-size="14.00">has attribute</text>
</g>
<!-- category -->
<g id="node11" class="node">
<title>category</title>
<ellipse fill="none" stroke="black" cx="1180.49" cy="-18" rx="51.19" ry="18"/>
<text text-anchor="middle" x="1180.49" y="-14.3" font-family="Times,serif" font-size="14.00">category</text>
</g>
<!-- empirical trial&#45;&gt;category -->
<g id="edge10" class="edge">
<title>empirical trial&#45;&gt;category</title>
<path fill="none" stroke="blue" d="M668.8,-92.05C679.26,-90.07 690.18,-88.26 700.49,-87 788.16,-76.31 1012.96,-94.57 1097.49,-69 1117.14,-63.06 1136.92,-51.41 1152.24,-40.86"/>
<polygon fill="blue" stroke="blue" points="1154.6,-43.48 1160.71,-34.82 1150.54,-37.78 1154.6,-43.48"/>
<text text-anchor="middle" x="1161.99" y="-57.8" font-family="Times,serif" font-size="14.00">category</text>
</g>
<!-- named thing_category -->
<g id="node12" class="node">
<title>named thing_category</title>
<ellipse fill="none" stroke="blue" cx="779.49" cy="-105" rx="69.59" ry="18"/>
<text text-anchor="middle" x="779.49" y="-101.3" font-family="Times,serif" font-size="14.00">named thing</text>
</g>
</g>
</svg>
