<?xml version="1.0" encoding="UTF-8" standalone="no"?>
<!DOCTYPE svg PUBLIC "-//W3C//DTD SVG 1.1//EN"
 "http://www.w3.org/Graphics/SVG/1.1/DTD/svg11.dtd">
<!-- Generated by graphviz version 2.43.0 (0)
 -->
<!-- Title: %3 Pages: 1 -->
<svg width="1075pt" height="131pt"
 viewBox="0.00 0.00 1075.34 131.00" xmlns="http://www.w3.org/2000/svg" xmlns:xlink="http://www.w3.org/1999/xlink">
<g id="graph0" class="graph" transform="scale(1 1) rotate(0) translate(4 127)">
<title>%3</title>
<polygon fill="white" stroke="transparent" points="-4,4 -4,-127 1071.34,-127 1071.34,4 -4,4"/>
<!-- empirical modifier -->
<g id="node1" class="node">
<title>empirical modifier</title>
<ellipse fill="none" stroke="black" cx="536.79" cy="-105" rx="95.58" ry="18"/>
<text text-anchor="middle" x="536.79" y="-101.3" font-family="Times,serif" font-size="14.00">empirical modifier</text>
</g>
<!-- empirical attribute -->
<g id="node2" class="node">
<title>empirical attribute</title>
<ellipse fill="none" stroke="black" cx="98.79" cy="-18" rx="98.58" ry="18"/>
<text text-anchor="middle" x="98.79" y="-14.3" font-family="Times,serif" font-size="14.00">empirical attribute</text>
</g>
<!-- empirical modifier&#45;&gt;empirical attribute -->
<g id="edge1" class="edge">
<title>empirical modifier&#45;&gt;empirical attribute</title>
<path fill="none" stroke="black" d="M455.74,-95.43C405.88,-89.51 340.82,-80.6 283.79,-69 240.88,-60.27 193.19,-47.3 156.98,-36.76"/>
<polygon fill="black" stroke="black" points="157.66,-33.31 147.08,-33.85 155.69,-40.03 157.66,-33.31"/>
<text text-anchor="middle" x="297.79" y="-57.8" font-family="Times,serif" font-size="14.00">is_a</text>
</g>
<!-- name -->
<g id="node3" class="node">
<title>name</title>
<ellipse fill="none" stroke="black" cx="251.79" cy="-18" rx="36.29" ry="18"/>
<text text-anchor="middle" x="251.79" y="-14.3" font-family="Times,serif" font-size="14.00">name</text>
</g>
<!-- empirical modifier&#45;&gt;name -->
<g id="edge2" class="edge">
<title>empirical modifier&#45;&gt;name</title>
<path fill="none" stroke="blue" d="M457.75,-94.71C423.36,-89.32 382.97,-81.11 347.79,-69 324.84,-61.1 300.61,-48.44 282.23,-37.84"/>
<polygon fill="blue" stroke="blue" points="283.85,-34.73 273.45,-32.67 280.3,-40.76 283.85,-34.73"/>
<text text-anchor="middle" x="367.79" y="-57.8" font-family="Times,serif" font-size="14.00">name</text>
</g>
<!-- has attribute type -->
<g id="node5" class="node">
<title>has attribute type</title>
<ellipse fill="none" stroke="blue" cx="382.79" cy="-18" rx="76.89" ry="18"/>
<text text-anchor="middle" x="382.79" y="-14.3" font-family="Times,serif" font-size="14.00">ontology class</text>
</g>
<!-- empirical modifier&#45;&gt;has attribute type -->
<g id="edge3" class="edge">
<title>empirical modifier&#45;&gt;has attribute type</title>
<path fill="none" stroke="blue" d="M454.61,-95.74C435.51,-90.5 416.49,-82.17 401.79,-69 395.03,-62.94 390.66,-54.22 387.85,-45.75"/>
<polygon fill="blue" stroke="blue" points="391.22,-44.82 385.2,-36.1 384.47,-46.67 391.22,-44.82"/>
<text text-anchor="middle" x="466.79" y="-57.8" font-family="Times,serif" font-size="14.00">has attribute type</text>
</g>
<!-- has quantitative value -->
<g id="node6" class="node">
<title>has quantitative value</title>
<ellipse fill="none" stroke="blue" cx="554.79" cy="-18" rx="77.19" ry="18"/>
<text text-anchor="middle" x="554.79" y="-14.3" font-family="Times,serif" font-size="14.00">quantity value</text>
</g>
<!-- empirical modifier&#45;&gt;has quantitative value -->
<g id="edge4" class="edge">
<title>empirical modifier&#45;&gt;has quantitative value</title>
<path fill="none" stroke="blue" d="M535.32,-86.64C534.95,-76.91 535.23,-64.64 537.79,-54 538.49,-51.11 539.45,-48.17 540.56,-45.3"/>
<polygon fill="blue" stroke="blue" points="543.88,-46.45 544.77,-35.89 537.49,-43.59 543.88,-46.45"/>
<text text-anchor="middle" x="617.79" y="-57.8" font-family="Times,serif" font-size="14.00">has quantitative value</text>
</g>
<!-- has qualitative value -->
<g id="node7" class="node">
<title>has qualitative value</title>
<ellipse fill="none" stroke="blue" cx="719.79" cy="-18" rx="69.59" ry="18"/>
<text text-anchor="middle" x="719.79" y="-14.3" font-family="Times,serif" font-size="14.00">named thing</text>
</g>
<!-- empirical modifier&#45;&gt;has qualitative value -->
<g id="edge5" class="edge">
<title>empirical modifier&#45;&gt;has qualitative value</title>
<path fill="none" stroke="blue" d="M604.79,-92.2C645.29,-84.65 690.26,-75.15 697.79,-69 704.97,-63.13 709.87,-54.46 713.19,-45.97"/>
<polygon fill="blue" stroke="blue" points="716.58,-46.87 716.4,-36.28 709.94,-44.67 716.58,-46.87"/>
<text text-anchor="middle" x="784.29" y="-57.8" font-family="Times,serif" font-size="14.00">has qualitative value</text>
</g>
<!-- iri -->
<g id="node8" class="node">
<title>iri</title>
<ellipse fill="none" stroke="blue" cx="891.79" cy="-18" rx="44.39" ry="18"/>
<text text-anchor="middle" x="891.79" y="-14.3" font-family="Times,serif" font-size="14.00">iri type</text>
</g>
<!-- empirical modifier&#45;&gt;iri -->
<g id="edge6" class="edge">
<title>empirical modifier&#45;&gt;iri</title>
<path fill="none" stroke="blue" d="M604.09,-92.18C616.28,-90.27 628.9,-88.45 640.79,-87 689.92,-81 820.94,-95.42 862.79,-69 871.39,-63.57 877.73,-54.61 882.24,-45.75"/>
<polygon fill="blue" stroke="blue" points="885.55,-46.92 886.45,-36.36 879.17,-44.06 885.55,-46.92"/>
<text text-anchor="middle" x="885.79" y="-57.8" font-family="Times,serif" font-size="14.00">iri</text>
</g>
<!-- source -->
<g id="node9" class="node">
<title>source</title>
<ellipse fill="none" stroke="blue" cx="1010.79" cy="-18" rx="56.59" ry="18"/>
<text text-anchor="middle" x="1010.79" y="-14.3" font-family="Times,serif" font-size="14.00">label type</text>
</g>
<!-- empirical modifier&#45;&gt;source -->
<g id="edge7" class="edge">
<title>empirical modifier&#45;&gt;source</title>
<path fill="none" stroke="blue" d="M603.8,-92.12C616.08,-90.2 628.8,-88.4 640.79,-87 754.52,-73.75 786.66,-96.58 897.79,-69 924.63,-62.34 953.1,-49.71 974.74,-38.81"/>
<polygon fill="blue" stroke="blue" points="976.59,-41.79 983.88,-34.11 973.39,-35.57 976.59,-41.79"/>
<text text-anchor="middle" x="963.79" y="-57.8" font-family="Times,serif" font-size="14.00">source</text>
</g>
<!-- attribute_name -->
<g id="node4" class="node">
<title>attribute_name</title>
<ellipse fill="none" stroke="blue" cx="706.79" cy="-105" rx="56.59" ry="18"/>
<text text-anchor="middle" x="706.79" y="-101.3" font-family="Times,serif" font-size="14.00">label type</text>
</g>
</g>
</svg>
