<?xml version="1.0" encoding="UTF-8" standalone="no"?>
<!DOCTYPE svg PUBLIC "-//W3C//DTD SVG 1.1//EN"
 "http://www.w3.org/Graphics/SVG/1.1/DTD/svg11.dtd">
<!-- Generated by graphviz version 2.43.0 (0)
 -->
<!-- Title: %3 Pages: 1 -->
<svg width="1210pt" height="131pt"
 viewBox="0.00 0.00 1209.89 131.00" xmlns="http://www.w3.org/2000/svg" xmlns:xlink="http://www.w3.org/1999/xlink">
<g id="graph0" class="graph" transform="scale(1 1) rotate(0) translate(4 127)">
<title>%3</title>
<polygon fill="white" stroke="transparent" points="-4,4 -4,-127 1205.89,-127 1205.89,4 -4,4"/>
<!-- empirical entity -->
<g id="node1" class="node">
<title>empirical entity</title>
<ellipse fill="none" stroke="black" cx="585.54" cy="-105" rx="84.49" ry="18"/>
<text text-anchor="middle" x="585.54" y="-101.3" font-family="Times,serif" font-size="14.00">empirical entity</text>
</g>
<!-- named thing -->
<g id="node2" class="node">
<title>named thing</title>
<ellipse fill="none" stroke="black" cx="69.54" cy="-18" rx="69.59" ry="18"/>
<text text-anchor="middle" x="69.54" y="-14.3" font-family="Times,serif" font-size="14.00">named thing</text>
</g>
<!-- empirical entity&#45;&gt;named thing -->
<g id="edge1" class="edge">
<title>empirical entity&#45;&gt;named thing</title>
<path fill="none" stroke="black" d="M508.76,-97.42C447.94,-91.63 360.97,-82.09 285.54,-69 231.01,-59.54 169.59,-44.93 126.22,-33.94"/>
<polygon fill="black" stroke="black" points="126.98,-30.52 116.43,-31.44 125.25,-37.31 126.98,-30.52"/>
<text text-anchor="middle" x="299.54" y="-57.8" font-family="Times,serif" font-size="14.00">is_a</text>
</g>
<!-- id -->
<g id="node3" class="node">
<title>id</title>
<ellipse fill="none" stroke="blue" cx="195.54" cy="-18" rx="38.19" ry="18"/>
<text text-anchor="middle" x="195.54" y="-14.3" font-family="Times,serif" font-size="14.00">string</text>
</g>
<!-- empirical entity&#45;&gt;id -->
<g id="edge2" class="edge">
<title>empirical entity&#45;&gt;id</title>
<path fill="none" stroke="blue" d="M518.25,-93.98C448.71,-82.84 337.4,-62.83 243.54,-36 240.44,-35.11 237.25,-34.13 234.05,-33.11"/>
<polygon fill="blue" stroke="blue" points="235.14,-29.78 224.55,-29.92 232.92,-36.42 235.14,-29.78"/>
<text text-anchor="middle" x="381.54" y="-57.8" font-family="Times,serif" font-size="14.00">id</text>
</g>
<!-- iri -->
<g id="node4" class="node">
<title>iri</title>
<ellipse fill="none" stroke="blue" cx="296.54" cy="-18" rx="44.39" ry="18"/>
<text text-anchor="middle" x="296.54" y="-14.3" font-family="Times,serif" font-size="14.00">iri type</text>
</g>
<!-- empirical entity&#45;&gt;iri -->
<g id="edge3" class="edge">
<title>empirical entity&#45;&gt;iri</title>
<path fill="none" stroke="blue" d="M535.91,-90.33C512.95,-83.95 485.33,-76.19 460.54,-69 411.52,-54.78 399.33,-51 350.54,-36 347.05,-34.93 343.43,-33.81 339.8,-32.67"/>
<polygon fill="blue" stroke="blue" points="340.81,-29.32 330.22,-29.68 338.72,-36.01 340.81,-29.32"/>
<text text-anchor="middle" x="468.54" y="-57.8" font-family="Times,serif" font-size="14.00">iri</text>
</g>
<!-- type -->
<g id="node5" class="node">
<title>type</title>
<ellipse fill="none" stroke="blue" cx="397.54" cy="-18" rx="38.19" ry="18"/>
<text text-anchor="middle" x="397.54" y="-14.3" font-family="Times,serif" font-size="14.00">string</text>
</g>
<!-- empirical entity&#45;&gt;type -->
<g id="edge4" class="edge">
<title>empirical entity&#45;&gt;type</title>
<path fill="none" stroke="blue" d="M551.06,-88.41C517.78,-73.36 467.58,-50.66 433.73,-35.36"/>
<polygon fill="blue" stroke="blue" points="434.77,-31.99 424.21,-31.06 431.88,-38.37 434.77,-31.99"/>
<text text-anchor="middle" x="519.54" y="-57.8" font-family="Times,serif" font-size="14.00">type</text>
</g>
<!-- name -->
<g id="node6" class="node">
<title>name</title>
<ellipse fill="none" stroke="blue" cx="510.54" cy="-18" rx="56.59" ry="18"/>
<text text-anchor="middle" x="510.54" y="-14.3" font-family="Times,serif" font-size="14.00">label type</text>
</g>
<!-- empirical entity&#45;&gt;name -->
<g id="edge5" class="edge">
<title>empirical entity&#45;&gt;name</title>
<path fill="none" stroke="blue" d="M570.73,-87.21C559.66,-74.67 544.38,-57.35 531.99,-43.3"/>
<polygon fill="blue" stroke="blue" points="534.32,-40.65 525.08,-35.47 529.07,-45.28 534.32,-40.65"/>
<text text-anchor="middle" x="572.54" y="-57.8" font-family="Times,serif" font-size="14.00">name</text>
</g>
<!-- description -->
<g id="node7" class="node">
<title>description</title>
<ellipse fill="none" stroke="blue" cx="660.54" cy="-18" rx="75.29" ry="18"/>
<text text-anchor="middle" x="660.54" y="-14.3" font-family="Times,serif" font-size="14.00">narrative text</text>
</g>
<!-- empirical entity&#45;&gt;description -->
<g id="edge6" class="edge">
<title>empirical entity&#45;&gt;description</title>
<path fill="none" stroke="blue" d="M600.36,-87.21C611.35,-74.75 626.51,-57.57 638.86,-43.57"/>
<polygon fill="blue" stroke="blue" points="641.77,-45.57 645.76,-35.76 636.52,-40.94 641.77,-45.57"/>
<text text-anchor="middle" x="668.04" y="-57.8" font-family="Times,serif" font-size="14.00">description</text>
</g>
<!-- source -->
<g id="node8" class="node">
<title>source</title>
<ellipse fill="none" stroke="blue" cx="810.54" cy="-18" rx="56.59" ry="18"/>
<text text-anchor="middle" x="810.54" y="-14.3" font-family="Times,serif" font-size="14.00">label type</text>
</g>
<!-- empirical entity&#45;&gt;source -->
<g id="edge7" class="edge">
<title>empirical entity&#45;&gt;source</title>
<path fill="none" stroke="blue" d="M641.03,-91.31C663.56,-85.5 689.62,-77.9 712.54,-69 734.17,-60.6 757.34,-48.92 775.72,-38.95"/>
<polygon fill="blue" stroke="blue" points="777.52,-41.96 784.59,-34.07 774.14,-35.83 777.52,-41.96"/>
<text text-anchor="middle" x="770.54" y="-57.8" font-family="Times,serif" font-size="14.00">source</text>
</g>
<!-- provided by -->
<g id="node9" class="node">
<title>provided by</title>
<ellipse fill="none" stroke="blue" cx="922.54" cy="-18" rx="37.09" ry="18"/>
<text text-anchor="middle" x="922.54" y="-14.3" font-family="Times,serif" font-size="14.00">agent</text>
</g>
<!-- empirical entity&#45;&gt;provided by -->
<g id="edge8" class="edge">
<title>empirical entity&#45;&gt;provided by</title>
<path fill="none" stroke="blue" d="M646.78,-92.52C657.36,-90.62 668.26,-88.71 678.54,-87 731.74,-78.15 746.51,-83.18 798.54,-69 829.58,-60.54 863.36,-46.58 887.81,-35.56"/>
<polygon fill="blue" stroke="blue" points="889.39,-38.69 897.03,-31.35 886.48,-32.33 889.39,-38.69"/>
<text text-anchor="middle" x="883.04" y="-57.8" font-family="Times,serif" font-size="14.00">provided by</text>
</g>
<!-- has attribute -->
<g id="node10" class="node">
<title>has attribute</title>
<ellipse fill="none" stroke="blue" cx="1029.54" cy="-18" rx="51.99" ry="18"/>
<text text-anchor="middle" x="1029.54" y="-14.3" font-family="Times,serif" font-size="14.00">attribute</text>
</g>
<!-- empirical entity&#45;&gt;has attribute -->
<g id="edge9" class="edge">
<title>empirical entity&#45;&gt;has attribute</title>
<path fill="none" stroke="blue" d="M644.93,-92.15C656.07,-90.21 667.63,-88.38 678.54,-87 789.5,-72.92 821.68,-98.58 929.54,-69 953.35,-62.47 978.19,-50.09 997.15,-39.28"/>
<polygon fill="blue" stroke="blue" points="999.09,-42.2 1005.96,-34.13 995.56,-36.16 999.09,-42.2"/>
<text text-anchor="middle" x="1014.54" y="-57.8" font-family="Times,serif" font-size="14.00">has attribute</text>
</g>
<!-- category -->
<g id="node11" class="node">
<title>category</title>
<ellipse fill="none" stroke="black" cx="1150.54" cy="-18" rx="51.19" ry="18"/>
<text text-anchor="middle" x="1150.54" y="-14.3" font-family="Times,serif" font-size="14.00">category</text>
</g>
<!-- empirical entity&#45;&gt;category -->
<g id="edge10" class="edge">
<title>empirical entity&#45;&gt;category</title>
<path fill="none" stroke="blue" d="M644.4,-92.01C655.69,-90.06 667.45,-88.27 678.54,-87 764.08,-77.24 983.02,-93.54 1065.54,-69 1085.76,-62.99 1106.2,-51.18 1121.97,-40.55"/>
<polygon fill="blue" stroke="blue" points="1124.01,-43.4 1130.22,-34.81 1120.01,-37.65 1124.01,-43.4"/>
<text text-anchor="middle" x="1129.04" y="-57.8" font-family="Times,serif" font-size="14.00">category</text>
</g>
<!-- named thing_category -->
<g id="node12" class="node">
<title>named thing_category</title>
<ellipse fill="none" stroke="blue" cx="757.54" cy="-105" rx="69.59" ry="18"/>
<text text-anchor="middle" x="757.54" y="-101.3" font-family="Times,serif" font-size="14.00">named thing</text>
</g>
</g>
</svg>
