<?xml version="1.0" encoding="UTF-8" standalone="no"?>
<!DOCTYPE svg PUBLIC "-//W3C//DTD SVG 1.1//EN"
 "http://www.w3.org/Graphics/SVG/1.1/DTD/svg11.dtd">
<!-- Generated by graphviz version 2.43.0 (0)
 -->
<!-- Title: %3 Pages: 1 -->
<svg width="1469pt" height="131pt"
 viewBox="0.00 0.00 1468.63 131.00" xmlns="http://www.w3.org/2000/svg" xmlns:xlink="http://www.w3.org/1999/xlink">
<g id="graph0" class="graph" transform="scale(1 1) rotate(0) translate(4 127)">
<title>%3</title>
<polygon fill="white" stroke="transparent" points="-4,4 -4,-127 1464.63,-127 1464.63,4 -4,4"/>
<!-- empirical finding -->
<g id="node1" class="node">
<title>empirical finding</title>
<ellipse fill="none" stroke="black" cx="717.14" cy="-105" rx="89.08" ry="18"/>
<text text-anchor="middle" x="717.14" y="-101.3" font-family="Times,serif" font-size="14.00">empirical finding</text>
</g>
<!-- observable feature -->
<g id="node2" class="node">
<title>observable feature</title>
<ellipse fill="none" stroke="black" cx="98.14" cy="-18" rx="98.28" ry="18"/>
<text text-anchor="middle" x="98.14" y="-14.3" font-family="Times,serif" font-size="14.00">observable feature</text>
</g>
<!-- empirical finding&#45;&gt;observable feature -->
<g id="edge1" class="edge">
<title>empirical finding&#45;&gt;observable feature</title>
<path fill="none" stroke="black" d="M633.82,-98.6C558.63,-93.14 445.13,-83.43 347.14,-69 285.62,-59.94 216.31,-45.69 166.47,-34.71"/>
<polygon fill="black" stroke="black" points="166.97,-31.24 156.45,-32.49 165.46,-38.07 166.97,-31.24"/>
<text text-anchor="middle" x="361.14" y="-57.8" font-family="Times,serif" font-size="14.00">is_a</text>
</g>
<!-- id -->
<g id="node3" class="node">
<title>id</title>
<ellipse fill="none" stroke="blue" cx="252.14" cy="-18" rx="38.19" ry="18"/>
<text text-anchor="middle" x="252.14" y="-14.3" font-family="Times,serif" font-size="14.00">string</text>
</g>
<!-- empirical finding&#45;&gt;id -->
<g id="edge2" class="edge">
<title>empirical finding&#45;&gt;id</title>
<path fill="none" stroke="blue" d="M638.36,-96.57C553.63,-87.33 415.54,-68.65 300.14,-36 297.04,-35.12 293.84,-34.15 290.64,-33.12"/>
<polygon fill="blue" stroke="blue" points="291.73,-29.8 281.14,-29.95 289.51,-36.44 291.73,-29.8"/>
<text text-anchor="middle" x="443.14" y="-57.8" font-family="Times,serif" font-size="14.00">id</text>
</g>
<!-- iri -->
<g id="node4" class="node">
<title>iri</title>
<ellipse fill="none" stroke="blue" cx="353.14" cy="-18" rx="44.39" ry="18"/>
<text text-anchor="middle" x="353.14" y="-14.3" font-family="Times,serif" font-size="14.00">iri type</text>
</g>
<!-- empirical finding&#45;&gt;iri -->
<g id="edge3" class="edge">
<title>empirical finding&#45;&gt;iri</title>
<path fill="none" stroke="blue" d="M651.77,-92.69C616.51,-86.3 572.31,-77.84 533.14,-69 476.67,-56.25 462.77,-52.03 407.14,-36 403.63,-34.99 400,-33.91 396.36,-32.81"/>
<polygon fill="blue" stroke="blue" points="397.35,-29.45 386.77,-29.86 395.3,-36.15 397.35,-29.45"/>
<text text-anchor="middle" x="541.14" y="-57.8" font-family="Times,serif" font-size="14.00">iri</text>
</g>
<!-- type -->
<g id="node5" class="node">
<title>type</title>
<ellipse fill="none" stroke="blue" cx="454.14" cy="-18" rx="38.19" ry="18"/>
<text text-anchor="middle" x="454.14" y="-14.3" font-family="Times,serif" font-size="14.00">string</text>
</g>
<!-- empirical finding&#45;&gt;type -->
<g id="edge4" class="edge">
<title>empirical finding&#45;&gt;type</title>
<path fill="none" stroke="blue" d="M667.79,-89.99C646.33,-83.76 620.93,-76.22 598.14,-69 554.73,-55.24 544.11,-51.08 501.14,-36 498.45,-35.06 495.68,-34.08 492.9,-33.08"/>
<polygon fill="blue" stroke="blue" points="494.04,-29.78 483.44,-29.7 491.68,-36.37 494.04,-29.78"/>
<text text-anchor="middle" x="614.14" y="-57.8" font-family="Times,serif" font-size="14.00">type</text>
</g>
<!-- name -->
<g id="node6" class="node">
<title>name</title>
<ellipse fill="none" stroke="blue" cx="567.14" cy="-18" rx="56.59" ry="18"/>
<text text-anchor="middle" x="567.14" y="-14.3" font-family="Times,serif" font-size="14.00">label type</text>
</g>
<!-- empirical finding&#45;&gt;name -->
<g id="edge5" class="edge">
<title>empirical finding&#45;&gt;name</title>
<path fill="none" stroke="blue" d="M688.57,-87.81C664.09,-73.94 628.72,-53.9 602.46,-39.02"/>
<polygon fill="blue" stroke="blue" points="604.02,-35.87 593.59,-33.99 600.56,-41.96 604.02,-35.87"/>
<text text-anchor="middle" x="671.14" y="-57.8" font-family="Times,serif" font-size="14.00">name</text>
</g>
<!-- description -->
<g id="node7" class="node">
<title>description</title>
<ellipse fill="none" stroke="blue" cx="717.14" cy="-18" rx="75.29" ry="18"/>
<text text-anchor="middle" x="717.14" y="-14.3" font-family="Times,serif" font-size="14.00">narrative text</text>
</g>
<!-- empirical finding&#45;&gt;description -->
<g id="edge6" class="edge">
<title>empirical finding&#45;&gt;description</title>
<path fill="none" stroke="blue" d="M717.14,-86.8C717.14,-75.16 717.14,-59.55 717.14,-46.24"/>
<polygon fill="blue" stroke="blue" points="720.64,-46.18 717.14,-36.18 713.64,-46.18 720.64,-46.18"/>
<text text-anchor="middle" x="757.64" y="-57.8" font-family="Times,serif" font-size="14.00">description</text>
</g>
<!-- source -->
<g id="node8" class="node">
<title>source</title>
<ellipse fill="none" stroke="blue" cx="867.14" cy="-18" rx="56.59" ry="18"/>
<text text-anchor="middle" x="867.14" y="-14.3" font-family="Times,serif" font-size="14.00">label type</text>
</g>
<!-- empirical finding&#45;&gt;source -->
<g id="edge7" class="edge">
<title>empirical finding&#45;&gt;source</title>
<path fill="none" stroke="blue" d="M759.69,-89.04C773.6,-83.49 788.87,-76.65 802.14,-69 815.74,-61.16 829.68,-50.8 841.14,-41.54"/>
<polygon fill="blue" stroke="blue" points="843.53,-44.11 849.02,-35.05 839.07,-38.71 843.53,-44.11"/>
<text text-anchor="middle" x="849.14" y="-57.8" font-family="Times,serif" font-size="14.00">source</text>
</g>
<!-- provided by -->
<g id="node9" class="node">
<title>provided by</title>
<ellipse fill="none" stroke="blue" cx="979.14" cy="-18" rx="37.09" ry="18"/>
<text text-anchor="middle" x="979.14" y="-14.3" font-family="Times,serif" font-size="14.00">agent</text>
</g>
<!-- empirical finding&#45;&gt;provided by -->
<g id="edge8" class="edge">
<title>empirical finding&#45;&gt;provided by</title>
<path fill="none" stroke="blue" d="M784.3,-93.04C813.3,-87.35 847.34,-79.39 877.14,-69 901.42,-60.53 927.42,-47.73 947.09,-37.19"/>
<polygon fill="blue" stroke="blue" points="948.82,-40.24 955.93,-32.39 945.47,-34.09 948.82,-40.24"/>
<text text-anchor="middle" x="954.64" y="-57.8" font-family="Times,serif" font-size="14.00">provided by</text>
</g>
<!-- category -->
<g id="node10" class="node">
<title>category</title>
<ellipse fill="none" stroke="black" cx="1085.14" cy="-18" rx="51.19" ry="18"/>
<text text-anchor="middle" x="1085.14" y="-14.3" font-family="Times,serif" font-size="14.00">category</text>
</g>
<!-- empirical finding&#45;&gt;category -->
<g id="edge9" class="edge">
<title>empirical finding&#45;&gt;category</title>
<path fill="none" stroke="blue" d="M780.56,-92.28C792.04,-90.36 803.93,-88.51 815.14,-87 897.45,-75.89 922.22,-94.86 1001.14,-69 1020.69,-62.59 1040.56,-51.04 1056.06,-40.66"/>
<polygon fill="blue" stroke="blue" points="1058.41,-43.29 1064.65,-34.73 1054.43,-37.53 1058.41,-43.29"/>
<text text-anchor="middle" x="1064.64" y="-57.8" font-family="Times,serif" font-size="14.00">category</text>
</g>
<!-- in taxon -->
<g id="node12" class="node">
<title>in taxon</title>
<ellipse fill="none" stroke="blue" cx="1227.14" cy="-18" rx="72.59" ry="18"/>
<text text-anchor="middle" x="1227.14" y="-14.3" font-family="Times,serif" font-size="14.00">system taxon</text>
</g>
<!-- empirical finding&#45;&gt;in taxon -->
<g id="edge10" class="edge">
<title>empirical finding&#45;&gt;in taxon</title>
<path fill="none" stroke="blue" d="M779.47,-92.14C791.28,-90.19 803.57,-88.37 815.14,-87 941.19,-72.13 976.26,-96.58 1100.14,-69 1130.16,-62.32 1162.38,-49.56 1186.85,-38.61"/>
<polygon fill="blue" stroke="blue" points="1188.52,-41.69 1196.17,-34.36 1185.62,-35.32 1188.52,-41.69"/>
<text text-anchor="middle" x="1176.14" y="-57.8" font-family="Times,serif" font-size="14.00">in taxon</text>
</g>
<!-- has attribute -->
<g id="node13" class="node">
<title>has attribute</title>
<ellipse fill="none" stroke="black" cx="1389.14" cy="-18" rx="71.49" ry="18"/>
<text text-anchor="middle" x="1389.14" y="-14.3" font-family="Times,serif" font-size="14.00">has attribute</text>
</g>
<!-- empirical finding&#45;&gt;has attribute -->
<g id="edge11" class="edge">
<title>empirical finding&#45;&gt;has attribute</title>
<path fill="none" stroke="blue" d="M779.19,-92.02C791.08,-90.07 803.47,-88.27 815.14,-87 989.4,-67.98 1036.04,-96.63 1209.14,-69 1253.93,-61.85 1303.5,-47.59 1339.27,-36.12"/>
<polygon fill="blue" stroke="blue" points="1340.54,-39.39 1348.97,-32.97 1338.38,-32.73 1340.54,-39.39"/>
<text text-anchor="middle" x="1322.14" y="-57.8" font-family="Times,serif" font-size="14.00">has attribute</text>
</g>
<!-- named thing_category -->
<g id="node11" class="node">
<title>named thing_category</title>
<ellipse fill="none" stroke="blue" cx="894.14" cy="-105" rx="69.59" ry="18"/>
<text text-anchor="middle" x="894.14" y="-101.3" font-family="Times,serif" font-size="14.00">named thing</text>
</g>
<!-- empirical finding_has attribute -->
<g id="node14" class="node">
<title>empirical finding_has attribute</title>
<ellipse fill="none" stroke="blue" cx="1080.14" cy="-105" rx="98.58" ry="18"/>
<text text-anchor="middle" x="1080.14" y="-101.3" font-family="Times,serif" font-size="14.00">empirical attribute</text>
</g>
</g>
</svg>
