<?xml version="1.0" encoding="UTF-8" standalone="no"?>
<!DOCTYPE svg PUBLIC "-//W3C//DTD SVG 1.1//EN"
 "http://www.w3.org/Graphics/SVG/1.1/DTD/svg11.dtd">
<!-- Generated by graphviz version 2.43.0 (0)
 -->
<!-- Title: %3 Pages: 1 -->
<svg width="1101pt" height="131pt"
 viewBox="0.00 0.00 1100.68 131.00" xmlns="http://www.w3.org/2000/svg" xmlns:xlink="http://www.w3.org/1999/xlink">
<g id="graph0" class="graph" transform="scale(1 1) rotate(0) translate(4 127)">
<title>%3</title>
<polygon fill="white" stroke="transparent" points="-4,4 -4,-127 1096.68,-127 1096.68,4 -4,4"/>
<!-- empirical measurement -->
<g id="node1" class="node">
<title>empirical measurement</title>
<ellipse fill="none" stroke="black" cx="557.79" cy="-105" rx="120.78" ry="18"/>
<text text-anchor="middle" x="557.79" y="-101.3" font-family="Times,serif" font-size="14.00">empirical measurement</text>
</g>
<!-- empirical attribute -->
<g id="node2" class="node">
<title>empirical attribute</title>
<ellipse fill="none" stroke="black" cx="98.79" cy="-18" rx="98.58" ry="18"/>
<text text-anchor="middle" x="98.79" y="-14.3" font-family="Times,serif" font-size="14.00">empirical attribute</text>
</g>
<!-- empirical measurement&#45;&gt;empirical attribute -->
<g id="edge1" class="edge">
<title>empirical measurement&#45;&gt;empirical attribute</title>
<path fill="none" stroke="black" d="M456.73,-95.11C402.98,-89.46 335.95,-80.92 276.79,-69 235.41,-60.66 189.57,-47.69 154.77,-37.05"/>
<polygon fill="black" stroke="black" points="155.39,-33.58 144.8,-33.98 153.32,-40.27 155.39,-33.58"/>
<text text-anchor="middle" x="290.79" y="-57.8" font-family="Times,serif" font-size="14.00">is_a</text>
</g>
<!-- name -->
<g id="node3" class="node">
<title>name</title>
<ellipse fill="none" stroke="black" cx="251.79" cy="-18" rx="36.29" ry="18"/>
<text text-anchor="middle" x="251.79" y="-14.3" font-family="Times,serif" font-size="14.00">name</text>
</g>
<!-- empirical measurement&#45;&gt;name -->
<g id="edge2" class="edge">
<title>empirical measurement&#45;&gt;name</title>
<path fill="none" stroke="blue" d="M457.08,-95.03C420.13,-89.83 378.4,-81.7 341.79,-69 320.42,-61.59 298.18,-49.28 281.16,-38.74"/>
<polygon fill="blue" stroke="blue" points="282.59,-35.5 272.28,-33.1 278.84,-41.41 282.59,-35.5"/>
<text text-anchor="middle" x="361.79" y="-57.8" font-family="Times,serif" font-size="14.00">name</text>
</g>
<!-- has quantitative value -->
<g id="node5" class="node">
<title>has quantitative value</title>
<ellipse fill="none" stroke="blue" cx="383.79" cy="-18" rx="77.19" ry="18"/>
<text text-anchor="middle" x="383.79" y="-14.3" font-family="Times,serif" font-size="14.00">quantity value</text>
</g>
<!-- empirical measurement&#45;&gt;has quantitative value -->
<g id="edge3" class="edge">
<title>empirical measurement&#45;&gt;has quantitative value</title>
<path fill="none" stroke="blue" d="M465.58,-93.26C434.33,-87.79 404.58,-79.93 393.79,-69 387.84,-62.98 384.94,-54.48 383.65,-46.19"/>
<polygon fill="blue" stroke="blue" points="387.11,-45.67 382.75,-36.01 380.14,-46.28 387.11,-45.67"/>
<text text-anchor="middle" x="473.79" y="-57.8" font-family="Times,serif" font-size="14.00">has quantitative value</text>
</g>
<!-- has qualitative value -->
<g id="node6" class="node">
<title>has qualitative value</title>
<ellipse fill="none" stroke="blue" cx="557.79" cy="-18" rx="69.59" ry="18"/>
<text text-anchor="middle" x="557.79" y="-14.3" font-family="Times,serif" font-size="14.00">named thing</text>
</g>
<!-- empirical measurement&#45;&gt;has qualitative value -->
<g id="edge4" class="edge">
<title>empirical measurement&#45;&gt;has qualitative value</title>
<path fill="none" stroke="blue" d="M557.79,-86.8C557.79,-75.16 557.79,-59.55 557.79,-46.24"/>
<polygon fill="blue" stroke="blue" points="561.29,-46.18 557.79,-36.18 554.29,-46.18 561.29,-46.18"/>
<text text-anchor="middle" x="632.29" y="-57.8" font-family="Times,serif" font-size="14.00">has qualitative value</text>
</g>
<!-- iri -->
<g id="node7" class="node">
<title>iri</title>
<ellipse fill="none" stroke="blue" cx="709.79" cy="-18" rx="44.39" ry="18"/>
<text text-anchor="middle" x="709.79" y="-14.3" font-family="Times,serif" font-size="14.00">iri type</text>
</g>
<!-- empirical measurement&#45;&gt;iri -->
<g id="edge5" class="edge">
<title>empirical measurement&#45;&gt;iri</title>
<path fill="none" stroke="blue" d="M645.9,-92.65C673.52,-87.2 699.1,-79.51 707.79,-69 713.01,-62.69 714.65,-54.25 714.65,-46.11"/>
<polygon fill="blue" stroke="blue" points="718.14,-45.84 713.91,-36.13 711.16,-46.36 718.14,-45.84"/>
<text text-anchor="middle" x="722.79" y="-57.8" font-family="Times,serif" font-size="14.00">iri</text>
</g>
<!-- source -->
<g id="node8" class="node">
<title>source</title>
<ellipse fill="none" stroke="blue" cx="828.79" cy="-18" rx="56.59" ry="18"/>
<text text-anchor="middle" x="828.79" y="-14.3" font-family="Times,serif" font-size="14.00">label type</text>
</g>
<!-- empirical measurement&#45;&gt;source -->
<g id="edge6" class="edge">
<title>empirical measurement&#45;&gt;source</title>
<path fill="none" stroke="blue" d="M643.79,-92.23C673.16,-86.84 705.87,-79.3 734.79,-69 756,-61.45 778.3,-49.77 795.85,-39.6"/>
<polygon fill="blue" stroke="blue" points="797.74,-42.54 804.57,-34.44 794.18,-36.52 797.74,-42.54"/>
<text text-anchor="middle" x="791.79" y="-57.8" font-family="Times,serif" font-size="14.00">source</text>
</g>
<!-- has attribute type -->
<g id="node9" class="node">
<title>has attribute type</title>
<ellipse fill="none" stroke="black" cx="997.79" cy="-18" rx="94.78" ry="18"/>
<text text-anchor="middle" x="997.79" y="-14.3" font-family="Times,serif" font-size="14.00">has attribute type</text>
</g>
<!-- empirical measurement&#45;&gt;has attribute type -->
<g id="edge7" class="edge">
<title>empirical measurement&#45;&gt;has attribute type</title>
<path fill="none" stroke="blue" d="M645.2,-92.47C719.69,-82.62 815.42,-69.9 819.79,-69 861.14,-60.48 906.98,-47.51 941.79,-36.92"/>
<polygon fill="blue" stroke="blue" points="943.23,-40.14 951.76,-33.86 941.17,-33.45 943.23,-40.14"/>
<text text-anchor="middle" x="944.79" y="-57.8" font-family="Times,serif" font-size="14.00">has attribute type</text>
</g>
<!-- attribute_name -->
<g id="node4" class="node">
<title>attribute_name</title>
<ellipse fill="none" stroke="blue" cx="752.79" cy="-105" rx="56.59" ry="18"/>
<text text-anchor="middle" x="752.79" y="-101.3" font-family="Times,serif" font-size="14.00">label type</text>
</g>
<!-- empirical measurement_has attribute type -->
<g id="node10" class="node">
<title>empirical measurement_has attribute type</title>
<ellipse fill="none" stroke="blue" cx="903.79" cy="-105" rx="76.89" ry="18"/>
<text text-anchor="middle" x="903.79" y="-101.3" font-family="Times,serif" font-size="14.00">ontology class</text>
</g>
</g>
</svg>
