<?xml version="1.0" encoding="UTF-8" standalone="no"?>
<!DOCTYPE svg PUBLIC "-//W3C//DTD SVG 1.1//EN"
 "http://www.w3.org/Graphics/SVG/1.1/DTD/svg11.dtd">
<!-- Generated by graphviz version 2.43.0 (0)
 -->
<!-- Title: %3 Pages: 1 -->
<svg width="1447pt" height="131pt"
 viewBox="0.00 0.00 1447.48 131.00" xmlns="http://www.w3.org/2000/svg" xmlns:xlink="http://www.w3.org/1999/xlink">
<g id="graph0" class="graph" transform="scale(1 1) rotate(0) translate(4 127)">
<title>%3</title>
<polygon fill="white" stroke="transparent" points="-4,4 -4,-127 1443.48,-127 1443.48,4 -4,4"/>
<!-- entity to observable feature association mixin -->
<g id="node1" class="node">
<title>entity to observable feature association mixin</title>
<ellipse fill="none" stroke="black" cx="830.48" cy="-105" rx="223.66" ry="18"/>
<text text-anchor="middle" x="830.48" y="-101.3" font-family="Times,serif" font-size="14.00">entity to observable feature association mixin</text>
</g>
<!-- entity to feature or error qualifiers mixin -->
<g id="node2" class="node">
<title>entity to feature or error qualifiers mixin</title>
<ellipse fill="none" stroke="black" cx="201.48" cy="-18" rx="201.46" ry="18"/>
<text text-anchor="middle" x="201.48" y="-14.3" font-family="Times,serif" font-size="14.00">entity to feature or error qualifiers mixin</text>
</g>
<!-- entity to observable feature association mixin&#45;&gt;entity to feature or error qualifiers mixin -->
<g id="edge1" class="edge">
<title>entity to observable feature association mixin&#45;&gt;entity to feature or error qualifiers mixin</title>
<path fill="none" stroke="black" d="M689.32,-90.99C630.52,-85.07 561.6,-77.49 499.48,-69 430.82,-59.62 353.66,-46.6 295.07,-36.2"/>
<polygon fill="black" stroke="black" points="295.55,-32.74 285.09,-34.43 294.32,-39.63 295.55,-32.74"/>
<text text-anchor="middle" x="513.48" y="-57.8" font-family="Times,serif" font-size="14.00">is_a</text>
</g>
<!-- frequency qualifier -->
<g id="node3" class="node">
<title>frequency qualifier</title>
<ellipse fill="none" stroke="blue" cx="506.48" cy="-18" rx="85.29" ry="18"/>
<text text-anchor="middle" x="506.48" y="-14.3" font-family="Times,serif" font-size="14.00">frequency value</text>
</g>
<!-- entity to observable feature association mixin&#45;&gt;frequency qualifier -->
<g id="edge2" class="edge">
<title>entity to observable feature association mixin&#45;&gt;frequency qualifier</title>
<path fill="none" stroke="blue" d="M660.97,-93.2C613.45,-87.93 569.13,-80.22 548.48,-69 537.96,-63.28 528.97,-53.77 522.04,-44.56"/>
<polygon fill="blue" stroke="blue" points="524.87,-42.5 516.26,-36.31 519.13,-46.51 524.87,-42.5"/>
<text text-anchor="middle" x="616.48" y="-57.8" font-family="Times,serif" font-size="14.00">frequency qualifier</text>
</g>
<!-- severity qualifier -->
<g id="node4" class="node">
<title>severity qualifier</title>
<ellipse fill="none" stroke="blue" cx="685.48" cy="-18" rx="76.09" ry="18"/>
<text text-anchor="middle" x="685.48" y="-14.3" font-family="Times,serif" font-size="14.00">severity value</text>
</g>
<!-- entity to observable feature association mixin&#45;&gt;severity qualifier -->
<g id="edge3" class="edge">
<title>entity to observable feature association mixin&#45;&gt;severity qualifier</title>
<path fill="none" stroke="blue" d="M725.35,-89.01C714.6,-84.01 704.65,-77.49 696.48,-69 690.68,-62.96 687.65,-54.6 686.15,-46.44"/>
<polygon fill="blue" stroke="blue" points="689.62,-45.92 684.97,-36.39 682.66,-46.74 689.62,-45.92"/>
<text text-anchor="middle" x="757.48" y="-57.8" font-family="Times,serif" font-size="14.00">severity qualifier</text>
</g>
<!-- onset qualifier -->
<g id="node5" class="node">
<title>onset qualifier</title>
<ellipse fill="none" stroke="blue" cx="815.48" cy="-18" rx="36.29" ry="18"/>
<text text-anchor="middle" x="815.48" y="-14.3" font-family="Times,serif" font-size="14.00">onset</text>
</g>
<!-- entity to observable feature association mixin&#45;&gt;onset qualifier -->
<g id="edge4" class="edge">
<title>entity to observable feature association mixin&#45;&gt;onset qualifier</title>
<path fill="none" stroke="blue" d="M827.45,-86.8C825.39,-75.16 822.64,-59.55 820.29,-46.24"/>
<polygon fill="blue" stroke="blue" points="823.7,-45.41 818.51,-36.18 816.8,-46.63 823.7,-45.41"/>
<text text-anchor="middle" x="875.98" y="-57.8" font-family="Times,serif" font-size="14.00">onset qualifier</text>
</g>
<!-- architectural style qualifier -->
<g id="node6" class="node">
<title>architectural style qualifier</title>
<ellipse fill="none" stroke="blue" cx="1034.48" cy="-18" rx="165.17" ry="18"/>
<text text-anchor="middle" x="1034.48" y="-14.3" font-family="Times,serif" font-size="14.00">computational architectural style</text>
</g>
<!-- entity to observable feature association mixin&#45;&gt;architectural style qualifier -->
<g id="edge5" class="edge">
<title>entity to observable feature association mixin&#45;&gt;architectural style qualifier</title>
<path fill="none" stroke="blue" d="M882.05,-87.45C898.04,-81.96 915.62,-75.57 931.48,-69 952.22,-60.41 974.7,-49.67 993.36,-40.35"/>
<polygon fill="blue" stroke="blue" points="995.1,-43.39 1002.46,-35.76 991.95,-37.14 995.1,-43.39"/>
<text text-anchor="middle" x="1061.48" y="-57.8" font-family="Times,serif" font-size="14.00">architectural style qualifier</text>
</g>
<!-- description -->
<g id="node7" class="node">
<title>description</title>
<ellipse fill="none" stroke="black" cx="1280.48" cy="-18" rx="63.09" ry="18"/>
<text text-anchor="middle" x="1280.48" y="-14.3" font-family="Times,serif" font-size="14.00">description</text>
</g>
<!-- entity to observable feature association mixin&#45;&gt;description -->
<g id="edge6" class="edge">
<title>entity to observable feature association mixin&#45;&gt;description</title>
<path fill="none" stroke="blue" d="M986.63,-92.05C1056.32,-85.81 1130.15,-77.66 1163.48,-69 1190.79,-61.9 1219.98,-49.44 1242.37,-38.73"/>
<polygon fill="blue" stroke="blue" points="1244.07,-41.79 1251.53,-34.27 1241.01,-35.5 1244.07,-41.79"/>
<text text-anchor="middle" x="1246.98" y="-57.8" font-family="Times,serif" font-size="14.00">description</text>
</g>
<!-- object -->
<g id="node9" class="node">
<title>object</title>
<ellipse fill="none" stroke="black" cx="1400.48" cy="-18" rx="38.99" ry="18"/>
<text text-anchor="middle" x="1400.48" y="-14.3" font-family="Times,serif" font-size="14.00">object</text>
</g>
<!-- entity to observable feature association mixin&#45;&gt;object -->
<g id="edge7" class="edge">
<title>entity to observable feature association mixin&#45;&gt;object</title>
<path fill="none" stroke="blue" d="M988.97,-92.29C1120.87,-82.5 1287.73,-69.97 1291.48,-69 1318.52,-62.01 1347.15,-48.62 1368.28,-37.45"/>
<polygon fill="blue" stroke="blue" points="1370.01,-40.5 1377.14,-32.67 1366.68,-34.34 1370.01,-40.5"/>
<text text-anchor="middle" x="1353.48" y="-57.8" font-family="Times,serif" font-size="14.00">object</text>
</g>
<!-- entity to observable feature association mixin_description -->
<g id="node8" class="node">
<title>entity to observable feature association mixin_description</title>
<ellipse fill="none" stroke="blue" cx="1147.48" cy="-105" rx="75.29" ry="18"/>
<text text-anchor="middle" x="1147.48" y="-101.3" font-family="Times,serif" font-size="14.00">narrative text</text>
</g>
<!-- entity to observable feature association mixin_object -->
<g id="node10" class="node">
<title>entity to observable feature association mixin_object</title>
<ellipse fill="none" stroke="blue" cx="1339.48" cy="-105" rx="98.28" ry="18"/>
<text text-anchor="middle" x="1339.48" y="-101.3" font-family="Times,serif" font-size="14.00">observable feature</text>
</g>
</g>
</svg>
