<?xml version="1.0" encoding="UTF-8" standalone="no"?>
<!DOCTYPE svg PUBLIC "-//W3C//DTD SVG 1.1//EN"
 "http://www.w3.org/Graphics/SVG/1.1/DTD/svg11.dtd">
<!-- Generated by graphviz version 2.43.0 (0)
 -->
<!-- Title: %3 Pages: 1 -->
<svg width="995pt" height="131pt"
 viewBox="0.00 0.00 995.48 131.00" xmlns="http://www.w3.org/2000/svg" xmlns:xlink="http://www.w3.org/1999/xlink">
<g id="graph0" class="graph" transform="scale(1 1) rotate(0) translate(4 127)">
<title>%3</title>
<polygon fill="white" stroke="transparent" points="-4,4 -4,-127 991.48,-127 991.48,4 -4,4"/>
<!-- entity to error association mixin -->
<g id="node1" class="node">
<title>entity to error association mixin</title>
<ellipse fill="none" stroke="black" cx="677.48" cy="-105" rx="160.57" ry="18"/>
<text text-anchor="middle" x="677.48" y="-101.3" font-family="Times,serif" font-size="14.00">entity to error association mixin</text>
</g>
<!-- entity to feature or error qualifiers mixin -->
<g id="node2" class="node">
<title>entity to feature or error qualifiers mixin</title>
<ellipse fill="none" stroke="black" cx="201.48" cy="-18" rx="201.46" ry="18"/>
<text text-anchor="middle" x="201.48" y="-14.3" font-family="Times,serif" font-size="14.00">entity to feature or error qualifiers mixin</text>
</g>
<!-- entity to error association mixin&#45;&gt;entity to feature or error qualifiers mixin -->
<g id="edge1" class="edge">
<title>entity to error association mixin&#45;&gt;entity to feature or error qualifiers mixin</title>
<path fill="none" stroke="black" d="M595.93,-89.44C513.04,-74.64 384.72,-51.72 297.1,-36.07"/>
<polygon fill="black" stroke="black" points="297.61,-32.61 287.15,-34.3 296.38,-39.5 297.61,-32.61"/>
<text text-anchor="middle" x="482.48" y="-57.8" font-family="Times,serif" font-size="14.00">is_a</text>
</g>
<!-- frequency qualifier -->
<g id="node3" class="node">
<title>frequency qualifier</title>
<ellipse fill="none" stroke="blue" cx="506.48" cy="-18" rx="85.29" ry="18"/>
<text text-anchor="middle" x="506.48" y="-14.3" font-family="Times,serif" font-size="14.00">frequency value</text>
</g>
<!-- entity to error association mixin&#45;&gt;frequency qualifier -->
<g id="edge2" class="edge">
<title>entity to error association mixin&#45;&gt;frequency qualifier</title>
<path fill="none" stroke="blue" d="M581.58,-90.54C565.9,-85.47 550.54,-78.53 537.48,-69 529.24,-62.99 522.71,-54.06 517.81,-45.4"/>
<polygon fill="blue" stroke="blue" points="520.81,-43.57 513.13,-36.26 514.58,-46.76 520.81,-43.57"/>
<text text-anchor="middle" x="605.48" y="-57.8" font-family="Times,serif" font-size="14.00">frequency qualifier</text>
</g>
<!-- severity qualifier -->
<g id="node4" class="node">
<title>severity qualifier</title>
<ellipse fill="none" stroke="blue" cx="685.48" cy="-18" rx="76.09" ry="18"/>
<text text-anchor="middle" x="685.48" y="-14.3" font-family="Times,serif" font-size="14.00">severity value</text>
</g>
<!-- entity to error association mixin&#45;&gt;severity qualifier -->
<g id="edge3" class="edge">
<title>entity to error association mixin&#45;&gt;severity qualifier</title>
<path fill="none" stroke="blue" d="M677.08,-86.83C677.03,-77.16 677.3,-64.88 678.48,-54 678.76,-51.41 679.14,-48.73 679.58,-46.06"/>
<polygon fill="blue" stroke="blue" points="683.06,-46.47 681.45,-36 676.18,-45.18 683.06,-46.47"/>
<text text-anchor="middle" x="739.48" y="-57.8" font-family="Times,serif" font-size="14.00">severity qualifier</text>
</g>
<!-- onset qualifier -->
<g id="node5" class="node">
<title>onset qualifier</title>
<ellipse fill="none" stroke="blue" cx="822.48" cy="-18" rx="36.29" ry="18"/>
<text text-anchor="middle" x="822.48" y="-14.3" font-family="Times,serif" font-size="14.00">onset</text>
</g>
<!-- entity to error association mixin&#45;&gt;onset qualifier -->
<g id="edge4" class="edge">
<title>entity to error association mixin&#45;&gt;onset qualifier</title>
<path fill="none" stroke="blue" d="M764.45,-89.74C777.54,-84.76 790.1,-78.04 800.48,-69 807.47,-62.91 812.33,-54.18 815.67,-45.72"/>
<polygon fill="blue" stroke="blue" points="819.04,-46.67 818.92,-36.07 812.41,-44.43 819.04,-46.67"/>
<text text-anchor="middle" x="862.98" y="-57.8" font-family="Times,serif" font-size="14.00">onset qualifier</text>
</g>
<!-- object -->
<g id="node6" class="node">
<title>object</title>
<ellipse fill="none" stroke="black" cx="948.48" cy="-18" rx="38.99" ry="18"/>
<text text-anchor="middle" x="948.48" y="-14.3" font-family="Times,serif" font-size="14.00">object</text>
</g>
<!-- entity to error association mixin&#45;&gt;object -->
<g id="edge5" class="edge">
<title>entity to error association mixin&#45;&gt;object</title>
<path fill="none" stroke="blue" d="M789.87,-92.08C847.2,-85.21 907.24,-76.48 918.48,-69 927.11,-63.25 933.64,-54.1 938.36,-45.19"/>
<polygon fill="blue" stroke="blue" points="941.53,-46.68 942.65,-36.14 935.21,-43.68 941.53,-46.68"/>
<text text-anchor="middle" x="954.48" y="-57.8" font-family="Times,serif" font-size="14.00">object</text>
</g>
<!-- entity to error association mixin_object -->
<g id="node7" class="node">
<title>entity to error association mixin_object</title>
<ellipse fill="none" stroke="blue" cx="890.48" cy="-105" rx="34.39" ry="18"/>
<text text-anchor="middle" x="890.48" y="-101.3" font-family="Times,serif" font-size="14.00">error</text>
</g>
</g>
</svg>
