<?xml version="1.0" encoding="UTF-8" standalone="no"?>
<!DOCTYPE svg PUBLIC "-//W3C//DTD SVG 1.1//EN"
 "http://www.w3.org/Graphics/SVG/1.1/DTD/svg11.dtd">
<!-- Generated by graphviz version 2.43.0 (0)
 -->
<!-- Title: %3 Pages: 1 -->
<svg width="1468pt" height="131pt"
 viewBox="0.00 0.00 1467.78 131.00" xmlns="http://www.w3.org/2000/svg" xmlns:xlink="http://www.w3.org/1999/xlink">
<g id="graph0" class="graph" transform="scale(1 1) rotate(0) translate(4 127)">
<title>%3</title>
<polygon fill="white" stroke="transparent" points="-4,4 -4,-127 1463.78,-127 1463.78,4 -4,4"/>
<!-- environmental notification contaminant -->
<g id="node1" class="node">
<title>environmental notification contaminant</title>
<ellipse fill="none" stroke="black" cx="754.99" cy="-105" rx="194.17" ry="18"/>
<text text-anchor="middle" x="754.99" y="-101.3" font-family="Times,serif" font-size="14.00">environmental notification contaminant</text>
</g>
<!-- notification component -->
<g id="node2" class="node">
<title>notification component</title>
<ellipse fill="none" stroke="black" cx="116.99" cy="-18" rx="116.98" ry="18"/>
<text text-anchor="middle" x="116.99" y="-14.3" font-family="Times,serif" font-size="14.00">notification component</text>
</g>
<!-- environmental notification contaminant&#45;&gt;notification component -->
<g id="edge1" class="edge">
<title>environmental notification contaminant&#45;&gt;notification component</title>
<path fill="none" stroke="black" d="M608.33,-93.19C540.24,-87.38 458.31,-79.29 384.99,-69 319.71,-59.84 246.14,-45.85 192.62,-34.99"/>
<polygon fill="black" stroke="black" points="193.02,-31.5 182.53,-32.94 191.62,-38.36 193.02,-31.5"/>
<text text-anchor="middle" x="398.99" y="-57.8" font-family="Times,serif" font-size="14.00">is_a</text>
</g>
<!-- id -->
<g id="node3" class="node">
<title>id</title>
<ellipse fill="none" stroke="blue" cx="289.99" cy="-18" rx="38.19" ry="18"/>
<text text-anchor="middle" x="289.99" y="-14.3" font-family="Times,serif" font-size="14.00">string</text>
</g>
<!-- environmental notification contaminant&#45;&gt;id -->
<g id="edge2" class="edge">
<title>environmental notification contaminant&#45;&gt;id</title>
<path fill="none" stroke="blue" d="M629.75,-91.14C546.08,-80.72 434.16,-63.21 337.99,-36 334.88,-35.12 331.69,-34.15 328.49,-33.12"/>
<polygon fill="blue" stroke="blue" points="329.58,-29.8 318.99,-29.95 327.36,-36.44 329.58,-29.8"/>
<text text-anchor="middle" x="480.99" y="-57.8" font-family="Times,serif" font-size="14.00">id</text>
</g>
<!-- iri -->
<g id="node4" class="node">
<title>iri</title>
<ellipse fill="none" stroke="blue" cx="390.99" cy="-18" rx="44.39" ry="18"/>
<text text-anchor="middle" x="390.99" y="-14.3" font-family="Times,serif" font-size="14.00">iri type</text>
</g>
<!-- environmental notification contaminant&#45;&gt;iri -->
<g id="edge3" class="edge">
<title>environmental notification contaminant&#45;&gt;iri</title>
<path fill="none" stroke="blue" d="M668.62,-88.83C637.72,-83.07 602.71,-76.16 570.99,-69 514.52,-56.25 500.61,-52.03 444.99,-36 441.48,-34.99 437.85,-33.91 434.2,-32.81"/>
<polygon fill="blue" stroke="blue" points="435.2,-29.45 424.62,-29.86 433.15,-36.15 435.2,-29.45"/>
<text text-anchor="middle" x="578.99" y="-57.8" font-family="Times,serif" font-size="14.00">iri</text>
</g>
<!-- type -->
<g id="node5" class="node">
<title>type</title>
<ellipse fill="none" stroke="blue" cx="491.99" cy="-18" rx="38.19" ry="18"/>
<text text-anchor="middle" x="491.99" y="-14.3" font-family="Times,serif" font-size="14.00">string</text>
</g>
<!-- environmental notification contaminant&#45;&gt;type -->
<g id="edge4" class="edge">
<title>environmental notification contaminant&#45;&gt;type</title>
<path fill="none" stroke="blue" d="M697.94,-87.75C678.26,-82 656.11,-75.38 635.99,-69 592.58,-55.24 581.96,-51.08 538.99,-36 536.3,-35.06 533.53,-34.08 530.75,-33.08"/>
<polygon fill="blue" stroke="blue" points="531.89,-29.78 521.29,-29.7 529.53,-36.37 531.89,-29.78"/>
<text text-anchor="middle" x="651.99" y="-57.8" font-family="Times,serif" font-size="14.00">type</text>
</g>
<!-- name -->
<g id="node6" class="node">
<title>name</title>
<ellipse fill="none" stroke="blue" cx="604.99" cy="-18" rx="56.59" ry="18"/>
<text text-anchor="middle" x="604.99" y="-14.3" font-family="Times,serif" font-size="14.00">label type</text>
</g>
<!-- environmental notification contaminant&#45;&gt;name -->
<g id="edge5" class="edge">
<title>environmental notification contaminant&#45;&gt;name</title>
<path fill="none" stroke="blue" d="M725.35,-87.21C700.91,-73.36 666.18,-53.67 640.3,-39.01"/>
<polygon fill="blue" stroke="blue" points="641.97,-35.93 631.55,-34.05 638.52,-42.02 641.97,-35.93"/>
<text text-anchor="middle" x="708.99" y="-57.8" font-family="Times,serif" font-size="14.00">name</text>
</g>
<!-- description -->
<g id="node7" class="node">
<title>description</title>
<ellipse fill="none" stroke="blue" cx="754.99" cy="-18" rx="75.29" ry="18"/>
<text text-anchor="middle" x="754.99" y="-14.3" font-family="Times,serif" font-size="14.00">narrative text</text>
</g>
<!-- environmental notification contaminant&#45;&gt;description -->
<g id="edge6" class="edge">
<title>environmental notification contaminant&#45;&gt;description</title>
<path fill="none" stroke="blue" d="M754.99,-86.8C754.99,-75.16 754.99,-59.55 754.99,-46.24"/>
<polygon fill="blue" stroke="blue" points="758.49,-46.18 754.99,-36.18 751.49,-46.18 758.49,-46.18"/>
<text text-anchor="middle" x="795.49" y="-57.8" font-family="Times,serif" font-size="14.00">description</text>
</g>
<!-- source -->
<g id="node8" class="node">
<title>source</title>
<ellipse fill="none" stroke="blue" cx="904.99" cy="-18" rx="56.59" ry="18"/>
<text text-anchor="middle" x="904.99" y="-14.3" font-family="Times,serif" font-size="14.00">label type</text>
</g>
<!-- environmental notification contaminant&#45;&gt;source -->
<g id="edge7" class="edge">
<title>environmental notification contaminant&#45;&gt;source</title>
<path fill="none" stroke="blue" d="M801.49,-87.45C814.29,-82.2 827.96,-75.94 839.99,-69 853.59,-61.16 867.53,-50.8 878.99,-41.54"/>
<polygon fill="blue" stroke="blue" points="881.38,-44.11 886.86,-35.05 876.92,-38.71 881.38,-44.11"/>
<text text-anchor="middle" x="886.99" y="-57.8" font-family="Times,serif" font-size="14.00">source</text>
</g>
<!-- provided by -->
<g id="node9" class="node">
<title>provided by</title>
<ellipse fill="none" stroke="blue" cx="1016.99" cy="-18" rx="37.09" ry="18"/>
<text text-anchor="middle" x="1016.99" y="-14.3" font-family="Times,serif" font-size="14.00">agent</text>
</g>
<!-- environmental notification contaminant&#45;&gt;provided by -->
<g id="edge8" class="edge">
<title>environmental notification contaminant&#45;&gt;provided by</title>
<path fill="none" stroke="blue" d="M842.41,-88.85C866.27,-83.64 891.9,-77.05 914.99,-69 939.26,-60.53 965.26,-47.73 984.94,-37.19"/>
<polygon fill="blue" stroke="blue" points="986.67,-40.24 993.78,-32.39 983.32,-34.09 986.67,-40.24"/>
<text text-anchor="middle" x="992.49" y="-57.8" font-family="Times,serif" font-size="14.00">provided by</text>
</g>
<!-- has attribute -->
<g id="node10" class="node">
<title>has attribute</title>
<ellipse fill="none" stroke="blue" cx="1123.99" cy="-18" rx="51.99" ry="18"/>
<text text-anchor="middle" x="1123.99" y="-14.3" font-family="Times,serif" font-size="14.00">attribute</text>
</g>
<!-- environmental notification contaminant&#45;&gt;has attribute -->
<g id="edge9" class="edge">
<title>environmental notification contaminant&#45;&gt;has attribute</title>
<path fill="none" stroke="blue" d="M893.17,-92.28C951.36,-86.24 1011.82,-78.22 1038.99,-69 1058.64,-62.33 1078.74,-50.77 1094.45,-40.44"/>
<polygon fill="blue" stroke="blue" points="1096.84,-43.05 1103.17,-34.55 1092.92,-37.25 1096.84,-43.05"/>
<text text-anchor="middle" x="1117.99" y="-57.8" font-family="Times,serif" font-size="14.00">has attribute</text>
</g>
<!-- category -->
<g id="node11" class="node">
<title>category</title>
<ellipse fill="none" stroke="black" cx="1244.99" cy="-18" rx="51.19" ry="18"/>
<text text-anchor="middle" x="1244.99" y="-14.3" font-family="Times,serif" font-size="14.00">category</text>
</g>
<!-- environmental notification contaminant&#45;&gt;category -->
<g id="edge10" class="edge">
<title>environmental notification contaminant&#45;&gt;category</title>
<path fill="none" stroke="blue" d="M893.62,-92.38C1013.62,-82.3 1168.16,-69.29 1168.99,-69 1186.91,-62.8 1204.74,-51.41 1218.62,-41.07"/>
<polygon fill="blue" stroke="blue" points="1220.94,-43.7 1226.72,-34.83 1216.67,-38.16 1220.94,-43.7"/>
<text text-anchor="middle" x="1230.49" y="-57.8" font-family="Times,serif" font-size="14.00">category</text>
</g>
<!-- in taxon -->
<g id="node13" class="node">
<title>in taxon</title>
<ellipse fill="none" stroke="blue" cx="1386.99" cy="-18" rx="72.59" ry="18"/>
<text text-anchor="middle" x="1386.99" y="-14.3" font-family="Times,serif" font-size="14.00">system taxon</text>
</g>
<!-- environmental notification contaminant&#45;&gt;in taxon -->
<g id="edge11" class="edge">
<title>environmental notification contaminant&#45;&gt;in taxon</title>
<path fill="none" stroke="blue" d="M891.17,-92.12C913.49,-90.31 936.38,-88.54 957.99,-87 1094.77,-77.28 1132.33,-99.61 1265.99,-69 1294.42,-62.49 1324.75,-49.94 1347.93,-39.05"/>
<polygon fill="blue" stroke="blue" points="1349.58,-42.14 1357.08,-34.66 1346.55,-35.83 1349.58,-42.14"/>
<text text-anchor="middle" x="1338.99" y="-57.8" font-family="Times,serif" font-size="14.00">in taxon</text>
</g>
<!-- named thing_category -->
<g id="node12" class="node">
<title>named thing_category</title>
<ellipse fill="none" stroke="blue" cx="1036.99" cy="-105" rx="69.59" ry="18"/>
<text text-anchor="middle" x="1036.99" y="-101.3" font-family="Times,serif" font-size="14.00">named thing</text>
</g>
</g>
</svg>
