<?xml version="1.0" encoding="UTF-8" standalone="no"?>
<!DOCTYPE svg PUBLIC "-//W3C//DTD SVG 1.1//EN"
 "http://www.w3.org/Graphics/SVG/1.1/DTD/svg11.dtd">
<!-- Generated by graphviz version 2.43.0 (0)
 -->
<!-- Title: %3 Pages: 1 -->
<svg width="1403pt" height="131pt"
 viewBox="0.00 0.00 1402.59 131.00" xmlns="http://www.w3.org/2000/svg" xmlns:xlink="http://www.w3.org/1999/xlink">
<g id="graph0" class="graph" transform="scale(1 1) rotate(0) translate(4 127)">
<title>%3</title>
<polygon fill="white" stroke="transparent" points="-4,4 -4,-127 1398.59,-127 1398.59,4 -4,4"/>
<!-- epidemiological outcome -->
<g id="node1" class="node">
<title>epidemiological outcome</title>
<ellipse fill="none" stroke="black" cx="703.24" cy="-105" rx="126.18" ry="18"/>
<text text-anchor="middle" x="703.24" y="-101.3" font-family="Times,serif" font-size="14.00">epidemiological outcome</text>
</g>
<!-- computational entity -->
<g id="node2" class="node">
<title>computational entity</title>
<ellipse fill="none" stroke="black" cx="107.24" cy="-18" rx="107.48" ry="18"/>
<text text-anchor="middle" x="107.24" y="-14.3" font-family="Times,serif" font-size="14.00">computational entity</text>
</g>
<!-- epidemiological outcome&#45;&gt;computational entity -->
<g id="edge1" class="edge">
<title>epidemiological outcome&#45;&gt;computational entity</title>
<path fill="none" stroke="black" d="M598.19,-95.02C533.22,-88.94 448.2,-80 373.24,-69 308.05,-59.43 234.48,-45.35 181.26,-34.56"/>
<polygon fill="black" stroke="black" points="181.73,-31.08 171.23,-32.52 180.33,-37.94 181.73,-31.08"/>
<text text-anchor="middle" x="387.24" y="-57.8" font-family="Times,serif" font-size="14.00">is_a</text>
</g>
<!-- outcome -->
<g id="node3" class="node">
<title>outcome</title>
<ellipse fill="none" stroke="black" cx="282.24" cy="-18" rx="50.09" ry="18"/>
<text text-anchor="middle" x="282.24" y="-14.3" font-family="Times,serif" font-size="14.00">outcome</text>
</g>
<!-- epidemiological outcome&#45;&gt;outcome -->
<g id="edge2" class="edge">
<title>epidemiological outcome&#45;&gt;outcome</title>
<path fill="none" stroke="black" d="M610.13,-92.81C566.01,-86.87 512.69,-78.77 465.24,-69 409.38,-57.5 396.2,-51.23 341.24,-36 337.48,-34.96 333.58,-33.86 329.67,-32.76"/>
<polygon fill="black" stroke="black" points="330.55,-29.37 319.98,-30 328.64,-36.1 330.55,-29.37"/>
<text text-anchor="middle" x="481.74" y="-57.8" font-family="Times,serif" font-size="14.00">uses</text>
</g>
<!-- id -->
<g id="node4" class="node">
<title>id</title>
<ellipse fill="none" stroke="blue" cx="388.24" cy="-18" rx="38.19" ry="18"/>
<text text-anchor="middle" x="388.24" y="-14.3" font-family="Times,serif" font-size="14.00">string</text>
</g>
<!-- epidemiological outcome&#45;&gt;id -->
<g id="edge3" class="edge">
<title>epidemiological outcome&#45;&gt;id</title>
<path fill="none" stroke="blue" d="M639.4,-89.47C585.03,-76.68 505.01,-56.89 436.24,-36 433.15,-35.06 429.97,-34.05 426.78,-32.99"/>
<polygon fill="blue" stroke="blue" points="427.89,-29.67 417.29,-29.77 425.63,-36.3 427.89,-29.67"/>
<text text-anchor="middle" x="560.24" y="-57.8" font-family="Times,serif" font-size="14.00">id</text>
</g>
<!-- iri -->
<g id="node5" class="node">
<title>iri</title>
<ellipse fill="none" stroke="blue" cx="489.24" cy="-18" rx="44.39" ry="18"/>
<text text-anchor="middle" x="489.24" y="-14.3" font-family="Times,serif" font-size="14.00">iri type</text>
</g>
<!-- epidemiological outcome&#45;&gt;iri -->
<g id="edge4" class="edge">
<title>epidemiological outcome&#45;&gt;iri</title>
<path fill="none" stroke="blue" d="M662.74,-87.91C624.58,-72.76 567.74,-50.18 529.63,-35.04"/>
<polygon fill="blue" stroke="blue" points="530.47,-31.61 519.89,-31.17 527.89,-38.12 530.47,-31.61"/>
<text text-anchor="middle" x="617.24" y="-57.8" font-family="Times,serif" font-size="14.00">iri</text>
</g>
<!-- type -->
<g id="node6" class="node">
<title>type</title>
<ellipse fill="none" stroke="blue" cx="590.24" cy="-18" rx="38.19" ry="18"/>
<text text-anchor="middle" x="590.24" y="-14.3" font-family="Times,serif" font-size="14.00">string</text>
</g>
<!-- epidemiological outcome&#45;&gt;type -->
<g id="edge5" class="edge">
<title>epidemiological outcome&#45;&gt;type</title>
<path fill="none" stroke="blue" d="M680.92,-87.21C662.87,-73.64 637.39,-54.46 618.03,-39.9"/>
<polygon fill="blue" stroke="blue" points="619.97,-36.99 609.88,-33.77 615.76,-42.58 619.97,-36.99"/>
<text text-anchor="middle" x="670.24" y="-57.8" font-family="Times,serif" font-size="14.00">type</text>
</g>
<!-- name -->
<g id="node7" class="node">
<title>name</title>
<ellipse fill="none" stroke="blue" cx="703.24" cy="-18" rx="56.59" ry="18"/>
<text text-anchor="middle" x="703.24" y="-14.3" font-family="Times,serif" font-size="14.00">label type</text>
</g>
<!-- epidemiological outcome&#45;&gt;name -->
<g id="edge6" class="edge">
<title>epidemiological outcome&#45;&gt;name</title>
<path fill="none" stroke="blue" d="M703.24,-86.8C703.24,-75.16 703.24,-59.55 703.24,-46.24"/>
<polygon fill="blue" stroke="blue" points="706.74,-46.18 703.24,-36.18 699.74,-46.18 706.74,-46.18"/>
<text text-anchor="middle" x="723.24" y="-57.8" font-family="Times,serif" font-size="14.00">name</text>
</g>
<!-- description -->
<g id="node8" class="node">
<title>description</title>
<ellipse fill="none" stroke="blue" cx="853.24" cy="-18" rx="75.29" ry="18"/>
<text text-anchor="middle" x="853.24" y="-14.3" font-family="Times,serif" font-size="14.00">narrative text</text>
</g>
<!-- epidemiological outcome&#45;&gt;description -->
<g id="edge7" class="edge">
<title>epidemiological outcome&#45;&gt;description</title>
<path fill="none" stroke="blue" d="M732.52,-87.41C756.54,-73.8 790.69,-54.45 816.54,-39.8"/>
<polygon fill="blue" stroke="blue" points="818.33,-42.81 825.3,-34.83 814.88,-36.72 818.33,-42.81"/>
<text text-anchor="middle" x="827.74" y="-57.8" font-family="Times,serif" font-size="14.00">description</text>
</g>
<!-- source -->
<g id="node9" class="node">
<title>source</title>
<ellipse fill="none" stroke="blue" cx="1003.24" cy="-18" rx="56.59" ry="18"/>
<text text-anchor="middle" x="1003.24" y="-14.3" font-family="Times,serif" font-size="14.00">label type</text>
</g>
<!-- epidemiological outcome&#45;&gt;source -->
<g id="edge8" class="edge">
<title>epidemiological outcome&#45;&gt;source</title>
<path fill="none" stroke="blue" d="M780.44,-90.72C809.48,-85.02 842.62,-77.66 872.24,-69 902.8,-60.07 936.33,-47.21 961.81,-36.77"/>
<polygon fill="blue" stroke="blue" points="963.26,-39.96 971.16,-32.9 960.59,-33.49 963.26,-39.96"/>
<text text-anchor="middle" x="940.24" y="-57.8" font-family="Times,serif" font-size="14.00">source</text>
</g>
<!-- provided by -->
<g id="node10" class="node">
<title>provided by</title>
<ellipse fill="none" stroke="blue" cx="1115.24" cy="-18" rx="37.09" ry="18"/>
<text text-anchor="middle" x="1115.24" y="-14.3" font-family="Times,serif" font-size="14.00">agent</text>
</g>
<!-- epidemiological outcome&#45;&gt;provided by -->
<g id="edge9" class="edge">
<title>epidemiological outcome&#45;&gt;provided by</title>
<path fill="none" stroke="blue" d="M793.93,-92.42C867.23,-83.01 959.61,-70.96 968.24,-69 1014.29,-58.53 1024.64,-51.52 1069.24,-36 1071.79,-35.11 1074.42,-34.18 1077.06,-33.24"/>
<polygon fill="blue" stroke="blue" points="1078.38,-36.48 1086.59,-29.78 1076,-29.9 1078.38,-36.48"/>
<text text-anchor="middle" x="1062.74" y="-57.8" font-family="Times,serif" font-size="14.00">provided by</text>
</g>
<!-- has attribute -->
<g id="node11" class="node">
<title>has attribute</title>
<ellipse fill="none" stroke="blue" cx="1222.24" cy="-18" rx="51.99" ry="18"/>
<text text-anchor="middle" x="1222.24" y="-14.3" font-family="Times,serif" font-size="14.00">attribute</text>
</g>
<!-- epidemiological outcome&#45;&gt;has attribute -->
<g id="edge10" class="edge">
<title>epidemiological outcome&#45;&gt;has attribute</title>
<path fill="none" stroke="blue" d="M791.75,-92.1C807.23,-90.23 823.19,-88.45 838.24,-87 958.4,-75.45 992.03,-97.86 1109.24,-69 1136.46,-62.3 1165.33,-49.41 1187.08,-38.4"/>
<polygon fill="blue" stroke="blue" points="1188.96,-41.37 1196.23,-33.66 1185.74,-35.15 1188.96,-41.37"/>
<text text-anchor="middle" x="1198.24" y="-57.8" font-family="Times,serif" font-size="14.00">has attribute</text>
</g>
<!-- category -->
<g id="node12" class="node">
<title>category</title>
<ellipse fill="none" stroke="black" cx="1343.24" cy="-18" rx="51.19" ry="18"/>
<text text-anchor="middle" x="1343.24" y="-14.3" font-family="Times,serif" font-size="14.00">category</text>
</g>
<!-- epidemiological outcome&#45;&gt;category -->
<g id="edge11" class="edge">
<title>epidemiological outcome&#45;&gt;category</title>
<path fill="none" stroke="blue" d="M790.64,-91.94C806.46,-90.06 822.82,-88.31 838.24,-87 929.34,-79.28 1161.04,-93.06 1249.24,-69 1271.72,-62.87 1294.84,-50.66 1312.53,-39.84"/>
<polygon fill="blue" stroke="blue" points="1314.66,-42.63 1321.26,-34.34 1310.93,-36.71 1314.66,-42.63"/>
<text text-anchor="middle" x="1317.74" y="-57.8" font-family="Times,serif" font-size="14.00">category</text>
</g>
<!-- named thing_category -->
<g id="node13" class="node">
<title>named thing_category</title>
<ellipse fill="none" stroke="blue" cx="917.24" cy="-105" rx="69.59" ry="18"/>
<text text-anchor="middle" x="917.24" y="-101.3" font-family="Times,serif" font-size="14.00">named thing</text>
</g>
</g>
</svg>
