<?xml version="1.0" encoding="UTF-8" standalone="no"?>
<!DOCTYPE svg PUBLIC "-//W3C//DTD SVG 1.1//EN"
 "http://www.w3.org/Graphics/SVG/1.1/DTD/svg11.dtd">
<!-- Generated by graphviz version 2.43.0 (0)
 -->
<!-- Title: %3 Pages: 1 -->
<svg width="2603pt" height="291pt"
 viewBox="0.00 0.00 2602.74 291.00" xmlns="http://www.w3.org/2000/svg" xmlns:xlink="http://www.w3.org/1999/xlink">
<g id="graph0" class="graph" transform="scale(1 1) rotate(0) translate(4 287)">
<title>%3</title>
<polygon fill="white" stroke="transparent" points="-4,4 -4,-287 2598.74,-287 2598.74,4 -4,4"/>
<!-- error or observable feature to location association -->
<g id="node1" class="node">
<title>error or observable feature to location association</title>
<ellipse fill="none" stroke="black" cx="1519.39" cy="-265" rx="243.96" ry="18"/>
<text text-anchor="middle" x="1519.39" y="-261.3" font-family="Times,serif" font-size="14.00">error or observable feature to location association</text>
</g>
<!-- association -->
<g id="node2" class="node">
<title>association</title>
<ellipse fill="none" stroke="black" cx="62.39" cy="-178" rx="62.29" ry="18"/>
<text text-anchor="middle" x="62.39" y="-174.3" font-family="Times,serif" font-size="14.00">association</text>
</g>
<!-- error or observable feature to location association&#45;&gt;association -->
<g id="edge1" class="edge">
<title>error or observable feature to location association&#45;&gt;association</title>
<path fill="none" stroke="black" d="M1302.23,-256.8C1125.13,-250.57 868.52,-240.73 644.39,-229 417.56,-217.13 359.04,-229.55 134.39,-196 128.62,-195.14 122.62,-194.04 116.66,-192.83"/>
<polygon fill="black" stroke="black" points="117.23,-189.37 106.72,-190.69 115.76,-196.22 117.23,-189.37"/>
<text text-anchor="middle" x="658.39" y="-217.8" font-family="Times,serif" font-size="14.00">is_a</text>
</g>
<!-- error or observable feature to entity association mixin -->
<g id="node3" class="node">
<title>error or observable feature to entity association mixin</title>
<ellipse fill="none" stroke="black" cx="406.39" cy="-178" rx="263.45" ry="18"/>
<text text-anchor="middle" x="406.39" y="-174.3" font-family="Times,serif" font-size="14.00">error or observable feature to entity association mixin</text>
</g>
<!-- error or observable feature to location association&#45;&gt;error or observable feature to entity association mixin -->
<g id="edge2" class="edge">
<title>error or observable feature to location association&#45;&gt;error or observable feature to entity association mixin</title>
<path fill="none" stroke="black" d="M1298.44,-257.33C1158.17,-252.05 972.92,-243.16 809.39,-229 712.9,-220.65 603.92,-206.86 523.64,-195.88"/>
<polygon fill="black" stroke="black" points="523.89,-192.38 513.5,-194.48 522.93,-199.31 523.89,-192.38"/>
<text text-anchor="middle" x="825.89" y="-217.8" font-family="Times,serif" font-size="14.00">uses</text>
</g>
<!-- id -->
<g id="node4" class="node">
<title>id</title>
<ellipse fill="none" stroke="blue" cx="726.39" cy="-178" rx="38.19" ry="18"/>
<text text-anchor="middle" x="726.39" y="-174.3" font-family="Times,serif" font-size="14.00">string</text>
</g>
<!-- error or observable feature to location association&#45;&gt;id -->
<g id="edge3" class="edge">
<title>error or observable feature to location association&#45;&gt;id</title>
<path fill="none" stroke="blue" d="M1294.75,-258.01C1185.89,-253.21 1053.47,-244.56 935.39,-229 862.98,-219.46 844.77,-215.57 774.39,-196 771.29,-195.14 768.09,-194.17 764.89,-193.15"/>
<polygon fill="blue" stroke="blue" points="765.97,-189.83 755.38,-189.99 763.76,-196.47 765.97,-189.83"/>
<text text-anchor="middle" x="942.39" y="-217.8" font-family="Times,serif" font-size="14.00">id</text>
</g>
<!-- iri -->
<g id="node5" class="node">
<title>iri</title>
<ellipse fill="none" stroke="blue" cx="827.39" cy="-178" rx="44.39" ry="18"/>
<text text-anchor="middle" x="827.39" y="-174.3" font-family="Times,serif" font-size="14.00">iri type</text>
</g>
<!-- error or observable feature to location association&#45;&gt;iri -->
<g id="edge4" class="edge">
<title>error or observable feature to location association&#45;&gt;iri</title>
<path fill="none" stroke="blue" d="M1314.41,-255.22C1228.55,-249.96 1127.85,-241.73 1037.39,-229 966.79,-219.06 949.32,-214.25 880.39,-196 877.02,-195.11 873.55,-194.13 870.07,-193.11"/>
<polygon fill="blue" stroke="blue" points="870.9,-189.7 860.32,-190.14 868.87,-196.4 870.9,-189.7"/>
<text text-anchor="middle" x="1045.39" y="-217.8" font-family="Times,serif" font-size="14.00">iri</text>
</g>
<!-- name -->
<g id="node6" class="node">
<title>name</title>
<ellipse fill="none" stroke="blue" cx="946.39" cy="-178" rx="56.59" ry="18"/>
<text text-anchor="middle" x="946.39" y="-174.3" font-family="Times,serif" font-size="14.00">label type</text>
</g>
<!-- error or observable feature to location association&#45;&gt;name -->
<g id="edge5" class="edge">
<title>error or observable feature to location association&#45;&gt;name</title>
<path fill="none" stroke="blue" d="M1322.29,-254.39C1257.31,-249.19 1184.93,-241.22 1119.39,-229 1075.76,-220.86 1027.31,-206.37 992.81,-195.08"/>
<polygon fill="blue" stroke="blue" points="993.61,-191.66 983.02,-191.84 991.41,-198.3 993.61,-191.66"/>
<text text-anchor="middle" x="1139.39" y="-217.8" font-family="Times,serif" font-size="14.00">name</text>
</g>
<!-- description -->
<g id="node7" class="node">
<title>description</title>
<ellipse fill="none" stroke="blue" cx="1096.39" cy="-178" rx="75.29" ry="18"/>
<text text-anchor="middle" x="1096.39" y="-174.3" font-family="Times,serif" font-size="14.00">narrative text</text>
</g>
<!-- error or observable feature to location association&#45;&gt;description -->
<g id="edge6" class="edge">
<title>error or observable feature to location association&#45;&gt;description</title>
<path fill="none" stroke="blue" d="M1330.94,-253.55C1288.16,-248.33 1243.29,-240.55 1202.39,-229 1178.22,-222.17 1152.71,-210.3 1132.78,-199.84"/>
<polygon fill="blue" stroke="blue" points="1134.22,-196.64 1123.75,-195 1130.91,-202.81 1134.22,-196.64"/>
<text text-anchor="middle" x="1242.89" y="-217.8" font-family="Times,serif" font-size="14.00">description</text>
</g>
<!-- source -->
<g id="node8" class="node">
<title>source</title>
<ellipse fill="none" stroke="blue" cx="1246.39" cy="-178" rx="56.59" ry="18"/>
<text text-anchor="middle" x="1246.39" y="-174.3" font-family="Times,serif" font-size="14.00">label type</text>
</g>
<!-- error or observable feature to location association&#45;&gt;source -->
<g id="edge7" class="edge">
<title>error or observable feature to location association&#45;&gt;source</title>
<path fill="none" stroke="blue" d="M1381.15,-250.14C1357.64,-245.12 1333.89,-238.29 1312.39,-229 1297.28,-222.47 1282.47,-211.77 1270.73,-201.94"/>
<polygon fill="blue" stroke="blue" points="1272.97,-199.25 1263.12,-195.34 1268.38,-204.53 1272.97,-199.25"/>
<text text-anchor="middle" x="1336.39" y="-217.8" font-family="Times,serif" font-size="14.00">source</text>
</g>
<!-- provided by -->
<g id="node9" class="node">
<title>provided by</title>
<ellipse fill="none" stroke="blue" cx="1358.39" cy="-178" rx="37.09" ry="18"/>
<text text-anchor="middle" x="1358.39" y="-174.3" font-family="Times,serif" font-size="14.00">agent</text>
</g>
<!-- error or observable feature to location association&#45;&gt;provided by -->
<g id="edge8" class="edge">
<title>error or observable feature to location association&#45;&gt;provided by</title>
<path fill="none" stroke="blue" d="M1422.53,-248.38C1400.69,-243.18 1381.54,-236.7 1373.39,-229 1367.03,-222.98 1363.33,-214.38 1361.19,-206"/>
<polygon fill="blue" stroke="blue" points="1364.61,-205.24 1359.29,-196.08 1357.74,-206.56 1364.61,-205.24"/>
<text text-anchor="middle" x="1415.89" y="-217.8" font-family="Times,serif" font-size="14.00">provided by</text>
</g>
<!-- has attribute -->
<g id="node10" class="node">
<title>has attribute</title>
<ellipse fill="none" stroke="blue" cx="1465.39" cy="-178" rx="51.99" ry="18"/>
<text text-anchor="middle" x="1465.39" y="-174.3" font-family="Times,serif" font-size="14.00">attribute</text>
</g>
<!-- error or observable feature to location association&#45;&gt;has attribute -->
<g id="edge9" class="edge">
<title>error or observable feature to location association&#45;&gt;has attribute</title>
<path fill="none" stroke="blue" d="M1483.36,-247.11C1476.59,-242.25 1470.39,-236.24 1466.39,-229 1462.65,-222.2 1461.4,-214.06 1461.35,-206.33"/>
<polygon fill="blue" stroke="blue" points="1464.86,-206.41 1461.92,-196.23 1457.87,-206.02 1464.86,-206.41"/>
<text text-anchor="middle" x="1513.39" y="-217.8" font-family="Times,serif" font-size="14.00">has attribute</text>
</g>
<!-- subject -->
<g id="node11" class="node">
<title>subject</title>
<ellipse fill="none" stroke="blue" cx="1643.39" cy="-178" rx="69.59" ry="18"/>
<text text-anchor="middle" x="1643.39" y="-174.3" font-family="Times,serif" font-size="14.00">named thing</text>
</g>
<!-- error or observable feature to location association&#45;&gt;subject -->
<g id="edge10" class="edge">
<title>error or observable feature to location association&#45;&gt;subject</title>
<path fill="none" stroke="blue" d="M1557.33,-247.05C1567.72,-241.8 1578.77,-235.63 1588.39,-229 1599.52,-221.33 1610.74,-211.57 1620.12,-202.72"/>
<polygon fill="blue" stroke="blue" points="1622.77,-205.02 1627.53,-195.56 1617.9,-199.99 1622.77,-205.02"/>
<text text-anchor="middle" x="1632.39" y="-217.8" font-family="Times,serif" font-size="14.00">subject</text>
</g>
<!-- predicate -->
<g id="node12" class="node">
<title>predicate</title>
<ellipse fill="none" stroke="blue" cx="1889.39" cy="-178" rx="77.99" ry="18"/>
<text text-anchor="middle" x="1889.39" y="-174.3" font-family="Times,serif" font-size="14.00">predicate type</text>
</g>
<!-- error or observable feature to location association&#45;&gt;predicate -->
<g id="edge11" class="edge">
<title>error or observable feature to location association&#45;&gt;predicate</title>
<path fill="none" stroke="blue" d="M1656.69,-250.07C1691.81,-244.94 1729.28,-238.08 1763.39,-229 1792.21,-221.33 1823.36,-209.01 1847.48,-198.52"/>
<polygon fill="blue" stroke="blue" points="1848.96,-201.69 1856.69,-194.45 1846.13,-195.29 1848.96,-201.69"/>
<text text-anchor="middle" x="1840.39" y="-217.8" font-family="Times,serif" font-size="14.00">predicate</text>
</g>
<!-- relation -->
<g id="node13" class="node">
<title>relation</title>
<ellipse fill="none" stroke="blue" cx="1629.39" cy="-18" rx="57.39" ry="18"/>
<text text-anchor="middle" x="1629.39" y="-14.3" font-family="Times,serif" font-size="14.00">uriorcurie</text>
</g>
<!-- error or observable feature to location association&#45;&gt;relation -->
<g id="edge12" class="edge">
<title>error or observable feature to location association&#45;&gt;relation</title>
<path fill="none" stroke="blue" d="M1545.74,-247C1551.55,-241.93 1556.98,-235.87 1560.39,-229 1567.23,-215.24 1560.71,-174.91 1564.39,-160 1574.86,-117.63 1598.09,-72.45 1613.75,-44.97"/>
<polygon fill="blue" stroke="blue" points="1616.95,-46.43 1618.94,-36.02 1610.9,-42.91 1616.95,-46.43"/>
<text text-anchor="middle" x="1603.39" y="-130.8" font-family="Times,serif" font-size="14.00">relation</text>
</g>
<!-- negated -->
<g id="node14" class="node">
<title>negated</title>
<ellipse fill="none" stroke="blue" cx="2032.39" cy="-178" rx="46.59" ry="18"/>
<text text-anchor="middle" x="2032.39" y="-174.3" font-family="Times,serif" font-size="14.00">boolean</text>
</g>
<!-- error or observable feature to location association&#45;&gt;negated -->
<g id="edge13" class="edge">
<title>error or observable feature to location association&#45;&gt;negated</title>
<path fill="none" stroke="blue" d="M1706.88,-253.45C1762.47,-248.25 1823.22,-240.5 1878.39,-229 1917.63,-220.82 1960.93,-206.24 1991.59,-194.93"/>
<polygon fill="blue" stroke="blue" points="1992.94,-198.16 2001.08,-191.39 1990.49,-191.61 1992.94,-198.16"/>
<text text-anchor="middle" x="1963.39" y="-217.8" font-family="Times,serif" font-size="14.00">negated</text>
</g>
<!-- qualifiers -->
<g id="node15" class="node">
<title>qualifiers</title>
<ellipse fill="none" stroke="blue" cx="2173.39" cy="-178" rx="76.89" ry="18"/>
<text text-anchor="middle" x="2173.39" y="-174.3" font-family="Times,serif" font-size="14.00">ontology class</text>
</g>
<!-- error or observable feature to location association&#45;&gt;qualifiers -->
<g id="edge14" class="edge">
<title>error or observable feature to location association&#45;&gt;qualifiers</title>
<path fill="none" stroke="blue" d="M1691.09,-252.22C1821.54,-243.14 1981.14,-231.69 1996.39,-229 2039.66,-221.38 2087.53,-207.51 2122.58,-196.31"/>
<polygon fill="blue" stroke="blue" points="2123.67,-199.64 2132.1,-193.23 2121.51,-192.98 2123.67,-199.64"/>
<text text-anchor="middle" x="2094.89" y="-217.8" font-family="Times,serif" font-size="14.00">qualifiers</text>
</g>
<!-- publications -->
<g id="node16" class="node">
<title>publications</title>
<ellipse fill="none" stroke="blue" cx="2330.39" cy="-178" rx="62.29" ry="18"/>
<text text-anchor="middle" x="2330.39" y="-174.3" font-family="Times,serif" font-size="14.00">publication</text>
</g>
<!-- error or observable feature to location association&#45;&gt;publications -->
<g id="edge15" class="edge">
<title>error or observable feature to location association&#45;&gt;publications</title>
<path fill="none" stroke="blue" d="M1690.16,-252.13C1717.65,-250.33 1745.81,-248.56 1772.39,-247 1932.32,-237.63 1973.96,-252.73 2132.39,-229 2183.47,-221.35 2240.52,-206.22 2280.21,-194.6"/>
<polygon fill="blue" stroke="blue" points="2281.32,-197.92 2289.92,-191.72 2279.34,-191.21 2281.32,-197.92"/>
<text text-anchor="middle" x="2248.39" y="-217.8" font-family="Times,serif" font-size="14.00">publications</text>
</g>
<!-- type -->
<g id="node17" class="node">
<title>type</title>
<ellipse fill="none" stroke="black" cx="2442.39" cy="-178" rx="31.4" ry="18"/>
<text text-anchor="middle" x="2442.39" y="-174.3" font-family="Times,serif" font-size="14.00">type</text>
</g>
<!-- error or observable feature to location association&#45;&gt;type -->
<g id="edge16" class="edge">
<title>error or observable feature to location association&#45;&gt;type</title>
<path fill="none" stroke="blue" d="M1687.42,-251.94C1715.77,-250.12 1744.92,-248.39 1772.39,-247 1888.76,-241.09 2181.55,-248.65 2296.39,-229 2336.49,-222.14 2380.39,-205.83 2409.47,-193.69"/>
<polygon fill="blue" stroke="blue" points="2410.9,-196.89 2418.73,-189.75 2408.16,-190.44 2410.9,-196.89"/>
<text text-anchor="middle" x="2370.39" y="-217.8" font-family="Times,serif" font-size="14.00">type</text>
</g>
<!-- category -->
<g id="node19" class="node">
<title>category</title>
<ellipse fill="none" stroke="black" cx="2543.39" cy="-178" rx="51.19" ry="18"/>
<text text-anchor="middle" x="2543.39" y="-174.3" font-family="Times,serif" font-size="14.00">category</text>
</g>
<!-- error or observable feature to location association&#45;&gt;category -->
<g id="edge17" class="edge">
<title>error or observable feature to location association&#45;&gt;category</title>
<path fill="none" stroke="blue" d="M1686.39,-251.88C1715.07,-250.05 1744.58,-248.34 1772.39,-247 1909.63,-240.39 2255.04,-252.58 2390.39,-229 2429.4,-222.21 2472.09,-207.62 2502.44,-195.95"/>
<polygon fill="blue" stroke="blue" points="2503.8,-199.17 2511.84,-192.27 2501.25,-192.65 2503.8,-199.17"/>
<text text-anchor="middle" x="2481.89" y="-217.8" font-family="Times,serif" font-size="14.00">category</text>
</g>
<!-- object -->
<g id="node21" class="node">
<title>object</title>
<ellipse fill="none" stroke="black" cx="1696.39" cy="-91" rx="38.99" ry="18"/>
<text text-anchor="middle" x="1696.39" y="-87.3" font-family="Times,serif" font-size="14.00">object</text>
</g>
<!-- error or observable feature to location association&#45;&gt;object -->
<g id="edge18" class="edge">
<title>error or observable feature to location association&#45;&gt;object</title>
<path fill="none" stroke="blue" d="M1639.75,-249.29C1671.59,-239.34 1702.57,-222.94 1722.39,-196 1740.8,-170.99 1745.68,-155.52 1733.39,-127 1731.31,-122.15 1728.18,-117.66 1724.61,-113.62"/>
<polygon fill="blue" stroke="blue" points="1726.93,-110.99 1717.36,-106.44 1722.01,-115.97 1726.93,-110.99"/>
<text text-anchor="middle" x="1762.39" y="-174.3" font-family="Times,serif" font-size="14.00">object</text>
</g>
<!-- subject&#45;&gt;relation -->
<g id="edge20" class="edge">
<title>subject&#45;&gt;relation</title>
<path fill="none" stroke="black" stroke-dasharray="1,5" d="M1641.87,-159.79C1639.45,-132.48 1634.71,-78.99 1631.82,-46.38"/>
<polygon fill="black" stroke="black" points="1635.29,-45.84 1630.92,-36.19 1628.31,-46.46 1635.29,-45.84"/>
</g>
<!-- subject&#45;&gt;object -->
<g id="edge19" class="edge">
<title>subject&#45;&gt;object</title>
<path fill="none" stroke="black" d="M1654.12,-159.8C1661.76,-147.54 1672.16,-130.87 1680.73,-117.13"/>
<polygon fill="black" stroke="black" points="1683.72,-118.93 1686.05,-108.6 1677.78,-115.23 1683.72,-118.93"/>
<text text-anchor="middle" x="1701.39" y="-130.8" font-family="Times,serif" font-size="14.00">relation</text>
</g>
<!-- association_type -->
<g id="node18" class="node">
<title>association_type</title>
<ellipse fill="none" stroke="blue" cx="1819.39" cy="-265" rx="38.19" ry="18"/>
<text text-anchor="middle" x="1819.39" y="-261.3" font-family="Times,serif" font-size="14.00">string</text>
</g>
<!-- association_category -->
<g id="node20" class="node">
<title>association_category</title>
<ellipse fill="none" stroke="blue" cx="1938.39" cy="-265" rx="62.29" ry="18"/>
<text text-anchor="middle" x="1938.39" y="-261.3" font-family="Times,serif" font-size="14.00">association</text>
</g>
<!-- object&#45;&gt;relation -->
<g id="edge21" class="edge">
<title>object&#45;&gt;relation</title>
<path fill="none" stroke="black" stroke-dasharray="1,5" d="M1681.52,-74.24C1672.92,-65.13 1661.92,-53.47 1652.24,-43.21"/>
<polygon fill="black" stroke="black" points="1654.56,-40.57 1645.16,-35.7 1649.47,-45.38 1654.56,-40.57"/>
</g>
<!-- error or observable feature to location association_object -->
<g id="node22" class="node">
<title>error or observable feature to location association_object</title>
<ellipse fill="none" stroke="blue" cx="2114.39" cy="-265" rx="95.58" ry="18"/>
<text text-anchor="middle" x="2114.39" y="-261.3" font-family="Times,serif" font-size="14.00">deployment entity</text>
</g>
</g>
</svg>
