<?xml version="1.0" encoding="UTF-8" standalone="no"?>
<!DOCTYPE svg PUBLIC "-//W3C//DTD SVG 1.1//EN"
 "http://www.w3.org/Graphics/SVG/1.1/DTD/svg11.dtd">
<!-- Generated by graphviz version 2.43.0 (0)
 -->
<!-- Title: %3 Pages: 1 -->
<svg width="1510pt" height="131pt"
 viewBox="0.00 0.00 1509.58 131.00" xmlns="http://www.w3.org/2000/svg" xmlns:xlink="http://www.w3.org/1999/xlink">
<g id="graph0" class="graph" transform="scale(1 1) rotate(0) translate(4 127)">
<title>%3</title>
<polygon fill="white" stroke="transparent" points="-4,4 -4,-127 1505.58,-127 1505.58,4 -4,4"/>
<!-- error -->
<g id="node1" class="node">
<title>error</title>
<ellipse fill="none" stroke="black" cx="796.79" cy="-105" rx="34.39" ry="18"/>
<text text-anchor="middle" x="796.79" y="-101.3" font-family="Times,serif" font-size="14.00">error</text>
</g>
<!-- error or observable feature -->
<g id="node2" class="node">
<title>error or observable feature</title>
<ellipse fill="none" stroke="black" cx="137.79" cy="-18" rx="137.58" ry="18"/>
<text text-anchor="middle" x="137.79" y="-14.3" font-family="Times,serif" font-size="14.00">error or observable feature</text>
</g>
<!-- error&#45;&gt;error or observable feature -->
<g id="edge1" class="edge">
<title>error&#45;&gt;error or observable feature</title>
<path fill="none" stroke="black" d="M762.77,-101.66C697.46,-96.98 550.06,-85.47 426.79,-69 357.27,-59.71 278.91,-45.95 221.33,-35.21"/>
<polygon fill="black" stroke="black" points="221.67,-31.71 211.19,-33.31 220.38,-38.59 221.67,-31.71"/>
<text text-anchor="middle" x="440.79" y="-57.8" font-family="Times,serif" font-size="14.00">is_a</text>
</g>
<!-- id -->
<g id="node3" class="node">
<title>id</title>
<ellipse fill="none" stroke="blue" cx="331.79" cy="-18" rx="38.19" ry="18"/>
<text text-anchor="middle" x="331.79" y="-14.3" font-family="Times,serif" font-size="14.00">string</text>
</g>
<!-- error&#45;&gt;id -->
<g id="edge2" class="edge">
<title>error&#45;&gt;id</title>
<path fill="none" stroke="blue" d="M762.98,-101.12C691.25,-94.45 519.01,-75.39 379.79,-36 376.68,-35.12 373.49,-34.15 370.29,-33.12"/>
<polygon fill="blue" stroke="blue" points="371.38,-29.8 360.78,-29.95 369.16,-36.44 371.38,-29.8"/>
<text text-anchor="middle" x="522.79" y="-57.8" font-family="Times,serif" font-size="14.00">id</text>
</g>
<!-- iri -->
<g id="node4" class="node">
<title>iri</title>
<ellipse fill="none" stroke="blue" cx="432.79" cy="-18" rx="44.39" ry="18"/>
<text text-anchor="middle" x="432.79" y="-14.3" font-family="Times,serif" font-size="14.00">iri type</text>
</g>
<!-- error&#45;&gt;iri -->
<g id="edge3" class="edge">
<title>error&#45;&gt;iri</title>
<path fill="none" stroke="blue" d="M764.41,-98.53C727.55,-92.14 665.6,-80.92 612.79,-69 556.32,-56.25 542.41,-52.03 486.79,-36 483.28,-34.99 479.64,-33.91 476,-32.81"/>
<polygon fill="blue" stroke="blue" points="477,-29.45 466.41,-29.86 474.95,-36.15 477,-29.45"/>
<text text-anchor="middle" x="620.79" y="-57.8" font-family="Times,serif" font-size="14.00">iri</text>
</g>
<!-- type -->
<g id="node5" class="node">
<title>type</title>
<ellipse fill="none" stroke="blue" cx="533.79" cy="-18" rx="38.19" ry="18"/>
<text text-anchor="middle" x="533.79" y="-14.3" font-family="Times,serif" font-size="14.00">string</text>
</g>
<!-- error&#45;&gt;type -->
<g id="edge4" class="edge">
<title>error&#45;&gt;type</title>
<path fill="none" stroke="blue" d="M766.85,-95.57C742.72,-88.69 707.96,-78.57 677.79,-69 634.38,-55.24 623.76,-51.08 580.79,-36 578.1,-35.06 575.33,-34.08 572.54,-33.08"/>
<polygon fill="blue" stroke="blue" points="573.69,-29.78 563.09,-29.7 571.32,-36.37 573.69,-29.78"/>
<text text-anchor="middle" x="693.79" y="-57.8" font-family="Times,serif" font-size="14.00">type</text>
</g>
<!-- name -->
<g id="node6" class="node">
<title>name</title>
<ellipse fill="none" stroke="blue" cx="646.79" cy="-18" rx="56.59" ry="18"/>
<text text-anchor="middle" x="646.79" y="-14.3" font-family="Times,serif" font-size="14.00">label type</text>
</g>
<!-- error&#45;&gt;name -->
<g id="edge5" class="edge">
<title>error&#45;&gt;name</title>
<path fill="none" stroke="blue" d="M774.33,-91.27C749.92,-77.44 710.59,-55.15 682.05,-38.98"/>
<polygon fill="blue" stroke="blue" points="683.62,-35.85 673.19,-33.96 680.17,-41.94 683.62,-35.85"/>
<text text-anchor="middle" x="750.79" y="-57.8" font-family="Times,serif" font-size="14.00">name</text>
</g>
<!-- description -->
<g id="node7" class="node">
<title>description</title>
<ellipse fill="none" stroke="blue" cx="796.79" cy="-18" rx="75.29" ry="18"/>
<text text-anchor="middle" x="796.79" y="-14.3" font-family="Times,serif" font-size="14.00">narrative text</text>
</g>
<!-- error&#45;&gt;description -->
<g id="edge6" class="edge">
<title>error&#45;&gt;description</title>
<path fill="none" stroke="blue" d="M796.79,-86.8C796.79,-75.16 796.79,-59.55 796.79,-46.24"/>
<polygon fill="blue" stroke="blue" points="800.29,-46.18 796.79,-36.18 793.29,-46.18 800.29,-46.18"/>
<text text-anchor="middle" x="837.29" y="-57.8" font-family="Times,serif" font-size="14.00">description</text>
</g>
<!-- source -->
<g id="node8" class="node">
<title>source</title>
<ellipse fill="none" stroke="blue" cx="946.79" cy="-18" rx="56.59" ry="18"/>
<text text-anchor="middle" x="946.79" y="-14.3" font-family="Times,serif" font-size="14.00">label type</text>
</g>
<!-- error&#45;&gt;source -->
<g id="edge7" class="edge">
<title>error&#45;&gt;source</title>
<path fill="none" stroke="blue" d="M823.54,-93.4C846.4,-84.27 876.43,-72.09 881.79,-69 895.38,-61.16 909.32,-50.8 920.79,-41.54"/>
<polygon fill="blue" stroke="blue" points="923.17,-44.11 928.66,-35.05 918.72,-38.71 923.17,-44.11"/>
<text text-anchor="middle" x="928.79" y="-57.8" font-family="Times,serif" font-size="14.00">source</text>
</g>
<!-- provided by -->
<g id="node9" class="node">
<title>provided by</title>
<ellipse fill="none" stroke="blue" cx="1058.79" cy="-18" rx="37.09" ry="18"/>
<text text-anchor="middle" x="1058.79" y="-14.3" font-family="Times,serif" font-size="14.00">agent</text>
</g>
<!-- error&#45;&gt;provided by -->
<g id="edge8" class="edge">
<title>error&#45;&gt;provided by</title>
<path fill="none" stroke="blue" d="M822.39,-92.8C828.04,-90.63 834.05,-88.55 839.79,-87 890.57,-73.24 906.59,-84.76 956.79,-69 981.48,-61.25 1007.66,-48.31 1027.31,-37.53"/>
<polygon fill="blue" stroke="blue" points="1029.1,-40.54 1036.12,-32.61 1025.69,-34.43 1029.1,-40.54"/>
<text text-anchor="middle" x="1037.29" y="-57.8" font-family="Times,serif" font-size="14.00">provided by</text>
</g>
<!-- has attribute -->
<g id="node10" class="node">
<title>has attribute</title>
<ellipse fill="none" stroke="blue" cx="1165.79" cy="-18" rx="51.99" ry="18"/>
<text text-anchor="middle" x="1165.79" y="-14.3" font-family="Times,serif" font-size="14.00">attribute</text>
</g>
<!-- error&#45;&gt;has attribute -->
<g id="edge9" class="edge">
<title>error&#45;&gt;has attribute</title>
<path fill="none" stroke="blue" d="M821.85,-92.62C827.63,-90.41 833.84,-88.36 839.79,-87 945.78,-62.73 980.25,-102.23 1083.79,-69 1103.03,-62.82 1122.44,-51.29 1137.53,-40.85"/>
<polygon fill="blue" stroke="blue" points="1139.79,-43.54 1145.89,-34.88 1135.72,-37.84 1139.79,-43.54"/>
<text text-anchor="middle" x="1162.79" y="-57.8" font-family="Times,serif" font-size="14.00">has attribute</text>
</g>
<!-- category -->
<g id="node11" class="node">
<title>category</title>
<ellipse fill="none" stroke="black" cx="1286.79" cy="-18" rx="51.19" ry="18"/>
<text text-anchor="middle" x="1286.79" y="-14.3" font-family="Times,serif" font-size="14.00">category</text>
</g>
<!-- error&#45;&gt;category -->
<g id="edge10" class="edge">
<title>error&#45;&gt;category</title>
<path fill="none" stroke="blue" d="M821.82,-92.51C827.61,-90.31 833.82,-88.29 839.79,-87 921.13,-69.47 1134.92,-95.51 1213.79,-69 1231.11,-63.18 1248.09,-51.97 1261.31,-41.64"/>
<polygon fill="blue" stroke="blue" points="1263.87,-44.07 1269.42,-35.05 1259.46,-38.64 1263.87,-44.07"/>
<text text-anchor="middle" x="1274.29" y="-57.8" font-family="Times,serif" font-size="14.00">category</text>
</g>
<!-- in taxon -->
<g id="node13" class="node">
<title>in taxon</title>
<ellipse fill="none" stroke="blue" cx="1428.79" cy="-18" rx="72.59" ry="18"/>
<text text-anchor="middle" x="1428.79" y="-14.3" font-family="Times,serif" font-size="14.00">system taxon</text>
</g>
<!-- error&#45;&gt;in taxon -->
<g id="edge11" class="edge">
<title>error&#45;&gt;in taxon</title>
<path fill="none" stroke="blue" d="M821.81,-92.47C827.6,-90.26 833.82,-88.26 839.79,-87 1044.35,-43.96 1105.69,-114.22 1309.79,-69 1338.05,-62.74 1368.1,-50.06 1390.93,-39.04"/>
<polygon fill="blue" stroke="blue" points="1392.51,-42.16 1399.93,-34.6 1389.41,-35.88 1392.51,-42.16"/>
<text text-anchor="middle" x="1385.79" y="-57.8" font-family="Times,serif" font-size="14.00">in taxon</text>
</g>
<!-- named thing_category -->
<g id="node12" class="node">
<title>named thing_category</title>
<ellipse fill="none" stroke="blue" cx="918.79" cy="-105" rx="69.59" ry="18"/>
<text text-anchor="middle" x="918.79" y="-101.3" font-family="Times,serif" font-size="14.00">named thing</text>
</g>
</g>
</svg>
