<?xml version="1.0" encoding="UTF-8" standalone="no"?>
<!DOCTYPE svg PUBLIC "-//W3C//DTD SVG 1.1//EN"
 "http://www.w3.org/Graphics/SVG/1.1/DTD/svg11.dtd">
<!-- Generated by graphviz version 2.43.0 (0)
 -->
<!-- Title: %3 Pages: 1 -->
<svg width="3657pt" height="291pt"
 viewBox="0.00 0.00 3657.48 291.00" xmlns="http://www.w3.org/2000/svg" xmlns:xlink="http://www.w3.org/1999/xlink">
<g id="graph0" class="graph" transform="scale(1 1) rotate(0) translate(4 287)">
<title>%3</title>
<polygon fill="white" stroke="transparent" points="-4,4 -4,-287 3653.48,-287 3653.48,4 -4,4"/>
<!-- error to observable feature association -->
<g id="node1" class="node">
<title>error to observable feature association</title>
<ellipse fill="none" stroke="black" cx="2030.39" cy="-265" rx="191.97" ry="18"/>
<text text-anchor="middle" x="2030.39" y="-261.3" font-family="Times,serif" font-size="14.00">error to observable feature association</text>
</g>
<!-- association -->
<g id="node2" class="node">
<title>association</title>
<ellipse fill="none" stroke="black" cx="62.39" cy="-178" rx="62.29" ry="18"/>
<text text-anchor="middle" x="62.39" y="-174.3" font-family="Times,serif" font-size="14.00">association</text>
</g>
<!-- error to observable feature association&#45;&gt;association -->
<g id="edge1" class="edge">
<title>error to observable feature association&#45;&gt;association</title>
<path fill="none" stroke="black" d="M1843.08,-261.04C1584.27,-256.5 1102.74,-246.47 692.39,-229 443.74,-218.41 379.59,-232.45 133.39,-196 127.91,-195.19 122.22,-194.16 116.57,-193.01"/>
<polygon fill="black" stroke="black" points="116.99,-189.51 106.47,-190.82 115.51,-196.36 116.99,-189.51"/>
<text text-anchor="middle" x="706.39" y="-217.8" font-family="Times,serif" font-size="14.00">is_a</text>
</g>
<!-- entity to observable feature association mixin -->
<g id="node3" class="node">
<title>entity to observable feature association mixin</title>
<ellipse fill="none" stroke="black" cx="366.39" cy="-178" rx="223.66" ry="18"/>
<text text-anchor="middle" x="366.39" y="-174.3" font-family="Times,serif" font-size="14.00">entity to observable feature association mixin</text>
</g>
<!-- error to observable feature association&#45;&gt;entity to observable feature association mixin -->
<g id="edge2" class="edge">
<title>error to observable feature association&#45;&gt;entity to observable feature association mixin</title>
<path fill="none" stroke="black" d="M1842.21,-261.37C1621.82,-257.52 1245.84,-248.55 923.39,-229 780.76,-220.35 618.02,-205.12 505.44,-193.73"/>
<polygon fill="black" stroke="black" points="505.69,-190.24 495.39,-192.71 504.98,-197.21 505.69,-190.24"/>
<text text-anchor="middle" x="939.89" y="-217.8" font-family="Times,serif" font-size="14.00">uses</text>
</g>
<!-- error to entity association mixin -->
<g id="node4" class="node">
<title>error to entity association mixin</title>
<ellipse fill="none" stroke="black" cx="768.39" cy="-178" rx="160.57" ry="18"/>
<text text-anchor="middle" x="768.39" y="-174.3" font-family="Times,serif" font-size="14.00">error to entity association mixin</text>
</g>
<!-- error to observable feature association&#45;&gt;error to entity association mixin -->
<g id="edge3" class="edge">
<title>error to observable feature association&#45;&gt;error to entity association mixin</title>
<path fill="none" stroke="black" d="M1838.5,-264.32C1643.78,-262.93 1333.91,-256.01 1067.39,-229 994.26,-221.59 911.93,-207.38 852.2,-196"/>
<polygon fill="black" stroke="black" points="852.55,-192.5 842.07,-194.05 851.23,-199.38 852.55,-192.5"/>
<text text-anchor="middle" x="1083.89" y="-217.8" font-family="Times,serif" font-size="14.00">uses</text>
</g>
<!-- id -->
<g id="node5" class="node">
<title>id</title>
<ellipse fill="none" stroke="blue" cx="985.39" cy="-178" rx="38.19" ry="18"/>
<text text-anchor="middle" x="985.39" y="-174.3" font-family="Times,serif" font-size="14.00">string</text>
</g>
<!-- error to observable feature association&#45;&gt;id -->
<g id="edge4" class="edge">
<title>error to observable feature association&#45;&gt;id</title>
<path fill="none" stroke="blue" d="M1838.46,-264.36C1669.39,-262.68 1416.75,-255.27 1198.39,-229 1124.14,-220.07 1105.49,-215.87 1033.39,-196 1030.28,-195.14 1027.08,-194.18 1023.88,-193.17"/>
<polygon fill="blue" stroke="blue" points="1024.97,-189.84 1014.37,-190.01 1022.76,-196.49 1024.97,-189.84"/>
<text text-anchor="middle" x="1205.39" y="-217.8" font-family="Times,serif" font-size="14.00">id</text>
</g>
<!-- iri -->
<g id="node6" class="node">
<title>iri</title>
<ellipse fill="none" stroke="blue" cx="1086.39" cy="-178" rx="44.39" ry="18"/>
<text text-anchor="middle" x="1086.39" y="-174.3" font-family="Times,serif" font-size="14.00">iri type</text>
</g>
<!-- error to observable feature association&#45;&gt;iri -->
<g id="edge5" class="edge">
<title>error to observable feature association&#45;&gt;iri</title>
<path fill="none" stroke="blue" d="M1840.93,-262.05C1695.6,-258.8 1490.24,-250.4 1311.39,-229 1234.11,-219.75 1214.81,-215.26 1139.39,-196 1136.02,-195.14 1132.54,-194.18 1129.05,-193.17"/>
<polygon fill="blue" stroke="blue" points="1129.88,-189.77 1119.29,-190.23 1127.86,-196.47 1129.88,-189.77"/>
<text text-anchor="middle" x="1319.39" y="-217.8" font-family="Times,serif" font-size="14.00">iri</text>
</g>
<!-- name -->
<g id="node7" class="node">
<title>name</title>
<ellipse fill="none" stroke="blue" cx="1205.39" cy="-178" rx="56.59" ry="18"/>
<text text-anchor="middle" x="1205.39" y="-174.3" font-family="Times,serif" font-size="14.00">label type</text>
</g>
<!-- error to observable feature association&#45;&gt;name -->
<g id="edge6" class="edge">
<title>error to observable feature association&#45;&gt;name</title>
<path fill="none" stroke="blue" d="M1839.83,-262.94C1714.59,-259.9 1547.48,-251.39 1401.39,-229 1350.19,-221.15 1292.93,-205.75 1253.58,-194.1"/>
<polygon fill="blue" stroke="blue" points="1254.56,-190.74 1243.98,-191.23 1252.56,-197.45 1254.56,-190.74"/>
<text text-anchor="middle" x="1421.39" y="-217.8" font-family="Times,serif" font-size="14.00">name</text>
</g>
<!-- description -->
<g id="node8" class="node">
<title>description</title>
<ellipse fill="none" stroke="blue" cx="1355.39" cy="-178" rx="75.29" ry="18"/>
<text text-anchor="middle" x="1355.39" y="-174.3" font-family="Times,serif" font-size="14.00">narrative text</text>
</g>
<!-- error to observable feature association&#45;&gt;description -->
<g id="edge7" class="edge">
<title>error to observable feature association&#45;&gt;description</title>
<path fill="none" stroke="blue" d="M1854.81,-257.69C1726.04,-252.08 1562.6,-242.63 1496.39,-229 1462.83,-222.09 1426.41,-209.02 1398.99,-197.98"/>
<polygon fill="blue" stroke="blue" points="1400.27,-194.72 1389.69,-194.17 1397.62,-201.19 1400.27,-194.72"/>
<text text-anchor="middle" x="1536.89" y="-217.8" font-family="Times,serif" font-size="14.00">description</text>
</g>
<!-- source -->
<g id="node9" class="node">
<title>source</title>
<ellipse fill="none" stroke="blue" cx="1505.39" cy="-178" rx="56.59" ry="18"/>
<text text-anchor="middle" x="1505.39" y="-174.3" font-family="Times,serif" font-size="14.00">label type</text>
</g>
<!-- error to observable feature association&#45;&gt;source -->
<g id="edge8" class="edge">
<title>error to observable feature association&#45;&gt;source</title>
<path fill="none" stroke="blue" d="M1845.99,-260.06C1776.12,-255.45 1696.34,-246.4 1625.39,-229 1596.69,-221.96 1565.95,-209.04 1542.77,-198.1"/>
<polygon fill="blue" stroke="blue" points="1544.17,-194.89 1533.64,-193.7 1541.14,-201.19 1544.17,-194.89"/>
<text text-anchor="middle" x="1649.39" y="-217.8" font-family="Times,serif" font-size="14.00">source</text>
</g>
<!-- provided by -->
<g id="node10" class="node">
<title>provided by</title>
<ellipse fill="none" stroke="blue" cx="1617.39" cy="-178" rx="37.09" ry="18"/>
<text text-anchor="middle" x="1617.39" y="-174.3" font-family="Times,serif" font-size="14.00">agent</text>
</g>
<!-- error to observable feature association&#45;&gt;provided by -->
<g id="edge9" class="edge">
<title>error to observable feature association&#45;&gt;provided by</title>
<path fill="none" stroke="blue" d="M1858.85,-256.96C1810.72,-251.81 1758.87,-243.22 1712.39,-229 1689.33,-221.94 1665.3,-209.24 1647.18,-198.4"/>
<polygon fill="blue" stroke="blue" points="1648.63,-195.19 1638.28,-192.95 1644.98,-201.16 1648.63,-195.19"/>
<text text-anchor="middle" x="1754.89" y="-217.8" font-family="Times,serif" font-size="14.00">provided by</text>
</g>
<!-- has attribute -->
<g id="node11" class="node">
<title>has attribute</title>
<ellipse fill="none" stroke="blue" cx="1724.39" cy="-178" rx="51.99" ry="18"/>
<text text-anchor="middle" x="1724.39" y="-174.3" font-family="Times,serif" font-size="14.00">attribute</text>
</g>
<!-- error to observable feature association&#45;&gt;has attribute -->
<g id="edge10" class="edge">
<title>error to observable feature association&#45;&gt;has attribute</title>
<path fill="none" stroke="blue" d="M1928.8,-249.64C1899.92,-244.38 1868.64,-237.57 1840.39,-229 1813.4,-220.81 1784.25,-208.23 1761.92,-197.73"/>
<polygon fill="blue" stroke="blue" points="1763.33,-194.53 1752.8,-193.38 1760.32,-200.85 1763.33,-194.53"/>
<text text-anchor="middle" x="1887.39" y="-217.8" font-family="Times,serif" font-size="14.00">has attribute</text>
</g>
<!-- subject -->
<g id="node12" class="node">
<title>subject</title>
<ellipse fill="none" stroke="blue" cx="1864.39" cy="-178" rx="69.59" ry="18"/>
<text text-anchor="middle" x="1864.39" y="-174.3" font-family="Times,serif" font-size="14.00">named thing</text>
</g>
<!-- error to observable feature association&#45;&gt;subject -->
<g id="edge11" class="edge">
<title>error to observable feature association&#45;&gt;subject</title>
<path fill="none" stroke="blue" d="M1997.6,-247.21C1970.49,-233.32 1931.92,-213.58 1903.26,-198.9"/>
<polygon fill="blue" stroke="blue" points="1904.83,-195.77 1894.33,-194.33 1901.64,-202 1904.83,-195.77"/>
<text text-anchor="middle" x="1983.39" y="-217.8" font-family="Times,serif" font-size="14.00">subject</text>
</g>
<!-- predicate -->
<g id="node13" class="node">
<title>predicate</title>
<ellipse fill="none" stroke="blue" cx="2030.39" cy="-178" rx="77.99" ry="18"/>
<text text-anchor="middle" x="2030.39" y="-174.3" font-family="Times,serif" font-size="14.00">predicate type</text>
</g>
<!-- error to observable feature association&#45;&gt;predicate -->
<g id="edge12" class="edge">
<title>error to observable feature association&#45;&gt;predicate</title>
<path fill="none" stroke="blue" d="M2030.39,-246.8C2030.39,-235.16 2030.39,-219.55 2030.39,-206.24"/>
<polygon fill="blue" stroke="blue" points="2033.89,-206.18 2030.39,-196.18 2026.89,-206.18 2033.89,-206.18"/>
<text text-anchor="middle" x="2064.39" y="-217.8" font-family="Times,serif" font-size="14.00">predicate</text>
</g>
<!-- object -->
<g id="node14" class="node">
<title>object</title>
<ellipse fill="none" stroke="blue" cx="2079.39" cy="-91" rx="69.59" ry="18"/>
<text text-anchor="middle" x="2079.39" y="-87.3" font-family="Times,serif" font-size="14.00">named thing</text>
</g>
<!-- error to observable feature association&#45;&gt;object -->
<g id="edge13" class="edge">
<title>error to observable feature association&#45;&gt;object</title>
<path fill="none" stroke="blue" d="M2076.57,-247.45C2085.93,-242.56 2095.12,-236.47 2102.39,-229 2113.64,-217.46 2113.98,-211.75 2117.39,-196 2120.78,-180.36 2121.43,-175.48 2117.39,-160 2113.44,-144.84 2105.29,-129.47 2097.54,-117.19"/>
<polygon fill="blue" stroke="blue" points="2100.46,-115.26 2092.03,-108.84 2094.61,-119.11 2100.46,-115.26"/>
<text text-anchor="middle" x="2142.39" y="-174.3" font-family="Times,serif" font-size="14.00">object</text>
</g>
<!-- relation -->
<g id="node15" class="node">
<title>relation</title>
<ellipse fill="none" stroke="blue" cx="2079.39" cy="-18" rx="57.39" ry="18"/>
<text text-anchor="middle" x="2079.39" y="-14.3" font-family="Times,serif" font-size="14.00">uriorcurie</text>
</g>
<!-- error to observable feature association&#45;&gt;relation -->
<g id="edge14" class="edge">
<title>error to observable feature association&#45;&gt;relation</title>
<path fill="none" stroke="blue" d="M2101.13,-248.24C2127.86,-238.22 2155.04,-222.02 2168.39,-196 2180.33,-172.75 2172.26,-95.99 2158.39,-73 2149.51,-58.27 2134.89,-46.63 2120.63,-37.98"/>
<polygon fill="blue" stroke="blue" points="2122.28,-34.89 2111.86,-32.98 2118.81,-40.97 2122.28,-34.89"/>
<text text-anchor="middle" x="2202.39" y="-130.8" font-family="Times,serif" font-size="14.00">relation</text>
</g>
<!-- negated -->
<g id="node16" class="node">
<title>negated</title>
<ellipse fill="none" stroke="blue" cx="2291.39" cy="-178" rx="46.59" ry="18"/>
<text text-anchor="middle" x="2291.39" y="-174.3" font-family="Times,serif" font-size="14.00">boolean</text>
</g>
<!-- error to observable feature association&#45;&gt;negated -->
<g id="edge15" class="edge">
<title>error to observable feature association&#45;&gt;negated</title>
<path fill="none" stroke="blue" d="M2158.72,-251.6C2183.21,-246.46 2208.13,-239.21 2230.39,-229 2244.62,-222.48 2258.3,-211.82 2269.08,-202.01"/>
<polygon fill="blue" stroke="blue" points="2271.54,-204.51 2276.39,-195.09 2266.72,-199.42 2271.54,-204.51"/>
<text text-anchor="middle" x="2283.39" y="-217.8" font-family="Times,serif" font-size="14.00">negated</text>
</g>
<!-- qualifiers -->
<g id="node17" class="node">
<title>qualifiers</title>
<ellipse fill="none" stroke="blue" cx="2432.39" cy="-178" rx="76.89" ry="18"/>
<text text-anchor="middle" x="2432.39" y="-174.3" font-family="Times,serif" font-size="14.00">ontology class</text>
</g>
<!-- error to observable feature association&#45;&gt;qualifiers -->
<g id="edge16" class="edge">
<title>error to observable feature association&#45;&gt;qualifiers</title>
<path fill="none" stroke="blue" d="M2180.39,-253.78C2224.69,-248.58 2272.94,-240.76 2316.39,-229 2343.07,-221.78 2371.58,-209.55 2393.67,-199"/>
<polygon fill="blue" stroke="blue" points="2395.26,-202.12 2402.72,-194.6 2392.19,-195.83 2395.26,-202.12"/>
<text text-anchor="middle" x="2392.89" y="-217.8" font-family="Times,serif" font-size="14.00">qualifiers</text>
</g>
<!-- publications -->
<g id="node18" class="node">
<title>publications</title>
<ellipse fill="none" stroke="blue" cx="2589.39" cy="-178" rx="62.29" ry="18"/>
<text text-anchor="middle" x="2589.39" y="-174.3" font-family="Times,serif" font-size="14.00">publication</text>
</g>
<!-- error to observable feature association&#45;&gt;publications -->
<g id="edge17" class="edge">
<title>error to observable feature association&#45;&gt;publications</title>
<path fill="none" stroke="blue" d="M2167.16,-252.38C2280.4,-242.71 2423.81,-230.31 2430.39,-229 2469.32,-221.27 2512.18,-207.47 2543.58,-196.33"/>
<polygon fill="blue" stroke="blue" points="2545.13,-199.49 2553.35,-192.81 2542.76,-192.9 2545.13,-199.49"/>
<text text-anchor="middle" x="2532.39" y="-217.8" font-family="Times,serif" font-size="14.00">publications</text>
</g>
<!-- type -->
<g id="node19" class="node">
<title>type</title>
<ellipse fill="none" stroke="black" cx="2701.39" cy="-178" rx="31.4" ry="18"/>
<text text-anchor="middle" x="2701.39" y="-174.3" font-family="Times,serif" font-size="14.00">type</text>
</g>
<!-- error to observable feature association&#45;&gt;type -->
<g id="edge18" class="edge">
<title>error to observable feature association&#45;&gt;type</title>
<path fill="none" stroke="blue" d="M2164.14,-252.07C2186.59,-250.25 2209.64,-248.48 2231.39,-247 2308.87,-241.73 2504.63,-246.05 2580.39,-229 2612.16,-221.85 2646.27,-207.04 2670.15,-195.39"/>
<polygon fill="blue" stroke="blue" points="2672.01,-198.37 2679.4,-190.78 2668.89,-192.11 2672.01,-198.37"/>
<text text-anchor="middle" x="2641.39" y="-217.8" font-family="Times,serif" font-size="14.00">type</text>
</g>
<!-- category -->
<g id="node21" class="node">
<title>category</title>
<ellipse fill="none" stroke="black" cx="2802.39" cy="-178" rx="51.19" ry="18"/>
<text text-anchor="middle" x="2802.39" y="-174.3" font-family="Times,serif" font-size="14.00">category</text>
</g>
<!-- error to observable feature association&#45;&gt;category -->
<g id="edge19" class="edge">
<title>error to observable feature association&#45;&gt;category</title>
<path fill="none" stroke="blue" d="M2163.05,-251.98C2185.84,-250.14 2209.29,-248.4 2231.39,-247 2326.84,-240.97 2567.5,-247.18 2661.39,-229 2696.75,-222.15 2735.17,-208.06 2762.96,-196.57"/>
<polygon fill="blue" stroke="blue" points="2764.46,-199.73 2772.33,-192.63 2761.75,-193.28 2764.46,-199.73"/>
<text text-anchor="middle" x="2744.89" y="-217.8" font-family="Times,serif" font-size="14.00">category</text>
</g>
<!-- frequency qualifier -->
<g id="node23" class="node">
<title>frequency qualifier</title>
<ellipse fill="none" stroke="blue" cx="2956.39" cy="-178" rx="85.29" ry="18"/>
<text text-anchor="middle" x="2956.39" y="-174.3" font-family="Times,serif" font-size="14.00">frequency value</text>
</g>
<!-- error to observable feature association&#45;&gt;frequency qualifier -->
<g id="edge20" class="edge">
<title>error to observable feature association&#45;&gt;frequency qualifier</title>
<path fill="none" stroke="blue" d="M2161.96,-251.89C2185.08,-250.04 2208.93,-248.32 2231.39,-247 2353.25,-239.85 2659.79,-247.82 2780.39,-229 2823.24,-222.31 2870.44,-208.54 2905.17,-197.14"/>
<polygon fill="blue" stroke="blue" points="2906.69,-200.32 2915.07,-193.84 2904.48,-193.68 2906.69,-200.32"/>
<text text-anchor="middle" x="2912.39" y="-217.8" font-family="Times,serif" font-size="14.00">frequency qualifier</text>
</g>
<!-- severity qualifier -->
<g id="node24" class="node">
<title>severity qualifier</title>
<ellipse fill="none" stroke="blue" cx="3135.39" cy="-178" rx="76.09" ry="18"/>
<text text-anchor="middle" x="3135.39" y="-174.3" font-family="Times,serif" font-size="14.00">severity value</text>
</g>
<!-- error to observable feature association&#45;&gt;severity qualifier -->
<g id="edge21" class="edge">
<title>error to observable feature association&#45;&gt;severity qualifier</title>
<path fill="none" stroke="blue" d="M2160.87,-251.81C2184.33,-249.95 2208.58,-248.24 2231.39,-247 2398.53,-237.94 2819.48,-257.62 2984.39,-229 3021.06,-222.64 3060.97,-209.12 3090.55,-197.74"/>
<polygon fill="blue" stroke="blue" points="3092.12,-200.88 3100.16,-193.98 3089.57,-194.36 3092.12,-200.88"/>
<text text-anchor="middle" x="3105.39" y="-217.8" font-family="Times,serif" font-size="14.00">severity qualifier</text>
</g>
<!-- onset qualifier -->
<g id="node25" class="node">
<title>onset qualifier</title>
<ellipse fill="none" stroke="blue" cx="3265.39" cy="-178" rx="36.29" ry="18"/>
<text text-anchor="middle" x="3265.39" y="-174.3" font-family="Times,serif" font-size="14.00">onset</text>
</g>
<!-- error to observable feature association&#45;&gt;onset qualifier -->
<g id="edge22" class="edge">
<title>error to observable feature association&#45;&gt;onset qualifier</title>
<path fill="none" stroke="blue" d="M2160.33,-251.76C2183.96,-249.89 2208.4,-248.19 2231.39,-247 2335.61,-241.6 3069.33,-255 3170.39,-229 3194.07,-222.91 3218.41,-209.94 3236.54,-198.73"/>
<polygon fill="blue" stroke="blue" points="3238.85,-201.41 3245.41,-193.08 3235.09,-195.5 3238.85,-201.41"/>
<text text-anchor="middle" x="3260.89" y="-217.8" font-family="Times,serif" font-size="14.00">onset qualifier</text>
</g>
<!-- architectural style qualifier -->
<g id="node26" class="node">
<title>architectural style qualifier</title>
<ellipse fill="none" stroke="blue" cx="3484.39" cy="-178" rx="165.17" ry="18"/>
<text text-anchor="middle" x="3484.39" y="-174.3" font-family="Times,serif" font-size="14.00">computational architectural style</text>
</g>
<!-- error to observable feature association&#45;&gt;architectural style qualifier -->
<g id="edge23" class="edge">
<title>error to observable feature association&#45;&gt;architectural style qualifier</title>
<path fill="none" stroke="blue" d="M2160.06,-251.73C2183.77,-249.86 2208.31,-248.17 2231.39,-247 2351.81,-240.92 3197.23,-247.37 3316.39,-229 3355.78,-222.93 3398.83,-209.99 3431.49,-198.79"/>
<polygon fill="blue" stroke="blue" points="3432.99,-201.98 3441.28,-195.38 3430.68,-195.36 3432.99,-201.98"/>
<text text-anchor="middle" x="3479.39" y="-217.8" font-family="Times,serif" font-size="14.00">architectural style qualifier</text>
</g>
<!-- subject&#45;&gt;object -->
<g id="edge24" class="edge">
<title>subject&#45;&gt;object</title>
<path fill="none" stroke="black" d="M1900.87,-162.58C1937.39,-148.14 1993.72,-125.87 2033.31,-110.22"/>
<polygon fill="black" stroke="black" points="2034.73,-113.42 2042.74,-106.49 2032.16,-106.91 2034.73,-113.42"/>
<text text-anchor="middle" x="2013.39" y="-130.8" font-family="Times,serif" font-size="14.00">relation</text>
</g>
<!-- subject&#45;&gt;relation -->
<g id="edge25" class="edge">
<title>subject&#45;&gt;relation</title>
<path fill="none" stroke="black" stroke-dasharray="1,5" d="M1884.87,-160.8C1911.27,-140.04 1958.73,-103.14 2000.39,-73 2015.67,-61.95 2032.92,-50.09 2047.39,-40.31"/>
<polygon fill="black" stroke="black" points="2049.67,-43 2056.01,-34.51 2045.76,-37.19 2049.67,-43"/>
</g>
<!-- object&#45;&gt;relation -->
<g id="edge26" class="edge">
<title>object&#45;&gt;relation</title>
<path fill="none" stroke="black" stroke-dasharray="1,5" d="M2079.39,-72.81C2079.39,-64.79 2079.39,-55.05 2079.39,-46.07"/>
<polygon fill="black" stroke="black" points="2082.89,-46.03 2079.39,-36.03 2075.89,-46.03 2082.89,-46.03"/>
</g>
<!-- association_type -->
<g id="node20" class="node">
<title>association_type</title>
<ellipse fill="none" stroke="blue" cx="2278.39" cy="-265" rx="38.19" ry="18"/>
<text text-anchor="middle" x="2278.39" y="-261.3" font-family="Times,serif" font-size="14.00">string</text>
</g>
<!-- association_category -->
<g id="node22" class="node">
<title>association_category</title>
<ellipse fill="none" stroke="blue" cx="2397.39" cy="-265" rx="62.29" ry="18"/>
<text text-anchor="middle" x="2397.39" y="-261.3" font-family="Times,serif" font-size="14.00">association</text>
</g>
</g>
</svg>
