<?xml version="1.0" encoding="UTF-8" standalone="no"?>
<!DOCTYPE svg PUBLIC "-//W3C//DTD SVG 1.1//EN"
 "http://www.w3.org/Graphics/SVG/1.1/DTD/svg11.dtd">
<!-- Generated by graphviz version 2.43.0 (0)
 -->
<!-- Title: %3 Pages: 1 -->
<svg width="1640pt" height="131pt"
 viewBox="0.00 0.00 1640.03 131.00" xmlns="http://www.w3.org/2000/svg" xmlns:xlink="http://www.w3.org/1999/xlink">
<g id="graph0" class="graph" transform="scale(1 1) rotate(0) translate(4 127)">
<title>%3</title>
<polygon fill="white" stroke="transparent" points="-4,4 -4,-127 1636.03,-127 1636.03,4 -4,4"/>
<!-- error or observable feature -->
<g id="node1" class="node">
<title>error or observable feature</title>
<ellipse fill="none" stroke="black" cx="852.24" cy="-105" rx="137.58" ry="18"/>
<text text-anchor="middle" x="852.24" y="-101.3" font-family="Times,serif" font-size="14.00">error or observable feature</text>
</g>
<!-- computational entity -->
<g id="node2" class="node">
<title>computational entity</title>
<ellipse fill="none" stroke="black" cx="107.24" cy="-18" rx="107.48" ry="18"/>
<text text-anchor="middle" x="107.24" y="-14.3" font-family="Times,serif" font-size="14.00">computational entity</text>
</g>
<!-- error or observable feature&#45;&gt;computational entity -->
<g id="edge1" class="edge">
<title>error or observable feature&#45;&gt;computational entity</title>
<path fill="none" stroke="black" d="M733.04,-95.91C650.66,-89.82 538.63,-80.55 440.24,-69 354.64,-58.95 257.19,-43.89 189.93,-32.93"/>
<polygon fill="black" stroke="black" points="190.25,-29.43 179.82,-31.27 189.12,-36.34 190.25,-29.43"/>
<text text-anchor="middle" x="454.24" y="-57.8" font-family="Times,serif" font-size="14.00">is_a</text>
</g>
<!-- thing with taxon -->
<g id="node3" class="node">
<title>thing with taxon</title>
<ellipse fill="none" stroke="black" cx="319.24" cy="-18" rx="87.18" ry="18"/>
<text text-anchor="middle" x="319.24" y="-14.3" font-family="Times,serif" font-size="14.00">thing with taxon</text>
</g>
<!-- error or observable feature&#45;&gt;thing with taxon -->
<g id="edge2" class="edge">
<title>error or observable feature&#45;&gt;thing with taxon</title>
<path fill="none" stroke="black" d="M742.1,-94.09C683.95,-88.17 611.51,-79.71 547.24,-69 491.19,-59.66 428.15,-45.56 382.58,-34.7"/>
<polygon fill="black" stroke="black" points="383.38,-31.3 372.84,-32.37 381.75,-38.1 383.38,-31.3"/>
<text text-anchor="middle" x="563.74" y="-57.8" font-family="Times,serif" font-size="14.00">uses</text>
</g>
<!-- id -->
<g id="node4" class="node">
<title>id</title>
<ellipse fill="none" stroke="blue" cx="462.24" cy="-18" rx="38.19" ry="18"/>
<text text-anchor="middle" x="462.24" y="-14.3" font-family="Times,serif" font-size="14.00">string</text>
</g>
<!-- error or observable feature&#45;&gt;id -->
<g id="edge3" class="edge">
<title>error or observable feature&#45;&gt;id</title>
<path fill="none" stroke="blue" d="M765.92,-90.88C696.21,-79.32 595.95,-60.5 510.24,-36 507.14,-35.11 503.94,-34.13 500.75,-33.11"/>
<polygon fill="blue" stroke="blue" points="501.84,-29.78 491.24,-29.92 499.62,-36.42 501.84,-29.78"/>
<text text-anchor="middle" x="648.24" y="-57.8" font-family="Times,serif" font-size="14.00">id</text>
</g>
<!-- iri -->
<g id="node5" class="node">
<title>iri</title>
<ellipse fill="none" stroke="blue" cx="563.24" cy="-18" rx="44.39" ry="18"/>
<text text-anchor="middle" x="563.24" y="-14.3" font-family="Times,serif" font-size="14.00">iri type</text>
</g>
<!-- error or observable feature&#45;&gt;iri -->
<g id="edge4" class="edge">
<title>error or observable feature&#45;&gt;iri</title>
<path fill="none" stroke="blue" d="M796.18,-88.54C774.6,-82.53 749.75,-75.53 727.24,-69 678.22,-54.78 666.03,-51 617.24,-36 613.75,-34.93 610.13,-33.81 606.5,-32.67"/>
<polygon fill="blue" stroke="blue" points="607.51,-29.32 596.92,-29.68 605.42,-36.01 607.51,-29.32"/>
<text text-anchor="middle" x="735.24" y="-57.8" font-family="Times,serif" font-size="14.00">iri</text>
</g>
<!-- type -->
<g id="node6" class="node">
<title>type</title>
<ellipse fill="none" stroke="blue" cx="664.24" cy="-18" rx="38.19" ry="18"/>
<text text-anchor="middle" x="664.24" y="-14.3" font-family="Times,serif" font-size="14.00">string</text>
</g>
<!-- error or observable feature&#45;&gt;type -->
<g id="edge5" class="edge">
<title>error or observable feature&#45;&gt;type</title>
<path fill="none" stroke="blue" d="M815.99,-87.61C782.68,-72.55 733.58,-50.35 700.32,-35.31"/>
<polygon fill="blue" stroke="blue" points="701.52,-32.01 690.96,-31.08 698.63,-38.39 701.52,-32.01"/>
<text text-anchor="middle" x="786.24" y="-57.8" font-family="Times,serif" font-size="14.00">type</text>
</g>
<!-- name -->
<g id="node7" class="node">
<title>name</title>
<ellipse fill="none" stroke="blue" cx="777.24" cy="-18" rx="56.59" ry="18"/>
<text text-anchor="middle" x="777.24" y="-14.3" font-family="Times,serif" font-size="14.00">label type</text>
</g>
<!-- error or observable feature&#45;&gt;name -->
<g id="edge6" class="edge">
<title>error or observable feature&#45;&gt;name</title>
<path fill="none" stroke="blue" d="M837.06,-86.8C826.04,-74.31 810.98,-57.24 798.72,-43.35"/>
<polygon fill="blue" stroke="blue" points="801.13,-40.78 791.88,-35.6 795.88,-45.41 801.13,-40.78"/>
<text text-anchor="middle" x="839.24" y="-57.8" font-family="Times,serif" font-size="14.00">name</text>
</g>
<!-- description -->
<g id="node8" class="node">
<title>description</title>
<ellipse fill="none" stroke="blue" cx="927.24" cy="-18" rx="75.29" ry="18"/>
<text text-anchor="middle" x="927.24" y="-14.3" font-family="Times,serif" font-size="14.00">narrative text</text>
</g>
<!-- error or observable feature&#45;&gt;description -->
<g id="edge7" class="edge">
<title>error or observable feature&#45;&gt;description</title>
<path fill="none" stroke="blue" d="M867.42,-86.8C878.37,-74.39 893.31,-57.46 905.52,-43.62"/>
<polygon fill="blue" stroke="blue" points="908.35,-45.7 912.34,-35.89 903.1,-41.07 908.35,-45.7"/>
<text text-anchor="middle" x="934.74" y="-57.8" font-family="Times,serif" font-size="14.00">description</text>
</g>
<!-- source -->
<g id="node9" class="node">
<title>source</title>
<ellipse fill="none" stroke="blue" cx="1077.24" cy="-18" rx="56.59" ry="18"/>
<text text-anchor="middle" x="1077.24" y="-14.3" font-family="Times,serif" font-size="14.00">label type</text>
</g>
<!-- error or observable feature&#45;&gt;source -->
<g id="edge8" class="edge">
<title>error or observable feature&#45;&gt;source</title>
<path fill="none" stroke="blue" d="M916.37,-89.04C936.75,-83.57 959.2,-76.78 979.24,-69 1000.87,-60.6 1024.04,-48.92 1042.42,-38.95"/>
<polygon fill="blue" stroke="blue" points="1044.21,-41.96 1051.29,-34.07 1040.84,-35.83 1044.21,-41.96"/>
<text text-anchor="middle" x="1037.24" y="-57.8" font-family="Times,serif" font-size="14.00">source</text>
</g>
<!-- provided by -->
<g id="node10" class="node">
<title>provided by</title>
<ellipse fill="none" stroke="blue" cx="1189.24" cy="-18" rx="37.09" ry="18"/>
<text text-anchor="middle" x="1189.24" y="-14.3" font-family="Times,serif" font-size="14.00">agent</text>
</g>
<!-- error or observable feature&#45;&gt;provided by -->
<g id="edge9" class="edge">
<title>error or observable feature&#45;&gt;provided by</title>
<path fill="none" stroke="blue" d="M951.05,-92.39C987.34,-86.92 1028.52,-79.28 1065.24,-69 1096.22,-60.32 1130,-46.39 1154.47,-35.43"/>
<polygon fill="blue" stroke="blue" points="1156.04,-38.56 1163.69,-31.24 1153.14,-32.19 1156.04,-38.56"/>
<text text-anchor="middle" x="1149.74" y="-57.8" font-family="Times,serif" font-size="14.00">provided by</text>
</g>
<!-- has attribute -->
<g id="node11" class="node">
<title>has attribute</title>
<ellipse fill="none" stroke="blue" cx="1296.24" cy="-18" rx="51.99" ry="18"/>
<text text-anchor="middle" x="1296.24" y="-14.3" font-family="Times,serif" font-size="14.00">attribute</text>
</g>
<!-- error or observable feature&#45;&gt;has attribute -->
<g id="edge10" class="edge">
<title>error or observable feature&#45;&gt;has attribute</title>
<path fill="none" stroke="blue" d="M949.98,-92.27C966.09,-90.44 982.63,-88.62 998.24,-87 1086.13,-77.89 1111.25,-93.18 1196.24,-69 1219.83,-62.29 1244.48,-50.03 1263.41,-39.33"/>
<polygon fill="blue" stroke="blue" points="1265.32,-42.27 1272.22,-34.23 1261.81,-36.21 1265.32,-42.27"/>
<text text-anchor="middle" x="1281.24" y="-57.8" font-family="Times,serif" font-size="14.00">has attribute</text>
</g>
<!-- category -->
<g id="node12" class="node">
<title>category</title>
<ellipse fill="none" stroke="black" cx="1417.24" cy="-18" rx="51.19" ry="18"/>
<text text-anchor="middle" x="1417.24" y="-14.3" font-family="Times,serif" font-size="14.00">category</text>
</g>
<!-- error or observable feature&#45;&gt;category -->
<g id="edge11" class="edge">
<title>error or observable feature&#45;&gt;category</title>
<path fill="none" stroke="blue" d="M947.97,-91.99C964.71,-90.14 981.97,-88.38 998.24,-87 1072.3,-80.7 1261.07,-90.45 1332.24,-69 1352.43,-62.91 1372.87,-51.11 1388.65,-40.49"/>
<polygon fill="blue" stroke="blue" points="1390.68,-43.34 1396.9,-34.77 1386.69,-37.59 1390.68,-43.34"/>
<text text-anchor="middle" x="1396.74" y="-57.8" font-family="Times,serif" font-size="14.00">category</text>
</g>
<!-- in taxon -->
<g id="node14" class="node">
<title>in taxon</title>
<ellipse fill="none" stroke="blue" cx="1559.24" cy="-18" rx="72.59" ry="18"/>
<text text-anchor="middle" x="1559.24" y="-14.3" font-family="Times,serif" font-size="14.00">system taxon</text>
</g>
<!-- error or observable feature&#45;&gt;in taxon -->
<g id="edge12" class="edge">
<title>error or observable feature&#45;&gt;in taxon</title>
<path fill="none" stroke="blue" d="M947.17,-91.91C964.15,-90.04 981.7,-88.3 998.24,-87 1094.47,-79.41 1337.8,-88.96 1432.24,-69 1462.43,-62.62 1494.77,-49.79 1519.25,-38.73"/>
<polygon fill="blue" stroke="blue" points="1520.95,-41.8 1528.57,-34.44 1518.02,-35.45 1520.95,-41.8"/>
<text text-anchor="middle" x="1507.24" y="-57.8" font-family="Times,serif" font-size="14.00">in taxon</text>
</g>
<!-- named thing_category -->
<g id="node13" class="node">
<title>named thing_category</title>
<ellipse fill="none" stroke="blue" cx="1077.24" cy="-105" rx="69.59" ry="18"/>
<text text-anchor="middle" x="1077.24" y="-101.3" font-family="Times,serif" font-size="14.00">named thing</text>
</g>
</g>
</svg>
