<?xml version="1.0" encoding="UTF-8" standalone="no"?>
<!DOCTYPE svg PUBLIC "-//W3C//DTD SVG 1.1//EN"
 "http://www.w3.org/Graphics/SVG/1.1/DTD/svg11.dtd">
<!-- Generated by graphviz version 2.43.0 (0)
 -->
<!-- Title: %3 Pages: 1 -->
<svg width="1628pt" height="131pt"
 viewBox="0.00 0.00 1627.58 131.00" xmlns="http://www.w3.org/2000/svg" xmlns:xlink="http://www.w3.org/1999/xlink">
<g id="graph0" class="graph" transform="scale(1 1) rotate(0) translate(4 127)">
<title>%3</title>
<polygon fill="white" stroke="transparent" points="-4,4 -4,-127 1623.58,-127 1623.58,4 -4,4"/>
<!-- error or observable feature outcome -->
<g id="node1" class="node">
<title>error or observable feature outcome</title>
<ellipse fill="none" stroke="black" cx="839.79" cy="-105" rx="180.07" ry="18"/>
<text text-anchor="middle" x="839.79" y="-101.3" font-family="Times,serif" font-size="14.00">error or observable feature outcome</text>
</g>
<!-- error or observable feature -->
<g id="node2" class="node">
<title>error or observable feature</title>
<ellipse fill="none" stroke="black" cx="137.79" cy="-18" rx="137.58" ry="18"/>
<text text-anchor="middle" x="137.79" y="-14.3" font-family="Times,serif" font-size="14.00">error or observable feature</text>
</g>
<!-- error or observable feature outcome&#45;&gt;error or observable feature -->
<g id="edge1" class="edge">
<title>error or observable feature outcome&#45;&gt;error or observable feature</title>
<path fill="none" stroke="black" d="M695.41,-94.24C618.47,-88.34 522.31,-79.85 436.79,-69 364.23,-59.8 282.35,-45.85 222.64,-35.03"/>
<polygon fill="black" stroke="black" points="222.97,-31.53 212.5,-33.18 221.71,-38.42 222.97,-31.53"/>
<text text-anchor="middle" x="450.79" y="-57.8" font-family="Times,serif" font-size="14.00">is_a</text>
</g>
<!-- outcome -->
<g id="node3" class="node">
<title>outcome</title>
<ellipse fill="none" stroke="black" cx="343.79" cy="-18" rx="50.09" ry="18"/>
<text text-anchor="middle" x="343.79" y="-14.3" font-family="Times,serif" font-size="14.00">outcome</text>
</g>
<!-- error or observable feature outcome&#45;&gt;outcome -->
<g id="edge2" class="edge">
<title>error or observable feature outcome&#45;&gt;outcome</title>
<path fill="none" stroke="black" d="M708.25,-92.7C654.27,-87.08 591.29,-79.26 534.79,-69 475.29,-58.2 461.18,-51.71 402.79,-36 398.96,-34.97 395,-33.88 391.02,-32.77"/>
<polygon fill="black" stroke="black" points="391.76,-29.34 381.19,-29.99 389.86,-36.08 391.76,-29.34"/>
<text text-anchor="middle" x="551.29" y="-57.8" font-family="Times,serif" font-size="14.00">uses</text>
</g>
<!-- id -->
<g id="node4" class="node">
<title>id</title>
<ellipse fill="none" stroke="blue" cx="449.79" cy="-18" rx="38.19" ry="18"/>
<text text-anchor="middle" x="449.79" y="-14.3" font-family="Times,serif" font-size="14.00">string</text>
</g>
<!-- error or observable feature outcome&#45;&gt;id -->
<g id="edge3" class="edge">
<title>error or observable feature outcome&#45;&gt;id</title>
<path fill="none" stroke="blue" d="M745.9,-89.61C676.63,-77.97 580.44,-59.63 497.79,-36 494.69,-35.11 491.49,-34.13 488.3,-33.11"/>
<polygon fill="blue" stroke="blue" points="489.39,-29.78 478.79,-29.92 487.16,-36.42 489.39,-29.78"/>
<text text-anchor="middle" x="635.79" y="-57.8" font-family="Times,serif" font-size="14.00">id</text>
</g>
<!-- iri -->
<g id="node5" class="node">
<title>iri</title>
<ellipse fill="none" stroke="blue" cx="550.79" cy="-18" rx="44.39" ry="18"/>
<text text-anchor="middle" x="550.79" y="-14.3" font-family="Times,serif" font-size="14.00">iri type</text>
</g>
<!-- error or observable feature outcome&#45;&gt;iri -->
<g id="edge4" class="edge">
<title>error or observable feature outcome&#45;&gt;iri</title>
<path fill="none" stroke="blue" d="M781.53,-87.93C760.48,-82.06 736.54,-75.31 714.79,-69 665.77,-54.78 653.58,-51 604.79,-36 601.29,-34.93 597.68,-33.81 594.04,-32.67"/>
<polygon fill="blue" stroke="blue" points="595.06,-29.32 584.47,-29.68 592.97,-36.01 595.06,-29.32"/>
<text text-anchor="middle" x="722.79" y="-57.8" font-family="Times,serif" font-size="14.00">iri</text>
</g>
<!-- type -->
<g id="node6" class="node">
<title>type</title>
<ellipse fill="none" stroke="blue" cx="651.79" cy="-18" rx="38.19" ry="18"/>
<text text-anchor="middle" x="651.79" y="-14.3" font-family="Times,serif" font-size="14.00">string</text>
</g>
<!-- error or observable feature outcome&#45;&gt;type -->
<g id="edge5" class="edge">
<title>error or observable feature outcome&#45;&gt;type</title>
<path fill="none" stroke="blue" d="M802.65,-87.21C769.34,-72.15 720.77,-50.19 687.81,-35.29"/>
<polygon fill="blue" stroke="blue" points="689.09,-32.02 678.53,-31.09 686.2,-38.4 689.09,-32.02"/>
<text text-anchor="middle" x="773.79" y="-57.8" font-family="Times,serif" font-size="14.00">type</text>
</g>
<!-- name -->
<g id="node7" class="node">
<title>name</title>
<ellipse fill="none" stroke="blue" cx="764.79" cy="-18" rx="56.59" ry="18"/>
<text text-anchor="middle" x="764.79" y="-14.3" font-family="Times,serif" font-size="14.00">label type</text>
</g>
<!-- error or observable feature outcome&#45;&gt;name -->
<g id="edge6" class="edge">
<title>error or observable feature outcome&#45;&gt;name</title>
<path fill="none" stroke="blue" d="M824.61,-86.8C813.59,-74.31 798.53,-57.24 786.27,-43.35"/>
<polygon fill="blue" stroke="blue" points="788.67,-40.78 779.43,-35.6 783.42,-45.41 788.67,-40.78"/>
<text text-anchor="middle" x="826.79" y="-57.8" font-family="Times,serif" font-size="14.00">name</text>
</g>
<!-- description -->
<g id="node8" class="node">
<title>description</title>
<ellipse fill="none" stroke="blue" cx="914.79" cy="-18" rx="75.29" ry="18"/>
<text text-anchor="middle" x="914.79" y="-14.3" font-family="Times,serif" font-size="14.00">narrative text</text>
</g>
<!-- error or observable feature outcome&#45;&gt;description -->
<g id="edge7" class="edge">
<title>error or observable feature outcome&#45;&gt;description</title>
<path fill="none" stroke="blue" d="M854.97,-86.8C865.91,-74.39 880.85,-57.46 893.07,-43.62"/>
<polygon fill="blue" stroke="blue" points="895.9,-45.7 899.89,-35.89 890.65,-41.07 895.9,-45.7"/>
<text text-anchor="middle" x="922.29" y="-57.8" font-family="Times,serif" font-size="14.00">description</text>
</g>
<!-- source -->
<g id="node9" class="node">
<title>source</title>
<ellipse fill="none" stroke="blue" cx="1064.79" cy="-18" rx="56.59" ry="18"/>
<text text-anchor="middle" x="1064.79" y="-14.3" font-family="Times,serif" font-size="14.00">label type</text>
</g>
<!-- error or observable feature outcome&#45;&gt;source -->
<g id="edge8" class="edge">
<title>error or observable feature outcome&#45;&gt;source</title>
<path fill="none" stroke="blue" d="M906.86,-88.24C926.44,-82.91 947.71,-76.41 966.79,-69 988.42,-60.6 1011.59,-48.92 1029.96,-38.95"/>
<polygon fill="blue" stroke="blue" points="1031.76,-41.96 1038.84,-34.07 1028.39,-35.83 1031.76,-41.96"/>
<text text-anchor="middle" x="1024.79" y="-57.8" font-family="Times,serif" font-size="14.00">source</text>
</g>
<!-- provided by -->
<g id="node10" class="node">
<title>provided by</title>
<ellipse fill="none" stroke="blue" cx="1176.79" cy="-18" rx="37.09" ry="18"/>
<text text-anchor="middle" x="1176.79" y="-14.3" font-family="Times,serif" font-size="14.00">agent</text>
</g>
<!-- error or observable feature outcome&#45;&gt;provided by -->
<g id="edge9" class="edge">
<title>error or observable feature outcome&#45;&gt;provided by</title>
<path fill="none" stroke="blue" d="M949.43,-90.72C982.94,-85.39 1019.68,-78.27 1052.79,-69 1083.77,-60.32 1117.55,-46.39 1142.02,-35.43"/>
<polygon fill="blue" stroke="blue" points="1143.58,-38.56 1151.24,-31.24 1140.69,-32.19 1143.58,-38.56"/>
<text text-anchor="middle" x="1137.29" y="-57.8" font-family="Times,serif" font-size="14.00">provided by</text>
</g>
<!-- has attribute -->
<g id="node11" class="node">
<title>has attribute</title>
<ellipse fill="none" stroke="blue" cx="1283.79" cy="-18" rx="51.99" ry="18"/>
<text text-anchor="middle" x="1283.79" y="-14.3" font-family="Times,serif" font-size="14.00">attribute</text>
</g>
<!-- error or observable feature outcome&#45;&gt;has attribute -->
<g id="edge10" class="edge">
<title>error or observable feature outcome&#45;&gt;has attribute</title>
<path fill="none" stroke="blue" d="M966.58,-92.18C1060.2,-83.27 1173.14,-72.09 1183.79,-69 1207.34,-62.16 1232,-49.9 1250.93,-39.23"/>
<polygon fill="blue" stroke="blue" points="1252.83,-42.18 1259.74,-34.15 1249.33,-36.11 1252.83,-42.18"/>
<text text-anchor="middle" x="1268.79" y="-57.8" font-family="Times,serif" font-size="14.00">has attribute</text>
</g>
<!-- category -->
<g id="node12" class="node">
<title>category</title>
<ellipse fill="none" stroke="black" cx="1404.79" cy="-18" rx="51.19" ry="18"/>
<text text-anchor="middle" x="1404.79" y="-14.3" font-family="Times,serif" font-size="14.00">category</text>
</g>
<!-- error or observable feature outcome&#45;&gt;category -->
<g id="edge11" class="edge">
<title>error or observable feature outcome&#45;&gt;category</title>
<path fill="none" stroke="blue" d="M966.06,-92.15C987.01,-90.33 1008.5,-88.54 1028.79,-87 1093.39,-82.1 1257.83,-87.95 1319.79,-69 1339.96,-62.83 1360.4,-51.02 1376.18,-40.43"/>
<polygon fill="blue" stroke="blue" points="1378.2,-43.28 1384.43,-34.71 1374.22,-37.53 1378.2,-43.28"/>
<text text-anchor="middle" x="1384.29" y="-57.8" font-family="Times,serif" font-size="14.00">category</text>
</g>
<!-- in taxon -->
<g id="node14" class="node">
<title>in taxon</title>
<ellipse fill="none" stroke="blue" cx="1546.79" cy="-18" rx="72.59" ry="18"/>
<text text-anchor="middle" x="1546.79" y="-14.3" font-family="Times,serif" font-size="14.00">system taxon</text>
</g>
<!-- error or observable feature outcome&#45;&gt;in taxon -->
<g id="edge12" class="edge">
<title>error or observable feature outcome&#45;&gt;in taxon</title>
<path fill="none" stroke="blue" d="M964.52,-92C985.94,-90.17 1008,-88.41 1028.79,-87 1115.57,-81.1 1334.73,-87.18 1419.79,-69 1449.96,-62.55 1482.3,-49.73 1506.79,-38.68"/>
<polygon fill="blue" stroke="blue" points="1508.48,-41.75 1516.11,-34.4 1505.56,-35.4 1508.48,-41.75"/>
<text text-anchor="middle" x="1494.79" y="-57.8" font-family="Times,serif" font-size="14.00">in taxon</text>
</g>
<!-- named thing_category -->
<g id="node13" class="node">
<title>named thing_category</title>
<ellipse fill="none" stroke="blue" cx="1107.79" cy="-105" rx="69.59" ry="18"/>
<text text-anchor="middle" x="1107.79" y="-101.3" font-family="Times,serif" font-size="14.00">named thing</text>
</g>
</g>
</svg>
