<?xml version="1.0" encoding="UTF-8" standalone="no"?>
<!DOCTYPE svg PUBLIC "-//W3C//DTD SVG 1.1//EN"
 "http://www.w3.org/Graphics/SVG/1.1/DTD/svg11.dtd">
<!-- Generated by graphviz version 2.43.0 (0)
 -->
<!-- Title: %3 Pages: 1 -->
<svg width="2831pt" height="291pt"
 viewBox="0.00 0.00 2830.74 291.00" xmlns="http://www.w3.org/2000/svg" xmlns:xlink="http://www.w3.org/1999/xlink">
<g id="graph0" class="graph" transform="scale(1 1) rotate(0) translate(4 287)">
<title>%3</title>
<polygon fill="white" stroke="transparent" points="-4,4 -4,-287 2826.74,-287 2826.74,4 -4,4"/>
<!-- error to exposure event association -->
<g id="node1" class="node">
<title>error to exposure event association</title>
<ellipse fill="none" stroke="black" cx="1694.39" cy="-265" rx="175.47" ry="18"/>
<text text-anchor="middle" x="1694.39" y="-261.3" font-family="Times,serif" font-size="14.00">error to exposure event association</text>
</g>
<!-- association -->
<g id="node2" class="node">
<title>association</title>
<ellipse fill="none" stroke="black" cx="62.39" cy="-178" rx="62.29" ry="18"/>
<text text-anchor="middle" x="62.39" y="-174.3" font-family="Times,serif" font-size="14.00">association</text>
</g>
<!-- error to exposure event association&#45;&gt;association -->
<g id="edge1" class="edge">
<title>error to exposure event association&#45;&gt;association</title>
<path fill="none" stroke="black" d="M1525.5,-260C1317.8,-254.71 954.53,-244.24 643.39,-229 416.53,-217.89 357.99,-229.9 133.39,-196 127.91,-195.17 122.23,-194.13 116.57,-192.97"/>
<polygon fill="black" stroke="black" points="116.99,-189.48 106.48,-190.78 115.51,-196.32 116.99,-189.48"/>
<text text-anchor="middle" x="657.39" y="-217.8" font-family="Times,serif" font-size="14.00">is_a</text>
</g>
<!-- error to entity association mixin -->
<g id="node3" class="node">
<title>error to entity association mixin</title>
<ellipse fill="none" stroke="black" cx="303.39" cy="-178" rx="160.57" ry="18"/>
<text text-anchor="middle" x="303.39" y="-174.3" font-family="Times,serif" font-size="14.00">error to entity association mixin</text>
</g>
<!-- error to exposure event association&#45;&gt;error to entity association mixin -->
<g id="edge2" class="edge">
<title>error to exposure event association&#45;&gt;error to entity association mixin</title>
<path fill="none" stroke="black" d="M1529.6,-258.81C1364.52,-253.18 1103.22,-243.06 877.39,-229 697.59,-217.81 652.81,-212.3 473.39,-196 458.61,-194.66 443.12,-193.19 427.75,-191.7"/>
<polygon fill="black" stroke="black" points="427.97,-188.2 417.67,-190.72 427.29,-195.17 427.97,-188.2"/>
<text text-anchor="middle" x="893.89" y="-217.8" font-family="Times,serif" font-size="14.00">uses</text>
</g>
<!-- entity to exposure event association mixin -->
<g id="node4" class="node">
<title>entity to exposure event association mixin</title>
<ellipse fill="none" stroke="black" cx="690.39" cy="-178" rx="207.96" ry="18"/>
<text text-anchor="middle" x="690.39" y="-174.3" font-family="Times,serif" font-size="14.00">entity to exposure event association mixin</text>
</g>
<!-- error to exposure event association&#45;&gt;entity to exposure event association mixin -->
<g id="edge3" class="edge">
<title>error to exposure event association&#45;&gt;entity to exposure event association mixin</title>
<path fill="none" stroke="black" d="M1527.94,-259.23C1395.15,-254.43 1204.54,-245.33 1038.39,-229 954.59,-220.76 860.04,-206.88 790.67,-195.83"/>
<polygon fill="black" stroke="black" points="791.05,-192.35 780.62,-194.22 789.94,-199.26 791.05,-192.35"/>
<text text-anchor="middle" x="1054.89" y="-217.8" font-family="Times,serif" font-size="14.00">uses</text>
</g>
<!-- id -->
<g id="node5" class="node">
<title>id</title>
<ellipse fill="none" stroke="blue" cx="954.39" cy="-178" rx="38.19" ry="18"/>
<text text-anchor="middle" x="954.39" y="-174.3" font-family="Times,serif" font-size="14.00">string</text>
</g>
<!-- error to exposure event association&#45;&gt;id -->
<g id="edge4" class="edge">
<title>error to exposure event association&#45;&gt;id</title>
<path fill="none" stroke="blue" d="M1529.71,-258.77C1425.03,-254.05 1286.84,-245.24 1165.39,-229 1092.13,-219.2 1073.63,-215.72 1002.39,-196 999.28,-195.14 996.09,-194.18 992.89,-193.16"/>
<polygon fill="blue" stroke="blue" points="993.97,-189.83 983.38,-190 991.76,-196.48 993.97,-189.83"/>
<text text-anchor="middle" x="1172.39" y="-217.8" font-family="Times,serif" font-size="14.00">id</text>
</g>
<!-- iri -->
<g id="node6" class="node">
<title>iri</title>
<ellipse fill="none" stroke="blue" cx="1055.39" cy="-178" rx="44.39" ry="18"/>
<text text-anchor="middle" x="1055.39" y="-174.3" font-family="Times,serif" font-size="14.00">iri type</text>
</g>
<!-- error to exposure event association&#45;&gt;iri -->
<g id="edge5" class="edge">
<title>error to exposure event association&#45;&gt;iri</title>
<path fill="none" stroke="blue" d="M1542.08,-255.99C1460.61,-250.57 1358.74,-241.98 1268.39,-229 1196.52,-218.67 1178.62,-214.45 1108.39,-196 1105.02,-195.11 1101.55,-194.14 1098.06,-193.12"/>
<polygon fill="blue" stroke="blue" points="1098.9,-189.72 1088.31,-190.16 1096.87,-196.41 1098.9,-189.72"/>
<text text-anchor="middle" x="1276.39" y="-217.8" font-family="Times,serif" font-size="14.00">iri</text>
</g>
<!-- name -->
<g id="node7" class="node">
<title>name</title>
<ellipse fill="none" stroke="blue" cx="1174.39" cy="-178" rx="56.59" ry="18"/>
<text text-anchor="middle" x="1174.39" y="-174.3" font-family="Times,serif" font-size="14.00">label type</text>
</g>
<!-- error to exposure event association&#45;&gt;name -->
<g id="edge6" class="edge">
<title>error to exposure event association&#45;&gt;name</title>
<path fill="none" stroke="blue" d="M1549.23,-254.8C1487.84,-249.46 1415.78,-241.28 1351.39,-229 1306.67,-220.47 1256.85,-205.93 1221.49,-194.72"/>
<polygon fill="blue" stroke="blue" points="1222.51,-191.37 1211.92,-191.65 1220.38,-198.04 1222.51,-191.37"/>
<text text-anchor="middle" x="1371.39" y="-217.8" font-family="Times,serif" font-size="14.00">name</text>
</g>
<!-- description -->
<g id="node8" class="node">
<title>description</title>
<ellipse fill="none" stroke="blue" cx="1324.39" cy="-178" rx="75.29" ry="18"/>
<text text-anchor="middle" x="1324.39" y="-174.3" font-family="Times,serif" font-size="14.00">narrative text</text>
</g>
<!-- error to exposure event association&#45;&gt;description -->
<g id="edge7" class="edge">
<title>error to exposure event association&#45;&gt;description</title>
<path fill="none" stroke="blue" d="M1560.45,-253.37C1519.78,-248.15 1475.31,-240.42 1435.39,-229 1410.2,-221.79 1383.36,-209.83 1362.39,-199.42"/>
<polygon fill="blue" stroke="blue" points="1363.7,-196.16 1353.2,-194.76 1360.54,-202.4 1363.7,-196.16"/>
<text text-anchor="middle" x="1475.89" y="-217.8" font-family="Times,serif" font-size="14.00">description</text>
</g>
<!-- source -->
<g id="node9" class="node">
<title>source</title>
<ellipse fill="none" stroke="blue" cx="1474.39" cy="-178" rx="56.59" ry="18"/>
<text text-anchor="middle" x="1474.39" y="-174.3" font-family="Times,serif" font-size="14.00">label type</text>
</g>
<!-- error to exposure event association&#45;&gt;source -->
<g id="edge8" class="edge">
<title>error to exposure event association&#45;&gt;source</title>
<path fill="none" stroke="blue" d="M1606.04,-249.43C1585.3,-244.37 1563.64,-237.71 1544.39,-229 1528.92,-222 1513.37,-211.35 1500.88,-201.67"/>
<polygon fill="blue" stroke="blue" points="1502.75,-198.69 1492.75,-195.19 1498.38,-204.16 1502.75,-198.69"/>
<text text-anchor="middle" x="1568.39" y="-217.8" font-family="Times,serif" font-size="14.00">source</text>
</g>
<!-- provided by -->
<g id="node10" class="node">
<title>provided by</title>
<ellipse fill="none" stroke="blue" cx="1586.39" cy="-178" rx="37.09" ry="18"/>
<text text-anchor="middle" x="1586.39" y="-174.3" font-family="Times,serif" font-size="14.00">agent</text>
</g>
<!-- error to exposure event association&#45;&gt;provided by -->
<g id="edge9" class="edge">
<title>error to exposure event association&#45;&gt;provided by</title>
<path fill="none" stroke="blue" d="M1633.74,-248.09C1623.33,-243.26 1613.33,-237.03 1605.39,-229 1599.18,-222.71 1594.95,-214.18 1592.1,-205.94"/>
<polygon fill="blue" stroke="blue" points="1595.43,-204.83 1589.27,-196.21 1588.71,-206.79 1595.43,-204.83"/>
<text text-anchor="middle" x="1647.89" y="-217.8" font-family="Times,serif" font-size="14.00">provided by</text>
</g>
<!-- has attribute -->
<g id="node11" class="node">
<title>has attribute</title>
<ellipse fill="none" stroke="blue" cx="1693.39" cy="-178" rx="51.99" ry="18"/>
<text text-anchor="middle" x="1693.39" y="-174.3" font-family="Times,serif" font-size="14.00">attribute</text>
</g>
<!-- error to exposure event association&#45;&gt;has attribute -->
<g id="edge10" class="edge">
<title>error to exposure event association&#45;&gt;has attribute</title>
<path fill="none" stroke="blue" d="M1694.19,-246.8C1694.06,-235.16 1693.87,-219.55 1693.71,-206.24"/>
<polygon fill="blue" stroke="blue" points="1697.21,-206.13 1693.6,-196.18 1690.21,-206.22 1697.21,-206.13"/>
<text text-anchor="middle" x="1741.39" y="-217.8" font-family="Times,serif" font-size="14.00">has attribute</text>
</g>
<!-- subject -->
<g id="node12" class="node">
<title>subject</title>
<ellipse fill="none" stroke="blue" cx="1833.39" cy="-178" rx="69.59" ry="18"/>
<text text-anchor="middle" x="1833.39" y="-174.3" font-family="Times,serif" font-size="14.00">named thing</text>
</g>
<!-- error to exposure event association&#45;&gt;subject -->
<g id="edge11" class="edge">
<title>error to exposure event association&#45;&gt;subject</title>
<path fill="none" stroke="blue" d="M1755.22,-248.05C1768.14,-243.12 1781.24,-236.85 1792.39,-229 1801.85,-222.34 1810.34,-212.94 1817.11,-204.08"/>
<polygon fill="blue" stroke="blue" points="1820.02,-206.02 1823.04,-195.87 1814.35,-201.92 1820.02,-206.02"/>
<text text-anchor="middle" x="1834.39" y="-217.8" font-family="Times,serif" font-size="14.00">subject</text>
</g>
<!-- predicate -->
<g id="node13" class="node">
<title>predicate</title>
<ellipse fill="none" stroke="blue" cx="1999.39" cy="-178" rx="77.99" ry="18"/>
<text text-anchor="middle" x="1999.39" y="-174.3" font-family="Times,serif" font-size="14.00">predicate type</text>
</g>
<!-- error to exposure event association&#45;&gt;predicate -->
<g id="edge12" class="edge">
<title>error to exposure event association&#45;&gt;predicate</title>
<path fill="none" stroke="blue" d="M1779.32,-249.15C1806.69,-243.66 1837.02,-236.84 1864.39,-229 1894.76,-220.31 1928.03,-208.01 1953.95,-197.79"/>
<polygon fill="blue" stroke="blue" points="1955.51,-200.94 1963.51,-193.99 1952.92,-194.44 1955.51,-200.94"/>
<text text-anchor="middle" x="1944.39" y="-217.8" font-family="Times,serif" font-size="14.00">predicate</text>
</g>
<!-- object -->
<g id="node14" class="node">
<title>object</title>
<ellipse fill="none" stroke="blue" cx="2048.39" cy="-91" rx="69.59" ry="18"/>
<text text-anchor="middle" x="2048.39" y="-87.3" font-family="Times,serif" font-size="14.00">named thing</text>
</g>
<!-- error to exposure event association&#45;&gt;object -->
<g id="edge13" class="edge">
<title>error to exposure event association&#45;&gt;object</title>
<path fill="none" stroke="blue" d="M1826.8,-253.13C1876,-247.73 1932.07,-239.94 1982.39,-229 2029.78,-218.7 2057.76,-235.13 2086.39,-196 2103.91,-172.07 2086.51,-139.2 2069.92,-116.87"/>
<polygon fill="blue" stroke="blue" points="2072.58,-114.6 2063.67,-108.87 2067.07,-118.9 2072.58,-114.6"/>
<text text-anchor="middle" x="2116.39" y="-174.3" font-family="Times,serif" font-size="14.00">object</text>
</g>
<!-- relation -->
<g id="node15" class="node">
<title>relation</title>
<ellipse fill="none" stroke="blue" cx="2048.39" cy="-18" rx="57.39" ry="18"/>
<text text-anchor="middle" x="2048.39" y="-14.3" font-family="Times,serif" font-size="14.00">uriorcurie</text>
</g>
<!-- error to exposure event association&#45;&gt;relation -->
<g id="edge14" class="edge">
<title>error to exposure event association&#45;&gt;relation</title>
<path fill="none" stroke="blue" d="M1820.68,-252.48C1910.19,-244.09 2018.03,-233.45 2039.39,-229 2086.45,-219.19 2114.06,-234.83 2142.39,-196 2158.77,-173.56 2144.83,-100.14 2127.39,-73 2118.03,-58.41 2103.17,-46.75 2088.86,-38.04"/>
<polygon fill="blue" stroke="blue" points="2090.48,-34.94 2080.07,-33.01 2087,-41.02 2090.48,-34.94"/>
<text text-anchor="middle" x="2176.39" y="-130.8" font-family="Times,serif" font-size="14.00">relation</text>
</g>
<!-- negated -->
<g id="node16" class="node">
<title>negated</title>
<ellipse fill="none" stroke="blue" cx="2260.39" cy="-178" rx="46.59" ry="18"/>
<text text-anchor="middle" x="2260.39" y="-174.3" font-family="Times,serif" font-size="14.00">boolean</text>
</g>
<!-- error to exposure event association&#45;&gt;negated -->
<g id="edge15" class="edge">
<title>error to exposure event association&#45;&gt;negated</title>
<path fill="none" stroke="blue" d="M1817.24,-252.1C1837.98,-250.26 1859.29,-248.49 1879.39,-247 1950.42,-241.74 2133.03,-254.85 2199.39,-229 2214.18,-223.24 2228.08,-212.45 2238.86,-202.37"/>
<polygon fill="blue" stroke="blue" points="2241.45,-204.73 2246.13,-195.23 2236.55,-199.74 2241.45,-204.73"/>
<text text-anchor="middle" x="2253.39" y="-217.8" font-family="Times,serif" font-size="14.00">negated</text>
</g>
<!-- qualifiers -->
<g id="node17" class="node">
<title>qualifiers</title>
<ellipse fill="none" stroke="blue" cx="2401.39" cy="-178" rx="76.89" ry="18"/>
<text text-anchor="middle" x="2401.39" y="-174.3" font-family="Times,serif" font-size="14.00">ontology class</text>
</g>
<!-- error to exposure event association&#45;&gt;qualifiers -->
<g id="edge16" class="edge">
<title>error to exposure event association&#45;&gt;qualifiers</title>
<path fill="none" stroke="blue" d="M1816.23,-251.98C1837.28,-250.14 1858.96,-248.39 1879.39,-247 1969.72,-240.86 2198.19,-249.39 2286.39,-229 2313.49,-222.74 2342.18,-210.27 2364.13,-199.36"/>
<polygon fill="blue" stroke="blue" points="2365.77,-202.45 2373.1,-194.8 2362.6,-196.21 2365.77,-202.45"/>
<text text-anchor="middle" x="2362.89" y="-217.8" font-family="Times,serif" font-size="14.00">qualifiers</text>
</g>
<!-- publications -->
<g id="node18" class="node">
<title>publications</title>
<ellipse fill="none" stroke="blue" cx="2558.39" cy="-178" rx="62.29" ry="18"/>
<text text-anchor="middle" x="2558.39" y="-174.3" font-family="Times,serif" font-size="14.00">publication</text>
</g>
<!-- error to exposure event association&#45;&gt;publications -->
<g id="edge17" class="edge">
<title>error to exposure event association&#45;&gt;publications</title>
<path fill="none" stroke="blue" d="M1815.23,-251.9C1836.59,-250.04 1858.63,-248.31 1879.39,-247 1995.01,-239.7 2286.23,-248.66 2400.39,-229 2439.67,-222.24 2482.7,-208.16 2513.92,-196.65"/>
<polygon fill="blue" stroke="blue" points="2515.48,-199.81 2523.62,-193.02 2513.03,-193.25 2515.48,-199.81"/>
<text text-anchor="middle" x="2502.39" y="-217.8" font-family="Times,serif" font-size="14.00">publications</text>
</g>
<!-- type -->
<g id="node19" class="node">
<title>type</title>
<ellipse fill="none" stroke="black" cx="2670.39" cy="-178" rx="31.4" ry="18"/>
<text text-anchor="middle" x="2670.39" y="-174.3" font-family="Times,serif" font-size="14.00">type</text>
</g>
<!-- error to exposure event association&#45;&gt;type -->
<g id="edge18" class="edge">
<title>error to exposure event association&#45;&gt;type</title>
<path fill="none" stroke="blue" d="M1814.23,-251.85C1835.9,-249.97 1858.31,-248.25 1879.39,-247 2028.3,-238.17 2404.53,-260.21 2550.39,-229 2582.01,-222.23 2615.82,-207.38 2639.47,-195.61"/>
<polygon fill="blue" stroke="blue" points="2641.31,-198.61 2648.63,-190.95 2638.13,-192.37 2641.31,-198.61"/>
<text text-anchor="middle" x="2614.39" y="-217.8" font-family="Times,serif" font-size="14.00">type</text>
</g>
<!-- category -->
<g id="node21" class="node">
<title>category</title>
<ellipse fill="none" stroke="black" cx="2771.39" cy="-178" rx="51.19" ry="18"/>
<text text-anchor="middle" x="2771.39" y="-174.3" font-family="Times,serif" font-size="14.00">category</text>
</g>
<!-- error to exposure event association&#45;&gt;category -->
<g id="edge19" class="edge">
<title>error to exposure event association&#45;&gt;category</title>
<path fill="none" stroke="blue" d="M1814.22,-251.79C1835.89,-249.93 1858.3,-248.22 1879.39,-247 2046.94,-237.32 2469.49,-260.18 2634.39,-229 2668.63,-222.53 2705.64,-208.57 2732.55,-197.04"/>
<polygon fill="blue" stroke="blue" points="2734.23,-200.13 2741.99,-192.92 2731.42,-193.71 2734.23,-200.13"/>
<text text-anchor="middle" x="2719.89" y="-217.8" font-family="Times,serif" font-size="14.00">category</text>
</g>
<!-- subject&#45;&gt;object -->
<g id="edge20" class="edge">
<title>subject&#45;&gt;object</title>
<path fill="none" stroke="black" d="M1869.87,-162.58C1906.39,-148.14 1962.72,-125.87 2002.31,-110.22"/>
<polygon fill="black" stroke="black" points="2003.73,-113.42 2011.74,-106.49 2001.16,-106.91 2003.73,-113.42"/>
<text text-anchor="middle" x="1982.39" y="-130.8" font-family="Times,serif" font-size="14.00">relation</text>
</g>
<!-- subject&#45;&gt;relation -->
<g id="edge21" class="edge">
<title>subject&#45;&gt;relation</title>
<path fill="none" stroke="black" stroke-dasharray="1,5" d="M1853.87,-160.8C1880.27,-140.04 1927.73,-103.14 1969.39,-73 1984.67,-61.95 2001.92,-50.09 2016.39,-40.31"/>
<polygon fill="black" stroke="black" points="2018.67,-43 2025.01,-34.51 2014.76,-37.19 2018.67,-43"/>
</g>
<!-- object&#45;&gt;relation -->
<g id="edge22" class="edge">
<title>object&#45;&gt;relation</title>
<path fill="none" stroke="black" stroke-dasharray="1,5" d="M2048.39,-72.81C2048.39,-64.79 2048.39,-55.05 2048.39,-46.07"/>
<polygon fill="black" stroke="black" points="2051.89,-46.03 2048.39,-36.03 2044.89,-46.03 2051.89,-46.03"/>
</g>
<!-- association_type -->
<g id="node20" class="node">
<title>association_type</title>
<ellipse fill="none" stroke="blue" cx="1926.39" cy="-265" rx="38.19" ry="18"/>
<text text-anchor="middle" x="1926.39" y="-261.3" font-family="Times,serif" font-size="14.00">string</text>
</g>
<!-- association_category -->
<g id="node22" class="node">
<title>association_category</title>
<ellipse fill="none" stroke="blue" cx="2045.39" cy="-265" rx="62.29" ry="18"/>
<text text-anchor="middle" x="2045.39" y="-261.3" font-family="Times,serif" font-size="14.00">association</text>
</g>
</g>
</svg>
