<?xml version="1.0" encoding="UTF-8" standalone="no"?>
<!DOCTYPE svg PUBLIC "-//W3C//DTD SVG 1.1//EN"
 "http://www.w3.org/Graphics/SVG/1.1/DTD/svg11.dtd">
<!-- Generated by graphviz version 2.43.0 (0)
 -->
<!-- Title: %3 Pages: 1 -->
<svg width="1820pt" height="131pt"
 viewBox="0.00 0.00 1820.03 131.00" xmlns="http://www.w3.org/2000/svg" xmlns:xlink="http://www.w3.org/1999/xlink">
<g id="graph0" class="graph" transform="scale(1 1) rotate(0) translate(4 127)">
<title>%3</title>
<polygon fill="white" stroke="transparent" points="-4,4 -4,-127 1816.03,-127 1816.03,4 -4,4"/>
<!-- error or observable feature exposure -->
<g id="node1" class="node">
<title>error or observable feature exposure</title>
<ellipse fill="none" stroke="black" cx="978.79" cy="-105" rx="182.77" ry="18"/>
<text text-anchor="middle" x="978.79" y="-101.3" font-family="Times,serif" font-size="14.00">error or observable feature exposure</text>
</g>
<!-- error or observable feature -->
<g id="node2" class="node">
<title>error or observable feature</title>
<ellipse fill="none" stroke="black" cx="137.79" cy="-18" rx="137.58" ry="18"/>
<text text-anchor="middle" x="137.79" y="-14.3" font-family="Times,serif" font-size="14.00">error or observable feature</text>
</g>
<!-- error or observable feature exposure&#45;&gt;error or observable feature -->
<g id="edge1" class="edge">
<title>error or observable feature exposure&#45;&gt;error or observable feature</title>
<path fill="none" stroke="black" d="M824.17,-95.37C729.5,-89.44 605.98,-80.56 496.79,-69 406.54,-59.45 304.04,-44.79 231.74,-33.81"/>
<polygon fill="black" stroke="black" points="232.15,-30.33 221.74,-32.29 231.1,-37.25 232.15,-30.33"/>
<text text-anchor="middle" x="510.79" y="-57.8" font-family="Times,serif" font-size="14.00">is_a</text>
</g>
<!-- exposure event -->
<g id="node3" class="node">
<title>exposure event</title>
<ellipse fill="none" stroke="black" cx="375.79" cy="-18" rx="81.79" ry="18"/>
<text text-anchor="middle" x="375.79" y="-14.3" font-family="Times,serif" font-size="14.00">exposure event</text>
</g>
<!-- error or observable feature exposure&#45;&gt;exposure event -->
<g id="edge2" class="edge">
<title>error or observable feature exposure&#45;&gt;exposure event</title>
<path fill="none" stroke="black" d="M830.89,-94.41C761.67,-88.84 678.25,-80.59 603.79,-69 546.71,-60.11 482.51,-45.62 436.81,-34.52"/>
<polygon fill="black" stroke="black" points="437.61,-31.11 427.06,-32.14 435.94,-37.91 437.61,-31.11"/>
<text text-anchor="middle" x="620.29" y="-57.8" font-family="Times,serif" font-size="14.00">uses</text>
</g>
<!-- id -->
<g id="node4" class="node">
<title>id</title>
<ellipse fill="none" stroke="blue" cx="513.79" cy="-18" rx="38.19" ry="18"/>
<text text-anchor="middle" x="513.79" y="-14.3" font-family="Times,serif" font-size="14.00">string</text>
</g>
<!-- error or observable feature exposure&#45;&gt;id -->
<g id="edge3" class="edge">
<title>error or observable feature exposure&#45;&gt;id</title>
<path fill="none" stroke="blue" d="M856.75,-91.54C772.76,-81.17 659.19,-63.56 561.79,-36 558.68,-35.12 555.49,-34.15 552.29,-33.12"/>
<polygon fill="blue" stroke="blue" points="553.38,-29.8 542.78,-29.95 551.16,-36.44 553.38,-29.8"/>
<text text-anchor="middle" x="704.79" y="-57.8" font-family="Times,serif" font-size="14.00">id</text>
</g>
<!-- iri -->
<g id="node5" class="node">
<title>iri</title>
<ellipse fill="none" stroke="blue" cx="614.79" cy="-18" rx="44.39" ry="18"/>
<text text-anchor="middle" x="614.79" y="-14.3" font-family="Times,serif" font-size="14.00">iri type</text>
</g>
<!-- error or observable feature exposure&#45;&gt;iri -->
<g id="edge4" class="edge">
<title>error or observable feature exposure&#45;&gt;iri</title>
<path fill="none" stroke="blue" d="M893.34,-89C862.22,-83.21 826.82,-76.23 794.79,-69 738.32,-56.25 724.41,-52.03 668.79,-36 665.28,-34.99 661.64,-33.91 658,-32.81"/>
<polygon fill="blue" stroke="blue" points="659,-29.45 648.41,-29.86 656.95,-36.15 659,-29.45"/>
<text text-anchor="middle" x="802.79" y="-57.8" font-family="Times,serif" font-size="14.00">iri</text>
</g>
<!-- type -->
<g id="node6" class="node">
<title>type</title>
<ellipse fill="none" stroke="blue" cx="715.79" cy="-18" rx="38.19" ry="18"/>
<text text-anchor="middle" x="715.79" y="-14.3" font-family="Times,serif" font-size="14.00">string</text>
</g>
<!-- error or observable feature exposure&#45;&gt;type -->
<g id="edge5" class="edge">
<title>error or observable feature exposure&#45;&gt;type</title>
<path fill="none" stroke="blue" d="M922.04,-87.84C902.29,-82.07 880.01,-75.41 859.79,-69 816.38,-55.24 805.76,-51.08 762.79,-36 760.1,-35.06 757.33,-34.08 754.54,-33.08"/>
<polygon fill="blue" stroke="blue" points="755.69,-29.78 745.09,-29.7 753.32,-36.37 755.69,-29.78"/>
<text text-anchor="middle" x="875.79" y="-57.8" font-family="Times,serif" font-size="14.00">type</text>
</g>
<!-- name -->
<g id="node7" class="node">
<title>name</title>
<ellipse fill="none" stroke="blue" cx="828.79" cy="-18" rx="56.59" ry="18"/>
<text text-anchor="middle" x="828.79" y="-14.3" font-family="Times,serif" font-size="14.00">label type</text>
</g>
<!-- error or observable feature exposure&#45;&gt;name -->
<g id="edge6" class="edge">
<title>error or observable feature exposure&#45;&gt;name</title>
<path fill="none" stroke="blue" d="M949.15,-87.21C924.71,-73.36 889.98,-53.67 864.1,-39.01"/>
<polygon fill="blue" stroke="blue" points="865.77,-35.93 855.35,-34.05 862.32,-42.02 865.77,-35.93"/>
<text text-anchor="middle" x="932.79" y="-57.8" font-family="Times,serif" font-size="14.00">name</text>
</g>
<!-- description -->
<g id="node8" class="node">
<title>description</title>
<ellipse fill="none" stroke="blue" cx="978.79" cy="-18" rx="75.29" ry="18"/>
<text text-anchor="middle" x="978.79" y="-14.3" font-family="Times,serif" font-size="14.00">narrative text</text>
</g>
<!-- error or observable feature exposure&#45;&gt;description -->
<g id="edge7" class="edge">
<title>error or observable feature exposure&#45;&gt;description</title>
<path fill="none" stroke="blue" d="M978.79,-86.8C978.79,-75.16 978.79,-59.55 978.79,-46.24"/>
<polygon fill="blue" stroke="blue" points="982.29,-46.18 978.79,-36.18 975.29,-46.18 982.29,-46.18"/>
<text text-anchor="middle" x="1019.29" y="-57.8" font-family="Times,serif" font-size="14.00">description</text>
</g>
<!-- source -->
<g id="node9" class="node">
<title>source</title>
<ellipse fill="none" stroke="blue" cx="1128.79" cy="-18" rx="56.59" ry="18"/>
<text text-anchor="middle" x="1128.79" y="-14.3" font-family="Times,serif" font-size="14.00">label type</text>
</g>
<!-- error or observable feature exposure&#45;&gt;source -->
<g id="edge8" class="edge">
<title>error or observable feature exposure&#45;&gt;source</title>
<path fill="none" stroke="blue" d="M1025.28,-87.45C1038.09,-82.2 1051.76,-75.94 1063.79,-69 1077.38,-61.16 1091.32,-50.8 1102.79,-41.54"/>
<polygon fill="blue" stroke="blue" points="1105.17,-44.11 1110.66,-35.05 1100.72,-38.71 1105.17,-44.11"/>
<text text-anchor="middle" x="1110.79" y="-57.8" font-family="Times,serif" font-size="14.00">source</text>
</g>
<!-- provided by -->
<g id="node10" class="node">
<title>provided by</title>
<ellipse fill="none" stroke="blue" cx="1240.79" cy="-18" rx="37.09" ry="18"/>
<text text-anchor="middle" x="1240.79" y="-14.3" font-family="Times,serif" font-size="14.00">agent</text>
</g>
<!-- error or observable feature exposure&#45;&gt;provided by -->
<g id="edge9" class="edge">
<title>error or observable feature exposure&#45;&gt;provided by</title>
<path fill="none" stroke="blue" d="M1064.96,-89.12C1089.17,-83.87 1115.3,-77.19 1138.79,-69 1163.06,-60.53 1189.06,-47.73 1208.74,-37.19"/>
<polygon fill="blue" stroke="blue" points="1210.46,-40.24 1217.58,-32.39 1207.12,-34.09 1210.46,-40.24"/>
<text text-anchor="middle" x="1216.29" y="-57.8" font-family="Times,serif" font-size="14.00">provided by</text>
</g>
<!-- has attribute -->
<g id="node11" class="node">
<title>has attribute</title>
<ellipse fill="none" stroke="blue" cx="1347.79" cy="-18" rx="51.99" ry="18"/>
<text text-anchor="middle" x="1347.79" y="-14.3" font-family="Times,serif" font-size="14.00">attribute</text>
</g>
<!-- error or observable feature exposure&#45;&gt;has attribute -->
<g id="edge10" class="edge">
<title>error or observable feature exposure&#45;&gt;has attribute</title>
<path fill="none" stroke="blue" d="M1112.82,-92.7C1172.26,-86.63 1234.97,-78.44 1262.79,-69 1282.44,-62.33 1302.54,-50.77 1318.25,-40.44"/>
<polygon fill="blue" stroke="blue" points="1320.64,-43.05 1326.96,-34.55 1316.72,-37.25 1320.64,-43.05"/>
<text text-anchor="middle" x="1341.79" y="-57.8" font-family="Times,serif" font-size="14.00">has attribute</text>
</g>
<!-- category -->
<g id="node12" class="node">
<title>category</title>
<ellipse fill="none" stroke="black" cx="1468.79" cy="-18" rx="51.19" ry="18"/>
<text text-anchor="middle" x="1468.79" y="-14.3" font-family="Times,serif" font-size="14.00">category</text>
</g>
<!-- error or observable feature exposure&#45;&gt;category -->
<g id="edge11" class="edge">
<title>error or observable feature exposure&#45;&gt;category</title>
<path fill="none" stroke="blue" d="M1108.49,-92.31C1128.99,-90.5 1149.97,-88.68 1169.79,-87 1219.33,-82.8 1345.77,-85.17 1392.79,-69 1410.72,-62.83 1428.55,-51.45 1442.43,-41.1"/>
<polygon fill="blue" stroke="blue" points="1444.75,-43.73 1450.53,-34.85 1440.47,-38.19 1444.75,-43.73"/>
<text text-anchor="middle" x="1454.29" y="-57.8" font-family="Times,serif" font-size="14.00">category</text>
</g>
<!-- in taxon -->
<g id="node14" class="node">
<title>in taxon</title>
<ellipse fill="none" stroke="blue" cx="1610.79" cy="-18" rx="72.59" ry="18"/>
<text text-anchor="middle" x="1610.79" y="-14.3" font-family="Times,serif" font-size="14.00">system taxon</text>
</g>
<!-- error or observable feature exposure&#45;&gt;in taxon -->
<g id="edge12" class="edge">
<title>error or observable feature exposure&#45;&gt;in taxon</title>
<path fill="none" stroke="blue" d="M1106.14,-92.08C1127.38,-90.26 1149.2,-88.49 1169.79,-87 1311.86,-76.68 1350.9,-100.65 1489.79,-69 1518.23,-62.52 1548.56,-49.97 1571.74,-39.07"/>
<polygon fill="blue" stroke="blue" points="1573.39,-42.16 1580.89,-34.68 1570.36,-35.85 1573.39,-42.16"/>
<text text-anchor="middle" x="1563.79" y="-57.8" font-family="Times,serif" font-size="14.00">in taxon</text>
</g>
<!-- timepoint -->
<g id="node15" class="node">
<title>timepoint</title>
<ellipse fill="none" stroke="blue" cx="1756.79" cy="-18" rx="55.49" ry="18"/>
<text text-anchor="middle" x="1756.79" y="-14.3" font-family="Times,serif" font-size="14.00">time type</text>
</g>
<!-- error or observable feature exposure&#45;&gt;timepoint -->
<g id="edge13" class="edge">
<title>error or observable feature exposure&#45;&gt;timepoint</title>
<path fill="none" stroke="blue" d="M1104.84,-91.94C1126.49,-90.11 1148.78,-88.38 1169.79,-87 1359.33,-74.58 1409.66,-101.6 1596.79,-69 1637.32,-61.94 1681.88,-47.43 1713.66,-35.85"/>
<polygon fill="blue" stroke="blue" points="1714.93,-39.11 1723.09,-32.36 1712.5,-32.55 1714.93,-39.11"/>
<text text-anchor="middle" x="1690.79" y="-57.8" font-family="Times,serif" font-size="14.00">timepoint</text>
</g>
<!-- named thing_category -->
<g id="node13" class="node">
<title>named thing_category</title>
<ellipse fill="none" stroke="blue" cx="1248.79" cy="-105" rx="69.59" ry="18"/>
<text text-anchor="middle" x="1248.79" y="-101.3" font-family="Times,serif" font-size="14.00">named thing</text>
</g>
</g>
</svg>
