<?xml version="1.0" encoding="UTF-8" standalone="no"?>
<!DOCTYPE svg PUBLIC "-//W3C//DTD SVG 1.1//EN"
 "http://www.w3.org/Graphics/SVG/1.1/DTD/svg11.dtd">
<!-- Generated by graphviz version 2.43.0 (0)
 -->
<!-- Title: %3 Pages: 1 -->
<svg width="3267pt" height="291pt"
 viewBox="0.00 0.00 3267.48 291.00" xmlns="http://www.w3.org/2000/svg" xmlns:xlink="http://www.w3.org/1999/xlink">
<g id="graph0" class="graph" transform="scale(1 1) rotate(0) translate(4 287)">
<title>%3</title>
<polygon fill="white" stroke="transparent" points="-4,4 -4,-287 3263.48,-287 3263.48,4 -4,4"/>
<!-- exposure event to observable feature association -->
<g id="node1" class="node">
<title>exposure event to observable feature association</title>
<ellipse fill="none" stroke="black" cx="1662.39" cy="-265" rx="239.36" ry="18"/>
<text text-anchor="middle" x="1662.39" y="-261.3" font-family="Times,serif" font-size="14.00">exposure event to observable feature association</text>
</g>
<!-- association -->
<g id="node2" class="node">
<title>association</title>
<ellipse fill="none" stroke="black" cx="62.39" cy="-178" rx="62.29" ry="18"/>
<text text-anchor="middle" x="62.39" y="-174.3" font-family="Times,serif" font-size="14.00">association</text>
</g>
<!-- exposure event to observable feature association&#45;&gt;association -->
<g id="edge1" class="edge">
<title>exposure event to observable feature association&#45;&gt;association</title>
<path fill="none" stroke="black" d="M1433.99,-259.64C1212.19,-254.72 866.04,-245.19 566.39,-229 373.67,-218.58 324.07,-225.9 133.39,-196 127.99,-195.15 122.4,-194.11 116.83,-192.96"/>
<polygon fill="black" stroke="black" points="117.39,-189.5 106.87,-190.79 115.9,-196.34 117.39,-189.5"/>
<text text-anchor="middle" x="580.39" y="-217.8" font-family="Times,serif" font-size="14.00">is_a</text>
</g>
<!-- entity to observable feature association mixin -->
<g id="node3" class="node">
<title>entity to observable feature association mixin</title>
<ellipse fill="none" stroke="black" cx="366.39" cy="-178" rx="223.66" ry="18"/>
<text text-anchor="middle" x="366.39" y="-174.3" font-family="Times,serif" font-size="14.00">entity to observable feature association mixin</text>
</g>
<!-- exposure event to observable feature association&#45;&gt;entity to observable feature association mixin -->
<g id="edge2" class="edge">
<title>exposure event to observable feature association&#45;&gt;entity to observable feature association mixin</title>
<path fill="none" stroke="black" d="M1427.11,-261.71C1237.79,-258.3 965.07,-249.85 727.39,-229 639.81,-221.31 540.94,-207.24 468.84,-195.98"/>
<polygon fill="black" stroke="black" points="469.27,-192.5 458.85,-194.41 468.18,-199.42 469.27,-192.5"/>
<text text-anchor="middle" x="743.89" y="-217.8" font-family="Times,serif" font-size="14.00">uses</text>
</g>
<!-- id -->
<g id="node4" class="node">
<title>id</title>
<ellipse fill="none" stroke="blue" cx="646.39" cy="-178" rx="38.19" ry="18"/>
<text text-anchor="middle" x="646.39" y="-174.3" font-family="Times,serif" font-size="14.00">string</text>
</g>
<!-- exposure event to observable feature association&#45;&gt;id -->
<g id="edge3" class="edge">
<title>exposure event to observable feature association&#45;&gt;id</title>
<path fill="none" stroke="blue" d="M1423.97,-263.48C1263.1,-260.72 1046.33,-252.32 856.39,-229 783.46,-220.05 765.2,-215.65 694.39,-196 691.29,-195.14 688.09,-194.17 684.89,-193.16"/>
<polygon fill="blue" stroke="blue" points="685.97,-189.83 675.38,-190 683.76,-196.47 685.97,-189.83"/>
<text text-anchor="middle" x="863.39" y="-217.8" font-family="Times,serif" font-size="14.00">id</text>
</g>
<!-- iri -->
<g id="node5" class="node">
<title>iri</title>
<ellipse fill="none" stroke="blue" cx="747.39" cy="-178" rx="44.39" ry="18"/>
<text text-anchor="middle" x="747.39" y="-174.3" font-family="Times,serif" font-size="14.00">iri type</text>
</g>
<!-- exposure event to observable feature association&#45;&gt;iri -->
<g id="edge4" class="edge">
<title>exposure event to observable feature association&#45;&gt;iri</title>
<path fill="none" stroke="blue" d="M1429.32,-260.86C1293.54,-256.9 1119.29,-248.15 965.39,-229 891.18,-219.77 872.78,-214.78 800.39,-196 797.02,-195.12 793.54,-194.16 790.06,-193.14"/>
<polygon fill="blue" stroke="blue" points="790.89,-189.74 780.3,-190.19 788.86,-196.44 790.89,-189.74"/>
<text text-anchor="middle" x="973.39" y="-217.8" font-family="Times,serif" font-size="14.00">iri</text>
</g>
<!-- name -->
<g id="node6" class="node">
<title>name</title>
<ellipse fill="none" stroke="blue" cx="866.39" cy="-178" rx="56.59" ry="18"/>
<text text-anchor="middle" x="866.39" y="-174.3" font-family="Times,serif" font-size="14.00">label type</text>
</g>
<!-- exposure event to observable feature association&#45;&gt;name -->
<g id="edge5" class="edge">
<title>exposure event to observable feature association&#45;&gt;name</title>
<path fill="none" stroke="blue" d="M1426.91,-261.75C1313.16,-257.8 1175.05,-248.79 1052.39,-229 1004.36,-221.25 950.85,-206.16 913.6,-194.57"/>
<polygon fill="blue" stroke="blue" points="914.6,-191.22 904.01,-191.56 912.5,-197.9 914.6,-191.22"/>
<text text-anchor="middle" x="1072.39" y="-217.8" font-family="Times,serif" font-size="14.00">name</text>
</g>
<!-- description -->
<g id="node7" class="node">
<title>description</title>
<ellipse fill="none" stroke="blue" cx="1016.39" cy="-178" rx="75.29" ry="18"/>
<text text-anchor="middle" x="1016.39" y="-174.3" font-family="Times,serif" font-size="14.00">narrative text</text>
</g>
<!-- exposure event to observable feature association&#45;&gt;description -->
<g id="edge6" class="edge">
<title>exposure event to observable feature association&#45;&gt;description</title>
<path fill="none" stroke="blue" d="M1451.45,-256.49C1333.59,-250.98 1199.13,-242.14 1141.39,-229 1111.92,-222.29 1080.32,-209.6 1056.27,-198.68"/>
<polygon fill="blue" stroke="blue" points="1057.66,-195.47 1047.11,-194.45 1054.72,-201.82 1057.66,-195.47"/>
<text text-anchor="middle" x="1181.89" y="-217.8" font-family="Times,serif" font-size="14.00">description</text>
</g>
<!-- source -->
<g id="node8" class="node">
<title>source</title>
<ellipse fill="none" stroke="blue" cx="1166.39" cy="-178" rx="56.59" ry="18"/>
<text text-anchor="middle" x="1166.39" y="-174.3" font-family="Times,serif" font-size="14.00">label type</text>
</g>
<!-- exposure event to observable feature association&#45;&gt;source -->
<g id="edge7" class="edge">
<title>exposure event to observable feature association&#45;&gt;source</title>
<path fill="none" stroke="blue" d="M1469.47,-254.35C1386.82,-248.74 1300.41,-240.46 1261.39,-229 1239.16,-222.47 1216.12,-210.49 1198.29,-199.89"/>
<polygon fill="blue" stroke="blue" points="1199.84,-196.73 1189.48,-194.51 1196.19,-202.71 1199.84,-196.73"/>
<text text-anchor="middle" x="1285.39" y="-217.8" font-family="Times,serif" font-size="14.00">source</text>
</g>
<!-- provided by -->
<g id="node9" class="node">
<title>provided by</title>
<ellipse fill="none" stroke="blue" cx="1278.39" cy="-178" rx="37.09" ry="18"/>
<text text-anchor="middle" x="1278.39" y="-174.3" font-family="Times,serif" font-size="14.00">agent</text>
</g>
<!-- exposure event to observable feature association&#45;&gt;provided by -->
<g id="edge8" class="edge">
<title>exposure event to observable feature association&#45;&gt;provided by</title>
<path fill="none" stroke="blue" d="M1476.1,-253.7C1417.71,-248.39 1361.67,-240.52 1335.39,-229 1321.56,-222.93 1308.68,-212.26 1298.67,-202.33"/>
<polygon fill="blue" stroke="blue" points="1301.06,-199.76 1291.61,-194.96 1296.01,-204.6 1301.06,-199.76"/>
<text text-anchor="middle" x="1377.89" y="-217.8" font-family="Times,serif" font-size="14.00">provided by</text>
</g>
<!-- has attribute -->
<g id="node10" class="node">
<title>has attribute</title>
<ellipse fill="none" stroke="blue" cx="1385.39" cy="-178" rx="51.99" ry="18"/>
<text text-anchor="middle" x="1385.39" y="-174.3" font-family="Times,serif" font-size="14.00">attribute</text>
</g>
<!-- exposure event to observable feature association&#45;&gt;has attribute -->
<g id="edge9" class="edge">
<title>exposure event to observable feature association&#45;&gt;has attribute</title>
<path fill="none" stroke="blue" d="M1517.6,-250.62C1493.87,-245.53 1470,-238.56 1448.39,-229 1433.91,-222.59 1419.88,-212.04 1408.76,-202.28"/>
<polygon fill="blue" stroke="blue" points="1410.96,-199.54 1401.21,-195.38 1406.23,-204.71 1410.96,-199.54"/>
<text text-anchor="middle" x="1495.39" y="-217.8" font-family="Times,serif" font-size="14.00">has attribute</text>
</g>
<!-- predicate -->
<g id="node11" class="node">
<title>predicate</title>
<ellipse fill="none" stroke="blue" cx="1533.39" cy="-178" rx="77.99" ry="18"/>
<text text-anchor="middle" x="1533.39" y="-174.3" font-family="Times,serif" font-size="14.00">predicate type</text>
</g>
<!-- exposure event to observable feature association&#45;&gt;predicate -->
<g id="edge10" class="edge">
<title>exposure event to observable feature association&#45;&gt;predicate</title>
<path fill="none" stroke="blue" d="M1588.55,-247.85C1577.27,-243.09 1566.4,-236.94 1557.39,-229 1550.44,-222.87 1545.32,-214.27 1541.64,-205.94"/>
<polygon fill="blue" stroke="blue" points="1544.83,-204.49 1537.96,-196.43 1538.31,-207.02 1544.83,-204.49"/>
<text text-anchor="middle" x="1591.39" y="-217.8" font-family="Times,serif" font-size="14.00">predicate</text>
</g>
<!-- object -->
<g id="node12" class="node">
<title>object</title>
<ellipse fill="none" stroke="blue" cx="2029.39" cy="-91" rx="69.59" ry="18"/>
<text text-anchor="middle" x="2029.39" y="-87.3" font-family="Times,serif" font-size="14.00">named thing</text>
</g>
<!-- exposure event to observable feature association&#45;&gt;object -->
<g id="edge11" class="edge">
<title>exposure event to observable feature association&#45;&gt;object</title>
<path fill="none" stroke="blue" d="M1662.58,-246.82C1663.81,-223.57 1669.62,-182.45 1694.39,-160 1731.78,-126.12 1867.26,-107.25 1954.06,-98.39"/>
<polygon fill="blue" stroke="blue" points="1954.53,-101.87 1964.13,-97.39 1953.83,-94.9 1954.53,-101.87"/>
<text text-anchor="middle" x="1716.39" y="-174.3" font-family="Times,serif" font-size="14.00">object</text>
</g>
<!-- relation -->
<g id="node13" class="node">
<title>relation</title>
<ellipse fill="none" stroke="blue" cx="2029.39" cy="-18" rx="57.39" ry="18"/>
<text text-anchor="middle" x="2029.39" y="-14.3" font-family="Times,serif" font-size="14.00">uriorcurie</text>
</g>
<!-- exposure event to observable feature association&#45;&gt;relation -->
<g id="edge12" class="edge">
<title>exposure event to observable feature association&#45;&gt;relation</title>
<path fill="none" stroke="blue" d="M1657.2,-246.56C1649.89,-218.06 1640.35,-161.27 1668.39,-127 1706.58,-80.34 1876.96,-44.88 1969.35,-28.68"/>
<polygon fill="blue" stroke="blue" points="1970.14,-32.1 1979.4,-26.94 1968.95,-25.2 1970.14,-32.1"/>
<text text-anchor="middle" x="1696.39" y="-130.8" font-family="Times,serif" font-size="14.00">relation</text>
</g>
<!-- negated -->
<g id="node14" class="node">
<title>negated</title>
<ellipse fill="none" stroke="blue" cx="1794.39" cy="-178" rx="46.59" ry="18"/>
<text text-anchor="middle" x="1794.39" y="-174.3" font-family="Times,serif" font-size="14.00">boolean</text>
</g>
<!-- exposure event to observable feature association&#45;&gt;negated -->
<g id="edge13" class="edge">
<title>exposure event to observable feature association&#45;&gt;negated</title>
<path fill="none" stroke="blue" d="M1688.79,-247C1710.04,-233.32 1739.99,-214.03 1762.57,-199.49"/>
<polygon fill="blue" stroke="blue" points="1764.62,-202.33 1771.14,-193.98 1760.83,-196.45 1764.62,-202.33"/>
<text text-anchor="middle" x="1765.39" y="-217.8" font-family="Times,serif" font-size="14.00">negated</text>
</g>
<!-- qualifiers -->
<g id="node15" class="node">
<title>qualifiers</title>
<ellipse fill="none" stroke="blue" cx="1935.39" cy="-178" rx="76.89" ry="18"/>
<text text-anchor="middle" x="1935.39" y="-174.3" font-family="Times,serif" font-size="14.00">ontology class</text>
</g>
<!-- exposure event to observable feature association&#45;&gt;qualifiers -->
<g id="edge14" class="edge">
<title>exposure event to observable feature association&#45;&gt;qualifiers</title>
<path fill="none" stroke="blue" d="M1731.25,-247.67C1752.87,-242.18 1776.74,-235.72 1798.39,-229 1828.63,-219.62 1862.01,-207.47 1888.25,-197.5"/>
<polygon fill="blue" stroke="blue" points="1889.85,-200.64 1897.94,-193.8 1887.35,-194.1 1889.85,-200.64"/>
<text text-anchor="middle" x="1873.89" y="-217.8" font-family="Times,serif" font-size="14.00">qualifiers</text>
</g>
<!-- publications -->
<g id="node16" class="node">
<title>publications</title>
<ellipse fill="none" stroke="blue" cx="2092.39" cy="-178" rx="62.29" ry="18"/>
<text text-anchor="middle" x="2092.39" y="-174.3" font-family="Times,serif" font-size="14.00">publication</text>
</g>
<!-- exposure event to observable feature association&#45;&gt;publications -->
<g id="edge15" class="edge">
<title>exposure event to observable feature association&#45;&gt;publications</title>
<path fill="none" stroke="blue" d="M1787.7,-249.62C1827.44,-244.2 1871.43,-237.29 1911.39,-229 1956.04,-219.74 2005.92,-205.67 2042,-194.82"/>
<polygon fill="blue" stroke="blue" points="2043.24,-198.1 2051.79,-191.85 2041.2,-191.4 2043.24,-198.1"/>
<text text-anchor="middle" x="2016.39" y="-217.8" font-family="Times,serif" font-size="14.00">publications</text>
</g>
<!-- type -->
<g id="node17" class="node">
<title>type</title>
<ellipse fill="none" stroke="black" cx="2204.39" cy="-178" rx="31.4" ry="18"/>
<text text-anchor="middle" x="2204.39" y="-174.3" font-family="Times,serif" font-size="14.00">type</text>
</g>
<!-- exposure event to observable feature association&#45;&gt;type -->
<g id="edge16" class="edge">
<title>exposure event to observable feature association&#45;&gt;type</title>
<path fill="none" stroke="blue" d="M1838.1,-252.77C1925.64,-246.35 2021.73,-237.84 2064.39,-229 2102.15,-221.18 2143.51,-205.46 2171.42,-193.72"/>
<polygon fill="blue" stroke="blue" points="2172.88,-196.9 2180.7,-189.76 2170.13,-190.47 2172.88,-196.9"/>
<text text-anchor="middle" x="2132.39" y="-217.8" font-family="Times,serif" font-size="14.00">type</text>
</g>
<!-- category -->
<g id="node19" class="node">
<title>category</title>
<ellipse fill="none" stroke="black" cx="2305.39" cy="-178" rx="51.19" ry="18"/>
<text text-anchor="middle" x="2305.39" y="-174.3" font-family="Times,serif" font-size="14.00">category</text>
</g>
<!-- exposure event to observable feature association&#45;&gt;category -->
<g id="edge17" class="edge">
<title>exposure event to observable feature association&#45;&gt;category</title>
<path fill="none" stroke="blue" d="M1832.64,-252.32C1970.93,-242.76 2144.39,-230.57 2152.39,-229 2191,-221.43 2233.41,-207.07 2263.77,-195.67"/>
<polygon fill="blue" stroke="blue" points="2265.08,-198.92 2273.18,-192.09 2262.59,-192.38 2265.08,-198.92"/>
<text text-anchor="middle" x="2239.89" y="-217.8" font-family="Times,serif" font-size="14.00">category</text>
</g>
<!-- subject -->
<g id="node21" class="node">
<title>subject</title>
<ellipse fill="none" stroke="black" cx="2419.39" cy="-178" rx="44.39" ry="18"/>
<text text-anchor="middle" x="2419.39" y="-174.3" font-family="Times,serif" font-size="14.00">subject</text>
</g>
<!-- exposure event to observable feature association&#45;&gt;subject -->
<g id="edge18" class="edge">
<title>exposure event to observable feature association&#45;&gt;subject</title>
<path fill="none" stroke="blue" d="M1829.79,-252.14C1857.06,-250.33 1885.01,-248.55 1911.39,-247 2073.09,-237.48 2116.39,-259.88 2275.39,-229 2312.23,-221.85 2352.43,-207.28 2380.98,-195.71"/>
<polygon fill="blue" stroke="blue" points="2382.65,-198.8 2390.56,-191.75 2379.98,-192.33 2382.65,-198.8"/>
<text text-anchor="middle" x="2354.39" y="-217.8" font-family="Times,serif" font-size="14.00">subject</text>
</g>
<!-- frequency qualifier -->
<g id="node23" class="node">
<title>frequency qualifier</title>
<ellipse fill="none" stroke="blue" cx="2566.39" cy="-178" rx="85.29" ry="18"/>
<text text-anchor="middle" x="2566.39" y="-174.3" font-family="Times,serif" font-size="14.00">frequency value</text>
</g>
<!-- exposure event to observable feature association&#45;&gt;frequency qualifier -->
<g id="edge19" class="edge">
<title>exposure event to observable feature association&#45;&gt;frequency qualifier</title>
<path fill="none" stroke="blue" d="M1828.1,-251.99C1855.9,-250.17 1884.46,-248.43 1911.39,-247 2121.47,-235.83 2176.48,-261.08 2384.39,-229 2428.95,-222.13 2478.17,-208.2 2514.18,-196.79"/>
<polygon fill="blue" stroke="blue" points="2515.52,-200.03 2523.97,-193.64 2513.38,-193.37 2515.52,-200.03"/>
<text text-anchor="middle" x="2518.39" y="-217.8" font-family="Times,serif" font-size="14.00">frequency qualifier</text>
</g>
<!-- severity qualifier -->
<g id="node24" class="node">
<title>severity qualifier</title>
<ellipse fill="none" stroke="blue" cx="2745.39" cy="-178" rx="76.09" ry="18"/>
<text text-anchor="middle" x="2745.39" y="-174.3" font-family="Times,serif" font-size="14.00">severity value</text>
</g>
<!-- exposure event to observable feature association&#45;&gt;severity qualifier -->
<g id="edge20" class="edge">
<title>exposure event to observable feature association&#45;&gt;severity qualifier</title>
<path fill="none" stroke="blue" d="M1826.08,-251.85C1854.51,-250.02 1883.8,-248.31 1911.39,-247 2062.17,-239.86 2441.61,-254.43 2590.39,-229 2628.12,-222.55 2669.28,-208.95 2699.7,-197.55"/>
<polygon fill="blue" stroke="blue" points="2701.08,-200.77 2709.18,-193.94 2698.59,-194.23 2701.08,-200.77"/>
<text text-anchor="middle" x="2712.39" y="-217.8" font-family="Times,serif" font-size="14.00">severity qualifier</text>
</g>
<!-- onset qualifier -->
<g id="node25" class="node">
<title>onset qualifier</title>
<ellipse fill="none" stroke="blue" cx="2875.39" cy="-178" rx="36.29" ry="18"/>
<text text-anchor="middle" x="2875.39" y="-174.3" font-family="Times,serif" font-size="14.00">onset</text>
</g>
<!-- exposure event to observable feature association&#45;&gt;onset qualifier -->
<g id="edge21" class="edge">
<title>exposure event to observable feature association&#45;&gt;onset qualifier</title>
<path fill="none" stroke="blue" d="M1825.07,-251.78C1853.82,-249.94 1883.47,-248.24 1911.39,-247 2007.54,-242.72 2684.06,-252.46 2777.39,-229 2801.91,-222.84 2827.27,-209.68 2846.05,-198.41"/>
<polygon fill="blue" stroke="blue" points="2848.03,-201.3 2854.71,-193.07 2844.36,-195.34 2848.03,-201.3"/>
<text text-anchor="middle" x="2868.89" y="-217.8" font-family="Times,serif" font-size="14.00">onset qualifier</text>
</g>
<!-- architectural style qualifier -->
<g id="node26" class="node">
<title>architectural style qualifier</title>
<ellipse fill="none" stroke="blue" cx="3094.39" cy="-178" rx="165.17" ry="18"/>
<text text-anchor="middle" x="3094.39" y="-174.3" font-family="Times,serif" font-size="14.00">computational architectural style</text>
</g>
<!-- exposure event to observable feature association&#45;&gt;architectural style qualifier -->
<g id="edge22" class="edge">
<title>exposure event to observable feature association&#45;&gt;architectural style qualifier</title>
<path fill="none" stroke="blue" d="M1824.4,-251.75C1853.35,-249.9 1883.26,-248.21 1911.39,-247 2023.86,-242.16 2813.12,-246.04 2924.39,-229 2964.39,-222.88 3008.16,-209.85 3041.27,-198.63"/>
<polygon fill="blue" stroke="blue" points="3042.43,-201.93 3050.75,-195.36 3040.15,-195.31 3042.43,-201.93"/>
<text text-anchor="middle" x="3088.39" y="-217.8" font-family="Times,serif" font-size="14.00">architectural style qualifier</text>
</g>
<!-- object&#45;&gt;relation -->
<g id="edge25" class="edge">
<title>object&#45;&gt;relation</title>
<path fill="none" stroke="black" stroke-dasharray="1,5" d="M2029.39,-72.81C2029.39,-64.79 2029.39,-55.05 2029.39,-46.07"/>
<polygon fill="black" stroke="black" points="2032.89,-46.03 2029.39,-36.03 2025.89,-46.03 2032.89,-46.03"/>
</g>
<!-- association_type -->
<g id="node18" class="node">
<title>association_type</title>
<ellipse fill="none" stroke="blue" cx="1958.39" cy="-265" rx="38.19" ry="18"/>
<text text-anchor="middle" x="1958.39" y="-261.3" font-family="Times,serif" font-size="14.00">string</text>
</g>
<!-- association_category -->
<g id="node20" class="node">
<title>association_category</title>
<ellipse fill="none" stroke="blue" cx="2077.39" cy="-265" rx="62.29" ry="18"/>
<text text-anchor="middle" x="2077.39" y="-261.3" font-family="Times,serif" font-size="14.00">association</text>
</g>
<!-- subject&#45;&gt;object -->
<g id="edge23" class="edge">
<title>subject&#45;&gt;object</title>
<path fill="none" stroke="black" d="M2386.83,-165.63C2379.82,-163.5 2372.41,-161.48 2365.39,-160 2294.51,-145.05 2274.46,-156.05 2203.39,-142 2161.02,-133.62 2113.99,-119.83 2079.52,-108.85"/>
<polygon fill="black" stroke="black" points="2080.29,-105.42 2069.7,-105.69 2078.15,-112.08 2080.29,-105.42"/>
<text text-anchor="middle" x="2231.39" y="-130.8" font-family="Times,serif" font-size="14.00">relation</text>
</g>
<!-- subject&#45;&gt;relation -->
<g id="edge24" class="edge">
<title>subject&#45;&gt;relation</title>
<path fill="none" stroke="black" stroke-dasharray="1,5" d="M2389.12,-164.73C2320.38,-136.89 2152.35,-68.81 2072.67,-36.53"/>
<polygon fill="black" stroke="black" points="2073.53,-33.1 2062.95,-32.59 2070.9,-39.59 2073.53,-33.1"/>
</g>
<!-- exposure event to observable feature association_subject -->
<g id="node22" class="node">
<title>exposure event to observable feature association_subject</title>
<ellipse fill="none" stroke="blue" cx="2239.39" cy="-265" rx="81.79" ry="18"/>
<text text-anchor="middle" x="2239.39" y="-261.3" font-family="Times,serif" font-size="14.00">exposure event</text>
</g>
</g>
</svg>
