<?xml version="1.0" encoding="UTF-8" standalone="no"?>
<!DOCTYPE svg PUBLIC "-//W3C//DTD SVG 1.1//EN"
 "http://www.w3.org/Graphics/SVG/1.1/DTD/svg11.dtd">
<!-- Generated by graphviz version 2.43.0 (0)
 -->
<!-- Title: %3 Pages: 1 -->
<svg width="1806pt" height="131pt"
 viewBox="0.00 0.00 1805.99 131.00" xmlns="http://www.w3.org/2000/svg" xmlns:xlink="http://www.w3.org/1999/xlink">
<g id="graph0" class="graph" transform="scale(1 1) rotate(0) translate(4 127)">
<title>%3</title>
<polygon fill="white" stroke="transparent" points="-4,4 -4,-127 1801.99,-127 1801.99,4 -4,4"/>
<!-- faulty process outcome -->
<g id="node1" class="node">
<title>faulty process outcome</title>
<ellipse fill="none" stroke="black" cx="866.04" cy="-105" rx="118.08" ry="18"/>
<text text-anchor="middle" x="866.04" y="-101.3" font-family="Times,serif" font-size="14.00">faulty process outcome</text>
</g>
<!-- faulty process -->
<g id="node2" class="node">
<title>faulty process</title>
<ellipse fill="none" stroke="black" cx="76.04" cy="-18" rx="76.09" ry="18"/>
<text text-anchor="middle" x="76.04" y="-14.3" font-family="Times,serif" font-size="14.00">faulty process</text>
</g>
<!-- faulty process outcome&#45;&gt;faulty process -->
<g id="edge1" class="edge">
<title>faulty process outcome&#45;&gt;faulty process</title>
<path fill="none" stroke="black" d="M749.79,-101.48C637.75,-97.91 463.67,-89.35 314.04,-69 252.72,-60.66 183.6,-45.48 135.71,-34.02"/>
<polygon fill="black" stroke="black" points="136.37,-30.58 125.82,-31.64 134.73,-37.39 136.37,-30.58"/>
<text text-anchor="middle" x="328.04" y="-57.8" font-family="Times,serif" font-size="14.00">is_a</text>
</g>
<!-- outcome -->
<g id="node3" class="node">
<title>outcome</title>
<ellipse fill="none" stroke="black" cx="220.04" cy="-18" rx="50.09" ry="18"/>
<text text-anchor="middle" x="220.04" y="-14.3" font-family="Times,serif" font-size="14.00">outcome</text>
</g>
<!-- faulty process outcome&#45;&gt;outcome -->
<g id="edge2" class="edge">
<title>faulty process outcome&#45;&gt;outcome</title>
<path fill="none" stroke="black" d="M751.72,-100.12C660.41,-95.82 529.43,-86.95 416.04,-69 363.92,-60.75 305.46,-44.96 266.06,-33.32"/>
<polygon fill="black" stroke="black" points="267.05,-29.96 256.47,-30.46 265.05,-36.67 267.05,-29.96"/>
<text text-anchor="middle" x="432.54" y="-57.8" font-family="Times,serif" font-size="14.00">uses</text>
</g>
<!-- id -->
<g id="node4" class="node">
<title>id</title>
<ellipse fill="none" stroke="blue" cx="326.04" cy="-18" rx="38.19" ry="18"/>
<text text-anchor="middle" x="326.04" y="-14.3" font-family="Times,serif" font-size="14.00">string</text>
</g>
<!-- faulty process outcome&#45;&gt;id -->
<g id="edge3" class="edge">
<title>faulty process outcome&#45;&gt;id</title>
<path fill="none" stroke="blue" d="M758.32,-97.4C657.51,-89.29 503.45,-71.91 374.04,-36 370.93,-35.14 367.74,-34.17 364.54,-33.16"/>
<polygon fill="blue" stroke="blue" points="365.62,-29.83 355.03,-30 363.41,-36.47 365.62,-29.83"/>
<text text-anchor="middle" x="528.04" y="-57.8" font-family="Times,serif" font-size="14.00">id</text>
</g>
<!-- iri -->
<g id="node5" class="node">
<title>iri</title>
<ellipse fill="none" stroke="blue" cx="427.04" cy="-18" rx="44.39" ry="18"/>
<text text-anchor="middle" x="427.04" y="-14.3" font-family="Times,serif" font-size="14.00">iri type</text>
</g>
<!-- faulty process outcome&#45;&gt;iri -->
<g id="edge4" class="edge">
<title>faulty process outcome&#45;&gt;iri</title>
<path fill="none" stroke="blue" d="M778.28,-92.89C732.72,-86.7 676.23,-78.36 626.04,-69 561.07,-56.89 544.84,-53.27 481.04,-36 477.46,-35.03 473.77,-33.98 470.07,-32.89"/>
<polygon fill="blue" stroke="blue" points="470.92,-29.49 460.33,-29.95 468.89,-36.19 470.92,-29.49"/>
<text text-anchor="middle" x="634.04" y="-57.8" font-family="Times,serif" font-size="14.00">iri</text>
</g>
<!-- type -->
<g id="node6" class="node">
<title>type</title>
<ellipse fill="none" stroke="blue" cx="528.04" cy="-18" rx="38.19" ry="18"/>
<text text-anchor="middle" x="528.04" y="-14.3" font-family="Times,serif" font-size="14.00">string</text>
</g>
<!-- faulty process outcome&#45;&gt;type -->
<g id="edge5" class="edge">
<title>faulty process outcome&#45;&gt;type</title>
<path fill="none" stroke="blue" d="M795.95,-90.43C736.56,-78.26 649.44,-58.84 575.04,-36 572.28,-35.15 569.45,-34.24 566.6,-33.29"/>
<polygon fill="blue" stroke="blue" points="567.57,-29.92 556.98,-29.97 565.29,-36.54 567.57,-29.92"/>
<text text-anchor="middle" x="710.04" y="-57.8" font-family="Times,serif" font-size="14.00">type</text>
</g>
<!-- name -->
<g id="node7" class="node">
<title>name</title>
<ellipse fill="none" stroke="blue" cx="641.04" cy="-18" rx="56.59" ry="18"/>
<text text-anchor="middle" x="641.04" y="-14.3" font-family="Times,serif" font-size="14.00">label type</text>
</g>
<!-- faulty process outcome&#45;&gt;name -->
<g id="edge6" class="edge">
<title>faulty process outcome&#45;&gt;name</title>
<path fill="none" stroke="blue" d="M823.99,-88.11C784.62,-73.24 726,-51.1 685.79,-35.9"/>
<polygon fill="blue" stroke="blue" points="686.83,-32.56 676.24,-32.3 684.36,-39.1 686.83,-32.56"/>
<text text-anchor="middle" x="787.04" y="-57.8" font-family="Times,serif" font-size="14.00">name</text>
</g>
<!-- description -->
<g id="node8" class="node">
<title>description</title>
<ellipse fill="none" stroke="blue" cx="791.04" cy="-18" rx="75.29" ry="18"/>
<text text-anchor="middle" x="791.04" y="-14.3" font-family="Times,serif" font-size="14.00">narrative text</text>
</g>
<!-- faulty process outcome&#45;&gt;description -->
<g id="edge7" class="edge">
<title>faulty process outcome&#45;&gt;description</title>
<path fill="none" stroke="blue" d="M850.87,-86.8C839.92,-74.39 824.98,-57.46 812.77,-43.62"/>
<polygon fill="blue" stroke="blue" points="815.18,-41.07 805.94,-35.89 809.93,-45.7 815.18,-41.07"/>
<text text-anchor="middle" x="873.54" y="-57.8" font-family="Times,serif" font-size="14.00">description</text>
</g>
<!-- source -->
<g id="node9" class="node">
<title>source</title>
<ellipse fill="none" stroke="blue" cx="941.04" cy="-18" rx="56.59" ry="18"/>
<text text-anchor="middle" x="941.04" y="-14.3" font-family="Times,serif" font-size="14.00">label type</text>
</g>
<!-- faulty process outcome&#45;&gt;source -->
<g id="edge8" class="edge">
<title>faulty process outcome&#45;&gt;source</title>
<path fill="none" stroke="blue" d="M896.63,-87.45C904.3,-82.27 912.05,-76.05 918.04,-69 923.85,-62.17 928.49,-53.63 932.04,-45.55"/>
<polygon fill="blue" stroke="blue" points="935.37,-46.65 935.83,-36.07 928.87,-44.05 935.37,-46.65"/>
<text text-anchor="middle" x="952.04" y="-57.8" font-family="Times,serif" font-size="14.00">source</text>
</g>
<!-- provided by -->
<g id="node10" class="node">
<title>provided by</title>
<ellipse fill="none" stroke="blue" cx="1053.04" cy="-18" rx="37.09" ry="18"/>
<text text-anchor="middle" x="1053.04" y="-14.3" font-family="Times,serif" font-size="14.00">agent</text>
</g>
<!-- faulty process outcome&#45;&gt;provided by -->
<g id="edge9" class="edge">
<title>faulty process outcome&#45;&gt;provided by</title>
<path fill="none" stroke="blue" d="M925.63,-89.41C943.55,-84.04 962.98,-77.23 980.04,-69 996.39,-61.12 1013.19,-49.87 1026.55,-40.03"/>
<polygon fill="blue" stroke="blue" points="1028.91,-42.63 1034.79,-33.82 1024.7,-37.04 1028.91,-42.63"/>
<text text-anchor="middle" x="1048.54" y="-57.8" font-family="Times,serif" font-size="14.00">provided by</text>
</g>
<!-- has attribute -->
<g id="node11" class="node">
<title>has attribute</title>
<ellipse fill="none" stroke="blue" cx="1160.04" cy="-18" rx="51.99" ry="18"/>
<text text-anchor="middle" x="1160.04" y="-14.3" font-family="Times,serif" font-size="14.00">attribute</text>
</g>
<!-- faulty process outcome&#45;&gt;has attribute -->
<g id="edge10" class="edge">
<title>faulty process outcome&#45;&gt;has attribute</title>
<path fill="none" stroke="blue" d="M949.64,-92.22C1012.22,-83.24 1088.18,-71.93 1095.04,-69 1110.15,-62.55 1124.84,-51.76 1136.42,-41.85"/>
<polygon fill="blue" stroke="blue" points="1138.76,-44.45 1143.91,-35.19 1134.11,-39.22 1138.76,-44.45"/>
<text text-anchor="middle" x="1168.04" y="-57.8" font-family="Times,serif" font-size="14.00">has attribute</text>
</g>
<!-- category -->
<g id="node12" class="node">
<title>category</title>
<ellipse fill="none" stroke="black" cx="1281.04" cy="-18" rx="51.19" ry="18"/>
<text text-anchor="middle" x="1281.04" y="-14.3" font-family="Times,serif" font-size="14.00">category</text>
</g>
<!-- faulty process outcome&#45;&gt;category -->
<g id="edge11" class="edge">
<title>faulty process outcome&#45;&gt;category</title>
<path fill="none" stroke="blue" d="M949.31,-92.2C963.87,-90.33 978.89,-88.51 993.04,-87 1043.14,-81.66 1172.24,-87.64 1219.04,-69 1233.72,-63.15 1247.65,-52.56 1258.57,-42.63"/>
<polygon fill="blue" stroke="blue" points="1261.13,-45.02 1265.96,-35.59 1256.31,-39.96 1261.13,-45.02"/>
<text text-anchor="middle" x="1275.54" y="-57.8" font-family="Times,serif" font-size="14.00">category</text>
</g>
<!-- has input -->
<g id="node14" class="node">
<title>has input</title>
<ellipse fill="none" stroke="blue" cx="1420.04" cy="-18" rx="69.59" ry="18"/>
<text text-anchor="middle" x="1420.04" y="-14.3" font-family="Times,serif" font-size="14.00">named thing</text>
</g>
<!-- faulty process outcome&#45;&gt;has input -->
<g id="edge12" class="edge">
<title>faulty process outcome&#45;&gt;has input</title>
<path fill="none" stroke="blue" d="M948.6,-92.02C963.38,-90.14 978.65,-88.37 993.04,-87 1133.97,-73.6 1173.65,-103.1 1311.04,-69 1336.63,-62.65 1363.57,-50.35 1384.26,-39.54"/>
<polygon fill="blue" stroke="blue" points="1386.14,-42.51 1393.3,-34.71 1382.84,-36.33 1386.14,-42.51"/>
<text text-anchor="middle" x="1385.54" y="-57.8" font-family="Times,serif" font-size="14.00">has input</text>
</g>
<!-- has output -->
<g id="node15" class="node">
<title>has output</title>
<ellipse fill="none" stroke="blue" cx="1577.04" cy="-18" rx="69.59" ry="18"/>
<text text-anchor="middle" x="1577.04" y="-14.3" font-family="Times,serif" font-size="14.00">named thing</text>
</g>
<!-- faulty process outcome&#45;&gt;has output -->
<g id="edge13" class="edge">
<title>faulty process outcome&#45;&gt;has output</title>
<path fill="none" stroke="blue" d="M947.9,-91.93C962.89,-90.03 978.42,-88.28 993.04,-87 1183.59,-70.29 1234.78,-102.85 1423.04,-69 1460.74,-62.22 1501.93,-48.5 1532.22,-37.14"/>
<polygon fill="blue" stroke="blue" points="1533.56,-40.37 1541.66,-33.54 1531.07,-33.83 1533.56,-40.37"/>
<text text-anchor="middle" x="1518.54" y="-57.8" font-family="Times,serif" font-size="14.00">has output</text>
</g>
<!-- enabled by -->
<g id="node16" class="node">
<title>enabled by</title>
<ellipse fill="none" stroke="blue" cx="1731.04" cy="-18" rx="66.89" ry="18"/>
<text text-anchor="middle" x="1731.04" y="-14.3" font-family="Times,serif" font-size="14.00">cyber entity</text>
</g>
<!-- faulty process outcome&#45;&gt;enabled by -->
<g id="edge14" class="edge">
<title>faulty process outcome&#45;&gt;enabled by</title>
<path fill="none" stroke="blue" d="M947.21,-91.89C962.41,-89.98 978.19,-88.23 993.04,-87 1244.76,-66.22 1311.65,-108.96 1561.04,-69 1603.48,-62.2 1650.23,-47.93 1683.95,-36.37"/>
<polygon fill="blue" stroke="blue" points="1685.24,-39.63 1693.53,-33.04 1682.94,-33.02 1685.24,-39.63"/>
<text text-anchor="middle" x="1667.54" y="-57.8" font-family="Times,serif" font-size="14.00">enabled by</text>
</g>
<!-- named thing_category -->
<g id="node13" class="node">
<title>named thing_category</title>
<ellipse fill="none" stroke="blue" cx="1072.04" cy="-105" rx="69.59" ry="18"/>
<text text-anchor="middle" x="1072.04" y="-101.3" font-family="Times,serif" font-size="14.00">named thing</text>
</g>
</g>
</svg>
