<?xml version="1.0" encoding="UTF-8" standalone="no"?>
<!DOCTYPE svg PUBLIC "-//W3C//DTD SVG 1.1//EN"
 "http://www.w3.org/Graphics/SVG/1.1/DTD/svg11.dtd">
<!-- Generated by graphviz version 2.43.0 (0)
 -->
<!-- Title: %3 Pages: 1 -->
<svg width="1867pt" height="131pt"
 viewBox="0.00 0.00 1866.93 131.00" xmlns="http://www.w3.org/2000/svg" xmlns:xlink="http://www.w3.org/1999/xlink">
<g id="graph0" class="graph" transform="scale(1 1) rotate(0) translate(4 127)">
<title>%3</title>
<polygon fill="white" stroke="transparent" points="-4,4 -4,-127 1862.93,-127 1862.93,4 -4,4"/>
<!-- faulty deployment exposure -->
<g id="node1" class="node">
<title>faulty deployment exposure</title>
<ellipse fill="none" stroke="black" cx="986.69" cy="-105" rx="140.28" ry="18"/>
<text text-anchor="middle" x="986.69" y="-101.3" font-family="Times,serif" font-size="14.00">faulty deployment exposure</text>
</g>
<!-- faulty deployment structure -->
<g id="node2" class="node">
<title>faulty deployment structure</title>
<ellipse fill="none" stroke="black" cx="141.69" cy="-18" rx="141.88" ry="18"/>
<text text-anchor="middle" x="141.69" y="-14.3" font-family="Times,serif" font-size="14.00">faulty deployment structure</text>
</g>
<!-- faulty deployment exposure&#45;&gt;faulty deployment structure -->
<g id="edge1" class="edge">
<title>faulty deployment exposure&#45;&gt;faulty deployment structure</title>
<path fill="none" stroke="black" d="M860.39,-97.06C763.05,-91.17 625.16,-81.66 504.69,-69 413.75,-59.45 310.49,-44.86 237.42,-33.9"/>
<polygon fill="black" stroke="black" points="237.72,-30.41 227.31,-32.38 236.68,-37.33 237.72,-30.41"/>
<text text-anchor="middle" x="518.69" y="-57.8" font-family="Times,serif" font-size="14.00">is_a</text>
</g>
<!-- exposure event -->
<g id="node3" class="node">
<title>exposure event</title>
<ellipse fill="none" stroke="black" cx="383.69" cy="-18" rx="81.79" ry="18"/>
<text text-anchor="middle" x="383.69" y="-14.3" font-family="Times,serif" font-size="14.00">exposure event</text>
</g>
<!-- faulty deployment exposure&#45;&gt;exposure event -->
<g id="edge2" class="edge">
<title>faulty deployment exposure&#45;&gt;exposure event</title>
<path fill="none" stroke="black" d="M863.35,-96.32C789.97,-90.8 695.19,-82 611.69,-69 554.61,-60.11 490.41,-45.62 444.71,-34.52"/>
<polygon fill="black" stroke="black" points="445.51,-31.11 434.96,-32.14 443.84,-37.91 445.51,-31.11"/>
<text text-anchor="middle" x="628.19" y="-57.8" font-family="Times,serif" font-size="14.00">uses</text>
</g>
<!-- id -->
<g id="node4" class="node">
<title>id</title>
<ellipse fill="none" stroke="blue" cx="521.69" cy="-18" rx="38.19" ry="18"/>
<text text-anchor="middle" x="521.69" y="-14.3" font-family="Times,serif" font-size="14.00">string</text>
</g>
<!-- faulty deployment exposure&#45;&gt;id -->
<g id="edge3" class="edge">
<title>faulty deployment exposure&#45;&gt;id</title>
<path fill="none" stroke="blue" d="M879.39,-93.33C794.29,-83.24 672.91,-65.21 569.69,-36 566.58,-35.12 563.39,-34.15 560.19,-33.12"/>
<polygon fill="blue" stroke="blue" points="561.28,-29.8 550.68,-29.95 559.06,-36.44 561.28,-29.8"/>
<text text-anchor="middle" x="712.69" y="-57.8" font-family="Times,serif" font-size="14.00">id</text>
</g>
<!-- iri -->
<g id="node5" class="node">
<title>iri</title>
<ellipse fill="none" stroke="blue" cx="622.69" cy="-18" rx="44.39" ry="18"/>
<text text-anchor="middle" x="622.69" y="-14.3" font-family="Times,serif" font-size="14.00">iri type</text>
</g>
<!-- faulty deployment exposure&#45;&gt;iri -->
<g id="edge4" class="edge">
<title>faulty deployment exposure&#45;&gt;iri</title>
<path fill="none" stroke="blue" d="M907.2,-90.1C874.69,-84.1 836.79,-76.7 802.69,-69 746.22,-56.25 732.31,-52.03 676.69,-36 673.18,-34.99 669.54,-33.91 665.9,-32.81"/>
<polygon fill="blue" stroke="blue" points="666.9,-29.45 656.31,-29.86 664.85,-36.15 666.9,-29.45"/>
<text text-anchor="middle" x="810.69" y="-57.8" font-family="Times,serif" font-size="14.00">iri</text>
</g>
<!-- type -->
<g id="node6" class="node">
<title>type</title>
<ellipse fill="none" stroke="blue" cx="723.69" cy="-18" rx="38.19" ry="18"/>
<text text-anchor="middle" x="723.69" y="-14.3" font-family="Times,serif" font-size="14.00">string</text>
</g>
<!-- faulty deployment exposure&#45;&gt;type -->
<g id="edge5" class="edge">
<title>faulty deployment exposure&#45;&gt;type</title>
<path fill="none" stroke="blue" d="M931.74,-88.36C911.54,-82.47 888.52,-75.61 867.69,-69 824.28,-55.24 813.66,-51.08 770.69,-36 768,-35.06 765.23,-34.08 762.44,-33.08"/>
<polygon fill="blue" stroke="blue" points="763.58,-29.78 752.99,-29.7 761.22,-36.37 763.58,-29.78"/>
<text text-anchor="middle" x="883.69" y="-57.8" font-family="Times,serif" font-size="14.00">type</text>
</g>
<!-- name -->
<g id="node7" class="node">
<title>name</title>
<ellipse fill="none" stroke="blue" cx="836.69" cy="-18" rx="56.59" ry="18"/>
<text text-anchor="middle" x="836.69" y="-14.3" font-family="Times,serif" font-size="14.00">label type</text>
</g>
<!-- faulty deployment exposure&#45;&gt;name -->
<g id="edge6" class="edge">
<title>faulty deployment exposure&#45;&gt;name</title>
<path fill="none" stroke="blue" d="M957.05,-87.21C932.61,-73.36 897.88,-53.67 872,-39.01"/>
<polygon fill="blue" stroke="blue" points="873.67,-35.93 863.25,-34.05 870.22,-42.02 873.67,-35.93"/>
<text text-anchor="middle" x="940.69" y="-57.8" font-family="Times,serif" font-size="14.00">name</text>
</g>
<!-- description -->
<g id="node8" class="node">
<title>description</title>
<ellipse fill="none" stroke="blue" cx="986.69" cy="-18" rx="75.29" ry="18"/>
<text text-anchor="middle" x="986.69" y="-14.3" font-family="Times,serif" font-size="14.00">narrative text</text>
</g>
<!-- faulty deployment exposure&#45;&gt;description -->
<g id="edge7" class="edge">
<title>faulty deployment exposure&#45;&gt;description</title>
<path fill="none" stroke="blue" d="M986.69,-86.8C986.69,-75.16 986.69,-59.55 986.69,-46.24"/>
<polygon fill="blue" stroke="blue" points="990.19,-46.18 986.69,-36.18 983.19,-46.18 990.19,-46.18"/>
<text text-anchor="middle" x="1027.19" y="-57.8" font-family="Times,serif" font-size="14.00">description</text>
</g>
<!-- source -->
<g id="node9" class="node">
<title>source</title>
<ellipse fill="none" stroke="blue" cx="1136.69" cy="-18" rx="56.59" ry="18"/>
<text text-anchor="middle" x="1136.69" y="-14.3" font-family="Times,serif" font-size="14.00">label type</text>
</g>
<!-- faulty deployment exposure&#45;&gt;source -->
<g id="edge8" class="edge">
<title>faulty deployment exposure&#45;&gt;source</title>
<path fill="none" stroke="blue" d="M1032.3,-87.81C1045.36,-82.49 1059.38,-76.1 1071.69,-69 1085.28,-61.16 1099.22,-50.8 1110.69,-41.54"/>
<polygon fill="blue" stroke="blue" points="1113.07,-44.11 1118.56,-35.05 1108.62,-38.71 1113.07,-44.11"/>
<text text-anchor="middle" x="1118.69" y="-57.8" font-family="Times,serif" font-size="14.00">source</text>
</g>
<!-- provided by -->
<g id="node10" class="node">
<title>provided by</title>
<ellipse fill="none" stroke="blue" cx="1248.69" cy="-18" rx="37.09" ry="18"/>
<text text-anchor="middle" x="1248.69" y="-14.3" font-family="Times,serif" font-size="14.00">agent</text>
</g>
<!-- faulty deployment exposure&#45;&gt;provided by -->
<g id="edge9" class="edge">
<title>faulty deployment exposure&#45;&gt;provided by</title>
<path fill="none" stroke="blue" d="M1067.49,-90.27C1093.17,-84.86 1121.45,-77.8 1146.69,-69 1170.96,-60.53 1196.96,-47.73 1216.64,-37.19"/>
<polygon fill="blue" stroke="blue" points="1218.36,-40.24 1225.48,-32.39 1215.02,-34.09 1218.36,-40.24"/>
<text text-anchor="middle" x="1224.19" y="-57.8" font-family="Times,serif" font-size="14.00">provided by</text>
</g>
<!-- category -->
<g id="node11" class="node">
<title>category</title>
<ellipse fill="none" stroke="black" cx="1354.69" cy="-18" rx="51.19" ry="18"/>
<text text-anchor="middle" x="1354.69" y="-14.3" font-family="Times,serif" font-size="14.00">category</text>
</g>
<!-- faulty deployment exposure&#45;&gt;category -->
<g id="edge10" class="edge">
<title>faulty deployment exposure&#45;&gt;category</title>
<path fill="none" stroke="blue" d="M1087.91,-92.52C1165.89,-83.51 1261.87,-72.02 1270.69,-69 1290.15,-62.34 1310.01,-50.78 1325.54,-40.45"/>
<polygon fill="blue" stroke="blue" points="1327.87,-43.09 1334.14,-34.55 1323.91,-37.32 1327.87,-43.09"/>
<text text-anchor="middle" x="1334.19" y="-57.8" font-family="Times,serif" font-size="14.00">category</text>
</g>
<!-- has attribute -->
<g id="node13" class="node">
<title>has attribute</title>
<ellipse fill="none" stroke="black" cx="1495.69" cy="-18" rx="71.49" ry="18"/>
<text text-anchor="middle" x="1495.69" y="-14.3" font-family="Times,serif" font-size="14.00">has attribute</text>
</g>
<!-- faulty deployment exposure&#45;&gt;has attribute -->
<g id="edge11" class="edge">
<title>faulty deployment exposure&#45;&gt;has attribute</title>
<path fill="none" stroke="blue" d="M1085.62,-92.2C1102.32,-90.35 1119.49,-88.55 1135.69,-87 1239.52,-77.09 1268.06,-92.5 1369.69,-69 1399.34,-62.14 1431.19,-49.45 1455.45,-38.57"/>
<polygon fill="blue" stroke="blue" points="1457.05,-41.69 1464.69,-34.35 1454.14,-35.33 1457.05,-41.69"/>
<text text-anchor="middle" x="1463.69" y="-57.8" font-family="Times,serif" font-size="14.00">has attribute</text>
</g>
<!-- in taxon -->
<g id="node15" class="node">
<title>in taxon</title>
<ellipse fill="none" stroke="blue" cx="1657.69" cy="-18" rx="72.59" ry="18"/>
<text text-anchor="middle" x="1657.69" y="-14.3" font-family="Times,serif" font-size="14.00">system taxon</text>
</g>
<!-- faulty deployment exposure&#45;&gt;in taxon -->
<g id="edge12" class="edge">
<title>faulty deployment exposure&#45;&gt;in taxon</title>
<path fill="none" stroke="blue" d="M1083.98,-91.96C1101.19,-90.1 1118.95,-88.35 1135.69,-87 1303.78,-73.43 1349.15,-101.16 1514.69,-69 1549.1,-62.31 1586.44,-49.04 1614.33,-37.84"/>
<polygon fill="blue" stroke="blue" points="1615.85,-41.01 1623.79,-33.99 1613.2,-34.52 1615.85,-41.01"/>
<text text-anchor="middle" x="1596.69" y="-57.8" font-family="Times,serif" font-size="14.00">in taxon</text>
</g>
<!-- timepoint -->
<g id="node16" class="node">
<title>timepoint</title>
<ellipse fill="none" stroke="blue" cx="1803.69" cy="-18" rx="55.49" ry="18"/>
<text text-anchor="middle" x="1803.69" y="-14.3" font-family="Times,serif" font-size="14.00">time type</text>
</g>
<!-- faulty deployment exposure&#45;&gt;timepoint -->
<g id="edge13" class="edge">
<title>faulty deployment exposure&#45;&gt;timepoint</title>
<path fill="none" stroke="blue" d="M1083.17,-91.89C1100.62,-90.01 1118.68,-88.28 1135.69,-87 1354.77,-70.54 1412.73,-103.59 1629.69,-69 1674.32,-61.88 1723.72,-46.98 1758.44,-35.29"/>
<polygon fill="blue" stroke="blue" points="1759.94,-38.48 1768.27,-31.93 1757.68,-31.85 1759.94,-38.48"/>
<text text-anchor="middle" x="1728.69" y="-57.8" font-family="Times,serif" font-size="14.00">timepoint</text>
</g>
<!-- named thing_category -->
<g id="node12" class="node">
<title>named thing_category</title>
<ellipse fill="none" stroke="blue" cx="1214.69" cy="-105" rx="69.59" ry="18"/>
<text text-anchor="middle" x="1214.69" y="-101.3" font-family="Times,serif" font-size="14.00">named thing</text>
</g>
<!-- systemic entity_has attribute -->
<g id="node14" class="node">
<title>systemic entity_has attribute</title>
<ellipse fill="none" stroke="blue" cx="1354.69" cy="-105" rx="51.99" ry="18"/>
<text text-anchor="middle" x="1354.69" y="-101.3" font-family="Times,serif" font-size="14.00">attribute</text>
</g>
</g>
</svg>
