<?xml version="1.0" encoding="UTF-8" standalone="no"?>
<!DOCTYPE svg PUBLIC "-//W3C//DTD SVG 1.1//EN"
 "http://www.w3.org/Graphics/SVG/1.1/DTD/svg11.dtd">
<!-- Generated by graphviz version 2.43.0 (0)
 -->
<!-- Title: %3 Pages: 1 -->
<svg width="1674pt" height="131pt"
 viewBox="0.00 0.00 1674.48 131.00" xmlns="http://www.w3.org/2000/svg" xmlns:xlink="http://www.w3.org/1999/xlink">
<g id="graph0" class="graph" transform="scale(1 1) rotate(0) translate(4 127)">
<title>%3</title>
<polygon fill="white" stroke="transparent" points="-4,4 -4,-127 1670.48,-127 1670.48,4 -4,4"/>
<!-- faulty deployment outcome -->
<g id="node1" class="node">
<title>faulty deployment outcome</title>
<ellipse fill="none" stroke="black" cx="847.69" cy="-105" rx="137.58" ry="18"/>
<text text-anchor="middle" x="847.69" y="-101.3" font-family="Times,serif" font-size="14.00">faulty deployment outcome</text>
</g>
<!-- faulty deployment structure -->
<g id="node2" class="node">
<title>faulty deployment structure</title>
<ellipse fill="none" stroke="black" cx="141.69" cy="-18" rx="141.88" ry="18"/>
<text text-anchor="middle" x="141.69" y="-14.3" font-family="Times,serif" font-size="14.00">faulty deployment structure</text>
</g>
<!-- faulty deployment outcome&#45;&gt;faulty deployment structure -->
<g id="edge1" class="edge">
<title>faulty deployment outcome&#45;&gt;faulty deployment structure</title>
<path fill="none" stroke="black" d="M727.96,-96.03C647.66,-90.08 539.63,-80.94 444.69,-69 371.15,-59.75 288.13,-45.81 227.62,-34.99"/>
<polygon fill="black" stroke="black" points="228.18,-31.54 217.72,-33.21 226.95,-38.42 228.18,-31.54"/>
<text text-anchor="middle" x="458.69" y="-57.8" font-family="Times,serif" font-size="14.00">is_a</text>
</g>
<!-- outcome -->
<g id="node3" class="node">
<title>outcome</title>
<ellipse fill="none" stroke="black" cx="351.69" cy="-18" rx="50.09" ry="18"/>
<text text-anchor="middle" x="351.69" y="-14.3" font-family="Times,serif" font-size="14.00">outcome</text>
</g>
<!-- faulty deployment outcome&#45;&gt;outcome -->
<g id="edge2" class="edge">
<title>faulty deployment outcome&#45;&gt;outcome</title>
<path fill="none" stroke="black" d="M734.91,-94.61C677.16,-88.9 605.88,-80.47 542.69,-69 483.19,-58.2 469.08,-51.71 410.69,-36 406.86,-34.97 402.9,-33.88 398.92,-32.77"/>
<polygon fill="black" stroke="black" points="399.66,-29.34 389.09,-29.99 397.76,-36.08 399.66,-29.34"/>
<text text-anchor="middle" x="559.19" y="-57.8" font-family="Times,serif" font-size="14.00">uses</text>
</g>
<!-- id -->
<g id="node4" class="node">
<title>id</title>
<ellipse fill="none" stroke="blue" cx="457.69" cy="-18" rx="38.19" ry="18"/>
<text text-anchor="middle" x="457.69" y="-14.3" font-family="Times,serif" font-size="14.00">string</text>
</g>
<!-- faulty deployment outcome&#45;&gt;id -->
<g id="edge3" class="edge">
<title>faulty deployment outcome&#45;&gt;id</title>
<path fill="none" stroke="blue" d="M761.37,-90.88C691.66,-79.32 591.39,-60.5 505.69,-36 502.58,-35.11 499.39,-34.13 496.2,-33.11"/>
<polygon fill="blue" stroke="blue" points="497.29,-29.78 486.69,-29.92 495.06,-36.42 497.29,-29.78"/>
<text text-anchor="middle" x="643.69" y="-57.8" font-family="Times,serif" font-size="14.00">id</text>
</g>
<!-- iri -->
<g id="node5" class="node">
<title>iri</title>
<ellipse fill="none" stroke="blue" cx="558.69" cy="-18" rx="44.39" ry="18"/>
<text text-anchor="middle" x="558.69" y="-14.3" font-family="Times,serif" font-size="14.00">iri type</text>
</g>
<!-- faulty deployment outcome&#45;&gt;iri -->
<g id="edge4" class="edge">
<title>faulty deployment outcome&#45;&gt;iri</title>
<path fill="none" stroke="blue" d="M791.62,-88.54C770.05,-82.53 745.2,-75.53 722.69,-69 673.67,-54.78 661.48,-51 612.69,-36 609.19,-34.93 605.58,-33.81 601.94,-32.67"/>
<polygon fill="blue" stroke="blue" points="602.96,-29.32 592.37,-29.68 600.87,-36.01 602.96,-29.32"/>
<text text-anchor="middle" x="730.69" y="-57.8" font-family="Times,serif" font-size="14.00">iri</text>
</g>
<!-- type -->
<g id="node6" class="node">
<title>type</title>
<ellipse fill="none" stroke="blue" cx="659.69" cy="-18" rx="38.19" ry="18"/>
<text text-anchor="middle" x="659.69" y="-14.3" font-family="Times,serif" font-size="14.00">string</text>
</g>
<!-- faulty deployment outcome&#45;&gt;type -->
<g id="edge5" class="edge">
<title>faulty deployment outcome&#45;&gt;type</title>
<path fill="none" stroke="blue" d="M811.44,-87.61C778.13,-72.55 729.02,-50.35 695.77,-35.31"/>
<polygon fill="blue" stroke="blue" points="696.97,-32.01 686.41,-31.08 694.08,-38.39 696.97,-32.01"/>
<text text-anchor="middle" x="781.69" y="-57.8" font-family="Times,serif" font-size="14.00">type</text>
</g>
<!-- name -->
<g id="node7" class="node">
<title>name</title>
<ellipse fill="none" stroke="blue" cx="772.69" cy="-18" rx="56.59" ry="18"/>
<text text-anchor="middle" x="772.69" y="-14.3" font-family="Times,serif" font-size="14.00">label type</text>
</g>
<!-- faulty deployment outcome&#45;&gt;name -->
<g id="edge6" class="edge">
<title>faulty deployment outcome&#45;&gt;name</title>
<path fill="none" stroke="blue" d="M832.51,-86.8C821.49,-74.31 806.43,-57.24 794.17,-43.35"/>
<polygon fill="blue" stroke="blue" points="796.57,-40.78 787.33,-35.6 791.32,-45.41 796.57,-40.78"/>
<text text-anchor="middle" x="834.69" y="-57.8" font-family="Times,serif" font-size="14.00">name</text>
</g>
<!-- description -->
<g id="node8" class="node">
<title>description</title>
<ellipse fill="none" stroke="blue" cx="922.69" cy="-18" rx="75.29" ry="18"/>
<text text-anchor="middle" x="922.69" y="-14.3" font-family="Times,serif" font-size="14.00">narrative text</text>
</g>
<!-- faulty deployment outcome&#45;&gt;description -->
<g id="edge7" class="edge">
<title>faulty deployment outcome&#45;&gt;description</title>
<path fill="none" stroke="blue" d="M862.86,-86.8C873.81,-74.39 888.75,-57.46 900.97,-43.62"/>
<polygon fill="blue" stroke="blue" points="903.8,-45.7 907.79,-35.89 898.55,-41.07 903.8,-45.7"/>
<text text-anchor="middle" x="930.19" y="-57.8" font-family="Times,serif" font-size="14.00">description</text>
</g>
<!-- source -->
<g id="node9" class="node">
<title>source</title>
<ellipse fill="none" stroke="blue" cx="1072.69" cy="-18" rx="56.59" ry="18"/>
<text text-anchor="middle" x="1072.69" y="-14.3" font-family="Times,serif" font-size="14.00">label type</text>
</g>
<!-- faulty deployment outcome&#45;&gt;source -->
<g id="edge8" class="edge">
<title>faulty deployment outcome&#45;&gt;source</title>
<path fill="none" stroke="blue" d="M911.82,-89.04C932.2,-83.57 954.65,-76.78 974.69,-69 996.32,-60.6 1019.49,-48.92 1037.86,-38.95"/>
<polygon fill="blue" stroke="blue" points="1039.66,-41.96 1046.74,-34.07 1036.29,-35.83 1039.66,-41.96"/>
<text text-anchor="middle" x="1032.69" y="-57.8" font-family="Times,serif" font-size="14.00">source</text>
</g>
<!-- provided by -->
<g id="node10" class="node">
<title>provided by</title>
<ellipse fill="none" stroke="blue" cx="1184.69" cy="-18" rx="37.09" ry="18"/>
<text text-anchor="middle" x="1184.69" y="-14.3" font-family="Times,serif" font-size="14.00">agent</text>
</g>
<!-- faulty deployment outcome&#45;&gt;provided by -->
<g id="edge9" class="edge">
<title>faulty deployment outcome&#45;&gt;provided by</title>
<path fill="none" stroke="blue" d="M946.5,-92.39C982.79,-86.92 1023.97,-79.28 1060.69,-69 1091.67,-60.32 1125.45,-46.39 1149.92,-35.43"/>
<polygon fill="blue" stroke="blue" points="1151.48,-38.56 1159.14,-31.24 1148.59,-32.19 1151.48,-38.56"/>
<text text-anchor="middle" x="1145.19" y="-57.8" font-family="Times,serif" font-size="14.00">provided by</text>
</g>
<!-- category -->
<g id="node11" class="node">
<title>category</title>
<ellipse fill="none" stroke="black" cx="1290.69" cy="-18" rx="51.19" ry="18"/>
<text text-anchor="middle" x="1290.69" y="-14.3" font-family="Times,serif" font-size="14.00">category</text>
</g>
<!-- faulty deployment outcome&#45;&gt;category -->
<g id="edge10" class="edge">
<title>faulty deployment outcome&#45;&gt;category</title>
<path fill="none" stroke="blue" d="M945.43,-92.27C961.54,-90.44 978.08,-88.62 993.69,-87 1081.58,-77.89 1106.75,-93.35 1191.69,-69 1215.07,-62.3 1239.48,-50.03 1258.22,-39.33"/>
<polygon fill="blue" stroke="blue" points="1260.06,-42.3 1266.93,-34.23 1256.53,-36.26 1260.06,-42.3"/>
<text text-anchor="middle" x="1260.19" y="-57.8" font-family="Times,serif" font-size="14.00">category</text>
</g>
<!-- has attribute -->
<g id="node13" class="node">
<title>has attribute</title>
<ellipse fill="none" stroke="black" cx="1431.69" cy="-18" rx="71.49" ry="18"/>
<text text-anchor="middle" x="1431.69" y="-14.3" font-family="Times,serif" font-size="14.00">has attribute</text>
</g>
<!-- faulty deployment outcome&#45;&gt;has attribute -->
<g id="edge11" class="edge">
<title>faulty deployment outcome&#45;&gt;has attribute</title>
<path fill="none" stroke="blue" d="M943.81,-92.03C960.43,-90.18 977.55,-88.42 993.69,-87 1127.63,-75.22 1164.07,-96.49 1295.69,-69 1328.15,-62.22 1363.23,-49.17 1389.64,-38.1"/>
<polygon fill="blue" stroke="blue" points="1391.13,-41.27 1398.95,-34.12 1388.38,-34.83 1391.13,-41.27"/>
<text text-anchor="middle" x="1392.69" y="-57.8" font-family="Times,serif" font-size="14.00">has attribute</text>
</g>
<!-- in taxon -->
<g id="node15" class="node">
<title>in taxon</title>
<ellipse fill="none" stroke="blue" cx="1593.69" cy="-18" rx="72.59" ry="18"/>
<text text-anchor="middle" x="1593.69" y="-14.3" font-family="Times,serif" font-size="14.00">system taxon</text>
</g>
<!-- faulty deployment outcome&#45;&gt;in taxon -->
<g id="edge12" class="edge">
<title>faulty deployment outcome&#45;&gt;in taxon</title>
<path fill="none" stroke="blue" d="M942.61,-91.89C959.6,-90.02 977.15,-88.29 993.69,-87 1193.24,-71.41 1246.79,-105 1443.69,-69 1480.08,-62.35 1519.72,-48.84 1549.11,-37.54"/>
<polygon fill="blue" stroke="blue" points="1550.63,-40.71 1558.67,-33.81 1548.08,-34.19 1550.63,-40.71"/>
<text text-anchor="middle" x="1526.69" y="-57.8" font-family="Times,serif" font-size="14.00">in taxon</text>
</g>
<!-- named thing_category -->
<g id="node12" class="node">
<title>named thing_category</title>
<ellipse fill="none" stroke="blue" cx="1072.69" cy="-105" rx="69.59" ry="18"/>
<text text-anchor="middle" x="1072.69" y="-101.3" font-family="Times,serif" font-size="14.00">named thing</text>
</g>
<!-- systemic entity_has attribute -->
<g id="node14" class="node">
<title>systemic entity_has attribute</title>
<ellipse fill="none" stroke="blue" cx="1212.69" cy="-105" rx="51.99" ry="18"/>
<text text-anchor="middle" x="1212.69" y="-101.3" font-family="Times,serif" font-size="14.00">attribute</text>
</g>
</g>
</svg>
