<?xml version="1.0" encoding="UTF-8" standalone="no"?>
<!DOCTYPE svg PUBLIC "-//W3C//DTD SVG 1.1//EN"
 "http://www.w3.org/Graphics/SVG/1.1/DTD/svg11.dtd">
<!-- Generated by graphviz version 2.43.0 (0)
 -->
<!-- Title: %3 Pages: 1 -->
<svg width="1675pt" height="131pt"
 viewBox="0.00 0.00 1675.34 131.00" xmlns="http://www.w3.org/2000/svg" xmlns:xlink="http://www.w3.org/1999/xlink">
<g id="graph0" class="graph" transform="scale(1 1) rotate(0) translate(4 127)">
<title>%3</title>
<polygon fill="white" stroke="transparent" points="-4,4 -4,-127 1671.34,-127 1671.34,4 -4,4"/>
<!-- faulty deployment structure -->
<g id="node1" class="node">
<title>faulty deployment structure</title>
<ellipse fill="none" stroke="black" cx="848.54" cy="-105" rx="141.88" ry="18"/>
<text text-anchor="middle" x="848.54" y="-101.3" font-family="Times,serif" font-size="14.00">faulty deployment structure</text>
</g>
<!-- deployment entity -->
<g id="node2" class="node">
<title>deployment entity</title>
<ellipse fill="none" stroke="black" cx="95.54" cy="-18" rx="95.58" ry="18"/>
<text text-anchor="middle" x="95.54" y="-14.3" font-family="Times,serif" font-size="14.00">deployment entity</text>
</g>
<!-- faulty deployment structure&#45;&gt;deployment entity -->
<g id="edge1" class="edge">
<title>faulty deployment structure&#45;&gt;deployment entity</title>
<path fill="none" stroke="black" d="M727.6,-95.59C644.73,-89.39 532.34,-80.12 433.54,-69 329.17,-57.25 303.37,-51.81 199.54,-36 191.42,-34.76 182.94,-33.44 174.49,-32.09"/>
<polygon fill="black" stroke="black" points="175.02,-28.63 164.6,-30.51 173.92,-35.54 175.02,-28.63"/>
<text text-anchor="middle" x="447.54" y="-57.8" font-family="Times,serif" font-size="14.00">is_a</text>
</g>
<!-- faulty entity mixin -->
<g id="node3" class="node">
<title>faulty entity mixin</title>
<ellipse fill="none" stroke="black" cx="305.54" cy="-18" rx="96.68" ry="18"/>
<text text-anchor="middle" x="305.54" y="-14.3" font-family="Times,serif" font-size="14.00">faulty entity mixin</text>
</g>
<!-- faulty deployment structure&#45;&gt;faulty entity mixin -->
<g id="edge2" class="edge">
<title>faulty deployment structure&#45;&gt;faulty entity mixin</title>
<path fill="none" stroke="black" d="M737.37,-93.75C679.41,-87.77 607.47,-79.36 543.54,-69 485.57,-59.6 420.32,-45.66 372.83,-34.88"/>
<polygon fill="black" stroke="black" points="373.5,-31.44 362.97,-32.63 371.94,-38.27 373.5,-31.44"/>
<text text-anchor="middle" x="560.04" y="-57.8" font-family="Times,serif" font-size="14.00">uses</text>
</g>
<!-- id -->
<g id="node4" class="node">
<title>id</title>
<ellipse fill="none" stroke="blue" cx="458.54" cy="-18" rx="38.19" ry="18"/>
<text text-anchor="middle" x="458.54" y="-14.3" font-family="Times,serif" font-size="14.00">string</text>
</g>
<!-- faulty deployment structure&#45;&gt;id -->
<g id="edge3" class="edge">
<title>faulty deployment structure&#45;&gt;id</title>
<path fill="none" stroke="blue" d="M761.51,-90.76C691.83,-79.19 591.96,-60.42 506.54,-36 503.44,-35.11 500.25,-34.13 497.05,-33.11"/>
<polygon fill="blue" stroke="blue" points="498.14,-29.78 487.55,-29.92 495.92,-36.42 498.14,-29.78"/>
<text text-anchor="middle" x="644.54" y="-57.8" font-family="Times,serif" font-size="14.00">id</text>
</g>
<!-- iri -->
<g id="node5" class="node">
<title>iri</title>
<ellipse fill="none" stroke="blue" cx="559.54" cy="-18" rx="44.39" ry="18"/>
<text text-anchor="middle" x="559.54" y="-14.3" font-family="Times,serif" font-size="14.00">iri type</text>
</g>
<!-- faulty deployment structure&#45;&gt;iri -->
<g id="edge4" class="edge">
<title>faulty deployment structure&#45;&gt;iri</title>
<path fill="none" stroke="blue" d="M792.17,-88.45C770.66,-82.46 745.94,-75.5 723.54,-69 674.52,-54.78 662.33,-51 613.54,-36 610.05,-34.93 606.43,-33.81 602.8,-32.67"/>
<polygon fill="blue" stroke="blue" points="603.81,-29.32 593.22,-29.68 601.72,-36.01 603.81,-29.32"/>
<text text-anchor="middle" x="731.54" y="-57.8" font-family="Times,serif" font-size="14.00">iri</text>
</g>
<!-- type -->
<g id="node6" class="node">
<title>type</title>
<ellipse fill="none" stroke="blue" cx="660.54" cy="-18" rx="38.19" ry="18"/>
<text text-anchor="middle" x="660.54" y="-14.3" font-family="Times,serif" font-size="14.00">string</text>
</g>
<!-- faulty deployment structure&#45;&gt;type -->
<g id="edge5" class="edge">
<title>faulty deployment structure&#45;&gt;type</title>
<path fill="none" stroke="blue" d="M811.85,-87.41C778.49,-72.33 729.56,-50.2 696.45,-35.23"/>
<polygon fill="blue" stroke="blue" points="697.69,-31.95 687.13,-31.02 694.8,-38.33 697.69,-31.95"/>
<text text-anchor="middle" x="782.54" y="-57.8" font-family="Times,serif" font-size="14.00">type</text>
</g>
<!-- name -->
<g id="node7" class="node">
<title>name</title>
<ellipse fill="none" stroke="blue" cx="773.54" cy="-18" rx="56.59" ry="18"/>
<text text-anchor="middle" x="773.54" y="-14.3" font-family="Times,serif" font-size="14.00">label type</text>
</g>
<!-- faulty deployment structure&#45;&gt;name -->
<g id="edge6" class="edge">
<title>faulty deployment structure&#45;&gt;name</title>
<path fill="none" stroke="blue" d="M833.36,-86.8C822.34,-74.31 807.28,-57.24 795.02,-43.35"/>
<polygon fill="blue" stroke="blue" points="797.43,-40.78 788.19,-35.6 792.18,-45.41 797.43,-40.78"/>
<text text-anchor="middle" x="835.54" y="-57.8" font-family="Times,serif" font-size="14.00">name</text>
</g>
<!-- description -->
<g id="node8" class="node">
<title>description</title>
<ellipse fill="none" stroke="blue" cx="923.54" cy="-18" rx="75.29" ry="18"/>
<text text-anchor="middle" x="923.54" y="-14.3" font-family="Times,serif" font-size="14.00">narrative text</text>
</g>
<!-- faulty deployment structure&#45;&gt;description -->
<g id="edge7" class="edge">
<title>faulty deployment structure&#45;&gt;description</title>
<path fill="none" stroke="blue" d="M863.72,-86.8C874.67,-74.39 889.61,-57.46 901.82,-43.62"/>
<polygon fill="blue" stroke="blue" points="904.65,-45.7 908.64,-35.89 899.4,-41.07 904.65,-45.7"/>
<text text-anchor="middle" x="931.04" y="-57.8" font-family="Times,serif" font-size="14.00">description</text>
</g>
<!-- source -->
<g id="node9" class="node">
<title>source</title>
<ellipse fill="none" stroke="blue" cx="1073.54" cy="-18" rx="56.59" ry="18"/>
<text text-anchor="middle" x="1073.54" y="-14.3" font-family="Times,serif" font-size="14.00">label type</text>
</g>
<!-- faulty deployment structure&#45;&gt;source -->
<g id="edge8" class="edge">
<title>faulty deployment structure&#45;&gt;source</title>
<path fill="none" stroke="blue" d="M913,-88.95C933.29,-83.49 955.61,-76.74 975.54,-69 997.17,-60.6 1020.34,-48.92 1038.72,-38.95"/>
<polygon fill="blue" stroke="blue" points="1040.51,-41.96 1047.59,-34.07 1037.14,-35.83 1040.51,-41.96"/>
<text text-anchor="middle" x="1033.54" y="-57.8" font-family="Times,serif" font-size="14.00">source</text>
</g>
<!-- provided by -->
<g id="node10" class="node">
<title>provided by</title>
<ellipse fill="none" stroke="blue" cx="1185.54" cy="-18" rx="37.09" ry="18"/>
<text text-anchor="middle" x="1185.54" y="-14.3" font-family="Times,serif" font-size="14.00">agent</text>
</g>
<!-- faulty deployment structure&#45;&gt;provided by -->
<g id="edge9" class="edge">
<title>faulty deployment structure&#45;&gt;provided by</title>
<path fill="none" stroke="blue" d="M948.42,-92.23C984.45,-86.77 1025.18,-79.18 1061.54,-69 1092.52,-60.32 1126.3,-46.39 1150.77,-35.43"/>
<polygon fill="blue" stroke="blue" points="1152.34,-38.56 1160,-31.24 1149.44,-32.19 1152.34,-38.56"/>
<text text-anchor="middle" x="1146.04" y="-57.8" font-family="Times,serif" font-size="14.00">provided by</text>
</g>
<!-- category -->
<g id="node11" class="node">
<title>category</title>
<ellipse fill="none" stroke="black" cx="1291.54" cy="-18" rx="51.19" ry="18"/>
<text text-anchor="middle" x="1291.54" y="-14.3" font-family="Times,serif" font-size="14.00">category</text>
</g>
<!-- faulty deployment structure&#45;&gt;category -->
<g id="edge10" class="edge">
<title>faulty deployment structure&#45;&gt;category</title>
<path fill="none" stroke="blue" d="M949.37,-92.29C965.8,-90.46 982.64,-88.64 998.54,-87 1084.68,-78.12 1109.32,-92.94 1192.54,-69 1215.92,-62.28 1240.33,-50.01 1259.07,-39.31"/>
<polygon fill="blue" stroke="blue" points="1260.91,-42.29 1267.78,-34.22 1257.38,-36.25 1260.91,-42.29"/>
<text text-anchor="middle" x="1261.04" y="-57.8" font-family="Times,serif" font-size="14.00">category</text>
</g>
<!-- has attribute -->
<g id="node13" class="node">
<title>has attribute</title>
<ellipse fill="none" stroke="black" cx="1432.54" cy="-18" rx="71.49" ry="18"/>
<text text-anchor="middle" x="1432.54" y="-14.3" font-family="Times,serif" font-size="14.00">has attribute</text>
</g>
<!-- faulty deployment structure&#45;&gt;has attribute -->
<g id="edge11" class="edge">
<title>faulty deployment structure&#45;&gt;has attribute</title>
<path fill="none" stroke="blue" d="M947.31,-92.06C964.38,-90.21 981.96,-88.44 998.54,-87 1130.73,-75.53 1166.67,-96.18 1296.54,-69 1329,-62.21 1364.09,-49.15 1390.49,-38.09"/>
<polygon fill="blue" stroke="blue" points="1391.98,-41.26 1399.81,-34.12 1389.24,-34.82 1391.98,-41.26"/>
<text text-anchor="middle" x="1393.54" y="-57.8" font-family="Times,serif" font-size="14.00">has attribute</text>
</g>
<!-- in taxon -->
<g id="node15" class="node">
<title>in taxon</title>
<ellipse fill="none" stroke="blue" cx="1594.54" cy="-18" rx="72.59" ry="18"/>
<text text-anchor="middle" x="1594.54" y="-14.3" font-family="Times,serif" font-size="14.00">system taxon</text>
</g>
<!-- faulty deployment structure&#45;&gt;in taxon -->
<g id="edge12" class="edge">
<title>faulty deployment structure&#45;&gt;in taxon</title>
<path fill="none" stroke="blue" d="M946.08,-91.91C963.53,-90.04 981.56,-88.3 998.54,-87 1196.34,-71.82 1249.4,-104.72 1444.54,-69 1480.93,-62.34 1520.58,-48.83 1549.97,-37.54"/>
<polygon fill="blue" stroke="blue" points="1551.48,-40.7 1559.52,-33.8 1548.93,-34.18 1551.48,-40.7"/>
<text text-anchor="middle" x="1527.54" y="-57.8" font-family="Times,serif" font-size="14.00">in taxon</text>
</g>
<!-- named thing_category -->
<g id="node12" class="node">
<title>named thing_category</title>
<ellipse fill="none" stroke="blue" cx="1077.54" cy="-105" rx="69.59" ry="18"/>
<text text-anchor="middle" x="1077.54" y="-101.3" font-family="Times,serif" font-size="14.00">named thing</text>
</g>
<!-- systemic entity_has attribute -->
<g id="node14" class="node">
<title>systemic entity_has attribute</title>
<ellipse fill="none" stroke="blue" cx="1217.54" cy="-105" rx="51.99" ry="18"/>
<text text-anchor="middle" x="1217.54" y="-101.3" font-family="Times,serif" font-size="14.00">attribute</text>
</g>
</g>
</svg>
