<?xml version="1.0" encoding="UTF-8" standalone="no"?>
<!DOCTYPE svg PUBLIC "-//W3C//DTD SVG 1.1//EN"
 "http://www.w3.org/Graphics/SVG/1.1/DTD/svg11.dtd">
<!-- Generated by graphviz version 2.43.0 (0)
 -->
<!-- Title: %3 Pages: 1 -->
<svg width="1998pt" height="131pt"
 viewBox="0.00 0.00 1998.29 131.00" xmlns="http://www.w3.org/2000/svg" xmlns:xlink="http://www.w3.org/1999/xlink">
<g id="graph0" class="graph" transform="scale(1 1) rotate(0) translate(4 127)">
<title>%3</title>
<polygon fill="white" stroke="transparent" points="-4,4 -4,-127 1994.29,-127 1994.29,4 -4,4"/>
<!-- faulty process exposure -->
<g id="node1" class="node">
<title>faulty process exposure</title>
<ellipse fill="none" stroke="black" cx="1005.04" cy="-105" rx="121.58" ry="18"/>
<text text-anchor="middle" x="1005.04" y="-101.3" font-family="Times,serif" font-size="14.00">faulty process exposure</text>
</g>
<!-- faulty process -->
<g id="node2" class="node">
<title>faulty process</title>
<ellipse fill="none" stroke="black" cx="76.04" cy="-18" rx="76.09" ry="18"/>
<text text-anchor="middle" x="76.04" y="-14.3" font-family="Times,serif" font-size="14.00">faulty process</text>
</g>
<!-- faulty process exposure&#45;&gt;faulty process -->
<g id="edge1" class="edge">
<title>faulty process exposure&#45;&gt;faulty process</title>
<path fill="none" stroke="black" d="M885.74,-101.41C756.22,-97.7 543.45,-88.94 361.04,-69 284.73,-60.66 197.96,-44.46 140.42,-32.75"/>
<polygon fill="black" stroke="black" points="140.88,-29.27 130.38,-30.7 139.47,-36.13 140.88,-29.27"/>
<text text-anchor="middle" x="375.04" y="-57.8" font-family="Times,serif" font-size="14.00">is_a</text>
</g>
<!-- exposure event -->
<g id="node3" class="node">
<title>exposure event</title>
<ellipse fill="none" stroke="black" cx="252.04" cy="-18" rx="81.79" ry="18"/>
<text text-anchor="middle" x="252.04" y="-14.3" font-family="Times,serif" font-size="14.00">exposure event</text>
</g>
<!-- faulty process exposure&#45;&gt;exposure event -->
<g id="edge2" class="edge">
<title>faulty process exposure&#45;&gt;exposure event</title>
<path fill="none" stroke="black" d="M885.44,-101.59C776.84,-98.12 612.5,-89.65 471.04,-69 416.09,-60.98 354.51,-46.41 310.67,-35.06"/>
<polygon fill="black" stroke="black" points="311.33,-31.61 300.77,-32.47 309.56,-38.38 311.33,-31.61"/>
<text text-anchor="middle" x="487.54" y="-57.8" font-family="Times,serif" font-size="14.00">uses</text>
</g>
<!-- id -->
<g id="node4" class="node">
<title>id</title>
<ellipse fill="none" stroke="blue" cx="390.04" cy="-18" rx="38.19" ry="18"/>
<text text-anchor="middle" x="390.04" y="-14.3" font-family="Times,serif" font-size="14.00">string</text>
</g>
<!-- faulty process exposure&#45;&gt;id -->
<g id="edge3" class="edge">
<title>faulty process exposure&#45;&gt;id</title>
<path fill="none" stroke="blue" d="M892.53,-98.18C809.69,-92.98 694.46,-83.84 594.04,-69 523.94,-58.64 506.26,-55.2 438.04,-36 434.94,-35.13 431.74,-34.15 428.54,-33.13"/>
<polygon fill="blue" stroke="blue" points="429.63,-29.81 419.04,-29.96 427.41,-36.45 429.63,-29.81"/>
<text text-anchor="middle" x="601.04" y="-57.8" font-family="Times,serif" font-size="14.00">id</text>
</g>
<!-- iri -->
<g id="node5" class="node">
<title>iri</title>
<ellipse fill="none" stroke="blue" cx="491.04" cy="-18" rx="44.39" ry="18"/>
<text text-anchor="middle" x="491.04" y="-14.3" font-family="Times,serif" font-size="14.00">iri type</text>
</g>
<!-- faulty process exposure&#45;&gt;iri -->
<g id="edge4" class="edge">
<title>faulty process exposure&#45;&gt;iri</title>
<path fill="none" stroke="blue" d="M900.13,-95.88C837.2,-90.19 755.72,-81.37 684.04,-69 621.47,-58.2 606.25,-52.88 545.04,-36 541.47,-35.01 537.78,-33.95 534.08,-32.85"/>
<polygon fill="blue" stroke="blue" points="534.93,-29.45 524.35,-29.9 532.9,-36.15 534.93,-29.45"/>
<text text-anchor="middle" x="692.04" y="-57.8" font-family="Times,serif" font-size="14.00">iri</text>
</g>
<!-- type -->
<g id="node6" class="node">
<title>type</title>
<ellipse fill="none" stroke="blue" cx="592.04" cy="-18" rx="38.19" ry="18"/>
<text text-anchor="middle" x="592.04" y="-14.3" font-family="Times,serif" font-size="14.00">string</text>
</g>
<!-- faulty process exposure&#45;&gt;type -->
<g id="edge5" class="edge">
<title>faulty process exposure&#45;&gt;type</title>
<path fill="none" stroke="blue" d="M916.58,-92.6C873.17,-86.51 820.19,-78.34 773.04,-69 712.88,-57.08 697.74,-53.79 639.04,-36 636.28,-35.16 633.44,-34.26 630.59,-33.31"/>
<polygon fill="blue" stroke="blue" points="631.56,-29.94 620.97,-30 629.29,-36.56 631.56,-29.94"/>
<text text-anchor="middle" x="789.04" y="-57.8" font-family="Times,serif" font-size="14.00">type</text>
</g>
<!-- name -->
<g id="node7" class="node">
<title>name</title>
<ellipse fill="none" stroke="blue" cx="705.04" cy="-18" rx="56.59" ry="18"/>
<text text-anchor="middle" x="705.04" y="-14.3" font-family="Times,serif" font-size="14.00">label type</text>
</g>
<!-- faulty process exposure&#45;&gt;name -->
<g id="edge6" class="edge">
<title>faulty process exposure&#45;&gt;name</title>
<path fill="none" stroke="blue" d="M938.17,-89.95C911.81,-84.03 881.36,-76.73 854.04,-69 818.9,-59.05 779.76,-45.84 750.43,-35.49"/>
<polygon fill="blue" stroke="blue" points="751.47,-32.15 740.87,-32.1 749.13,-38.74 751.47,-32.15"/>
<text text-anchor="middle" x="874.04" y="-57.8" font-family="Times,serif" font-size="14.00">name</text>
</g>
<!-- description -->
<g id="node8" class="node">
<title>description</title>
<ellipse fill="none" stroke="blue" cx="855.04" cy="-18" rx="75.29" ry="18"/>
<text text-anchor="middle" x="855.04" y="-14.3" font-family="Times,serif" font-size="14.00">narrative text</text>
</g>
<!-- faulty process exposure&#45;&gt;description -->
<g id="edge7" class="edge">
<title>faulty process exposure&#45;&gt;description</title>
<path fill="none" stroke="blue" d="M960.31,-88.17C947,-82.78 932.62,-76.26 920.04,-69 906.65,-61.27 892.91,-51.1 881.54,-41.95"/>
<polygon fill="blue" stroke="blue" points="883.67,-39.16 873.72,-35.52 879.22,-44.57 883.67,-39.16"/>
<text text-anchor="middle" x="960.54" y="-57.8" font-family="Times,serif" font-size="14.00">description</text>
</g>
<!-- source -->
<g id="node9" class="node">
<title>source</title>
<ellipse fill="none" stroke="blue" cx="1005.04" cy="-18" rx="56.59" ry="18"/>
<text text-anchor="middle" x="1005.04" y="-14.3" font-family="Times,serif" font-size="14.00">label type</text>
</g>
<!-- faulty process exposure&#45;&gt;source -->
<g id="edge8" class="edge">
<title>faulty process exposure&#45;&gt;source</title>
<path fill="none" stroke="blue" d="M1005.04,-86.8C1005.04,-75.16 1005.04,-59.55 1005.04,-46.24"/>
<polygon fill="blue" stroke="blue" points="1008.54,-46.18 1005.04,-36.18 1001.54,-46.18 1008.54,-46.18"/>
<text text-anchor="middle" x="1029.04" y="-57.8" font-family="Times,serif" font-size="14.00">source</text>
</g>
<!-- provided by -->
<g id="node10" class="node">
<title>provided by</title>
<ellipse fill="none" stroke="blue" cx="1117.04" cy="-18" rx="37.09" ry="18"/>
<text text-anchor="middle" x="1117.04" y="-14.3" font-family="Times,serif" font-size="14.00">agent</text>
</g>
<!-- faulty process exposure&#45;&gt;provided by -->
<g id="edge9" class="edge">
<title>faulty process exposure&#45;&gt;provided by</title>
<path fill="none" stroke="blue" d="M1031.06,-87.24C1039.48,-81.62 1048.77,-75.2 1057.04,-69 1068.89,-60.12 1081.54,-49.72 1092.16,-40.71"/>
<polygon fill="blue" stroke="blue" points="1094.51,-43.3 1099.84,-34.14 1089.96,-37.98 1094.51,-43.3"/>
<text text-anchor="middle" x="1118.54" y="-57.8" font-family="Times,serif" font-size="14.00">provided by</text>
</g>
<!-- has attribute -->
<g id="node11" class="node">
<title>has attribute</title>
<ellipse fill="none" stroke="blue" cx="1224.04" cy="-18" rx="51.99" ry="18"/>
<text text-anchor="middle" x="1224.04" y="-14.3" font-family="Times,serif" font-size="14.00">attribute</text>
</g>
<!-- faulty process exposure&#45;&gt;has attribute -->
<g id="edge10" class="edge">
<title>faulty process exposure&#45;&gt;has attribute</title>
<path fill="none" stroke="blue" d="M1093.59,-92.62C1117.58,-87.43 1143,-79.9 1165.04,-69 1178.47,-62.36 1191.4,-52.01 1201.72,-42.45"/>
<polygon fill="blue" stroke="blue" points="1204.29,-44.83 1209.06,-35.36 1199.43,-39.79 1204.29,-44.83"/>
<text text-anchor="middle" x="1236.04" y="-57.8" font-family="Times,serif" font-size="14.00">has attribute</text>
</g>
<!-- category -->
<g id="node12" class="node">
<title>category</title>
<ellipse fill="none" stroke="black" cx="1345.04" cy="-18" rx="51.19" ry="18"/>
<text text-anchor="middle" x="1345.04" y="-14.3" font-family="Times,serif" font-size="14.00">category</text>
</g>
<!-- faulty process exposure&#45;&gt;category -->
<g id="edge11" class="edge">
<title>faulty process exposure&#45;&gt;category</title>
<path fill="none" stroke="blue" d="M1092.43,-92.42C1106.67,-90.58 1121.27,-88.72 1135.04,-87 1202.55,-78.59 1224.78,-96.41 1287.04,-69 1300.81,-62.94 1313.74,-52.47 1323.88,-42.67"/>
<polygon fill="blue" stroke="blue" points="1326.53,-44.97 1331.06,-35.39 1321.55,-40.05 1326.53,-44.97"/>
<text text-anchor="middle" x="1342.54" y="-57.8" font-family="Times,serif" font-size="14.00">category</text>
</g>
<!-- has input -->
<g id="node14" class="node">
<title>has input</title>
<ellipse fill="none" stroke="blue" cx="1484.04" cy="-18" rx="69.59" ry="18"/>
<text text-anchor="middle" x="1484.04" y="-14.3" font-family="Times,serif" font-size="14.00">named thing</text>
</g>
<!-- faulty process exposure&#45;&gt;has input -->
<g id="edge12" class="edge">
<title>faulty process exposure&#45;&gt;has input</title>
<path fill="none" stroke="blue" d="M1090.28,-92.16C1105.18,-90.29 1120.55,-88.48 1135.04,-87 1242.78,-75.97 1273.31,-96.56 1378.04,-69 1402.67,-62.52 1428.56,-50.42 1448.59,-39.75"/>
<polygon fill="blue" stroke="blue" points="1450.53,-42.68 1457.63,-34.81 1447.18,-36.53 1450.53,-42.68"/>
<text text-anchor="middle" x="1451.54" y="-57.8" font-family="Times,serif" font-size="14.00">has input</text>
</g>
<!-- has output -->
<g id="node15" class="node">
<title>has output</title>
<ellipse fill="none" stroke="blue" cx="1641.04" cy="-18" rx="69.59" ry="18"/>
<text text-anchor="middle" x="1641.04" y="-14.3" font-family="Times,serif" font-size="14.00">named thing</text>
</g>
<!-- faulty process exposure&#45;&gt;has output -->
<g id="edge13" class="edge">
<title>faulty process exposure&#45;&gt;has output</title>
<path fill="none" stroke="blue" d="M1089.2,-92.01C1104.44,-90.12 1120.2,-88.35 1135.04,-87 1291.94,-72.78 1334.17,-97.87 1489.04,-69 1525.97,-62.12 1566.29,-48.56 1596.12,-37.29"/>
<polygon fill="blue" stroke="blue" points="1597.73,-40.42 1605.82,-33.57 1595.23,-33.89 1597.73,-40.42"/>
<text text-anchor="middle" x="1583.54" y="-57.8" font-family="Times,serif" font-size="14.00">has output</text>
</g>
<!-- enabled by -->
<g id="node16" class="node">
<title>enabled by</title>
<ellipse fill="none" stroke="blue" cx="1795.04" cy="-18" rx="66.89" ry="18"/>
<text text-anchor="middle" x="1795.04" y="-14.3" font-family="Times,serif" font-size="14.00">cyber entity</text>
</g>
<!-- faulty process exposure&#45;&gt;enabled by -->
<g id="edge14" class="edge">
<title>faulty process exposure&#45;&gt;enabled by</title>
<path fill="none" stroke="blue" d="M1088.84,-91.87C1104.18,-89.99 1120.07,-88.25 1135.04,-87 1352.65,-68.82 1410.54,-104.25 1626.04,-69 1668.23,-62.1 1714.7,-47.84 1748.22,-36.31"/>
<polygon fill="blue" stroke="blue" points="1749.46,-39.58 1757.75,-32.98 1747.16,-32.97 1749.46,-39.58"/>
<text text-anchor="middle" x="1727.54" y="-57.8" font-family="Times,serif" font-size="14.00">enabled by</text>
</g>
<!-- timepoint -->
<g id="node17" class="node">
<title>timepoint</title>
<ellipse fill="none" stroke="blue" cx="1935.04" cy="-18" rx="55.49" ry="18"/>
<text text-anchor="middle" x="1935.04" y="-14.3" font-family="Times,serif" font-size="14.00">time type</text>
</g>
<!-- faulty process exposure&#45;&gt;timepoint -->
<g id="edge15" class="edge">
<title>faulty process exposure&#45;&gt;timepoint</title>
<path fill="none" stroke="blue" d="M1088.13,-91.86C1103.69,-89.95 1119.84,-88.21 1135.04,-87 1275.99,-75.82 1631.51,-91.82 1771.04,-69 1812.84,-62.16 1858.84,-47.48 1891.45,-35.79"/>
<polygon fill="blue" stroke="blue" points="1892.93,-38.98 1901.13,-32.27 1890.53,-32.4 1892.93,-38.98"/>
<text text-anchor="middle" x="1870.04" y="-57.8" font-family="Times,serif" font-size="14.00">timepoint</text>
</g>
<!-- named thing_category -->
<g id="node13" class="node">
<title>named thing_category</title>
<ellipse fill="none" stroke="blue" cx="1214.04" cy="-105" rx="69.59" ry="18"/>
<text text-anchor="middle" x="1214.04" y="-101.3" font-family="Times,serif" font-size="14.00">named thing</text>
</g>
</g>
</svg>
