<?xml version="1.0" encoding="UTF-8" standalone="no"?>
<!DOCTYPE svg PUBLIC "-//W3C//DTD SVG 1.1//EN"
 "http://www.w3.org/Graphics/SVG/1.1/DTD/svg11.dtd">
<!-- Generated by graphviz version 2.43.0 (0)
 -->
<!-- Title: %3 Pages: 1 -->
<svg width="982pt" height="131pt"
 viewBox="0.00 0.00 981.54 131.00" xmlns="http://www.w3.org/2000/svg" xmlns:xlink="http://www.w3.org/1999/xlink">
<g id="graph0" class="graph" transform="scale(1 1) rotate(0) translate(4 127)">
<title>%3</title>
<polygon fill="white" stroke="transparent" points="-4,4 -4,-127 977.54,-127 977.54,4 -4,4"/>
<!-- frequency value -->
<g id="node1" class="node">
<title>frequency value</title>
<ellipse fill="none" stroke="black" cx="443" cy="-105" rx="85.29" ry="18"/>
<text text-anchor="middle" x="443" y="-101.3" font-family="Times,serif" font-size="14.00">frequency value</text>
</g>
<!-- attribute -->
<g id="node2" class="node">
<title>attribute</title>
<ellipse fill="none" stroke="black" cx="52" cy="-18" rx="51.99" ry="18"/>
<text text-anchor="middle" x="52" y="-14.3" font-family="Times,serif" font-size="14.00">attribute</text>
</g>
<!-- frequency value&#45;&gt;attribute -->
<g id="edge1" class="edge">
<title>frequency value&#45;&gt;attribute</title>
<path fill="none" stroke="black" d="M365.25,-97.51C314.79,-92.26 247.89,-83.32 190,-69 156.51,-60.72 119.85,-47.21 92.73,-36.32"/>
<polygon fill="black" stroke="black" points="93.78,-32.97 83.2,-32.45 91.14,-39.46 93.78,-32.97"/>
<text text-anchor="middle" x="204" y="-57.8" font-family="Times,serif" font-size="14.00">is_a</text>
</g>
<!-- name -->
<g id="node3" class="node">
<title>name</title>
<ellipse fill="none" stroke="black" cx="158" cy="-18" rx="36.29" ry="18"/>
<text text-anchor="middle" x="158" y="-14.3" font-family="Times,serif" font-size="14.00">name</text>
</g>
<!-- frequency value&#45;&gt;name -->
<g id="edge2" class="edge">
<title>frequency value&#45;&gt;name</title>
<path fill="none" stroke="blue" d="M369.9,-95.63C334.29,-90.26 291.23,-81.82 254,-69 231.04,-61.1 206.81,-48.44 188.44,-37.84"/>
<polygon fill="blue" stroke="blue" points="190.05,-34.73 179.66,-32.67 186.5,-40.76 190.05,-34.73"/>
<text text-anchor="middle" x="274" y="-57.8" font-family="Times,serif" font-size="14.00">name</text>
</g>
<!-- has attribute type -->
<g id="node5" class="node">
<title>has attribute type</title>
<ellipse fill="none" stroke="blue" cx="289" cy="-18" rx="76.89" ry="18"/>
<text text-anchor="middle" x="289" y="-14.3" font-family="Times,serif" font-size="14.00">ontology class</text>
</g>
<!-- frequency value&#45;&gt;has attribute type -->
<g id="edge3" class="edge">
<title>frequency value&#45;&gt;has attribute type</title>
<path fill="none" stroke="blue" d="M366.09,-97.11C345.25,-91.99 324.04,-83.38 308,-69 301.24,-62.94 296.87,-54.22 294.05,-45.75"/>
<polygon fill="blue" stroke="blue" points="297.42,-44.82 291.41,-36.1 290.67,-46.67 297.42,-44.82"/>
<text text-anchor="middle" x="373" y="-57.8" font-family="Times,serif" font-size="14.00">has attribute type</text>
</g>
<!-- has quantitative value -->
<g id="node6" class="node">
<title>has quantitative value</title>
<ellipse fill="none" stroke="blue" cx="461" cy="-18" rx="77.19" ry="18"/>
<text text-anchor="middle" x="461" y="-14.3" font-family="Times,serif" font-size="14.00">quantity value</text>
</g>
<!-- frequency value&#45;&gt;has quantitative value -->
<g id="edge4" class="edge">
<title>frequency value&#45;&gt;has quantitative value</title>
<path fill="none" stroke="blue" d="M441.53,-86.64C441.15,-76.91 441.44,-64.64 444,-54 444.69,-51.11 445.65,-48.17 446.76,-45.3"/>
<polygon fill="blue" stroke="blue" points="450.08,-46.45 450.97,-35.89 443.69,-43.59 450.08,-46.45"/>
<text text-anchor="middle" x="524" y="-57.8" font-family="Times,serif" font-size="14.00">has quantitative value</text>
</g>
<!-- has qualitative value -->
<g id="node7" class="node">
<title>has qualitative value</title>
<ellipse fill="none" stroke="blue" cx="626" cy="-18" rx="69.59" ry="18"/>
<text text-anchor="middle" x="626" y="-14.3" font-family="Times,serif" font-size="14.00">named thing</text>
</g>
<!-- frequency value&#45;&gt;has qualitative value -->
<g id="edge5" class="edge">
<title>frequency value&#45;&gt;has qualitative value</title>
<path fill="none" stroke="blue" d="M503.49,-92.18C547.44,-83.37 599.93,-72.33 604,-69 611.17,-63.13 616.08,-54.46 619.4,-45.97"/>
<polygon fill="blue" stroke="blue" points="622.79,-46.87 622.61,-36.28 616.14,-44.67 622.79,-46.87"/>
<text text-anchor="middle" x="690.5" y="-57.8" font-family="Times,serif" font-size="14.00">has qualitative value</text>
</g>
<!-- iri -->
<g id="node8" class="node">
<title>iri</title>
<ellipse fill="none" stroke="blue" cx="798" cy="-18" rx="44.39" ry="18"/>
<text text-anchor="middle" x="798" y="-14.3" font-family="Times,serif" font-size="14.00">iri type</text>
</g>
<!-- frequency value&#45;&gt;iri -->
<g id="edge6" class="edge">
<title>frequency value&#45;&gt;iri</title>
<path fill="none" stroke="blue" d="M503.03,-92.21C514.28,-90.26 525.98,-88.42 537,-87 588.28,-80.39 725.22,-96.53 769,-69 777.82,-63.45 784.26,-54.17 788.8,-45.1"/>
<polygon fill="blue" stroke="blue" points="792.03,-46.45 792.85,-35.89 785.62,-43.63 792.03,-46.45"/>
<text text-anchor="middle" x="792" y="-57.8" font-family="Times,serif" font-size="14.00">iri</text>
</g>
<!-- source -->
<g id="node9" class="node">
<title>source</title>
<ellipse fill="none" stroke="blue" cx="917" cy="-18" rx="56.59" ry="18"/>
<text text-anchor="middle" x="917" y="-14.3" font-family="Times,serif" font-size="14.00">label type</text>
</g>
<!-- frequency value&#45;&gt;source -->
<g id="edge7" class="edge">
<title>frequency value&#45;&gt;source</title>
<path fill="none" stroke="blue" d="M502.77,-92.16C514.1,-90.21 525.89,-88.37 537,-87 655.03,-72.39 688.52,-97.5 804,-69 830.85,-62.37 859.31,-49.74 880.96,-38.83"/>
<polygon fill="blue" stroke="blue" points="882.8,-41.82 890.09,-34.13 879.6,-35.59 882.8,-41.82"/>
<text text-anchor="middle" x="870" y="-57.8" font-family="Times,serif" font-size="14.00">source</text>
</g>
<!-- attribute_name -->
<g id="node4" class="node">
<title>attribute_name</title>
<ellipse fill="none" stroke="blue" cx="603" cy="-105" rx="56.59" ry="18"/>
<text text-anchor="middle" x="603" y="-101.3" font-family="Times,serif" font-size="14.00">label type</text>
</g>
</g>
</svg>
