<?xml version="1.0" encoding="UTF-8" standalone="no"?>
<!DOCTYPE svg PUBLIC "-//W3C//DTD SVG 1.1//EN"
 "http://www.w3.org/Graphics/SVG/1.1/DTD/svg11.dtd">
<!-- Generated by graphviz version 2.43.0 (0)
 -->
<!-- Title: %3 Pages: 1 -->
<svg width="1629pt" height="131pt"
 viewBox="0.00 0.00 1628.69 131.00" xmlns="http://www.w3.org/2000/svg" xmlns:xlink="http://www.w3.org/1999/xlink">
<g id="graph0" class="graph" transform="scale(1 1) rotate(0) translate(4 127)">
<title>%3</title>
<polygon fill="white" stroke="transparent" points="-4,4 -4,-127 1624.69,-127 1624.69,4 -4,4"/>
<!-- individual system -->
<g id="node1" class="node">
<title>individual system</title>
<ellipse fill="none" stroke="black" cx="801.89" cy="-105" rx="92.88" ry="18"/>
<text text-anchor="middle" x="801.89" y="-101.3" font-family="Times,serif" font-size="14.00">individual system</text>
</g>
<!-- systemic entity -->
<g id="node2" class="node">
<title>systemic entity</title>
<ellipse fill="none" stroke="black" cx="81.89" cy="-18" rx="81.79" ry="18"/>
<text text-anchor="middle" x="81.89" y="-14.3" font-family="Times,serif" font-size="14.00">systemic entity</text>
</g>
<!-- individual system&#45;&gt;systemic entity -->
<g id="edge1" class="edge">
<title>individual system&#45;&gt;systemic entity</title>
<path fill="none" stroke="black" d="M715.32,-98.32C631.83,-92.44 501.99,-82.27 389.89,-69 293.02,-57.53 269.08,-52.29 172.89,-36 165.92,-34.82 158.66,-33.54 151.41,-32.24"/>
<polygon fill="black" stroke="black" points="152.03,-28.79 141.56,-30.44 150.77,-35.68 152.03,-28.79"/>
<text text-anchor="middle" x="403.89" y="-57.8" font-family="Times,serif" font-size="14.00">is_a</text>
</g>
<!-- thing with taxon -->
<g id="node3" class="node">
<title>thing with taxon</title>
<ellipse fill="none" stroke="black" cx="268.89" cy="-18" rx="87.18" ry="18"/>
<text text-anchor="middle" x="268.89" y="-14.3" font-family="Times,serif" font-size="14.00">thing with taxon</text>
</g>
<!-- individual system&#45;&gt;thing with taxon -->
<g id="edge2" class="edge">
<title>individual system&#45;&gt;thing with taxon</title>
<path fill="none" stroke="black" d="M719.05,-96.79C657.53,-90.88 571.68,-81.46 496.89,-69 440.85,-59.66 377.8,-45.56 332.23,-34.7"/>
<polygon fill="black" stroke="black" points="333.03,-31.3 322.49,-32.37 331.4,-38.1 333.03,-31.3"/>
<text text-anchor="middle" x="513.39" y="-57.8" font-family="Times,serif" font-size="14.00">uses</text>
</g>
<!-- id -->
<g id="node4" class="node">
<title>id</title>
<ellipse fill="none" stroke="blue" cx="411.89" cy="-18" rx="38.19" ry="18"/>
<text text-anchor="middle" x="411.89" y="-14.3" font-family="Times,serif" font-size="14.00">string</text>
</g>
<!-- individual system&#45;&gt;id -->
<g id="edge3" class="edge">
<title>individual system&#45;&gt;id</title>
<path fill="none" stroke="blue" d="M730.67,-93.35C660.92,-82.09 552,-62.33 459.89,-36 456.79,-35.11 453.6,-34.13 450.4,-33.11"/>
<polygon fill="blue" stroke="blue" points="451.49,-29.78 440.9,-29.92 449.27,-36.42 451.49,-29.78"/>
<text text-anchor="middle" x="597.89" y="-57.8" font-family="Times,serif" font-size="14.00">id</text>
</g>
<!-- iri -->
<g id="node5" class="node">
<title>iri</title>
<ellipse fill="none" stroke="blue" cx="512.89" cy="-18" rx="44.39" ry="18"/>
<text text-anchor="middle" x="512.89" y="-14.3" font-family="Times,serif" font-size="14.00">iri type</text>
</g>
<!-- individual system&#45;&gt;iri -->
<g id="edge4" class="edge">
<title>individual system&#45;&gt;iri</title>
<path fill="none" stroke="blue" d="M750.75,-89.91C728.09,-83.61 701.13,-76.03 676.89,-69 627.87,-54.78 615.68,-51 566.89,-36 563.4,-34.93 559.78,-33.81 556.15,-32.67"/>
<polygon fill="blue" stroke="blue" points="557.16,-29.32 546.57,-29.68 555.07,-36.01 557.16,-29.32"/>
<text text-anchor="middle" x="684.89" y="-57.8" font-family="Times,serif" font-size="14.00">iri</text>
</g>
<!-- type -->
<g id="node6" class="node">
<title>type</title>
<ellipse fill="none" stroke="blue" cx="613.89" cy="-18" rx="38.19" ry="18"/>
<text text-anchor="middle" x="613.89" y="-14.3" font-family="Times,serif" font-size="14.00">string</text>
</g>
<!-- individual system&#45;&gt;type -->
<g id="edge5" class="edge">
<title>individual system&#45;&gt;type</title>
<path fill="none" stroke="blue" d="M766.97,-88.21C733.63,-73.14 683.61,-50.52 649.91,-35.28"/>
<polygon fill="blue" stroke="blue" points="650.99,-31.93 640.43,-31 648.1,-38.31 650.99,-31.93"/>
<text text-anchor="middle" x="735.89" y="-57.8" font-family="Times,serif" font-size="14.00">type</text>
</g>
<!-- name -->
<g id="node7" class="node">
<title>name</title>
<ellipse fill="none" stroke="blue" cx="726.89" cy="-18" rx="56.59" ry="18"/>
<text text-anchor="middle" x="726.89" y="-14.3" font-family="Times,serif" font-size="14.00">label type</text>
</g>
<!-- individual system&#45;&gt;name -->
<g id="edge6" class="edge">
<title>individual system&#45;&gt;name</title>
<path fill="none" stroke="blue" d="M787.08,-87.21C776.01,-74.67 760.73,-57.35 748.34,-43.3"/>
<polygon fill="blue" stroke="blue" points="750.67,-40.65 741.42,-35.47 745.42,-45.28 750.67,-40.65"/>
<text text-anchor="middle" x="788.89" y="-57.8" font-family="Times,serif" font-size="14.00">name</text>
</g>
<!-- description -->
<g id="node8" class="node">
<title>description</title>
<ellipse fill="none" stroke="blue" cx="876.89" cy="-18" rx="75.29" ry="18"/>
<text text-anchor="middle" x="876.89" y="-14.3" font-family="Times,serif" font-size="14.00">narrative text</text>
</g>
<!-- individual system&#45;&gt;description -->
<g id="edge7" class="edge">
<title>individual system&#45;&gt;description</title>
<path fill="none" stroke="blue" d="M816.71,-87.21C827.7,-74.75 842.86,-57.57 855.21,-43.57"/>
<polygon fill="blue" stroke="blue" points="858.11,-45.57 862.11,-35.76 852.87,-40.94 858.11,-45.57"/>
<text text-anchor="middle" x="884.39" y="-57.8" font-family="Times,serif" font-size="14.00">description</text>
</g>
<!-- source -->
<g id="node9" class="node">
<title>source</title>
<ellipse fill="none" stroke="blue" cx="1026.89" cy="-18" rx="56.59" ry="18"/>
<text text-anchor="middle" x="1026.89" y="-14.3" font-family="Times,serif" font-size="14.00">label type</text>
</g>
<!-- individual system&#45;&gt;source -->
<g id="edge8" class="edge">
<title>individual system&#45;&gt;source</title>
<path fill="none" stroke="blue" d="M859.28,-90.82C881.36,-85.07 906.61,-77.65 928.89,-69 950.52,-60.6 973.69,-48.92 992.07,-38.95"/>
<polygon fill="blue" stroke="blue" points="993.86,-41.96 1000.94,-34.07 990.49,-35.83 993.86,-41.96"/>
<text text-anchor="middle" x="986.89" y="-57.8" font-family="Times,serif" font-size="14.00">source</text>
</g>
<!-- provided by -->
<g id="node10" class="node">
<title>provided by</title>
<ellipse fill="none" stroke="blue" cx="1138.89" cy="-18" rx="37.09" ry="18"/>
<text text-anchor="middle" x="1138.89" y="-14.3" font-family="Times,serif" font-size="14.00">agent</text>
</g>
<!-- individual system&#45;&gt;provided by -->
<g id="edge9" class="edge">
<title>individual system&#45;&gt;provided by</title>
<path fill="none" stroke="blue" d="M869.25,-92.59C880.48,-90.71 892.01,-88.79 902.89,-87 952.64,-78.82 966.32,-82.51 1014.89,-69 1045.89,-60.38 1079.67,-46.44 1104.13,-35.46"/>
<polygon fill="blue" stroke="blue" points="1105.7,-38.59 1113.35,-31.27 1102.8,-32.22 1105.7,-38.59"/>
<text text-anchor="middle" x="1099.39" y="-57.8" font-family="Times,serif" font-size="14.00">provided by</text>
</g>
<!-- category -->
<g id="node11" class="node">
<title>category</title>
<ellipse fill="none" stroke="black" cx="1244.89" cy="-18" rx="51.19" ry="18"/>
<text text-anchor="middle" x="1244.89" y="-14.3" font-family="Times,serif" font-size="14.00">category</text>
</g>
<!-- individual system&#45;&gt;category -->
<g id="edge10" class="edge">
<title>individual system&#45;&gt;category</title>
<path fill="none" stroke="blue" d="M866.96,-92.14C878.89,-90.22 891.24,-88.41 902.89,-87 1010.41,-74 1041.54,-97.97 1145.89,-69 1169.49,-62.45 1194.08,-50.07 1212.85,-39.26"/>
<polygon fill="blue" stroke="blue" points="1214.73,-42.21 1221.56,-34.12 1211.17,-36.19 1214.73,-42.21"/>
<text text-anchor="middle" x="1214.39" y="-57.8" font-family="Times,serif" font-size="14.00">category</text>
</g>
<!-- has attribute -->
<g id="node13" class="node">
<title>has attribute</title>
<ellipse fill="none" stroke="black" cx="1385.89" cy="-18" rx="71.49" ry="18"/>
<text text-anchor="middle" x="1385.89" y="-14.3" font-family="Times,serif" font-size="14.00">has attribute</text>
</g>
<!-- individual system&#45;&gt;has attribute -->
<g id="edge11" class="edge">
<title>individual system&#45;&gt;has attribute</title>
<path fill="none" stroke="blue" d="M866.39,-92.01C878.49,-90.08 891.05,-88.3 902.89,-87 1056.4,-70.16 1098.61,-99.99 1249.89,-69 1282.49,-62.32 1317.7,-49.2 1344.13,-38.07"/>
<polygon fill="blue" stroke="blue" points="1345.64,-41.24 1353.45,-34.08 1342.88,-34.8 1345.64,-41.24"/>
<text text-anchor="middle" x="1346.89" y="-57.8" font-family="Times,serif" font-size="14.00">has attribute</text>
</g>
<!-- in taxon -->
<g id="node15" class="node">
<title>in taxon</title>
<ellipse fill="none" stroke="blue" cx="1547.89" cy="-18" rx="72.59" ry="18"/>
<text text-anchor="middle" x="1547.89" y="-14.3" font-family="Times,serif" font-size="14.00">system taxon</text>
</g>
<!-- individual system&#45;&gt;in taxon -->
<g id="edge12" class="edge">
<title>individual system&#45;&gt;in taxon</title>
<path fill="none" stroke="blue" d="M866.11,-91.9C878.29,-89.97 890.95,-88.22 902.89,-87 1121.9,-64.68 1181.27,-108.21 1397.89,-69 1434.29,-62.41 1473.94,-48.9 1503.33,-37.59"/>
<polygon fill="blue" stroke="blue" points="1504.84,-40.75 1512.88,-33.85 1502.29,-34.23 1504.84,-40.75"/>
<text text-anchor="middle" x="1480.89" y="-57.8" font-family="Times,serif" font-size="14.00">in taxon</text>
</g>
<!-- named thing_category -->
<g id="node12" class="node">
<title>named thing_category</title>
<ellipse fill="none" stroke="blue" cx="981.89" cy="-105" rx="69.59" ry="18"/>
<text text-anchor="middle" x="981.89" y="-101.3" font-family="Times,serif" font-size="14.00">named thing</text>
</g>
<!-- systemic entity_has attribute -->
<g id="node14" class="node">
<title>systemic entity_has attribute</title>
<ellipse fill="none" stroke="blue" cx="1121.89" cy="-105" rx="51.99" ry="18"/>
<text text-anchor="middle" x="1121.89" y="-101.3" font-family="Times,serif" font-size="14.00">attribute</text>
</g>
</g>
</svg>
