<?xml version="1.0" encoding="UTF-8" standalone="no"?>
<!DOCTYPE svg PUBLIC "-//W3C//DTD SVG 1.1//EN"
 "http://www.w3.org/Graphics/SVG/1.1/DTD/svg11.dtd">
<!-- Generated by graphviz version 2.43.0 (0)
 -->
<!-- Title: %3 Pages: 1 -->
<svg width="1055pt" height="131pt"
 viewBox="0.00 0.00 1054.94 131.00" xmlns="http://www.w3.org/2000/svg" xmlns:xlink="http://www.w3.org/1999/xlink">
<g id="graph0" class="graph" transform="scale(1 1) rotate(0) translate(4 127)">
<title>%3</title>
<polygon fill="white" stroke="transparent" points="-4,4 -4,-127 1050.94,-127 1050.94,4 -4,4"/>
<!-- inheritance -->
<g id="node1" class="node">
<title>inheritance</title>
<ellipse fill="none" stroke="black" cx="516.39" cy="-105" rx="63.89" ry="18"/>
<text text-anchor="middle" x="516.39" y="-101.3" font-family="Times,serif" font-size="14.00">inheritance</text>
</g>
<!-- system attribute -->
<g id="node2" class="node">
<title>system attribute</title>
<ellipse fill="none" stroke="black" cx="88.39" cy="-18" rx="88.28" ry="18"/>
<text text-anchor="middle" x="88.39" y="-14.3" font-family="Times,serif" font-size="14.00">system attribute</text>
</g>
<!-- inheritance&#45;&gt;system attribute -->
<g id="edge1" class="edge">
<title>inheritance&#45;&gt;system attribute</title>
<path fill="none" stroke="black" d="M457.2,-98.2C405.66,-92.58 329.12,-82.86 263.39,-69 222.45,-60.36 177.04,-47.28 142.73,-36.67"/>
<polygon fill="black" stroke="black" points="143.5,-33.24 132.92,-33.6 141.42,-39.92 143.5,-33.24"/>
<text text-anchor="middle" x="277.39" y="-57.8" font-family="Times,serif" font-size="14.00">is_a</text>
</g>
<!-- name -->
<g id="node3" class="node">
<title>name</title>
<ellipse fill="none" stroke="black" cx="231.39" cy="-18" rx="36.29" ry="18"/>
<text text-anchor="middle" x="231.39" y="-14.3" font-family="Times,serif" font-size="14.00">name</text>
</g>
<!-- inheritance&#45;&gt;name -->
<g id="edge2" class="edge">
<title>inheritance&#45;&gt;name</title>
<path fill="none" stroke="blue" d="M457.76,-97.71C419.85,-92.53 369.83,-83.61 327.39,-69 304.44,-61.1 280.21,-48.44 261.83,-37.84"/>
<polygon fill="blue" stroke="blue" points="263.45,-34.73 253.05,-32.67 259.9,-40.76 263.45,-34.73"/>
<text text-anchor="middle" x="347.39" y="-57.8" font-family="Times,serif" font-size="14.00">name</text>
</g>
<!-- has attribute type -->
<g id="node5" class="node">
<title>has attribute type</title>
<ellipse fill="none" stroke="blue" cx="362.39" cy="-18" rx="76.89" ry="18"/>
<text text-anchor="middle" x="362.39" y="-14.3" font-family="Times,serif" font-size="14.00">ontology class</text>
</g>
<!-- inheritance&#45;&gt;has attribute type -->
<g id="edge3" class="edge">
<title>inheritance&#45;&gt;has attribute type</title>
<path fill="none" stroke="blue" d="M454.79,-100.3C429.45,-95.9 401.41,-86.94 381.39,-69 374.63,-62.94 370.26,-54.22 367.45,-45.75"/>
<polygon fill="blue" stroke="blue" points="370.82,-44.82 364.8,-36.1 364.07,-46.67 370.82,-44.82"/>
<text text-anchor="middle" x="446.39" y="-57.8" font-family="Times,serif" font-size="14.00">has attribute type</text>
</g>
<!-- has quantitative value -->
<g id="node6" class="node">
<title>has quantitative value</title>
<ellipse fill="none" stroke="blue" cx="534.39" cy="-18" rx="77.19" ry="18"/>
<text text-anchor="middle" x="534.39" y="-14.3" font-family="Times,serif" font-size="14.00">quantity value</text>
</g>
<!-- inheritance&#45;&gt;has quantitative value -->
<g id="edge4" class="edge">
<title>inheritance&#45;&gt;has quantitative value</title>
<path fill="none" stroke="blue" d="M514.92,-86.64C514.55,-76.91 514.83,-64.64 517.39,-54 518.09,-51.11 519.05,-48.17 520.16,-45.3"/>
<polygon fill="blue" stroke="blue" points="523.48,-46.45 524.37,-35.89 517.09,-43.59 523.48,-46.45"/>
<text text-anchor="middle" x="597.39" y="-57.8" font-family="Times,serif" font-size="14.00">has quantitative value</text>
</g>
<!-- has qualitative value -->
<g id="node7" class="node">
<title>has qualitative value</title>
<ellipse fill="none" stroke="blue" cx="699.39" cy="-18" rx="69.59" ry="18"/>
<text text-anchor="middle" x="699.39" y="-14.3" font-family="Times,serif" font-size="14.00">named thing</text>
</g>
<!-- inheritance&#45;&gt;has qualitative value -->
<g id="edge5" class="edge">
<title>inheritance&#45;&gt;has qualitative value</title>
<path fill="none" stroke="blue" d="M563.21,-92.72C571.58,-90.76 580.24,-88.79 588.39,-87 627.81,-78.36 645.96,-94.31 677.39,-69 684.61,-63.19 689.53,-54.52 692.84,-46.03"/>
<polygon fill="blue" stroke="blue" points="696.24,-46.92 696.04,-36.33 689.59,-44.73 696.24,-46.92"/>
<text text-anchor="middle" x="763.89" y="-57.8" font-family="Times,serif" font-size="14.00">has qualitative value</text>
</g>
<!-- iri -->
<g id="node8" class="node">
<title>iri</title>
<ellipse fill="none" stroke="blue" cx="871.39" cy="-18" rx="44.39" ry="18"/>
<text text-anchor="middle" x="871.39" y="-14.3" font-family="Times,serif" font-size="14.00">iri type</text>
</g>
<!-- inheritance&#45;&gt;iri -->
<g id="edge6" class="edge">
<title>inheritance&#45;&gt;iri</title>
<path fill="none" stroke="blue" d="M561.5,-92.18C570.36,-90.19 579.63,-88.34 588.39,-87 644.33,-78.47 794.39,-98.96 842.39,-69 851.24,-63.48 857.68,-54.2 862.21,-45.13"/>
<polygon fill="blue" stroke="blue" points="865.44,-46.48 866.27,-35.91 859.04,-43.66 865.44,-46.48"/>
<text text-anchor="middle" x="865.39" y="-57.8" font-family="Times,serif" font-size="14.00">iri</text>
</g>
<!-- source -->
<g id="node9" class="node">
<title>source</title>
<ellipse fill="none" stroke="blue" cx="990.39" cy="-18" rx="56.59" ry="18"/>
<text text-anchor="middle" x="990.39" y="-14.3" font-family="Times,serif" font-size="14.00">label type</text>
</g>
<!-- inheritance&#45;&gt;source -->
<g id="edge7" class="edge">
<title>inheritance&#45;&gt;source</title>
<path fill="none" stroke="blue" d="M561.49,-92.12C570.35,-90.13 579.63,-88.3 588.39,-87 715.7,-68.15 752.37,-99.51 877.39,-69 904.44,-62.4 933.11,-49.64 954.8,-38.66"/>
<polygon fill="blue" stroke="blue" points="956.67,-41.63 963.95,-33.93 953.46,-35.42 956.67,-41.63"/>
<text text-anchor="middle" x="943.39" y="-57.8" font-family="Times,serif" font-size="14.00">source</text>
</g>
<!-- attribute_name -->
<g id="node4" class="node">
<title>attribute_name</title>
<ellipse fill="none" stroke="blue" cx="654.39" cy="-105" rx="56.59" ry="18"/>
<text text-anchor="middle" x="654.39" y="-101.3" font-family="Times,serif" font-size="14.00">label type</text>
</g>
</g>
</svg>
