<?xml version="1.0" encoding="UTF-8" standalone="no"?>
<!DOCTYPE svg PUBLIC "-//W3C//DTD SVG 1.1//EN"
 "http://www.w3.org/Graphics/SVG/1.1/DTD/svg11.dtd">
<!-- Generated by graphviz version 2.43.0 (0)
 -->
<!-- Title: %3 Pages: 1 -->
<svg width="2211pt" height="131pt"
 viewBox="0.00 0.00 2211.04 131.00" xmlns="http://www.w3.org/2000/svg" xmlns:xlink="http://www.w3.org/1999/xlink">
<g id="graph0" class="graph" transform="scale(1 1) rotate(0) translate(4 127)">
<title>%3</title>
<polygon fill="white" stroke="transparent" points="-4,4 -4,-127 2207.04,-127 2207.04,4 -4,4"/>
<!-- kernel servicetype isoform -->
<g id="node1" class="node">
<title>kernel servicetype isoform</title>
<ellipse fill="none" stroke="black" cx="1145.84" cy="-105" rx="134.58" ry="18"/>
<text text-anchor="middle" x="1145.84" y="-101.3" font-family="Times,serif" font-size="14.00">kernel servicetype isoform</text>
</g>
<!-- kernel servicetype -->
<g id="node2" class="node">
<title>kernel servicetype</title>
<ellipse fill="none" stroke="black" cx="96.84" cy="-18" rx="96.68" ry="18"/>
<text text-anchor="middle" x="96.84" y="-14.3" font-family="Times,serif" font-size="14.00">kernel servicetype</text>
</g>
<!-- kernel servicetype isoform&#45;&gt;kernel servicetype -->
<g id="edge1" class="edge">
<title>kernel servicetype isoform&#45;&gt;kernel servicetype</title>
<path fill="none" stroke="black" d="M1017.22,-99.64C883.71,-94.55 668.9,-84.74 483.84,-69 358.55,-58.34 327.39,-53.29 202.84,-36 194.26,-34.81 185.29,-33.49 176.37,-32.13"/>
<polygon fill="black" stroke="black" points="176.76,-28.64 166.34,-30.58 175.69,-35.56 176.76,-28.64"/>
<text text-anchor="middle" x="497.84" y="-57.8" font-family="Times,serif" font-size="14.00">is_a</text>
</g>
<!-- servicetype isoform mixin -->
<g id="node3" class="node">
<title>servicetype isoform mixin</title>
<ellipse fill="none" stroke="black" cx="342.84" cy="-18" rx="131.08" ry="18"/>
<text text-anchor="middle" x="342.84" y="-14.3" font-family="Times,serif" font-size="14.00">servicetype isoform mixin</text>
</g>
<!-- kernel servicetype isoform&#45;&gt;servicetype isoform mixin -->
<g id="edge2" class="edge">
<title>kernel servicetype isoform&#45;&gt;servicetype isoform mixin</title>
<path fill="none" stroke="black" d="M1016.76,-99.82C908.36,-95.28 749.55,-86.25 611.84,-69 546.42,-60.81 472.86,-46.8 419.22,-35.69"/>
<polygon fill="black" stroke="black" points="419.61,-32.2 409.1,-33.58 418.18,-39.05 419.61,-32.2"/>
<text text-anchor="middle" x="628.34" y="-57.8" font-family="Times,serif" font-size="14.00">uses</text>
</g>
<!-- id -->
<g id="node4" class="node">
<title>id</title>
<ellipse fill="none" stroke="blue" cx="530.84" cy="-18" rx="38.19" ry="18"/>
<text text-anchor="middle" x="530.84" y="-14.3" font-family="Times,serif" font-size="14.00">string</text>
</g>
<!-- kernel servicetype isoform&#45;&gt;id -->
<g id="edge3" class="edge">
<title>kernel servicetype isoform&#45;&gt;id</title>
<path fill="none" stroke="blue" d="M1023.09,-97.52C941.16,-92.23 831.19,-83.24 734.84,-69 664.74,-58.64 647.06,-55.2 578.84,-36 575.74,-35.13 572.54,-34.15 569.34,-33.13"/>
<polygon fill="blue" stroke="blue" points="570.43,-29.81 559.83,-29.96 568.21,-36.45 570.43,-29.81"/>
<text text-anchor="middle" x="741.84" y="-57.8" font-family="Times,serif" font-size="14.00">id</text>
</g>
<!-- iri -->
<g id="node5" class="node">
<title>iri</title>
<ellipse fill="none" stroke="blue" cx="631.84" cy="-18" rx="44.39" ry="18"/>
<text text-anchor="middle" x="631.84" y="-14.3" font-family="Times,serif" font-size="14.00">iri type</text>
</g>
<!-- kernel servicetype isoform&#45;&gt;iri -->
<g id="edge4" class="edge">
<title>kernel servicetype isoform&#45;&gt;iri</title>
<path fill="none" stroke="blue" d="M1032.83,-95.14C971.11,-89.43 893.48,-80.84 824.84,-69 762.27,-58.2 747.05,-52.88 685.84,-36 682.27,-35.01 678.57,-33.95 674.88,-32.85"/>
<polygon fill="blue" stroke="blue" points="675.73,-29.45 665.14,-29.9 673.7,-36.15 675.73,-29.45"/>
<text text-anchor="middle" x="832.84" y="-57.8" font-family="Times,serif" font-size="14.00">iri</text>
</g>
<!-- type -->
<g id="node6" class="node">
<title>type</title>
<ellipse fill="none" stroke="blue" cx="732.84" cy="-18" rx="38.19" ry="18"/>
<text text-anchor="middle" x="732.84" y="-14.3" font-family="Times,serif" font-size="14.00">string</text>
</g>
<!-- kernel servicetype isoform&#45;&gt;type -->
<g id="edge5" class="edge">
<title>kernel servicetype isoform&#45;&gt;type</title>
<path fill="none" stroke="blue" d="M1052.93,-91.97C1010.38,-85.95 959.39,-78.03 913.84,-69 853.68,-57.08 838.54,-53.79 779.84,-36 777.08,-35.16 774.24,-34.26 771.39,-33.31"/>
<polygon fill="blue" stroke="blue" points="772.36,-29.94 761.76,-30 770.08,-36.56 772.36,-29.94"/>
<text text-anchor="middle" x="929.84" y="-57.8" font-family="Times,serif" font-size="14.00">type</text>
</g>
<!-- name -->
<g id="node7" class="node">
<title>name</title>
<ellipse fill="none" stroke="blue" cx="845.84" cy="-18" rx="56.59" ry="18"/>
<text text-anchor="middle" x="845.84" y="-14.3" font-family="Times,serif" font-size="14.00">label type</text>
</g>
<!-- kernel servicetype isoform&#45;&gt;name -->
<g id="edge6" class="edge">
<title>kernel servicetype isoform&#45;&gt;name</title>
<path fill="none" stroke="blue" d="M1077.08,-89.53C1051.16,-83.69 1021.51,-76.55 994.84,-69 959.69,-59.05 920.56,-45.84 891.22,-35.49"/>
<polygon fill="blue" stroke="blue" points="892.26,-32.15 881.67,-32.1 889.92,-38.74 892.26,-32.15"/>
<text text-anchor="middle" x="1014.84" y="-57.8" font-family="Times,serif" font-size="14.00">name</text>
</g>
<!-- description -->
<g id="node8" class="node">
<title>description</title>
<ellipse fill="none" stroke="blue" cx="995.84" cy="-18" rx="75.29" ry="18"/>
<text text-anchor="middle" x="995.84" y="-14.3" font-family="Times,serif" font-size="14.00">narrative text</text>
</g>
<!-- kernel servicetype isoform&#45;&gt;description -->
<g id="edge7" class="edge">
<title>kernel servicetype isoform&#45;&gt;description</title>
<path fill="none" stroke="blue" d="M1100.67,-87.99C1087.48,-82.63 1073.28,-76.18 1060.84,-69 1047.44,-61.27 1033.71,-51.1 1022.34,-41.95"/>
<polygon fill="blue" stroke="blue" points="1024.47,-39.16 1014.52,-35.52 1020.02,-44.57 1024.47,-39.16"/>
<text text-anchor="middle" x="1101.34" y="-57.8" font-family="Times,serif" font-size="14.00">description</text>
</g>
<!-- source -->
<g id="node9" class="node">
<title>source</title>
<ellipse fill="none" stroke="blue" cx="1145.84" cy="-18" rx="56.59" ry="18"/>
<text text-anchor="middle" x="1145.84" y="-14.3" font-family="Times,serif" font-size="14.00">label type</text>
</g>
<!-- kernel servicetype isoform&#45;&gt;source -->
<g id="edge8" class="edge">
<title>kernel servicetype isoform&#45;&gt;source</title>
<path fill="none" stroke="blue" d="M1145.84,-86.8C1145.84,-75.16 1145.84,-59.55 1145.84,-46.24"/>
<polygon fill="blue" stroke="blue" points="1149.34,-46.18 1145.84,-36.18 1142.34,-46.18 1149.34,-46.18"/>
<text text-anchor="middle" x="1169.84" y="-57.8" font-family="Times,serif" font-size="14.00">source</text>
</g>
<!-- provided by -->
<g id="node10" class="node">
<title>provided by</title>
<ellipse fill="none" stroke="blue" cx="1257.84" cy="-18" rx="37.09" ry="18"/>
<text text-anchor="middle" x="1257.84" y="-14.3" font-family="Times,serif" font-size="14.00">agent</text>
</g>
<!-- kernel servicetype isoform&#45;&gt;provided by -->
<g id="edge9" class="edge">
<title>kernel servicetype isoform&#45;&gt;provided by</title>
<path fill="none" stroke="blue" d="M1171.86,-87.24C1180.28,-81.62 1189.57,-75.2 1197.84,-69 1209.68,-60.12 1222.34,-49.72 1232.96,-40.71"/>
<polygon fill="blue" stroke="blue" points="1235.31,-43.3 1240.63,-34.14 1230.76,-37.98 1235.31,-43.3"/>
<text text-anchor="middle" x="1259.34" y="-57.8" font-family="Times,serif" font-size="14.00">provided by</text>
</g>
<!-- has attribute -->
<g id="node11" class="node">
<title>has attribute</title>
<ellipse fill="none" stroke="blue" cx="1364.84" cy="-18" rx="51.99" ry="18"/>
<text text-anchor="middle" x="1364.84" y="-14.3" font-family="Times,serif" font-size="14.00">attribute</text>
</g>
<!-- kernel servicetype isoform&#45;&gt;has attribute -->
<g id="edge10" class="edge">
<title>kernel servicetype isoform&#45;&gt;has attribute</title>
<path fill="none" stroke="blue" d="M1238.14,-91.8C1261.01,-86.64 1284.94,-79.33 1305.84,-69 1319.27,-62.36 1332.2,-52.01 1342.51,-42.45"/>
<polygon fill="blue" stroke="blue" points="1345.09,-44.83 1349.86,-35.36 1340.23,-39.79 1345.09,-44.83"/>
<text text-anchor="middle" x="1376.84" y="-57.8" font-family="Times,serif" font-size="14.00">has attribute</text>
</g>
<!-- category -->
<g id="node12" class="node">
<title>category</title>
<ellipse fill="none" stroke="black" cx="1485.84" cy="-18" rx="51.19" ry="18"/>
<text text-anchor="middle" x="1485.84" y="-14.3" font-family="Times,serif" font-size="14.00">category</text>
</g>
<!-- kernel servicetype isoform&#45;&gt;category -->
<g id="edge11" class="edge">
<title>kernel servicetype isoform&#45;&gt;category</title>
<path fill="none" stroke="blue" d="M1242.26,-92.36C1323.07,-82.55 1425.66,-69.97 1427.84,-69 1441.59,-62.9 1454.52,-52.42 1464.66,-42.63"/>
<polygon fill="blue" stroke="blue" points="1467.31,-44.94 1471.85,-35.36 1462.33,-40.02 1467.31,-44.94"/>
<text text-anchor="middle" x="1483.34" y="-57.8" font-family="Times,serif" font-size="14.00">category</text>
</g>
<!-- in taxon -->
<g id="node14" class="node">
<title>in taxon</title>
<ellipse fill="none" stroke="blue" cx="1627.84" cy="-18" rx="72.59" ry="18"/>
<text text-anchor="middle" x="1627.84" y="-14.3" font-family="Times,serif" font-size="14.00">system taxon</text>
</g>
<!-- kernel servicetype isoform&#45;&gt;in taxon -->
<g id="edge12" class="edge">
<title>kernel servicetype isoform&#45;&gt;in taxon</title>
<path fill="none" stroke="blue" d="M1240.78,-92.17C1256.81,-90.33 1273.29,-88.53 1288.84,-87 1390.88,-76.95 1419.6,-94.77 1518.84,-69 1544.18,-62.42 1570.92,-50.24 1591.58,-39.55"/>
<polygon fill="blue" stroke="blue" points="1593.41,-42.54 1600.61,-34.77 1590.14,-36.35 1593.41,-42.54"/>
<text text-anchor="middle" x="1588.84" y="-57.8" font-family="Times,serif" font-size="14.00">in taxon</text>
</g>
<!-- has computational sequence -->
<g id="node15" class="node">
<title>has computational sequence</title>
<ellipse fill="none" stroke="blue" cx="1841.84" cy="-18" rx="123.48" ry="18"/>
<text text-anchor="middle" x="1841.84" y="-14.3" font-family="Times,serif" font-size="14.00">computational sequence</text>
</g>
<!-- kernel servicetype isoform&#45;&gt;has computational sequence -->
<g id="edge13" class="edge">
<title>kernel servicetype isoform&#45;&gt;has computational sequence</title>
<path fill="none" stroke="blue" d="M1239.21,-92.02C1255.73,-90.16 1272.78,-88.39 1288.84,-87 1436.51,-74.24 1475.05,-89.5 1621.84,-69 1674.74,-61.61 1733.72,-47.91 1777.28,-36.71"/>
<polygon fill="blue" stroke="blue" points="1778.37,-40.04 1787.17,-34.14 1776.61,-33.27 1778.37,-40.04"/>
<text text-anchor="middle" x="1803.34" y="-57.8" font-family="Times,serif" font-size="14.00">has computational sequence</text>
</g>
<!-- synonym -->
<g id="node16" class="node">
<title>synonym</title>
<ellipse fill="none" stroke="blue" cx="2039.84" cy="-18" rx="56.59" ry="18"/>
<text text-anchor="middle" x="2039.84" y="-14.3" font-family="Times,serif" font-size="14.00">label type</text>
</g>
<!-- kernel servicetype isoform&#45;&gt;synonym -->
<g id="edge14" class="edge">
<title>kernel servicetype isoform&#45;&gt;synonym</title>
<path fill="none" stroke="blue" d="M1238.03,-91.81C1254.91,-89.93 1272.39,-88.21 1288.84,-87 1426.3,-76.85 1773.67,-95.95 1908.84,-69 1941.02,-62.58 1975.63,-49.06 2001.19,-37.7"/>
<polygon fill="blue" stroke="blue" points="2002.85,-40.79 2010.51,-33.47 1999.96,-34.41 2002.85,-40.79"/>
<text text-anchor="middle" x="1992.84" y="-57.8" font-family="Times,serif" font-size="14.00">synonym</text>
</g>
<!-- xref -->
<g id="node17" class="node">
<title>xref</title>
<ellipse fill="none" stroke="blue" cx="2158.84" cy="-18" rx="44.39" ry="18"/>
<text text-anchor="middle" x="2158.84" y="-14.3" font-family="Times,serif" font-size="14.00">iri type</text>
</g>
<!-- kernel servicetype isoform&#45;&gt;xref -->
<g id="edge15" class="edge">
<title>kernel servicetype isoform&#45;&gt;xref</title>
<path fill="none" stroke="blue" d="M1237.65,-91.79C1254.64,-89.9 1272.26,-88.18 1288.84,-87 1452.92,-75.28 1867.49,-100.99 2028.84,-69 2061.65,-62.49 2096.96,-48.42 2122.49,-36.86"/>
<polygon fill="blue" stroke="blue" points="2124.16,-39.94 2131.77,-32.57 2121.22,-33.59 2124.16,-39.94"/>
<text text-anchor="middle" x="2094.34" y="-57.8" font-family="Times,serif" font-size="14.00">xref</text>
</g>
<!-- named thing_category -->
<g id="node13" class="node">
<title>named thing_category</title>
<ellipse fill="none" stroke="blue" cx="1367.84" cy="-105" rx="69.59" ry="18"/>
<text text-anchor="middle" x="1367.84" y="-101.3" font-family="Times,serif" font-size="14.00">named thing</text>
</g>
</g>
</svg>
