<?xml version="1.0" encoding="UTF-8" standalone="no"?>
<!DOCTYPE svg PUBLIC "-//W3C//DTD SVG 1.1//EN"
 "http://www.w3.org/Graphics/SVG/1.1/DTD/svg11.dtd">
<!-- Generated by graphviz version 2.43.0 (0)
 -->
<!-- Title: %3 Pages: 1 -->
<svg width="2208pt" height="131pt"
 viewBox="0.00 0.00 2208.08 131.00" xmlns="http://www.w3.org/2000/svg" xmlns:xlink="http://www.w3.org/1999/xlink">
<g id="graph0" class="graph" transform="scale(1 1) rotate(0) translate(4 127)">
<title>%3</title>
<polygon fill="white" stroke="transparent" points="-4,4 -4,-127 2204.08,-127 2204.08,4 -4,4"/>
<!-- kernel servicetype -->
<g id="node1" class="node">
<title>kernel servicetype</title>
<ellipse fill="none" stroke="black" cx="1142.89" cy="-105" rx="96.68" ry="18"/>
<text text-anchor="middle" x="1142.89" y="-101.3" font-family="Times,serif" font-size="14.00">kernel servicetype</text>
</g>
<!-- componentserviceinstance -->
<g id="node2" class="node">
<title>componentserviceinstance</title>
<ellipse fill="none" stroke="black" cx="133.89" cy="-18" rx="133.78" ry="18"/>
<text text-anchor="middle" x="133.89" y="-14.3" font-family="Times,serif" font-size="14.00">componentserviceinstance</text>
</g>
<!-- kernel servicetype&#45;&gt;componentserviceinstance -->
<g id="edge1" class="edge">
<title>kernel servicetype&#45;&gt;componentserviceinstance</title>
<path fill="none" stroke="black" d="M1047.99,-101.36C921.56,-97.28 691.01,-87.84 494.89,-69 403.01,-60.17 298.61,-45.17 225.8,-33.89"/>
<polygon fill="black" stroke="black" points="226.16,-30.41 215.74,-32.33 225.08,-37.32 226.16,-30.41"/>
<text text-anchor="middle" x="508.89" y="-57.8" font-family="Times,serif" font-size="14.00">is_a</text>
</g>
<!-- servicetype mixin -->
<g id="node3" class="node">
<title>servicetype mixin</title>
<ellipse fill="none" stroke="black" cx="378.89" cy="-18" rx="92.88" ry="18"/>
<text text-anchor="middle" x="378.89" y="-14.3" font-family="Times,serif" font-size="14.00">servicetype mixin</text>
</g>
<!-- kernel servicetype&#45;&gt;servicetype mixin -->
<g id="edge2" class="edge">
<title>kernel servicetype&#45;&gt;servicetype mixin</title>
<path fill="none" stroke="black" d="M1046.95,-102C939.72,-98.77 761.15,-90.42 608.89,-69 551.77,-60.97 487.72,-46.59 441.75,-35.31"/>
<polygon fill="black" stroke="black" points="442.48,-31.89 431.93,-32.88 440.8,-38.68 442.48,-31.89"/>
<text text-anchor="middle" x="625.39" y="-57.8" font-family="Times,serif" font-size="14.00">uses</text>
</g>
<!-- id -->
<g id="node4" class="node">
<title>id</title>
<ellipse fill="none" stroke="blue" cx="527.89" cy="-18" rx="38.19" ry="18"/>
<text text-anchor="middle" x="527.89" y="-14.3" font-family="Times,serif" font-size="14.00">string</text>
</g>
<!-- kernel servicetype&#45;&gt;id -->
<g id="edge3" class="edge">
<title>kernel servicetype&#45;&gt;id</title>
<path fill="none" stroke="blue" d="M1050.69,-99.41C967.15,-94.48 840.81,-85.1 731.89,-69 661.78,-58.64 644.1,-55.2 575.89,-36 572.78,-35.13 569.59,-34.15 566.39,-33.13"/>
<polygon fill="blue" stroke="blue" points="567.48,-29.81 556.88,-29.96 565.26,-36.45 567.48,-29.81"/>
<text text-anchor="middle" x="738.89" y="-57.8" font-family="Times,serif" font-size="14.00">id</text>
</g>
<!-- iri -->
<g id="node5" class="node">
<title>iri</title>
<ellipse fill="none" stroke="blue" cx="628.89" cy="-18" rx="44.39" ry="18"/>
<text text-anchor="middle" x="628.89" y="-14.3" font-family="Times,serif" font-size="14.00">iri type</text>
</g>
<!-- kernel servicetype&#45;&gt;iri -->
<g id="edge4" class="edge">
<title>kernel servicetype&#45;&gt;iri</title>
<path fill="none" stroke="blue" d="M1054.94,-97.38C990.2,-91.79 900.2,-82.51 821.89,-69 759.32,-58.2 744.1,-52.88 682.89,-36 679.31,-35.01 675.62,-33.95 671.92,-32.85"/>
<polygon fill="blue" stroke="blue" points="672.78,-29.45 662.19,-29.9 670.74,-36.15 672.78,-29.45"/>
<text text-anchor="middle" x="829.89" y="-57.8" font-family="Times,serif" font-size="14.00">iri</text>
</g>
<!-- type -->
<g id="node6" class="node">
<title>type</title>
<ellipse fill="none" stroke="blue" cx="729.89" cy="-18" rx="38.19" ry="18"/>
<text text-anchor="middle" x="729.89" y="-14.3" font-family="Times,serif" font-size="14.00">string</text>
</g>
<!-- kernel servicetype&#45;&gt;type -->
<g id="edge5" class="edge">
<title>kernel servicetype&#45;&gt;type</title>
<path fill="none" stroke="blue" d="M1065.51,-94.14C1020.26,-87.92 962.13,-79.15 910.89,-69 850.72,-57.08 835.59,-53.79 776.89,-36 774.12,-35.16 771.28,-34.26 768.44,-33.31"/>
<polygon fill="blue" stroke="blue" points="769.41,-29.94 758.81,-30 767.13,-36.56 769.41,-29.94"/>
<text text-anchor="middle" x="926.89" y="-57.8" font-family="Times,serif" font-size="14.00">type</text>
</g>
<!-- name -->
<g id="node7" class="node">
<title>name</title>
<ellipse fill="none" stroke="blue" cx="842.89" cy="-18" rx="56.59" ry="18"/>
<text text-anchor="middle" x="842.89" y="-14.3" font-family="Times,serif" font-size="14.00">label type</text>
</g>
<!-- kernel servicetype&#45;&gt;name -->
<g id="edge6" class="edge">
<title>kernel servicetype&#45;&gt;name</title>
<path fill="none" stroke="blue" d="M1081.2,-91.11C1053.71,-85 1021.02,-77.24 991.89,-69 956.74,-59.05 917.61,-45.84 888.27,-35.49"/>
<polygon fill="blue" stroke="blue" points="889.31,-32.15 878.72,-32.1 886.97,-38.74 889.31,-32.15"/>
<text text-anchor="middle" x="1011.89" y="-57.8" font-family="Times,serif" font-size="14.00">name</text>
</g>
<!-- description -->
<g id="node8" class="node">
<title>description</title>
<ellipse fill="none" stroke="blue" cx="992.89" cy="-18" rx="75.29" ry="18"/>
<text text-anchor="middle" x="992.89" y="-14.3" font-family="Times,serif" font-size="14.00">narrative text</text>
</g>
<!-- kernel servicetype&#45;&gt;description -->
<g id="edge7" class="edge">
<title>kernel servicetype&#45;&gt;description</title>
<path fill="none" stroke="blue" d="M1099.9,-88.87C1086.11,-83.35 1071.02,-76.57 1057.89,-69 1044.49,-61.27 1030.76,-51.1 1019.39,-41.95"/>
<polygon fill="blue" stroke="blue" points="1021.51,-39.16 1011.57,-35.52 1017.07,-44.57 1021.51,-39.16"/>
<text text-anchor="middle" x="1098.39" y="-57.8" font-family="Times,serif" font-size="14.00">description</text>
</g>
<!-- source -->
<g id="node9" class="node">
<title>source</title>
<ellipse fill="none" stroke="blue" cx="1142.89" cy="-18" rx="56.59" ry="18"/>
<text text-anchor="middle" x="1142.89" y="-14.3" font-family="Times,serif" font-size="14.00">label type</text>
</g>
<!-- kernel servicetype&#45;&gt;source -->
<g id="edge8" class="edge">
<title>kernel servicetype&#45;&gt;source</title>
<path fill="none" stroke="blue" d="M1142.89,-86.8C1142.89,-75.16 1142.89,-59.55 1142.89,-46.24"/>
<polygon fill="blue" stroke="blue" points="1146.39,-46.18 1142.89,-36.18 1139.39,-46.18 1146.39,-46.18"/>
<text text-anchor="middle" x="1166.89" y="-57.8" font-family="Times,serif" font-size="14.00">source</text>
</g>
<!-- provided by -->
<g id="node10" class="node">
<title>provided by</title>
<ellipse fill="none" stroke="blue" cx="1254.89" cy="-18" rx="37.09" ry="18"/>
<text text-anchor="middle" x="1254.89" y="-14.3" font-family="Times,serif" font-size="14.00">agent</text>
</g>
<!-- kernel servicetype&#45;&gt;provided by -->
<g id="edge9" class="edge">
<title>kernel servicetype&#45;&gt;provided by</title>
<path fill="none" stroke="blue" d="M1168.38,-87.6C1176.93,-81.89 1186.44,-75.33 1194.89,-69 1206.73,-60.12 1219.38,-49.72 1230,-40.71"/>
<polygon fill="blue" stroke="blue" points="1232.36,-43.3 1237.68,-34.14 1227.81,-37.98 1232.36,-43.3"/>
<text text-anchor="middle" x="1256.39" y="-57.8" font-family="Times,serif" font-size="14.00">provided by</text>
</g>
<!-- has attribute -->
<g id="node11" class="node">
<title>has attribute</title>
<ellipse fill="none" stroke="blue" cx="1361.89" cy="-18" rx="51.99" ry="18"/>
<text text-anchor="middle" x="1361.89" y="-14.3" font-family="Times,serif" font-size="14.00">attribute</text>
</g>
<!-- kernel servicetype&#45;&gt;has attribute -->
<g id="edge10" class="edge">
<title>kernel servicetype&#45;&gt;has attribute</title>
<path fill="none" stroke="blue" d="M1211.92,-92.31C1247.51,-85.61 1286.77,-76.97 1302.89,-69 1316.32,-62.36 1329.24,-52.01 1339.56,-42.45"/>
<polygon fill="blue" stroke="blue" points="1342.14,-44.83 1346.9,-35.36 1337.28,-39.79 1342.14,-44.83"/>
<text text-anchor="middle" x="1373.89" y="-57.8" font-family="Times,serif" font-size="14.00">has attribute</text>
</g>
<!-- category -->
<g id="node12" class="node">
<title>category</title>
<ellipse fill="none" stroke="black" cx="1482.89" cy="-18" rx="51.19" ry="18"/>
<text text-anchor="middle" x="1482.89" y="-14.3" font-family="Times,serif" font-size="14.00">category</text>
</g>
<!-- kernel servicetype&#45;&gt;category -->
<g id="edge11" class="edge">
<title>kernel servicetype&#45;&gt;category</title>
<path fill="none" stroke="blue" d="M1211.71,-92.26C1223.75,-90.38 1236.17,-88.54 1247.89,-87 1326.28,-76.68 1352.26,-100.26 1424.89,-69 1438.71,-63.05 1451.64,-52.59 1461.77,-42.77"/>
<polygon fill="blue" stroke="blue" points="1464.43,-45.06 1468.94,-35.48 1459.44,-40.16 1464.43,-45.06"/>
<text text-anchor="middle" x="1480.39" y="-57.8" font-family="Times,serif" font-size="14.00">category</text>
</g>
<!-- in taxon -->
<g id="node14" class="node">
<title>in taxon</title>
<ellipse fill="none" stroke="blue" cx="1624.89" cy="-18" rx="72.59" ry="18"/>
<text text-anchor="middle" x="1624.89" y="-14.3" font-family="Times,serif" font-size="14.00">system taxon</text>
</g>
<!-- kernel servicetype&#45;&gt;in taxon -->
<g id="edge12" class="edge">
<title>kernel servicetype&#45;&gt;in taxon</title>
<path fill="none" stroke="blue" d="M1210.54,-92.09C1222.93,-90.18 1235.78,-88.38 1247.89,-87 1366.5,-73.45 1400.18,-98.37 1515.89,-69 1541.26,-62.56 1568.01,-50.38 1588.65,-39.66"/>
<polygon fill="blue" stroke="blue" points="1590.5,-42.64 1597.68,-34.86 1587.21,-36.46 1590.5,-42.64"/>
<text text-anchor="middle" x="1585.89" y="-57.8" font-family="Times,serif" font-size="14.00">in taxon</text>
</g>
<!-- has computational sequence -->
<g id="node15" class="node">
<title>has computational sequence</title>
<ellipse fill="none" stroke="blue" cx="1838.89" cy="-18" rx="123.48" ry="18"/>
<text text-anchor="middle" x="1838.89" y="-14.3" font-family="Times,serif" font-size="14.00">computational sequence</text>
</g>
<!-- kernel servicetype&#45;&gt;has computational sequence -->
<g id="edge13" class="edge">
<title>kernel servicetype&#45;&gt;has computational sequence</title>
<path fill="none" stroke="blue" d="M1209.96,-91.99C1222.53,-90.07 1235.58,-88.29 1247.89,-87 1412.07,-69.78 1455.33,-91.38 1618.89,-69 1671.81,-61.76 1730.78,-48.04 1774.34,-36.81"/>
<polygon fill="blue" stroke="blue" points="1775.43,-40.14 1784.23,-34.23 1773.67,-33.36 1775.43,-40.14"/>
<text text-anchor="middle" x="1800.39" y="-57.8" font-family="Times,serif" font-size="14.00">has computational sequence</text>
</g>
<!-- synonym -->
<g id="node16" class="node">
<title>synonym</title>
<ellipse fill="none" stroke="blue" cx="2036.89" cy="-18" rx="56.59" ry="18"/>
<text text-anchor="middle" x="2036.89" y="-14.3" font-family="Times,serif" font-size="14.00">label type</text>
</g>
<!-- kernel servicetype&#45;&gt;synonym -->
<g id="edge14" class="edge">
<title>kernel servicetype&#45;&gt;synonym</title>
<path fill="none" stroke="blue" d="M1209.37,-91.87C1222.12,-89.93 1235.39,-88.18 1247.89,-87 1393.52,-73.28 1762.41,-97.48 1905.89,-69 1938.07,-62.61 1972.68,-49.09 1998.24,-37.72"/>
<polygon fill="blue" stroke="blue" points="1999.9,-40.8 2007.56,-33.48 1997.01,-34.43 1999.9,-40.8"/>
<text text-anchor="middle" x="1989.89" y="-57.8" font-family="Times,serif" font-size="14.00">synonym</text>
</g>
<!-- xref -->
<g id="node17" class="node">
<title>xref</title>
<ellipse fill="none" stroke="blue" cx="2155.89" cy="-18" rx="44.39" ry="18"/>
<text text-anchor="middle" x="2155.89" y="-14.3" font-family="Times,serif" font-size="14.00">iri type</text>
</g>
<!-- kernel servicetype&#45;&gt;xref -->
<g id="edge15" class="edge">
<title>kernel servicetype&#45;&gt;xref</title>
<path fill="none" stroke="blue" d="M1209.37,-91.82C1222.11,-89.89 1235.38,-88.15 1247.89,-87 1420.09,-71.14 1856.24,-102.53 2025.89,-69 2058.7,-62.51 2094.01,-48.44 2119.54,-36.87"/>
<polygon fill="blue" stroke="blue" points="2121.21,-39.95 2128.82,-32.58 2118.27,-33.6 2121.21,-39.95"/>
<text text-anchor="middle" x="2091.39" y="-57.8" font-family="Times,serif" font-size="14.00">xref</text>
</g>
<!-- named thing_category -->
<g id="node13" class="node">
<title>named thing_category</title>
<ellipse fill="none" stroke="blue" cx="1326.89" cy="-105" rx="69.59" ry="18"/>
<text text-anchor="middle" x="1326.89" y="-101.3" font-family="Times,serif" font-size="14.00">named thing</text>
</g>
</g>
</svg>
