<?xml version="1.0" encoding="UTF-8" standalone="no"?>
<!DOCTYPE svg PUBLIC "-//W3C//DTD SVG 1.1//EN"
 "http://www.w3.org/Graphics/SVG/1.1/DTD/svg11.dtd">
<!-- Generated by graphviz version 2.43.0 (0)
 -->
<!-- Title: %3 Pages: 1 -->
<svg width="2032pt" height="131pt"
 viewBox="0.00 0.00 2031.73 131.00" xmlns="http://www.w3.org/2000/svg" xmlns:xlink="http://www.w3.org/1999/xlink">
<g id="graph0" class="graph" transform="scale(1 1) rotate(0) translate(4 127)">
<title>%3</title>
<polygon fill="white" stroke="transparent" points="-4,4 -4,-127 2027.73,-127 2027.73,4 -4,4"/>
<!-- kernel interrupt -->
<g id="node1" class="node">
<title>kernel interrupt</title>
<ellipse fill="none" stroke="black" cx="1021.54" cy="-105" rx="85.29" ry="18"/>
<text text-anchor="middle" x="1021.54" y="-101.3" font-family="Times,serif" font-size="14.00">kernel interrupt</text>
</g>
<!-- noncoding kernel servicetype -->
<g id="node2" class="node">
<title>noncoding kernel servicetype</title>
<ellipse fill="none" stroke="black" cx="147.54" cy="-18" rx="147.57" ry="18"/>
<text text-anchor="middle" x="147.54" y="-14.3" font-family="Times,serif" font-size="14.00">noncoding kernel servicetype</text>
</g>
<!-- kernel interrupt&#45;&gt;noncoding kernel servicetype -->
<g id="edge1" class="edge">
<title>kernel interrupt&#45;&gt;noncoding kernel servicetype</title>
<path fill="none" stroke="black" d="M937.43,-101.83C824.05,-98.25 616.02,-89.35 439.54,-69 368.42,-60.8 288.31,-46.73 230.01,-35.61"/>
<polygon fill="black" stroke="black" points="230.6,-32.15 220.12,-33.71 229.28,-39.03 230.6,-32.15"/>
<text text-anchor="middle" x="453.54" y="-57.8" font-family="Times,serif" font-size="14.00">is_a</text>
</g>
<!-- id -->
<g id="node3" class="node">
<title>id</title>
<ellipse fill="none" stroke="blue" cx="351.54" cy="-18" rx="38.19" ry="18"/>
<text text-anchor="middle" x="351.54" y="-14.3" font-family="Times,serif" font-size="14.00">string</text>
</g>
<!-- kernel interrupt&#45;&gt;id -->
<g id="edge2" class="edge">
<title>kernel interrupt&#45;&gt;id</title>
<path fill="none" stroke="blue" d="M938.57,-100.91C845.84,-96.72 691.37,-87.51 559.54,-69 487.63,-58.9 469.48,-55.5 399.54,-36 396.43,-35.13 393.23,-34.17 390.03,-33.15"/>
<polygon fill="blue" stroke="blue" points="391.12,-29.82 380.52,-29.98 388.91,-36.46 391.12,-29.82"/>
<text text-anchor="middle" x="566.54" y="-57.8" font-family="Times,serif" font-size="14.00">id</text>
</g>
<!-- iri -->
<g id="node4" class="node">
<title>iri</title>
<ellipse fill="none" stroke="blue" cx="452.54" cy="-18" rx="44.39" ry="18"/>
<text text-anchor="middle" x="452.54" y="-14.3" font-family="Times,serif" font-size="14.00">iri type</text>
</g>
<!-- kernel interrupt&#45;&gt;iri -->
<g id="edge3" class="edge">
<title>kernel interrupt&#45;&gt;iri</title>
<path fill="none" stroke="blue" d="M941.04,-98.91C867.46,-93.61 755.77,-83.98 659.54,-69 590.8,-58.3 573.79,-53.8 506.54,-36 502.95,-35.05 499.25,-34.01 495.55,-32.93"/>
<polygon fill="blue" stroke="blue" points="496.4,-29.53 485.81,-30.01 494.38,-36.24 496.4,-29.53"/>
<text text-anchor="middle" x="667.54" y="-57.8" font-family="Times,serif" font-size="14.00">iri</text>
</g>
<!-- type -->
<g id="node5" class="node">
<title>type</title>
<ellipse fill="none" stroke="blue" cx="553.54" cy="-18" rx="38.19" ry="18"/>
<text text-anchor="middle" x="553.54" y="-14.3" font-family="Times,serif" font-size="14.00">string</text>
</g>
<!-- kernel interrupt&#45;&gt;type -->
<g id="edge4" class="edge">
<title>kernel interrupt&#45;&gt;type</title>
<path fill="none" stroke="blue" d="M943.77,-97.47C858.26,-88.9 717.47,-70.7 600.54,-36 597.64,-35.14 594.65,-34.2 591.66,-33.21"/>
<polygon fill="blue" stroke="blue" points="592.79,-29.9 582.19,-29.97 590.52,-36.52 592.79,-29.9"/>
<text text-anchor="middle" x="753.54" y="-57.8" font-family="Times,serif" font-size="14.00">type</text>
</g>
<!-- name -->
<g id="node6" class="node">
<title>name</title>
<ellipse fill="none" stroke="blue" cx="666.54" cy="-18" rx="56.59" ry="18"/>
<text text-anchor="middle" x="666.54" y="-14.3" font-family="Times,serif" font-size="14.00">label type</text>
</g>
<!-- kernel interrupt&#45;&gt;name -->
<g id="edge5" class="edge">
<title>kernel interrupt&#45;&gt;name</title>
<path fill="none" stroke="blue" d="M955.56,-93.61C919.09,-87.4 873.08,-78.83 832.54,-69 792.11,-59.2 746.95,-45.41 713.96,-34.79"/>
<polygon fill="blue" stroke="blue" points="714.72,-31.36 704.12,-31.61 712.56,-38.02 714.72,-31.36"/>
<text text-anchor="middle" x="852.54" y="-57.8" font-family="Times,serif" font-size="14.00">name</text>
</g>
<!-- description -->
<g id="node7" class="node">
<title>description</title>
<ellipse fill="none" stroke="blue" cx="816.54" cy="-18" rx="75.29" ry="18"/>
<text text-anchor="middle" x="816.54" y="-14.3" font-family="Times,serif" font-size="14.00">narrative text</text>
</g>
<!-- kernel interrupt&#45;&gt;description -->
<g id="edge6" class="edge">
<title>kernel interrupt&#45;&gt;description</title>
<path fill="none" stroke="blue" d="M969.47,-90.68C949.46,-84.91 926.61,-77.52 906.54,-69 887.52,-60.93 867.32,-49.95 850.89,-40.34"/>
<polygon fill="blue" stroke="blue" points="852.57,-37.27 842.19,-35.17 849,-43.28 852.57,-37.27"/>
<text text-anchor="middle" x="947.04" y="-57.8" font-family="Times,serif" font-size="14.00">description</text>
</g>
<!-- source -->
<g id="node8" class="node">
<title>source</title>
<ellipse fill="none" stroke="blue" cx="966.54" cy="-18" rx="56.59" ry="18"/>
<text text-anchor="middle" x="966.54" y="-14.3" font-family="Times,serif" font-size="14.00">label type</text>
</g>
<!-- kernel interrupt&#45;&gt;source -->
<g id="edge7" class="edge">
<title>kernel interrupt&#45;&gt;source</title>
<path fill="none" stroke="blue" d="M1010.41,-86.8C1002.53,-74.62 991.83,-58.09 982.97,-44.4"/>
<polygon fill="blue" stroke="blue" points="985.83,-42.38 977.46,-35.89 979.96,-46.18 985.83,-42.38"/>
<text text-anchor="middle" x="1021.54" y="-57.8" font-family="Times,serif" font-size="14.00">source</text>
</g>
<!-- provided by -->
<g id="node9" class="node">
<title>provided by</title>
<ellipse fill="none" stroke="blue" cx="1078.54" cy="-18" rx="37.09" ry="18"/>
<text text-anchor="middle" x="1078.54" y="-14.3" font-family="Times,serif" font-size="14.00">agent</text>
</g>
<!-- kernel interrupt&#45;&gt;provided by -->
<g id="edge8" class="edge">
<title>kernel interrupt&#45;&gt;provided by</title>
<path fill="none" stroke="blue" d="M1036.02,-86.94C1040.53,-81.36 1045.41,-75.04 1049.54,-69 1054.83,-61.26 1060.13,-52.51 1064.71,-44.52"/>
<polygon fill="blue" stroke="blue" points="1067.88,-46.02 1069.73,-35.59 1061.78,-42.59 1067.88,-46.02"/>
<text text-anchor="middle" x="1102.04" y="-57.8" font-family="Times,serif" font-size="14.00">provided by</text>
</g>
<!-- has attribute -->
<g id="node10" class="node">
<title>has attribute</title>
<ellipse fill="none" stroke="blue" cx="1185.54" cy="-18" rx="51.99" ry="18"/>
<text text-anchor="middle" x="1185.54" y="-14.3" font-family="Times,serif" font-size="14.00">attribute</text>
</g>
<!-- kernel interrupt&#45;&gt;has attribute -->
<g id="edge9" class="edge">
<title>kernel interrupt&#45;&gt;has attribute</title>
<path fill="none" stroke="blue" d="M1089.43,-94.05C1109.67,-88.86 1131.09,-80.97 1148.54,-69 1157.62,-62.77 1165.34,-53.57 1171.34,-44.75"/>
<polygon fill="blue" stroke="blue" points="1174.37,-46.51 1176.75,-36.18 1168.45,-42.77 1174.37,-46.51"/>
<text text-anchor="middle" x="1210.54" y="-57.8" font-family="Times,serif" font-size="14.00">has attribute</text>
</g>
<!-- category -->
<g id="node11" class="node">
<title>category</title>
<ellipse fill="none" stroke="black" cx="1306.54" cy="-18" rx="51.19" ry="18"/>
<text text-anchor="middle" x="1306.54" y="-14.3" font-family="Times,serif" font-size="14.00">category</text>
</g>
<!-- kernel interrupt&#45;&gt;category -->
<g id="edge10" class="edge">
<title>kernel interrupt&#45;&gt;category</title>
<path fill="none" stroke="blue" d="M1082.64,-92.44C1093.57,-90.51 1104.88,-88.62 1115.54,-87 1180.18,-77.18 1203.55,-99.21 1261.54,-69 1272.75,-63.16 1282.53,-53.31 1290.08,-43.89"/>
<polygon fill="blue" stroke="blue" points="1292.92,-45.94 1296.12,-35.84 1287.32,-41.74 1292.92,-45.94"/>
<text text-anchor="middle" x="1312.04" y="-57.8" font-family="Times,serif" font-size="14.00">category</text>
</g>
<!-- in taxon -->
<g id="node13" class="node">
<title>in taxon</title>
<ellipse fill="none" stroke="blue" cx="1448.54" cy="-18" rx="72.59" ry="18"/>
<text text-anchor="middle" x="1448.54" y="-14.3" font-family="Times,serif" font-size="14.00">system taxon</text>
</g>
<!-- kernel interrupt&#45;&gt;in taxon -->
<g id="edge11" class="edge">
<title>kernel interrupt&#45;&gt;in taxon</title>
<path fill="none" stroke="blue" d="M1081.57,-92.21C1092.83,-90.26 1104.52,-88.42 1115.54,-87 1218.11,-73.78 1247.82,-96.44 1347.54,-69 1370.88,-62.58 1395.26,-50.68 1414.21,-40.1"/>
<polygon fill="blue" stroke="blue" points="1416.11,-43.05 1423.05,-35.04 1412.64,-36.97 1416.11,-43.05"/>
<text text-anchor="middle" x="1414.54" y="-57.8" font-family="Times,serif" font-size="14.00">in taxon</text>
</g>
<!-- has computational sequence -->
<g id="node14" class="node">
<title>has computational sequence</title>
<ellipse fill="none" stroke="blue" cx="1662.54" cy="-18" rx="123.48" ry="18"/>
<text text-anchor="middle" x="1662.54" y="-14.3" font-family="Times,serif" font-size="14.00">computational sequence</text>
</g>
<!-- kernel interrupt&#45;&gt;has computational sequence -->
<g id="edge12" class="edge">
<title>kernel interrupt&#45;&gt;has computational sequence</title>
<path fill="none" stroke="blue" d="M1081.04,-92.08C1092.45,-90.13 1104.34,-88.31 1115.54,-87 1262.31,-69.82 1301.24,-89.82 1447.54,-69 1498.99,-61.68 1556.27,-48.08 1598.76,-36.91"/>
<polygon fill="blue" stroke="blue" points="1599.92,-40.23 1608.69,-34.28 1598.12,-33.46 1599.92,-40.23"/>
<text text-anchor="middle" x="1627.04" y="-57.8" font-family="Times,serif" font-size="14.00">has computational sequence</text>
</g>
<!-- synonym -->
<g id="node15" class="node">
<title>synonym</title>
<ellipse fill="none" stroke="blue" cx="1860.54" cy="-18" rx="56.59" ry="18"/>
<text text-anchor="middle" x="1860.54" y="-14.3" font-family="Times,serif" font-size="14.00">label type</text>
</g>
<!-- kernel interrupt&#45;&gt;synonym -->
<g id="edge13" class="edge">
<title>kernel interrupt&#45;&gt;synonym</title>
<path fill="none" stroke="blue" d="M1080.51,-91.94C1092.08,-89.97 1104.16,-88.19 1115.54,-87 1251.96,-72.75 1598.12,-96.36 1732.54,-69 1763.94,-62.61 1797.64,-49.16 1822.57,-37.81"/>
<polygon fill="blue" stroke="blue" points="1824.07,-40.97 1831.67,-33.59 1821.12,-34.62 1824.07,-40.97"/>
<text text-anchor="middle" x="1815.54" y="-57.8" font-family="Times,serif" font-size="14.00">synonym</text>
</g>
<!-- xref -->
<g id="node16" class="node">
<title>xref</title>
<ellipse fill="none" stroke="blue" cx="1979.54" cy="-18" rx="44.39" ry="18"/>
<text text-anchor="middle" x="1979.54" y="-14.3" font-family="Times,serif" font-size="14.00">iri type</text>
</g>
<!-- kernel interrupt&#45;&gt;xref -->
<g id="edge14" class="edge">
<title>kernel interrupt&#45;&gt;xref</title>
<path fill="none" stroke="blue" d="M1080.26,-91.94C1091.9,-89.96 1104.07,-88.17 1115.54,-87 1278.3,-70.39 1691.14,-101.25 1851.54,-69 1883.89,-62.49 1918.65,-48.42 1943.77,-36.86"/>
<polygon fill="blue" stroke="blue" points="1945.34,-39.99 1952.9,-32.57 1942.37,-33.65 1945.34,-39.99"/>
<text text-anchor="middle" x="1916.04" y="-57.8" font-family="Times,serif" font-size="14.00">xref</text>
</g>
<!-- named thing_category -->
<g id="node12" class="node">
<title>named thing_category</title>
<ellipse fill="none" stroke="blue" cx="1194.54" cy="-105" rx="69.59" ry="18"/>
<text text-anchor="middle" x="1194.54" y="-101.3" font-family="Times,serif" font-size="14.00">named thing</text>
</g>
</g>
</svg>
