<?xml version="1.0" encoding="UTF-8" standalone="no"?>
<!DOCTYPE svg PUBLIC "-//W3C//DTD SVG 1.1//EN"
 "http://www.w3.org/Graphics/SVG/1.1/DTD/svg11.dtd">
<!-- Generated by graphviz version 2.43.0 (0)
 -->
<!-- Title: %3 Pages: 1 -->
<svg width="2032pt" height="131pt"
 viewBox="0.00 0.00 2031.73 131.00" xmlns="http://www.w3.org/2000/svg" xmlns:xlink="http://www.w3.org/1999/xlink">
<g id="graph0" class="graph" transform="scale(1 1) rotate(0) translate(4 127)">
<title>%3</title>
<polygon fill="white" stroke="transparent" points="-4,4 -4,-127 2027.73,-127 2027.73,4 -4,4"/>
<!-- kernel message -->
<g id="node1" class="node">
<title>kernel message</title>
<ellipse fill="none" stroke="black" cx="1021.54" cy="-105" rx="83.39" ry="18"/>
<text text-anchor="middle" x="1021.54" y="-101.3" font-family="Times,serif" font-size="14.00">kernel message</text>
</g>
<!-- noncoding kernel servicetype -->
<g id="node2" class="node">
<title>noncoding kernel servicetype</title>
<ellipse fill="none" stroke="black" cx="147.54" cy="-18" rx="147.57" ry="18"/>
<text text-anchor="middle" x="147.54" y="-14.3" font-family="Times,serif" font-size="14.00">noncoding kernel servicetype</text>
</g>
<!-- kernel message&#45;&gt;noncoding kernel servicetype -->
<g id="edge1" class="edge">
<title>kernel message&#45;&gt;noncoding kernel servicetype</title>
<path fill="none" stroke="black" d="M939.36,-101.89C826.42,-98.35 617.02,-89.47 439.54,-69 368.42,-60.8 288.31,-46.73 230.01,-35.61"/>
<polygon fill="black" stroke="black" points="230.6,-32.15 220.12,-33.71 229.28,-39.03 230.6,-32.15"/>
<text text-anchor="middle" x="453.54" y="-57.8" font-family="Times,serif" font-size="14.00">is_a</text>
</g>
<!-- id -->
<g id="node3" class="node">
<title>id</title>
<ellipse fill="none" stroke="blue" cx="351.54" cy="-18" rx="38.19" ry="18"/>
<text text-anchor="middle" x="351.54" y="-14.3" font-family="Times,serif" font-size="14.00">string</text>
</g>
<!-- kernel message&#45;&gt;id -->
<g id="edge2" class="edge">
<title>kernel message&#45;&gt;id</title>
<path fill="none" stroke="blue" d="M940.25,-100.99C847.7,-96.83 692.17,-87.62 559.54,-69 487.63,-58.9 469.48,-55.5 399.54,-36 396.43,-35.13 393.23,-34.17 390.03,-33.15"/>
<polygon fill="blue" stroke="blue" points="391.12,-29.82 380.52,-29.98 388.91,-36.46 391.12,-29.82"/>
<text text-anchor="middle" x="566.54" y="-57.8" font-family="Times,serif" font-size="14.00">id</text>
</g>
<!-- iri -->
<g id="node4" class="node">
<title>iri</title>
<ellipse fill="none" stroke="blue" cx="452.54" cy="-18" rx="44.39" ry="18"/>
<text text-anchor="middle" x="452.54" y="-14.3" font-family="Times,serif" font-size="14.00">iri type</text>
</g>
<!-- kernel message&#45;&gt;iri -->
<g id="edge3" class="edge">
<title>kernel message&#45;&gt;iri</title>
<path fill="none" stroke="blue" d="M942.82,-99.03C869.27,-93.77 756.55,-84.1 659.54,-69 590.8,-58.3 573.79,-53.8 506.54,-36 502.95,-35.05 499.25,-34.01 495.55,-32.93"/>
<polygon fill="blue" stroke="blue" points="496.4,-29.53 485.81,-30.01 494.38,-36.24 496.4,-29.53"/>
<text text-anchor="middle" x="667.54" y="-57.8" font-family="Times,serif" font-size="14.00">iri</text>
</g>
<!-- type -->
<g id="node5" class="node">
<title>type</title>
<ellipse fill="none" stroke="blue" cx="553.54" cy="-18" rx="38.19" ry="18"/>
<text text-anchor="middle" x="553.54" y="-14.3" font-family="Times,serif" font-size="14.00">string</text>
</g>
<!-- kernel message&#45;&gt;type -->
<g id="edge4" class="edge">
<title>kernel message&#45;&gt;type</title>
<path fill="none" stroke="blue" d="M945.32,-97.62C859.97,-89.12 718.18,-70.91 600.54,-36 597.64,-35.14 594.65,-34.2 591.66,-33.21"/>
<polygon fill="blue" stroke="blue" points="592.79,-29.9 582.19,-29.97 590.52,-36.52 592.79,-29.9"/>
<text text-anchor="middle" x="753.54" y="-57.8" font-family="Times,serif" font-size="14.00">type</text>
</g>
<!-- name -->
<g id="node6" class="node">
<title>name</title>
<ellipse fill="none" stroke="blue" cx="666.54" cy="-18" rx="56.59" ry="18"/>
<text text-anchor="middle" x="666.54" y="-14.3" font-family="Times,serif" font-size="14.00">label type</text>
</g>
<!-- kernel message&#45;&gt;name -->
<g id="edge5" class="edge">
<title>kernel message&#45;&gt;name</title>
<path fill="none" stroke="blue" d="M956.43,-93.75C919.82,-87.54 873.4,-78.91 832.54,-69 792.11,-59.2 746.95,-45.41 713.96,-34.79"/>
<polygon fill="blue" stroke="blue" points="714.72,-31.36 704.12,-31.61 712.56,-38.02 714.72,-31.36"/>
<text text-anchor="middle" x="852.54" y="-57.8" font-family="Times,serif" font-size="14.00">name</text>
</g>
<!-- description -->
<g id="node7" class="node">
<title>description</title>
<ellipse fill="none" stroke="blue" cx="816.54" cy="-18" rx="75.29" ry="18"/>
<text text-anchor="middle" x="816.54" y="-14.3" font-family="Times,serif" font-size="14.00">narrative text</text>
</g>
<!-- kernel message&#45;&gt;description -->
<g id="edge6" class="edge">
<title>kernel message&#45;&gt;description</title>
<path fill="none" stroke="blue" d="M970.05,-90.85C949.9,-85.06 926.81,-77.6 906.54,-69 887.52,-60.93 867.32,-49.95 850.89,-40.34"/>
<polygon fill="blue" stroke="blue" points="852.57,-37.27 842.19,-35.17 849,-43.28 852.57,-37.27"/>
<text text-anchor="middle" x="947.04" y="-57.8" font-family="Times,serif" font-size="14.00">description</text>
</g>
<!-- source -->
<g id="node8" class="node">
<title>source</title>
<ellipse fill="none" stroke="blue" cx="966.54" cy="-18" rx="56.59" ry="18"/>
<text text-anchor="middle" x="966.54" y="-14.3" font-family="Times,serif" font-size="14.00">label type</text>
</g>
<!-- kernel message&#45;&gt;source -->
<g id="edge7" class="edge">
<title>kernel message&#45;&gt;source</title>
<path fill="none" stroke="blue" d="M1010.41,-86.8C1002.53,-74.62 991.83,-58.09 982.97,-44.4"/>
<polygon fill="blue" stroke="blue" points="985.83,-42.38 977.46,-35.89 979.96,-46.18 985.83,-42.38"/>
<text text-anchor="middle" x="1021.54" y="-57.8" font-family="Times,serif" font-size="14.00">source</text>
</g>
<!-- provided by -->
<g id="node9" class="node">
<title>provided by</title>
<ellipse fill="none" stroke="blue" cx="1078.54" cy="-18" rx="37.09" ry="18"/>
<text text-anchor="middle" x="1078.54" y="-14.3" font-family="Times,serif" font-size="14.00">agent</text>
</g>
<!-- kernel message&#45;&gt;provided by -->
<g id="edge8" class="edge">
<title>kernel message&#45;&gt;provided by</title>
<path fill="none" stroke="blue" d="M1036.02,-86.94C1040.53,-81.36 1045.41,-75.04 1049.54,-69 1054.83,-61.26 1060.13,-52.51 1064.71,-44.52"/>
<polygon fill="blue" stroke="blue" points="1067.88,-46.02 1069.73,-35.59 1061.78,-42.59 1067.88,-46.02"/>
<text text-anchor="middle" x="1102.04" y="-57.8" font-family="Times,serif" font-size="14.00">provided by</text>
</g>
<!-- has attribute -->
<g id="node10" class="node">
<title>has attribute</title>
<ellipse fill="none" stroke="blue" cx="1185.54" cy="-18" rx="51.99" ry="18"/>
<text text-anchor="middle" x="1185.54" y="-14.3" font-family="Times,serif" font-size="14.00">attribute</text>
</g>
<!-- kernel message&#45;&gt;has attribute -->
<g id="edge9" class="edge">
<title>kernel message&#45;&gt;has attribute</title>
<path fill="none" stroke="blue" d="M1088.45,-94.3C1108.98,-89.11 1130.81,-81.16 1148.54,-69 1157.62,-62.77 1165.34,-53.57 1171.34,-44.75"/>
<polygon fill="blue" stroke="blue" points="1174.37,-46.51 1176.75,-36.18 1168.45,-42.77 1174.37,-46.51"/>
<text text-anchor="middle" x="1210.54" y="-57.8" font-family="Times,serif" font-size="14.00">has attribute</text>
</g>
<!-- category -->
<g id="node11" class="node">
<title>category</title>
<ellipse fill="none" stroke="black" cx="1306.54" cy="-18" rx="51.19" ry="18"/>
<text text-anchor="middle" x="1306.54" y="-14.3" font-family="Times,serif" font-size="14.00">category</text>
</g>
<!-- kernel message&#45;&gt;category -->
<g id="edge10" class="edge">
<title>kernel message&#45;&gt;category</title>
<path fill="none" stroke="blue" d="M1081.33,-92.4C1092.03,-90.48 1103.1,-88.6 1113.54,-87 1179.04,-76.98 1202.75,-99.57 1261.54,-69 1272.76,-63.17 1282.54,-53.32 1290.09,-43.9"/>
<polygon fill="blue" stroke="blue" points="1292.93,-45.95 1296.13,-35.85 1287.33,-41.75 1292.93,-45.95"/>
<text text-anchor="middle" x="1312.04" y="-57.8" font-family="Times,serif" font-size="14.00">category</text>
</g>
<!-- in taxon -->
<g id="node13" class="node">
<title>in taxon</title>
<ellipse fill="none" stroke="blue" cx="1448.54" cy="-18" rx="72.59" ry="18"/>
<text text-anchor="middle" x="1448.54" y="-14.3" font-family="Times,serif" font-size="14.00">system taxon</text>
</g>
<!-- kernel message&#45;&gt;in taxon -->
<g id="edge11" class="edge">
<title>kernel message&#45;&gt;in taxon</title>
<path fill="none" stroke="blue" d="M1080.29,-92.19C1091.3,-90.24 1102.75,-88.41 1113.54,-87 1216.97,-73.5 1246.96,-96.64 1347.54,-69 1370.88,-62.58 1395.26,-50.69 1414.21,-40.11"/>
<polygon fill="blue" stroke="blue" points="1416.11,-43.05 1423.06,-35.05 1412.64,-36.98 1416.11,-43.05"/>
<text text-anchor="middle" x="1414.54" y="-57.8" font-family="Times,serif" font-size="14.00">in taxon</text>
</g>
<!-- has computational sequence -->
<g id="node14" class="node">
<title>has computational sequence</title>
<ellipse fill="none" stroke="blue" cx="1662.54" cy="-18" rx="123.48" ry="18"/>
<text text-anchor="middle" x="1662.54" y="-14.3" font-family="Times,serif" font-size="14.00">computational sequence</text>
</g>
<!-- kernel message&#45;&gt;has computational sequence -->
<g id="edge12" class="edge">
<title>kernel message&#45;&gt;has computational sequence</title>
<path fill="none" stroke="blue" d="M1079.77,-92.07C1090.94,-90.11 1102.57,-88.3 1113.54,-87 1261.16,-69.46 1300.36,-89.92 1447.54,-69 1499,-61.69 1556.28,-48.09 1598.77,-36.92"/>
<polygon fill="blue" stroke="blue" points="1599.92,-40.23 1608.69,-34.28 1598.13,-33.47 1599.92,-40.23"/>
<text text-anchor="middle" x="1627.04" y="-57.8" font-family="Times,serif" font-size="14.00">has computational sequence</text>
</g>
<!-- synonym -->
<g id="node15" class="node">
<title>synonym</title>
<ellipse fill="none" stroke="blue" cx="1860.54" cy="-18" rx="56.59" ry="18"/>
<text text-anchor="middle" x="1860.54" y="-14.3" font-family="Times,serif" font-size="14.00">label type</text>
</g>
<!-- kernel message&#45;&gt;synonym -->
<g id="edge13" class="edge">
<title>kernel message&#45;&gt;synonym</title>
<path fill="none" stroke="blue" d="M1079.25,-91.94C1090.57,-89.97 1102.39,-88.18 1113.54,-87 1250.38,-72.45 1597.69,-96.44 1732.54,-69 1763.94,-62.61 1797.64,-49.16 1822.57,-37.81"/>
<polygon fill="blue" stroke="blue" points="1824.07,-40.97 1831.67,-33.59 1821.12,-34.63 1824.07,-40.97"/>
<text text-anchor="middle" x="1815.54" y="-57.8" font-family="Times,serif" font-size="14.00">synonym</text>
</g>
<!-- xref -->
<g id="node16" class="node">
<title>xref</title>
<ellipse fill="none" stroke="blue" cx="1979.54" cy="-18" rx="44.39" ry="18"/>
<text text-anchor="middle" x="1979.54" y="-14.3" font-family="Times,serif" font-size="14.00">iri type</text>
</g>
<!-- kernel message&#45;&gt;xref -->
<g id="edge14" class="edge">
<title>kernel message&#45;&gt;xref</title>
<path fill="none" stroke="blue" d="M1079.24,-91.89C1090.57,-89.93 1102.39,-88.16 1113.54,-87 1276.71,-70.04 1690.71,-101.33 1851.54,-69 1883.89,-62.5 1918.65,-48.42 1943.77,-36.86"/>
<polygon fill="blue" stroke="blue" points="1945.34,-39.99 1952.9,-32.57 1942.37,-33.65 1945.34,-39.99"/>
<text text-anchor="middle" x="1916.04" y="-57.8" font-family="Times,serif" font-size="14.00">xref</text>
</g>
<!-- named thing_category -->
<g id="node12" class="node">
<title>named thing_category</title>
<ellipse fill="none" stroke="blue" cx="1192.54" cy="-105" rx="69.59" ry="18"/>
<text text-anchor="middle" x="1192.54" y="-101.3" font-family="Times,serif" font-size="14.00">named thing</text>
</g>
</g>
</svg>
