<?xml version="1.0" encoding="UTF-8" standalone="no"?>
<!DOCTYPE svg PUBLIC "-//W3C//DTD SVG 1.1//EN"
 "http://www.w3.org/Graphics/SVG/1.1/DTD/svg11.dtd">
<!-- Generated by graphviz version 2.43.0 (0)
 -->
<!-- Title: %3 Pages: 1 -->
<svg width="1629pt" height="131pt"
 viewBox="0.00 0.00 1628.69 131.00" xmlns="http://www.w3.org/2000/svg" xmlns:xlink="http://www.w3.org/1999/xlink">
<g id="graph0" class="graph" transform="scale(1 1) rotate(0) translate(4 127)">
<title>%3</title>
<polygon fill="white" stroke="transparent" points="-4,4 -4,-127 1624.69,-127 1624.69,4 -4,4"/>
<!-- lifecycle stage -->
<g id="node1" class="node">
<title>lifecycle stage</title>
<ellipse fill="none" stroke="black" cx="801.89" cy="-105" rx="77.19" ry="18"/>
<text text-anchor="middle" x="801.89" y="-101.3" font-family="Times,serif" font-size="14.00">lifecycle stage</text>
</g>
<!-- systemic entity -->
<g id="node2" class="node">
<title>systemic entity</title>
<ellipse fill="none" stroke="black" cx="81.89" cy="-18" rx="81.79" ry="18"/>
<text text-anchor="middle" x="81.89" y="-14.3" font-family="Times,serif" font-size="14.00">systemic entity</text>
</g>
<!-- lifecycle stage&#45;&gt;systemic entity -->
<g id="edge1" class="edge">
<title>lifecycle stage&#45;&gt;systemic entity</title>
<path fill="none" stroke="black" d="M728.44,-99.23C645.92,-93.53 508.05,-82.99 389.89,-69 293.02,-57.53 269.08,-52.29 172.89,-36 165.92,-34.82 158.66,-33.54 151.41,-32.24"/>
<polygon fill="black" stroke="black" points="152.03,-28.79 141.56,-30.44 150.77,-35.68 152.03,-28.79"/>
<text text-anchor="middle" x="403.89" y="-57.8" font-family="Times,serif" font-size="14.00">is_a</text>
</g>
<!-- thing with taxon -->
<g id="node3" class="node">
<title>thing with taxon</title>
<ellipse fill="none" stroke="black" cx="268.89" cy="-18" rx="87.18" ry="18"/>
<text text-anchor="middle" x="268.89" y="-14.3" font-family="Times,serif" font-size="14.00">thing with taxon</text>
</g>
<!-- lifecycle stage&#45;&gt;thing with taxon -->
<g id="edge2" class="edge">
<title>lifecycle stage&#45;&gt;thing with taxon</title>
<path fill="none" stroke="black" d="M730.73,-97.9C668.74,-92.09 576.54,-82.27 496.89,-69 440.85,-59.66 377.8,-45.56 332.23,-34.7"/>
<polygon fill="black" stroke="black" points="333.03,-31.3 322.49,-32.37 331.4,-38.1 333.03,-31.3"/>
<text text-anchor="middle" x="513.39" y="-57.8" font-family="Times,serif" font-size="14.00">uses</text>
</g>
<!-- id -->
<g id="node4" class="node">
<title>id</title>
<ellipse fill="none" stroke="blue" cx="411.89" cy="-18" rx="38.19" ry="18"/>
<text text-anchor="middle" x="411.89" y="-14.3" font-family="Times,serif" font-size="14.00">string</text>
</g>
<!-- lifecycle stage&#45;&gt;id -->
<g id="edge3" class="edge">
<title>lifecycle stage&#45;&gt;id</title>
<path fill="none" stroke="blue" d="M738.43,-94.59C669.21,-83.58 555.49,-63.33 459.89,-36 456.79,-35.11 453.6,-34.13 450.4,-33.11"/>
<polygon fill="blue" stroke="blue" points="451.49,-29.78 440.9,-29.92 449.27,-36.42 451.49,-29.78"/>
<text text-anchor="middle" x="597.89" y="-57.8" font-family="Times,serif" font-size="14.00">id</text>
</g>
<!-- iri -->
<g id="node5" class="node">
<title>iri</title>
<ellipse fill="none" stroke="blue" cx="512.89" cy="-18" rx="44.39" ry="18"/>
<text text-anchor="middle" x="512.89" y="-14.3" font-family="Times,serif" font-size="14.00">iri type</text>
</g>
<!-- lifecycle stage&#45;&gt;iri -->
<g id="edge4" class="edge">
<title>lifecycle stage&#45;&gt;iri</title>
<path fill="none" stroke="blue" d="M754.05,-90.83C730.74,-84.35 702.32,-76.37 676.89,-69 627.87,-54.78 615.68,-51 566.89,-36 563.4,-34.93 559.78,-33.81 556.15,-32.67"/>
<polygon fill="blue" stroke="blue" points="557.16,-29.32 546.57,-29.68 555.07,-36.01 557.16,-29.32"/>
<text text-anchor="middle" x="684.89" y="-57.8" font-family="Times,serif" font-size="14.00">iri</text>
</g>
<!-- type -->
<g id="node6" class="node">
<title>type</title>
<ellipse fill="none" stroke="blue" cx="613.89" cy="-18" rx="38.19" ry="18"/>
<text text-anchor="middle" x="613.89" y="-14.3" font-family="Times,serif" font-size="14.00">string</text>
</g>
<!-- lifecycle stage&#45;&gt;type -->
<g id="edge5" class="edge">
<title>lifecycle stage&#45;&gt;type</title>
<path fill="none" stroke="blue" d="M767.85,-88.61C734.48,-73.52 683.81,-50.61 649.81,-35.24"/>
<polygon fill="blue" stroke="blue" points="651.25,-32.05 640.69,-31.12 648.36,-38.43 651.25,-32.05"/>
<text text-anchor="middle" x="735.89" y="-57.8" font-family="Times,serif" font-size="14.00">type</text>
</g>
<!-- name -->
<g id="node7" class="node">
<title>name</title>
<ellipse fill="none" stroke="blue" cx="726.89" cy="-18" rx="56.59" ry="18"/>
<text text-anchor="middle" x="726.89" y="-14.3" font-family="Times,serif" font-size="14.00">label type</text>
</g>
<!-- lifecycle stage&#45;&gt;name -->
<g id="edge6" class="edge">
<title>lifecycle stage&#45;&gt;name</title>
<path fill="none" stroke="blue" d="M787.08,-87.21C776.01,-74.67 760.73,-57.35 748.34,-43.3"/>
<polygon fill="blue" stroke="blue" points="750.67,-40.65 741.42,-35.47 745.42,-45.28 750.67,-40.65"/>
<text text-anchor="middle" x="788.89" y="-57.8" font-family="Times,serif" font-size="14.00">name</text>
</g>
<!-- description -->
<g id="node8" class="node">
<title>description</title>
<ellipse fill="none" stroke="blue" cx="876.89" cy="-18" rx="75.29" ry="18"/>
<text text-anchor="middle" x="876.89" y="-14.3" font-family="Times,serif" font-size="14.00">narrative text</text>
</g>
<!-- lifecycle stage&#45;&gt;description -->
<g id="edge7" class="edge">
<title>lifecycle stage&#45;&gt;description</title>
<path fill="none" stroke="blue" d="M816.71,-87.21C827.7,-74.75 842.86,-57.57 855.21,-43.57"/>
<polygon fill="blue" stroke="blue" points="858.11,-45.57 862.11,-35.76 852.87,-40.94 858.11,-45.57"/>
<text text-anchor="middle" x="884.39" y="-57.8" font-family="Times,serif" font-size="14.00">description</text>
</g>
<!-- source -->
<g id="node9" class="node">
<title>source</title>
<ellipse fill="none" stroke="blue" cx="1026.89" cy="-18" rx="56.59" ry="18"/>
<text text-anchor="middle" x="1026.89" y="-14.3" font-family="Times,serif" font-size="14.00">label type</text>
</g>
<!-- lifecycle stage&#45;&gt;source -->
<g id="edge8" class="edge">
<title>lifecycle stage&#45;&gt;source</title>
<path fill="none" stroke="blue" d="M855.19,-91.88C878.21,-85.99 905.23,-78.19 928.89,-69 950.52,-60.6 973.69,-48.92 992.07,-38.95"/>
<polygon fill="blue" stroke="blue" points="993.86,-41.96 1000.94,-34.07 990.49,-35.83 993.86,-41.96"/>
<text text-anchor="middle" x="986.89" y="-57.8" font-family="Times,serif" font-size="14.00">source</text>
</g>
<!-- provided by -->
<g id="node10" class="node">
<title>provided by</title>
<ellipse fill="none" stroke="blue" cx="1138.89" cy="-18" rx="37.09" ry="18"/>
<text text-anchor="middle" x="1138.89" y="-14.3" font-family="Times,serif" font-size="14.00">agent</text>
</g>
<!-- lifecycle stage&#45;&gt;provided by -->
<g id="edge9" class="edge">
<title>lifecycle stage&#45;&gt;provided by</title>
<path fill="none" stroke="blue" d="M857.79,-92.49C867.79,-90.56 878.14,-88.65 887.89,-87 944.1,-77.47 959.83,-83.77 1014.89,-69 1045.97,-60.67 1079.74,-46.7 1104.18,-35.64"/>
<polygon fill="blue" stroke="blue" points="1105.77,-38.77 1113.39,-31.41 1102.85,-32.41 1105.77,-38.77"/>
<text text-anchor="middle" x="1103.39" y="-57.8" font-family="Times,serif" font-size="14.00">provided by</text>
</g>
<!-- category -->
<g id="node11" class="node">
<title>category</title>
<ellipse fill="none" stroke="black" cx="1244.89" cy="-18" rx="51.19" ry="18"/>
<text text-anchor="middle" x="1244.89" y="-14.3" font-family="Times,serif" font-size="14.00">category</text>
</g>
<!-- lifecycle stage&#45;&gt;category -->
<g id="edge10" class="edge">
<title>lifecycle stage&#45;&gt;category</title>
<path fill="none" stroke="blue" d="M856.31,-92.16C866.76,-90.2 877.63,-88.36 887.89,-87 1003.6,-71.65 1037.61,-100.87 1149.89,-69 1172.34,-62.63 1195.55,-50.53 1213.41,-39.84"/>
<polygon fill="blue" stroke="blue" points="1215.55,-42.63 1222.23,-34.41 1211.88,-36.67 1215.55,-42.63"/>
<text text-anchor="middle" x="1217.39" y="-57.8" font-family="Times,serif" font-size="14.00">category</text>
</g>
<!-- has attribute -->
<g id="node13" class="node">
<title>has attribute</title>
<ellipse fill="none" stroke="black" cx="1385.89" cy="-18" rx="71.49" ry="18"/>
<text text-anchor="middle" x="1385.89" y="-14.3" font-family="Times,serif" font-size="14.00">has attribute</text>
</g>
<!-- lifecycle stage&#45;&gt;has attribute -->
<g id="edge11" class="edge">
<title>lifecycle stage&#45;&gt;has attribute</title>
<path fill="none" stroke="blue" d="M855.83,-92.09C866.42,-90.11 877.47,-88.28 887.89,-87 1049.1,-67.2 1093.86,-101.97 1252.89,-69 1284.59,-62.43 1318.74,-49.45 1344.5,-38.37"/>
<polygon fill="blue" stroke="blue" points="1346.19,-41.45 1353.94,-34.23 1343.38,-35.04 1346.19,-41.45"/>
<text text-anchor="middle" x="1348.89" y="-57.8" font-family="Times,serif" font-size="14.00">has attribute</text>
</g>
<!-- in taxon -->
<g id="node15" class="node">
<title>in taxon</title>
<ellipse fill="none" stroke="blue" cx="1547.89" cy="-18" rx="72.59" ry="18"/>
<text text-anchor="middle" x="1547.89" y="-14.3" font-family="Times,serif" font-size="14.00">system taxon</text>
</g>
<!-- lifecycle stage&#45;&gt;in taxon -->
<g id="edge12" class="edge">
<title>lifecycle stage&#45;&gt;in taxon</title>
<path fill="none" stroke="blue" d="M855.82,-91.97C866.4,-90 877.46,-88.21 887.89,-87 1114.08,-60.84 1175.89,-109.87 1399.89,-69 1435.85,-62.44 1474.96,-48.93 1503.95,-37.61"/>
<polygon fill="blue" stroke="blue" points="1505.37,-40.81 1513.37,-33.86 1502.78,-34.3 1505.37,-40.81"/>
<text text-anchor="middle" x="1486.89" y="-57.8" font-family="Times,serif" font-size="14.00">in taxon</text>
</g>
<!-- named thing_category -->
<g id="node12" class="node">
<title>named thing_category</title>
<ellipse fill="none" stroke="blue" cx="966.89" cy="-105" rx="69.59" ry="18"/>
<text text-anchor="middle" x="966.89" y="-101.3" font-family="Times,serif" font-size="14.00">named thing</text>
</g>
<!-- systemic entity_has attribute -->
<g id="node14" class="node">
<title>systemic entity_has attribute</title>
<ellipse fill="none" stroke="blue" cx="1106.89" cy="-105" rx="51.99" ry="18"/>
<text text-anchor="middle" x="1106.89" y="-101.3" font-family="Times,serif" font-size="14.00">attribute</text>
</g>
</g>
</svg>
