<?xml version="1.0" encoding="UTF-8" standalone="no"?>
<!DOCTYPE svg PUBLIC "-//W3C//DTD SVG 1.1//EN"
 "http://www.w3.org/Graphics/SVG/1.1/DTD/svg11.dtd">
<!-- Generated by graphviz version 2.43.0 (0)
 -->
<!-- Title: %3 Pages: 1 -->
<svg width="2344pt" height="291pt"
 viewBox="0.00 0.00 2344.48 291.00" xmlns="http://www.w3.org/2000/svg" xmlns:xlink="http://www.w3.org/1999/xlink">
<g id="graph0" class="graph" transform="scale(1 1) rotate(0) translate(4 287)">
<title>%3</title>
<polygon fill="white" stroke="transparent" points="-4,4 -4,-287 2340.48,-287 2340.48,4 -4,4"/>
<!-- macrooperational machine mixin to computational process association -->
<g id="node1" class="node">
<title>macrooperational machine mixin to computational process association</title>
<ellipse fill="none" stroke="black" cx="1166.79" cy="-265" rx="337.14" ry="18"/>
<text text-anchor="middle" x="1166.79" y="-261.3" font-family="Times,serif" font-size="14.00">macrooperational machine mixin to computational process association</text>
</g>
<!-- functional association -->
<g id="node2" class="node">
<title>functional association</title>
<ellipse fill="none" stroke="black" cx="111.79" cy="-178" rx="111.58" ry="18"/>
<text text-anchor="middle" x="111.79" y="-174.3" font-family="Times,serif" font-size="14.00">functional association</text>
</g>
<!-- macrooperational machine mixin to computational process association&#45;&gt;functional association -->
<g id="edge1" class="edge">
<title>macrooperational machine mixin to computational process association&#45;&gt;functional association</title>
<path fill="none" stroke="black" d="M838.52,-260.81C693.25,-256.52 520.59,-247.51 365.79,-229 302.72,-221.46 231.88,-207 181.06,-195.57"/>
<polygon fill="black" stroke="black" points="181.7,-192.13 171.17,-193.33 180.15,-198.95 181.7,-192.13"/>
<text text-anchor="middle" x="379.79" y="-217.8" font-family="Times,serif" font-size="14.00">is_a</text>
</g>
<!-- id -->
<g id="node3" class="node">
<title>id</title>
<ellipse fill="none" stroke="blue" cx="279.79" cy="-178" rx="38.19" ry="18"/>
<text text-anchor="middle" x="279.79" y="-174.3" font-family="Times,serif" font-size="14.00">string</text>
</g>
<!-- macrooperational machine mixin to computational process association&#45;&gt;id -->
<g id="edge2" class="edge">
<title>macrooperational machine mixin to computational process association&#45;&gt;id</title>
<path fill="none" stroke="blue" d="M857.98,-257.75C742.16,-252.86 609.61,-244.21 489.79,-229 416.9,-219.74 398.59,-215.65 327.79,-196 324.68,-195.14 321.48,-194.17 318.28,-193.16"/>
<polygon fill="blue" stroke="blue" points="319.37,-189.83 308.77,-190 317.16,-196.47 319.37,-189.83"/>
<text text-anchor="middle" x="496.79" y="-217.8" font-family="Times,serif" font-size="14.00">id</text>
</g>
<!-- iri -->
<g id="node4" class="node">
<title>iri</title>
<ellipse fill="none" stroke="blue" cx="380.79" cy="-178" rx="44.39" ry="18"/>
<text text-anchor="middle" x="380.79" y="-174.3" font-family="Times,serif" font-size="14.00">iri type</text>
</g>
<!-- macrooperational machine mixin to computational process association&#45;&gt;iri -->
<g id="edge3" class="edge">
<title>macrooperational machine mixin to computational process association&#45;&gt;iri</title>
<path fill="none" stroke="blue" d="M890.76,-254.65C797.46,-249.46 692.86,-241.43 597.79,-229 524.07,-219.36 505.75,-214.72 433.79,-196 430.41,-195.12 426.94,-194.15 423.45,-193.14"/>
<polygon fill="blue" stroke="blue" points="424.29,-189.73 413.7,-190.19 422.26,-196.43 424.29,-189.73"/>
<text text-anchor="middle" x="605.79" y="-217.8" font-family="Times,serif" font-size="14.00">iri</text>
</g>
<!-- name -->
<g id="node5" class="node">
<title>name</title>
<ellipse fill="none" stroke="blue" cx="499.79" cy="-178" rx="56.59" ry="18"/>
<text text-anchor="middle" x="499.79" y="-174.3" font-family="Times,serif" font-size="14.00">label type</text>
</g>
<!-- macrooperational machine mixin to computational process association&#45;&gt;name -->
<g id="edge4" class="edge">
<title>macrooperational machine mixin to computational process association&#45;&gt;name</title>
<path fill="none" stroke="blue" d="M900.27,-253.93C829.57,-248.74 753.51,-240.88 683.79,-229 636.66,-220.97 584.15,-206.08 547.32,-194.64"/>
<polygon fill="blue" stroke="blue" points="547.96,-191.17 537.37,-191.51 545.86,-197.85 547.96,-191.17"/>
<text text-anchor="middle" x="703.79" y="-217.8" font-family="Times,serif" font-size="14.00">name</text>
</g>
<!-- description -->
<g id="node6" class="node">
<title>description</title>
<ellipse fill="none" stroke="blue" cx="649.79" cy="-178" rx="75.29" ry="18"/>
<text text-anchor="middle" x="649.79" y="-174.3" font-family="Times,serif" font-size="14.00">narrative text</text>
</g>
<!-- macrooperational machine mixin to computational process association&#45;&gt;description -->
<g id="edge5" class="edge">
<title>macrooperational machine mixin to computational process association&#45;&gt;description</title>
<path fill="none" stroke="blue" d="M914.45,-253.03C866.65,-247.75 817.36,-240.09 771.79,-229 743.45,-222.1 713.09,-209.68 689.74,-198.95"/>
<polygon fill="blue" stroke="blue" points="691.06,-195.7 680.52,-194.62 688.09,-202.04 691.06,-195.7"/>
<text text-anchor="middle" x="812.29" y="-217.8" font-family="Times,serif" font-size="14.00">description</text>
</g>
<!-- source -->
<g id="node7" class="node">
<title>source</title>
<ellipse fill="none" stroke="blue" cx="799.79" cy="-178" rx="56.59" ry="18"/>
<text text-anchor="middle" x="799.79" y="-174.3" font-family="Times,serif" font-size="14.00">label type</text>
</g>
<!-- macrooperational machine mixin to computational process association&#45;&gt;source -->
<g id="edge6" class="edge">
<title>macrooperational machine mixin to computational process association&#45;&gt;source</title>
<path fill="none" stroke="blue" d="M978.39,-250.03C948.33,-245 917.89,-238.2 889.79,-229 869.15,-222.24 847.83,-210.64 831.12,-200.31"/>
<polygon fill="blue" stroke="blue" points="832.67,-197.14 822.35,-194.74 828.92,-203.05 832.67,-197.14"/>
<text text-anchor="middle" x="913.79" y="-217.8" font-family="Times,serif" font-size="14.00">source</text>
</g>
<!-- provided by -->
<g id="node8" class="node">
<title>provided by</title>
<ellipse fill="none" stroke="blue" cx="911.79" cy="-178" rx="37.09" ry="18"/>
<text text-anchor="middle" x="911.79" y="-174.3" font-family="Times,serif" font-size="14.00">agent</text>
</g>
<!-- macrooperational machine mixin to computational process association&#45;&gt;provided by -->
<g id="edge7" class="edge">
<title>macrooperational machine mixin to computational process association&#45;&gt;provided by</title>
<path fill="none" stroke="blue" d="M1014.42,-248.89C996.12,-243.94 978.15,-237.46 961.79,-229 949.69,-222.74 938.69,-212.52 930.11,-202.94"/>
<polygon fill="blue" stroke="blue" points="932.63,-200.51 923.49,-195.15 927.3,-205.04 932.63,-200.51"/>
<text text-anchor="middle" x="1004.29" y="-217.8" font-family="Times,serif" font-size="14.00">provided by</text>
</g>
<!-- has attribute -->
<g id="node9" class="node">
<title>has attribute</title>
<ellipse fill="none" stroke="blue" cx="1018.79" cy="-178" rx="51.99" ry="18"/>
<text text-anchor="middle" x="1018.79" y="-174.3" font-family="Times,serif" font-size="14.00">attribute</text>
</g>
<!-- macrooperational machine mixin to computational process association&#45;&gt;has attribute -->
<g id="edge8" class="edge">
<title>macrooperational machine mixin to computational process association&#45;&gt;has attribute</title>
<path fill="none" stroke="blue" d="M1106.52,-247.22C1093.57,-242.33 1080.32,-236.29 1068.79,-229 1057.88,-222.09 1047.49,-212.42 1039.04,-203.42"/>
<polygon fill="blue" stroke="blue" points="1041.44,-200.86 1032.15,-195.77 1036.24,-205.55 1041.44,-200.86"/>
<text text-anchor="middle" x="1115.79" y="-217.8" font-family="Times,serif" font-size="14.00">has attribute</text>
</g>
<!-- predicate -->
<g id="node10" class="node">
<title>predicate</title>
<ellipse fill="none" stroke="blue" cx="1166.79" cy="-178" rx="77.99" ry="18"/>
<text text-anchor="middle" x="1166.79" y="-174.3" font-family="Times,serif" font-size="14.00">predicate type</text>
</g>
<!-- macrooperational machine mixin to computational process association&#45;&gt;predicate -->
<g id="edge9" class="edge">
<title>macrooperational machine mixin to computational process association&#45;&gt;predicate</title>
<path fill="none" stroke="blue" d="M1166.79,-246.8C1166.79,-235.16 1166.79,-219.55 1166.79,-206.24"/>
<polygon fill="blue" stroke="blue" points="1170.29,-206.18 1166.79,-196.18 1163.29,-206.18 1170.29,-206.18"/>
<text text-anchor="middle" x="1200.79" y="-217.8" font-family="Times,serif" font-size="14.00">predicate</text>
</g>
<!-- relation -->
<g id="node11" class="node">
<title>relation</title>
<ellipse fill="none" stroke="blue" cx="1926.79" cy="-18" rx="57.39" ry="18"/>
<text text-anchor="middle" x="1926.79" y="-14.3" font-family="Times,serif" font-size="14.00">uriorcurie</text>
</g>
<!-- macrooperational machine mixin to computational process association&#45;&gt;relation -->
<g id="edge10" class="edge">
<title>macrooperational machine mixin to computational process association&#45;&gt;relation</title>
<path fill="none" stroke="blue" d="M1209.87,-247.08C1219.91,-242.08 1230.17,-236.03 1238.79,-229 1268.76,-204.56 1259.18,-180.77 1291.79,-160 1473.37,-44.34 1736.66,-22.75 1859.26,-19.26"/>
<polygon fill="blue" stroke="blue" points="1859.35,-22.76 1869.26,-19.01 1859.18,-15.76 1859.35,-22.76"/>
<text text-anchor="middle" x="1378.79" y="-130.8" font-family="Times,serif" font-size="14.00">relation</text>
</g>
<!-- negated -->
<g id="node12" class="node">
<title>negated</title>
<ellipse fill="none" stroke="blue" cx="1347.79" cy="-178" rx="46.59" ry="18"/>
<text text-anchor="middle" x="1347.79" y="-174.3" font-family="Times,serif" font-size="14.00">boolean</text>
</g>
<!-- macrooperational machine mixin to computational process association&#45;&gt;negated -->
<g id="edge11" class="edge">
<title>macrooperational machine mixin to computational process association&#45;&gt;negated</title>
<path fill="none" stroke="blue" d="M1240.97,-247.44C1256.56,-242.57 1272.58,-236.49 1286.79,-229 1300.3,-221.88 1313.62,-211.46 1324.35,-201.98"/>
<polygon fill="blue" stroke="blue" points="1326.99,-204.32 1332.01,-194.99 1322.27,-199.15 1326.99,-204.32"/>
<text text-anchor="middle" x="1337.79" y="-217.8" font-family="Times,serif" font-size="14.00">negated</text>
</g>
<!-- qualifiers -->
<g id="node13" class="node">
<title>qualifiers</title>
<ellipse fill="none" stroke="blue" cx="1488.79" cy="-178" rx="76.89" ry="18"/>
<text text-anchor="middle" x="1488.79" y="-174.3" font-family="Times,serif" font-size="14.00">ontology class</text>
</g>
<!-- macrooperational machine mixin to computational process association&#45;&gt;qualifiers -->
<g id="edge12" class="edge">
<title>macrooperational machine mixin to computational process association&#45;&gt;qualifiers</title>
<path fill="none" stroke="blue" d="M1286.78,-248.16C1314.64,-243.18 1343.98,-236.86 1370.79,-229 1397.32,-221.22 1425.89,-209.21 1448.28,-198.91"/>
<polygon fill="blue" stroke="blue" points="1449.89,-202.03 1457.47,-194.62 1446.92,-195.68 1449.89,-202.03"/>
<text text-anchor="middle" x="1444.29" y="-217.8" font-family="Times,serif" font-size="14.00">qualifiers</text>
</g>
<!-- publications -->
<g id="node14" class="node">
<title>publications</title>
<ellipse fill="none" stroke="blue" cx="1645.79" cy="-178" rx="62.29" ry="18"/>
<text text-anchor="middle" x="1645.79" y="-174.3" font-family="Times,serif" font-size="14.00">publication</text>
</g>
<!-- macrooperational machine mixin to computational process association&#45;&gt;publications -->
<g id="edge13" class="edge">
<title>macrooperational machine mixin to computational process association&#45;&gt;publications</title>
<path fill="none" stroke="blue" d="M1347.18,-249.77C1391.45,-244.68 1438.54,-237.92 1481.79,-229 1521.95,-220.72 1566.37,-206.88 1598.85,-195.85"/>
<polygon fill="blue" stroke="blue" points="1600.2,-199.09 1608.52,-192.53 1597.93,-192.47 1600.2,-199.09"/>
<text text-anchor="middle" x="1585.79" y="-217.8" font-family="Times,serif" font-size="14.00">publications</text>
</g>
<!-- type -->
<g id="node15" class="node">
<title>type</title>
<ellipse fill="none" stroke="black" cx="1757.79" cy="-178" rx="31.4" ry="18"/>
<text text-anchor="middle" x="1757.79" y="-174.3" font-family="Times,serif" font-size="14.00">type</text>
</g>
<!-- macrooperational machine mixin to computational process association&#45;&gt;type -->
<g id="edge14" class="edge">
<title>macrooperational machine mixin to computational process association&#45;&gt;type</title>
<path fill="none" stroke="blue" d="M1409.19,-252.48C1499.54,-246.78 1590.61,-238.96 1633.79,-229 1666.34,-221.5 1701.47,-206.63 1726.01,-195.05"/>
<polygon fill="blue" stroke="blue" points="1727.69,-198.12 1735.18,-190.64 1724.65,-191.82 1727.69,-198.12"/>
<text text-anchor="middle" x="1695.79" y="-217.8" font-family="Times,serif" font-size="14.00">type</text>
</g>
<!-- category -->
<g id="node17" class="node">
<title>category</title>
<ellipse fill="none" stroke="black" cx="1858.79" cy="-178" rx="51.19" ry="18"/>
<text text-anchor="middle" x="1858.79" y="-174.3" font-family="Times,serif" font-size="14.00">category</text>
</g>
<!-- macrooperational machine mixin to computational process association&#45;&gt;category -->
<g id="edge15" class="edge">
<title>macrooperational machine mixin to computational process association&#45;&gt;category</title>
<path fill="none" stroke="blue" d="M1401.02,-252.04C1535.76,-244.63 1684.46,-235.35 1715.79,-229 1751.41,-221.78 1790.25,-207.78 1818.45,-196.43"/>
<polygon fill="blue" stroke="blue" points="1820.03,-199.57 1827.96,-192.54 1817.38,-193.09 1820.03,-199.57"/>
<text text-anchor="middle" x="1800.29" y="-217.8" font-family="Times,serif" font-size="14.00">category</text>
</g>
<!-- subject -->
<g id="node19" class="node">
<title>subject</title>
<ellipse fill="none" stroke="black" cx="1972.79" cy="-178" rx="44.39" ry="18"/>
<text text-anchor="middle" x="1972.79" y="-174.3" font-family="Times,serif" font-size="14.00">subject</text>
</g>
<!-- macrooperational machine mixin to computational process association&#45;&gt;subject -->
<g id="edge16" class="edge">
<title>macrooperational machine mixin to computational process association&#45;&gt;subject</title>
<path fill="none" stroke="blue" d="M1406.21,-252.3C1593.83,-243 1825.03,-231.19 1835.79,-229 1870.59,-221.91 1908.39,-207.57 1935.45,-196.07"/>
<polygon fill="blue" stroke="blue" points="1937.12,-199.16 1944.91,-191.97 1934.34,-192.73 1937.12,-199.16"/>
<text text-anchor="middle" x="1911.79" y="-217.8" font-family="Times,serif" font-size="14.00">subject</text>
</g>
<!-- object -->
<g id="node21" class="node">
<title>object</title>
<ellipse fill="none" stroke="black" cx="1993.79" cy="-91" rx="38.99" ry="18"/>
<text text-anchor="middle" x="1993.79" y="-87.3" font-family="Times,serif" font-size="14.00">object</text>
</g>
<!-- macrooperational machine mixin to computational process association&#45;&gt;object -->
<g id="edge17" class="edge">
<title>macrooperational machine mixin to computational process association&#45;&gt;object</title>
<path fill="none" stroke="blue" d="M1403.84,-252.17C1440.65,-250.39 1478.24,-248.62 1513.79,-247 1608.89,-242.67 1848.65,-248.68 1941.79,-229 1981.03,-220.71 1999.45,-226.25 2025.79,-196 2046.28,-172.46 2052.5,-155.03 2038.79,-127 2035.94,-121.17 2031.59,-116.02 2026.7,-111.6"/>
<polygon fill="blue" stroke="blue" points="2028.72,-108.73 2018.71,-105.25 2024.36,-114.21 2028.72,-108.73"/>
<text text-anchor="middle" x="2066.79" y="-174.3" font-family="Times,serif" font-size="14.00">object</text>
</g>
<!-- association_type -->
<g id="node16" class="node">
<title>association_type</title>
<ellipse fill="none" stroke="blue" cx="1560.79" cy="-265" rx="38.19" ry="18"/>
<text text-anchor="middle" x="1560.79" y="-261.3" font-family="Times,serif" font-size="14.00">string</text>
</g>
<!-- association_category -->
<g id="node18" class="node">
<title>association_category</title>
<ellipse fill="none" stroke="blue" cx="1679.79" cy="-265" rx="62.29" ry="18"/>
<text text-anchor="middle" x="1679.79" y="-261.3" font-family="Times,serif" font-size="14.00">association</text>
</g>
<!-- subject&#45;&gt;relation -->
<g id="edge19" class="edge">
<title>subject&#45;&gt;relation</title>
<path fill="none" stroke="black" stroke-dasharray="1,5" d="M1965.21,-160.24C1959.29,-146.64 1951.18,-126.88 1945.79,-109 1939.53,-88.27 1934.57,-64.24 1931.29,-46.23"/>
<polygon fill="black" stroke="black" points="1934.7,-45.38 1929.51,-36.14 1927.8,-46.59 1934.7,-45.38"/>
</g>
<!-- subject&#45;&gt;object -->
<g id="edge18" class="edge">
<title>subject&#45;&gt;object</title>
<path fill="none" stroke="black" d="M1975.76,-159.77C1977.55,-150.09 1980.02,-137.8 1982.79,-127 1983.48,-124.32 1984.25,-121.53 1985.06,-118.76"/>
<polygon fill="black" stroke="black" points="1988.47,-119.57 1988.05,-108.98 1981.78,-117.52 1988.47,-119.57"/>
<text text-anchor="middle" x="2010.79" y="-130.8" font-family="Times,serif" font-size="14.00">relation</text>
</g>
<!-- functional association_subject -->
<g id="node20" class="node">
<title>functional association_subject</title>
<ellipse fill="none" stroke="blue" cx="1923.79" cy="-265" rx="163.27" ry="18"/>
<text text-anchor="middle" x="1923.79" y="-261.3" font-family="Times,serif" font-size="14.00">macrooperational machine mixin</text>
</g>
<!-- object&#45;&gt;relation -->
<g id="edge20" class="edge">
<title>object&#45;&gt;relation</title>
<path fill="none" stroke="black" stroke-dasharray="1,5" d="M1978.92,-74.24C1970.32,-65.13 1959.31,-53.47 1949.63,-43.21"/>
<polygon fill="black" stroke="black" points="1951.96,-40.57 1942.55,-35.7 1946.87,-45.38 1951.96,-40.57"/>
</g>
<!-- macrooperational machine mixin to computational process association_object -->
<g id="node22" class="node">
<title>macrooperational machine mixin to computational process association_object</title>
<ellipse fill="none" stroke="blue" cx="2220.79" cy="-265" rx="115.88" ry="18"/>
<text text-anchor="middle" x="2220.79" y="-261.3" font-family="Times,serif" font-size="14.00">computational process</text>
</g>
</g>
</svg>
