<?xml version="1.0" encoding="UTF-8" standalone="no"?>
<!DOCTYPE svg PUBLIC "-//W3C//DTD SVG 1.1//EN"
 "http://www.w3.org/Graphics/SVG/1.1/DTD/svg11.dtd">
<!-- Generated by graphviz version 2.43.0 (0)
 -->
<!-- Title: %3 Pages: 1 -->
<svg width="596pt" height="131pt"
 viewBox="0.00 0.00 595.73 131.00" xmlns="http://www.w3.org/2000/svg" xmlns:xlink="http://www.w3.org/1999/xlink">
<g id="graph0" class="graph" transform="scale(1 1) rotate(0) translate(4 127)">
<title>%3</title>
<polygon fill="white" stroke="transparent" points="-4,4 -4,-127 591.73,-127 591.73,4 -4,4"/>
<!-- macrooperational complex mixin -->
<g id="node1" class="node">
<title>macrooperational complex mixin</title>
<ellipse fill="none" stroke="black" cx="272.14" cy="-105" rx="162.47" ry="18"/>
<text text-anchor="middle" x="272.14" y="-101.3" font-family="Times,serif" font-size="14.00">macrooperational complex mixin</text>
</g>
<!-- macrooperational machine mixin -->
<g id="node2" class="node">
<title>macrooperational machine mixin</title>
<ellipse fill="none" stroke="black" cx="163.14" cy="-18" rx="163.27" ry="18"/>
<text text-anchor="middle" x="163.14" y="-14.3" font-family="Times,serif" font-size="14.00">macrooperational machine mixin</text>
</g>
<!-- macrooperational complex mixin&#45;&gt;macrooperational machine mixin -->
<g id="edge1" class="edge">
<title>macrooperational complex mixin&#45;&gt;macrooperational machine mixin</title>
<path fill="none" stroke="black" d="M250.34,-87C233.85,-74.15 211.03,-56.35 192.87,-42.19"/>
<polygon fill="black" stroke="black" points="194.93,-39.36 184.89,-35.97 190.63,-44.88 194.93,-39.36"/>
<text text-anchor="middle" x="239.14" y="-57.8" font-family="Times,serif" font-size="14.00">is_a</text>
</g>
<!-- name -->
<g id="node3" class="node">
<title>name</title>
<ellipse fill="none" stroke="black" cx="381.14" cy="-18" rx="36.29" ry="18"/>
<text text-anchor="middle" x="381.14" y="-14.3" font-family="Times,serif" font-size="14.00">name</text>
</g>
<!-- macrooperational complex mixin&#45;&gt;name -->
<g id="edge2" class="edge">
<title>macrooperational complex mixin&#45;&gt;name</title>
<path fill="none" stroke="blue" d="M293.93,-87C311.28,-73.48 335.64,-54.48 354.21,-40"/>
<polygon fill="blue" stroke="blue" points="356.55,-42.61 362.29,-33.7 352.25,-37.09 356.55,-42.61"/>
<text text-anchor="middle" x="353.14" y="-57.8" font-family="Times,serif" font-size="14.00">name</text>
</g>
<!-- macrooperational machine mixin_name -->
<g id="node4" class="node">
<title>macrooperational machine mixin_name</title>
<ellipse fill="none" stroke="blue" cx="520.14" cy="-105" rx="67.69" ry="18"/>
<text text-anchor="middle" x="520.14" y="-101.3" font-family="Times,serif" font-size="14.00">symbol type</text>
</g>
</g>
</svg>
