<?xml version="1.0" encoding="UTF-8" standalone="no"?>
<!DOCTYPE svg PUBLIC "-//W3C//DTD SVG 1.1//EN"
 "http://www.w3.org/Graphics/SVG/1.1/DTD/svg11.dtd">
<!-- Generated by graphviz version 2.43.0 (0)
 -->
<!-- Title: %3 Pages: 1 -->
<svg width="1346pt" height="131pt"
 viewBox="0.00 0.00 1345.69 131.00" xmlns="http://www.w3.org/2000/svg" xmlns:xlink="http://www.w3.org/1999/xlink">
<g id="graph0" class="graph" transform="scale(1 1) rotate(0) translate(4 127)">
<title>%3</title>
<polygon fill="white" stroke="transparent" points="-4,4 -4,-127 1341.69,-127 1341.69,4 -4,4"/>
<!-- message passing -->
<g id="node1" class="node">
<title>message passing</title>
<ellipse fill="none" stroke="black" cx="632.9" cy="-105" rx="89.88" ry="18"/>
<text text-anchor="middle" x="632.9" y="-101.3" font-family="Times,serif" font-size="14.00">message passing</text>
</g>
<!-- bitstream -->
<g id="node2" class="node">
<title>bitstream</title>
<ellipse fill="none" stroke="black" cx="55.9" cy="-18" rx="55.79" ry="18"/>
<text text-anchor="middle" x="55.9" y="-14.3" font-family="Times,serif" font-size="14.00">bitstream</text>
</g>
<!-- message passing&#45;&gt;bitstream -->
<g id="edge1" class="edge">
<title>message passing&#45;&gt;bitstream</title>
<path fill="none" stroke="black" d="M547.62,-99.19C472.35,-94.17 359.86,-84.78 262.9,-69 198.94,-58.59 183.8,-51.53 120.9,-36 116.51,-34.92 111.96,-33.77 107.4,-32.61"/>
<polygon fill="black" stroke="black" points="108.02,-29.15 97.46,-30.05 106.28,-35.93 108.02,-29.15"/>
<text text-anchor="middle" x="276.9" y="-57.8" font-family="Times,serif" font-size="14.00">is_a</text>
</g>
<!-- id -->
<g id="node3" class="node">
<title>id</title>
<ellipse fill="none" stroke="blue" cx="167.9" cy="-18" rx="38.19" ry="18"/>
<text text-anchor="middle" x="167.9" y="-14.3" font-family="Times,serif" font-size="14.00">string</text>
</g>
<!-- message passing&#45;&gt;id -->
<g id="edge2" class="edge">
<title>message passing&#45;&gt;id</title>
<path fill="none" stroke="blue" d="M553.72,-96.53C468.96,-87.28 331.12,-68.6 215.9,-36 212.79,-35.12 209.59,-34.15 206.4,-33.12"/>
<polygon fill="blue" stroke="blue" points="207.49,-29.8 196.89,-29.95 205.27,-36.44 207.49,-29.8"/>
<text text-anchor="middle" x="358.9" y="-57.8" font-family="Times,serif" font-size="14.00">id</text>
</g>
<!-- iri -->
<g id="node4" class="node">
<title>iri</title>
<ellipse fill="none" stroke="blue" cx="268.9" cy="-18" rx="44.39" ry="18"/>
<text text-anchor="middle" x="268.9" y="-14.3" font-family="Times,serif" font-size="14.00">iri type</text>
</g>
<!-- message passing&#45;&gt;iri -->
<g id="edge3" class="edge">
<title>message passing&#45;&gt;iri</title>
<path fill="none" stroke="blue" d="M567.1,-92.61C531.91,-86.23 487.91,-77.81 448.9,-69 392.43,-56.25 378.52,-52.03 322.9,-36 319.38,-34.99 315.75,-33.91 312.11,-32.81"/>
<polygon fill="blue" stroke="blue" points="313.11,-29.45 302.52,-29.86 311.05,-36.15 313.11,-29.45"/>
<text text-anchor="middle" x="456.9" y="-57.8" font-family="Times,serif" font-size="14.00">iri</text>
</g>
<!-- type -->
<g id="node5" class="node">
<title>type</title>
<ellipse fill="none" stroke="blue" cx="369.9" cy="-18" rx="38.19" ry="18"/>
<text text-anchor="middle" x="369.9" y="-14.3" font-family="Times,serif" font-size="14.00">string</text>
</g>
<!-- message passing&#45;&gt;type -->
<g id="edge4" class="edge">
<title>message passing&#45;&gt;type</title>
<path fill="none" stroke="blue" d="M583.25,-89.9C561.85,-83.69 536.58,-76.19 513.9,-69 470.49,-55.24 459.86,-51.08 416.9,-36 414.21,-35.06 411.44,-34.08 408.65,-33.08"/>
<polygon fill="blue" stroke="blue" points="409.79,-29.78 399.2,-29.7 407.43,-36.37 409.79,-29.78"/>
<text text-anchor="middle" x="529.9" y="-57.8" font-family="Times,serif" font-size="14.00">type</text>
</g>
<!-- name -->
<g id="node6" class="node">
<title>name</title>
<ellipse fill="none" stroke="blue" cx="482.9" cy="-18" rx="56.59" ry="18"/>
<text text-anchor="middle" x="482.9" y="-14.3" font-family="Times,serif" font-size="14.00">label type</text>
</g>
<!-- message passing&#45;&gt;name -->
<g id="edge5" class="edge">
<title>message passing&#45;&gt;name</title>
<path fill="none" stroke="blue" d="M604.33,-87.81C579.84,-73.94 544.48,-53.9 518.22,-39.02"/>
<polygon fill="blue" stroke="blue" points="519.77,-35.87 509.34,-33.99 516.32,-41.96 519.77,-35.87"/>
<text text-anchor="middle" x="586.9" y="-57.8" font-family="Times,serif" font-size="14.00">name</text>
</g>
<!-- description -->
<g id="node7" class="node">
<title>description</title>
<ellipse fill="none" stroke="blue" cx="632.9" cy="-18" rx="75.29" ry="18"/>
<text text-anchor="middle" x="632.9" y="-14.3" font-family="Times,serif" font-size="14.00">narrative text</text>
</g>
<!-- message passing&#45;&gt;description -->
<g id="edge6" class="edge">
<title>message passing&#45;&gt;description</title>
<path fill="none" stroke="blue" d="M632.9,-86.8C632.9,-75.16 632.9,-59.55 632.9,-46.24"/>
<polygon fill="blue" stroke="blue" points="636.4,-46.18 632.9,-36.18 629.4,-46.18 636.4,-46.18"/>
<text text-anchor="middle" x="673.4" y="-57.8" font-family="Times,serif" font-size="14.00">description</text>
</g>
<!-- source -->
<g id="node8" class="node">
<title>source</title>
<ellipse fill="none" stroke="blue" cx="782.9" cy="-18" rx="56.59" ry="18"/>
<text text-anchor="middle" x="782.9" y="-14.3" font-family="Times,serif" font-size="14.00">label type</text>
</g>
<!-- message passing&#45;&gt;source -->
<g id="edge7" class="edge">
<title>message passing&#45;&gt;source</title>
<path fill="none" stroke="blue" d="M675.45,-89.04C689.35,-83.49 704.62,-76.65 717.9,-69 731.49,-61.16 745.43,-50.8 756.9,-41.54"/>
<polygon fill="blue" stroke="blue" points="759.28,-44.11 764.77,-35.05 754.83,-38.71 759.28,-44.11"/>
<text text-anchor="middle" x="764.9" y="-57.8" font-family="Times,serif" font-size="14.00">source</text>
</g>
<!-- provided by -->
<g id="node9" class="node">
<title>provided by</title>
<ellipse fill="none" stroke="blue" cx="894.9" cy="-18" rx="37.09" ry="18"/>
<text text-anchor="middle" x="894.9" y="-14.3" font-family="Times,serif" font-size="14.00">agent</text>
</g>
<!-- message passing&#45;&gt;provided by -->
<g id="edge8" class="edge">
<title>message passing&#45;&gt;provided by</title>
<path fill="none" stroke="blue" d="M700.06,-93.04C729.05,-87.35 763.09,-79.39 792.9,-69 817.17,-60.53 843.17,-47.73 862.84,-37.19"/>
<polygon fill="blue" stroke="blue" points="864.57,-40.24 871.68,-32.39 861.23,-34.09 864.57,-40.24"/>
<text text-anchor="middle" x="870.4" y="-57.8" font-family="Times,serif" font-size="14.00">provided by</text>
</g>
<!-- has attribute -->
<g id="node10" class="node">
<title>has attribute</title>
<ellipse fill="none" stroke="blue" cx="1001.9" cy="-18" rx="51.99" ry="18"/>
<text text-anchor="middle" x="1001.9" y="-14.3" font-family="Times,serif" font-size="14.00">attribute</text>
</g>
<!-- message passing&#45;&gt;has attribute -->
<g id="edge9" class="edge">
<title>message passing&#45;&gt;has attribute</title>
<path fill="none" stroke="blue" d="M696.57,-92.24C707.98,-90.34 719.77,-88.5 730.9,-87 813.2,-75.89 837.91,-94.66 916.9,-69 936.82,-62.53 957.11,-50.82 972.87,-40.36"/>
<polygon fill="blue" stroke="blue" points="974.85,-43.25 981.13,-34.72 970.9,-37.47 974.85,-43.25"/>
<text text-anchor="middle" x="996.9" y="-57.8" font-family="Times,serif" font-size="14.00">has attribute</text>
</g>
<!-- category -->
<g id="node11" class="node">
<title>category</title>
<ellipse fill="none" stroke="black" cx="1122.9" cy="-18" rx="51.19" ry="18"/>
<text text-anchor="middle" x="1122.9" y="-14.3" font-family="Times,serif" font-size="14.00">category</text>
</g>
<!-- message passing&#45;&gt;category -->
<g id="edge10" class="edge">
<title>message passing&#45;&gt;category</title>
<path fill="none" stroke="blue" d="M695.48,-92.04C707.21,-90.11 719.4,-88.32 730.9,-87 800.99,-78.96 980.97,-91.35 1047.9,-69 1065.72,-63.05 1083.32,-51.68 1096.99,-41.28"/>
<polygon fill="blue" stroke="blue" points="1099.28,-43.94 1104.96,-34.99 1094.94,-38.44 1099.28,-43.94"/>
<text text-anchor="middle" x="1108.4" y="-57.8" font-family="Times,serif" font-size="14.00">category</text>
</g>
<!-- in taxon -->
<g id="node13" class="node">
<title>in taxon</title>
<ellipse fill="none" stroke="blue" cx="1264.9" cy="-18" rx="72.59" ry="18"/>
<text text-anchor="middle" x="1264.9" y="-14.3" font-family="Times,serif" font-size="14.00">system taxon</text>
</g>
<!-- message passing&#45;&gt;in taxon -->
<g id="edge11" class="edge">
<title>message passing&#45;&gt;in taxon</title>
<path fill="none" stroke="blue" d="M695.2,-91.96C707.02,-90.03 719.31,-88.25 730.9,-87 913.56,-67.26 964.5,-108.68 1143.9,-69 1172.57,-62.66 1203.12,-49.98 1226.35,-38.98"/>
<polygon fill="blue" stroke="blue" points="1228.03,-42.05 1235.51,-34.55 1224.98,-35.75 1228.03,-42.05"/>
<text text-anchor="middle" x="1216.9" y="-57.8" font-family="Times,serif" font-size="14.00">in taxon</text>
</g>
<!-- named thing_category -->
<g id="node12" class="node">
<title>named thing_category</title>
<ellipse fill="none" stroke="blue" cx="809.9" cy="-105" rx="69.59" ry="18"/>
<text text-anchor="middle" x="809.9" y="-101.3" font-family="Times,serif" font-size="14.00">named thing</text>
</g>
</g>
</svg>
