<?xml version="1.0" encoding="UTF-8" standalone="no"?>
<!DOCTYPE svg PUBLIC "-//W3C//DTD SVG 1.1//EN"
 "http://www.w3.org/Graphics/SVG/1.1/DTD/svg11.dtd">
<!-- Generated by graphviz version 2.43.0 (0)
 -->
<!-- Title: %3 Pages: 1 -->
<svg width="662pt" height="131pt"
 viewBox="0.00 0.00 662.18 131.00" xmlns="http://www.w3.org/2000/svg" xmlns:xlink="http://www.w3.org/1999/xlink">
<g id="graph0" class="graph" transform="scale(1 1) rotate(0) translate(4 127)">
<title>%3</title>
<polygon fill="white" stroke="transparent" points="-4,4 -4,-127 658.18,-127 658.18,4 -4,4"/>
<!-- model to error association mixin -->
<g id="node1" class="node">
<title>model to error association mixin</title>
<ellipse fill="none" stroke="black" cx="161.19" cy="-105" rx="161.37" ry="18"/>
<text text-anchor="middle" x="161.19" y="-101.3" font-family="Times,serif" font-size="14.00">model to error association mixin</text>
</g>
<!-- subject -->
<g id="node2" class="node">
<title>subject</title>
<ellipse fill="none" stroke="black" cx="103.19" cy="-18" rx="44.39" ry="18"/>
<text text-anchor="middle" x="103.19" y="-14.3" font-family="Times,serif" font-size="14.00">subject</text>
</g>
<!-- model to error association mixin&#45;&gt;subject -->
<g id="edge1" class="edge">
<title>model to error association mixin&#45;&gt;subject</title>
<path fill="none" stroke="blue" d="M149.45,-86.8C141.09,-74.54 129.71,-57.87 120.33,-44.13"/>
<polygon fill="blue" stroke="blue" points="123.04,-41.88 114.51,-35.6 117.26,-45.83 123.04,-41.88"/>
<text text-anchor="middle" x="162.19" y="-57.8" font-family="Times,serif" font-size="14.00">subject</text>
</g>
<!-- predicate -->
<g id="node4" class="node">
<title>predicate</title>
<ellipse fill="none" stroke="black" cx="220.19" cy="-18" rx="54.69" ry="18"/>
<text text-anchor="middle" x="220.19" y="-14.3" font-family="Times,serif" font-size="14.00">predicate</text>
</g>
<!-- model to error association mixin&#45;&gt;predicate -->
<g id="edge2" class="edge">
<title>model to error association mixin&#45;&gt;predicate</title>
<path fill="none" stroke="blue" d="M177.73,-86.81C182.64,-81.32 187.86,-75.09 192.19,-69 197.49,-61.54 202.59,-52.98 206.96,-45.08"/>
<polygon fill="blue" stroke="blue" points="210.08,-46.68 211.72,-36.21 203.91,-43.37 210.08,-46.68"/>
<text text-anchor="middle" x="235.19" y="-57.8" font-family="Times,serif" font-size="14.00">predicate</text>
</g>
<!-- model to error association mixin_subject -->
<g id="node3" class="node">
<title>model to error association mixin_subject</title>
<ellipse fill="none" stroke="blue" cx="410.19" cy="-105" rx="69.59" ry="18"/>
<text text-anchor="middle" x="410.19" y="-101.3" font-family="Times,serif" font-size="14.00">named thing</text>
</g>
<!-- model to error association mixin_predicate -->
<g id="node5" class="node">
<title>model to error association mixin_predicate</title>
<ellipse fill="none" stroke="blue" cx="576.19" cy="-105" rx="77.99" ry="18"/>
<text text-anchor="middle" x="576.19" y="-101.3" font-family="Times,serif" font-size="14.00">predicate type</text>
</g>
</g>
</svg>
