<?xml version="1.0" encoding="UTF-8" standalone="no"?>
<!DOCTYPE svg PUBLIC "-//W3C//DTD SVG 1.1//EN"
 "http://www.w3.org/Graphics/SVG/1.1/DTD/svg11.dtd">
<!-- Generated by graphviz version 2.43.0 (0)
 -->
<!-- Title: %3 Pages: 1 -->
<svg width="1960pt" height="131pt"
 viewBox="0.00 0.00 1960.34 131.00" xmlns="http://www.w3.org/2000/svg" xmlns:xlink="http://www.w3.org/1999/xlink">
<g id="graph0" class="graph" transform="scale(1 1) rotate(0) translate(4 127)">
<title>%3</title>
<polygon fill="white" stroke="transparent" points="-4,4 -4,-127 1956.34,-127 1956.34,4 -4,4"/>
<!-- monomeric variant -->
<g id="node1" class="node">
<title>monomeric variant</title>
<ellipse fill="none" stroke="black" cx="868.34" cy="-105" rx="98.58" ry="18"/>
<text text-anchor="middle" x="868.34" y="-101.3" font-family="Times,serif" font-size="14.00">monomeric variant</text>
</g>
<!-- sequence variant -->
<g id="node2" class="node">
<title>sequence variant</title>
<ellipse fill="none" stroke="black" cx="90.34" cy="-18" rx="90.18" ry="18"/>
<text text-anchor="middle" x="90.34" y="-14.3" font-family="Times,serif" font-size="14.00">sequence variant</text>
</g>
<!-- monomeric variant&#45;&gt;sequence variant -->
<g id="edge1" class="edge">
<title>monomeric variant&#45;&gt;sequence variant</title>
<path fill="none" stroke="black" d="M771.18,-101.58C664.04,-97.99 486.76,-89.33 335.34,-69 273.55,-60.71 203.99,-45.98 154.82,-34.65"/>
<polygon fill="black" stroke="black" points="155.49,-31.22 144.96,-32.36 153.91,-38.04 155.49,-31.22"/>
<text text-anchor="middle" x="349.34" y="-57.8" font-family="Times,serif" font-size="14.00">is_a</text>
</g>
<!-- iri -->
<g id="node3" class="node">
<title>iri</title>
<ellipse fill="none" stroke="blue" cx="243.34" cy="-18" rx="44.39" ry="18"/>
<text text-anchor="middle" x="243.34" y="-14.3" font-family="Times,serif" font-size="14.00">iri type</text>
</g>
<!-- monomeric variant&#45;&gt;iri -->
<g id="edge2" class="edge">
<title>monomeric variant&#45;&gt;iri</title>
<path fill="none" stroke="blue" d="M773.68,-99.69C688.29,-94.95 559.41,-85.69 448.34,-69 380.41,-58.79 363.73,-53.67 297.34,-36 293.76,-35.05 290.06,-34.01 286.36,-32.92"/>
<polygon fill="blue" stroke="blue" points="287.2,-29.52 276.62,-29.99 285.19,-36.23 287.2,-29.52"/>
<text text-anchor="middle" x="456.34" y="-57.8" font-family="Times,serif" font-size="14.00">iri</text>
</g>
<!-- type -->
<g id="node4" class="node">
<title>type</title>
<ellipse fill="none" stroke="blue" cx="344.34" cy="-18" rx="38.19" ry="18"/>
<text text-anchor="middle" x="344.34" y="-14.3" font-family="Times,serif" font-size="14.00">string</text>
</g>
<!-- monomeric variant&#45;&gt;type -->
<g id="edge3" class="edge">
<title>monomeric variant&#45;&gt;type</title>
<path fill="none" stroke="blue" d="M775.72,-98.54C678.41,-91.03 521.68,-73.83 391.34,-36 388.44,-35.16 385.45,-34.23 382.46,-33.25"/>
<polygon fill="blue" stroke="blue" points="383.58,-29.93 372.98,-30.02 381.32,-36.56 383.58,-29.93"/>
<text text-anchor="middle" x="549.34" y="-57.8" font-family="Times,serif" font-size="14.00">type</text>
</g>
<!-- name -->
<g id="node5" class="node">
<title>name</title>
<ellipse fill="none" stroke="blue" cx="457.34" cy="-18" rx="56.59" ry="18"/>
<text text-anchor="middle" x="457.34" y="-14.3" font-family="Times,serif" font-size="14.00">label type</text>
</g>
<!-- monomeric variant&#45;&gt;name -->
<g id="edge4" class="edge">
<title>monomeric variant&#45;&gt;name</title>
<path fill="none" stroke="blue" d="M787.74,-94.51C742.42,-88.53 684.94,-79.89 634.34,-69 590.11,-59.49 540.63,-45.19 505.25,-34.32"/>
<polygon fill="blue" stroke="blue" points="506.25,-30.96 495.66,-31.35 504.18,-37.65 506.25,-30.96"/>
<text text-anchor="middle" x="654.34" y="-57.8" font-family="Times,serif" font-size="14.00">name</text>
</g>
<!-- description -->
<g id="node6" class="node">
<title>description</title>
<ellipse fill="none" stroke="blue" cx="607.34" cy="-18" rx="75.29" ry="18"/>
<text text-anchor="middle" x="607.34" y="-14.3" font-family="Times,serif" font-size="14.00">narrative text</text>
</g>
<!-- monomeric variant&#45;&gt;description -->
<g id="edge5" class="edge">
<title>monomeric variant&#45;&gt;description</title>
<path fill="none" stroke="blue" d="M800.38,-91.82C773.26,-86.12 741.96,-78.47 714.34,-69 690.9,-60.96 665.74,-49.37 645.72,-39.37"/>
<polygon fill="blue" stroke="blue" points="647.12,-36.16 636.61,-34.76 643.95,-42.4 647.12,-36.16"/>
<text text-anchor="middle" x="754.84" y="-57.8" font-family="Times,serif" font-size="14.00">description</text>
</g>
<!-- source -->
<g id="node7" class="node">
<title>source</title>
<ellipse fill="none" stroke="blue" cx="757.34" cy="-18" rx="56.59" ry="18"/>
<text text-anchor="middle" x="757.34" y="-14.3" font-family="Times,serif" font-size="14.00">label type</text>
</g>
<!-- monomeric variant&#45;&gt;source -->
<g id="edge6" class="edge">
<title>monomeric variant&#45;&gt;source</title>
<path fill="none" stroke="blue" d="M843.37,-87.54C834.98,-81.84 825.65,-75.29 817.34,-69 806.08,-60.47 794.05,-50.61 783.74,-41.91"/>
<polygon fill="blue" stroke="blue" points="785.78,-39.04 775.89,-35.22 781.24,-44.37 785.78,-39.04"/>
<text text-anchor="middle" x="841.34" y="-57.8" font-family="Times,serif" font-size="14.00">source</text>
</g>
<!-- provided by -->
<g id="node8" class="node">
<title>provided by</title>
<ellipse fill="none" stroke="blue" cx="869.34" cy="-18" rx="37.09" ry="18"/>
<text text-anchor="middle" x="869.34" y="-14.3" font-family="Times,serif" font-size="14.00">agent</text>
</g>
<!-- monomeric variant&#45;&gt;provided by -->
<g id="edge7" class="edge">
<title>monomeric variant&#45;&gt;provided by</title>
<path fill="none" stroke="blue" d="M868.54,-86.8C868.68,-75.16 868.86,-59.55 869.02,-46.24"/>
<polygon fill="blue" stroke="blue" points="872.52,-46.22 869.14,-36.18 865.52,-46.13 872.52,-46.22"/>
<text text-anchor="middle" x="911.84" y="-57.8" font-family="Times,serif" font-size="14.00">provided by</text>
</g>
<!-- has attribute -->
<g id="node9" class="node">
<title>has attribute</title>
<ellipse fill="none" stroke="blue" cx="976.34" cy="-18" rx="51.99" ry="18"/>
<text text-anchor="middle" x="976.34" y="-14.3" font-family="Times,serif" font-size="14.00">attribute</text>
</g>
<!-- monomeric variant&#45;&gt;has attribute -->
<g id="edge8" class="edge">
<title>monomeric variant&#45;&gt;has attribute</title>
<path fill="none" stroke="blue" d="M921.73,-89.67C933.53,-84.61 945.21,-77.88 954.34,-69 960.89,-62.63 965.63,-53.98 968.98,-45.66"/>
<polygon fill="blue" stroke="blue" points="972.29,-46.8 972.32,-36.21 965.69,-44.47 972.29,-46.8"/>
<text text-anchor="middle" x="1012.34" y="-57.8" font-family="Times,serif" font-size="14.00">has attribute</text>
</g>
<!-- category -->
<g id="node10" class="node">
<title>category</title>
<ellipse fill="none" stroke="black" cx="1097.34" cy="-18" rx="51.19" ry="18"/>
<text text-anchor="middle" x="1097.34" y="-14.3" font-family="Times,serif" font-size="14.00">category</text>
</g>
<!-- monomeric variant&#45;&gt;category -->
<g id="edge9" class="edge">
<title>monomeric variant&#45;&gt;category</title>
<path fill="none" stroke="blue" d="M939.79,-92.51C993.23,-83.7 1057.99,-72.48 1063.34,-69 1072.36,-63.15 1079.61,-53.97 1085.05,-45.07"/>
<polygon fill="blue" stroke="blue" points="1088.27,-46.49 1090.08,-36.05 1082.15,-43.09 1088.27,-46.49"/>
<text text-anchor="middle" x="1110.84" y="-57.8" font-family="Times,serif" font-size="14.00">category</text>
</g>
<!-- in taxon -->
<g id="node12" class="node">
<title>in taxon</title>
<ellipse fill="none" stroke="blue" cx="1239.34" cy="-18" rx="72.59" ry="18"/>
<text text-anchor="middle" x="1239.34" y="-14.3" font-family="Times,serif" font-size="14.00">system taxon</text>
</g>
<!-- monomeric variant&#45;&gt;in taxon -->
<g id="edge10" class="edge">
<title>monomeric variant&#45;&gt;in taxon</title>
<path fill="none" stroke="blue" d="M938.48,-92.31C950.75,-90.43 963.41,-88.58 975.34,-87 1051.1,-77 1073.31,-91.52 1146.34,-69 1167.67,-62.42 1189.75,-50.79 1207.04,-40.4"/>
<polygon fill="blue" stroke="blue" points="1208.95,-43.34 1215.62,-35.11 1205.27,-37.38 1208.95,-43.34"/>
<text text-anchor="middle" x="1210.34" y="-57.8" font-family="Times,serif" font-size="14.00">in taxon</text>
</g>
<!-- has componentservice -->
<g id="node13" class="node">
<title>has componentservice</title>
<ellipse fill="none" stroke="black" cx="1444.34" cy="-18" rx="114.28" ry="18"/>
<text text-anchor="middle" x="1444.34" y="-14.3" font-family="Times,serif" font-size="14.00">has componentservice</text>
</g>
<!-- monomeric variant&#45;&gt;has componentservice -->
<g id="edge11" class="edge">
<title>monomeric variant&#45;&gt;has componentservice</title>
<path fill="none" stroke="blue" d="M937.29,-92.11C949.92,-90.2 963.01,-88.39 975.34,-87 1093.97,-73.62 1125.4,-87.48 1243.34,-69 1291.16,-61.51 1344.25,-48.07 1383.86,-37.01"/>
<polygon fill="blue" stroke="blue" points="1384.96,-40.34 1393.63,-34.26 1383.06,-33.61 1384.96,-40.34"/>
<text text-anchor="middle" x="1396.34" y="-57.8" font-family="Times,serif" font-size="14.00">has componentservice</text>
</g>
<!-- has computational sequence -->
<g id="node15" class="node">
<title>has computational sequence</title>
<ellipse fill="none" stroke="black" cx="1719.34" cy="-18" rx="142.17" ry="18"/>
<text text-anchor="middle" x="1719.34" y="-14.3" font-family="Times,serif" font-size="14.00">has computational sequence</text>
</g>
<!-- monomeric variant&#45;&gt;has computational sequence -->
<g id="edge12" class="edge">
<title>monomeric variant&#45;&gt;has computational sequence</title>
<path fill="none" stroke="blue" d="M936.39,-91.91C949.29,-89.99 962.7,-88.22 975.34,-87 1198.88,-65.34 1257.4,-96.09 1480.34,-69 1538.09,-61.98 1602.61,-48.12 1650.04,-36.77"/>
<polygon fill="blue" stroke="blue" points="1651,-40.14 1659.9,-34.39 1649.36,-33.33 1651,-40.14"/>
<text text-anchor="middle" x="1668.84" y="-57.8" font-family="Times,serif" font-size="14.00">has computational sequence</text>
</g>
<!-- id -->
<g id="node17" class="node">
<title>id</title>
<ellipse fill="none" stroke="black" cx="1925.34" cy="-18" rx="27" ry="18"/>
<text text-anchor="middle" x="1925.34" y="-14.3" font-family="Times,serif" font-size="14.00">id</text>
</g>
<!-- monomeric variant&#45;&gt;id -->
<g id="edge13" class="edge">
<title>monomeric variant&#45;&gt;id</title>
<path fill="none" stroke="blue" d="M936.09,-91.82C949.08,-89.89 962.6,-88.15 975.34,-87 1152.22,-71.03 1599.34,-99.25 1774.34,-69 1816.88,-61.65 1863.78,-44.63 1893.84,-32.49"/>
<polygon fill="blue" stroke="blue" points="1895.44,-35.62 1903.36,-28.58 1892.78,-29.14 1895.44,-35.62"/>
<text text-anchor="middle" x="1840.34" y="-57.8" font-family="Times,serif" font-size="14.00">id</text>
</g>
<!-- named thing_category -->
<g id="node11" class="node">
<title>named thing_category</title>
<ellipse fill="none" stroke="blue" cx="1054.34" cy="-105" rx="69.59" ry="18"/>
<text text-anchor="middle" x="1054.34" y="-101.3" font-family="Times,serif" font-size="14.00">named thing</text>
</g>
<!-- sequence variant_has componentservice -->
<g id="node14" class="node">
<title>sequence variant_has componentservice</title>
<ellipse fill="none" stroke="blue" cx="1236.34" cy="-105" rx="94.78" ry="18"/>
<text text-anchor="middle" x="1236.34" y="-101.3" font-family="Times,serif" font-size="14.00">componentservice</text>
</g>
<!-- sequence variant_has computational sequence -->
<g id="node16" class="node">
<title>sequence variant_has computational sequence</title>
<ellipse fill="none" stroke="blue" cx="1472.34" cy="-105" rx="123.48" ry="18"/>
<text text-anchor="middle" x="1472.34" y="-101.3" font-family="Times,serif" font-size="14.00">computational sequence</text>
</g>
<!-- sequence variant_id -->
<g id="node18" class="node">
<title>sequence variant_id</title>
<ellipse fill="none" stroke="blue" cx="1652.34" cy="-105" rx="38.19" ry="18"/>
<text text-anchor="middle" x="1652.34" y="-101.3" font-family="Times,serif" font-size="14.00">string</text>
</g>
</g>
</svg>
