<?xml version="1.0" encoding="UTF-8" standalone="no"?>
<!DOCTYPE svg PUBLIC "-//W3C//DTD SVG 1.1//EN"
 "http://www.w3.org/Graphics/SVG/1.1/DTD/svg11.dtd">
<!-- Generated by graphviz version 2.43.0 (0)
 -->
<!-- Title: %3 Pages: 1 -->
<svg width="1930pt" height="131pt"
 viewBox="0.00 0.00 1930.04 131.00" xmlns="http://www.w3.org/2000/svg" xmlns:xlink="http://www.w3.org/1999/xlink">
<g id="graph0" class="graph" transform="scale(1 1) rotate(0) translate(4 127)">
<title>%3</title>
<polygon fill="white" stroke="transparent" points="-4,4 -4,-127 1926.04,-127 1926.04,4 -4,4"/>
<!-- noncoding kernel servicetype -->
<g id="node1" class="node">
<title>noncoding kernel servicetype</title>
<ellipse fill="none" stroke="black" cx="919.84" cy="-105" rx="147.57" ry="18"/>
<text text-anchor="middle" x="919.84" y="-101.3" font-family="Times,serif" font-size="14.00">noncoding kernel servicetype</text>
</g>
<!-- kernel servicetype -->
<g id="node2" class="node">
<title>kernel servicetype</title>
<ellipse fill="none" stroke="black" cx="96.84" cy="-18" rx="96.68" ry="18"/>
<text text-anchor="middle" x="96.84" y="-14.3" font-family="Times,serif" font-size="14.00">kernel servicetype</text>
</g>
<!-- noncoding kernel servicetype&#45;&gt;kernel servicetype -->
<g id="edge1" class="edge">
<title>noncoding kernel servicetype&#45;&gt;kernel servicetype</title>
<path fill="none" stroke="black" d="M775.48,-101.11C657.37,-97.36 486.22,-88.75 337.84,-69 277.73,-61 210.21,-46.51 161.96,-35.17"/>
<polygon fill="black" stroke="black" points="162.51,-31.71 151.97,-32.81 160.89,-38.52 162.51,-31.71"/>
<text text-anchor="middle" x="351.84" y="-57.8" font-family="Times,serif" font-size="14.00">is_a</text>
</g>
<!-- id -->
<g id="node3" class="node">
<title>id</title>
<ellipse fill="none" stroke="blue" cx="249.84" cy="-18" rx="38.19" ry="18"/>
<text text-anchor="middle" x="249.84" y="-14.3" font-family="Times,serif" font-size="14.00">string</text>
</g>
<!-- noncoding kernel servicetype&#45;&gt;id -->
<g id="edge2" class="edge">
<title>noncoding kernel servicetype&#45;&gt;id</title>
<path fill="none" stroke="blue" d="M782.89,-98.22C690.7,-93.2 566.57,-84.27 457.84,-69 385.94,-58.9 367.78,-55.5 297.84,-36 294.73,-35.13 291.54,-34.17 288.34,-33.15"/>
<polygon fill="blue" stroke="blue" points="289.42,-29.82 278.83,-29.98 287.21,-36.46 289.42,-29.82"/>
<text text-anchor="middle" x="464.84" y="-57.8" font-family="Times,serif" font-size="14.00">id</text>
</g>
<!-- iri -->
<g id="node4" class="node">
<title>iri</title>
<ellipse fill="none" stroke="blue" cx="350.84" cy="-18" rx="44.39" ry="18"/>
<text text-anchor="middle" x="350.84" y="-14.3" font-family="Times,serif" font-size="14.00">iri type</text>
</g>
<!-- noncoding kernel servicetype&#45;&gt;iri -->
<g id="edge3" class="edge">
<title>noncoding kernel servicetype&#45;&gt;iri</title>
<path fill="none" stroke="blue" d="M794.58,-95.49C724.67,-89.84 636.14,-81.19 557.84,-69 489.11,-58.3 472.09,-53.8 404.84,-36 401.26,-35.05 397.56,-34.01 393.85,-32.93"/>
<polygon fill="blue" stroke="blue" points="394.7,-29.53 384.12,-30.01 392.68,-36.24 394.7,-29.53"/>
<text text-anchor="middle" x="565.84" y="-57.8" font-family="Times,serif" font-size="14.00">iri</text>
</g>
<!-- type -->
<g id="node5" class="node">
<title>type</title>
<ellipse fill="none" stroke="blue" cx="451.84" cy="-18" rx="38.19" ry="18"/>
<text text-anchor="middle" x="451.84" y="-14.3" font-family="Times,serif" font-size="14.00">string</text>
</g>
<!-- noncoding kernel servicetype&#45;&gt;type -->
<g id="edge4" class="edge">
<title>noncoding kernel servicetype&#45;&gt;type</title>
<path fill="none" stroke="blue" d="M805.5,-93.56C719.81,-83.81 600.34,-66.12 498.84,-36 495.94,-35.14 492.96,-34.2 489.97,-33.21"/>
<polygon fill="blue" stroke="blue" points="491.09,-29.9 480.5,-29.97 488.82,-36.52 491.09,-29.9"/>
<text text-anchor="middle" x="651.84" y="-57.8" font-family="Times,serif" font-size="14.00">type</text>
</g>
<!-- name -->
<g id="node6" class="node">
<title>name</title>
<ellipse fill="none" stroke="blue" cx="564.84" cy="-18" rx="56.59" ry="18"/>
<text text-anchor="middle" x="564.84" y="-14.3" font-family="Times,serif" font-size="14.00">label type</text>
</g>
<!-- noncoding kernel servicetype&#45;&gt;name -->
<g id="edge5" class="edge">
<title>noncoding kernel servicetype&#45;&gt;name</title>
<path fill="none" stroke="blue" d="M834.75,-90.28C802.09,-84.49 764.57,-77.18 730.84,-69 690.42,-59.2 645.26,-45.41 612.26,-34.79"/>
<polygon fill="blue" stroke="blue" points="613.02,-31.36 602.43,-31.61 610.86,-38.02 613.02,-31.36"/>
<text text-anchor="middle" x="750.84" y="-57.8" font-family="Times,serif" font-size="14.00">name</text>
</g>
<!-- description -->
<g id="node7" class="node">
<title>description</title>
<ellipse fill="none" stroke="blue" cx="714.84" cy="-18" rx="75.29" ry="18"/>
<text text-anchor="middle" x="714.84" y="-14.3" font-family="Times,serif" font-size="14.00">narrative text</text>
</g>
<!-- noncoding kernel servicetype&#45;&gt;description -->
<g id="edge6" class="edge">
<title>noncoding kernel servicetype&#45;&gt;description</title>
<path fill="none" stroke="blue" d="M860.19,-88.46C842.12,-83.06 822.42,-76.46 804.84,-69 785.82,-60.93 765.63,-49.95 749.2,-40.34"/>
<polygon fill="blue" stroke="blue" points="750.88,-37.27 740.49,-35.17 747.3,-43.28 750.88,-37.27"/>
<text text-anchor="middle" x="845.34" y="-57.8" font-family="Times,serif" font-size="14.00">description</text>
</g>
<!-- source -->
<g id="node8" class="node">
<title>source</title>
<ellipse fill="none" stroke="blue" cx="864.84" cy="-18" rx="56.59" ry="18"/>
<text text-anchor="middle" x="864.84" y="-14.3" font-family="Times,serif" font-size="14.00">label type</text>
</g>
<!-- noncoding kernel servicetype&#45;&gt;source -->
<g id="edge7" class="edge">
<title>noncoding kernel servicetype&#45;&gt;source</title>
<path fill="none" stroke="blue" d="M908.71,-86.8C900.83,-74.62 890.13,-58.09 881.28,-44.4"/>
<polygon fill="blue" stroke="blue" points="884.14,-42.38 875.77,-35.89 878.26,-46.18 884.14,-42.38"/>
<text text-anchor="middle" x="919.84" y="-57.8" font-family="Times,serif" font-size="14.00">source</text>
</g>
<!-- provided by -->
<g id="node9" class="node">
<title>provided by</title>
<ellipse fill="none" stroke="blue" cx="976.84" cy="-18" rx="37.09" ry="18"/>
<text text-anchor="middle" x="976.84" y="-14.3" font-family="Times,serif" font-size="14.00">agent</text>
</g>
<!-- noncoding kernel servicetype&#45;&gt;provided by -->
<g id="edge8" class="edge">
<title>noncoding kernel servicetype&#45;&gt;provided by</title>
<path fill="none" stroke="blue" d="M934.33,-86.94C938.84,-81.36 943.71,-75.04 947.84,-69 953.14,-61.26 958.43,-52.51 963.02,-44.52"/>
<polygon fill="blue" stroke="blue" points="966.19,-46.02 968.04,-35.59 960.08,-42.59 966.19,-46.02"/>
<text text-anchor="middle" x="1000.34" y="-57.8" font-family="Times,serif" font-size="14.00">provided by</text>
</g>
<!-- has attribute -->
<g id="node10" class="node">
<title>has attribute</title>
<ellipse fill="none" stroke="blue" cx="1083.84" cy="-18" rx="51.99" ry="18"/>
<text text-anchor="middle" x="1083.84" y="-14.3" font-family="Times,serif" font-size="14.00">attribute</text>
</g>
<!-- noncoding kernel servicetype&#45;&gt;has attribute -->
<g id="edge9" class="edge">
<title>noncoding kernel servicetype&#45;&gt;has attribute</title>
<path fill="none" stroke="blue" d="M1001.98,-89.98C1017.72,-84.97 1033.45,-78.19 1046.84,-69 1055.92,-62.77 1063.64,-53.57 1069.64,-44.75"/>
<polygon fill="blue" stroke="blue" points="1072.67,-46.51 1075.06,-36.18 1066.75,-42.77 1072.67,-46.51"/>
<text text-anchor="middle" x="1108.84" y="-57.8" font-family="Times,serif" font-size="14.00">has attribute</text>
</g>
<!-- category -->
<g id="node11" class="node">
<title>category</title>
<ellipse fill="none" stroke="black" cx="1204.84" cy="-18" rx="51.19" ry="18"/>
<text text-anchor="middle" x="1204.84" y="-14.3" font-family="Times,serif" font-size="14.00">category</text>
</g>
<!-- noncoding kernel servicetype&#45;&gt;category -->
<g id="edge10" class="edge">
<title>noncoding kernel servicetype&#45;&gt;category</title>
<path fill="none" stroke="blue" d="M1023.6,-92.18C1082.72,-84.86 1147.45,-75.63 1159.84,-69 1170.99,-63.03 1180.76,-53.17 1188.32,-43.77"/>
<polygon fill="blue" stroke="blue" points="1191.15,-45.83 1194.38,-35.74 1185.56,-41.62 1191.15,-45.83"/>
<text text-anchor="middle" x="1210.34" y="-57.8" font-family="Times,serif" font-size="14.00">category</text>
</g>
<!-- in taxon -->
<g id="node13" class="node">
<title>in taxon</title>
<ellipse fill="none" stroke="blue" cx="1346.84" cy="-18" rx="72.59" ry="18"/>
<text text-anchor="middle" x="1346.84" y="-14.3" font-family="Times,serif" font-size="14.00">system taxon</text>
</g>
<!-- noncoding kernel servicetype&#45;&gt;in taxon -->
<g id="edge11" class="edge">
<title>noncoding kernel servicetype&#45;&gt;in taxon</title>
<path fill="none" stroke="blue" d="M1025.57,-92.43C1042.39,-90.61 1059.59,-88.75 1075.84,-87 1151.38,-78.88 1172.88,-90.19 1245.84,-69 1268.93,-62.3 1293.13,-50.51 1312.05,-40.06"/>
<polygon fill="blue" stroke="blue" points="1313.9,-43.03 1320.88,-35.07 1310.46,-36.94 1313.9,-43.03"/>
<text text-anchor="middle" x="1312.84" y="-57.8" font-family="Times,serif" font-size="14.00">in taxon</text>
</g>
<!-- has computational sequence -->
<g id="node14" class="node">
<title>has computational sequence</title>
<ellipse fill="none" stroke="blue" cx="1560.84" cy="-18" rx="123.48" ry="18"/>
<text text-anchor="middle" x="1560.84" y="-14.3" font-family="Times,serif" font-size="14.00">computational sequence</text>
</g>
<!-- noncoding kernel servicetype&#45;&gt;has computational sequence -->
<g id="edge12" class="edge">
<title>noncoding kernel servicetype&#45;&gt;has computational sequence</title>
<path fill="none" stroke="blue" d="M1023.41,-92.1C1040.9,-90.26 1058.88,-88.49 1075.84,-87 1195.65,-76.48 1226.88,-86.68 1345.84,-69 1397.08,-61.39 1454.14,-47.87 1496.6,-36.81"/>
<polygon fill="blue" stroke="blue" points="1497.74,-40.13 1506.52,-34.21 1495.96,-33.36 1497.74,-40.13"/>
<text text-anchor="middle" x="1525.34" y="-57.8" font-family="Times,serif" font-size="14.00">has computational sequence</text>
</g>
<!-- synonym -->
<g id="node15" class="node">
<title>synonym</title>
<ellipse fill="none" stroke="blue" cx="1758.84" cy="-18" rx="56.59" ry="18"/>
<text text-anchor="middle" x="1758.84" y="-14.3" font-family="Times,serif" font-size="14.00">label type</text>
</g>
<!-- noncoding kernel servicetype&#45;&gt;synonym -->
<g id="edge13" class="edge">
<title>noncoding kernel servicetype&#45;&gt;synonym</title>
<path fill="none" stroke="blue" d="M1020.86,-91.86C1039.14,-89.98 1058.04,-88.26 1075.84,-87 1198.93,-78.31 1509.96,-93.81 1630.84,-69 1662.24,-62.56 1695.93,-49.11 1720.86,-37.78"/>
<polygon fill="blue" stroke="blue" points="1722.37,-40.94 1729.97,-33.56 1719.42,-34.59 1722.37,-40.94"/>
<text text-anchor="middle" x="1713.84" y="-57.8" font-family="Times,serif" font-size="14.00">synonym</text>
</g>
<!-- xref -->
<g id="node16" class="node">
<title>xref</title>
<ellipse fill="none" stroke="blue" cx="1877.84" cy="-18" rx="44.39" ry="18"/>
<text text-anchor="middle" x="1877.84" y="-14.3" font-family="Times,serif" font-size="14.00">iri type</text>
</g>
<!-- noncoding kernel servicetype&#45;&gt;xref -->
<g id="edge14" class="edge">
<title>noncoding kernel servicetype&#45;&gt;xref</title>
<path fill="none" stroke="blue" d="M1020.44,-91.82C1038.84,-89.93 1057.9,-88.21 1075.84,-87 1225.33,-76.88 1602.98,-98.7 1749.84,-69 1782.19,-62.46 1816.95,-48.39 1842.07,-36.83"/>
<polygon fill="blue" stroke="blue" points="1843.64,-39.97 1851.21,-32.55 1840.67,-33.63 1843.64,-39.97"/>
<text text-anchor="middle" x="1814.34" y="-57.8" font-family="Times,serif" font-size="14.00">xref</text>
</g>
<!-- named thing_category -->
<g id="node12" class="node">
<title>named thing_category</title>
<ellipse fill="none" stroke="blue" cx="1154.84" cy="-105" rx="69.59" ry="18"/>
<text text-anchor="middle" x="1154.84" y="-101.3" font-family="Times,serif" font-size="14.00">named thing</text>
</g>
</g>
</svg>
