<?xml version="1.0" encoding="UTF-8" standalone="no"?>
<!DOCTYPE svg PUBLIC "-//W3C//DTD SVG 1.1//EN"
 "http://www.w3.org/Graphics/SVG/1.1/DTD/svg11.dtd">
<!-- Generated by graphviz version 2.43.0 (0)
 -->
<!-- Title: %3 Pages: 1 -->
<svg width="1763pt" height="131pt"
 viewBox="0.00 0.00 1762.79 131.00" xmlns="http://www.w3.org/2000/svg" xmlns:xlink="http://www.w3.org/1999/xlink">
<g id="graph0" class="graph" transform="scale(1 1) rotate(0) translate(4 127)">
<title>%3</title>
<polygon fill="white" stroke="transparent" points="-4,4 -4,-127 1758.79,-127 1758.79,4 -4,4"/>
<!-- notification -->
<g id="node1" class="node">
<title>notification</title>
<ellipse fill="none" stroke="black" cx="886.59" cy="-105" rx="63.09" ry="18"/>
<text text-anchor="middle" x="886.59" y="-101.3" font-family="Times,serif" font-size="14.00">notification</text>
</g>
<!-- operational entity -->
<g id="node2" class="node">
<title>operational entity</title>
<ellipse fill="none" stroke="black" cx="93.59" cy="-18" rx="93.68" ry="18"/>
<text text-anchor="middle" x="93.59" y="-14.3" font-family="Times,serif" font-size="14.00">operational entity</text>
</g>
<!-- notification&#45;&gt;operational entity -->
<g id="edge1" class="edge">
<title>notification&#45;&gt;operational entity</title>
<path fill="none" stroke="black" d="M823.88,-102.98C720.74,-100.66 509.05,-93.11 331.59,-69 272.22,-60.93 205.54,-46.45 157.9,-35.14"/>
<polygon fill="black" stroke="black" points="158.57,-31.7 148.03,-32.77 156.94,-38.51 158.57,-31.7"/>
<text text-anchor="middle" x="345.59" y="-57.8" font-family="Times,serif" font-size="14.00">is_a</text>
</g>
<!-- cluster -->
<g id="node3" class="node">
<title>cluster</title>
<ellipse fill="none" stroke="black" cx="247.59" cy="-18" rx="42.79" ry="18"/>
<text text-anchor="middle" x="247.59" y="-14.3" font-family="Times,serif" font-size="14.00">cluster</text>
</g>
<!-- notification&#45;&gt;cluster -->
<g id="edge2" class="edge">
<title>notification&#45;&gt;cluster</title>
<path fill="none" stroke="black" d="M823.99,-102.27C736.72,-99.14 573.78,-90.72 436.59,-69 374.73,-59.21 359.85,-53.08 299.59,-36 296.29,-35.07 292.89,-34.06 289.48,-33.01"/>
<polygon fill="black" stroke="black" points="290.51,-29.67 279.92,-30.01 288.42,-36.35 290.51,-29.67"/>
<text text-anchor="middle" x="453.09" y="-57.8" font-family="Times,serif" font-size="14.00">uses</text>
</g>
<!-- id -->
<g id="node4" class="node">
<title>id</title>
<ellipse fill="none" stroke="blue" cx="346.59" cy="-18" rx="38.19" ry="18"/>
<text text-anchor="middle" x="346.59" y="-14.3" font-family="Times,serif" font-size="14.00">string</text>
</g>
<!-- notification&#45;&gt;id -->
<g id="edge3" class="edge">
<title>notification&#45;&gt;id</title>
<path fill="none" stroke="blue" d="M824.94,-100.76C730.69,-94.63 545.81,-77.96 394.59,-36 391.48,-35.14 388.28,-34.17 385.08,-33.16"/>
<polygon fill="blue" stroke="blue" points="386.17,-29.83 375.58,-30 383.96,-36.47 386.17,-29.83"/>
<text text-anchor="middle" x="548.59" y="-57.8" font-family="Times,serif" font-size="14.00">id</text>
</g>
<!-- iri -->
<g id="node5" class="node">
<title>iri</title>
<ellipse fill="none" stroke="blue" cx="447.59" cy="-18" rx="44.39" ry="18"/>
<text text-anchor="middle" x="447.59" y="-14.3" font-family="Times,serif" font-size="14.00">iri type</text>
</g>
<!-- notification&#45;&gt;iri -->
<g id="edge4" class="edge">
<title>notification&#45;&gt;iri</title>
<path fill="none" stroke="blue" d="M829.65,-96.98C780.89,-90.67 708.89,-80.61 646.59,-69 581.62,-56.89 565.39,-53.27 501.59,-36 498.01,-35.03 494.32,-33.98 490.62,-32.89"/>
<polygon fill="blue" stroke="blue" points="491.47,-29.49 480.88,-29.95 489.44,-36.19 491.47,-29.49"/>
<text text-anchor="middle" x="654.59" y="-57.8" font-family="Times,serif" font-size="14.00">iri</text>
</g>
<!-- type -->
<g id="node6" class="node">
<title>type</title>
<ellipse fill="none" stroke="blue" cx="548.59" cy="-18" rx="38.19" ry="18"/>
<text text-anchor="middle" x="548.59" y="-14.3" font-family="Times,serif" font-size="14.00">string</text>
</g>
<!-- notification&#45;&gt;type -->
<g id="edge5" class="edge">
<title>notification&#45;&gt;type</title>
<path fill="none" stroke="blue" d="M835.57,-94.28C777.02,-82.62 678.42,-61.42 595.59,-36 592.83,-35.15 589.99,-34.24 587.15,-33.29"/>
<polygon fill="blue" stroke="blue" points="588.12,-29.92 577.52,-29.97 585.84,-36.54 588.12,-29.92"/>
<text text-anchor="middle" x="730.59" y="-57.8" font-family="Times,serif" font-size="14.00">type</text>
</g>
<!-- name -->
<g id="node7" class="node">
<title>name</title>
<ellipse fill="none" stroke="blue" cx="661.59" cy="-18" rx="56.59" ry="18"/>
<text text-anchor="middle" x="661.59" y="-14.3" font-family="Times,serif" font-size="14.00">label type</text>
</g>
<!-- notification&#45;&gt;name -->
<g id="edge6" class="edge">
<title>notification&#45;&gt;name</title>
<path fill="none" stroke="blue" d="M850.19,-90.25C810.84,-75.38 748.12,-51.69 705.92,-35.75"/>
<polygon fill="blue" stroke="blue" points="707.05,-32.43 696.46,-32.17 704.58,-38.98 707.05,-32.43"/>
<text text-anchor="middle" x="807.59" y="-57.8" font-family="Times,serif" font-size="14.00">name</text>
</g>
<!-- description -->
<g id="node8" class="node">
<title>description</title>
<ellipse fill="none" stroke="blue" cx="811.59" cy="-18" rx="75.29" ry="18"/>
<text text-anchor="middle" x="811.59" y="-14.3" font-family="Times,serif" font-size="14.00">narrative text</text>
</g>
<!-- notification&#45;&gt;description -->
<g id="edge7" class="edge">
<title>notification&#45;&gt;description</title>
<path fill="none" stroke="blue" d="M871.77,-87.21C860.78,-74.75 845.63,-57.57 833.27,-43.57"/>
<polygon fill="blue" stroke="blue" points="835.62,-40.94 826.38,-35.76 830.37,-45.57 835.62,-40.94"/>
<text text-anchor="middle" x="894.09" y="-57.8" font-family="Times,serif" font-size="14.00">description</text>
</g>
<!-- source -->
<g id="node9" class="node">
<title>source</title>
<ellipse fill="none" stroke="blue" cx="961.59" cy="-18" rx="56.59" ry="18"/>
<text text-anchor="middle" x="961.59" y="-14.3" font-family="Times,serif" font-size="14.00">label type</text>
</g>
<!-- notification&#45;&gt;source -->
<g id="edge8" class="edge">
<title>notification&#45;&gt;source</title>
<path fill="none" stroke="blue" d="M915.02,-88.88C923.38,-83.44 932.04,-76.71 938.59,-69 944.4,-62.17 949.04,-53.63 952.59,-45.55"/>
<polygon fill="blue" stroke="blue" points="955.92,-46.65 956.38,-36.07 949.42,-44.05 955.92,-46.65"/>
<text text-anchor="middle" x="972.59" y="-57.8" font-family="Times,serif" font-size="14.00">source</text>
</g>
<!-- provided by -->
<g id="node10" class="node">
<title>provided by</title>
<ellipse fill="none" stroke="blue" cx="1073.59" cy="-18" rx="37.09" ry="18"/>
<text text-anchor="middle" x="1073.59" y="-14.3" font-family="Times,serif" font-size="14.00">agent</text>
</g>
<!-- notification&#45;&gt;provided by -->
<g id="edge9" class="edge">
<title>notification&#45;&gt;provided by</title>
<path fill="none" stroke="blue" d="M933.84,-92.95C954.84,-87.17 979.52,-79.16 1000.59,-69 1016.94,-61.12 1033.74,-49.87 1047.1,-40.03"/>
<polygon fill="blue" stroke="blue" points="1049.46,-42.63 1055.34,-33.82 1045.25,-37.04 1049.46,-42.63"/>
<text text-anchor="middle" x="1069.09" y="-57.8" font-family="Times,serif" font-size="14.00">provided by</text>
</g>
<!-- has attribute -->
<g id="node11" class="node">
<title>has attribute</title>
<ellipse fill="none" stroke="blue" cx="1180.59" cy="-18" rx="51.99" ry="18"/>
<text text-anchor="middle" x="1180.59" y="-14.3" font-family="Times,serif" font-size="14.00">attribute</text>
</g>
<!-- notification&#45;&gt;has attribute -->
<g id="edge10" class="edge">
<title>notification&#45;&gt;has attribute</title>
<path fill="none" stroke="blue" d="M932.13,-92.39C940.88,-90.41 949.99,-88.5 958.59,-87 1027.78,-74.91 1050.5,-95.37 1115.59,-69 1130.92,-62.79 1145.73,-51.92 1157.32,-41.89"/>
<polygon fill="blue" stroke="blue" points="1159.72,-44.45 1164.81,-35.16 1155.03,-39.25 1159.72,-44.45"/>
<text text-anchor="middle" x="1188.59" y="-57.8" font-family="Times,serif" font-size="14.00">has attribute</text>
</g>
<!-- category -->
<g id="node12" class="node">
<title>category</title>
<ellipse fill="none" stroke="black" cx="1301.59" cy="-18" rx="51.19" ry="18"/>
<text text-anchor="middle" x="1301.59" y="-14.3" font-family="Times,serif" font-size="14.00">category</text>
</g>
<!-- notification&#45;&gt;category -->
<g id="edge11" class="edge">
<title>notification&#45;&gt;category</title>
<path fill="none" stroke="blue" d="M931.3,-92.22C940.29,-90.2 949.7,-88.33 958.59,-87 1020.48,-77.78 1181.28,-91.7 1239.59,-69 1254.32,-63.27 1268.25,-52.69 1279.16,-42.74"/>
<polygon fill="blue" stroke="blue" points="1281.74,-45.12 1286.54,-35.68 1276.9,-40.06 1281.74,-45.12"/>
<text text-anchor="middle" x="1296.09" y="-57.8" font-family="Times,serif" font-size="14.00">category</text>
</g>
<!-- in taxon -->
<g id="node14" class="node">
<title>in taxon</title>
<ellipse fill="none" stroke="blue" cx="1443.59" cy="-18" rx="72.59" ry="18"/>
<text text-anchor="middle" x="1443.59" y="-14.3" font-family="Times,serif" font-size="14.00">system taxon</text>
</g>
<!-- notification&#45;&gt;in taxon -->
<g id="edge12" class="edge">
<title>notification&#45;&gt;in taxon</title>
<path fill="none" stroke="blue" d="M930.9,-92.19C940,-90.15 949.56,-88.27 958.59,-87 1122.94,-63.83 1170.15,-107.49 1331.59,-69 1357.94,-62.72 1385.75,-50.34 1407.06,-39.47"/>
<polygon fill="blue" stroke="blue" points="1408.83,-42.5 1416.08,-34.77 1405.59,-36.29 1408.83,-42.5"/>
<text text-anchor="middle" x="1402.59" y="-57.8" font-family="Times,serif" font-size="14.00">in taxon</text>
</g>
<!-- has data -->
<g id="node15" class="node">
<title>has data</title>
<ellipse fill="none" stroke="blue" cx="1565.59" cy="-18" rx="31.4" ry="18"/>
<text text-anchor="middle" x="1565.59" y="-14.3" font-family="Times,serif" font-size="14.00">data</text>
</g>
<!-- notification&#45;&gt;has data -->
<g id="edge13" class="edge">
<title>notification&#45;&gt;has data</title>
<path fill="none" stroke="blue" d="M930.89,-92.12C939.99,-90.08 949.56,-88.23 958.59,-87 1168.82,-58.49 1227.44,-110.02 1435.59,-69 1470.3,-62.16 1507.8,-46.81 1533.56,-34.9"/>
<polygon fill="blue" stroke="blue" points="1535.28,-37.97 1542.83,-30.54 1532.29,-31.63 1535.28,-37.97"/>
<text text-anchor="middle" x="1518.09" y="-57.8" font-family="Times,serif" font-size="14.00">has data</text>
</g>
<!-- has control actor -->
<g id="node16" class="node">
<title>has control actor</title>
<ellipse fill="none" stroke="blue" cx="1684.59" cy="-18" rx="70.39" ry="18"/>
<text text-anchor="middle" x="1684.59" y="-14.3" font-family="Times,serif" font-size="14.00">control actor</text>
</g>
<!-- notification&#45;&gt;has control actor -->
<g id="edge14" class="edge">
<title>notification&#45;&gt;has control actor</title>
<path fill="none" stroke="blue" d="M930.88,-92.06C939.99,-90.03 949.55,-88.19 958.59,-87 1089.52,-69.74 1423.06,-94.74 1552.59,-69 1584.35,-62.69 1618.48,-49.57 1644.09,-38.36"/>
<polygon fill="blue" stroke="blue" points="1645.75,-41.45 1653.46,-34.17 1642.9,-35.06 1645.75,-41.45"/>
<text text-anchor="middle" x="1665.09" y="-57.8" font-family="Times,serif" font-size="14.00">has control actor</text>
</g>
<!-- named thing_category -->
<g id="node13" class="node">
<title>named thing_category</title>
<ellipse fill="none" stroke="blue" cx="1037.59" cy="-105" rx="69.59" ry="18"/>
<text text-anchor="middle" x="1037.59" y="-101.3" font-family="Times,serif" font-size="14.00">named thing</text>
</g>
</g>
</svg>
