<?xml version="1.0" encoding="UTF-8" standalone="no"?>
<!DOCTYPE svg PUBLIC "-//W3C//DTD SVG 1.1//EN"
 "http://www.w3.org/Graphics/SVG/1.1/DTD/svg11.dtd">
<!-- Generated by graphviz version 2.43.0 (0)
 -->
<!-- Title: %3 Pages: 1 -->
<svg width="1375pt" height="131pt"
 viewBox="0.00 0.00 1374.99 131.00" xmlns="http://www.w3.org/2000/svg" xmlns:xlink="http://www.w3.org/1999/xlink">
<g id="graph0" class="graph" transform="scale(1 1) rotate(0) translate(4 127)">
<title>%3</title>
<polygon fill="white" stroke="transparent" points="-4,4 -4,-127 1370.99,-127 1370.99,4 -4,4"/>
<!-- notification component -->
<g id="node1" class="node">
<title>notification component</title>
<ellipse fill="none" stroke="black" cx="662.19" cy="-105" rx="116.98" ry="18"/>
<text text-anchor="middle" x="662.19" y="-101.3" font-family="Times,serif" font-size="14.00">notification component</text>
</g>
<!-- control actor -->
<g id="node2" class="node">
<title>control actor</title>
<ellipse fill="none" stroke="black" cx="70.19" cy="-18" rx="70.39" ry="18"/>
<text text-anchor="middle" x="70.19" y="-14.3" font-family="Times,serif" font-size="14.00">control actor</text>
</g>
<!-- notification component&#45;&gt;control actor -->
<g id="edge1" class="edge">
<title>notification component&#45;&gt;control actor</title>
<path fill="none" stroke="black" d="M555.68,-97.53C481.5,-92.15 380.45,-83.05 292.19,-69 235.61,-59.99 171.89,-45.14 127.27,-33.96"/>
<polygon fill="black" stroke="black" points="128.04,-30.54 117.49,-31.49 126.33,-37.33 128.04,-30.54"/>
<text text-anchor="middle" x="306.19" y="-57.8" font-family="Times,serif" font-size="14.00">is_a</text>
</g>
<!-- id -->
<g id="node3" class="node">
<title>id</title>
<ellipse fill="none" stroke="blue" cx="197.19" cy="-18" rx="38.19" ry="18"/>
<text text-anchor="middle" x="197.19" y="-14.3" font-family="Times,serif" font-size="14.00">string</text>
</g>
<!-- notification component&#45;&gt;id -->
<g id="edge2" class="edge">
<title>notification component&#45;&gt;id</title>
<path fill="none" stroke="blue" d="M566.03,-94.62C480.62,-84.82 353.01,-66.51 245.19,-36 242.09,-35.12 238.89,-34.15 235.7,-33.12"/>
<polygon fill="blue" stroke="blue" points="236.78,-29.8 226.19,-29.95 234.57,-36.44 236.78,-29.8"/>
<text text-anchor="middle" x="388.19" y="-57.8" font-family="Times,serif" font-size="14.00">id</text>
</g>
<!-- iri -->
<g id="node4" class="node">
<title>iri</title>
<ellipse fill="none" stroke="blue" cx="298.19" cy="-18" rx="44.39" ry="18"/>
<text text-anchor="middle" x="298.19" y="-14.3" font-family="Times,serif" font-size="14.00">iri type</text>
</g>
<!-- notification component&#45;&gt;iri -->
<g id="edge3" class="edge">
<title>notification component&#45;&gt;iri</title>
<path fill="none" stroke="blue" d="M587.65,-91.01C554.09,-84.86 514.04,-77.09 478.19,-69 421.73,-56.25 407.82,-52.03 352.19,-36 348.68,-34.99 345.05,-33.91 341.41,-32.81"/>
<polygon fill="blue" stroke="blue" points="342.41,-29.45 331.82,-29.86 340.35,-36.15 342.41,-29.45"/>
<text text-anchor="middle" x="486.19" y="-57.8" font-family="Times,serif" font-size="14.00">iri</text>
</g>
<!-- type -->
<g id="node5" class="node">
<title>type</title>
<ellipse fill="none" stroke="blue" cx="399.19" cy="-18" rx="38.19" ry="18"/>
<text text-anchor="middle" x="399.19" y="-14.3" font-family="Times,serif" font-size="14.00">string</text>
</g>
<!-- notification component&#45;&gt;type -->
<g id="edge4" class="edge">
<title>notification component&#45;&gt;type</title>
<path fill="none" stroke="blue" d="M609.03,-88.88C588.41,-82.88 564.65,-75.8 543.19,-69 499.79,-55.24 489.16,-51.08 446.19,-36 443.51,-35.06 440.74,-34.08 437.95,-33.08"/>
<polygon fill="blue" stroke="blue" points="439.09,-29.78 428.5,-29.7 436.73,-36.37 439.09,-29.78"/>
<text text-anchor="middle" x="559.19" y="-57.8" font-family="Times,serif" font-size="14.00">type</text>
</g>
<!-- name -->
<g id="node6" class="node">
<title>name</title>
<ellipse fill="none" stroke="blue" cx="512.19" cy="-18" rx="56.59" ry="18"/>
<text text-anchor="middle" x="512.19" y="-14.3" font-family="Times,serif" font-size="14.00">label type</text>
</g>
<!-- notification component&#45;&gt;name -->
<g id="edge5" class="edge">
<title>notification component&#45;&gt;name</title>
<path fill="none" stroke="blue" d="M632.92,-87.41C608.51,-73.58 573.66,-53.83 547.67,-39.1"/>
<polygon fill="blue" stroke="blue" points="549.31,-36.01 538.88,-34.12 545.86,-42.1 549.31,-36.01"/>
<text text-anchor="middle" x="616.19" y="-57.8" font-family="Times,serif" font-size="14.00">name</text>
</g>
<!-- description -->
<g id="node7" class="node">
<title>description</title>
<ellipse fill="none" stroke="blue" cx="662.19" cy="-18" rx="75.29" ry="18"/>
<text text-anchor="middle" x="662.19" y="-14.3" font-family="Times,serif" font-size="14.00">narrative text</text>
</g>
<!-- notification component&#45;&gt;description -->
<g id="edge6" class="edge">
<title>notification component&#45;&gt;description</title>
<path fill="none" stroke="blue" d="M662.19,-86.8C662.19,-75.16 662.19,-59.55 662.19,-46.24"/>
<polygon fill="blue" stroke="blue" points="665.69,-46.18 662.19,-36.18 658.69,-46.18 665.69,-46.18"/>
<text text-anchor="middle" x="702.69" y="-57.8" font-family="Times,serif" font-size="14.00">description</text>
</g>
<!-- source -->
<g id="node8" class="node">
<title>source</title>
<ellipse fill="none" stroke="blue" cx="812.19" cy="-18" rx="56.59" ry="18"/>
<text text-anchor="middle" x="812.19" y="-14.3" font-family="Times,serif" font-size="14.00">label type</text>
</g>
<!-- notification component&#45;&gt;source -->
<g id="edge7" class="edge">
<title>notification component&#45;&gt;source</title>
<path fill="none" stroke="blue" d="M706.93,-88.17C720.24,-82.78 734.61,-76.26 747.19,-69 760.79,-61.16 774.73,-50.8 786.2,-41.54"/>
<polygon fill="blue" stroke="blue" points="788.58,-44.11 794.07,-35.05 784.13,-38.71 788.58,-44.11"/>
<text text-anchor="middle" x="794.19" y="-57.8" font-family="Times,serif" font-size="14.00">source</text>
</g>
<!-- provided by -->
<g id="node9" class="node">
<title>provided by</title>
<ellipse fill="none" stroke="blue" cx="924.19" cy="-18" rx="37.09" ry="18"/>
<text text-anchor="middle" x="924.19" y="-14.3" font-family="Times,serif" font-size="14.00">agent</text>
</g>
<!-- notification component&#45;&gt;provided by -->
<g id="edge8" class="edge">
<title>notification component&#45;&gt;provided by</title>
<path fill="none" stroke="blue" d="M738.12,-91.28C765.06,-85.75 795.35,-78.36 822.19,-69 846.47,-60.53 872.47,-47.73 892.14,-37.19"/>
<polygon fill="blue" stroke="blue" points="893.87,-40.24 900.98,-32.39 890.53,-34.09 893.87,-40.24"/>
<text text-anchor="middle" x="899.69" y="-57.8" font-family="Times,serif" font-size="14.00">provided by</text>
</g>
<!-- has attribute -->
<g id="node10" class="node">
<title>has attribute</title>
<ellipse fill="none" stroke="blue" cx="1031.19" cy="-18" rx="51.99" ry="18"/>
<text text-anchor="middle" x="1031.19" y="-14.3" font-family="Times,serif" font-size="14.00">attribute</text>
</g>
<!-- notification component&#45;&gt;has attribute -->
<g id="edge9" class="edge">
<title>notification component&#45;&gt;has attribute</title>
<path fill="none" stroke="blue" d="M746.2,-92.42C760.22,-90.56 774.61,-88.69 788.19,-87 858.33,-78.27 879.16,-91.41 946.19,-69 965.88,-62.42 985.98,-50.86 1001.68,-40.52"/>
<polygon fill="blue" stroke="blue" points="1004.08,-43.12 1010.39,-34.61 1000.15,-37.33 1004.08,-43.12"/>
<text text-anchor="middle" x="1026.19" y="-57.8" font-family="Times,serif" font-size="14.00">has attribute</text>
</g>
<!-- category -->
<g id="node11" class="node">
<title>category</title>
<ellipse fill="none" stroke="black" cx="1152.19" cy="-18" rx="51.19" ry="18"/>
<text text-anchor="middle" x="1152.19" y="-14.3" font-family="Times,serif" font-size="14.00">category</text>
</g>
<!-- notification component&#45;&gt;category -->
<g id="edge10" class="edge">
<title>notification component&#45;&gt;category</title>
<path fill="none" stroke="blue" d="M744.11,-92.08C758.76,-90.19 773.92,-88.41 788.19,-87 852.23,-80.69 1016.22,-89.55 1077.19,-69 1095,-63 1112.6,-51.63 1126.28,-41.24"/>
<polygon fill="blue" stroke="blue" points="1128.56,-43.9 1134.25,-34.96 1124.23,-38.4 1128.56,-43.9"/>
<text text-anchor="middle" x="1137.69" y="-57.8" font-family="Times,serif" font-size="14.00">category</text>
</g>
<!-- in taxon -->
<g id="node13" class="node">
<title>in taxon</title>
<ellipse fill="none" stroke="blue" cx="1294.19" cy="-18" rx="72.59" ry="18"/>
<text text-anchor="middle" x="1294.19" y="-14.3" font-family="Times,serif" font-size="14.00">system taxon</text>
</g>
<!-- notification component&#45;&gt;in taxon -->
<g id="edge11" class="edge">
<title>notification component&#45;&gt;in taxon</title>
<path fill="none" stroke="blue" d="M743.41,-91.98C758.28,-90.08 773.68,-88.32 788.19,-87 958.79,-71.53 1006,-106.26 1173.19,-69 1201.86,-62.61 1232.41,-49.94 1255.64,-38.95"/>
<polygon fill="blue" stroke="blue" points="1257.32,-42.02 1264.8,-34.52 1254.28,-35.72 1257.32,-42.02"/>
<text text-anchor="middle" x="1246.19" y="-57.8" font-family="Times,serif" font-size="14.00">in taxon</text>
</g>
<!-- named thing_category -->
<g id="node12" class="node">
<title>named thing_category</title>
<ellipse fill="none" stroke="blue" cx="867.19" cy="-105" rx="69.59" ry="18"/>
<text text-anchor="middle" x="867.19" y="-101.3" font-family="Times,serif" font-size="14.00">named thing</text>
</g>
</g>
</svg>
