<?xml version="1.0" encoding="UTF-8" standalone="no"?>
<!DOCTYPE svg PUBLIC "-//W3C//DTD SVG 1.1//EN"
 "http://www.w3.org/Graphics/SVG/1.1/DTD/svg11.dtd">
<!-- Generated by graphviz version 2.43.0 (0)
 -->
<!-- Title: %3 Pages: 1 -->
<svg width="1208pt" height="131pt"
 viewBox="0.00 0.00 1207.63 131.00" xmlns="http://www.w3.org/2000/svg" xmlns:xlink="http://www.w3.org/1999/xlink">
<g id="graph0" class="graph" transform="scale(1 1) rotate(0) translate(4 127)">
<title>%3</title>
<polygon fill="white" stroke="transparent" points="-4,4 -4,-127 1203.63,-127 1203.63,4 -4,4"/>
<!-- observable architectural style -->
<g id="node1" class="node">
<title>observable architectural style</title>
<ellipse fill="none" stroke="black" cx="669.09" cy="-105" rx="149.47" ry="18"/>
<text text-anchor="middle" x="669.09" y="-101.3" font-family="Times,serif" font-size="14.00">observable architectural style</text>
</g>
<!-- computational architectural style -->
<g id="node2" class="node">
<title>computational architectural style</title>
<ellipse fill="none" stroke="black" cx="165.09" cy="-18" rx="165.17" ry="18"/>
<text text-anchor="middle" x="165.09" y="-14.3" font-family="Times,serif" font-size="14.00">computational architectural style</text>
</g>
<!-- observable architectural style&#45;&gt;computational architectural style -->
<g id="edge1" class="edge">
<title>observable architectural style&#45;&gt;computational architectural style</title>
<path fill="none" stroke="black" d="M569.14,-91.56C522.53,-85.4 466.37,-77.48 416.09,-69 359.01,-59.38 295.02,-46.6 245.94,-36.37"/>
<polygon fill="black" stroke="black" points="246.52,-32.92 236.01,-34.29 245.09,-39.77 246.52,-32.92"/>
<text text-anchor="middle" x="430.09" y="-57.8" font-family="Times,serif" font-size="14.00">is_a</text>
</g>
<!-- name -->
<g id="node3" class="node">
<title>name</title>
<ellipse fill="none" stroke="black" cx="384.09" cy="-18" rx="36.29" ry="18"/>
<text text-anchor="middle" x="384.09" y="-14.3" font-family="Times,serif" font-size="14.00">name</text>
</g>
<!-- observable architectural style&#45;&gt;name -->
<g id="edge2" class="edge">
<title>observable architectural style&#45;&gt;name</title>
<path fill="none" stroke="blue" d="M570.54,-91.45C540.98,-86.17 508.8,-78.89 480.09,-69 457.13,-61.1 432.9,-48.44 414.53,-37.84"/>
<polygon fill="blue" stroke="blue" points="416.14,-34.73 405.75,-32.67 412.59,-40.76 416.14,-34.73"/>
<text text-anchor="middle" x="500.09" y="-57.8" font-family="Times,serif" font-size="14.00">name</text>
</g>
<!-- has attribute type -->
<g id="node5" class="node">
<title>has attribute type</title>
<ellipse fill="none" stroke="blue" cx="515.09" cy="-18" rx="76.89" ry="18"/>
<text text-anchor="middle" x="515.09" y="-14.3" font-family="Times,serif" font-size="14.00">ontology class</text>
</g>
<!-- observable architectural style&#45;&gt;has attribute type -->
<g id="edge3" class="edge">
<title>observable architectural style&#45;&gt;has attribute type</title>
<path fill="none" stroke="blue" d="M572.57,-91.17C558.51,-86 545.08,-78.86 534.09,-69 527.33,-62.94 522.96,-54.22 520.14,-45.75"/>
<polygon fill="blue" stroke="blue" points="523.51,-44.82 517.5,-36.1 516.76,-46.67 523.51,-44.82"/>
<text text-anchor="middle" x="599.09" y="-57.8" font-family="Times,serif" font-size="14.00">has attribute type</text>
</g>
<!-- has quantitative value -->
<g id="node6" class="node">
<title>has quantitative value</title>
<ellipse fill="none" stroke="blue" cx="687.09" cy="-18" rx="77.19" ry="18"/>
<text text-anchor="middle" x="687.09" y="-14.3" font-family="Times,serif" font-size="14.00">quantity value</text>
</g>
<!-- observable architectural style&#45;&gt;has quantitative value -->
<g id="edge4" class="edge">
<title>observable architectural style&#45;&gt;has quantitative value</title>
<path fill="none" stroke="blue" d="M667.62,-86.64C667.24,-76.91 667.53,-64.64 670.09,-54 670.78,-51.11 671.74,-48.17 672.85,-45.3"/>
<polygon fill="blue" stroke="blue" points="676.17,-46.45 677.06,-35.89 669.78,-43.59 676.17,-46.45"/>
<text text-anchor="middle" x="750.09" y="-57.8" font-family="Times,serif" font-size="14.00">has quantitative value</text>
</g>
<!-- has qualitative value -->
<g id="node7" class="node">
<title>has qualitative value</title>
<ellipse fill="none" stroke="blue" cx="852.09" cy="-18" rx="69.59" ry="18"/>
<text text-anchor="middle" x="852.09" y="-14.3" font-family="Times,serif" font-size="14.00">named thing</text>
</g>
<!-- observable architectural style&#45;&gt;has qualitative value -->
<g id="edge5" class="edge">
<title>observable architectural style&#45;&gt;has qualitative value</title>
<path fill="none" stroke="blue" d="M763.24,-90.93C792.02,-85.37 819.01,-78.05 830.09,-69 837.26,-63.13 842.17,-54.46 845.49,-45.97"/>
<polygon fill="blue" stroke="blue" points="848.88,-46.87 848.7,-36.28 842.23,-44.67 848.88,-46.87"/>
<text text-anchor="middle" x="916.59" y="-57.8" font-family="Times,serif" font-size="14.00">has qualitative value</text>
</g>
<!-- iri -->
<g id="node8" class="node">
<title>iri</title>
<ellipse fill="none" stroke="blue" cx="1024.09" cy="-18" rx="44.39" ry="18"/>
<text text-anchor="middle" x="1024.09" y="-14.3" font-family="Times,serif" font-size="14.00">iri type</text>
</g>
<!-- observable architectural style&#45;&gt;iri -->
<g id="edge6" class="edge">
<title>observable architectural style&#45;&gt;iri</title>
<path fill="none" stroke="blue" d="M776.6,-92.43C793.49,-90.61 810.76,-88.75 827.09,-87 864.42,-82.99 963.6,-89.45 995.09,-69 1003.61,-63.46 1009.94,-54.47 1014.46,-45.63"/>
<polygon fill="blue" stroke="blue" points="1017.76,-46.82 1018.68,-36.27 1011.38,-43.94 1017.76,-46.82"/>
<text text-anchor="middle" x="1018.09" y="-57.8" font-family="Times,serif" font-size="14.00">iri</text>
</g>
<!-- source -->
<g id="node9" class="node">
<title>source</title>
<ellipse fill="none" stroke="blue" cx="1143.09" cy="-18" rx="56.59" ry="18"/>
<text text-anchor="middle" x="1143.09" y="-14.3" font-family="Times,serif" font-size="14.00">label type</text>
</g>
<!-- observable architectural style&#45;&gt;source -->
<g id="edge7" class="edge">
<title>observable architectural style&#45;&gt;source</title>
<path fill="none" stroke="blue" d="M775.29,-92.3C792.6,-90.47 810.34,-88.64 827.09,-87 917.23,-78.15 942.38,-91.63 1030.09,-69 1056.87,-62.09 1085.33,-49.46 1106.99,-38.62"/>
<polygon fill="blue" stroke="blue" points="1108.82,-41.62 1116.13,-33.95 1105.64,-35.38 1108.82,-41.62"/>
<text text-anchor="middle" x="1096.09" y="-57.8" font-family="Times,serif" font-size="14.00">source</text>
</g>
<!-- attribute_name -->
<g id="node4" class="node">
<title>attribute_name</title>
<ellipse fill="none" stroke="blue" cx="893.09" cy="-105" rx="56.59" ry="18"/>
<text text-anchor="middle" x="893.09" y="-101.3" font-family="Times,serif" font-size="14.00">label type</text>
</g>
</g>
</svg>
