<?xml version="1.0" encoding="UTF-8" standalone="no"?>
<!DOCTYPE svg PUBLIC "-//W3C//DTD SVG 1.1//EN"
 "http://www.w3.org/Graphics/SVG/1.1/DTD/svg11.dtd">
<!-- Generated by graphviz version 2.43.0 (0)
 -->
<!-- Title: %3 Pages: 1 -->
<svg width="1510pt" height="131pt"
 viewBox="0.00 0.00 1509.58 131.00" xmlns="http://www.w3.org/2000/svg" xmlns:xlink="http://www.w3.org/1999/xlink">
<g id="graph0" class="graph" transform="scale(1 1) rotate(0) translate(4 127)">
<title>%3</title>
<polygon fill="white" stroke="transparent" points="-4,4 -4,-127 1505.58,-127 1505.58,4 -4,4"/>
<!-- observable feature -->
<g id="node1" class="node">
<title>observable feature</title>
<ellipse fill="none" stroke="black" cx="796.79" cy="-105" rx="98.28" ry="18"/>
<text text-anchor="middle" x="796.79" y="-101.3" font-family="Times,serif" font-size="14.00">observable feature</text>
</g>
<!-- error or observable feature -->
<g id="node2" class="node">
<title>error or observable feature</title>
<ellipse fill="none" stroke="black" cx="137.79" cy="-18" rx="137.58" ry="18"/>
<text text-anchor="middle" x="137.79" y="-14.3" font-family="Times,serif" font-size="14.00">error or observable feature</text>
</g>
<!-- observable feature&#45;&gt;error or observable feature -->
<g id="edge1" class="edge">
<title>observable feature&#45;&gt;error or observable feature</title>
<path fill="none" stroke="black" d="M707.23,-97.47C632.16,-91.53 522.24,-81.75 426.79,-69 357.27,-59.71 278.91,-45.95 221.33,-35.21"/>
<polygon fill="black" stroke="black" points="221.67,-31.71 211.19,-33.31 220.38,-38.59 221.67,-31.71"/>
<text text-anchor="middle" x="440.79" y="-57.8" font-family="Times,serif" font-size="14.00">is_a</text>
</g>
<!-- id -->
<g id="node3" class="node">
<title>id</title>
<ellipse fill="none" stroke="blue" cx="331.79" cy="-18" rx="38.19" ry="18"/>
<text text-anchor="middle" x="331.79" y="-14.3" font-family="Times,serif" font-size="14.00">string</text>
</g>
<!-- observable feature&#45;&gt;id -->
<g id="edge2" class="edge">
<title>observable feature&#45;&gt;id</title>
<path fill="none" stroke="blue" d="M711.69,-95.88C626.53,-86.41 492.36,-67.85 379.79,-36 376.68,-35.12 373.49,-34.15 370.29,-33.12"/>
<polygon fill="blue" stroke="blue" points="371.38,-29.8 360.78,-29.95 369.16,-36.44 371.38,-29.8"/>
<text text-anchor="middle" x="522.79" y="-57.8" font-family="Times,serif" font-size="14.00">id</text>
</g>
<!-- iri -->
<g id="node4" class="node">
<title>iri</title>
<ellipse fill="none" stroke="blue" cx="432.79" cy="-18" rx="44.39" ry="18"/>
<text text-anchor="middle" x="432.79" y="-14.3" font-family="Times,serif" font-size="14.00">iri type</text>
</g>
<!-- observable feature&#45;&gt;iri -->
<g id="edge3" class="edge">
<title>observable feature&#45;&gt;iri</title>
<path fill="none" stroke="blue" d="M727.97,-92.06C693.3,-85.75 650.69,-77.56 612.79,-69 556.32,-56.25 542.41,-52.03 486.79,-36 483.28,-34.99 479.64,-33.91 476,-32.81"/>
<polygon fill="blue" stroke="blue" points="477,-29.45 466.41,-29.86 474.95,-36.15 477,-29.45"/>
<text text-anchor="middle" x="620.79" y="-57.8" font-family="Times,serif" font-size="14.00">iri</text>
</g>
<!-- type -->
<g id="node5" class="node">
<title>type</title>
<ellipse fill="none" stroke="blue" cx="533.79" cy="-18" rx="38.19" ry="18"/>
<text text-anchor="middle" x="533.79" y="-14.3" font-family="Times,serif" font-size="14.00">string</text>
</g>
<!-- observable feature&#45;&gt;type -->
<g id="edge4" class="edge">
<title>observable feature&#45;&gt;type</title>
<path fill="none" stroke="blue" d="M745.98,-89.56C724.83,-83.42 700.06,-76.06 677.79,-69 634.38,-55.24 623.76,-51.08 580.79,-36 578.1,-35.06 575.33,-34.08 572.54,-33.08"/>
<polygon fill="blue" stroke="blue" points="573.69,-29.78 563.09,-29.7 571.32,-36.37 573.69,-29.78"/>
<text text-anchor="middle" x="693.79" y="-57.8" font-family="Times,serif" font-size="14.00">type</text>
</g>
<!-- name -->
<g id="node6" class="node">
<title>name</title>
<ellipse fill="none" stroke="blue" cx="646.79" cy="-18" rx="56.59" ry="18"/>
<text text-anchor="middle" x="646.79" y="-14.3" font-family="Times,serif" font-size="14.00">label type</text>
</g>
<!-- observable feature&#45;&gt;name -->
<g id="edge5" class="edge">
<title>observable feature&#45;&gt;name</title>
<path fill="none" stroke="blue" d="M767.87,-87.61C743.5,-73.8 708.53,-53.99 682.43,-39.2"/>
<polygon fill="blue" stroke="blue" points="684.03,-36.08 673.6,-34.2 680.58,-42.17 684.03,-36.08"/>
<text text-anchor="middle" x="750.79" y="-57.8" font-family="Times,serif" font-size="14.00">name</text>
</g>
<!-- description -->
<g id="node7" class="node">
<title>description</title>
<ellipse fill="none" stroke="blue" cx="796.79" cy="-18" rx="75.29" ry="18"/>
<text text-anchor="middle" x="796.79" y="-14.3" font-family="Times,serif" font-size="14.00">narrative text</text>
</g>
<!-- observable feature&#45;&gt;description -->
<g id="edge6" class="edge">
<title>observable feature&#45;&gt;description</title>
<path fill="none" stroke="blue" d="M796.79,-86.8C796.79,-75.16 796.79,-59.55 796.79,-46.24"/>
<polygon fill="blue" stroke="blue" points="800.29,-46.18 796.79,-36.18 793.29,-46.18 800.29,-46.18"/>
<text text-anchor="middle" x="837.29" y="-57.8" font-family="Times,serif" font-size="14.00">description</text>
</g>
<!-- source -->
<g id="node8" class="node">
<title>source</title>
<ellipse fill="none" stroke="blue" cx="946.79" cy="-18" rx="56.59" ry="18"/>
<text text-anchor="middle" x="946.79" y="-14.3" font-family="Times,serif" font-size="14.00">label type</text>
</g>
<!-- observable feature&#45;&gt;source -->
<g id="edge7" class="edge">
<title>observable feature&#45;&gt;source</title>
<path fill="none" stroke="blue" d="M840.21,-88.7C853.88,-83.2 868.79,-76.49 881.79,-69 895.38,-61.16 909.32,-50.8 920.79,-41.54"/>
<polygon fill="blue" stroke="blue" points="923.17,-44.11 928.66,-35.05 918.72,-38.71 923.17,-44.11"/>
<text text-anchor="middle" x="928.79" y="-57.8" font-family="Times,serif" font-size="14.00">source</text>
</g>
<!-- provided by -->
<g id="node9" class="node">
<title>provided by</title>
<ellipse fill="none" stroke="blue" cx="1058.79" cy="-18" rx="37.09" ry="18"/>
<text text-anchor="middle" x="1058.79" y="-14.3" font-family="Times,serif" font-size="14.00">agent</text>
</g>
<!-- observable feature&#45;&gt;provided by -->
<g id="edge8" class="edge">
<title>observable feature&#45;&gt;provided by</title>
<path fill="none" stroke="blue" d="M867.1,-92.41C895.39,-86.78 928.06,-79.02 956.79,-69 981.06,-60.53 1007.06,-47.73 1026.74,-37.19"/>
<polygon fill="blue" stroke="blue" points="1028.46,-40.24 1035.58,-32.39 1025.12,-34.09 1028.46,-40.24"/>
<text text-anchor="middle" x="1034.29" y="-57.8" font-family="Times,serif" font-size="14.00">provided by</text>
</g>
<!-- has attribute -->
<g id="node10" class="node">
<title>has attribute</title>
<ellipse fill="none" stroke="blue" cx="1165.79" cy="-18" rx="51.99" ry="18"/>
<text text-anchor="middle" x="1165.79" y="-14.3" font-family="Times,serif" font-size="14.00">attribute</text>
</g>
<!-- observable feature&#45;&gt;has attribute -->
<g id="edge9" class="edge">
<title>observable feature&#45;&gt;has attribute</title>
<path fill="none" stroke="blue" d="M866.64,-92.32C879,-90.42 891.76,-88.57 903.79,-87 982.2,-76.79 1005.64,-93.61 1080.79,-69 1100.51,-62.54 1120.61,-50.99 1136.31,-40.61"/>
<polygon fill="blue" stroke="blue" points="1138.72,-43.21 1145.01,-34.69 1134.78,-37.43 1138.72,-43.21"/>
<text text-anchor="middle" x="1160.79" y="-57.8" font-family="Times,serif" font-size="14.00">has attribute</text>
</g>
<!-- category -->
<g id="node11" class="node">
<title>category</title>
<ellipse fill="none" stroke="black" cx="1286.79" cy="-18" rx="51.19" ry="18"/>
<text text-anchor="middle" x="1286.79" y="-14.3" font-family="Times,serif" font-size="14.00">category</text>
</g>
<!-- observable feature&#45;&gt;category -->
<g id="edge10" class="edge">
<title>observable feature&#45;&gt;category</title>
<path fill="none" stroke="blue" d="M865.44,-92.06C878.16,-90.14 891.35,-88.35 903.79,-87 971.95,-79.61 1146.78,-90.77 1211.79,-69 1229.61,-63.03 1247.21,-51.66 1260.88,-41.27"/>
<polygon fill="blue" stroke="blue" points="1263.17,-43.93 1268.85,-34.98 1258.83,-38.43 1263.17,-43.93"/>
<text text-anchor="middle" x="1272.29" y="-57.8" font-family="Times,serif" font-size="14.00">category</text>
</g>
<!-- in taxon -->
<g id="node13" class="node">
<title>in taxon</title>
<ellipse fill="none" stroke="blue" cx="1428.79" cy="-18" rx="72.59" ry="18"/>
<text text-anchor="middle" x="1428.79" y="-14.3" font-family="Times,serif" font-size="14.00">system taxon</text>
</g>
<!-- observable feature&#45;&gt;in taxon -->
<g id="edge11" class="edge">
<title>observable feature&#45;&gt;in taxon</title>
<path fill="none" stroke="blue" d="M864.85,-92.01C877.75,-90.07 891.16,-88.28 903.79,-87 993.2,-77.94 1220.05,-88.45 1307.79,-69 1336.46,-62.64 1367.01,-49.97 1390.24,-38.97"/>
<polygon fill="blue" stroke="blue" points="1391.92,-42.04 1399.4,-34.54 1388.87,-35.74 1391.92,-42.04"/>
<text text-anchor="middle" x="1380.79" y="-57.8" font-family="Times,serif" font-size="14.00">in taxon</text>
</g>
<!-- named thing_category -->
<g id="node12" class="node">
<title>named thing_category</title>
<ellipse fill="none" stroke="blue" cx="982.79" cy="-105" rx="69.59" ry="18"/>
<text text-anchor="middle" x="982.79" y="-101.3" font-family="Times,serif" font-size="14.00">named thing</text>
</g>
</g>
</svg>
