<?xml version="1.0" encoding="UTF-8" standalone="no"?>
<!DOCTYPE svg PUBLIC "-//W3C//DTD SVG 1.1//EN"
 "http://www.w3.org/Graphics/SVG/1.1/DTD/svg11.dtd">
<!-- Generated by graphviz version 2.43.0 (0)
 -->
<!-- Title: %3 Pages: 1 -->
<svg width="1300pt" height="131pt"
 viewBox="0.00 0.00 1299.74 131.00" xmlns="http://www.w3.org/2000/svg" xmlns:xlink="http://www.w3.org/1999/xlink">
<g id="graph0" class="graph" transform="scale(1 1) rotate(0) translate(4 127)">
<title>%3</title>
<polygon fill="white" stroke="transparent" points="-4,4 -4,-127 1295.74,-127 1295.74,4 -4,4"/>
<!-- offline maintenance -->
<g id="node1" class="node">
<title>offline maintenance</title>
<ellipse fill="none" stroke="black" cx="675.39" cy="-105" rx="102.08" ry="18"/>
<text text-anchor="middle" x="675.39" y="-101.3" font-family="Times,serif" font-size="14.00">offline maintenance</text>
</g>
<!-- empirical intervention -->
<g id="node2" class="node">
<title>empirical intervention</title>
<ellipse fill="none" stroke="black" cx="114.39" cy="-18" rx="114.28" ry="18"/>
<text text-anchor="middle" x="114.39" y="-14.3" font-family="Times,serif" font-size="14.00">empirical intervention</text>
</g>
<!-- offline maintenance&#45;&gt;empirical intervention -->
<g id="edge1" class="edge">
<title>offline maintenance&#45;&gt;empirical intervention</title>
<path fill="none" stroke="black" d="M588.19,-95.53C528.2,-89.28 446.78,-79.99 375.39,-69 312.42,-59.31 241.43,-45.52 189.41,-34.88"/>
<polygon fill="black" stroke="black" points="190.09,-31.45 179.59,-32.86 188.68,-38.3 190.09,-31.45"/>
<text text-anchor="middle" x="389.39" y="-57.8" font-family="Times,serif" font-size="14.00">is_a</text>
</g>
<!-- id -->
<g id="node3" class="node">
<title>id</title>
<ellipse fill="none" stroke="blue" cx="285.39" cy="-18" rx="38.19" ry="18"/>
<text text-anchor="middle" x="285.39" y="-14.3" font-family="Times,serif" font-size="14.00">string</text>
</g>
<!-- offline maintenance&#45;&gt;id -->
<g id="edge2" class="edge">
<title>offline maintenance&#45;&gt;id</title>
<path fill="none" stroke="blue" d="M600.5,-92.75C530.64,-81.41 423.9,-61.88 333.39,-36 330.29,-35.11 327.09,-34.13 323.9,-33.11"/>
<polygon fill="blue" stroke="blue" points="324.99,-29.78 314.39,-29.92 322.76,-36.42 324.99,-29.78"/>
<text text-anchor="middle" x="471.39" y="-57.8" font-family="Times,serif" font-size="14.00">id</text>
</g>
<!-- iri -->
<g id="node4" class="node">
<title>iri</title>
<ellipse fill="none" stroke="blue" cx="386.39" cy="-18" rx="44.39" ry="18"/>
<text text-anchor="middle" x="386.39" y="-14.3" font-family="Times,serif" font-size="14.00">iri type</text>
</g>
<!-- offline maintenance&#45;&gt;iri -->
<g id="edge3" class="edge">
<title>offline maintenance&#45;&gt;iri</title>
<path fill="none" stroke="blue" d="M622.72,-89.48C600.39,-83.27 574.09,-75.87 550.39,-69 501.37,-54.78 489.18,-51 440.39,-36 436.9,-34.93 433.28,-33.81 429.65,-32.67"/>
<polygon fill="blue" stroke="blue" points="430.66,-29.32 420.07,-29.68 428.57,-36.01 430.66,-29.32"/>
<text text-anchor="middle" x="558.39" y="-57.8" font-family="Times,serif" font-size="14.00">iri</text>
</g>
<!-- type -->
<g id="node5" class="node">
<title>type</title>
<ellipse fill="none" stroke="blue" cx="487.39" cy="-18" rx="38.19" ry="18"/>
<text text-anchor="middle" x="487.39" y="-14.3" font-family="Times,serif" font-size="14.00">string</text>
</g>
<!-- offline maintenance&#45;&gt;type -->
<g id="edge4" class="edge">
<title>offline maintenance&#45;&gt;type</title>
<path fill="none" stroke="blue" d="M640.03,-88.01C606.73,-72.96 557.07,-50.51 523.52,-35.34"/>
<polygon fill="blue" stroke="blue" points="524.64,-32 514.09,-31.07 521.76,-38.38 524.64,-32"/>
<text text-anchor="middle" x="609.39" y="-57.8" font-family="Times,serif" font-size="14.00">type</text>
</g>
<!-- name -->
<g id="node6" class="node">
<title>name</title>
<ellipse fill="none" stroke="blue" cx="600.39" cy="-18" rx="56.59" ry="18"/>
<text text-anchor="middle" x="600.39" y="-14.3" font-family="Times,serif" font-size="14.00">label type</text>
</g>
<!-- offline maintenance&#45;&gt;name -->
<g id="edge5" class="edge">
<title>offline maintenance&#45;&gt;name</title>
<path fill="none" stroke="blue" d="M660.21,-86.8C649.19,-74.31 634.13,-57.24 621.87,-43.35"/>
<polygon fill="blue" stroke="blue" points="624.27,-40.78 615.03,-35.6 619.03,-45.41 624.27,-40.78"/>
<text text-anchor="middle" x="662.39" y="-57.8" font-family="Times,serif" font-size="14.00">name</text>
</g>
<!-- description -->
<g id="node7" class="node">
<title>description</title>
<ellipse fill="none" stroke="blue" cx="750.39" cy="-18" rx="75.29" ry="18"/>
<text text-anchor="middle" x="750.39" y="-14.3" font-family="Times,serif" font-size="14.00">narrative text</text>
</g>
<!-- offline maintenance&#45;&gt;description -->
<g id="edge6" class="edge">
<title>offline maintenance&#45;&gt;description</title>
<path fill="none" stroke="blue" d="M690.57,-86.8C701.52,-74.39 716.46,-57.46 728.67,-43.62"/>
<polygon fill="blue" stroke="blue" points="731.5,-45.7 735.49,-35.89 726.25,-41.07 731.5,-45.7"/>
<text text-anchor="middle" x="757.89" y="-57.8" font-family="Times,serif" font-size="14.00">description</text>
</g>
<!-- source -->
<g id="node8" class="node">
<title>source</title>
<ellipse fill="none" stroke="blue" cx="900.39" cy="-18" rx="56.59" ry="18"/>
<text text-anchor="middle" x="900.39" y="-14.3" font-family="Times,serif" font-size="14.00">label type</text>
</g>
<!-- offline maintenance&#45;&gt;source -->
<g id="edge7" class="edge">
<title>offline maintenance&#45;&gt;source</title>
<path fill="none" stroke="blue" d="M734.68,-90.32C756.31,-84.64 780.75,-77.4 802.39,-69 824.02,-60.6 847.19,-48.92 865.56,-38.95"/>
<polygon fill="blue" stroke="blue" points="867.36,-41.96 874.44,-34.07 863.99,-35.83 867.36,-41.96"/>
<text text-anchor="middle" x="860.39" y="-57.8" font-family="Times,serif" font-size="14.00">source</text>
</g>
<!-- provided by -->
<g id="node9" class="node">
<title>provided by</title>
<ellipse fill="none" stroke="blue" cx="1012.39" cy="-18" rx="37.09" ry="18"/>
<text text-anchor="middle" x="1012.39" y="-14.3" font-family="Times,serif" font-size="14.00">agent</text>
</g>
<!-- offline maintenance&#45;&gt;provided by -->
<g id="edge8" class="edge">
<title>offline maintenance&#45;&gt;provided by</title>
<path fill="none" stroke="blue" d="M749.72,-92.61C805.7,-83.89 875.02,-72.75 888.39,-69 919.37,-60.32 953.15,-46.39 977.62,-35.43"/>
<polygon fill="blue" stroke="blue" points="979.19,-38.56 986.84,-31.24 976.29,-32.19 979.19,-38.56"/>
<text text-anchor="middle" x="972.89" y="-57.8" font-family="Times,serif" font-size="14.00">provided by</text>
</g>
<!-- has attribute -->
<g id="node10" class="node">
<title>has attribute</title>
<ellipse fill="none" stroke="blue" cx="1119.39" cy="-18" rx="51.99" ry="18"/>
<text text-anchor="middle" x="1119.39" y="-14.3" font-family="Times,serif" font-size="14.00">attribute</text>
</g>
<!-- offline maintenance&#45;&gt;has attribute -->
<g id="edge9" class="edge">
<title>offline maintenance&#45;&gt;has attribute</title>
<path fill="none" stroke="blue" d="M747.23,-92.19C760.24,-90.28 773.7,-88.46 786.39,-87 889.57,-75.13 919.3,-96.74 1019.39,-69 1043.18,-62.41 1068.02,-50.02 1086.98,-39.23"/>
<polygon fill="blue" stroke="blue" points="1088.92,-42.15 1095.79,-34.09 1085.39,-36.11 1088.92,-42.15"/>
<text text-anchor="middle" x="1104.39" y="-57.8" font-family="Times,serif" font-size="14.00">has attribute</text>
</g>
<!-- category -->
<g id="node11" class="node">
<title>category</title>
<ellipse fill="none" stroke="black" cx="1240.39" cy="-18" rx="51.19" ry="18"/>
<text text-anchor="middle" x="1240.39" y="-14.3" font-family="Times,serif" font-size="14.00">category</text>
</g>
<!-- offline maintenance&#45;&gt;category -->
<g id="edge10" class="edge">
<title>offline maintenance&#45;&gt;category</title>
<path fill="none" stroke="blue" d="M746.31,-92.02C759.6,-90.1 773.39,-88.31 786.39,-87 868.07,-78.77 1076.73,-92.49 1155.39,-69 1175.6,-62.96 1196.04,-51.16 1211.81,-40.54"/>
<polygon fill="blue" stroke="blue" points="1213.85,-43.38 1220.06,-34.8 1209.85,-37.63 1213.85,-43.38"/>
<text text-anchor="middle" x="1218.89" y="-57.8" font-family="Times,serif" font-size="14.00">category</text>
</g>
<!-- named thing_category -->
<g id="node12" class="node">
<title>named thing_category</title>
<ellipse fill="none" stroke="blue" cx="865.39" cy="-105" rx="69.59" ry="18"/>
<text text-anchor="middle" x="865.39" y="-101.3" font-family="Times,serif" font-size="14.00">named thing</text>
</g>
</g>
</svg>
