<?xml version="1.0" encoding="UTF-8" standalone="no"?>
<!DOCTYPE svg PUBLIC "-//W3C//DTD SVG 1.1//EN"
 "http://www.w3.org/Graphics/SVG/1.1/DTD/svg11.dtd">
<!-- Generated by graphviz version 2.43.0 (0)
 -->
<!-- Title: %3 Pages: 1 -->
<svg width="1392pt" height="131pt"
 viewBox="0.00 0.00 1392.39 131.00" xmlns="http://www.w3.org/2000/svg" xmlns:xlink="http://www.w3.org/1999/xlink">
<g id="graph0" class="graph" transform="scale(1 1) rotate(0) translate(4 127)">
<title>%3</title>
<polygon fill="white" stroke="transparent" points="-4,4 -4,-127 1388.39,-127 1388.39,4 -4,4"/>
<!-- offline maintenance outcome -->
<g id="node1" class="node">
<title>offline maintenance outcome</title>
<ellipse fill="none" stroke="black" cx="693.04" cy="-105" rx="144.07" ry="18"/>
<text text-anchor="middle" x="693.04" y="-101.3" font-family="Times,serif" font-size="14.00">offline maintenance outcome</text>
</g>
<!-- offline maintenance -->
<g id="node2" class="node">
<title>offline maintenance</title>
<ellipse fill="none" stroke="black" cx="102.04" cy="-18" rx="102.08" ry="18"/>
<text text-anchor="middle" x="102.04" y="-14.3" font-family="Times,serif" font-size="14.00">offline maintenance</text>
</g>
<!-- offline maintenance outcome&#45;&gt;offline maintenance -->
<g id="edge1" class="edge">
<title>offline maintenance outcome&#45;&gt;offline maintenance</title>
<path fill="none" stroke="black" d="M577.82,-94.16C514.3,-88.14 434.13,-79.56 363.04,-69 298.73,-59.45 226.14,-45.26 173.86,-34.44"/>
<polygon fill="black" stroke="black" points="174.52,-31 164.02,-32.39 173.1,-37.85 174.52,-31"/>
<text text-anchor="middle" x="377.04" y="-57.8" font-family="Times,serif" font-size="14.00">is_a</text>
</g>
<!-- outcome -->
<g id="node3" class="node">
<title>outcome</title>
<ellipse fill="none" stroke="black" cx="272.04" cy="-18" rx="50.09" ry="18"/>
<text text-anchor="middle" x="272.04" y="-14.3" font-family="Times,serif" font-size="14.00">outcome</text>
</g>
<!-- offline maintenance outcome&#45;&gt;outcome -->
<g id="edge2" class="edge">
<title>offline maintenance outcome&#45;&gt;outcome</title>
<path fill="none" stroke="black" d="M593.59,-91.95C550.76,-86.1 500.24,-78.31 455.04,-69 399.18,-57.5 386,-51.23 331.04,-36 327.28,-34.96 323.38,-33.86 319.47,-32.76"/>
<polygon fill="black" stroke="black" points="320.35,-29.37 309.78,-30 318.44,-36.1 320.35,-29.37"/>
<text text-anchor="middle" x="471.54" y="-57.8" font-family="Times,serif" font-size="14.00">uses</text>
</g>
<!-- id -->
<g id="node4" class="node">
<title>id</title>
<ellipse fill="none" stroke="blue" cx="378.04" cy="-18" rx="38.19" ry="18"/>
<text text-anchor="middle" x="378.04" y="-14.3" font-family="Times,serif" font-size="14.00">string</text>
</g>
<!-- offline maintenance outcome&#45;&gt;id -->
<g id="edge3" class="edge">
<title>offline maintenance outcome&#45;&gt;id</title>
<path fill="none" stroke="blue" d="M627.02,-88.95C572.7,-76.15 493.89,-56.61 426.04,-36 422.95,-35.06 419.77,-34.05 416.58,-32.99"/>
<polygon fill="blue" stroke="blue" points="417.69,-29.67 407.09,-29.77 415.43,-36.3 417.69,-29.67"/>
<text text-anchor="middle" x="550.04" y="-57.8" font-family="Times,serif" font-size="14.00">id</text>
</g>
<!-- iri -->
<g id="node5" class="node">
<title>iri</title>
<ellipse fill="none" stroke="blue" cx="479.04" cy="-18" rx="44.39" ry="18"/>
<text text-anchor="middle" x="479.04" y="-14.3" font-family="Times,serif" font-size="14.00">iri type</text>
</g>
<!-- offline maintenance outcome&#45;&gt;iri -->
<g id="edge4" class="edge">
<title>offline maintenance outcome&#45;&gt;iri</title>
<path fill="none" stroke="blue" d="M652.03,-87.71C613.82,-72.53 557.18,-50.04 519.23,-34.96"/>
<polygon fill="blue" stroke="blue" points="520.12,-31.55 509.54,-31.11 517.54,-38.06 520.12,-31.55"/>
<text text-anchor="middle" x="607.04" y="-57.8" font-family="Times,serif" font-size="14.00">iri</text>
</g>
<!-- type -->
<g id="node6" class="node">
<title>type</title>
<ellipse fill="none" stroke="blue" cx="580.04" cy="-18" rx="38.19" ry="18"/>
<text text-anchor="middle" x="580.04" y="-14.3" font-family="Times,serif" font-size="14.00">string</text>
</g>
<!-- offline maintenance outcome&#45;&gt;type -->
<g id="edge5" class="edge">
<title>offline maintenance outcome&#45;&gt;type</title>
<path fill="none" stroke="blue" d="M670.72,-87.21C652.67,-73.64 627.19,-54.46 607.83,-39.9"/>
<polygon fill="blue" stroke="blue" points="609.77,-36.99 599.68,-33.77 605.57,-42.58 609.77,-36.99"/>
<text text-anchor="middle" x="660.04" y="-57.8" font-family="Times,serif" font-size="14.00">type</text>
</g>
<!-- name -->
<g id="node7" class="node">
<title>name</title>
<ellipse fill="none" stroke="blue" cx="693.04" cy="-18" rx="56.59" ry="18"/>
<text text-anchor="middle" x="693.04" y="-14.3" font-family="Times,serif" font-size="14.00">label type</text>
</g>
<!-- offline maintenance outcome&#45;&gt;name -->
<g id="edge6" class="edge">
<title>offline maintenance outcome&#45;&gt;name</title>
<path fill="none" stroke="blue" d="M693.04,-86.8C693.04,-75.16 693.04,-59.55 693.04,-46.24"/>
<polygon fill="blue" stroke="blue" points="696.54,-46.18 693.04,-36.18 689.54,-46.18 696.54,-46.18"/>
<text text-anchor="middle" x="713.04" y="-57.8" font-family="Times,serif" font-size="14.00">name</text>
</g>
<!-- description -->
<g id="node8" class="node">
<title>description</title>
<ellipse fill="none" stroke="blue" cx="843.04" cy="-18" rx="75.29" ry="18"/>
<text text-anchor="middle" x="843.04" y="-14.3" font-family="Times,serif" font-size="14.00">narrative text</text>
</g>
<!-- offline maintenance outcome&#45;&gt;description -->
<g id="edge7" class="edge">
<title>offline maintenance outcome&#45;&gt;description</title>
<path fill="none" stroke="blue" d="M722.68,-87.21C746.73,-73.57 780.77,-54.29 806.51,-39.7"/>
<polygon fill="blue" stroke="blue" points="808.27,-42.73 815.24,-34.75 804.81,-36.64 808.27,-42.73"/>
<text text-anchor="middle" x="817.54" y="-57.8" font-family="Times,serif" font-size="14.00">description</text>
</g>
<!-- source -->
<g id="node9" class="node">
<title>source</title>
<ellipse fill="none" stroke="blue" cx="993.04" cy="-18" rx="56.59" ry="18"/>
<text text-anchor="middle" x="993.04" y="-14.3" font-family="Times,serif" font-size="14.00">label type</text>
</g>
<!-- offline maintenance outcome&#45;&gt;source -->
<g id="edge8" class="edge">
<title>offline maintenance outcome&#45;&gt;source</title>
<path fill="none" stroke="blue" d="M773.64,-90.05C801.84,-84.44 833.57,-77.32 862.04,-69 892.6,-60.07 926.13,-47.21 951.61,-36.77"/>
<polygon fill="blue" stroke="blue" points="953.06,-39.96 960.97,-32.9 950.39,-33.49 953.06,-39.96"/>
<text text-anchor="middle" x="930.04" y="-57.8" font-family="Times,serif" font-size="14.00">source</text>
</g>
<!-- provided by -->
<g id="node10" class="node">
<title>provided by</title>
<ellipse fill="none" stroke="blue" cx="1105.04" cy="-18" rx="37.09" ry="18"/>
<text text-anchor="middle" x="1105.04" y="-14.3" font-family="Times,serif" font-size="14.00">agent</text>
</g>
<!-- offline maintenance outcome&#45;&gt;provided by -->
<g id="edge9" class="edge">
<title>offline maintenance outcome&#45;&gt;provided by</title>
<path fill="none" stroke="blue" d="M796.26,-92.34C857.07,-85.09 927.84,-75.87 958.04,-69 1004.09,-58.53 1014.44,-51.52 1059.04,-36 1061.59,-35.11 1064.22,-34.18 1066.86,-33.24"/>
<polygon fill="blue" stroke="blue" points="1068.18,-36.48 1076.39,-29.78 1065.8,-29.9 1068.18,-36.48"/>
<text text-anchor="middle" x="1052.54" y="-57.8" font-family="Times,serif" font-size="14.00">provided by</text>
</g>
<!-- has attribute -->
<g id="node11" class="node">
<title>has attribute</title>
<ellipse fill="none" stroke="blue" cx="1212.04" cy="-18" rx="51.99" ry="18"/>
<text text-anchor="middle" x="1212.04" y="-14.3" font-family="Times,serif" font-size="14.00">attribute</text>
</g>
<!-- offline maintenance outcome&#45;&gt;has attribute -->
<g id="edge10" class="edge">
<title>offline maintenance outcome&#45;&gt;has attribute</title>
<path fill="none" stroke="blue" d="M794.62,-92.14C811.77,-90.3 829.41,-88.52 846.04,-87 958.3,-76.77 989.65,-96.21 1099.04,-69 1126.24,-62.23 1155.12,-49.35 1176.87,-38.35"/>
<polygon fill="blue" stroke="blue" points="1178.75,-41.32 1186.03,-33.62 1175.53,-35.1 1178.75,-41.32"/>
<text text-anchor="middle" x="1188.04" y="-57.8" font-family="Times,serif" font-size="14.00">has attribute</text>
</g>
<!-- category -->
<g id="node12" class="node">
<title>category</title>
<ellipse fill="none" stroke="black" cx="1333.04" cy="-18" rx="51.19" ry="18"/>
<text text-anchor="middle" x="1333.04" y="-14.3" font-family="Times,serif" font-size="14.00">category</text>
</g>
<!-- offline maintenance outcome&#45;&gt;category -->
<g id="edge11" class="edge">
<title>offline maintenance outcome&#45;&gt;category</title>
<path fill="none" stroke="blue" d="M792.95,-91.95C810.62,-90.09 828.86,-88.35 846.04,-87 933.2,-80.17 1154.72,-92.09 1239.04,-69 1261.51,-62.85 1284.64,-50.63 1302.33,-39.82"/>
<polygon fill="blue" stroke="blue" points="1304.45,-42.62 1311.06,-34.33 1300.73,-36.69 1304.45,-42.62"/>
<text text-anchor="middle" x="1305.54" y="-57.8" font-family="Times,serif" font-size="14.00">category</text>
</g>
<!-- named thing_category -->
<g id="node13" class="node">
<title>named thing_category</title>
<ellipse fill="none" stroke="blue" cx="925.04" cy="-105" rx="69.59" ry="18"/>
<text text-anchor="middle" x="925.04" y="-101.3" font-family="Times,serif" font-size="14.00">named thing</text>
</g>
</g>
</svg>
