<?xml version="1.0" encoding="UTF-8" standalone="no"?>
<!DOCTYPE svg PUBLIC "-//W3C//DTD SVG 1.1//EN"
 "http://www.w3.org/Graphics/SVG/1.1/DTD/svg11.dtd">
<!-- Generated by graphviz version 2.43.0 (0)
 -->
<!-- Title: %3 Pages: 1 -->
<svg width="1053pt" height="131pt"
 viewBox="0.00 0.00 1053.29 131.00" xmlns="http://www.w3.org/2000/svg" xmlns:xlink="http://www.w3.org/1999/xlink">
<g id="graph0" class="graph" transform="scale(1 1) rotate(0) translate(4 127)">
<title>%3</title>
<polygon fill="white" stroke="transparent" points="-4,4 -4,-127 1049.29,-127 1049.29,4 -4,4"/>
<!-- onset -->
<g id="node1" class="node">
<title>onset</title>
<ellipse fill="none" stroke="black" cx="514.74" cy="-105" rx="36.29" ry="18"/>
<text text-anchor="middle" x="514.74" y="-101.3" font-family="Times,serif" font-size="14.00">onset</text>
</g>
<!-- empirical course -->
<g id="node2" class="node">
<title>empirical course</title>
<ellipse fill="none" stroke="black" cx="87.74" cy="-18" rx="87.99" ry="18"/>
<text text-anchor="middle" x="87.74" y="-14.3" font-family="Times,serif" font-size="14.00">empirical course</text>
</g>
<!-- onset&#45;&gt;empirical course -->
<g id="edge1" class="edge">
<title>onset&#45;&gt;empirical course</title>
<path fill="none" stroke="black" d="M479.27,-100.7C430.08,-95.76 338.53,-85.26 261.74,-69 221.02,-60.38 175.87,-47.3 141.77,-36.68"/>
<polygon fill="black" stroke="black" points="142.59,-33.27 132,-33.61 140.5,-39.95 142.59,-33.27"/>
<text text-anchor="middle" x="275.74" y="-57.8" font-family="Times,serif" font-size="14.00">is_a</text>
</g>
<!-- name -->
<g id="node3" class="node">
<title>name</title>
<ellipse fill="none" stroke="black" cx="229.74" cy="-18" rx="36.29" ry="18"/>
<text text-anchor="middle" x="229.74" y="-14.3" font-family="Times,serif" font-size="14.00">name</text>
</g>
<!-- onset&#45;&gt;name -->
<g id="edge2" class="edge">
<title>onset&#45;&gt;name</title>
<path fill="none" stroke="blue" d="M479.11,-100.59C440.5,-96.17 377.49,-86.82 325.74,-69 302.79,-61.1 278.56,-48.44 260.18,-37.84"/>
<polygon fill="blue" stroke="blue" points="261.8,-34.73 251.4,-32.67 258.25,-40.76 261.8,-34.73"/>
<text text-anchor="middle" x="345.74" y="-57.8" font-family="Times,serif" font-size="14.00">name</text>
</g>
<!-- has attribute type -->
<g id="node5" class="node">
<title>has attribute type</title>
<ellipse fill="none" stroke="blue" cx="360.74" cy="-18" rx="76.89" ry="18"/>
<text text-anchor="middle" x="360.74" y="-14.3" font-family="Times,serif" font-size="14.00">ontology class</text>
</g>
<!-- onset&#45;&gt;has attribute type -->
<g id="edge3" class="edge">
<title>onset&#45;&gt;has attribute type</title>
<path fill="none" stroke="blue" d="M478.38,-103.43C448.49,-101.09 406.79,-93.24 379.74,-69 372.98,-62.94 368.61,-54.22 365.8,-45.75"/>
<polygon fill="blue" stroke="blue" points="369.17,-44.82 363.15,-36.1 362.42,-46.67 369.17,-44.82"/>
<text text-anchor="middle" x="444.74" y="-57.8" font-family="Times,serif" font-size="14.00">has attribute type</text>
</g>
<!-- has quantitative value -->
<g id="node6" class="node">
<title>has quantitative value</title>
<ellipse fill="none" stroke="blue" cx="532.74" cy="-18" rx="77.19" ry="18"/>
<text text-anchor="middle" x="532.74" y="-14.3" font-family="Times,serif" font-size="14.00">quantity value</text>
</g>
<!-- onset&#45;&gt;has quantitative value -->
<g id="edge4" class="edge">
<title>onset&#45;&gt;has quantitative value</title>
<path fill="none" stroke="blue" d="M513.27,-86.64C512.9,-76.91 513.18,-64.64 515.74,-54 516.44,-51.11 517.4,-48.17 518.51,-45.3"/>
<polygon fill="blue" stroke="blue" points="521.83,-46.45 522.72,-35.89 515.44,-43.59 521.83,-46.45"/>
<text text-anchor="middle" x="595.74" y="-57.8" font-family="Times,serif" font-size="14.00">has quantitative value</text>
</g>
<!-- has qualitative value -->
<g id="node7" class="node">
<title>has qualitative value</title>
<ellipse fill="none" stroke="blue" cx="697.74" cy="-18" rx="69.59" ry="18"/>
<text text-anchor="middle" x="697.74" y="-14.3" font-family="Times,serif" font-size="14.00">named thing</text>
</g>
<!-- onset&#45;&gt;has qualitative value -->
<g id="edge5" class="edge">
<title>onset&#45;&gt;has qualitative value</title>
<path fill="none" stroke="blue" d="M541.57,-92.83C547.48,-90.66 553.77,-88.57 559.74,-87 610.19,-73.71 634.37,-100.79 675.74,-69 683.28,-63.21 688.29,-54.28 691.59,-45.57"/>
<polygon fill="blue" stroke="blue" points="694.94,-46.58 694.64,-35.99 688.27,-44.46 694.94,-46.58"/>
<text text-anchor="middle" x="762.24" y="-57.8" font-family="Times,serif" font-size="14.00">has qualitative value</text>
</g>
<!-- iri -->
<g id="node8" class="node">
<title>iri</title>
<ellipse fill="none" stroke="blue" cx="869.74" cy="-18" rx="44.39" ry="18"/>
<text text-anchor="middle" x="869.74" y="-14.3" font-family="Times,serif" font-size="14.00">iri type</text>
</g>
<!-- onset&#45;&gt;iri -->
<g id="edge6" class="edge">
<title>onset&#45;&gt;iri</title>
<path fill="none" stroke="blue" d="M541.48,-92.42C547.39,-90.27 553.7,-88.3 559.74,-87 620.91,-73.8 787.55,-101.95 840.74,-69 849.61,-63.51 856.05,-54.24 860.58,-45.16"/>
<polygon fill="blue" stroke="blue" points="863.82,-46.5 864.63,-35.94 857.41,-43.69 863.82,-46.5"/>
<text text-anchor="middle" x="863.74" y="-57.8" font-family="Times,serif" font-size="14.00">iri</text>
</g>
<!-- source -->
<g id="node9" class="node">
<title>source</title>
<ellipse fill="none" stroke="blue" cx="988.74" cy="-18" rx="56.59" ry="18"/>
<text text-anchor="middle" x="988.74" y="-14.3" font-family="Times,serif" font-size="14.00">label type</text>
</g>
<!-- onset&#45;&gt;source -->
<g id="edge7" class="edge">
<title>onset&#45;&gt;source</title>
<path fill="none" stroke="blue" d="M541.47,-92.38C547.39,-90.24 553.7,-88.28 559.74,-87 697.35,-57.81 738.99,-101.99 875.74,-69 902.81,-62.47 931.48,-49.71 953.17,-38.71"/>
<polygon fill="blue" stroke="blue" points="955.04,-41.68 962.31,-33.97 951.82,-35.47 955.04,-41.68"/>
<text text-anchor="middle" x="941.74" y="-57.8" font-family="Times,serif" font-size="14.00">source</text>
</g>
<!-- attribute_name -->
<g id="node4" class="node">
<title>attribute_name</title>
<ellipse fill="none" stroke="blue" cx="625.74" cy="-105" rx="56.59" ry="18"/>
<text text-anchor="middle" x="625.74" y="-101.3" font-family="Times,serif" font-size="14.00">label type</text>
</g>
</g>
</svg>
