<?xml version="1.0" encoding="UTF-8" standalone="no"?>
<!DOCTYPE svg PUBLIC "-//W3C//DTD SVG 1.1//EN"
 "http://www.w3.org/Graphics/SVG/1.1/DTD/svg11.dtd">
<!-- Generated by graphviz version 2.43.0 (0)
 -->
<!-- Title: %3 Pages: 1 -->
<svg width="1210pt" height="131pt"
 viewBox="0.00 0.00 1209.89 131.00" xmlns="http://www.w3.org/2000/svg" xmlns:xlink="http://www.w3.org/1999/xlink">
<g id="graph0" class="graph" transform="scale(1 1) rotate(0) translate(4 127)">
<title>%3</title>
<polygon fill="white" stroke="transparent" points="-4,4 -4,-127 1205.89,-127 1205.89,4 -4,4"/>
<!-- ontology class -->
<g id="node1" class="node">
<title>ontology class</title>
<ellipse fill="none" stroke="black" cx="585.54" cy="-105" rx="76.89" ry="18"/>
<text text-anchor="middle" x="585.54" y="-101.3" font-family="Times,serif" font-size="14.00">ontology class</text>
</g>
<!-- named thing -->
<g id="node2" class="node">
<title>named thing</title>
<ellipse fill="none" stroke="black" cx="69.54" cy="-18" rx="69.59" ry="18"/>
<text text-anchor="middle" x="69.54" y="-14.3" font-family="Times,serif" font-size="14.00">named thing</text>
</g>
<!-- ontology class&#45;&gt;named thing -->
<g id="edge1" class="edge">
<title>ontology class&#45;&gt;named thing</title>
<path fill="none" stroke="black" d="M514.61,-97.97C453.61,-92.25 363.43,-82.51 285.54,-69 231.01,-59.54 169.59,-44.93 126.22,-33.94"/>
<polygon fill="black" stroke="black" points="126.98,-30.52 116.43,-31.44 125.25,-37.31 126.98,-30.52"/>
<text text-anchor="middle" x="299.54" y="-57.8" font-family="Times,serif" font-size="14.00">is_a</text>
</g>
<!-- id -->
<g id="node3" class="node">
<title>id</title>
<ellipse fill="none" stroke="blue" cx="195.54" cy="-18" rx="38.19" ry="18"/>
<text text-anchor="middle" x="195.54" y="-14.3" font-family="Times,serif" font-size="14.00">string</text>
</g>
<!-- ontology class&#45;&gt;id -->
<g id="edge2" class="edge">
<title>ontology class&#45;&gt;id</title>
<path fill="none" stroke="blue" d="M522.4,-94.64C453.2,-83.65 339.29,-63.37 243.54,-36 240.44,-35.11 237.25,-34.13 234.05,-33.11"/>
<polygon fill="blue" stroke="blue" points="235.14,-29.78 224.55,-29.92 232.92,-36.42 235.14,-29.78"/>
<text text-anchor="middle" x="381.54" y="-57.8" font-family="Times,serif" font-size="14.00">id</text>
</g>
<!-- iri -->
<g id="node4" class="node">
<title>iri</title>
<ellipse fill="none" stroke="blue" cx="296.54" cy="-18" rx="44.39" ry="18"/>
<text text-anchor="middle" x="296.54" y="-14.3" font-family="Times,serif" font-size="14.00">iri type</text>
</g>
<!-- ontology class&#45;&gt;iri -->
<g id="edge3" class="edge">
<title>ontology class&#45;&gt;iri</title>
<path fill="none" stroke="blue" d="M537.7,-90.83C514.4,-84.35 485.98,-76.37 460.54,-69 411.52,-54.78 399.33,-51 350.54,-36 347.05,-34.93 343.43,-33.81 339.8,-32.67"/>
<polygon fill="blue" stroke="blue" points="340.81,-29.32 330.22,-29.68 338.72,-36.01 340.81,-29.32"/>
<text text-anchor="middle" x="468.54" y="-57.8" font-family="Times,serif" font-size="14.00">iri</text>
</g>
<!-- type -->
<g id="node5" class="node">
<title>type</title>
<ellipse fill="none" stroke="blue" cx="397.54" cy="-18" rx="38.19" ry="18"/>
<text text-anchor="middle" x="397.54" y="-14.3" font-family="Times,serif" font-size="14.00">string</text>
</g>
<!-- ontology class&#45;&gt;type -->
<g id="edge4" class="edge">
<title>ontology class&#45;&gt;type</title>
<path fill="none" stroke="blue" d="M551.93,-88.8C518.53,-73.7 467.48,-50.62 433.34,-35.18"/>
<polygon fill="blue" stroke="blue" points="434.74,-31.98 424.18,-31.04 431.85,-38.35 434.74,-31.98"/>
<text text-anchor="middle" x="519.54" y="-57.8" font-family="Times,serif" font-size="14.00">type</text>
</g>
<!-- name -->
<g id="node6" class="node">
<title>name</title>
<ellipse fill="none" stroke="blue" cx="510.54" cy="-18" rx="56.59" ry="18"/>
<text text-anchor="middle" x="510.54" y="-14.3" font-family="Times,serif" font-size="14.00">label type</text>
</g>
<!-- ontology class&#45;&gt;name -->
<g id="edge5" class="edge">
<title>ontology class&#45;&gt;name</title>
<path fill="none" stroke="blue" d="M570.73,-87.21C559.66,-74.67 544.38,-57.35 531.99,-43.3"/>
<polygon fill="blue" stroke="blue" points="534.32,-40.65 525.08,-35.47 529.07,-45.28 534.32,-40.65"/>
<text text-anchor="middle" x="572.54" y="-57.8" font-family="Times,serif" font-size="14.00">name</text>
</g>
<!-- description -->
<g id="node7" class="node">
<title>description</title>
<ellipse fill="none" stroke="blue" cx="660.54" cy="-18" rx="75.29" ry="18"/>
<text text-anchor="middle" x="660.54" y="-14.3" font-family="Times,serif" font-size="14.00">narrative text</text>
</g>
<!-- ontology class&#45;&gt;description -->
<g id="edge6" class="edge">
<title>ontology class&#45;&gt;description</title>
<path fill="none" stroke="blue" d="M600.36,-87.21C611.35,-74.75 626.51,-57.57 638.86,-43.57"/>
<polygon fill="blue" stroke="blue" points="641.77,-45.57 645.76,-35.76 636.52,-40.94 641.77,-45.57"/>
<text text-anchor="middle" x="668.04" y="-57.8" font-family="Times,serif" font-size="14.00">description</text>
</g>
<!-- source -->
<g id="node8" class="node">
<title>source</title>
<ellipse fill="none" stroke="blue" cx="810.54" cy="-18" rx="56.59" ry="18"/>
<text text-anchor="middle" x="810.54" y="-14.3" font-family="Times,serif" font-size="14.00">label type</text>
</g>
<!-- ontology class&#45;&gt;source -->
<g id="edge7" class="edge">
<title>ontology class&#45;&gt;source</title>
<path fill="none" stroke="blue" d="M638.53,-91.96C661.62,-86.06 688.77,-78.23 712.54,-69 734.17,-60.6 757.34,-48.92 775.72,-38.95"/>
<polygon fill="blue" stroke="blue" points="777.52,-41.96 784.59,-34.07 774.14,-35.83 777.52,-41.96"/>
<text text-anchor="middle" x="770.54" y="-57.8" font-family="Times,serif" font-size="14.00">source</text>
</g>
<!-- provided by -->
<g id="node9" class="node">
<title>provided by</title>
<ellipse fill="none" stroke="blue" cx="922.54" cy="-18" rx="37.09" ry="18"/>
<text text-anchor="middle" x="922.54" y="-14.3" font-family="Times,serif" font-size="14.00">agent</text>
</g>
<!-- ontology class&#45;&gt;provided by -->
<g id="edge8" class="edge">
<title>ontology class&#45;&gt;provided by</title>
<path fill="none" stroke="blue" d="M640.78,-92.47C650.67,-90.54 660.9,-88.64 670.54,-87 727.18,-77.36 743.05,-83.85 798.54,-69 829.62,-60.68 863.4,-46.72 887.84,-35.65"/>
<polygon fill="blue" stroke="blue" points="889.42,-38.78 897.05,-31.42 886.5,-32.42 889.42,-38.78"/>
<text text-anchor="middle" x="887.04" y="-57.8" font-family="Times,serif" font-size="14.00">provided by</text>
</g>
<!-- has attribute -->
<g id="node10" class="node">
<title>has attribute</title>
<ellipse fill="none" stroke="blue" cx="1029.54" cy="-18" rx="51.99" ry="18"/>
<text text-anchor="middle" x="1029.54" y="-14.3" font-family="Times,serif" font-size="14.00">attribute</text>
</g>
<!-- ontology class&#45;&gt;has attribute -->
<g id="edge9" class="edge">
<title>ontology class&#45;&gt;has attribute</title>
<path fill="none" stroke="blue" d="M639.33,-92.15C649.65,-90.19 660.4,-88.36 670.54,-87 786.67,-71.48 820.76,-100.73 933.54,-69 956.19,-62.63 979.64,-50.53 997.7,-39.84"/>
<polygon fill="blue" stroke="blue" points="999.89,-42.6 1006.62,-34.41 996.25,-36.62 999.89,-42.6"/>
<text text-anchor="middle" x="1016.54" y="-57.8" font-family="Times,serif" font-size="14.00">has attribute</text>
</g>
<!-- category -->
<g id="node11" class="node">
<title>category</title>
<ellipse fill="none" stroke="black" cx="1150.54" cy="-18" rx="51.19" ry="18"/>
<text text-anchor="middle" x="1150.54" y="-14.3" font-family="Times,serif" font-size="14.00">category</text>
</g>
<!-- ontology class&#45;&gt;category -->
<g id="edge10" class="edge">
<title>ontology class&#45;&gt;category</title>
<path fill="none" stroke="blue" d="M638.85,-92.05C649.31,-90.07 660.24,-88.26 670.54,-87 758.21,-76.31 983.01,-94.57 1067.54,-69 1087.2,-63.06 1106.97,-51.41 1122.29,-40.86"/>
<polygon fill="blue" stroke="blue" points="1124.65,-43.48 1130.76,-34.82 1120.59,-37.78 1124.65,-43.48"/>
<text text-anchor="middle" x="1132.04" y="-57.8" font-family="Times,serif" font-size="14.00">category</text>
</g>
<!-- named thing_category -->
<g id="node12" class="node">
<title>named thing_category</title>
<ellipse fill="none" stroke="blue" cx="749.54" cy="-105" rx="69.59" ry="18"/>
<text text-anchor="middle" x="749.54" y="-101.3" font-family="Times,serif" font-size="14.00">named thing</text>
</g>
</g>
</svg>
