<?xml version="1.0" encoding="UTF-8" standalone="no"?>
<!DOCTYPE svg PUBLIC "-//W3C//DTD SVG 1.1//EN"
 "http://www.w3.org/Graphics/SVG/1.1/DTD/svg11.dtd">
<!-- Generated by graphviz version 2.43.0 (0)
 -->
<!-- Title: %3 Pages: 1 -->
<svg width="1810pt" height="131pt"
 viewBox="0.00 0.00 1810.03 131.00" xmlns="http://www.w3.org/2000/svg" xmlns:xlink="http://www.w3.org/1999/xlink">
<g id="graph0" class="graph" transform="scale(1 1) rotate(0) translate(4 127)">
<title>%3</title>
<polygon fill="white" stroke="transparent" points="-4,4 -4,-127 1806.03,-127 1806.03,4 -4,4"/>
<!-- operational entity -->
<g id="node1" class="node">
<title>operational entity</title>
<ellipse fill="none" stroke="black" cx="947.24" cy="-105" rx="93.68" ry="18"/>
<text text-anchor="middle" x="947.24" y="-101.3" font-family="Times,serif" font-size="14.00">operational entity</text>
</g>
<!-- computational entity -->
<g id="node2" class="node">
<title>computational entity</title>
<ellipse fill="none" stroke="black" cx="107.24" cy="-18" rx="107.48" ry="18"/>
<text text-anchor="middle" x="107.24" y="-14.3" font-family="Times,serif" font-size="14.00">computational entity</text>
</g>
<!-- operational entity&#45;&gt;computational entity -->
<g id="edge1" class="edge">
<title>operational entity&#45;&gt;computational entity</title>
<path fill="none" stroke="black" d="M859.33,-98.8C765.36,-92.92 612.09,-82.4 480.24,-69 365.67,-57.36 337.33,-51.68 223.24,-36 213.96,-34.72 204.27,-33.36 194.62,-31.98"/>
<polygon fill="black" stroke="black" points="194.98,-28.49 184.59,-30.53 193.98,-35.42 194.98,-28.49"/>
<text text-anchor="middle" x="494.24" y="-57.8" font-family="Times,serif" font-size="14.00">is_a</text>
</g>
<!-- thing with taxon -->
<g id="node3" class="node">
<title>thing with taxon</title>
<ellipse fill="none" stroke="black" cx="319.24" cy="-18" rx="87.18" ry="18"/>
<text text-anchor="middle" x="319.24" y="-14.3" font-family="Times,serif" font-size="14.00">thing with taxon</text>
</g>
<!-- operational entity&#45;&gt;thing with taxon -->
<g id="edge2" class="edge">
<title>operational entity&#45;&gt;thing with taxon</title>
<path fill="none" stroke="black" d="M862.92,-97.14C793.15,-91.04 691.54,-81.23 603.24,-69 519.21,-57.37 498.78,-50.73 415.24,-36 408,-34.72 400.45,-33.39 392.9,-32.06"/>
<polygon fill="black" stroke="black" points="393.47,-28.6 383.01,-30.31 392.25,-35.49 393.47,-28.6"/>
<text text-anchor="middle" x="619.74" y="-57.8" font-family="Times,serif" font-size="14.00">uses</text>
</g>
<!-- cyber essence -->
<g id="node4" class="node">
<title>cyber essence</title>
<ellipse fill="none" stroke="black" cx="500.24" cy="-18" rx="76.09" ry="18"/>
<text text-anchor="middle" x="500.24" y="-14.3" font-family="Times,serif" font-size="14.00">cyber essence</text>
</g>
<!-- operational entity&#45;&gt;cyber essence -->
<g id="edge3" class="edge">
<title>operational entity&#45;&gt;cyber essence</title>
<path fill="none" stroke="black" d="M870.85,-94.52C824.02,-88.28 762.96,-79.35 709.24,-69 658.03,-59.13 600.43,-45.13 558.68,-34.45"/>
<polygon fill="black" stroke="black" points="559.52,-31.05 548.96,-31.95 557.77,-37.83 559.52,-31.05"/>
<text text-anchor="middle" x="725.74" y="-57.8" font-family="Times,serif" font-size="14.00">uses</text>
</g>
<!-- id -->
<g id="node5" class="node">
<title>id</title>
<ellipse fill="none" stroke="blue" cx="632.24" cy="-18" rx="38.19" ry="18"/>
<text text-anchor="middle" x="632.24" y="-14.3" font-family="Times,serif" font-size="14.00">string</text>
</g>
<!-- operational entity&#45;&gt;id -->
<g id="edge4" class="edge">
<title>operational entity&#45;&gt;id</title>
<path fill="none" stroke="blue" d="M889.27,-90.84C834.9,-78.13 751.53,-57.65 680.24,-36 677.15,-35.06 673.97,-34.05 670.78,-32.99"/>
<polygon fill="blue" stroke="blue" points="671.89,-29.67 661.29,-29.77 669.63,-36.3 671.89,-29.67"/>
<text text-anchor="middle" x="804.24" y="-57.8" font-family="Times,serif" font-size="14.00">id</text>
</g>
<!-- iri -->
<g id="node6" class="node">
<title>iri</title>
<ellipse fill="none" stroke="blue" cx="733.24" cy="-18" rx="44.39" ry="18"/>
<text text-anchor="middle" x="733.24" y="-14.3" font-family="Times,serif" font-size="14.00">iri type</text>
</g>
<!-- operational entity&#45;&gt;iri -->
<g id="edge5" class="edge">
<title>operational entity&#45;&gt;iri</title>
<path fill="none" stroke="blue" d="M908.49,-88.61C870.18,-73.39 811.84,-50.22 773.14,-34.85"/>
<polygon fill="blue" stroke="blue" points="774.33,-31.56 763.75,-31.12 771.75,-38.06 774.33,-31.56"/>
<text text-anchor="middle" x="861.24" y="-57.8" font-family="Times,serif" font-size="14.00">iri</text>
</g>
<!-- type -->
<g id="node7" class="node">
<title>type</title>
<ellipse fill="none" stroke="blue" cx="834.24" cy="-18" rx="38.19" ry="18"/>
<text text-anchor="middle" x="834.24" y="-14.3" font-family="Times,serif" font-size="14.00">string</text>
</g>
<!-- operational entity&#45;&gt;type -->
<g id="edge6" class="edge">
<title>operational entity&#45;&gt;type</title>
<path fill="none" stroke="blue" d="M925.18,-87.41C907.06,-73.77 881.28,-54.38 861.8,-39.73"/>
<polygon fill="blue" stroke="blue" points="863.7,-36.78 853.6,-33.57 859.49,-42.37 863.7,-36.78"/>
<text text-anchor="middle" x="914.24" y="-57.8" font-family="Times,serif" font-size="14.00">type</text>
</g>
<!-- name -->
<g id="node8" class="node">
<title>name</title>
<ellipse fill="none" stroke="blue" cx="947.24" cy="-18" rx="56.59" ry="18"/>
<text text-anchor="middle" x="947.24" y="-14.3" font-family="Times,serif" font-size="14.00">label type</text>
</g>
<!-- operational entity&#45;&gt;name -->
<g id="edge7" class="edge">
<title>operational entity&#45;&gt;name</title>
<path fill="none" stroke="blue" d="M947.24,-86.8C947.24,-75.16 947.24,-59.55 947.24,-46.24"/>
<polygon fill="blue" stroke="blue" points="950.74,-46.18 947.24,-36.18 943.74,-46.18 950.74,-46.18"/>
<text text-anchor="middle" x="967.24" y="-57.8" font-family="Times,serif" font-size="14.00">name</text>
</g>
<!-- description -->
<g id="node9" class="node">
<title>description</title>
<ellipse fill="none" stroke="blue" cx="1097.24" cy="-18" rx="75.29" ry="18"/>
<text text-anchor="middle" x="1097.24" y="-14.3" font-family="Times,serif" font-size="14.00">narrative text</text>
</g>
<!-- operational entity&#45;&gt;description -->
<g id="edge8" class="edge">
<title>operational entity&#45;&gt;description</title>
<path fill="none" stroke="blue" d="M975.81,-87.81C999.84,-74.2 1034.35,-54.64 1060.44,-39.85"/>
<polygon fill="blue" stroke="blue" points="1062.31,-42.82 1069.29,-34.84 1058.86,-36.73 1062.31,-42.82"/>
<text text-anchor="middle" x="1071.74" y="-57.8" font-family="Times,serif" font-size="14.00">description</text>
</g>
<!-- source -->
<g id="node10" class="node">
<title>source</title>
<ellipse fill="none" stroke="blue" cx="1247.24" cy="-18" rx="56.59" ry="18"/>
<text text-anchor="middle" x="1247.24" y="-14.3" font-family="Times,serif" font-size="14.00">label type</text>
</g>
<!-- operational entity&#45;&gt;source -->
<g id="edge9" class="edge">
<title>operational entity&#45;&gt;source</title>
<path fill="none" stroke="blue" d="M1015.29,-92.49C1046.36,-86.57 1083.46,-78.58 1116.24,-69 1146.8,-60.07 1180.33,-47.21 1205.81,-36.77"/>
<polygon fill="blue" stroke="blue" points="1207.26,-39.96 1215.16,-32.9 1204.59,-33.49 1207.26,-39.96"/>
<text text-anchor="middle" x="1184.24" y="-57.8" font-family="Times,serif" font-size="14.00">source</text>
</g>
<!-- provided by -->
<g id="node11" class="node">
<title>provided by</title>
<ellipse fill="none" stroke="blue" cx="1359.24" cy="-18" rx="37.09" ry="18"/>
<text text-anchor="middle" x="1359.24" y="-14.3" font-family="Times,serif" font-size="14.00">agent</text>
</g>
<!-- operational entity&#45;&gt;provided by -->
<g id="edge10" class="edge">
<title>operational entity&#45;&gt;provided by</title>
<path fill="none" stroke="blue" d="M1014.1,-92.32C1025.79,-90.43 1037.86,-88.58 1049.24,-87 1121.44,-77.01 1141,-84.4 1212.24,-69 1258.4,-59.02 1268.64,-51.52 1313.24,-36 1315.79,-35.11 1318.42,-34.18 1321.06,-33.24"/>
<polygon fill="blue" stroke="blue" points="1322.38,-36.48 1330.59,-29.78 1320,-29.9 1322.38,-36.48"/>
<text text-anchor="middle" x="1306.74" y="-57.8" font-family="Times,serif" font-size="14.00">provided by</text>
</g>
<!-- has attribute -->
<g id="node12" class="node">
<title>has attribute</title>
<ellipse fill="none" stroke="blue" cx="1466.24" cy="-18" rx="51.99" ry="18"/>
<text text-anchor="middle" x="1466.24" y="-14.3" font-family="Times,serif" font-size="14.00">attribute</text>
</g>
<!-- operational entity&#45;&gt;has attribute -->
<g id="edge11" class="edge">
<title>operational entity&#45;&gt;has attribute</title>
<path fill="none" stroke="blue" d="M1012.67,-92.04C1024.79,-90.13 1037.38,-88.34 1049.24,-87 1183.74,-71.85 1221.7,-100.89 1353.24,-69 1380.48,-62.4 1409.35,-49.51 1431.09,-38.47"/>
<polygon fill="blue" stroke="blue" points="1432.99,-41.43 1440.25,-33.72 1429.76,-35.22 1432.99,-41.43"/>
<text text-anchor="middle" x="1442.24" y="-57.8" font-family="Times,serif" font-size="14.00">has attribute</text>
</g>
<!-- category -->
<g id="node13" class="node">
<title>category</title>
<ellipse fill="none" stroke="black" cx="1587.24" cy="-18" rx="51.19" ry="18"/>
<text text-anchor="middle" x="1587.24" y="-14.3" font-family="Times,serif" font-size="14.00">category</text>
</g>
<!-- operational entity&#45;&gt;category -->
<g id="edge12" class="edge">
<title>operational entity&#45;&gt;category</title>
<path fill="none" stroke="blue" d="M1012.1,-91.95C1024.4,-90.01 1037.19,-88.24 1049.24,-87 1147.47,-76.86 1397.93,-94.83 1493.24,-69 1515.73,-62.91 1538.85,-50.69 1556.54,-39.86"/>
<polygon fill="blue" stroke="blue" points="1558.67,-42.66 1565.26,-34.37 1554.94,-36.74 1558.67,-42.66"/>
<text text-anchor="middle" x="1562.74" y="-57.8" font-family="Times,serif" font-size="14.00">category</text>
</g>
<!-- in taxon -->
<g id="node15" class="node">
<title>in taxon</title>
<ellipse fill="none" stroke="blue" cx="1729.24" cy="-18" rx="72.59" ry="18"/>
<text text-anchor="middle" x="1729.24" y="-14.3" font-family="Times,serif" font-size="14.00">system taxon</text>
</g>
<!-- operational entity&#45;&gt;in taxon -->
<g id="edge13" class="edge">
<title>operational entity&#45;&gt;in taxon</title>
<path fill="none" stroke="blue" d="M1011.82,-91.91C1024.2,-89.97 1037.09,-88.21 1049.24,-87 1170.71,-74.94 1478.58,-93.09 1598.24,-69 1629.66,-62.67 1663.42,-49.63 1688.8,-38.45"/>
<polygon fill="blue" stroke="blue" points="1690.4,-41.56 1698.09,-34.27 1687.53,-35.18 1690.4,-41.56"/>
<text text-anchor="middle" x="1678.24" y="-57.8" font-family="Times,serif" font-size="14.00">in taxon</text>
</g>
<!-- named thing_category -->
<g id="node14" class="node">
<title>named thing_category</title>
<ellipse fill="none" stroke="blue" cx="1128.24" cy="-105" rx="69.59" ry="18"/>
<text text-anchor="middle" x="1128.24" y="-101.3" font-family="Times,serif" font-size="14.00">named thing</text>
</g>
</g>
</svg>
