<?xml version="1.0" encoding="UTF-8" standalone="no"?>
<!DOCTYPE svg PUBLIC "-//W3C//DTD SVG 1.1//EN"
 "http://www.w3.org/Graphics/SVG/1.1/DTD/svg11.dtd">
<!-- Generated by graphviz version 2.43.0 (0)
 -->
<!-- Title: %3 Pages: 1 -->
<svg width="1984pt" height="131pt"
 viewBox="0.00 0.00 1983.87 131.00" xmlns="http://www.w3.org/2000/svg" xmlns:xlink="http://www.w3.org/1999/xlink">
<g id="graph0" class="graph" transform="scale(1 1) rotate(0) translate(4 127)">
<title>%3</title>
<polygon fill="white" stroke="transparent" points="-4,4 -4,-127 1979.87,-127 1979.87,4 -4,4"/>
<!-- operational activity -->
<g id="node1" class="node">
<title>operational activity</title>
<ellipse fill="none" stroke="black" cx="1057.74" cy="-105" rx="100.98" ry="18"/>
<text text-anchor="middle" x="1057.74" y="-101.3" font-family="Times,serif" font-size="14.00">operational activity</text>
</g>
<!-- computational process or activity -->
<g id="node2" class="node">
<title>computational process or activity</title>
<ellipse fill="none" stroke="black" cx="165.74" cy="-18" rx="165.97" ry="18"/>
<text text-anchor="middle" x="165.74" y="-14.3" font-family="Times,serif" font-size="14.00">computational process or activity</text>
</g>
<!-- operational activity&#45;&gt;computational process or activity -->
<g id="edge1" class="edge">
<title>operational activity&#45;&gt;computational process or activity</title>
<path fill="none" stroke="black" d="M960.45,-100.32C849.66,-95.56 663.31,-85.81 503.74,-69 421.25,-60.31 328.04,-46.2 260.42,-35.18"/>
<polygon fill="black" stroke="black" points="260.65,-31.67 250.22,-33.51 259.52,-38.58 260.65,-31.67"/>
<text text-anchor="middle" x="517.74" y="-57.8" font-family="Times,serif" font-size="14.00">is_a</text>
</g>
<!-- occurrent -->
<g id="node3" class="node">
<title>occurrent</title>
<ellipse fill="none" stroke="black" cx="405.74" cy="-18" rx="55.79" ry="18"/>
<text text-anchor="middle" x="405.74" y="-14.3" font-family="Times,serif" font-size="14.00">occurrent</text>
</g>
<!-- operational activity&#45;&gt;occurrent -->
<g id="edge2" class="edge">
<title>operational activity&#45;&gt;occurrent</title>
<path fill="none" stroke="black" d="M959.33,-100.84C867.81,-96.84 727.89,-88.02 607.74,-69 554.83,-60.62 495.44,-45.18 454.83,-33.66"/>
<polygon fill="black" stroke="black" points="455.76,-30.29 445.18,-30.9 453.83,-37.02 455.76,-30.29"/>
<text text-anchor="middle" x="624.24" y="-57.8" font-family="Times,serif" font-size="14.00">uses</text>
</g>
<!-- id -->
<g id="node4" class="node">
<title>id</title>
<ellipse fill="none" stroke="blue" cx="517.74" cy="-18" rx="38.19" ry="18"/>
<text text-anchor="middle" x="517.74" y="-14.3" font-family="Times,serif" font-size="14.00">string</text>
</g>
<!-- operational activity&#45;&gt;id -->
<g id="edge3" class="edge">
<title>operational activity&#45;&gt;id</title>
<path fill="none" stroke="blue" d="M963.74,-98.48C863.6,-90.87 701.17,-73.58 565.74,-36 562.63,-35.14 559.43,-34.17 556.23,-33.16"/>
<polygon fill="blue" stroke="blue" points="557.31,-29.83 546.72,-30 555.1,-36.47 557.31,-29.83"/>
<text text-anchor="middle" x="719.74" y="-57.8" font-family="Times,serif" font-size="14.00">id</text>
</g>
<!-- iri -->
<g id="node5" class="node">
<title>iri</title>
<ellipse fill="none" stroke="blue" cx="618.74" cy="-18" rx="44.39" ry="18"/>
<text text-anchor="middle" x="618.74" y="-14.3" font-family="Times,serif" font-size="14.00">iri type</text>
</g>
<!-- operational activity&#45;&gt;iri -->
<g id="edge4" class="edge">
<title>operational activity&#45;&gt;iri</title>
<path fill="none" stroke="blue" d="M978.02,-93.98C931.19,-87.7 870.93,-78.92 817.74,-69 752.76,-56.89 736.53,-53.27 672.74,-36 669.16,-35.03 665.46,-33.98 661.76,-32.89"/>
<polygon fill="blue" stroke="blue" points="662.61,-29.49 652.03,-29.95 660.58,-36.19 662.61,-29.49"/>
<text text-anchor="middle" x="825.74" y="-57.8" font-family="Times,serif" font-size="14.00">iri</text>
</g>
<!-- type -->
<g id="node6" class="node">
<title>type</title>
<ellipse fill="none" stroke="blue" cx="719.74" cy="-18" rx="38.19" ry="18"/>
<text text-anchor="middle" x="719.74" y="-14.3" font-family="Times,serif" font-size="14.00">string</text>
</g>
<!-- operational activity&#45;&gt;type -->
<g id="edge5" class="edge">
<title>operational activity&#45;&gt;type</title>
<path fill="none" stroke="blue" d="M992.04,-91.32C932.62,-79.23 842.99,-59.41 766.74,-36 763.97,-35.15 761.14,-34.24 758.29,-33.29"/>
<polygon fill="blue" stroke="blue" points="759.26,-29.92 748.67,-29.97 756.98,-36.54 759.26,-29.92"/>
<text text-anchor="middle" x="901.74" y="-57.8" font-family="Times,serif" font-size="14.00">type</text>
</g>
<!-- name -->
<g id="node7" class="node">
<title>name</title>
<ellipse fill="none" stroke="blue" cx="832.74" cy="-18" rx="56.59" ry="18"/>
<text text-anchor="middle" x="832.74" y="-14.3" font-family="Times,serif" font-size="14.00">label type</text>
</g>
<!-- operational activity&#45;&gt;name -->
<g id="edge6" class="edge">
<title>operational activity&#45;&gt;name</title>
<path fill="none" stroke="blue" d="M1016.73,-88.51C977.3,-73.61 917.87,-51.16 877.29,-35.83"/>
<polygon fill="blue" stroke="blue" points="878.51,-32.55 867.91,-32.29 876.03,-39.1 878.51,-32.55"/>
<text text-anchor="middle" x="978.74" y="-57.8" font-family="Times,serif" font-size="14.00">name</text>
</g>
<!-- description -->
<g id="node8" class="node">
<title>description</title>
<ellipse fill="none" stroke="blue" cx="982.74" cy="-18" rx="75.29" ry="18"/>
<text text-anchor="middle" x="982.74" y="-14.3" font-family="Times,serif" font-size="14.00">narrative text</text>
</g>
<!-- operational activity&#45;&gt;description -->
<g id="edge7" class="edge">
<title>operational activity&#45;&gt;description</title>
<path fill="none" stroke="blue" d="M1042.56,-86.8C1031.61,-74.39 1016.67,-57.46 1004.46,-43.62"/>
<polygon fill="blue" stroke="blue" points="1006.87,-41.07 997.63,-35.89 1001.63,-45.7 1006.87,-41.07"/>
<text text-anchor="middle" x="1065.24" y="-57.8" font-family="Times,serif" font-size="14.00">description</text>
</g>
<!-- source -->
<g id="node9" class="node">
<title>source</title>
<ellipse fill="none" stroke="blue" cx="1132.74" cy="-18" rx="56.59" ry="18"/>
<text text-anchor="middle" x="1132.74" y="-14.3" font-family="Times,serif" font-size="14.00">label type</text>
</g>
<!-- operational activity&#45;&gt;source -->
<g id="edge8" class="edge">
<title>operational activity&#45;&gt;source</title>
<path fill="none" stroke="blue" d="M1087.78,-87.81C1095.63,-82.56 1103.6,-76.21 1109.74,-69 1115.54,-62.17 1120.19,-53.63 1123.73,-45.55"/>
<polygon fill="blue" stroke="blue" points="1127.06,-46.65 1127.53,-36.07 1120.56,-44.05 1127.06,-46.65"/>
<text text-anchor="middle" x="1143.74" y="-57.8" font-family="Times,serif" font-size="14.00">source</text>
</g>
<!-- provided by -->
<g id="node10" class="node">
<title>provided by</title>
<ellipse fill="none" stroke="blue" cx="1244.74" cy="-18" rx="37.09" ry="18"/>
<text text-anchor="middle" x="1244.74" y="-14.3" font-family="Times,serif" font-size="14.00">agent</text>
</g>
<!-- operational activity&#45;&gt;provided by -->
<g id="edge9" class="edge">
<title>operational activity&#45;&gt;provided by</title>
<path fill="none" stroke="blue" d="M1114.98,-90.1C1133.54,-84.64 1153.93,-77.59 1171.74,-69 1188.08,-61.12 1204.88,-49.87 1218.24,-40.03"/>
<polygon fill="blue" stroke="blue" points="1220.6,-42.63 1226.49,-33.82 1216.39,-37.04 1220.6,-42.63"/>
<text text-anchor="middle" x="1240.24" y="-57.8" font-family="Times,serif" font-size="14.00">provided by</text>
</g>
<!-- has attribute -->
<g id="node11" class="node">
<title>has attribute</title>
<ellipse fill="none" stroke="blue" cx="1351.74" cy="-18" rx="51.99" ry="18"/>
<text text-anchor="middle" x="1351.74" y="-14.3" font-family="Times,serif" font-size="14.00">attribute</text>
</g>
<!-- operational activity&#45;&gt;has attribute -->
<g id="edge10" class="edge">
<title>operational activity&#45;&gt;has attribute</title>
<path fill="none" stroke="blue" d="M1130.72,-92.56C1142.75,-90.69 1155.09,-88.78 1166.74,-87 1220.05,-78.84 1237.11,-90.12 1286.74,-69 1301.85,-62.57 1316.54,-51.78 1328.13,-41.86"/>
<polygon fill="blue" stroke="blue" points="1330.47,-44.47 1335.61,-35.21 1325.81,-39.24 1330.47,-44.47"/>
<text text-anchor="middle" x="1359.74" y="-57.8" font-family="Times,serif" font-size="14.00">has attribute</text>
</g>
<!-- category -->
<g id="node12" class="node">
<title>category</title>
<ellipse fill="none" stroke="black" cx="1472.74" cy="-18" rx="51.19" ry="18"/>
<text text-anchor="middle" x="1472.74" y="-14.3" font-family="Times,serif" font-size="14.00">category</text>
</g>
<!-- operational activity&#45;&gt;category -->
<g id="edge11" class="edge">
<title>operational activity&#45;&gt;category</title>
<path fill="none" stroke="blue" d="M1128.28,-92.14C1141.05,-90.24 1154.27,-88.43 1166.74,-87 1220.75,-80.81 1360.17,-88.97 1410.74,-69 1425.43,-63.2 1439.36,-52.61 1450.28,-42.67"/>
<polygon fill="blue" stroke="blue" points="1452.85,-45.06 1457.67,-35.62 1448.01,-39.99 1452.85,-45.06"/>
<text text-anchor="middle" x="1467.24" y="-57.8" font-family="Times,serif" font-size="14.00">category</text>
</g>
<!-- has input -->
<g id="node14" class="node">
<title>has input</title>
<ellipse fill="none" stroke="black" cx="1595.74" cy="-18" rx="53.89" ry="18"/>
<text text-anchor="middle" x="1595.74" y="-14.3" font-family="Times,serif" font-size="14.00">has input</text>
</g>
<!-- operational activity&#45;&gt;has input -->
<g id="edge12" class="edge">
<title>operational activity&#45;&gt;has input</title>
<path fill="none" stroke="blue" d="M1127.67,-92.02C1140.63,-90.11 1154.07,-88.32 1166.74,-87 1241.1,-79.23 1430.74,-89.19 1502.74,-69 1524.83,-62.8 1547.55,-50.71 1565.01,-39.97"/>
<polygon fill="blue" stroke="blue" points="1567.05,-42.82 1573.62,-34.52 1563.3,-36.91 1567.05,-42.82"/>
<text text-anchor="middle" x="1571.24" y="-57.8" font-family="Times,serif" font-size="14.00">has input</text>
</g>
<!-- has output -->
<g id="node16" class="node">
<title>has output</title>
<ellipse fill="none" stroke="black" cx="1727.74" cy="-18" rx="60.39" ry="18"/>
<text text-anchor="middle" x="1727.74" y="-14.3" font-family="Times,serif" font-size="14.00">has output</text>
</g>
<!-- operational activity&#45;&gt;has output -->
<g id="edge13" class="edge">
<title>operational activity&#45;&gt;has output</title>
<path fill="none" stroke="blue" d="M1127.36,-91.93C1140.41,-90.01 1153.96,-88.25 1166.74,-87 1264.57,-77.41 1512.78,-90.38 1608.74,-69 1637.38,-62.62 1667.86,-49.68 1690.8,-38.57"/>
<polygon fill="blue" stroke="blue" points="1692.42,-41.67 1699.83,-34.1 1689.31,-35.4 1692.42,-41.67"/>
<text text-anchor="middle" x="1695.24" y="-57.8" font-family="Times,serif" font-size="14.00">has output</text>
</g>
<!-- enabled by -->
<g id="node18" class="node">
<title>enabled by</title>
<ellipse fill="none" stroke="black" cx="1867.74" cy="-18" rx="61.99" ry="18"/>
<text text-anchor="middle" x="1867.74" y="-14.3" font-family="Times,serif" font-size="14.00">enabled by</text>
</g>
<!-- operational activity&#45;&gt;enabled by -->
<g id="edge14" class="edge">
<title>operational activity&#45;&gt;enabled by</title>
<path fill="none" stroke="blue" d="M1127.06,-91.88C1140.2,-89.95 1153.86,-88.2 1166.74,-87 1293.14,-75.2 1613.3,-94.14 1737.74,-69 1769.37,-62.61 1803.35,-49.29 1828.63,-38.01"/>
<polygon fill="blue" stroke="blue" points="1830.22,-41.13 1837.87,-33.8 1827.32,-34.76 1830.22,-41.13"/>
<text text-anchor="middle" x="1828.24" y="-57.8" font-family="Times,serif" font-size="14.00">enabled by</text>
</g>
<!-- named thing_category -->
<g id="node13" class="node">
<title>named thing_category</title>
<ellipse fill="none" stroke="blue" cx="1245.74" cy="-105" rx="69.59" ry="18"/>
<text text-anchor="middle" x="1245.74" y="-101.3" font-family="Times,serif" font-size="14.00">named thing</text>
</g>
<!-- operational activity_has input -->
<g id="node15" class="node">
<title>operational activity_has input</title>
<ellipse fill="none" stroke="blue" cx="1403.74" cy="-105" rx="70.39" ry="18"/>
<text text-anchor="middle" x="1403.74" y="-101.3" font-family="Times,serif" font-size="14.00">control actor</text>
</g>
<!-- operational activity_has output -->
<g id="node17" class="node">
<title>operational activity_has output</title>
<ellipse fill="none" stroke="blue" cx="1561.74" cy="-105" rx="70.39" ry="18"/>
<text text-anchor="middle" x="1561.74" y="-101.3" font-family="Times,serif" font-size="14.00">control actor</text>
</g>
<!-- operational activity_enabled by -->
<g id="node19" class="node">
<title>operational activity_enabled by</title>
<ellipse fill="none" stroke="blue" cx="1812.74" cy="-105" rx="163.27" ry="18"/>
<text text-anchor="middle" x="1812.74" y="-101.3" font-family="Times,serif" font-size="14.00">macrooperational machine mixin</text>
</g>
</g>
</svg>
