<?xml version="1.0" encoding="UTF-8" standalone="no"?>
<!DOCTYPE svg PUBLIC "-//W3C//DTD SVG 1.1//EN"
 "http://www.w3.org/Graphics/SVG/1.1/DTD/svg11.dtd">
<!-- Generated by graphviz version 2.43.0 (0)
 -->
<!-- Title: %3 Pages: 1 -->
<svg width="2996pt" height="291pt"
 viewBox="0.00 0.00 2996.39 291.00" xmlns="http://www.w3.org/2000/svg" xmlns:xlink="http://www.w3.org/1999/xlink">
<g id="graph0" class="graph" transform="scale(1 1) rotate(0) translate(4 287)">
<title>%3</title>
<polygon fill="white" stroke="transparent" points="-4,4 -4,-287 2992.39,-287 2992.39,4 -4,4"/>
<!-- orchestration to error or observable feature association -->
<g id="node1" class="node">
<title>orchestration to error or observable feature association</title>
<ellipse fill="none" stroke="black" cx="1865.39" cy="-265" rx="269.95" ry="18"/>
<text text-anchor="middle" x="1865.39" y="-261.3" font-family="Times,serif" font-size="14.00">orchestration to error or observable feature association</text>
</g>
<!-- association -->
<g id="node2" class="node">
<title>association</title>
<ellipse fill="none" stroke="black" cx="62.39" cy="-178" rx="62.29" ry="18"/>
<text text-anchor="middle" x="62.39" y="-174.3" font-family="Times,serif" font-size="14.00">association</text>
</g>
<!-- orchestration to error or observable feature association&#45;&gt;association -->
<g id="edge1" class="edge">
<title>orchestration to error or observable feature association&#45;&gt;association</title>
<path fill="none" stroke="black" d="M1619.9,-257.54C1397.95,-251.37 1062.22,-241.22 770.39,-229 487.15,-217.14 413.98,-236.51 133.39,-196 127.91,-195.21 122.22,-194.19 116.56,-193.05"/>
<polygon fill="black" stroke="black" points="116.98,-189.56 106.47,-190.87 115.51,-196.4 116.98,-189.56"/>
<text text-anchor="middle" x="784.39" y="-217.8" font-family="Times,serif" font-size="14.00">is_a</text>
</g>
<!-- orchestration to entity association mixin -->
<g id="node3" class="node">
<title>orchestration to entity association mixin</title>
<ellipse fill="none" stroke="black" cx="341.39" cy="-178" rx="198.76" ry="18"/>
<text text-anchor="middle" x="341.39" y="-174.3" font-family="Times,serif" font-size="14.00">orchestration to entity association mixin</text>
</g>
<!-- orchestration to error or observable feature association&#45;&gt;orchestration to entity association mixin -->
<g id="edge2" class="edge">
<title>orchestration to error or observable feature association&#45;&gt;orchestration to entity association mixin</title>
<path fill="none" stroke="black" d="M1636.36,-255.47C1473.88,-249.08 1250.7,-239.65 1054.39,-229 829.8,-216.82 773.71,-212.49 549.39,-196 530.78,-194.63 511.23,-193.12 491.88,-191.59"/>
<polygon fill="black" stroke="black" points="492.03,-188.09 481.79,-190.79 491.48,-195.07 492.03,-188.09"/>
<text text-anchor="middle" x="1070.89" y="-217.8" font-family="Times,serif" font-size="14.00">uses</text>
</g>
<!-- entity to error or observable feature association mixin -->
<g id="node4" class="node">
<title>entity to error or observable feature association mixin</title>
<ellipse fill="none" stroke="black" cx="821.39" cy="-178" rx="263.45" ry="18"/>
<text text-anchor="middle" x="821.39" y="-174.3" font-family="Times,serif" font-size="14.00">entity to error or observable feature association mixin</text>
</g>
<!-- orchestration to error or observable feature association&#45;&gt;entity to error or observable feature association mixin -->
<g id="edge3" class="edge">
<title>orchestration to error or observable feature association&#45;&gt;entity to error or observable feature association mixin</title>
<path fill="none" stroke="black" d="M1637.43,-255.37C1514.87,-249.77 1361.21,-241.21 1224.39,-229 1128.26,-220.42 1019.7,-206.72 939.5,-195.83"/>
<polygon fill="black" stroke="black" points="939.75,-192.33 929.37,-194.45 938.8,-199.27 939.75,-192.33"/>
<text text-anchor="middle" x="1240.89" y="-217.8" font-family="Times,serif" font-size="14.00">uses</text>
</g>
<!-- id -->
<g id="node5" class="node">
<title>id</title>
<ellipse fill="none" stroke="blue" cx="1141.39" cy="-178" rx="38.19" ry="18"/>
<text text-anchor="middle" x="1141.39" y="-174.3" font-family="Times,serif" font-size="14.00">string</text>
</g>
<!-- orchestration to error or observable feature association&#45;&gt;id -->
<g id="edge4" class="edge">
<title>orchestration to error or observable feature association&#45;&gt;id</title>
<path fill="none" stroke="blue" d="M1639.11,-255.2C1549,-249.98 1444.52,-241.79 1350.39,-229 1278.02,-219.17 1259.77,-215.57 1189.39,-196 1186.29,-195.14 1183.09,-194.17 1179.89,-193.15"/>
<polygon fill="blue" stroke="blue" points="1180.97,-189.83 1170.38,-189.99 1178.76,-196.47 1180.97,-189.83"/>
<text text-anchor="middle" x="1357.39" y="-217.8" font-family="Times,serif" font-size="14.00">id</text>
</g>
<!-- iri -->
<g id="node6" class="node">
<title>iri</title>
<ellipse fill="none" stroke="blue" cx="1242.39" cy="-178" rx="44.39" ry="18"/>
<text text-anchor="middle" x="1242.39" y="-174.3" font-family="Times,serif" font-size="14.00">iri type</text>
</g>
<!-- orchestration to error or observable feature association&#45;&gt;iri -->
<g id="edge5" class="edge">
<title>orchestration to error or observable feature association&#45;&gt;iri</title>
<path fill="none" stroke="blue" d="M1670.53,-252.53C1601.14,-247.13 1522.58,-239.5 1451.39,-229 1381.28,-218.66 1363.89,-214.18 1295.39,-196 1292.02,-195.11 1288.55,-194.12 1285.07,-193.1"/>
<polygon fill="blue" stroke="blue" points="1285.91,-189.7 1275.32,-190.13 1283.87,-196.39 1285.91,-189.7"/>
<text text-anchor="middle" x="1459.39" y="-217.8" font-family="Times,serif" font-size="14.00">iri</text>
</g>
<!-- name -->
<g id="node7" class="node">
<title>name</title>
<ellipse fill="none" stroke="blue" cx="1361.39" cy="-178" rx="56.59" ry="18"/>
<text text-anchor="middle" x="1361.39" y="-174.3" font-family="Times,serif" font-size="14.00">label type</text>
</g>
<!-- orchestration to error or observable feature association&#45;&gt;name -->
<g id="edge6" class="edge">
<title>orchestration to error or observable feature association&#45;&gt;name</title>
<path fill="none" stroke="blue" d="M1688.66,-251.39C1637.93,-246.16 1582.73,-238.92 1532.39,-229 1489.44,-220.54 1441.72,-206.15 1407.63,-194.97"/>
<polygon fill="blue" stroke="blue" points="1408.54,-191.59 1397.95,-191.77 1406.34,-198.23 1408.54,-191.59"/>
<text text-anchor="middle" x="1552.39" y="-217.8" font-family="Times,serif" font-size="14.00">name</text>
</g>
<!-- description -->
<g id="node8" class="node">
<title>description</title>
<ellipse fill="none" stroke="blue" cx="1511.39" cy="-178" rx="75.29" ry="18"/>
<text text-anchor="middle" x="1511.39" y="-174.3" font-family="Times,serif" font-size="14.00">narrative text</text>
</g>
<!-- orchestration to error or observable feature association&#45;&gt;description -->
<g id="edge7" class="edge">
<title>orchestration to error or observable feature association&#45;&gt;description</title>
<path fill="none" stroke="blue" d="M1709.78,-250.27C1677.51,-245.24 1644.02,-238.37 1613.39,-229 1590.38,-221.96 1566.13,-210.27 1547.05,-199.96"/>
<polygon fill="blue" stroke="blue" points="1548.58,-196.81 1538.13,-195.04 1545.19,-202.94 1548.58,-196.81"/>
<text text-anchor="middle" x="1653.89" y="-217.8" font-family="Times,serif" font-size="14.00">description</text>
</g>
<!-- source -->
<g id="node9" class="node">
<title>source</title>
<ellipse fill="none" stroke="blue" cx="1661.39" cy="-178" rx="56.59" ry="18"/>
<text text-anchor="middle" x="1661.39" y="-174.3" font-family="Times,serif" font-size="14.00">label type</text>
</g>
<!-- orchestration to error or observable feature association&#45;&gt;source -->
<g id="edge8" class="edge">
<title>orchestration to error or observable feature association&#45;&gt;source</title>
<path fill="none" stroke="blue" d="M1769.96,-248.06C1752.61,-243.25 1735.05,-237.02 1719.39,-229 1706.38,-222.33 1693.85,-212.17 1683.78,-202.74"/>
<polygon fill="blue" stroke="blue" points="1686.2,-200.21 1676.59,-195.75 1681.32,-205.23 1686.2,-200.21"/>
<text text-anchor="middle" x="1743.39" y="-217.8" font-family="Times,serif" font-size="14.00">source</text>
</g>
<!-- provided by -->
<g id="node10" class="node">
<title>provided by</title>
<ellipse fill="none" stroke="blue" cx="1773.39" cy="-178" rx="37.09" ry="18"/>
<text text-anchor="middle" x="1773.39" y="-174.3" font-family="Times,serif" font-size="14.00">agent</text>
</g>
<!-- orchestration to error or observable feature association&#45;&gt;provided by -->
<g id="edge9" class="edge">
<title>orchestration to error or observable feature association&#45;&gt;provided by</title>
<path fill="none" stroke="blue" d="M1798.18,-247.56C1789.72,-242.85 1782.05,-236.79 1776.39,-229 1771.71,-222.54 1769.99,-214.29 1769.73,-206.35"/>
<polygon fill="blue" stroke="blue" points="1773.23,-206.41 1770.08,-196.29 1766.23,-206.16 1773.23,-206.41"/>
<text text-anchor="middle" x="1818.89" y="-217.8" font-family="Times,serif" font-size="14.00">provided by</text>
</g>
<!-- has attribute -->
<g id="node11" class="node">
<title>has attribute</title>
<ellipse fill="none" stroke="blue" cx="1880.39" cy="-178" rx="51.99" ry="18"/>
<text text-anchor="middle" x="1880.39" y="-174.3" font-family="Times,serif" font-size="14.00">attribute</text>
</g>
<!-- orchestration to error or observable feature association&#45;&gt;has attribute -->
<g id="edge10" class="edge">
<title>orchestration to error or observable feature association&#45;&gt;has attribute</title>
<path fill="none" stroke="blue" d="M1864.22,-246.71C1863.94,-237 1864.22,-224.72 1866.39,-214 1866.95,-211.27 1867.71,-208.48 1868.58,-205.72"/>
<polygon fill="blue" stroke="blue" points="1871.97,-206.66 1872.14,-196.07 1865.4,-204.24 1871.97,-206.66"/>
<text text-anchor="middle" x="1913.39" y="-217.8" font-family="Times,serif" font-size="14.00">has attribute</text>
</g>
<!-- subject -->
<g id="node12" class="node">
<title>subject</title>
<ellipse fill="none" stroke="blue" cx="2232.39" cy="-178" rx="69.59" ry="18"/>
<text text-anchor="middle" x="2232.39" y="-174.3" font-family="Times,serif" font-size="14.00">named thing</text>
</g>
<!-- orchestration to error or observable feature association&#45;&gt;subject -->
<g id="edge11" class="edge">
<title>orchestration to error or observable feature association&#45;&gt;subject</title>
<path fill="none" stroke="blue" d="M1986.28,-248.88C2019.31,-243.69 2054.93,-237.09 2087.39,-229 2121.25,-220.56 2158.45,-207.66 2186.68,-197.08"/>
<polygon fill="blue" stroke="blue" points="2188.17,-200.26 2196.28,-193.44 2185.69,-193.71 2188.17,-200.26"/>
<text text-anchor="middle" x="2162.39" y="-217.8" font-family="Times,serif" font-size="14.00">subject</text>
</g>
<!-- predicate -->
<g id="node13" class="node">
<title>predicate</title>
<ellipse fill="none" stroke="blue" cx="2066.39" cy="-178" rx="77.99" ry="18"/>
<text text-anchor="middle" x="2066.39" y="-174.3" font-family="Times,serif" font-size="14.00">predicate type</text>
</g>
<!-- orchestration to error or observable feature association&#45;&gt;predicate -->
<g id="edge12" class="edge">
<title>orchestration to error or observable feature association&#45;&gt;predicate</title>
<path fill="none" stroke="blue" d="M1936.59,-247.56C1953.89,-242.53 1972.1,-236.35 1988.39,-229 2005.03,-221.5 2022.24,-210.83 2036.25,-201.27"/>
<polygon fill="blue" stroke="blue" points="2038.32,-204.09 2044.52,-195.5 2034.32,-198.34 2038.32,-204.09"/>
<text text-anchor="middle" x="2049.39" y="-217.8" font-family="Times,serif" font-size="14.00">predicate</text>
</g>
<!-- relation -->
<g id="node14" class="node">
<title>relation</title>
<ellipse fill="none" stroke="blue" cx="2207.39" cy="-18" rx="57.39" ry="18"/>
<text text-anchor="middle" x="2207.39" y="-14.3" font-family="Times,serif" font-size="14.00">uriorcurie</text>
</g>
<!-- orchestration to error or observable feature association&#45;&gt;relation -->
<g id="edge13" class="edge">
<title>orchestration to error or observable feature association&#45;&gt;relation</title>
<path fill="none" stroke="blue" d="M1934.64,-247.52C1944.25,-242.81 1953.26,-236.76 1960.39,-229 1981.92,-205.58 1960.33,-185.46 1979.39,-160 2026.15,-97.58 2109.38,-56.46 2161.31,-35.5"/>
<polygon fill="blue" stroke="blue" points="2162.61,-38.75 2170.62,-31.83 2160.04,-32.24 2162.61,-38.75"/>
<text text-anchor="middle" x="2037.39" y="-130.8" font-family="Times,serif" font-size="14.00">relation</text>
</g>
<!-- negated -->
<g id="node15" class="node">
<title>negated</title>
<ellipse fill="none" stroke="blue" cx="2366.39" cy="-178" rx="46.59" ry="18"/>
<text text-anchor="middle" x="2366.39" y="-174.3" font-family="Times,serif" font-size="14.00">boolean</text>
</g>
<!-- orchestration to error or observable feature association&#45;&gt;negated -->
<g id="edge14" class="edge">
<title>orchestration to error or observable feature association&#45;&gt;negated</title>
<path fill="none" stroke="blue" d="M2036.32,-251.04C2086.83,-245.78 2142.06,-238.61 2192.39,-229 2246.31,-218.71 2258.73,-211.44 2311.39,-196 2314.71,-195.03 2318.13,-194.01 2321.57,-192.97"/>
<polygon fill="blue" stroke="blue" points="2322.68,-196.29 2331.23,-190.04 2320.65,-189.6 2322.68,-196.29"/>
<text text-anchor="middle" x="2281.39" y="-217.8" font-family="Times,serif" font-size="14.00">negated</text>
</g>
<!-- qualifiers -->
<g id="node16" class="node">
<title>qualifiers</title>
<ellipse fill="none" stroke="blue" cx="2507.39" cy="-178" rx="76.89" ry="18"/>
<text text-anchor="middle" x="2507.39" y="-174.3" font-family="Times,serif" font-size="14.00">ontology class</text>
</g>
<!-- orchestration to error or observable feature association&#45;&gt;qualifiers -->
<g id="edge15" class="edge">
<title>orchestration to error or observable feature association&#45;&gt;qualifiers</title>
<path fill="none" stroke="blue" d="M2057.86,-252.35C2156.5,-245.71 2265.86,-237.11 2314.39,-229 2362.03,-221.04 2415.07,-206.9 2453.48,-195.69"/>
<polygon fill="blue" stroke="blue" points="2454.81,-198.94 2463.41,-192.76 2452.83,-192.23 2454.81,-198.94"/>
<text text-anchor="middle" x="2417.89" y="-217.8" font-family="Times,serif" font-size="14.00">qualifiers</text>
</g>
<!-- publications -->
<g id="node17" class="node">
<title>publications</title>
<ellipse fill="none" stroke="blue" cx="2664.39" cy="-178" rx="62.29" ry="18"/>
<text text-anchor="middle" x="2664.39" y="-174.3" font-family="Times,serif" font-size="14.00">publication</text>
</g>
<!-- orchestration to error or observable feature association&#45;&gt;publications -->
<g id="edge16" class="edge">
<title>orchestration to error or observable feature association&#45;&gt;publications</title>
<path fill="none" stroke="blue" d="M2056.37,-252.29C2085.84,-250.5 2115.93,-248.69 2144.39,-247 2282.6,-238.79 2318.42,-249.18 2455.39,-229 2509.73,-221 2570.68,-205.67 2612.67,-194.08"/>
<polygon fill="blue" stroke="blue" points="2613.7,-197.43 2622.39,-191.37 2611.82,-190.68 2613.7,-197.43"/>
<text text-anchor="middle" x="2575.39" y="-217.8" font-family="Times,serif" font-size="14.00">publications</text>
</g>
<!-- type -->
<g id="node18" class="node">
<title>type</title>
<ellipse fill="none" stroke="black" cx="2776.39" cy="-178" rx="31.4" ry="18"/>
<text text-anchor="middle" x="2776.39" y="-174.3" font-family="Times,serif" font-size="14.00">type</text>
</g>
<!-- orchestration to error or observable feature association&#45;&gt;type -->
<g id="edge17" class="edge">
<title>orchestration to error or observable feature association&#45;&gt;type</title>
<path fill="none" stroke="blue" d="M2052.21,-252.01C2083,-250.21 2114.59,-248.47 2144.39,-247 2250.79,-241.76 2518.27,-246.19 2623.39,-229 2665.7,-222.08 2712.24,-205.5 2742.75,-193.32"/>
<polygon fill="blue" stroke="blue" points="2744.12,-196.55 2752.07,-189.54 2741.49,-190.06 2744.12,-196.55"/>
<text text-anchor="middle" x="2700.39" y="-217.8" font-family="Times,serif" font-size="14.00">type</text>
</g>
<!-- category -->
<g id="node20" class="node">
<title>category</title>
<ellipse fill="none" stroke="black" cx="2877.39" cy="-178" rx="51.19" ry="18"/>
<text text-anchor="middle" x="2877.39" y="-174.3" font-family="Times,serif" font-size="14.00">category</text>
</g>
<!-- orchestration to error or observable feature association&#45;&gt;category -->
<g id="edge18" class="edge">
<title>orchestration to error or observable feature association&#45;&gt;category</title>
<path fill="none" stroke="blue" d="M2051.07,-251.92C2082.22,-250.11 2114.22,-248.39 2144.39,-247 2272.32,-241.11 2594.17,-250.64 2720.39,-229 2760.46,-222.13 2804.43,-207.48 2835.62,-195.8"/>
<polygon fill="blue" stroke="blue" points="2837.17,-198.96 2845.27,-192.13 2834.68,-192.41 2837.17,-198.96"/>
<text text-anchor="middle" x="2813.89" y="-217.8" font-family="Times,serif" font-size="14.00">category</text>
</g>
<!-- object -->
<g id="node22" class="node">
<title>object</title>
<ellipse fill="none" stroke="black" cx="2274.39" cy="-91" rx="38.99" ry="18"/>
<text text-anchor="middle" x="2274.39" y="-87.3" font-family="Times,serif" font-size="14.00">object</text>
</g>
<!-- orchestration to error or observable feature association&#45;&gt;object -->
<g id="edge19" class="edge">
<title>orchestration to error or observable feature association&#45;&gt;object</title>
<path fill="none" stroke="blue" d="M2049.94,-251.83C2081.44,-250.02 2113.85,-248.32 2144.39,-247 2300.97,-240.23 2695.56,-258.93 2849.39,-229 2890.4,-221.02 2913.6,-230.33 2937.39,-196 2946.51,-182.85 2948.12,-171.88 2937.39,-160 2896.37,-114.55 2469.92,-97.77 2323.46,-93.32"/>
<polygon fill="blue" stroke="blue" points="2323.51,-89.82 2313.41,-93.02 2323.3,-96.82 2323.51,-89.82"/>
<text text-anchor="middle" x="2966.39" y="-174.3" font-family="Times,serif" font-size="14.00">object</text>
</g>
<!-- subject&#45;&gt;relation -->
<g id="edge21" class="edge">
<title>subject&#45;&gt;relation</title>
<path fill="none" stroke="black" stroke-dasharray="1,5" d="M2229.67,-159.79C2225.35,-132.48 2216.89,-78.99 2211.73,-46.38"/>
<polygon fill="black" stroke="black" points="2215.13,-45.52 2210.11,-36.19 2208.22,-46.61 2215.13,-45.52"/>
</g>
<!-- subject&#45;&gt;object -->
<g id="edge20" class="edge">
<title>subject&#45;&gt;object</title>
<path fill="none" stroke="black" d="M2240.89,-159.8C2246.8,-147.85 2254.77,-131.72 2261.46,-118.18"/>
<polygon fill="black" stroke="black" points="2264.76,-119.4 2266.05,-108.89 2258.48,-116.3 2264.76,-119.4"/>
<text text-anchor="middle" x="2284.39" y="-130.8" font-family="Times,serif" font-size="14.00">relation</text>
</g>
<!-- association_type -->
<g id="node19" class="node">
<title>association_type</title>
<ellipse fill="none" stroke="blue" cx="2191.39" cy="-265" rx="38.19" ry="18"/>
<text text-anchor="middle" x="2191.39" y="-261.3" font-family="Times,serif" font-size="14.00">string</text>
</g>
<!-- association_category -->
<g id="node21" class="node">
<title>association_category</title>
<ellipse fill="none" stroke="blue" cx="2310.39" cy="-265" rx="62.29" ry="18"/>
<text text-anchor="middle" x="2310.39" y="-261.3" font-family="Times,serif" font-size="14.00">association</text>
</g>
<!-- object&#45;&gt;relation -->
<g id="edge22" class="edge">
<title>object&#45;&gt;relation</title>
<path fill="none" stroke="black" stroke-dasharray="1,5" d="M2259.52,-74.24C2250.92,-65.13 2239.92,-53.47 2230.24,-43.21"/>
<polygon fill="black" stroke="black" points="2232.56,-40.57 2223.16,-35.7 2227.47,-45.38 2232.56,-40.57"/>
</g>
<!-- orchestration to error or observable feature association_object -->
<g id="node23" class="node">
<title>orchestration to error or observable feature association_object</title>
<ellipse fill="none" stroke="blue" cx="2528.39" cy="-265" rx="137.58" ry="18"/>
<text text-anchor="middle" x="2528.39" y="-261.3" font-family="Times,serif" font-size="14.00">error or observable feature</text>
</g>
</g>
</svg>
