<?xml version="1.0" encoding="UTF-8" standalone="no"?>
<!DOCTYPE svg PUBLIC "-//W3C//DTD SVG 1.1//EN"
 "http://www.w3.org/Graphics/SVG/1.1/DTD/svg11.dtd">
<!-- Generated by graphviz version 2.43.0 (0)
 -->
<!-- Title: %3 Pages: 1 -->
<svg width="726pt" height="131pt"
 viewBox="0.00 0.00 725.87 131.00" xmlns="http://www.w3.org/2000/svg" xmlns:xlink="http://www.w3.org/1999/xlink">
<g id="graph0" class="graph" transform="scale(1 1) rotate(0) translate(4 127)">
<title>%3</title>
<polygon fill="white" stroke="transparent" points="-4,4 -4,-127 721.87,-127 721.87,4 -4,4"/>
<!-- orchestration to entity association mixin -->
<g id="node1" class="node">
<title>orchestration to entity association mixin</title>
<ellipse fill="none" stroke="black" cx="360.68" cy="-105" rx="198.76" ry="18"/>
<text text-anchor="middle" x="360.68" y="-101.3" font-family="Times,serif" font-size="14.00">orchestration to entity association mixin</text>
</g>
<!-- operational entity to entity association mixin -->
<g id="node2" class="node">
<title>operational entity to entity association mixin</title>
<ellipse fill="none" stroke="black" cx="219.68" cy="-18" rx="219.86" ry="18"/>
<text text-anchor="middle" x="219.68" y="-14.3" font-family="Times,serif" font-size="14.00">operational entity to entity association mixin</text>
</g>
<!-- orchestration to entity association mixin&#45;&gt;operational entity to entity association mixin -->
<g id="edge1" class="edge">
<title>orchestration to entity association mixin&#45;&gt;operational entity to entity association mixin</title>
<path fill="none" stroke="black" d="M332.49,-87C310.68,-73.86 280.3,-55.55 256.57,-41.24"/>
<polygon fill="black" stroke="black" points="258.2,-38.13 247.83,-35.97 254.58,-44.13 258.2,-38.13"/>
<text text-anchor="middle" x="312.68" y="-57.8" font-family="Times,serif" font-size="14.00">is_a</text>
</g>
<!-- subject -->
<g id="node3" class="node">
<title>subject</title>
<ellipse fill="none" stroke="black" cx="501.68" cy="-18" rx="44.39" ry="18"/>
<text text-anchor="middle" x="501.68" y="-14.3" font-family="Times,serif" font-size="14.00">subject</text>
</g>
<!-- orchestration to entity association mixin&#45;&gt;subject -->
<g id="edge2" class="edge">
<title>orchestration to entity association mixin&#45;&gt;subject</title>
<path fill="none" stroke="blue" d="M388.88,-87C411.96,-73.08 444.66,-53.37 468.91,-38.75"/>
<polygon fill="blue" stroke="blue" points="471,-41.58 477.75,-33.42 467.38,-35.59 471,-41.58"/>
<text text-anchor="middle" x="465.68" y="-57.8" font-family="Times,serif" font-size="14.00">subject</text>
</g>
<!-- orchestration to entity association mixin_subject -->
<g id="node4" class="node">
<title>orchestration to entity association mixin_subject</title>
<ellipse fill="none" stroke="blue" cx="647.68" cy="-105" rx="70.39" ry="18"/>
<text text-anchor="middle" x="647.68" y="-101.3" font-family="Times,serif" font-size="14.00">control actor</text>
</g>
</g>
</svg>
