<?xml version="1.0" encoding="UTF-8" standalone="no"?>
<!DOCTYPE svg PUBLIC "-//W3C//DTD SVG 1.1//EN"
 "http://www.w3.org/Graphics/SVG/1.1/DTD/svg11.dtd">
<!-- Generated by graphviz version 2.43.0 (0)
 -->
<!-- Title: %3 Pages: 1 -->
<svg width="2674pt" height="291pt"
 viewBox="0.00 0.00 2674.37 291.00" xmlns="http://www.w3.org/2000/svg" xmlns:xlink="http://www.w3.org/1999/xlink">
<g id="graph0" class="graph" transform="scale(1 1) rotate(0) translate(4 287)">
<title>%3</title>
<polygon fill="white" stroke="transparent" points="-4,4 -4,-287 2670.37,-287 2670.37,4 -4,4"/>
<!-- orchestration to orchestration derivation association -->
<g id="node1" class="node">
<title>orchestration to orchestration derivation association</title>
<ellipse fill="none" stroke="black" cx="1338.38" cy="-265" rx="255.35" ry="18"/>
<text text-anchor="middle" x="1338.38" y="-261.3" font-family="Times,serif" font-size="14.00">orchestration to orchestration derivation association</text>
</g>
<!-- orchestration to orchestration association -->
<g id="node2" class="node">
<title>orchestration to orchestration association</title>
<ellipse fill="none" stroke="black" cx="205.38" cy="-178" rx="205.26" ry="18"/>
<text text-anchor="middle" x="205.38" y="-174.3" font-family="Times,serif" font-size="14.00">orchestration to orchestration association</text>
</g>
<!-- orchestration to orchestration derivation association&#45;&gt;orchestration to orchestration association -->
<g id="edge1" class="edge">
<title>orchestration to orchestration derivation association&#45;&gt;orchestration to orchestration association</title>
<path fill="none" stroke="black" d="M1095.41,-259.36C939.88,-254.86 733.93,-246.08 552.38,-229 468.35,-221.09 373.53,-207.08 304.27,-195.9"/>
<polygon fill="black" stroke="black" points="304.67,-192.42 294.24,-194.27 303.55,-199.33 304.67,-192.42"/>
<text text-anchor="middle" x="566.38" y="-217.8" font-family="Times,serif" font-size="14.00">is_a</text>
</g>
<!-- id -->
<g id="node3" class="node">
<title>id</title>
<ellipse fill="none" stroke="blue" cx="467.38" cy="-178" rx="38.19" ry="18"/>
<text text-anchor="middle" x="467.38" y="-174.3" font-family="Times,serif" font-size="14.00">string</text>
</g>
<!-- orchestration to orchestration derivation association&#45;&gt;id -->
<g id="edge2" class="edge">
<title>orchestration to orchestration derivation association&#45;&gt;id</title>
<path fill="none" stroke="blue" d="M1093.55,-259.77C968.35,-255.4 813.8,-246.62 676.38,-229 603.93,-219.71 585.75,-215.57 515.38,-196 512.27,-195.14 509.07,-194.17 505.88,-193.15"/>
<polygon fill="blue" stroke="blue" points="506.96,-189.83 496.37,-189.99 504.75,-196.47 506.96,-189.83"/>
<text text-anchor="middle" x="683.38" y="-217.8" font-family="Times,serif" font-size="14.00">id</text>
</g>
<!-- iri -->
<g id="node4" class="node">
<title>iri</title>
<ellipse fill="none" stroke="blue" cx="568.38" cy="-178" rx="44.39" ry="18"/>
<text text-anchor="middle" x="568.38" y="-174.3" font-family="Times,serif" font-size="14.00">iri type</text>
</g>
<!-- orchestration to orchestration derivation association&#45;&gt;iri -->
<g id="edge3" class="edge">
<title>orchestration to orchestration derivation association&#45;&gt;iri</title>
<path fill="none" stroke="blue" d="M1108.44,-257.14C1006.93,-252.17 886.37,-243.65 778.38,-229 707.73,-219.42 690.31,-214.25 621.38,-196 618.01,-195.11 614.54,-194.13 611.05,-193.11"/>
<polygon fill="blue" stroke="blue" points="611.89,-189.7 601.31,-190.14 609.85,-196.4 611.89,-189.7"/>
<text text-anchor="middle" x="786.38" y="-217.8" font-family="Times,serif" font-size="14.00">iri</text>
</g>
<!-- name -->
<g id="node5" class="node">
<title>name</title>
<ellipse fill="none" stroke="blue" cx="687.38" cy="-178" rx="56.59" ry="18"/>
<text text-anchor="middle" x="687.38" y="-174.3" font-family="Times,serif" font-size="14.00">label type</text>
</g>
<!-- orchestration to orchestration derivation association&#45;&gt;name -->
<g id="edge4" class="edge">
<title>orchestration to orchestration derivation association&#45;&gt;name</title>
<path fill="none" stroke="blue" d="M1109.53,-256.95C1030.19,-251.94 940.96,-243.43 860.38,-229 816.55,-221.15 767.93,-206.56 733.43,-195.15"/>
<polygon fill="blue" stroke="blue" points="734.24,-191.73 723.64,-191.88 732.02,-198.37 734.24,-191.73"/>
<text text-anchor="middle" x="880.38" y="-217.8" font-family="Times,serif" font-size="14.00">name</text>
</g>
<!-- description -->
<g id="node6" class="node">
<title>description</title>
<ellipse fill="none" stroke="blue" cx="837.38" cy="-178" rx="75.29" ry="18"/>
<text text-anchor="middle" x="837.38" y="-174.3" font-family="Times,serif" font-size="14.00">narrative text</text>
</g>
<!-- orchestration to orchestration derivation association&#45;&gt;description -->
<g id="edge5" class="edge">
<title>orchestration to orchestration derivation association&#45;&gt;description</title>
<path fill="none" stroke="blue" d="M1144.38,-253.29C1063.92,-247.51 980.54,-239.41 942.38,-229 918.17,-222.4 892.71,-210.41 872.93,-199.84"/>
<polygon fill="blue" stroke="blue" points="874.44,-196.67 863.98,-194.94 871.08,-202.81 874.44,-196.67"/>
<text text-anchor="middle" x="982.88" y="-217.8" font-family="Times,serif" font-size="14.00">description</text>
</g>
<!-- source -->
<g id="node7" class="node">
<title>source</title>
<ellipse fill="none" stroke="blue" cx="987.38" cy="-178" rx="56.59" ry="18"/>
<text text-anchor="middle" x="987.38" y="-174.3" font-family="Times,serif" font-size="14.00">label type</text>
</g>
<!-- orchestration to orchestration derivation association&#45;&gt;source -->
<g id="edge6" class="edge">
<title>orchestration to orchestration derivation association&#45;&gt;source</title>
<path fill="none" stroke="blue" d="M1173.47,-251.24C1123.26,-245.75 1075.3,-238.39 1052.38,-229 1037.18,-222.77 1022.48,-212 1010.91,-202.05"/>
<polygon fill="blue" stroke="blue" points="1013.22,-199.42 1003.44,-195.36 1008.55,-204.64 1013.22,-199.42"/>
<text text-anchor="middle" x="1076.38" y="-217.8" font-family="Times,serif" font-size="14.00">source</text>
</g>
<!-- provided by -->
<g id="node8" class="node">
<title>provided by</title>
<ellipse fill="none" stroke="blue" cx="1099.38" cy="-178" rx="37.09" ry="18"/>
<text text-anchor="middle" x="1099.38" y="-174.3" font-family="Times,serif" font-size="14.00">agent</text>
</g>
<!-- orchestration to orchestration derivation association&#45;&gt;provided by -->
<g id="edge7" class="edge">
<title>orchestration to orchestration derivation association&#45;&gt;provided by</title>
<path fill="none" stroke="blue" d="M1176.63,-251.01C1148.37,-245.92 1124.47,-238.84 1113.38,-229 1106.86,-223.21 1103.27,-214.67 1101.33,-206.27"/>
<polygon fill="blue" stroke="blue" points="1104.76,-205.59 1099.68,-196.29 1097.86,-206.73 1104.76,-205.59"/>
<text text-anchor="middle" x="1155.88" y="-217.8" font-family="Times,serif" font-size="14.00">provided by</text>
</g>
<!-- has attribute -->
<g id="node9" class="node">
<title>has attribute</title>
<ellipse fill="none" stroke="blue" cx="1206.38" cy="-178" rx="51.99" ry="18"/>
<text text-anchor="middle" x="1206.38" y="-174.3" font-family="Times,serif" font-size="14.00">attribute</text>
</g>
<!-- orchestration to orchestration derivation association&#45;&gt;has attribute -->
<g id="edge8" class="edge">
<title>orchestration to orchestration derivation association&#45;&gt;has attribute</title>
<path fill="none" stroke="blue" d="M1247.68,-248.09C1229.11,-242.99 1213.37,-236.64 1207.38,-229 1202.39,-222.63 1200.9,-214.28 1201.02,-206.23"/>
<polygon fill="blue" stroke="blue" points="1204.53,-206.28 1201.96,-196.01 1197.56,-205.65 1204.53,-206.28"/>
<text text-anchor="middle" x="1254.38" y="-217.8" font-family="Times,serif" font-size="14.00">has attribute</text>
</g>
<!-- relation -->
<g id="node10" class="node">
<title>relation</title>
<ellipse fill="none" stroke="blue" cx="2135.38" cy="-18" rx="57.39" ry="18"/>
<text text-anchor="middle" x="2135.38" y="-14.3" font-family="Times,serif" font-size="14.00">uriorcurie</text>
</g>
<!-- orchestration to orchestration derivation association&#45;&gt;relation -->
<g id="edge9" class="edge">
<title>orchestration to orchestration derivation association&#45;&gt;relation</title>
<path fill="none" stroke="blue" d="M1324.14,-246.96C1307.27,-224.63 1283.99,-185.33 1305.38,-160 1403.26,-44.09 1888.2,-23.45 2068.08,-19.78"/>
<polygon fill="blue" stroke="blue" points="2068.27,-23.28 2078.21,-19.59 2068.14,-16.28 2068.27,-23.28"/>
<text text-anchor="middle" x="1371.38" y="-130.8" font-family="Times,serif" font-size="14.00">relation</text>
</g>
<!-- negated -->
<g id="node11" class="node">
<title>negated</title>
<ellipse fill="none" stroke="blue" cx="1361.38" cy="-178" rx="46.59" ry="18"/>
<text text-anchor="middle" x="1361.38" y="-174.3" font-family="Times,serif" font-size="14.00">boolean</text>
</g>
<!-- orchestration to orchestration derivation association&#45;&gt;negated -->
<g id="edge10" class="edge">
<title>orchestration to orchestration derivation association&#45;&gt;negated</title>
<path fill="none" stroke="blue" d="M1343.04,-246.8C1346.22,-235.05 1350.49,-219.24 1354.12,-205.84"/>
<polygon fill="blue" stroke="blue" points="1357.5,-206.74 1356.73,-196.18 1350.74,-204.91 1357.5,-206.74"/>
<text text-anchor="middle" x="1380.38" y="-217.8" font-family="Times,serif" font-size="14.00">negated</text>
</g>
<!-- qualifiers -->
<g id="node12" class="node">
<title>qualifiers</title>
<ellipse fill="none" stroke="blue" cx="1502.38" cy="-178" rx="76.89" ry="18"/>
<text text-anchor="middle" x="1502.38" y="-174.3" font-family="Times,serif" font-size="14.00">ontology class</text>
</g>
<!-- orchestration to orchestration derivation association&#45;&gt;qualifiers -->
<g id="edge11" class="edge">
<title>orchestration to orchestration derivation association&#45;&gt;qualifiers</title>
<path fill="none" stroke="blue" d="M1376.04,-247.1C1388.06,-241.53 1401.37,-235.17 1413.38,-229 1431.04,-219.93 1450.29,-209.23 1466.35,-200.05"/>
<polygon fill="blue" stroke="blue" points="1468.48,-202.87 1475.4,-194.85 1464.99,-196.8 1468.48,-202.87"/>
<text text-anchor="middle" x="1474.88" y="-217.8" font-family="Times,serif" font-size="14.00">qualifiers</text>
</g>
<!-- publications -->
<g id="node13" class="node">
<title>publications</title>
<ellipse fill="none" stroke="blue" cx="1659.38" cy="-178" rx="62.29" ry="18"/>
<text text-anchor="middle" x="1659.38" y="-174.3" font-family="Times,serif" font-size="14.00">publication</text>
</g>
<!-- orchestration to orchestration derivation association&#45;&gt;publications -->
<g id="edge12" class="edge">
<title>orchestration to orchestration derivation association&#45;&gt;publications</title>
<path fill="none" stroke="blue" d="M1428.76,-248.13C1455.82,-242.75 1485.46,-236.25 1512.38,-229 1546.72,-219.75 1584.72,-206.75 1613.47,-196.33"/>
<polygon fill="blue" stroke="blue" points="1615.05,-199.48 1623.24,-192.76 1612.64,-192.9 1615.05,-199.48"/>
<text text-anchor="middle" x="1606.38" y="-217.8" font-family="Times,serif" font-size="14.00">publications</text>
</g>
<!-- type -->
<g id="node14" class="node">
<title>type</title>
<ellipse fill="none" stroke="black" cx="1771.38" cy="-178" rx="31.4" ry="18"/>
<text text-anchor="middle" x="1771.38" y="-174.3" font-family="Times,serif" font-size="14.00">type</text>
</g>
<!-- orchestration to orchestration derivation association&#45;&gt;type -->
<g id="edge13" class="edge">
<title>orchestration to orchestration derivation association&#45;&gt;type</title>
<path fill="none" stroke="blue" d="M1524.28,-252.59C1567.43,-247.42 1612.88,-239.91 1654.38,-229 1684.61,-221.05 1717.17,-206.61 1740.25,-195.29"/>
<polygon fill="blue" stroke="blue" points="1741.83,-198.41 1749.21,-190.81 1738.7,-192.15 1741.83,-198.41"/>
<text text-anchor="middle" x="1713.38" y="-217.8" font-family="Times,serif" font-size="14.00">type</text>
</g>
<!-- category -->
<g id="node16" class="node">
<title>category</title>
<ellipse fill="none" stroke="black" cx="1872.38" cy="-178" rx="51.19" ry="18"/>
<text text-anchor="middle" x="1872.38" y="-174.3" font-family="Times,serif" font-size="14.00">category</text>
</g>
<!-- orchestration to orchestration derivation association&#45;&gt;category -->
<g id="edge14" class="edge">
<title>orchestration to orchestration derivation association&#45;&gt;category</title>
<path fill="none" stroke="blue" d="M1520.48,-252.37C1603.91,-246.12 1693.08,-237.88 1733.38,-229 1767.77,-221.42 1805.26,-207.59 1832.63,-196.39"/>
<polygon fill="blue" stroke="blue" points="1833.97,-199.62 1841.86,-192.55 1831.29,-193.16 1833.97,-199.62"/>
<text text-anchor="middle" x="1815.88" y="-217.8" font-family="Times,serif" font-size="14.00">category</text>
</g>
<!-- catalyst qualifier -->
<g id="node18" class="node">
<title>catalyst qualifier</title>
<ellipse fill="none" stroke="black" cx="2030.38" cy="-178" rx="89.08" ry="18"/>
<text text-anchor="middle" x="2030.38" y="-174.3" font-family="Times,serif" font-size="14.00">catalyst qualifier</text>
</g>
<!-- orchestration to orchestration derivation association&#45;&gt;catalyst qualifier -->
<g id="edge15" class="edge">
<title>orchestration to orchestration derivation association&#45;&gt;catalyst qualifier</title>
<path fill="none" stroke="blue" d="M1518.03,-252.17C1662.56,-242.59 1843,-230.44 1851.38,-229 1894.55,-221.58 1942.26,-207.97 1977.57,-196.82"/>
<polygon fill="blue" stroke="blue" points="1978.72,-200.13 1987.18,-193.75 1976.59,-193.46 1978.72,-200.13"/>
<text text-anchor="middle" x="1976.88" y="-217.8" font-family="Times,serif" font-size="14.00">catalyst qualifier</text>
</g>
<!-- subject -->
<g id="node20" class="node">
<title>subject</title>
<ellipse fill="none" stroke="black" cx="2181.38" cy="-178" rx="44.39" ry="18"/>
<text text-anchor="middle" x="2181.38" y="-174.3" font-family="Times,serif" font-size="14.00">subject</text>
</g>
<!-- orchestration to orchestration derivation association&#45;&gt;subject -->
<g id="edge16" class="edge">
<title>orchestration to orchestration derivation association&#45;&gt;subject</title>
<path fill="none" stroke="blue" d="M1515.82,-252.05C1545.07,-250.24 1575.07,-248.49 1603.38,-247 1700.66,-241.88 1945.76,-247.59 2041.38,-229 2077.19,-222.04 2116.13,-207.52 2143.83,-195.92"/>
<polygon fill="blue" stroke="blue" points="2145.31,-199.09 2153.14,-191.95 2142.57,-192.65 2145.31,-199.09"/>
<text text-anchor="middle" x="2119.38" y="-217.8" font-family="Times,serif" font-size="14.00">subject</text>
</g>
<!-- object -->
<g id="node22" class="node">
<title>object</title>
<ellipse fill="none" stroke="black" cx="2202.38" cy="-91" rx="38.99" ry="18"/>
<text text-anchor="middle" x="2202.38" y="-87.3" font-family="Times,serif" font-size="14.00">object</text>
</g>
<!-- orchestration to orchestration derivation association&#45;&gt;object -->
<g id="edge17" class="edge">
<title>orchestration to orchestration derivation association&#45;&gt;object</title>
<path fill="none" stroke="blue" d="M1514.38,-251.94C1544.08,-250.13 1574.6,-248.4 1603.38,-247 1724.64,-241.11 2030.44,-253.31 2149.38,-229 2189.09,-220.88 2207.71,-226.51 2234.38,-196 2254.92,-172.51 2261.09,-155.03 2247.38,-127 2244.53,-121.17 2240.18,-116.02 2235.29,-111.6"/>
<polygon fill="blue" stroke="blue" points="2237.31,-108.73 2227.3,-105.25 2232.95,-114.21 2237.31,-108.73"/>
<text text-anchor="middle" x="2275.38" y="-174.3" font-family="Times,serif" font-size="14.00">object</text>
</g>
<!-- predicate -->
<g id="node24" class="node">
<title>predicate</title>
<ellipse fill="none" stroke="black" cx="2378.38" cy="-178" rx="54.69" ry="18"/>
<text text-anchor="middle" x="2378.38" y="-174.3" font-family="Times,serif" font-size="14.00">predicate</text>
</g>
<!-- orchestration to orchestration derivation association&#45;&gt;predicate -->
<g id="edge18" class="edge">
<title>orchestration to orchestration derivation association&#45;&gt;predicate</title>
<path fill="none" stroke="blue" d="M1513.31,-251.85C1543.34,-250.03 1574.25,-248.32 1603.38,-247 1678,-243.61 2202.82,-246.71 2275.38,-229 2300.22,-222.94 2326.1,-210.35 2345.71,-199.31"/>
<polygon fill="blue" stroke="blue" points="2347.61,-202.26 2354.52,-194.22 2344.11,-196.19 2347.61,-202.26"/>
<text text-anchor="middle" x="2350.38" y="-217.8" font-family="Times,serif" font-size="14.00">predicate</text>
</g>
<!-- association_type -->
<g id="node15" class="node">
<title>association_type</title>
<ellipse fill="none" stroke="blue" cx="1650.38" cy="-265" rx="38.19" ry="18"/>
<text text-anchor="middle" x="1650.38" y="-261.3" font-family="Times,serif" font-size="14.00">string</text>
</g>
<!-- association_category -->
<g id="node17" class="node">
<title>association_category</title>
<ellipse fill="none" stroke="blue" cx="1769.38" cy="-265" rx="62.29" ry="18"/>
<text text-anchor="middle" x="1769.38" y="-261.3" font-family="Times,serif" font-size="14.00">association</text>
</g>
<!-- orchestration to orchestration derivation association_catalyst qualifier -->
<g id="node19" class="node">
<title>orchestration to orchestration derivation association_catalyst qualifier</title>
<ellipse fill="none" stroke="blue" cx="2013.38" cy="-265" rx="163.27" ry="18"/>
<text text-anchor="middle" x="2013.38" y="-261.3" font-family="Times,serif" font-size="14.00">macrooperational machine mixin</text>
</g>
<!-- subject&#45;&gt;relation -->
<g id="edge20" class="edge">
<title>subject&#45;&gt;relation</title>
<path fill="none" stroke="black" stroke-dasharray="1,5" d="M2173.8,-160.24C2167.88,-146.64 2159.77,-126.88 2154.38,-109 2148.13,-88.27 2143.17,-64.24 2139.88,-46.23"/>
<polygon fill="black" stroke="black" points="2143.29,-45.38 2138.11,-36.14 2136.39,-46.59 2143.29,-45.38"/>
</g>
<!-- subject&#45;&gt;object -->
<g id="edge19" class="edge">
<title>subject&#45;&gt;object</title>
<path fill="none" stroke="black" d="M2184.36,-159.77C2186.15,-150.09 2188.61,-137.8 2191.38,-127 2192.07,-124.32 2192.84,-121.53 2193.65,-118.76"/>
<polygon fill="black" stroke="black" points="2197.06,-119.57 2196.64,-108.98 2190.37,-117.52 2197.06,-119.57"/>
<text text-anchor="middle" x="2219.38" y="-130.8" font-family="Times,serif" font-size="14.00">relation</text>
</g>
<!-- orchestration to orchestration derivation association_subject -->
<g id="node21" class="node">
<title>orchestration to orchestration derivation association_subject</title>
<ellipse fill="none" stroke="blue" cx="2264.38" cy="-265" rx="70.39" ry="18"/>
<text text-anchor="middle" x="2264.38" y="-261.3" font-family="Times,serif" font-size="14.00">control actor</text>
</g>
<!-- object&#45;&gt;relation -->
<g id="edge21" class="edge">
<title>object&#45;&gt;relation</title>
<path fill="none" stroke="black" stroke-dasharray="1,5" d="M2187.51,-74.24C2178.91,-65.13 2167.91,-53.47 2158.23,-43.21"/>
<polygon fill="black" stroke="black" points="2160.55,-40.57 2151.14,-35.7 2155.46,-45.38 2160.55,-40.57"/>
</g>
<!-- orchestration to orchestration derivation association_object -->
<g id="node23" class="node">
<title>orchestration to orchestration derivation association_object</title>
<ellipse fill="none" stroke="blue" cx="2422.38" cy="-265" rx="70.39" ry="18"/>
<text text-anchor="middle" x="2422.38" y="-261.3" font-family="Times,serif" font-size="14.00">control actor</text>
</g>
<!-- orchestration to orchestration derivation association_predicate -->
<g id="node25" class="node">
<title>orchestration to orchestration derivation association_predicate</title>
<ellipse fill="none" stroke="blue" cx="2588.38" cy="-265" rx="77.99" ry="18"/>
<text text-anchor="middle" x="2588.38" y="-261.3" font-family="Times,serif" font-size="14.00">predicate type</text>
</g>
</g>
</svg>
