<?xml version="1.0" encoding="UTF-8" standalone="no"?>
<!DOCTYPE svg PUBLIC "-//W3C//DTD SVG 1.1//EN"
 "http://www.w3.org/Graphics/SVG/1.1/DTD/svg11.dtd">
<!-- Generated by graphviz version 2.43.0 (0)
 -->
<!-- Title: %3 Pages: 1 -->
<svg width="1684pt" height="131pt"
 viewBox="0.00 0.00 1684.44 131.00" xmlns="http://www.w3.org/2000/svg" xmlns:xlink="http://www.w3.org/1999/xlink">
<g id="graph0" class="graph" transform="scale(1 1) rotate(0) translate(4 127)">
<title>%3</title>
<polygon fill="white" stroke="transparent" points="-4,4 -4,-127 1680.44,-127 1680.44,4 -4,4"/>
<!-- orchestration exposure -->
<g id="node1" class="node">
<title>orchestration exposure</title>
<ellipse fill="none" stroke="black" cx="843.19" cy="-105" rx="118.08" ry="18"/>
<text text-anchor="middle" x="843.19" y="-101.3" font-family="Times,serif" font-size="14.00">orchestration exposure</text>
</g>
<!-- control actor -->
<g id="node2" class="node">
<title>control actor</title>
<ellipse fill="none" stroke="black" cx="70.19" cy="-18" rx="70.39" ry="18"/>
<text text-anchor="middle" x="70.19" y="-14.3" font-family="Times,serif" font-size="14.00">control actor</text>
</g>
<!-- orchestration exposure&#45;&gt;control actor -->
<g id="edge1" class="edge">
<title>orchestration exposure&#45;&gt;control actor</title>
<path fill="none" stroke="black" d="M732.4,-98.54C634.55,-93.1 488.11,-83.46 361.19,-69 266.45,-58.2 242.96,-53.37 149.19,-36 143.36,-34.92 137.3,-33.73 131.25,-32.5"/>
<polygon fill="black" stroke="black" points="131.6,-29 121.1,-30.41 130.19,-35.86 131.6,-29"/>
<text text-anchor="middle" x="375.19" y="-57.8" font-family="Times,serif" font-size="14.00">is_a</text>
</g>
<!-- exposure event -->
<g id="node3" class="node">
<title>exposure event</title>
<ellipse fill="none" stroke="black" cx="240.19" cy="-18" rx="81.79" ry="18"/>
<text text-anchor="middle" x="240.19" y="-14.3" font-family="Times,serif" font-size="14.00">exposure event</text>
</g>
<!-- orchestration exposure&#45;&gt;exposure event -->
<g id="edge2" class="edge">
<title>orchestration exposure&#45;&gt;exposure event</title>
<path fill="none" stroke="black" d="M735.67,-97.48C660.47,-92.07 557.84,-82.96 468.19,-69 411.12,-60.11 346.92,-45.62 301.22,-34.52"/>
<polygon fill="black" stroke="black" points="302.01,-31.11 291.47,-32.14 300.35,-37.91 302.01,-31.11"/>
<text text-anchor="middle" x="484.69" y="-57.8" font-family="Times,serif" font-size="14.00">uses</text>
</g>
<!-- id -->
<g id="node4" class="node">
<title>id</title>
<ellipse fill="none" stroke="blue" cx="378.19" cy="-18" rx="38.19" ry="18"/>
<text text-anchor="middle" x="378.19" y="-14.3" font-family="Times,serif" font-size="14.00">string</text>
</g>
<!-- orchestration exposure&#45;&gt;id -->
<g id="edge3" class="edge">
<title>orchestration exposure&#45;&gt;id</title>
<path fill="none" stroke="blue" d="M746.61,-94.58C661.21,-84.76 533.83,-66.46 426.19,-36 423.09,-35.12 419.89,-34.15 416.7,-33.12"/>
<polygon fill="blue" stroke="blue" points="417.78,-29.8 407.19,-29.95 415.57,-36.44 417.78,-29.8"/>
<text text-anchor="middle" x="569.19" y="-57.8" font-family="Times,serif" font-size="14.00">id</text>
</g>
<!-- iri -->
<g id="node5" class="node">
<title>iri</title>
<ellipse fill="none" stroke="blue" cx="479.19" cy="-18" rx="44.39" ry="18"/>
<text text-anchor="middle" x="479.19" y="-14.3" font-family="Times,serif" font-size="14.00">iri type</text>
</g>
<!-- orchestration exposure&#45;&gt;iri -->
<g id="edge4" class="edge">
<title>orchestration exposure&#45;&gt;iri</title>
<path fill="none" stroke="blue" d="M768.65,-91.01C735.09,-84.86 695.04,-77.09 659.19,-69 602.73,-56.25 588.82,-52.03 533.19,-36 529.68,-34.99 526.05,-33.91 522.41,-32.81"/>
<polygon fill="blue" stroke="blue" points="523.41,-29.45 512.82,-29.86 521.35,-36.15 523.41,-29.45"/>
<text text-anchor="middle" x="667.19" y="-57.8" font-family="Times,serif" font-size="14.00">iri</text>
</g>
<!-- type -->
<g id="node6" class="node">
<title>type</title>
<ellipse fill="none" stroke="blue" cx="580.19" cy="-18" rx="38.19" ry="18"/>
<text text-anchor="middle" x="580.19" y="-14.3" font-family="Times,serif" font-size="14.00">string</text>
</g>
<!-- orchestration exposure&#45;&gt;type -->
<g id="edge5" class="edge">
<title>orchestration exposure&#45;&gt;type</title>
<path fill="none" stroke="blue" d="M790.03,-88.88C769.41,-82.88 745.65,-75.8 724.19,-69 680.79,-55.24 670.16,-51.08 627.19,-36 624.51,-35.06 621.74,-34.08 618.95,-33.08"/>
<polygon fill="blue" stroke="blue" points="620.09,-29.78 609.5,-29.7 617.73,-36.37 620.09,-29.78"/>
<text text-anchor="middle" x="740.19" y="-57.8" font-family="Times,serif" font-size="14.00">type</text>
</g>
<!-- name -->
<g id="node7" class="node">
<title>name</title>
<ellipse fill="none" stroke="blue" cx="693.19" cy="-18" rx="56.59" ry="18"/>
<text text-anchor="middle" x="693.19" y="-14.3" font-family="Times,serif" font-size="14.00">label type</text>
</g>
<!-- orchestration exposure&#45;&gt;name -->
<g id="edge6" class="edge">
<title>orchestration exposure&#45;&gt;name</title>
<path fill="none" stroke="blue" d="M813.92,-87.41C789.51,-73.58 754.66,-53.83 728.67,-39.1"/>
<polygon fill="blue" stroke="blue" points="730.31,-36.01 719.88,-34.12 726.86,-42.1 730.31,-36.01"/>
<text text-anchor="middle" x="797.19" y="-57.8" font-family="Times,serif" font-size="14.00">name</text>
</g>
<!-- description -->
<g id="node8" class="node">
<title>description</title>
<ellipse fill="none" stroke="blue" cx="843.19" cy="-18" rx="75.29" ry="18"/>
<text text-anchor="middle" x="843.19" y="-14.3" font-family="Times,serif" font-size="14.00">narrative text</text>
</g>
<!-- orchestration exposure&#45;&gt;description -->
<g id="edge7" class="edge">
<title>orchestration exposure&#45;&gt;description</title>
<path fill="none" stroke="blue" d="M843.19,-86.8C843.19,-75.16 843.19,-59.55 843.19,-46.24"/>
<polygon fill="blue" stroke="blue" points="846.69,-46.18 843.19,-36.18 839.69,-46.18 846.69,-46.18"/>
<text text-anchor="middle" x="883.69" y="-57.8" font-family="Times,serif" font-size="14.00">description</text>
</g>
<!-- source -->
<g id="node9" class="node">
<title>source</title>
<ellipse fill="none" stroke="blue" cx="993.19" cy="-18" rx="56.59" ry="18"/>
<text text-anchor="middle" x="993.19" y="-14.3" font-family="Times,serif" font-size="14.00">label type</text>
</g>
<!-- orchestration exposure&#45;&gt;source -->
<g id="edge8" class="edge">
<title>orchestration exposure&#45;&gt;source</title>
<path fill="none" stroke="blue" d="M887.93,-88.17C901.24,-82.78 915.61,-76.26 928.19,-69 941.79,-61.16 955.73,-50.8 967.2,-41.54"/>
<polygon fill="blue" stroke="blue" points="969.58,-44.11 975.07,-35.05 965.13,-38.71 969.58,-44.11"/>
<text text-anchor="middle" x="975.19" y="-57.8" font-family="Times,serif" font-size="14.00">source</text>
</g>
<!-- provided by -->
<g id="node10" class="node">
<title>provided by</title>
<ellipse fill="none" stroke="blue" cx="1105.19" cy="-18" rx="37.09" ry="18"/>
<text text-anchor="middle" x="1105.19" y="-14.3" font-family="Times,serif" font-size="14.00">agent</text>
</g>
<!-- orchestration exposure&#45;&gt;provided by -->
<g id="edge9" class="edge">
<title>orchestration exposure&#45;&gt;provided by</title>
<path fill="none" stroke="blue" d="M919.52,-91.2C946.36,-85.68 976.48,-78.32 1003.19,-69 1027.47,-60.53 1053.47,-47.73 1073.14,-37.19"/>
<polygon fill="blue" stroke="blue" points="1074.87,-40.24 1081.98,-32.39 1071.53,-34.09 1074.87,-40.24"/>
<text text-anchor="middle" x="1080.69" y="-57.8" font-family="Times,serif" font-size="14.00">provided by</text>
</g>
<!-- has attribute -->
<g id="node11" class="node">
<title>has attribute</title>
<ellipse fill="none" stroke="blue" cx="1212.19" cy="-18" rx="51.99" ry="18"/>
<text text-anchor="middle" x="1212.19" y="-14.3" font-family="Times,serif" font-size="14.00">attribute</text>
</g>
<!-- orchestration exposure&#45;&gt;has attribute -->
<g id="edge10" class="edge">
<title>orchestration exposure&#45;&gt;has attribute</title>
<path fill="none" stroke="blue" d="M928.22,-92.39C942.23,-90.54 956.62,-88.69 970.19,-87 1039.89,-78.34 1060.59,-91.29 1127.19,-69 1146.87,-62.41 1166.97,-50.86 1182.68,-40.51"/>
<polygon fill="blue" stroke="blue" points="1185.08,-43.12 1191.39,-34.61 1181.15,-37.32 1185.08,-43.12"/>
<text text-anchor="middle" x="1207.19" y="-57.8" font-family="Times,serif" font-size="14.00">has attribute</text>
</g>
<!-- category -->
<g id="node12" class="node">
<title>category</title>
<ellipse fill="none" stroke="black" cx="1333.19" cy="-18" rx="51.19" ry="18"/>
<text text-anchor="middle" x="1333.19" y="-14.3" font-family="Times,serif" font-size="14.00">category</text>
</g>
<!-- orchestration exposure&#45;&gt;category -->
<g id="edge11" class="edge">
<title>orchestration exposure&#45;&gt;category</title>
<path fill="none" stroke="blue" d="M925.76,-92.09C940.53,-90.2 955.8,-88.41 970.19,-87 1034.01,-80.74 1197.43,-89.49 1258.19,-69 1276,-63 1293.6,-51.62 1307.28,-41.24"/>
<polygon fill="blue" stroke="blue" points="1309.56,-43.9 1315.25,-34.96 1305.23,-38.4 1309.56,-43.9"/>
<text text-anchor="middle" x="1318.69" y="-57.8" font-family="Times,serif" font-size="14.00">category</text>
</g>
<!-- in taxon -->
<g id="node14" class="node">
<title>in taxon</title>
<ellipse fill="none" stroke="blue" cx="1475.19" cy="-18" rx="72.59" ry="18"/>
<text text-anchor="middle" x="1475.19" y="-14.3" font-family="Times,serif" font-size="14.00">system taxon</text>
</g>
<!-- orchestration exposure&#45;&gt;in taxon -->
<g id="edge12" class="edge">
<title>orchestration exposure&#45;&gt;in taxon</title>
<path fill="none" stroke="blue" d="M925.06,-91.99C940.05,-90.09 955.57,-88.32 970.19,-87 1140.36,-71.65 1187.43,-106.18 1354.19,-69 1382.86,-62.61 1413.41,-49.93 1436.64,-38.95"/>
<polygon fill="blue" stroke="blue" points="1438.32,-42.02 1445.8,-34.52 1435.28,-35.72 1438.32,-42.02"/>
<text text-anchor="middle" x="1428.19" y="-57.8" font-family="Times,serif" font-size="14.00">in taxon</text>
</g>
<!-- timepoint -->
<g id="node15" class="node">
<title>timepoint</title>
<ellipse fill="none" stroke="blue" cx="1621.19" cy="-18" rx="55.49" ry="18"/>
<text text-anchor="middle" x="1621.19" y="-14.3" font-family="Times,serif" font-size="14.00">time type</text>
</g>
<!-- orchestration exposure&#45;&gt;timepoint -->
<g id="edge13" class="edge">
<title>orchestration exposure&#45;&gt;timepoint</title>
<path fill="none" stroke="blue" d="M924.71,-91.91C939.8,-90 955.45,-88.25 970.19,-87 1187.78,-68.49 1245.96,-105.89 1461.19,-69 1501.75,-62.05 1546.3,-47.53 1578.08,-35.91"/>
<polygon fill="blue" stroke="blue" points="1579.35,-39.18 1587.51,-32.42 1576.92,-32.61 1579.35,-39.18"/>
<text text-anchor="middle" x="1555.19" y="-57.8" font-family="Times,serif" font-size="14.00">timepoint</text>
</g>
<!-- named thing_category -->
<g id="node13" class="node">
<title>named thing_category</title>
<ellipse fill="none" stroke="blue" cx="1049.19" cy="-105" rx="69.59" ry="18"/>
<text text-anchor="middle" x="1049.19" y="-101.3" font-family="Times,serif" font-size="14.00">named thing</text>
</g>
</g>
</svg>
