<?xml version="1.0" encoding="UTF-8" standalone="no"?>
<!DOCTYPE svg PUBLIC "-//W3C//DTD SVG 1.1//EN"
 "http://www.w3.org/Graphics/SVG/1.1/DTD/svg11.dtd">
<!-- Generated by graphviz version 2.43.0 (0)
 -->
<!-- Title: %3 Pages: 1 -->
<svg width="2473pt" height="291pt"
 viewBox="0.00 0.00 2472.74 291.00" xmlns="http://www.w3.org/2000/svg" xmlns:xlink="http://www.w3.org/1999/xlink">
<g id="graph0" class="graph" transform="scale(1 1) rotate(0) translate(4 287)">
<title>%3</title>
<polygon fill="white" stroke="transparent" points="-4,4 -4,-287 2468.74,-287 2468.74,4 -4,4"/>
<!-- orchestration to componentservice association -->
<g id="node1" class="node">
<title>orchestration to componentservice association</title>
<ellipse fill="none" stroke="black" cx="1389.39" cy="-265" rx="227.46" ry="18"/>
<text text-anchor="middle" x="1389.39" y="-261.3" font-family="Times,serif" font-size="14.00">orchestration to componentservice association</text>
</g>
<!-- association -->
<g id="node2" class="node">
<title>association</title>
<ellipse fill="none" stroke="black" cx="62.39" cy="-178" rx="62.29" ry="18"/>
<text text-anchor="middle" x="62.39" y="-174.3" font-family="Times,serif" font-size="14.00">association</text>
</g>
<!-- orchestration to componentservice association&#45;&gt;association -->
<g id="edge1" class="edge">
<title>orchestration to componentservice association&#45;&gt;association</title>
<path fill="none" stroke="black" d="M1179.56,-258.03C1004.72,-252.44 749.2,-242.87 526.39,-229 351.45,-218.11 306.45,-223.82 133.39,-196 128,-195.13 122.4,-194.07 116.83,-192.92"/>
<polygon fill="black" stroke="black" points="117.4,-189.46 106.88,-190.74 115.9,-196.29 117.4,-189.46"/>
<text text-anchor="middle" x="540.39" y="-217.8" font-family="Times,serif" font-size="14.00">is_a</text>
</g>
<!-- orchestration to entity association mixin -->
<g id="node3" class="node">
<title>orchestration to entity association mixin</title>
<ellipse fill="none" stroke="black" cx="341.39" cy="-178" rx="198.76" ry="18"/>
<text text-anchor="middle" x="341.39" y="-174.3" font-family="Times,serif" font-size="14.00">orchestration to entity association mixin</text>
</g>
<!-- orchestration to componentservice association&#45;&gt;orchestration to entity association mixin -->
<g id="edge2" class="edge">
<title>orchestration to componentservice association&#45;&gt;orchestration to entity association mixin</title>
<path fill="none" stroke="black" d="M1175.4,-258.89C1034.28,-254.19 845.51,-245.34 679.39,-229 597.83,-220.98 505.86,-207.05 438.47,-195.93"/>
<polygon fill="black" stroke="black" points="438.73,-192.43 428.29,-194.24 437.59,-199.33 438.73,-192.43"/>
<text text-anchor="middle" x="695.89" y="-217.8" font-family="Times,serif" font-size="14.00">uses</text>
</g>
<!-- id -->
<g id="node4" class="node">
<title>id</title>
<ellipse fill="none" stroke="blue" cx="596.39" cy="-178" rx="38.19" ry="18"/>
<text text-anchor="middle" x="596.39" y="-174.3" font-family="Times,serif" font-size="14.00">string</text>
</g>
<!-- orchestration to componentservice association&#45;&gt;id -->
<g id="edge3" class="edge">
<title>orchestration to componentservice association&#45;&gt;id</title>
<path fill="none" stroke="blue" d="M1176.83,-258.53C1065.79,-253.84 927.87,-245.14 805.39,-229 732.98,-219.46 714.77,-215.57 644.39,-196 641.29,-195.14 638.09,-194.17 634.89,-193.15"/>
<polygon fill="blue" stroke="blue" points="635.97,-189.83 625.38,-189.99 633.76,-196.47 635.97,-189.83"/>
<text text-anchor="middle" x="812.39" y="-217.8" font-family="Times,serif" font-size="14.00">id</text>
</g>
<!-- iri -->
<g id="node5" class="node">
<title>iri</title>
<ellipse fill="none" stroke="blue" cx="697.39" cy="-178" rx="44.39" ry="18"/>
<text text-anchor="middle" x="697.39" y="-174.3" font-family="Times,serif" font-size="14.00">iri type</text>
</g>
<!-- orchestration to componentservice association&#45;&gt;iri -->
<g id="edge4" class="edge">
<title>orchestration to componentservice association&#45;&gt;iri</title>
<path fill="none" stroke="blue" d="M1193.82,-255.79C1105.96,-250.56 1001.17,-242.2 907.39,-229 836.79,-219.06 819.32,-214.25 750.39,-196 747.02,-195.11 743.55,-194.13 740.07,-193.11"/>
<polygon fill="blue" stroke="blue" points="740.9,-189.7 730.32,-190.14 738.87,-196.4 740.9,-189.7"/>
<text text-anchor="middle" x="915.39" y="-217.8" font-family="Times,serif" font-size="14.00">iri</text>
</g>
<!-- name -->
<g id="node6" class="node">
<title>name</title>
<ellipse fill="none" stroke="blue" cx="816.39" cy="-178" rx="56.59" ry="18"/>
<text text-anchor="middle" x="816.39" y="-174.3" font-family="Times,serif" font-size="14.00">label type</text>
</g>
<!-- orchestration to componentservice association&#45;&gt;name -->
<g id="edge5" class="edge">
<title>orchestration to componentservice association&#45;&gt;name</title>
<path fill="none" stroke="blue" d="M1200.15,-255C1133.19,-249.83 1057.58,-241.71 989.39,-229 945.76,-220.86 897.31,-206.37 862.81,-195.08"/>
<polygon fill="blue" stroke="blue" points="863.61,-191.66 853.02,-191.84 861.41,-198.3 863.61,-191.66"/>
<text text-anchor="middle" x="1009.39" y="-217.8" font-family="Times,serif" font-size="14.00">name</text>
</g>
<!-- description -->
<g id="node7" class="node">
<title>description</title>
<ellipse fill="none" stroke="blue" cx="966.39" cy="-178" rx="75.29" ry="18"/>
<text text-anchor="middle" x="966.39" y="-174.3" font-family="Times,serif" font-size="14.00">narrative text</text>
</g>
<!-- orchestration to componentservice association&#45;&gt;description -->
<g id="edge6" class="edge">
<title>orchestration to componentservice association&#45;&gt;description</title>
<path fill="none" stroke="blue" d="M1206.78,-254.24C1162.26,-249.03 1115.15,-241.08 1072.39,-229 1048.22,-222.17 1022.71,-210.3 1002.78,-199.84"/>
<polygon fill="blue" stroke="blue" points="1004.22,-196.64 993.75,-195 1000.91,-202.81 1004.22,-196.64"/>
<text text-anchor="middle" x="1112.89" y="-217.8" font-family="Times,serif" font-size="14.00">description</text>
</g>
<!-- source -->
<g id="node8" class="node">
<title>source</title>
<ellipse fill="none" stroke="blue" cx="1116.39" cy="-178" rx="56.59" ry="18"/>
<text text-anchor="middle" x="1116.39" y="-174.3" font-family="Times,serif" font-size="14.00">label type</text>
</g>
<!-- orchestration to componentservice association&#45;&gt;source -->
<g id="edge7" class="edge">
<title>orchestration to componentservice association&#45;&gt;source</title>
<path fill="none" stroke="blue" d="M1253.07,-250.55C1228.93,-245.49 1204.48,-238.54 1182.39,-229 1167.28,-222.47 1152.47,-211.77 1140.73,-201.94"/>
<polygon fill="blue" stroke="blue" points="1142.97,-199.25 1133.12,-195.34 1138.38,-204.53 1142.97,-199.25"/>
<text text-anchor="middle" x="1206.39" y="-217.8" font-family="Times,serif" font-size="14.00">source</text>
</g>
<!-- provided by -->
<g id="node9" class="node">
<title>provided by</title>
<ellipse fill="none" stroke="blue" cx="1228.39" cy="-178" rx="37.09" ry="18"/>
<text text-anchor="middle" x="1228.39" y="-174.3" font-family="Times,serif" font-size="14.00">agent</text>
</g>
<!-- orchestration to componentservice association&#45;&gt;provided by -->
<g id="edge8" class="edge">
<title>orchestration to componentservice association&#45;&gt;provided by</title>
<path fill="none" stroke="blue" d="M1293.67,-248.65C1271.36,-243.4 1251.68,-236.83 1243.39,-229 1237.03,-222.98 1233.33,-214.38 1231.19,-206"/>
<polygon fill="blue" stroke="blue" points="1234.61,-205.24 1229.29,-196.08 1227.74,-206.56 1234.61,-205.24"/>
<text text-anchor="middle" x="1285.89" y="-217.8" font-family="Times,serif" font-size="14.00">provided by</text>
</g>
<!-- has attribute -->
<g id="node10" class="node">
<title>has attribute</title>
<ellipse fill="none" stroke="blue" cx="1335.39" cy="-178" rx="51.99" ry="18"/>
<text text-anchor="middle" x="1335.39" y="-174.3" font-family="Times,serif" font-size="14.00">attribute</text>
</g>
<!-- orchestration to componentservice association&#45;&gt;has attribute -->
<g id="edge9" class="edge">
<title>orchestration to componentservice association&#45;&gt;has attribute</title>
<path fill="none" stroke="blue" d="M1353.36,-247.11C1346.59,-242.25 1340.39,-236.24 1336.39,-229 1332.65,-222.2 1331.4,-214.06 1331.35,-206.33"/>
<polygon fill="blue" stroke="blue" points="1334.86,-206.41 1331.92,-196.23 1327.87,-206.02 1334.86,-206.41"/>
<text text-anchor="middle" x="1383.39" y="-217.8" font-family="Times,serif" font-size="14.00">has attribute</text>
</g>
<!-- subject -->
<g id="node11" class="node">
<title>subject</title>
<ellipse fill="none" stroke="blue" cx="1513.39" cy="-178" rx="69.59" ry="18"/>
<text text-anchor="middle" x="1513.39" y="-174.3" font-family="Times,serif" font-size="14.00">named thing</text>
</g>
<!-- orchestration to componentservice association&#45;&gt;subject -->
<g id="edge10" class="edge">
<title>orchestration to componentservice association&#45;&gt;subject</title>
<path fill="none" stroke="blue" d="M1426.97,-247.23C1437.47,-241.94 1448.66,-235.71 1458.39,-229 1469.52,-221.33 1480.74,-211.57 1490.12,-202.72"/>
<polygon fill="blue" stroke="blue" points="1492.77,-205.02 1497.53,-195.56 1487.9,-199.99 1492.77,-205.02"/>
<text text-anchor="middle" x="1502.39" y="-217.8" font-family="Times,serif" font-size="14.00">subject</text>
</g>
<!-- predicate -->
<g id="node12" class="node">
<title>predicate</title>
<ellipse fill="none" stroke="blue" cx="1759.39" cy="-178" rx="77.99" ry="18"/>
<text text-anchor="middle" x="1759.39" y="-174.3" font-family="Times,serif" font-size="14.00">predicate type</text>
</g>
<!-- orchestration to componentservice association&#45;&gt;predicate -->
<g id="edge11" class="edge">
<title>orchestration to componentservice association&#45;&gt;predicate</title>
<path fill="none" stroke="blue" d="M1524.14,-250.44C1559.99,-245.27 1598.45,-238.3 1633.39,-229 1662.21,-221.33 1693.36,-209.01 1717.48,-198.52"/>
<polygon fill="blue" stroke="blue" points="1718.96,-201.69 1726.69,-194.45 1716.13,-195.29 1718.96,-201.69"/>
<text text-anchor="middle" x="1710.39" y="-217.8" font-family="Times,serif" font-size="14.00">predicate</text>
</g>
<!-- relation -->
<g id="node13" class="node">
<title>relation</title>
<ellipse fill="none" stroke="blue" cx="1499.39" cy="-18" rx="57.39" ry="18"/>
<text text-anchor="middle" x="1499.39" y="-14.3" font-family="Times,serif" font-size="14.00">uriorcurie</text>
</g>
<!-- orchestration to componentservice association&#45;&gt;relation -->
<g id="edge12" class="edge">
<title>orchestration to componentservice association&#45;&gt;relation</title>
<path fill="none" stroke="blue" d="M1415.74,-247C1421.55,-241.93 1426.98,-235.87 1430.39,-229 1437.23,-215.24 1430.71,-174.91 1434.39,-160 1444.86,-117.63 1468.09,-72.45 1483.75,-44.97"/>
<polygon fill="blue" stroke="blue" points="1486.95,-46.43 1488.94,-36.02 1480.9,-42.91 1486.95,-46.43"/>
<text text-anchor="middle" x="1473.39" y="-130.8" font-family="Times,serif" font-size="14.00">relation</text>
</g>
<!-- negated -->
<g id="node14" class="node">
<title>negated</title>
<ellipse fill="none" stroke="blue" cx="1902.39" cy="-178" rx="46.59" ry="18"/>
<text text-anchor="middle" x="1902.39" y="-174.3" font-family="Times,serif" font-size="14.00">boolean</text>
</g>
<!-- orchestration to componentservice association&#45;&gt;negated -->
<g id="edge13" class="edge">
<title>orchestration to componentservice association&#45;&gt;negated</title>
<path fill="none" stroke="blue" d="M1546.99,-252C1624.97,-245.38 1710.39,-236.92 1748.39,-229 1787.63,-220.82 1830.93,-206.24 1861.59,-194.93"/>
<polygon fill="blue" stroke="blue" points="1862.94,-198.16 1871.08,-191.39 1860.49,-191.61 1862.94,-198.16"/>
<text text-anchor="middle" x="1833.39" y="-217.8" font-family="Times,serif" font-size="14.00">negated</text>
</g>
<!-- qualifiers -->
<g id="node15" class="node">
<title>qualifiers</title>
<ellipse fill="none" stroke="blue" cx="2043.39" cy="-178" rx="76.89" ry="18"/>
<text text-anchor="middle" x="2043.39" y="-174.3" font-family="Times,serif" font-size="14.00">ontology class</text>
</g>
<!-- orchestration to componentservice association&#45;&gt;qualifiers -->
<g id="edge14" class="edge">
<title>orchestration to componentservice association&#45;&gt;qualifiers</title>
<path fill="none" stroke="blue" d="M1551.04,-252.33C1687.84,-242.42 1862.43,-229.7 1866.39,-229 1909.66,-221.38 1957.53,-207.51 1992.58,-196.31"/>
<polygon fill="blue" stroke="blue" points="1993.67,-199.64 2002.1,-193.23 1991.51,-192.98 1993.67,-199.64"/>
<text text-anchor="middle" x="1964.89" y="-217.8" font-family="Times,serif" font-size="14.00">qualifiers</text>
</g>
<!-- publications -->
<g id="node16" class="node">
<title>publications</title>
<ellipse fill="none" stroke="blue" cx="2200.39" cy="-178" rx="62.29" ry="18"/>
<text text-anchor="middle" x="2200.39" y="-174.3" font-family="Times,serif" font-size="14.00">publication</text>
</g>
<!-- orchestration to componentservice association&#45;&gt;publications -->
<g id="edge15" class="edge">
<title>orchestration to componentservice association&#45;&gt;publications</title>
<path fill="none" stroke="blue" d="M1548.08,-252.09C1574.24,-250.28 1601.07,-248.51 1626.39,-247 1793.4,-237.01 1836.91,-253.6 2002.39,-229 2053.47,-221.41 2110.53,-206.27 2150.22,-194.63"/>
<polygon fill="blue" stroke="blue" points="2151.33,-197.95 2159.92,-191.75 2149.34,-191.24 2151.33,-197.95"/>
<text text-anchor="middle" x="2118.39" y="-217.8" font-family="Times,serif" font-size="14.00">publications</text>
</g>
<!-- type -->
<g id="node17" class="node">
<title>type</title>
<ellipse fill="none" stroke="black" cx="2312.39" cy="-178" rx="31.4" ry="18"/>
<text text-anchor="middle" x="2312.39" y="-174.3" font-family="Times,serif" font-size="14.00">type</text>
</g>
<!-- orchestration to componentservice association&#45;&gt;type -->
<g id="edge16" class="edge">
<title>orchestration to componentservice association&#45;&gt;type</title>
<path fill="none" stroke="blue" d="M1545.83,-251.93C1572.69,-250.1 1600.34,-248.37 1626.39,-247 1746.3,-240.7 2048.04,-249.18 2166.39,-229 2206.5,-222.16 2250.39,-205.85 2279.47,-193.7"/>
<polygon fill="blue" stroke="blue" points="2280.9,-196.89 2288.73,-189.76 2278.16,-190.45 2280.9,-196.89"/>
<text text-anchor="middle" x="2240.39" y="-217.8" font-family="Times,serif" font-size="14.00">type</text>
</g>
<!-- category -->
<g id="node19" class="node">
<title>category</title>
<ellipse fill="none" stroke="black" cx="2413.39" cy="-178" rx="51.19" ry="18"/>
<text text-anchor="middle" x="2413.39" y="-174.3" font-family="Times,serif" font-size="14.00">category</text>
</g>
<!-- orchestration to componentservice association&#45;&gt;category -->
<g id="edge17" class="edge">
<title>orchestration to componentservice association&#45;&gt;category</title>
<path fill="none" stroke="blue" d="M1545.19,-251.86C1572.25,-250.03 1600.13,-248.31 1626.39,-247 1767.16,-239.96 2121.53,-253.14 2260.39,-229 2299.4,-222.22 2342.09,-207.63 2372.44,-195.95"/>
<polygon fill="blue" stroke="blue" points="2373.8,-199.18 2381.84,-192.28 2371.25,-192.66 2373.8,-199.18"/>
<text text-anchor="middle" x="2351.89" y="-217.8" font-family="Times,serif" font-size="14.00">category</text>
</g>
<!-- object -->
<g id="node21" class="node">
<title>object</title>
<ellipse fill="none" stroke="black" cx="1566.39" cy="-91" rx="38.99" ry="18"/>
<text text-anchor="middle" x="1566.39" y="-87.3" font-family="Times,serif" font-size="14.00">object</text>
</g>
<!-- orchestration to componentservice association&#45;&gt;object -->
<g id="edge18" class="edge">
<title>orchestration to componentservice association&#45;&gt;object</title>
<path fill="none" stroke="blue" d="M1508.69,-249.62C1540.9,-239.71 1572.35,-223.24 1592.39,-196 1610.8,-170.99 1615.68,-155.52 1603.39,-127 1601.31,-122.15 1598.18,-117.66 1594.61,-113.62"/>
<polygon fill="blue" stroke="blue" points="1596.93,-110.99 1587.36,-106.44 1592.01,-115.97 1596.93,-110.99"/>
<text text-anchor="middle" x="1632.39" y="-174.3" font-family="Times,serif" font-size="14.00">object</text>
</g>
<!-- subject&#45;&gt;relation -->
<g id="edge20" class="edge">
<title>subject&#45;&gt;relation</title>
<path fill="none" stroke="black" stroke-dasharray="1,5" d="M1511.87,-159.79C1509.45,-132.48 1504.71,-78.99 1501.82,-46.38"/>
<polygon fill="black" stroke="black" points="1505.29,-45.84 1500.92,-36.19 1498.31,-46.46 1505.29,-45.84"/>
</g>
<!-- subject&#45;&gt;object -->
<g id="edge19" class="edge">
<title>subject&#45;&gt;object</title>
<path fill="none" stroke="black" d="M1524.12,-159.8C1531.76,-147.54 1542.16,-130.87 1550.73,-117.13"/>
<polygon fill="black" stroke="black" points="1553.72,-118.93 1556.05,-108.6 1547.78,-115.23 1553.72,-118.93"/>
<text text-anchor="middle" x="1571.39" y="-130.8" font-family="Times,serif" font-size="14.00">relation</text>
</g>
<!-- association_type -->
<g id="node18" class="node">
<title>association_type</title>
<ellipse fill="none" stroke="blue" cx="1673.39" cy="-265" rx="38.19" ry="18"/>
<text text-anchor="middle" x="1673.39" y="-261.3" font-family="Times,serif" font-size="14.00">string</text>
</g>
<!-- association_category -->
<g id="node20" class="node">
<title>association_category</title>
<ellipse fill="none" stroke="blue" cx="1792.39" cy="-265" rx="62.29" ry="18"/>
<text text-anchor="middle" x="1792.39" y="-261.3" font-family="Times,serif" font-size="14.00">association</text>
</g>
<!-- object&#45;&gt;relation -->
<g id="edge21" class="edge">
<title>object&#45;&gt;relation</title>
<path fill="none" stroke="black" stroke-dasharray="1,5" d="M1551.52,-74.24C1542.92,-65.13 1531.92,-53.47 1522.24,-43.21"/>
<polygon fill="black" stroke="black" points="1524.56,-40.57 1515.16,-35.7 1519.47,-45.38 1524.56,-40.57"/>
</g>
<!-- orchestration to componentservice association_object -->
<g id="node22" class="node">
<title>orchestration to componentservice association_object</title>
<ellipse fill="none" stroke="blue" cx="2037.39" cy="-265" rx="164.37" ry="18"/>
<text text-anchor="middle" x="2037.39" y="-261.3" font-family="Times,serif" font-size="14.00">componentservice or servicetype</text>
</g>
</g>
</svg>
