<?xml version="1.0" encoding="UTF-8" standalone="no"?>
<!DOCTYPE svg PUBLIC "-//W3C//DTD SVG 1.1//EN"
 "http://www.w3.org/Graphics/SVG/1.1/DTD/svg11.dtd">
<!-- Generated by graphviz version 2.43.0 (0)
 -->
<!-- Title: %3 Pages: 1 -->
<svg width="2473pt" height="291pt"
 viewBox="0.00 0.00 2472.74 291.00" xmlns="http://www.w3.org/2000/svg" xmlns:xlink="http://www.w3.org/1999/xlink">
<g id="graph0" class="graph" transform="scale(1 1) rotate(0) translate(4 287)">
<title>%3</title>
<polygon fill="white" stroke="transparent" points="-4,4 -4,-287 2468.74,-287 2468.74,4 -4,4"/>
<!-- orchestration to pathway association -->
<g id="node1" class="node">
<title>orchestration to pathway association</title>
<ellipse fill="none" stroke="black" cx="1389.39" cy="-265" rx="182.77" ry="18"/>
<text text-anchor="middle" x="1389.39" y="-261.3" font-family="Times,serif" font-size="14.00">orchestration to pathway association</text>
</g>
<!-- association -->
<g id="node2" class="node">
<title>association</title>
<ellipse fill="none" stroke="black" cx="62.39" cy="-178" rx="62.29" ry="18"/>
<text text-anchor="middle" x="62.39" y="-174.3" font-family="Times,serif" font-size="14.00">association</text>
</g>
<!-- orchestration to pathway association&#45;&gt;association -->
<g id="edge1" class="edge">
<title>orchestration to pathway association&#45;&gt;association</title>
<path fill="none" stroke="black" d="M1216.54,-259.19C1042.23,-253.82 765.48,-243.88 526.39,-229 351.45,-218.11 306.45,-223.82 133.39,-196 128,-195.13 122.4,-194.07 116.83,-192.92"/>
<polygon fill="black" stroke="black" points="117.4,-189.46 106.88,-190.74 115.9,-196.29 117.4,-189.46"/>
<text text-anchor="middle" x="540.39" y="-217.8" font-family="Times,serif" font-size="14.00">is_a</text>
</g>
<!-- orchestration to entity association mixin -->
<g id="node3" class="node">
<title>orchestration to entity association mixin</title>
<ellipse fill="none" stroke="black" cx="341.39" cy="-178" rx="198.76" ry="18"/>
<text text-anchor="middle" x="341.39" y="-174.3" font-family="Times,serif" font-size="14.00">orchestration to entity association mixin</text>
</g>
<!-- orchestration to pathway association&#45;&gt;orchestration to entity association mixin -->
<g id="edge2" class="edge">
<title>orchestration to pathway association&#45;&gt;orchestration to entity association mixin</title>
<path fill="none" stroke="black" d="M1213.61,-260.11C1069.72,-255.77 861.02,-246.87 679.39,-229 597.83,-220.98 505.86,-207.05 438.47,-195.93"/>
<polygon fill="black" stroke="black" points="438.73,-192.43 428.29,-194.24 437.59,-199.33 438.73,-192.43"/>
<text text-anchor="middle" x="695.89" y="-217.8" font-family="Times,serif" font-size="14.00">uses</text>
</g>
<!-- id -->
<g id="node4" class="node">
<title>id</title>
<ellipse fill="none" stroke="blue" cx="596.39" cy="-178" rx="38.19" ry="18"/>
<text text-anchor="middle" x="596.39" y="-174.3" font-family="Times,serif" font-size="14.00">string</text>
</g>
<!-- orchestration to pathway association&#45;&gt;id -->
<g id="edge3" class="edge">
<title>orchestration to pathway association&#45;&gt;id</title>
<path fill="none" stroke="blue" d="M1213.72,-259.99C1097.46,-255.73 941.84,-246.98 805.39,-229 732.98,-219.46 714.77,-215.57 644.39,-196 641.29,-195.14 638.09,-194.17 634.89,-193.15"/>
<polygon fill="blue" stroke="blue" points="635.97,-189.83 625.38,-189.99 633.76,-196.47 635.97,-189.83"/>
<text text-anchor="middle" x="812.39" y="-217.8" font-family="Times,serif" font-size="14.00">id</text>
</g>
<!-- iri -->
<g id="node5" class="node">
<title>iri</title>
<ellipse fill="none" stroke="blue" cx="697.39" cy="-178" rx="44.39" ry="18"/>
<text text-anchor="middle" x="697.39" y="-174.3" font-family="Times,serif" font-size="14.00">iri type</text>
</g>
<!-- orchestration to pathway association&#45;&gt;iri -->
<g id="edge4" class="edge">
<title>orchestration to pathway association&#45;&gt;iri</title>
<path fill="none" stroke="blue" d="M1223.45,-257.47C1130.24,-252.43 1011.97,-243.72 907.39,-229 836.79,-219.06 819.32,-214.25 750.39,-196 747.02,-195.11 743.55,-194.13 740.07,-193.11"/>
<polygon fill="blue" stroke="blue" points="740.9,-189.7 730.32,-190.14 738.87,-196.4 740.9,-189.7"/>
<text text-anchor="middle" x="915.39" y="-217.8" font-family="Times,serif" font-size="14.00">iri</text>
</g>
<!-- name -->
<g id="node6" class="node">
<title>name</title>
<ellipse fill="none" stroke="blue" cx="816.39" cy="-178" rx="56.59" ry="18"/>
<text text-anchor="middle" x="816.39" y="-174.3" font-family="Times,serif" font-size="14.00">label type</text>
</g>
<!-- orchestration to pathway association&#45;&gt;name -->
<g id="edge5" class="edge">
<title>orchestration to pathway association&#45;&gt;name</title>
<path fill="none" stroke="blue" d="M1225.92,-256.89C1153.07,-251.87 1066.49,-243.37 989.39,-229 945.76,-220.86 897.31,-206.37 862.81,-195.08"/>
<polygon fill="blue" stroke="blue" points="863.61,-191.66 853.02,-191.84 861.41,-198.3 863.61,-191.66"/>
<text text-anchor="middle" x="1009.39" y="-217.8" font-family="Times,serif" font-size="14.00">name</text>
</g>
<!-- description -->
<g id="node7" class="node">
<title>description</title>
<ellipse fill="none" stroke="blue" cx="966.39" cy="-178" rx="75.29" ry="18"/>
<text text-anchor="middle" x="966.39" y="-174.3" font-family="Times,serif" font-size="14.00">narrative text</text>
</g>
<!-- orchestration to pathway association&#45;&gt;description -->
<g id="edge6" class="edge">
<title>orchestration to pathway association&#45;&gt;description</title>
<path fill="none" stroke="blue" d="M1227.77,-256.53C1177.33,-251.45 1121.95,-243 1072.39,-229 1048.22,-222.17 1022.71,-210.3 1002.78,-199.84"/>
<polygon fill="blue" stroke="blue" points="1004.22,-196.64 993.75,-195 1000.91,-202.81 1004.22,-196.64"/>
<text text-anchor="middle" x="1112.89" y="-217.8" font-family="Times,serif" font-size="14.00">description</text>
</g>
<!-- source -->
<g id="node8" class="node">
<title>source</title>
<ellipse fill="none" stroke="blue" cx="1116.39" cy="-178" rx="56.59" ry="18"/>
<text text-anchor="middle" x="1116.39" y="-174.3" font-family="Times,serif" font-size="14.00">label type</text>
</g>
<!-- orchestration to pathway association&#45;&gt;source -->
<g id="edge7" class="edge">
<title>orchestration to pathway association&#45;&gt;source</title>
<path fill="none" stroke="blue" d="M1261.01,-252.15C1234.33,-246.99 1206.9,-239.59 1182.39,-229 1167.28,-222.47 1152.47,-211.77 1140.73,-201.94"/>
<polygon fill="blue" stroke="blue" points="1142.97,-199.25 1133.12,-195.34 1138.38,-204.53 1142.97,-199.25"/>
<text text-anchor="middle" x="1206.39" y="-217.8" font-family="Times,serif" font-size="14.00">source</text>
</g>
<!-- provided by -->
<g id="node9" class="node">
<title>provided by</title>
<ellipse fill="none" stroke="blue" cx="1228.39" cy="-178" rx="37.09" ry="18"/>
<text text-anchor="middle" x="1228.39" y="-174.3" font-family="Times,serif" font-size="14.00">agent</text>
</g>
<!-- orchestration to pathway association&#45;&gt;provided by -->
<g id="edge8" class="edge">
<title>orchestration to pathway association&#45;&gt;provided by</title>
<path fill="none" stroke="blue" d="M1297.14,-249.45C1273.41,-244.07 1252.11,-237.24 1243.39,-229 1237.03,-222.98 1233.33,-214.38 1231.19,-206"/>
<polygon fill="blue" stroke="blue" points="1234.61,-205.24 1229.29,-196.08 1227.74,-206.56 1234.61,-205.24"/>
<text text-anchor="middle" x="1285.89" y="-217.8" font-family="Times,serif" font-size="14.00">provided by</text>
</g>
<!-- has attribute -->
<g id="node10" class="node">
<title>has attribute</title>
<ellipse fill="none" stroke="blue" cx="1335.39" cy="-178" rx="51.99" ry="18"/>
<text text-anchor="middle" x="1335.39" y="-174.3" font-family="Times,serif" font-size="14.00">attribute</text>
</g>
<!-- orchestration to pathway association&#45;&gt;has attribute -->
<g id="edge9" class="edge">
<title>orchestration to pathway association&#45;&gt;has attribute</title>
<path fill="none" stroke="blue" d="M1353.63,-247.31C1346.75,-242.41 1340.44,-236.34 1336.39,-229 1332.65,-222.2 1331.4,-214.06 1331.35,-206.33"/>
<polygon fill="blue" stroke="blue" points="1334.86,-206.41 1331.92,-196.23 1327.87,-206.02 1334.86,-206.41"/>
<text text-anchor="middle" x="1383.39" y="-217.8" font-family="Times,serif" font-size="14.00">has attribute</text>
</g>
<!-- subject -->
<g id="node11" class="node">
<title>subject</title>
<ellipse fill="none" stroke="blue" cx="1513.39" cy="-178" rx="69.59" ry="18"/>
<text text-anchor="middle" x="1513.39" y="-174.3" font-family="Times,serif" font-size="14.00">named thing</text>
</g>
<!-- orchestration to pathway association&#45;&gt;subject -->
<g id="edge10" class="edge">
<title>orchestration to pathway association&#45;&gt;subject</title>
<path fill="none" stroke="blue" d="M1426.97,-247.23C1437.47,-241.94 1448.66,-235.71 1458.39,-229 1469.52,-221.33 1480.74,-211.57 1490.12,-202.72"/>
<polygon fill="blue" stroke="blue" points="1492.77,-205.02 1497.53,-195.56 1487.9,-199.99 1492.77,-205.02"/>
<text text-anchor="middle" x="1502.39" y="-217.8" font-family="Times,serif" font-size="14.00">subject</text>
</g>
<!-- predicate -->
<g id="node12" class="node">
<title>predicate</title>
<ellipse fill="none" stroke="blue" cx="1759.39" cy="-178" rx="77.99" ry="18"/>
<text text-anchor="middle" x="1759.39" y="-174.3" font-family="Times,serif" font-size="14.00">predicate type</text>
</g>
<!-- orchestration to pathway association&#45;&gt;predicate -->
<g id="edge11" class="edge">
<title>orchestration to pathway association&#45;&gt;predicate</title>
<path fill="none" stroke="blue" d="M1514.35,-251.82C1552.91,-246.53 1595.24,-239.15 1633.39,-229 1662.21,-221.33 1693.36,-209.01 1717.48,-198.52"/>
<polygon fill="blue" stroke="blue" points="1718.96,-201.69 1726.69,-194.45 1716.13,-195.29 1718.96,-201.69"/>
<text text-anchor="middle" x="1710.39" y="-217.8" font-family="Times,serif" font-size="14.00">predicate</text>
</g>
<!-- relation -->
<g id="node13" class="node">
<title>relation</title>
<ellipse fill="none" stroke="blue" cx="1499.39" cy="-18" rx="57.39" ry="18"/>
<text text-anchor="middle" x="1499.39" y="-14.3" font-family="Times,serif" font-size="14.00">uriorcurie</text>
</g>
<!-- orchestration to pathway association&#45;&gt;relation -->
<g id="edge12" class="edge">
<title>orchestration to pathway association&#45;&gt;relation</title>
<path fill="none" stroke="blue" d="M1415.74,-247C1421.55,-241.93 1426.98,-235.87 1430.39,-229 1437.23,-215.24 1430.71,-174.91 1434.39,-160 1444.86,-117.63 1468.09,-72.45 1483.75,-44.97"/>
<polygon fill="blue" stroke="blue" points="1486.95,-46.43 1488.94,-36.02 1480.9,-42.91 1486.95,-46.43"/>
<text text-anchor="middle" x="1473.39" y="-130.8" font-family="Times,serif" font-size="14.00">relation</text>
</g>
<!-- negated -->
<g id="node14" class="node">
<title>negated</title>
<ellipse fill="none" stroke="blue" cx="1902.39" cy="-178" rx="46.59" ry="18"/>
<text text-anchor="middle" x="1902.39" y="-174.3" font-family="Times,serif" font-size="14.00">boolean</text>
</g>
<!-- orchestration to pathway association&#45;&gt;negated -->
<g id="edge13" class="edge">
<title>orchestration to pathway association&#45;&gt;negated</title>
<path fill="none" stroke="blue" d="M1517.65,-252.15C1616.03,-242.96 1736.92,-231.39 1748.39,-229 1787.63,-220.82 1830.93,-206.24 1861.59,-194.93"/>
<polygon fill="blue" stroke="blue" points="1862.94,-198.16 1871.08,-191.39 1860.49,-191.61 1862.94,-198.16"/>
<text text-anchor="middle" x="1833.39" y="-217.8" font-family="Times,serif" font-size="14.00">negated</text>
</g>
<!-- qualifiers -->
<g id="node15" class="node">
<title>qualifiers</title>
<ellipse fill="none" stroke="blue" cx="2043.39" cy="-178" rx="76.89" ry="18"/>
<text text-anchor="middle" x="2043.39" y="-174.3" font-family="Times,serif" font-size="14.00">ontology class</text>
</g>
<!-- orchestration to pathway association&#45;&gt;qualifiers -->
<g id="edge14" class="edge">
<title>orchestration to pathway association&#45;&gt;qualifiers</title>
<path fill="none" stroke="blue" d="M1517.94,-252.17C1539.13,-250.35 1560.87,-248.56 1581.39,-247 1707.95,-237.4 1741.29,-250.37 1866.39,-229 1909.84,-221.58 1957.89,-207.63 1992.95,-196.34"/>
<polygon fill="blue" stroke="blue" points="1994.05,-199.66 2002.48,-193.24 1991.89,-193.01 1994.05,-199.66"/>
<text text-anchor="middle" x="1964.89" y="-217.8" font-family="Times,serif" font-size="14.00">qualifiers</text>
</g>
<!-- publications -->
<g id="node16" class="node">
<title>publications</title>
<ellipse fill="none" stroke="blue" cx="2200.39" cy="-178" rx="62.29" ry="18"/>
<text text-anchor="middle" x="2200.39" y="-174.3" font-family="Times,serif" font-size="14.00">publication</text>
</g>
<!-- orchestration to pathway association&#45;&gt;publications -->
<g id="edge15" class="edge">
<title>orchestration to pathway association&#45;&gt;publications</title>
<path fill="none" stroke="blue" d="M1515.85,-251.98C1537.69,-250.14 1560.19,-248.39 1581.39,-247 1768.27,-234.74 1817.08,-256.07 2002.39,-229 2053.49,-221.54 2110.54,-206.38 2150.23,-194.7"/>
<polygon fill="blue" stroke="blue" points="2151.34,-198.02 2159.93,-191.81 2149.35,-191.31 2151.34,-198.02"/>
<text text-anchor="middle" x="2118.39" y="-217.8" font-family="Times,serif" font-size="14.00">publications</text>
</g>
<!-- type -->
<g id="node17" class="node">
<title>type</title>
<ellipse fill="none" stroke="black" cx="2312.39" cy="-178" rx="31.4" ry="18"/>
<text text-anchor="middle" x="2312.39" y="-174.3" font-family="Times,serif" font-size="14.00">type</text>
</g>
<!-- orchestration to pathway association&#45;&gt;type -->
<g id="edge16" class="edge">
<title>orchestration to pathway association&#45;&gt;type</title>
<path fill="none" stroke="blue" d="M1514.54,-251.87C1536.79,-250.01 1559.77,-248.29 1581.39,-247 1711.23,-239.26 2038.16,-250.7 2166.39,-229 2206.5,-222.21 2250.4,-205.89 2279.47,-193.73"/>
<polygon fill="blue" stroke="blue" points="2280.91,-196.92 2288.74,-189.78 2278.17,-190.48 2280.91,-196.92"/>
<text text-anchor="middle" x="2240.39" y="-217.8" font-family="Times,serif" font-size="14.00">type</text>
</g>
<!-- category -->
<g id="node19" class="node">
<title>category</title>
<ellipse fill="none" stroke="black" cx="2413.39" cy="-178" rx="51.19" ry="18"/>
<text text-anchor="middle" x="2413.39" y="-174.3" font-family="Times,serif" font-size="14.00">category</text>
</g>
<!-- orchestration to pathway association&#45;&gt;category -->
<g id="edge17" class="edge">
<title>orchestration to pathway association&#45;&gt;category</title>
<path fill="none" stroke="blue" d="M1514.02,-251.84C1536.44,-249.97 1559.6,-248.25 1581.39,-247 1732.09,-238.34 2111.66,-254.71 2260.39,-229 2299.4,-222.26 2342.09,-207.66 2372.44,-195.98"/>
<polygon fill="blue" stroke="blue" points="2373.81,-199.2 2381.84,-192.3 2371.26,-192.68 2373.81,-199.2"/>
<text text-anchor="middle" x="2351.89" y="-217.8" font-family="Times,serif" font-size="14.00">category</text>
</g>
<!-- object -->
<g id="node21" class="node">
<title>object</title>
<ellipse fill="none" stroke="black" cx="1566.39" cy="-91" rx="38.99" ry="18"/>
<text text-anchor="middle" x="1566.39" y="-87.3" font-family="Times,serif" font-size="14.00">object</text>
</g>
<!-- orchestration to pathway association&#45;&gt;object -->
<g id="edge18" class="edge">
<title>orchestration to pathway association&#45;&gt;object</title>
<path fill="none" stroke="blue" d="M1504.18,-250.96C1537.94,-241.22 1571.41,-224.51 1592.39,-196 1610.8,-170.99 1615.68,-155.52 1603.39,-127 1601.31,-122.15 1598.18,-117.66 1594.61,-113.62"/>
<polygon fill="blue" stroke="blue" points="1596.93,-110.99 1587.36,-106.44 1592.01,-115.97 1596.93,-110.99"/>
<text text-anchor="middle" x="1632.39" y="-174.3" font-family="Times,serif" font-size="14.00">object</text>
</g>
<!-- subject&#45;&gt;relation -->
<g id="edge20" class="edge">
<title>subject&#45;&gt;relation</title>
<path fill="none" stroke="black" stroke-dasharray="1,5" d="M1511.87,-159.79C1509.45,-132.48 1504.71,-78.99 1501.82,-46.38"/>
<polygon fill="black" stroke="black" points="1505.29,-45.84 1500.92,-36.19 1498.31,-46.46 1505.29,-45.84"/>
</g>
<!-- subject&#45;&gt;object -->
<g id="edge19" class="edge">
<title>subject&#45;&gt;object</title>
<path fill="none" stroke="black" d="M1524.12,-159.8C1531.76,-147.54 1542.16,-130.87 1550.73,-117.13"/>
<polygon fill="black" stroke="black" points="1553.72,-118.93 1556.05,-108.6 1547.78,-115.23 1553.72,-118.93"/>
<text text-anchor="middle" x="1571.39" y="-130.8" font-family="Times,serif" font-size="14.00">relation</text>
</g>
<!-- association_type -->
<g id="node18" class="node">
<title>association_type</title>
<ellipse fill="none" stroke="blue" cx="1628.39" cy="-265" rx="38.19" ry="18"/>
<text text-anchor="middle" x="1628.39" y="-261.3" font-family="Times,serif" font-size="14.00">string</text>
</g>
<!-- association_category -->
<g id="node20" class="node">
<title>association_category</title>
<ellipse fill="none" stroke="blue" cx="1747.39" cy="-265" rx="62.29" ry="18"/>
<text text-anchor="middle" x="1747.39" y="-261.3" font-family="Times,serif" font-size="14.00">association</text>
</g>
<!-- object&#45;&gt;relation -->
<g id="edge21" class="edge">
<title>object&#45;&gt;relation</title>
<path fill="none" stroke="black" stroke-dasharray="1,5" d="M1551.52,-74.24C1542.92,-65.13 1531.92,-53.47 1522.24,-43.21"/>
<polygon fill="black" stroke="black" points="1524.56,-40.57 1515.16,-35.7 1519.47,-45.38 1524.56,-40.57"/>
</g>
<!-- orchestration to pathway association_object -->
<g id="node22" class="node">
<title>orchestration to pathway association_object</title>
<ellipse fill="none" stroke="blue" cx="1877.39" cy="-265" rx="50.09" ry="18"/>
<text text-anchor="middle" x="1877.39" y="-261.3" font-family="Times,serif" font-size="14.00">pathway</text>
</g>
</g>
</svg>
