<?xml version="1.0" encoding="UTF-8" standalone="no"?>
<!DOCTYPE svg PUBLIC "-//W3C//DTD SVG 1.1//EN"
 "http://www.w3.org/Graphics/SVG/1.1/DTD/svg11.dtd">
<!-- Generated by graphviz version 2.43.0 (0)
 -->
<!-- Title: %3 Pages: 1 -->
<svg width="2842pt" height="291pt"
 viewBox="0.00 0.00 2842.12 291.00" xmlns="http://www.w3.org/2000/svg" xmlns:xlink="http://www.w3.org/1999/xlink">
<g id="graph0" class="graph" transform="scale(1 1) rotate(0) translate(4 287)">
<title>%3</title>
<polygon fill="white" stroke="transparent" points="-4,4 -4,-287 2838.12,-287 2838.12,4 -4,4"/>
<!-- pairwise operationally interaction -->
<g id="node1" class="node">
<title>pairwise operationally interaction</title>
<ellipse fill="none" stroke="black" cx="1617.52" cy="-265" rx="167.87" ry="18"/>
<text text-anchor="middle" x="1617.52" y="-261.3" font-family="Times,serif" font-size="14.00">pairwise operationally interaction</text>
</g>
<!-- pairwise componentservice to componentservice interaction -->
<g id="node2" class="node">
<title>pairwise componentservice to componentservice interaction</title>
<ellipse fill="none" stroke="black" cx="290.52" cy="-178" rx="290.55" ry="18"/>
<text text-anchor="middle" x="290.52" y="-174.3" font-family="Times,serif" font-size="14.00">pairwise componentservice to componentservice interaction</text>
</g>
<!-- pairwise operationally interaction&#45;&gt;pairwise componentservice to componentservice interaction -->
<g id="edge1" class="edge">
<title>pairwise operationally interaction&#45;&gt;pairwise componentservice to componentservice interaction</title>
<path fill="none" stroke="black" d="M1454.07,-260.93C1277.79,-256.82 988.96,-247.74 740.52,-229 631.73,-220.8 508.63,-206.79 418.71,-195.69"/>
<polygon fill="black" stroke="black" points="419.1,-192.21 408.74,-194.45 418.24,-199.15 419.1,-192.21"/>
<text text-anchor="middle" x="754.52" y="-217.8" font-family="Times,serif" font-size="14.00">is_a</text>
</g>
<!-- iri -->
<g id="node3" class="node">
<title>iri</title>
<ellipse fill="none" stroke="blue" cx="643.52" cy="-178" rx="44.39" ry="18"/>
<text text-anchor="middle" x="643.52" y="-174.3" font-family="Times,serif" font-size="14.00">iri type</text>
</g>
<!-- pairwise operationally interaction&#45;&gt;iri -->
<g id="edge2" class="edge">
<title>pairwise operationally interaction&#45;&gt;iri</title>
<path fill="none" stroke="blue" d="M1450.66,-263.15C1298.09,-260.73 1066.43,-252.93 866.52,-229 790.1,-219.85 771.08,-215.12 696.52,-196 693.15,-195.13 689.67,-194.17 686.18,-193.16"/>
<polygon fill="blue" stroke="blue" points="687.01,-189.76 676.43,-190.22 684.99,-196.46 687.01,-189.76"/>
<text text-anchor="middle" x="874.52" y="-217.8" font-family="Times,serif" font-size="14.00">iri</text>
</g>
<!-- name -->
<g id="node4" class="node">
<title>name</title>
<ellipse fill="none" stroke="blue" cx="762.52" cy="-178" rx="56.59" ry="18"/>
<text text-anchor="middle" x="762.52" y="-174.3" font-family="Times,serif" font-size="14.00">label type</text>
</g>
<!-- pairwise operationally interaction&#45;&gt;name -->
<g id="edge3" class="edge">
<title>pairwise operationally interaction&#45;&gt;name</title>
<path fill="none" stroke="blue" d="M1449.93,-264.4C1315.53,-262.49 1122.44,-254.77 955.52,-229 905.44,-221.27 849.51,-206.03 810.81,-194.39"/>
<polygon fill="blue" stroke="blue" points="811.45,-190.93 800.86,-191.37 809.41,-197.63 811.45,-190.93"/>
<text text-anchor="middle" x="975.52" y="-217.8" font-family="Times,serif" font-size="14.00">name</text>
</g>
<!-- description -->
<g id="node5" class="node">
<title>description</title>
<ellipse fill="none" stroke="blue" cx="912.52" cy="-178" rx="75.29" ry="18"/>
<text text-anchor="middle" x="912.52" y="-174.3" font-family="Times,serif" font-size="14.00">narrative text</text>
</g>
<!-- pairwise operationally interaction&#45;&gt;description -->
<g id="edge4" class="edge">
<title>pairwise operationally interaction&#45;&gt;description</title>
<path fill="none" stroke="blue" d="M1458.12,-259.36C1317.59,-254.32 1123.83,-244.81 1048.52,-229 1016.18,-222.21 981.22,-209.22 954.84,-198.19"/>
<polygon fill="blue" stroke="blue" points="956.11,-194.92 945.54,-194.22 953.37,-201.36 956.11,-194.92"/>
<text text-anchor="middle" x="1089.02" y="-217.8" font-family="Times,serif" font-size="14.00">description</text>
</g>
<!-- source -->
<g id="node6" class="node">
<title>source</title>
<ellipse fill="none" stroke="blue" cx="1062.52" cy="-178" rx="56.59" ry="18"/>
<text text-anchor="middle" x="1062.52" y="-174.3" font-family="Times,serif" font-size="14.00">label type</text>
</g>
<!-- pairwise operationally interaction&#45;&gt;source -->
<g id="edge5" class="edge">
<title>pairwise operationally interaction&#45;&gt;source</title>
<path fill="none" stroke="blue" d="M1464.84,-257.54C1358.65,-251.99 1226.94,-242.69 1173.52,-229 1147.13,-222.23 1119.17,-209.6 1097.91,-198.73"/>
<polygon fill="blue" stroke="blue" points="1099.43,-195.57 1088.94,-194.04 1096.19,-201.77 1099.43,-195.57"/>
<text text-anchor="middle" x="1197.52" y="-217.8" font-family="Times,serif" font-size="14.00">source</text>
</g>
<!-- provided by -->
<g id="node7" class="node">
<title>provided by</title>
<ellipse fill="none" stroke="blue" cx="1174.52" cy="-178" rx="37.09" ry="18"/>
<text text-anchor="middle" x="1174.52" y="-174.3" font-family="Times,serif" font-size="14.00">agent</text>
</g>
<!-- pairwise operationally interaction&#45;&gt;provided by -->
<g id="edge6" class="edge">
<title>pairwise operationally interaction&#45;&gt;provided by</title>
<path fill="none" stroke="blue" d="M1469.51,-256.46C1387.52,-250.95 1294.5,-242.12 1255.52,-229 1236.02,-222.43 1216.32,-210.42 1201.23,-199.82"/>
<polygon fill="blue" stroke="blue" points="1203.07,-196.82 1192.92,-193.79 1198.96,-202.49 1203.07,-196.82"/>
<text text-anchor="middle" x="1298.02" y="-217.8" font-family="Times,serif" font-size="14.00">provided by</text>
</g>
<!-- has attribute -->
<g id="node8" class="node">
<title>has attribute</title>
<ellipse fill="none" stroke="blue" cx="1281.52" cy="-178" rx="51.99" ry="18"/>
<text text-anchor="middle" x="1281.52" y="-174.3" font-family="Times,serif" font-size="14.00">attribute</text>
</g>
<!-- pairwise operationally interaction&#45;&gt;has attribute -->
<g id="edge7" class="edge">
<title>pairwise operationally interaction&#45;&gt;has attribute</title>
<path fill="none" stroke="blue" d="M1491.59,-253.04C1455.2,-247.83 1415.81,-240.19 1380.52,-229 1357.5,-221.7 1333.26,-209.54 1314.53,-199.04"/>
<polygon fill="blue" stroke="blue" points="1316.23,-195.98 1305.81,-194.05 1312.75,-202.06 1316.23,-195.98"/>
<text text-anchor="middle" x="1427.52" y="-217.8" font-family="Times,serif" font-size="14.00">has attribute</text>
</g>
<!-- negated -->
<g id="node9" class="node">
<title>negated</title>
<ellipse fill="none" stroke="blue" cx="1398.52" cy="-178" rx="46.59" ry="18"/>
<text text-anchor="middle" x="1398.52" y="-174.3" font-family="Times,serif" font-size="14.00">boolean</text>
</g>
<!-- pairwise operationally interaction&#45;&gt;negated -->
<g id="edge8" class="edge">
<title>pairwise operationally interaction&#45;&gt;negated</title>
<path fill="none" stroke="blue" d="M1565.92,-247.84C1548.81,-242.21 1529.74,-235.63 1512.52,-229 1486.87,-219.12 1458.57,-206.72 1436.59,-196.74"/>
<polygon fill="blue" stroke="blue" points="1437.82,-193.45 1427.27,-192.48 1434.91,-199.82 1437.82,-193.45"/>
<text text-anchor="middle" x="1541.52" y="-217.8" font-family="Times,serif" font-size="14.00">negated</text>
</g>
<!-- qualifiers -->
<g id="node10" class="node">
<title>qualifiers</title>
<ellipse fill="none" stroke="blue" cx="1539.52" cy="-178" rx="76.89" ry="18"/>
<text text-anchor="middle" x="1539.52" y="-174.3" font-family="Times,serif" font-size="14.00">ontology class</text>
</g>
<!-- pairwise operationally interaction&#45;&gt;qualifiers -->
<g id="edge9" class="edge">
<title>pairwise operationally interaction&#45;&gt;qualifiers</title>
<path fill="none" stroke="blue" d="M1601.74,-246.8C1590.35,-234.39 1574.81,-217.46 1562.12,-203.62"/>
<polygon fill="blue" stroke="blue" points="1564.36,-200.89 1555.02,-195.89 1559.2,-205.62 1564.36,-200.89"/>
<text text-anchor="middle" x="1617.02" y="-217.8" font-family="Times,serif" font-size="14.00">qualifiers</text>
</g>
<!-- publications -->
<g id="node11" class="node">
<title>publications</title>
<ellipse fill="none" stroke="blue" cx="1696.52" cy="-178" rx="62.29" ry="18"/>
<text text-anchor="middle" x="1696.52" y="-174.3" font-family="Times,serif" font-size="14.00">publication</text>
</g>
<!-- pairwise operationally interaction&#45;&gt;publications -->
<g id="edge10" class="edge">
<title>pairwise operationally interaction&#45;&gt;publications</title>
<path fill="none" stroke="blue" d="M1636.37,-246.96C1642.32,-241.37 1648.82,-235.05 1654.52,-229 1662.11,-220.96 1670.01,-211.79 1676.88,-203.52"/>
<polygon fill="blue" stroke="blue" points="1679.72,-205.57 1683.36,-195.62 1674.31,-201.13 1679.72,-205.57"/>
<text text-anchor="middle" x="1712.52" y="-217.8" font-family="Times,serif" font-size="14.00">publications</text>
</g>
<!-- type -->
<g id="node12" class="node">
<title>type</title>
<ellipse fill="none" stroke="black" cx="1808.52" cy="-178" rx="31.4" ry="18"/>
<text text-anchor="middle" x="1808.52" y="-174.3" font-family="Times,serif" font-size="14.00">type</text>
</g>
<!-- pairwise operationally interaction&#45;&gt;type -->
<g id="edge11" class="edge">
<title>pairwise operationally interaction&#45;&gt;type</title>
<path fill="none" stroke="blue" d="M1708.62,-249.89C1726.55,-244.89 1744.69,-238.13 1760.52,-229 1771.97,-222.4 1782.43,-212.26 1790.65,-202.83"/>
<polygon fill="blue" stroke="blue" points="1793.58,-204.78 1797.25,-194.84 1788.18,-200.32 1793.58,-204.78"/>
<text text-anchor="middle" x="1796.52" y="-217.8" font-family="Times,serif" font-size="14.00">type</text>
</g>
<!-- category -->
<g id="node14" class="node">
<title>category</title>
<ellipse fill="none" stroke="black" cx="1909.52" cy="-178" rx="51.19" ry="18"/>
<text text-anchor="middle" x="1909.52" y="-174.3" font-family="Times,serif" font-size="14.00">category</text>
</g>
<!-- pairwise operationally interaction&#45;&gt;category -->
<g id="edge12" class="edge">
<title>pairwise operationally interaction&#45;&gt;category</title>
<path fill="none" stroke="blue" d="M1726.53,-251.27C1756.21,-246.07 1788.02,-238.88 1816.52,-229 1837.91,-221.59 1860.3,-209.69 1877.75,-199.36"/>
<polygon fill="blue" stroke="blue" points="1879.65,-202.31 1886.4,-194.14 1876.03,-196.32 1879.65,-202.31"/>
<text text-anchor="middle" x="1883.02" y="-217.8" font-family="Times,serif" font-size="14.00">category</text>
</g>
<!-- interacting tasks category -->
<g id="node16" class="node">
<title>interacting tasks category</title>
<ellipse fill="none" stroke="blue" cx="2055.52" cy="-178" rx="76.89" ry="18"/>
<text text-anchor="middle" x="2055.52" y="-174.3" font-family="Times,serif" font-size="14.00">ontology class</text>
</g>
<!-- pairwise operationally interaction&#45;&gt;interacting tasks category -->
<g id="edge13" class="edge">
<title>pairwise operationally interaction&#45;&gt;interacting tasks category</title>
<path fill="none" stroke="blue" d="M1733.04,-251.93C1810.06,-243.64 1900.4,-233.38 1918.52,-229 1936.98,-224.54 1940.71,-220.56 1958.52,-214 1973.82,-208.37 1990.51,-202.32 2005.66,-196.86"/>
<polygon fill="blue" stroke="blue" points="2007.15,-200.04 2015.37,-193.36 2004.77,-193.46 2007.15,-200.04"/>
<text text-anchor="middle" x="2052.52" y="-217.8" font-family="Times,serif" font-size="14.00">interacting tasks category</text>
</g>
<!-- subject -->
<g id="node17" class="node">
<title>subject</title>
<ellipse fill="none" stroke="black" cx="2232.52" cy="-178" rx="44.39" ry="18"/>
<text text-anchor="middle" x="2232.52" y="-174.3" font-family="Times,serif" font-size="14.00">subject</text>
</g>
<!-- pairwise operationally interaction&#45;&gt;subject -->
<g id="edge14" class="edge">
<title>pairwise operationally interaction&#45;&gt;subject</title>
<path fill="none" stroke="blue" d="M1734.09,-252C1754.23,-250.15 1774.97,-248.4 1794.52,-247 1836.69,-243.98 2135.26,-244.65 2174.52,-229 2188.69,-223.35 2201.82,-212.72 2211.98,-202.71"/>
<polygon fill="blue" stroke="blue" points="2214.73,-204.9 2219.14,-195.27 2209.69,-200.04 2214.73,-204.9"/>
<text text-anchor="middle" x="2224.52" y="-217.8" font-family="Times,serif" font-size="14.00">subject</text>
</g>
<!-- id -->
<g id="node19" class="node">
<title>id</title>
<ellipse fill="none" stroke="black" cx="2424.52" cy="-178" rx="27" ry="18"/>
<text text-anchor="middle" x="2424.52" y="-174.3" font-family="Times,serif" font-size="14.00">id</text>
</g>
<!-- pairwise operationally interaction&#45;&gt;id -->
<g id="edge15" class="edge">
<title>pairwise operationally interaction&#45;&gt;id</title>
<path fill="none" stroke="blue" d="M1732.65,-251.88C1753.23,-250.01 1774.5,-248.29 1794.52,-247 1856.1,-243.05 2290.77,-247.83 2349.52,-229 2368.53,-222.91 2387.21,-210.48 2401.18,-199.53"/>
<polygon fill="blue" stroke="blue" points="2403.68,-202.01 2409.22,-192.98 2399.26,-196.58 2403.68,-202.01"/>
<text text-anchor="middle" x="2387.52" y="-217.8" font-family="Times,serif" font-size="14.00">id</text>
</g>
<!-- predicate -->
<g id="node21" class="node">
<title>predicate</title>
<ellipse fill="none" stroke="black" cx="2524.52" cy="-178" rx="54.69" ry="18"/>
<text text-anchor="middle" x="2524.52" y="-174.3" font-family="Times,serif" font-size="14.00">predicate</text>
</g>
<!-- pairwise operationally interaction&#45;&gt;predicate -->
<g id="edge16" class="edge">
<title>pairwise operationally interaction&#45;&gt;predicate</title>
<path fill="none" stroke="blue" d="M1732.64,-251.83C1753.23,-249.97 1774.5,-248.26 1794.52,-247 1928.54,-238.58 2267.02,-256.17 2398.52,-229 2429.45,-222.61 2462.58,-209.18 2487.1,-197.85"/>
<polygon fill="blue" stroke="blue" points="2488.83,-200.9 2496.38,-193.47 2485.84,-194.57 2488.83,-200.9"/>
<text text-anchor="middle" x="2482.52" y="-217.8" font-family="Times,serif" font-size="14.00">predicate</text>
</g>
<!-- relation -->
<g id="node23" class="node">
<title>relation</title>
<ellipse fill="none" stroke="black" cx="2231.52" cy="-18" rx="46.59" ry="18"/>
<text text-anchor="middle" x="2231.52" y="-14.3" font-family="Times,serif" font-size="14.00">relation</text>
</g>
<!-- pairwise operationally interaction&#45;&gt;relation -->
<g id="edge17" class="edge">
<title>pairwise operationally interaction&#45;&gt;relation</title>
<path fill="none" stroke="blue" d="M1734.09,-252.06C1754.23,-250.21 1774.97,-248.44 1794.52,-247 1833.58,-244.13 2116.22,-253.81 2146.52,-229 2182.72,-199.36 2155.4,-170.54 2172.52,-127 2184.17,-97.38 2202.24,-65.67 2215.32,-44.32"/>
<polygon fill="blue" stroke="blue" points="2218.45,-45.91 2220.75,-35.57 2212.5,-42.22 2218.45,-45.91"/>
<text text-anchor="middle" x="2200.52" y="-130.8" font-family="Times,serif" font-size="14.00">relation</text>
</g>
<!-- object -->
<g id="node25" class="node">
<title>object</title>
<ellipse fill="none" stroke="black" cx="2298.52" cy="-91" rx="38.99" ry="18"/>
<text text-anchor="middle" x="2298.52" y="-87.3" font-family="Times,serif" font-size="14.00">object</text>
</g>
<!-- pairwise operationally interaction&#45;&gt;object -->
<g id="edge18" class="edge">
<title>pairwise operationally interaction&#45;&gt;object</title>
<path fill="none" stroke="blue" d="M1733.13,-251.95C1753.57,-250.09 1774.66,-248.34 1794.52,-247 1845.56,-243.55 2207.99,-250.22 2254.52,-229 2298.93,-208.75 2307.38,-188.71 2321.52,-142 2324.07,-133.59 2321.82,-124.76 2317.88,-116.91"/>
<polygon fill="blue" stroke="blue" points="2320.82,-115 2312.68,-108.22 2314.82,-118.6 2320.82,-115"/>
<text text-anchor="middle" x="2338.52" y="-174.3" font-family="Times,serif" font-size="14.00">object</text>
</g>
<!-- association_type -->
<g id="node13" class="node">
<title>association_type</title>
<ellipse fill="none" stroke="blue" cx="1841.52" cy="-265" rx="38.19" ry="18"/>
<text text-anchor="middle" x="1841.52" y="-261.3" font-family="Times,serif" font-size="14.00">string</text>
</g>
<!-- association_category -->
<g id="node15" class="node">
<title>association_category</title>
<ellipse fill="none" stroke="blue" cx="1960.52" cy="-265" rx="62.29" ry="18"/>
<text text-anchor="middle" x="1960.52" y="-261.3" font-family="Times,serif" font-size="14.00">association</text>
</g>
<!-- subject&#45;&gt;relation -->
<g id="edge20" class="edge">
<title>subject&#45;&gt;relation</title>
<path fill="none" stroke="black" stroke-dasharray="1,5" d="M2232.42,-159.79C2232.24,-132.48 2231.9,-78.99 2231.7,-46.38"/>
<polygon fill="black" stroke="black" points="2235.2,-46.17 2231.63,-36.19 2228.2,-46.21 2235.2,-46.17"/>
</g>
<!-- subject&#45;&gt;object -->
<g id="edge19" class="edge">
<title>subject&#45;&gt;object</title>
<path fill="none" stroke="black" d="M2242.54,-160.29C2248.75,-150.33 2257.13,-137.6 2265.52,-127 2268.75,-122.93 2272.35,-118.77 2275.96,-114.81"/>
<polygon fill="black" stroke="black" points="2278.52,-117.2 2282.81,-107.51 2273.41,-112.41 2278.52,-117.2"/>
<text text-anchor="middle" x="2293.52" y="-130.8" font-family="Times,serif" font-size="14.00">relation</text>
</g>
<!-- pairwise operationally interaction_subject -->
<g id="node18" class="node">
<title>pairwise operationally interaction_subject</title>
<ellipse fill="none" stroke="blue" cx="2134.52" cy="-265" rx="93.68" ry="18"/>
<text text-anchor="middle" x="2134.52" y="-261.3" font-family="Times,serif" font-size="14.00">operational entity</text>
</g>
<!-- pairwise operationally interaction_id -->
<g id="node20" class="node">
<title>pairwise operationally interaction_id</title>
<ellipse fill="none" stroke="blue" cx="2284.52" cy="-265" rx="38.19" ry="18"/>
<text text-anchor="middle" x="2284.52" y="-261.3" font-family="Times,serif" font-size="14.00">string</text>
</g>
<!-- pairwise operationally interaction_predicate -->
<g id="node22" class="node">
<title>pairwise operationally interaction_predicate</title>
<ellipse fill="none" stroke="blue" cx="2418.52" cy="-265" rx="77.99" ry="18"/>
<text text-anchor="middle" x="2418.52" y="-261.3" font-family="Times,serif" font-size="14.00">predicate type</text>
</g>
<!-- pairwise operationally interaction_relation -->
<g id="node24" class="node">
<title>pairwise operationally interaction_relation</title>
<ellipse fill="none" stroke="blue" cx="2571.52" cy="-265" rx="57.39" ry="18"/>
<text text-anchor="middle" x="2571.52" y="-261.3" font-family="Times,serif" font-size="14.00">uriorcurie</text>
</g>
<!-- object&#45;&gt;relation -->
<g id="edge21" class="edge">
<title>object&#45;&gt;relation</title>
<path fill="none" stroke="black" stroke-dasharray="1,5" d="M2283.65,-74.24C2274.93,-65 2263.73,-53.13 2253.95,-42.77"/>
<polygon fill="black" stroke="black" points="2256.23,-40.08 2246.82,-35.21 2251.13,-44.88 2256.23,-40.08"/>
</g>
<!-- pairwise operationally interaction_object -->
<g id="node26" class="node">
<title>pairwise operationally interaction_object</title>
<ellipse fill="none" stroke="blue" cx="2740.52" cy="-265" rx="93.68" ry="18"/>
<text text-anchor="middle" x="2740.52" y="-261.3" font-family="Times,serif" font-size="14.00">operational entity</text>
</g>
</g>
</svg>
