<?xml version="1.0" encoding="UTF-8" standalone="no"?>
<!DOCTYPE svg PUBLIC "-//W3C//DTD SVG 1.1//EN"
 "http://www.w3.org/Graphics/SVG/1.1/DTD/svg11.dtd">
<!-- Generated by graphviz version 2.43.0 (0)
 -->
<!-- Title: %3 Pages: 1 -->
<svg width="2946pt" height="291pt"
 viewBox="0.00 0.00 2946.12 291.00" xmlns="http://www.w3.org/2000/svg" xmlns:xlink="http://www.w3.org/1999/xlink">
<g id="graph0" class="graph" transform="scale(1 1) rotate(0) translate(4 287)">
<title>%3</title>
<polygon fill="white" stroke="transparent" points="-4,4 -4,-287 2942.12,-287 2942.12,4 -4,4"/>
<!-- pairwise componentservice to componentservice interaction -->
<g id="node1" class="node">
<title>pairwise componentservice to componentservice interaction</title>
<ellipse fill="none" stroke="black" cx="1409.93" cy="-265" rx="290.55" ry="18"/>
<text text-anchor="middle" x="1409.93" y="-261.3" font-family="Times,serif" font-size="14.00">pairwise componentservice to componentservice interaction</text>
</g>
<!-- componentservice to componentservice association -->
<g id="node2" class="node">
<title>componentservice to componentservice association</title>
<ellipse fill="none" stroke="black" cx="248.93" cy="-178" rx="248.86" ry="18"/>
<text text-anchor="middle" x="248.93" y="-174.3" font-family="Times,serif" font-size="14.00">componentservice to componentservice association</text>
</g>
<!-- pairwise componentservice to componentservice interaction&#45;&gt;componentservice to componentservice association -->
<g id="edge1" class="edge">
<title>pairwise componentservice to componentservice interaction&#45;&gt;componentservice to componentservice association</title>
<path fill="none" stroke="black" d="M1146.65,-257.32C997.98,-252.22 808.86,-243.51 640.93,-229 546.73,-220.86 440.35,-207 362.2,-195.93"/>
<polygon fill="black" stroke="black" points="362.24,-192.4 351.85,-194.45 361.26,-199.33 362.24,-192.4"/>
<text text-anchor="middle" x="654.93" y="-217.8" font-family="Times,serif" font-size="14.00">is_a</text>
</g>
<!-- id -->
<g id="node3" class="node">
<title>id</title>
<ellipse fill="none" stroke="blue" cx="553.93" cy="-178" rx="38.19" ry="18"/>
<text text-anchor="middle" x="553.93" y="-174.3" font-family="Times,serif" font-size="14.00">string</text>
</g>
<!-- pairwise componentservice to componentservice interaction&#45;&gt;id -->
<g id="edge2" class="edge">
<title>pairwise componentservice to componentservice interaction&#45;&gt;id</title>
<path fill="none" stroke="blue" d="M1138.72,-258.49C1022.08,-253.77 884.43,-245.05 760.93,-229 689.36,-219.7 671.44,-215.43 601.93,-196 598.82,-195.13 595.62,-194.17 592.42,-193.15"/>
<polygon fill="blue" stroke="blue" points="593.51,-189.82 582.92,-189.98 591.3,-196.46 593.51,-189.82"/>
<text text-anchor="middle" x="767.93" y="-217.8" font-family="Times,serif" font-size="14.00">id</text>
</g>
<!-- iri -->
<g id="node4" class="node">
<title>iri</title>
<ellipse fill="none" stroke="blue" cx="654.93" cy="-178" rx="44.39" ry="18"/>
<text text-anchor="middle" x="654.93" y="-174.3" font-family="Times,serif" font-size="14.00">iri type</text>
</g>
<!-- pairwise componentservice to componentservice interaction&#45;&gt;iri -->
<g id="edge3" class="edge">
<title>pairwise componentservice to componentservice interaction&#45;&gt;iri</title>
<path fill="none" stroke="blue" d="M1163.56,-255.44C1070.34,-250.28 963.47,-242.06 866.93,-229 795.41,-219.32 777.72,-214.38 707.93,-196 704.56,-195.11 701.08,-194.14 697.6,-193.12"/>
<polygon fill="blue" stroke="blue" points="698.43,-189.71 687.85,-190.15 696.4,-196.41 698.43,-189.71"/>
<text text-anchor="middle" x="874.93" y="-217.8" font-family="Times,serif" font-size="14.00">iri</text>
</g>
<!-- name -->
<g id="node5" class="node">
<title>name</title>
<ellipse fill="none" stroke="blue" cx="773.93" cy="-178" rx="56.59" ry="18"/>
<text text-anchor="middle" x="773.93" y="-174.3" font-family="Times,serif" font-size="14.00">label type</text>
</g>
<!-- pairwise componentservice to componentservice interaction&#45;&gt;name -->
<g id="edge4" class="edge">
<title>pairwise componentservice to componentservice interaction&#45;&gt;name</title>
<path fill="none" stroke="blue" d="M1170.56,-254.8C1099.5,-249.63 1021.75,-241.57 950.93,-229 905.81,-220.99 855.65,-206.25 820.29,-194.84"/>
<polygon fill="blue" stroke="blue" points="821.31,-191.49 810.72,-191.72 819.14,-198.15 821.31,-191.49"/>
<text text-anchor="middle" x="970.93" y="-217.8" font-family="Times,serif" font-size="14.00">name</text>
</g>
<!-- description -->
<g id="node6" class="node">
<title>description</title>
<ellipse fill="none" stroke="blue" cx="923.93" cy="-178" rx="75.29" ry="18"/>
<text text-anchor="middle" x="923.93" y="-174.3" font-family="Times,serif" font-size="14.00">narrative text</text>
</g>
<!-- pairwise componentservice to componentservice interaction&#45;&gt;description -->
<g id="edge5" class="edge">
<title>pairwise componentservice to componentservice interaction&#45;&gt;description</title>
<path fill="none" stroke="blue" d="M1177.93,-254.16C1130.46,-248.84 1081.19,-240.88 1035.93,-229 1010.09,-222.22 982.68,-210.08 961.45,-199.46"/>
<polygon fill="blue" stroke="blue" points="962.95,-196.3 952.45,-194.87 959.77,-202.53 962.95,-196.3"/>
<text text-anchor="middle" x="1076.43" y="-217.8" font-family="Times,serif" font-size="14.00">description</text>
</g>
<!-- source -->
<g id="node7" class="node">
<title>source</title>
<ellipse fill="none" stroke="blue" cx="1073.93" cy="-178" rx="56.59" ry="18"/>
<text text-anchor="middle" x="1073.93" y="-174.3" font-family="Times,serif" font-size="14.00">label type</text>
</g>
<!-- pairwise componentservice to componentservice interaction&#45;&gt;source -->
<g id="edge6" class="edge">
<title>pairwise componentservice to componentservice interaction&#45;&gt;source</title>
<path fill="none" stroke="blue" d="M1230.01,-250.82C1202.33,-245.69 1174.49,-238.64 1148.93,-229 1131.59,-222.46 1114.24,-211.27 1100.61,-201.13"/>
<polygon fill="blue" stroke="blue" points="1102.69,-198.32 1092.63,-195.01 1098.43,-203.88 1102.69,-198.32"/>
<text text-anchor="middle" x="1172.93" y="-217.8" font-family="Times,serif" font-size="14.00">source</text>
</g>
<!-- provided by -->
<g id="node8" class="node">
<title>provided by</title>
<ellipse fill="none" stroke="blue" cx="1185.93" cy="-178" rx="37.09" ry="18"/>
<text text-anchor="middle" x="1185.93" y="-174.3" font-family="Times,serif" font-size="14.00">agent</text>
</g>
<!-- pairwise componentservice to componentservice interaction&#45;&gt;provided by -->
<g id="edge7" class="edge">
<title>pairwise componentservice to componentservice interaction&#45;&gt;provided by</title>
<path fill="none" stroke="blue" d="M1277.88,-248.95C1250.03,-243.84 1225.54,-237.27 1213.93,-229 1205.71,-223.15 1199.61,-214.1 1195.24,-205.3"/>
<polygon fill="blue" stroke="blue" points="1198.39,-203.75 1191.16,-196 1191.98,-206.57 1198.39,-203.75"/>
<text text-anchor="middle" x="1256.43" y="-217.8" font-family="Times,serif" font-size="14.00">provided by</text>
</g>
<!-- has attribute -->
<g id="node9" class="node">
<title>has attribute</title>
<ellipse fill="none" stroke="blue" cx="1292.93" cy="-178" rx="51.99" ry="18"/>
<text text-anchor="middle" x="1292.93" y="-174.3" font-family="Times,serif" font-size="14.00">attribute</text>
</g>
<!-- pairwise componentservice to componentservice interaction&#45;&gt;has attribute -->
<g id="edge8" class="edge">
<title>pairwise componentservice to componentservice interaction&#45;&gt;has attribute</title>
<path fill="none" stroke="blue" d="M1339.67,-247.44C1329.48,-242.74 1319.8,-236.71 1311.93,-229 1305.61,-222.81 1301.36,-214.3 1298.52,-206.06"/>
<polygon fill="blue" stroke="blue" points="1301.84,-204.95 1295.71,-196.31 1295.12,-206.89 1301.84,-204.95"/>
<text text-anchor="middle" x="1358.93" y="-217.8" font-family="Times,serif" font-size="14.00">has attribute</text>
</g>
<!-- negated -->
<g id="node10" class="node">
<title>negated</title>
<ellipse fill="none" stroke="blue" cx="1409.93" cy="-178" rx="46.59" ry="18"/>
<text text-anchor="middle" x="1409.93" y="-174.3" font-family="Times,serif" font-size="14.00">boolean</text>
</g>
<!-- pairwise componentservice to componentservice interaction&#45;&gt;negated -->
<g id="edge9" class="edge">
<title>pairwise componentservice to componentservice interaction&#45;&gt;negated</title>
<path fill="none" stroke="blue" d="M1409.93,-246.8C1409.93,-235.16 1409.93,-219.55 1409.93,-206.24"/>
<polygon fill="blue" stroke="blue" points="1413.43,-206.18 1409.93,-196.18 1406.43,-206.18 1413.43,-206.18"/>
<text text-anchor="middle" x="1438.93" y="-217.8" font-family="Times,serif" font-size="14.00">negated</text>
</g>
<!-- qualifiers -->
<g id="node11" class="node">
<title>qualifiers</title>
<ellipse fill="none" stroke="blue" cx="1550.93" cy="-178" rx="76.89" ry="18"/>
<text text-anchor="middle" x="1550.93" y="-174.3" font-family="Times,serif" font-size="14.00">ontology class</text>
</g>
<!-- pairwise componentservice to componentservice interaction&#45;&gt;qualifiers -->
<g id="edge10" class="edge">
<title>pairwise componentservice to componentservice interaction&#45;&gt;qualifiers</title>
<path fill="none" stroke="blue" d="M1440.69,-247.04C1450.71,-241.4 1461.85,-235.03 1471.93,-229 1487.01,-219.98 1503.47,-209.64 1517.44,-200.72"/>
<polygon fill="blue" stroke="blue" points="1519.69,-203.43 1526.22,-195.09 1515.91,-197.54 1519.69,-203.43"/>
<text text-anchor="middle" x="1530.43" y="-217.8" font-family="Times,serif" font-size="14.00">qualifiers</text>
</g>
<!-- publications -->
<g id="node12" class="node">
<title>publications</title>
<ellipse fill="none" stroke="blue" cx="1707.93" cy="-178" rx="62.29" ry="18"/>
<text text-anchor="middle" x="1707.93" y="-174.3" font-family="Times,serif" font-size="14.00">publication</text>
</g>
<!-- pairwise componentservice to componentservice interaction&#45;&gt;publications -->
<g id="edge11" class="edge">
<title>pairwise componentservice to componentservice interaction&#45;&gt;publications</title>
<path fill="none" stroke="blue" d="M1492.83,-247.68C1517.19,-242.33 1543.77,-235.96 1567.93,-229 1600.18,-219.71 1635.78,-206.96 1663.02,-196.66"/>
<polygon fill="blue" stroke="blue" points="1664.56,-199.82 1672.65,-192.98 1662.06,-193.28 1664.56,-199.82"/>
<text text-anchor="middle" x="1658.93" y="-217.8" font-family="Times,serif" font-size="14.00">publications</text>
</g>
<!-- type -->
<g id="node13" class="node">
<title>type</title>
<ellipse fill="none" stroke="black" cx="1819.93" cy="-178" rx="31.4" ry="18"/>
<text text-anchor="middle" x="1819.93" y="-174.3" font-family="Times,serif" font-size="14.00">type</text>
</g>
<!-- pairwise componentservice to componentservice interaction&#45;&gt;type -->
<g id="edge12" class="edge">
<title>pairwise componentservice to componentservice interaction&#45;&gt;type</title>
<path fill="none" stroke="blue" d="M1593.78,-251.03C1631.6,-245.94 1670.87,-238.86 1706.93,-229 1735.9,-221.08 1766.98,-206.87 1789.19,-195.61"/>
<polygon fill="blue" stroke="blue" points="1790.86,-198.69 1798.14,-191 1787.65,-192.47 1790.86,-198.69"/>
<text text-anchor="middle" x="1764.93" y="-217.8" font-family="Times,serif" font-size="14.00">type</text>
</g>
<!-- category -->
<g id="node15" class="node">
<title>category</title>
<ellipse fill="none" stroke="black" cx="1920.93" cy="-178" rx="51.19" ry="18"/>
<text text-anchor="middle" x="1920.93" y="-174.3" font-family="Times,serif" font-size="14.00">category</text>
</g>
<!-- pairwise componentservice to componentservice interaction&#45;&gt;category -->
<g id="edge13" class="edge">
<title>pairwise componentservice to componentservice interaction&#45;&gt;category</title>
<path fill="none" stroke="blue" d="M1629.06,-253.15C1680.59,-247.96 1735.03,-240.3 1784.93,-229 1818.36,-221.43 1854.73,-207.75 1881.45,-196.61"/>
<polygon fill="blue" stroke="blue" points="1882.98,-199.76 1890.83,-192.64 1880.25,-193.32 1882.98,-199.76"/>
<text text-anchor="middle" x="1866.43" y="-217.8" font-family="Times,serif" font-size="14.00">category</text>
</g>
<!-- subject -->
<g id="node17" class="node">
<title>subject</title>
<ellipse fill="none" stroke="black" cx="2034.93" cy="-178" rx="44.39" ry="18"/>
<text text-anchor="middle" x="2034.93" y="-174.3" font-family="Times,serif" font-size="14.00">subject</text>
</g>
<!-- pairwise componentservice to componentservice interaction&#45;&gt;subject -->
<g id="edge14" class="edge">
<title>pairwise componentservice to componentservice interaction&#45;&gt;subject</title>
<path fill="none" stroke="blue" d="M1614.82,-252.2C1736.91,-244.67 1873.54,-235.21 1901.93,-229 1935.41,-221.68 1971.72,-207.58 1997.93,-196.21"/>
<polygon fill="blue" stroke="blue" points="1999.37,-199.4 2007.11,-192.16 1996.55,-193 1999.37,-199.4"/>
<text text-anchor="middle" x="1976.93" y="-217.8" font-family="Times,serif" font-size="14.00">subject</text>
</g>
<!-- object -->
<g id="node19" class="node">
<title>object</title>
<ellipse fill="none" stroke="black" cx="2095.93" cy="-91" rx="38.99" ry="18"/>
<text text-anchor="middle" x="2095.93" y="-87.3" font-family="Times,serif" font-size="14.00">object</text>
</g>
<!-- pairwise componentservice to componentservice interaction&#45;&gt;object -->
<g id="edge15" class="edge">
<title>pairwise componentservice to componentservice interaction&#45;&gt;object</title>
<path fill="none" stroke="blue" d="M1615.99,-252.31C1786.65,-242.57 2002.05,-230.1 2006.93,-229 2044.84,-220.41 2062.59,-225.48 2087.93,-196 2105.95,-175.04 2105.32,-142.11 2101.88,-118.93"/>
<polygon fill="blue" stroke="blue" points="2105.32,-118.29 2100.16,-109.04 2098.43,-119.49 2105.32,-118.29"/>
<text text-anchor="middle" x="2124.93" y="-174.3" font-family="Times,serif" font-size="14.00">object</text>
</g>
<!-- predicate -->
<g id="node21" class="node">
<title>predicate</title>
<ellipse fill="none" stroke="black" cx="2231.93" cy="-178" rx="54.69" ry="18"/>
<text text-anchor="middle" x="2231.93" y="-174.3" font-family="Times,serif" font-size="14.00">predicate</text>
</g>
<!-- pairwise componentservice to componentservice interaction&#45;&gt;predicate -->
<g id="edge16" class="edge">
<title>pairwise componentservice to componentservice interaction&#45;&gt;predicate</title>
<path fill="none" stroke="blue" d="M1613.24,-252.1C1645.58,-250.32 1678.67,-248.56 1709.93,-247 1803.01,-242.36 2038.57,-251.83 2128.93,-229 2153.55,-222.78 2179.25,-210.31 2198.82,-199.39"/>
<polygon fill="blue" stroke="blue" points="2200.69,-202.35 2207.63,-194.34 2197.21,-196.27 2200.69,-202.35"/>
<text text-anchor="middle" x="2204.93" y="-217.8" font-family="Times,serif" font-size="14.00">predicate</text>
</g>
<!-- relation -->
<g id="node23" class="node">
<title>relation</title>
<ellipse fill="none" stroke="black" cx="2095.93" cy="-18" rx="46.59" ry="18"/>
<text text-anchor="middle" x="2095.93" y="-14.3" font-family="Times,serif" font-size="14.00">relation</text>
</g>
<!-- pairwise componentservice to componentservice interaction&#45;&gt;relation -->
<g id="edge17" class="edge">
<title>pairwise componentservice to componentservice interaction&#45;&gt;relation</title>
<path fill="none" stroke="blue" d="M1610.8,-251.98C1643.91,-250.18 1677.88,-248.45 1709.93,-247 1769.12,-244.32 2186.24,-246.25 2242.93,-229 2269.48,-220.92 2282.46,-220.26 2295.93,-196 2338.18,-119.93 2210.99,-60.27 2140.09,-33.84"/>
<polygon fill="blue" stroke="blue" points="2141.08,-30.47 2130.49,-30.33 2138.68,-37.05 2141.08,-30.47"/>
<text text-anchor="middle" x="2326.93" y="-130.8" font-family="Times,serif" font-size="14.00">relation</text>
</g>
<!-- association_type -->
<g id="node14" class="node">
<title>association_type</title>
<ellipse fill="none" stroke="blue" cx="1756.93" cy="-265" rx="38.19" ry="18"/>
<text text-anchor="middle" x="1756.93" y="-261.3" font-family="Times,serif" font-size="14.00">string</text>
</g>
<!-- association_category -->
<g id="node16" class="node">
<title>association_category</title>
<ellipse fill="none" stroke="blue" cx="1875.93" cy="-265" rx="62.29" ry="18"/>
<text text-anchor="middle" x="1875.93" y="-261.3" font-family="Times,serif" font-size="14.00">association</text>
</g>
<!-- subject&#45;&gt;object -->
<g id="edge18" class="edge">
<title>subject&#45;&gt;object</title>
<path fill="none" stroke="black" d="M2035.2,-159.57C2036.11,-149.35 2038.59,-136.6 2044.93,-127 2049.16,-120.59 2055,-115.03 2061.23,-110.35"/>
<polygon fill="black" stroke="black" points="2063.53,-113.02 2069.85,-104.51 2059.61,-107.22 2063.53,-113.02"/>
<text text-anchor="middle" x="2072.93" y="-130.8" font-family="Times,serif" font-size="14.00">relation</text>
</g>
<!-- subject&#45;&gt;relation -->
<g id="edge19" class="edge">
<title>subject&#45;&gt;relation</title>
<path fill="none" stroke="black" stroke-dasharray="1,5" d="M2033.53,-159.72C2032.55,-138.15 2033.44,-100.74 2047.93,-73 2053.77,-61.82 2062.43,-51.09 2070.79,-42.19"/>
<polygon fill="black" stroke="black" points="2073.47,-44.45 2077.98,-34.86 2068.47,-39.55 2073.47,-44.45"/>
</g>
<!-- componentservice to componentservice association_subject -->
<g id="node18" class="node">
<title>componentservice to componentservice association_subject</title>
<ellipse fill="none" stroke="blue" cx="2120.93" cy="-265" rx="164.37" ry="18"/>
<text text-anchor="middle" x="2120.93" y="-261.3" font-family="Times,serif" font-size="14.00">componentservice or servicetype</text>
</g>
<!-- object&#45;&gt;relation -->
<g id="edge20" class="edge">
<title>object&#45;&gt;relation</title>
<path fill="none" stroke="black" stroke-dasharray="1,5" d="M2095.93,-72.81C2095.93,-64.79 2095.93,-55.05 2095.93,-46.07"/>
<polygon fill="black" stroke="black" points="2099.43,-46.03 2095.93,-36.03 2092.43,-46.03 2099.43,-46.03"/>
</g>
<!-- componentservice to componentservice association_object -->
<g id="node20" class="node">
<title>componentservice to componentservice association_object</title>
<ellipse fill="none" stroke="blue" cx="2467.93" cy="-265" rx="164.37" ry="18"/>
<text text-anchor="middle" x="2467.93" y="-261.3" font-family="Times,serif" font-size="14.00">componentservice or servicetype</text>
</g>
<!-- pairwise componentservice to componentservice interaction_predicate -->
<g id="node22" class="node">
<title>pairwise componentservice to componentservice interaction_predicate</title>
<ellipse fill="none" stroke="blue" cx="2727.93" cy="-265" rx="77.99" ry="18"/>
<text text-anchor="middle" x="2727.93" y="-261.3" font-family="Times,serif" font-size="14.00">predicate type</text>
</g>
<!-- pairwise componentservice to componentservice interaction_relation -->
<g id="node24" class="node">
<title>pairwise componentservice to componentservice interaction_relation</title>
<ellipse fill="none" stroke="blue" cx="2880.93" cy="-265" rx="57.39" ry="18"/>
<text text-anchor="middle" x="2880.93" y="-261.3" font-family="Times,serif" font-size="14.00">uriorcurie</text>
</g>
</g>
</svg>
