<?xml version="1.0" encoding="UTF-8" standalone="no"?>
<!DOCTYPE svg PUBLIC "-//W3C//DTD SVG 1.1//EN"
 "http://www.w3.org/Graphics/SVG/1.1/DTD/svg11.dtd">
<!-- Generated by graphviz version 2.43.0 (0)
 -->
<!-- Title: %3 Pages: 1 -->
<svg width="1768pt" height="131pt"
 viewBox="0.00 0.00 1767.63 131.00" xmlns="http://www.w3.org/2000/svg" xmlns:xlink="http://www.w3.org/1999/xlink">
<g id="graph0" class="graph" transform="scale(1 1) rotate(0) translate(4 127)">
<title>%3</title>
<polygon fill="white" stroke="transparent" points="-4,4 -4,-127 1763.63,-127 1763.63,4 -4,4"/>
<!-- pathway -->
<g id="node1" class="node">
<title>pathway</title>
<ellipse fill="none" stroke="black" cx="902.69" cy="-105" rx="50.09" ry="18"/>
<text text-anchor="middle" x="902.69" y="-101.3" font-family="Times,serif" font-size="14.00">pathway</text>
</g>
<!-- computational process -->
<g id="node2" class="node">
<title>computational process</title>
<ellipse fill="none" stroke="black" cx="115.69" cy="-18" rx="115.88" ry="18"/>
<text text-anchor="middle" x="115.69" y="-14.3" font-family="Times,serif" font-size="14.00">computational process</text>
</g>
<!-- pathway&#45;&gt;computational process -->
<g id="edge1" class="edge">
<title>pathway&#45;&gt;computational process</title>
<path fill="none" stroke="black" d="M852.89,-102.79C758.88,-100.03 548.95,-91.69 373.69,-69 310.38,-60.8 239.2,-46.63 187.67,-35.46"/>
<polygon fill="black" stroke="black" points="188.15,-31.98 177.63,-33.27 186.66,-38.82 188.15,-31.98"/>
<text text-anchor="middle" x="387.69" y="-57.8" font-family="Times,serif" font-size="14.00">is_a</text>
</g>
<!-- id -->
<g id="node3" class="node">
<title>id</title>
<ellipse fill="none" stroke="blue" cx="287.69" cy="-18" rx="38.19" ry="18"/>
<text text-anchor="middle" x="287.69" y="-14.3" font-family="Times,serif" font-size="14.00">string</text>
</g>
<!-- pathway&#45;&gt;id -->
<g id="edge2" class="edge">
<title>pathway&#45;&gt;id</title>
<path fill="none" stroke="blue" d="M853.43,-101.77C776.07,-97.84 621.51,-88.18 491.69,-69 421.58,-58.64 403.91,-55.2 335.69,-36 332.58,-35.13 329.39,-34.15 326.19,-33.13"/>
<polygon fill="blue" stroke="blue" points="327.28,-29.81 316.68,-29.96 325.06,-36.45 327.28,-29.81"/>
<text text-anchor="middle" x="498.69" y="-57.8" font-family="Times,serif" font-size="14.00">id</text>
</g>
<!-- iri -->
<g id="node4" class="node">
<title>iri</title>
<ellipse fill="none" stroke="blue" cx="388.69" cy="-18" rx="44.39" ry="18"/>
<text text-anchor="middle" x="388.69" y="-14.3" font-family="Times,serif" font-size="14.00">iri type</text>
</g>
<!-- pathway&#45;&gt;iri -->
<g id="edge3" class="edge">
<title>pathway&#45;&gt;iri</title>
<path fill="none" stroke="blue" d="M854.03,-100.59C790.91,-95.73 677.54,-85.54 581.69,-69 519.12,-58.2 503.9,-52.88 442.69,-36 439.12,-35.01 435.42,-33.95 431.72,-32.85"/>
<polygon fill="blue" stroke="blue" points="432.58,-29.45 421.99,-29.9 430.54,-36.15 432.58,-29.45"/>
<text text-anchor="middle" x="589.69" y="-57.8" font-family="Times,serif" font-size="14.00">iri</text>
</g>
<!-- type -->
<g id="node5" class="node">
<title>type</title>
<ellipse fill="none" stroke="blue" cx="489.69" cy="-18" rx="38.19" ry="18"/>
<text text-anchor="middle" x="489.69" y="-14.3" font-family="Times,serif" font-size="14.00">string</text>
</g>
<!-- pathway&#45;&gt;type -->
<g id="edge4" class="edge">
<title>pathway&#45;&gt;type</title>
<path fill="none" stroke="blue" d="M856.25,-98.27C809.26,-92.17 734.62,-81.67 670.69,-69 610.52,-57.08 595.39,-53.79 536.69,-36 533.93,-35.16 531.09,-34.26 528.24,-33.31"/>
<polygon fill="blue" stroke="blue" points="529.21,-29.94 518.61,-30 526.93,-36.56 529.21,-29.94"/>
<text text-anchor="middle" x="686.69" y="-57.8" font-family="Times,serif" font-size="14.00">type</text>
</g>
<!-- name -->
<g id="node6" class="node">
<title>name</title>
<ellipse fill="none" stroke="blue" cx="602.69" cy="-18" rx="56.59" ry="18"/>
<text text-anchor="middle" x="602.69" y="-14.3" font-family="Times,serif" font-size="14.00">label type</text>
</g>
<!-- pathway&#45;&gt;name -->
<g id="edge5" class="edge">
<title>pathway&#45;&gt;name</title>
<path fill="none" stroke="blue" d="M860.43,-95.34C830,-88.83 788.07,-79.29 751.69,-69 716.54,-59.05 677.41,-45.84 648.07,-35.49"/>
<polygon fill="blue" stroke="blue" points="649.11,-32.15 638.52,-32.1 646.77,-38.74 649.11,-32.15"/>
<text text-anchor="middle" x="771.69" y="-57.8" font-family="Times,serif" font-size="14.00">name</text>
</g>
<!-- description -->
<g id="node7" class="node">
<title>description</title>
<ellipse fill="none" stroke="blue" cx="752.69" cy="-18" rx="75.29" ry="18"/>
<text text-anchor="middle" x="752.69" y="-14.3" font-family="Times,serif" font-size="14.00">narrative text</text>
</g>
<!-- pathway&#45;&gt;description -->
<g id="edge6" class="edge">
<title>pathway&#45;&gt;description</title>
<path fill="none" stroke="blue" d="M867.79,-92.03C852.03,-86.02 833.45,-78.09 817.69,-69 804.29,-61.27 790.56,-51.1 779.19,-41.95"/>
<polygon fill="blue" stroke="blue" points="781.31,-39.16 771.37,-35.52 776.87,-44.57 781.31,-39.16"/>
<text text-anchor="middle" x="858.19" y="-57.8" font-family="Times,serif" font-size="14.00">description</text>
</g>
<!-- source -->
<g id="node8" class="node">
<title>source</title>
<ellipse fill="none" stroke="blue" cx="902.69" cy="-18" rx="56.59" ry="18"/>
<text text-anchor="middle" x="902.69" y="-14.3" font-family="Times,serif" font-size="14.00">label type</text>
</g>
<!-- pathway&#45;&gt;source -->
<g id="edge7" class="edge">
<title>pathway&#45;&gt;source</title>
<path fill="none" stroke="blue" d="M902.69,-86.8C902.69,-75.16 902.69,-59.55 902.69,-46.24"/>
<polygon fill="blue" stroke="blue" points="906.19,-46.18 902.69,-36.18 899.19,-46.18 906.19,-46.18"/>
<text text-anchor="middle" x="926.69" y="-57.8" font-family="Times,serif" font-size="14.00">source</text>
</g>
<!-- provided by -->
<g id="node9" class="node">
<title>provided by</title>
<ellipse fill="none" stroke="blue" cx="1014.69" cy="-18" rx="37.09" ry="18"/>
<text text-anchor="middle" x="1014.69" y="-14.3" font-family="Times,serif" font-size="14.00">agent</text>
</g>
<!-- pathway&#45;&gt;provided by -->
<g id="edge8" class="edge">
<title>pathway&#45;&gt;provided by</title>
<path fill="none" stroke="blue" d="M926.08,-88.99C935.16,-82.98 945.55,-75.86 954.69,-69 966.53,-60.12 979.19,-49.72 989.8,-40.71"/>
<polygon fill="blue" stroke="blue" points="992.16,-43.3 997.48,-34.14 987.61,-37.98 992.16,-43.3"/>
<text text-anchor="middle" x="1016.19" y="-57.8" font-family="Times,serif" font-size="14.00">provided by</text>
</g>
<!-- has attribute -->
<g id="node10" class="node">
<title>has attribute</title>
<ellipse fill="none" stroke="blue" cx="1121.69" cy="-18" rx="51.99" ry="18"/>
<text text-anchor="middle" x="1121.69" y="-14.3" font-family="Times,serif" font-size="14.00">attribute</text>
</g>
<!-- pathway&#45;&gt;has attribute -->
<g id="edge9" class="edge">
<title>pathway&#45;&gt;has attribute</title>
<path fill="none" stroke="blue" d="M939.67,-92.71C946.94,-90.67 954.53,-88.67 961.69,-87 1006.1,-76.67 1021.43,-88.41 1062.69,-69 1076.24,-62.62 1089.19,-52.31 1099.48,-42.7"/>
<polygon fill="blue" stroke="blue" points="1102.08,-45.05 1106.8,-35.57 1097.2,-40.04 1102.08,-45.05"/>
<text text-anchor="middle" x="1133.69" y="-57.8" font-family="Times,serif" font-size="14.00">has attribute</text>
</g>
<!-- category -->
<g id="node11" class="node">
<title>category</title>
<ellipse fill="none" stroke="black" cx="1242.69" cy="-18" rx="51.19" ry="18"/>
<text text-anchor="middle" x="1242.69" y="-14.3" font-family="Times,serif" font-size="14.00">category</text>
</g>
<!-- pathway&#45;&gt;category -->
<g id="edge10" class="edge">
<title>pathway&#45;&gt;category</title>
<path fill="none" stroke="blue" d="M938.61,-92.41C946.17,-90.33 954.14,-88.38 961.69,-87 1059.51,-69.15 1092.95,-107.35 1184.69,-69 1198.57,-63.2 1211.51,-52.76 1221.63,-42.91"/>
<polygon fill="blue" stroke="blue" points="1224.31,-45.18 1228.79,-35.58 1219.3,-40.29 1224.31,-45.18"/>
<text text-anchor="middle" x="1240.19" y="-57.8" font-family="Times,serif" font-size="14.00">category</text>
</g>
<!-- has input -->
<g id="node13" class="node">
<title>has input</title>
<ellipse fill="none" stroke="blue" cx="1381.69" cy="-18" rx="69.59" ry="18"/>
<text text-anchor="middle" x="1381.69" y="-14.3" font-family="Times,serif" font-size="14.00">named thing</text>
</g>
<!-- pathway&#45;&gt;has input -->
<g id="edge11" class="edge">
<title>pathway&#45;&gt;has input</title>
<path fill="none" stroke="blue" d="M938.59,-92.28C946.15,-90.2 954.12,-88.29 961.69,-87 1099.49,-63.5 1140.22,-103.45 1275.69,-69 1300.66,-62.65 1326.86,-50.35 1346.96,-39.54"/>
<polygon fill="blue" stroke="blue" points="1348.67,-42.6 1355.74,-34.71 1345.29,-36.46 1348.67,-42.6"/>
<text text-anchor="middle" x="1349.19" y="-57.8" font-family="Times,serif" font-size="14.00">has input</text>
</g>
<!-- has output -->
<g id="node14" class="node">
<title>has output</title>
<ellipse fill="none" stroke="blue" cx="1538.69" cy="-18" rx="69.59" ry="18"/>
<text text-anchor="middle" x="1538.69" y="-14.3" font-family="Times,serif" font-size="14.00">named thing</text>
</g>
<!-- pathway&#45;&gt;has output -->
<g id="edge12" class="edge">
<title>pathway&#45;&gt;has output</title>
<path fill="none" stroke="blue" d="M938.26,-92.28C945.91,-90.17 954.01,-88.25 961.69,-87 1148.29,-56.61 1200.69,-102.86 1386.69,-69 1423.65,-62.27 1463.97,-48.7 1493.79,-37.4"/>
<polygon fill="blue" stroke="blue" points="1495.41,-40.52 1503.48,-33.66 1492.89,-33.99 1495.41,-40.52"/>
<text text-anchor="middle" x="1481.19" y="-57.8" font-family="Times,serif" font-size="14.00">has output</text>
</g>
<!-- enabled by -->
<g id="node15" class="node">
<title>enabled by</title>
<ellipse fill="none" stroke="blue" cx="1692.69" cy="-18" rx="66.89" ry="18"/>
<text text-anchor="middle" x="1692.69" y="-14.3" font-family="Times,serif" font-size="14.00">cyber entity</text>
</g>
<!-- pathway&#45;&gt;enabled by -->
<g id="edge13" class="edge">
<title>pathway&#45;&gt;enabled by</title>
<path fill="none" stroke="blue" d="M938.25,-92.22C945.9,-90.11 954,-88.21 961.69,-87 1208.55,-48.1 1276.97,-108.77 1523.69,-69 1565.89,-62.2 1612.37,-47.93 1645.88,-36.37"/>
<polygon fill="blue" stroke="blue" points="1647.12,-39.64 1655.41,-33.03 1644.81,-33.03 1647.12,-39.64"/>
<text text-anchor="middle" x="1630.19" y="-57.8" font-family="Times,serif" font-size="14.00">enabled by</text>
</g>
<!-- named thing_category -->
<g id="node12" class="node">
<title>named thing_category</title>
<ellipse fill="none" stroke="blue" cx="1040.69" cy="-105" rx="69.59" ry="18"/>
<text text-anchor="middle" x="1040.69" y="-101.3" font-family="Times,serif" font-size="14.00">named thing</text>
</g>
</g>
</svg>
