<?xml version="1.0" encoding="UTF-8" standalone="no"?>
<!DOCTYPE svg PUBLIC "-//W3C//DTD SVG 1.1//EN"
 "http://www.w3.org/Graphics/SVG/1.1/DTD/svg11.dtd">
<!-- Generated by graphviz version 2.43.0 (0)
 -->
<!-- Title: %3 Pages: 1 -->
<svg width="1629pt" height="131pt"
 viewBox="0.00 0.00 1628.69 131.00" xmlns="http://www.w3.org/2000/svg" xmlns:xlink="http://www.w3.org/1999/xlink">
<g id="graph0" class="graph" transform="scale(1 1) rotate(0) translate(4 127)">
<title>%3</title>
<polygon fill="white" stroke="transparent" points="-4,4 -4,-127 1624.69,-127 1624.69,4 -4,4"/>
<!-- population of individual systems -->
<g id="node1" class="node">
<title>population of individual systems</title>
<ellipse fill="none" stroke="black" cx="801.89" cy="-105" rx="161.37" ry="18"/>
<text text-anchor="middle" x="801.89" y="-101.3" font-family="Times,serif" font-size="14.00">population of individual systems</text>
</g>
<!-- systemic entity -->
<g id="node2" class="node">
<title>systemic entity</title>
<ellipse fill="none" stroke="black" cx="81.89" cy="-18" rx="81.79" ry="18"/>
<text text-anchor="middle" x="81.89" y="-14.3" font-family="Times,serif" font-size="14.00">systemic entity</text>
</g>
<!-- population of individual systems&#45;&gt;systemic entity -->
<g id="edge1" class="edge">
<title>population of individual systems&#45;&gt;systemic entity</title>
<path fill="none" stroke="black" d="M668.07,-94.88C587.36,-88.82 482.57,-79.97 389.89,-69 293.02,-57.53 269.08,-52.29 172.89,-36 165.92,-34.82 158.66,-33.54 151.41,-32.24"/>
<polygon fill="black" stroke="black" points="152.03,-28.79 141.56,-30.44 150.77,-35.68 152.03,-28.79"/>
<text text-anchor="middle" x="403.89" y="-57.8" font-family="Times,serif" font-size="14.00">is_a</text>
</g>
<!-- thing with taxon -->
<g id="node3" class="node">
<title>thing with taxon</title>
<ellipse fill="none" stroke="black" cx="268.89" cy="-18" rx="87.18" ry="18"/>
<text text-anchor="middle" x="268.89" y="-14.3" font-family="Times,serif" font-size="14.00">thing with taxon</text>
</g>
<!-- population of individual systems&#45;&gt;thing with taxon -->
<g id="edge2" class="edge">
<title>population of individual systems&#45;&gt;thing with taxon</title>
<path fill="none" stroke="black" d="M681.26,-93.01C625.04,-87.16 557.35,-79.07 496.89,-69 440.85,-59.66 377.8,-45.56 332.23,-34.7"/>
<polygon fill="black" stroke="black" points="333.03,-31.3 322.49,-32.37 331.4,-38.1 333.03,-31.3"/>
<text text-anchor="middle" x="513.39" y="-57.8" font-family="Times,serif" font-size="14.00">uses</text>
</g>
<!-- id -->
<g id="node4" class="node">
<title>id</title>
<ellipse fill="none" stroke="blue" cx="411.89" cy="-18" rx="38.19" ry="18"/>
<text text-anchor="middle" x="411.89" y="-14.3" font-family="Times,serif" font-size="14.00">string</text>
</g>
<!-- population of individual systems&#45;&gt;id -->
<g id="edge3" class="edge">
<title>population of individual systems&#45;&gt;id</title>
<path fill="none" stroke="blue" d="M710.92,-90.1C641.44,-78.48 543.71,-59.96 459.89,-36 456.79,-35.11 453.6,-34.13 450.4,-33.11"/>
<polygon fill="blue" stroke="blue" points="451.49,-29.78 440.9,-29.92 449.27,-36.42 451.49,-29.78"/>
<text text-anchor="middle" x="597.89" y="-57.8" font-family="Times,serif" font-size="14.00">id</text>
</g>
<!-- iri -->
<g id="node5" class="node">
<title>iri</title>
<ellipse fill="none" stroke="blue" cx="512.89" cy="-18" rx="44.39" ry="18"/>
<text text-anchor="middle" x="512.89" y="-14.3" font-family="Times,serif" font-size="14.00">iri type</text>
</g>
<!-- population of individual systems&#45;&gt;iri -->
<g id="edge4" class="edge">
<title>population of individual systems&#45;&gt;iri</title>
<path fill="none" stroke="blue" d="M744.27,-88.1C723.06,-82.19 698.86,-75.37 676.89,-69 627.87,-54.78 615.68,-51 566.89,-36 563.4,-34.93 559.78,-33.81 556.15,-32.67"/>
<polygon fill="blue" stroke="blue" points="557.16,-29.32 546.57,-29.68 555.07,-36.01 557.16,-29.32"/>
<text text-anchor="middle" x="684.89" y="-57.8" font-family="Times,serif" font-size="14.00">iri</text>
</g>
<!-- type -->
<g id="node6" class="node">
<title>type</title>
<ellipse fill="none" stroke="blue" cx="613.89" cy="-18" rx="38.19" ry="18"/>
<text text-anchor="middle" x="613.89" y="-14.3" font-family="Times,serif" font-size="14.00">string</text>
</g>
<!-- population of individual systems&#45;&gt;type -->
<g id="edge5" class="edge">
<title>population of individual systems&#45;&gt;type</title>
<path fill="none" stroke="blue" d="M765.2,-87.41C731.84,-72.33 682.91,-50.2 649.8,-35.23"/>
<polygon fill="blue" stroke="blue" points="651.04,-31.95 640.48,-31.02 648.15,-38.33 651.04,-31.95"/>
<text text-anchor="middle" x="735.89" y="-57.8" font-family="Times,serif" font-size="14.00">type</text>
</g>
<!-- name -->
<g id="node7" class="node">
<title>name</title>
<ellipse fill="none" stroke="blue" cx="726.89" cy="-18" rx="56.59" ry="18"/>
<text text-anchor="middle" x="726.89" y="-14.3" font-family="Times,serif" font-size="14.00">label type</text>
</g>
<!-- population of individual systems&#45;&gt;name -->
<g id="edge6" class="edge">
<title>population of individual systems&#45;&gt;name</title>
<path fill="none" stroke="blue" d="M786.72,-86.8C775.69,-74.31 760.63,-57.24 748.38,-43.35"/>
<polygon fill="blue" stroke="blue" points="750.78,-40.78 741.54,-35.6 745.53,-45.41 750.78,-40.78"/>
<text text-anchor="middle" x="788.89" y="-57.8" font-family="Times,serif" font-size="14.00">name</text>
</g>
<!-- description -->
<g id="node8" class="node">
<title>description</title>
<ellipse fill="none" stroke="blue" cx="876.89" cy="-18" rx="75.29" ry="18"/>
<text text-anchor="middle" x="876.89" y="-14.3" font-family="Times,serif" font-size="14.00">narrative text</text>
</g>
<!-- population of individual systems&#45;&gt;description -->
<g id="edge7" class="edge">
<title>population of individual systems&#45;&gt;description</title>
<path fill="none" stroke="blue" d="M817.07,-86.8C828.02,-74.39 842.96,-57.46 855.17,-43.62"/>
<polygon fill="blue" stroke="blue" points="858,-45.7 861.99,-35.89 852.75,-41.07 858,-45.7"/>
<text text-anchor="middle" x="884.39" y="-57.8" font-family="Times,serif" font-size="14.00">description</text>
</g>
<!-- source -->
<g id="node9" class="node">
<title>source</title>
<ellipse fill="none" stroke="blue" cx="1026.89" cy="-18" rx="56.59" ry="18"/>
<text text-anchor="middle" x="1026.89" y="-14.3" font-family="Times,serif" font-size="14.00">label type</text>
</g>
<!-- population of individual systems&#45;&gt;source -->
<g id="edge8" class="edge">
<title>population of individual systems&#45;&gt;source</title>
<path fill="none" stroke="blue" d="M867.98,-88.51C887.84,-83.13 909.49,-76.53 928.89,-69 950.52,-60.6 973.69,-48.92 992.07,-38.95"/>
<polygon fill="blue" stroke="blue" points="993.86,-41.96 1000.94,-34.07 990.49,-35.83 993.86,-41.96"/>
<text text-anchor="middle" x="986.89" y="-57.8" font-family="Times,serif" font-size="14.00">source</text>
</g>
<!-- provided by -->
<g id="node10" class="node">
<title>provided by</title>
<ellipse fill="none" stroke="blue" cx="1138.89" cy="-18" rx="37.09" ry="18"/>
<text text-anchor="middle" x="1138.89" y="-14.3" font-family="Times,serif" font-size="14.00">agent</text>
</g>
<!-- population of individual systems&#45;&gt;provided by -->
<g id="edge9" class="edge">
<title>population of individual systems&#45;&gt;provided by</title>
<path fill="none" stroke="blue" d="M907.44,-91.36C942.04,-85.97 980.43,-78.65 1014.89,-69 1045.87,-60.32 1079.65,-46.39 1104.12,-35.43"/>
<polygon fill="blue" stroke="blue" points="1105.69,-38.56 1113.35,-31.24 1102.79,-32.19 1105.69,-38.56"/>
<text text-anchor="middle" x="1099.39" y="-57.8" font-family="Times,serif" font-size="14.00">provided by</text>
</g>
<!-- category -->
<g id="node11" class="node">
<title>category</title>
<ellipse fill="none" stroke="black" cx="1244.89" cy="-18" rx="51.19" ry="18"/>
<text text-anchor="middle" x="1244.89" y="-14.3" font-family="Times,serif" font-size="14.00">category</text>
</g>
<!-- population of individual systems&#45;&gt;category -->
<g id="edge10" class="edge">
<title>population of individual systems&#45;&gt;category</title>
<path fill="none" stroke="blue" d="M917.24,-92.39C1016.65,-82.36 1144.49,-69.41 1145.89,-69 1169.24,-62.17 1193.65,-49.91 1212.39,-39.23"/>
<polygon fill="blue" stroke="blue" points="1214.23,-42.21 1221.11,-34.15 1210.71,-36.17 1214.23,-42.21"/>
<text text-anchor="middle" x="1214.39" y="-57.8" font-family="Times,serif" font-size="14.00">category</text>
</g>
<!-- has attribute -->
<g id="node13" class="node">
<title>has attribute</title>
<ellipse fill="none" stroke="black" cx="1385.89" cy="-18" rx="71.49" ry="18"/>
<text text-anchor="middle" x="1385.89" y="-14.3" font-family="Times,serif" font-size="14.00">has attribute</text>
</g>
<!-- population of individual systems&#45;&gt;has attribute -->
<g id="edge11" class="edge">
<title>population of individual systems&#45;&gt;has attribute</title>
<path fill="none" stroke="blue" d="M915.23,-92.11C934.14,-90.28 953.56,-88.51 971.89,-87 1095.29,-76.84 1128.76,-94.63 1249.89,-69 1282.33,-62.14 1317.42,-49.09 1343.83,-38.04"/>
<polygon fill="blue" stroke="blue" points="1345.32,-41.21 1353.15,-34.07 1342.58,-34.77 1345.32,-41.21"/>
<text text-anchor="middle" x="1346.89" y="-57.8" font-family="Times,serif" font-size="14.00">has attribute</text>
</g>
<!-- in taxon -->
<g id="node15" class="node">
<title>in taxon</title>
<ellipse fill="none" stroke="blue" cx="1547.89" cy="-18" rx="72.59" ry="18"/>
<text text-anchor="middle" x="1547.89" y="-14.3" font-family="Times,serif" font-size="14.00">system taxon</text>
</g>
<!-- population of individual systems&#45;&gt;in taxon -->
<g id="edge12" class="edge">
<title>population of individual systems&#45;&gt;in taxon</title>
<path fill="none" stroke="blue" d="M913.38,-91.93C932.86,-90.08 952.96,-88.35 971.89,-87 1160.92,-73.57 1211.52,-103.3 1397.89,-69 1434.28,-62.3 1473.92,-48.8 1503.31,-37.52"/>
<polygon fill="blue" stroke="blue" points="1504.82,-40.68 1512.87,-33.79 1502.28,-34.16 1504.82,-40.68"/>
<text text-anchor="middle" x="1480.89" y="-57.8" font-family="Times,serif" font-size="14.00">in taxon</text>
</g>
<!-- named thing_category -->
<g id="node12" class="node">
<title>named thing_category</title>
<ellipse fill="none" stroke="blue" cx="1050.89" cy="-105" rx="69.59" ry="18"/>
<text text-anchor="middle" x="1050.89" y="-101.3" font-family="Times,serif" font-size="14.00">named thing</text>
</g>
<!-- systemic entity_has attribute -->
<g id="node14" class="node">
<title>systemic entity_has attribute</title>
<ellipse fill="none" stroke="blue" cx="1190.89" cy="-105" rx="51.99" ry="18"/>
<text text-anchor="middle" x="1190.89" y="-101.3" font-family="Times,serif" font-size="14.00">attribute</text>
</g>
</g>
</svg>
