<?xml version="1.0" encoding="UTF-8" standalone="no"?>
<!DOCTYPE svg PUBLIC "-//W3C//DTD SVG 1.1//EN"
 "http://www.w3.org/Graphics/SVG/1.1/DTD/svg11.dtd">
<!-- Generated by graphviz version 2.43.0 (0)
 -->
<!-- Title: %3 Pages: 1 -->
<svg width="1375pt" height="131pt"
 viewBox="0.00 0.00 1374.99 131.00" xmlns="http://www.w3.org/2000/svg" xmlns:xlink="http://www.w3.org/1999/xlink">
<g id="graph0" class="graph" transform="scale(1 1) rotate(0) translate(4 127)">
<title>%3</title>
<polygon fill="white" stroke="transparent" points="-4,4 -4,-127 1370.99,-127 1370.99,4 -4,4"/>
<!-- power -->
<g id="node1" class="node">
<title>power</title>
<ellipse fill="none" stroke="black" cx="662.19" cy="-105" rx="39.79" ry="18"/>
<text text-anchor="middle" x="662.19" y="-101.3" font-family="Times,serif" font-size="14.00">power</text>
</g>
<!-- control actor -->
<g id="node2" class="node">
<title>control actor</title>
<ellipse fill="none" stroke="black" cx="70.19" cy="-18" rx="70.39" ry="18"/>
<text text-anchor="middle" x="70.19" y="-14.3" font-family="Times,serif" font-size="14.00">control actor</text>
</g>
<!-- power&#45;&gt;control actor -->
<g id="edge1" class="edge">
<title>power&#45;&gt;control actor</title>
<path fill="none" stroke="black" d="M623.1,-101.94C555.38,-98.01 411.99,-88.08 292.19,-69 235.61,-59.99 171.89,-45.14 127.27,-33.96"/>
<polygon fill="black" stroke="black" points="128.04,-30.54 117.49,-31.49 126.33,-37.33 128.04,-30.54"/>
<text text-anchor="middle" x="306.19" y="-57.8" font-family="Times,serif" font-size="14.00">is_a</text>
</g>
<!-- id -->
<g id="node3" class="node">
<title>id</title>
<ellipse fill="none" stroke="blue" cx="197.19" cy="-18" rx="38.19" ry="18"/>
<text text-anchor="middle" x="197.19" y="-14.3" font-family="Times,serif" font-size="14.00">string</text>
</g>
<!-- power&#45;&gt;id -->
<g id="edge2" class="edge">
<title>power&#45;&gt;id</title>
<path fill="none" stroke="blue" d="M623.61,-100.68C549.25,-93.62 381.42,-74.54 245.19,-36 242.09,-35.12 238.89,-34.15 235.7,-33.12"/>
<polygon fill="blue" stroke="blue" points="236.78,-29.8 226.19,-29.95 234.57,-36.44 236.78,-29.8"/>
<text text-anchor="middle" x="388.19" y="-57.8" font-family="Times,serif" font-size="14.00">id</text>
</g>
<!-- iri -->
<g id="node4" class="node">
<title>iri</title>
<ellipse fill="none" stroke="blue" cx="298.19" cy="-18" rx="44.39" ry="18"/>
<text text-anchor="middle" x="298.19" y="-14.3" font-family="Times,serif" font-size="14.00">iri type</text>
</g>
<!-- power&#45;&gt;iri -->
<g id="edge3" class="edge">
<title>power&#45;&gt;iri</title>
<path fill="none" stroke="blue" d="M625.73,-97.82C588.5,-91.33 529.1,-80.49 478.19,-69 421.73,-56.25 407.82,-52.03 352.19,-36 348.68,-34.99 345.05,-33.91 341.41,-32.81"/>
<polygon fill="blue" stroke="blue" points="342.41,-29.45 331.82,-29.86 340.35,-36.15 342.41,-29.45"/>
<text text-anchor="middle" x="486.19" y="-57.8" font-family="Times,serif" font-size="14.00">iri</text>
</g>
<!-- type -->
<g id="node5" class="node">
<title>type</title>
<ellipse fill="none" stroke="blue" cx="399.19" cy="-18" rx="38.19" ry="18"/>
<text text-anchor="middle" x="399.19" y="-14.3" font-family="Times,serif" font-size="14.00">string</text>
</g>
<!-- power&#45;&gt;type -->
<g id="edge4" class="edge">
<title>power&#45;&gt;type</title>
<path fill="none" stroke="blue" d="M629.5,-94.78C605.53,-87.93 572.24,-78.21 543.19,-69 499.79,-55.24 489.16,-51.08 446.19,-36 443.51,-35.06 440.74,-34.08 437.95,-33.08"/>
<polygon fill="blue" stroke="blue" points="439.09,-29.78 428.5,-29.7 436.73,-36.37 439.09,-29.78"/>
<text text-anchor="middle" x="559.19" y="-57.8" font-family="Times,serif" font-size="14.00">type</text>
</g>
<!-- name -->
<g id="node6" class="node">
<title>name</title>
<ellipse fill="none" stroke="blue" cx="512.19" cy="-18" rx="56.59" ry="18"/>
<text text-anchor="middle" x="512.19" y="-14.3" font-family="Times,serif" font-size="14.00">label type</text>
</g>
<!-- power&#45;&gt;name -->
<g id="edge5" class="edge">
<title>power&#45;&gt;name</title>
<path fill="none" stroke="blue" d="M638.43,-90.53C613.9,-76.63 575.38,-54.8 547.33,-38.91"/>
<polygon fill="blue" stroke="blue" points="549.05,-35.86 538.63,-33.98 545.6,-41.95 549.05,-35.86"/>
<text text-anchor="middle" x="616.19" y="-57.8" font-family="Times,serif" font-size="14.00">name</text>
</g>
<!-- description -->
<g id="node7" class="node">
<title>description</title>
<ellipse fill="none" stroke="blue" cx="662.19" cy="-18" rx="75.29" ry="18"/>
<text text-anchor="middle" x="662.19" y="-14.3" font-family="Times,serif" font-size="14.00">narrative text</text>
</g>
<!-- power&#45;&gt;description -->
<g id="edge6" class="edge">
<title>power&#45;&gt;description</title>
<path fill="none" stroke="blue" d="M662.19,-86.8C662.19,-75.16 662.19,-59.55 662.19,-46.24"/>
<polygon fill="blue" stroke="blue" points="665.69,-46.18 662.19,-36.18 658.69,-46.18 665.69,-46.18"/>
<text text-anchor="middle" x="702.69" y="-57.8" font-family="Times,serif" font-size="14.00">description</text>
</g>
<!-- source -->
<g id="node8" class="node">
<title>source</title>
<ellipse fill="none" stroke="blue" cx="812.19" cy="-18" rx="56.59" ry="18"/>
<text text-anchor="middle" x="812.19" y="-14.3" font-family="Times,serif" font-size="14.00">label type</text>
</g>
<!-- power&#45;&gt;source -->
<g id="edge7" class="edge">
<title>power&#45;&gt;source</title>
<path fill="none" stroke="blue" d="M693.01,-93.57C709.57,-87.41 730.05,-78.89 747.19,-69 760.79,-61.16 774.73,-50.8 786.2,-41.54"/>
<polygon fill="blue" stroke="blue" points="788.58,-44.11 794.07,-35.05 784.13,-38.71 788.58,-44.11"/>
<text text-anchor="middle" x="794.19" y="-57.8" font-family="Times,serif" font-size="14.00">source</text>
</g>
<!-- provided by -->
<g id="node9" class="node">
<title>provided by</title>
<ellipse fill="none" stroke="blue" cx="924.19" cy="-18" rx="37.09" ry="18"/>
<text text-anchor="middle" x="924.19" y="-14.3" font-family="Times,serif" font-size="14.00">agent</text>
</g>
<!-- power&#45;&gt;provided by -->
<g id="edge8" class="edge">
<title>power&#45;&gt;provided by</title>
<path fill="none" stroke="blue" d="M691.38,-92.72C697.53,-90.61 704.03,-88.57 710.19,-87 759.04,-74.53 774.14,-84.26 822.19,-69 846.86,-61.17 873.04,-48.23 892.7,-37.47"/>
<polygon fill="blue" stroke="blue" points="894.48,-40.48 901.51,-32.56 891.08,-34.37 894.48,-40.48"/>
<text text-anchor="middle" x="902.69" y="-57.8" font-family="Times,serif" font-size="14.00">provided by</text>
</g>
<!-- has attribute -->
<g id="node10" class="node">
<title>has attribute</title>
<ellipse fill="none" stroke="blue" cx="1031.19" cy="-18" rx="51.99" ry="18"/>
<text text-anchor="middle" x="1031.19" y="-14.3" font-family="Times,serif" font-size="14.00">attribute</text>
</g>
<!-- power&#45;&gt;has attribute -->
<g id="edge9" class="edge">
<title>power&#45;&gt;has attribute</title>
<path fill="none" stroke="blue" d="M690.77,-92.49C697.08,-90.34 703.79,-88.35 710.19,-87 814.43,-65.03 847.79,-101.63 949.19,-69 968.43,-62.81 987.84,-51.27 1002.94,-40.84"/>
<polygon fill="blue" stroke="blue" points="1005.19,-43.53 1011.29,-34.87 1001.12,-37.83 1005.19,-43.53"/>
<text text-anchor="middle" x="1028.19" y="-57.8" font-family="Times,serif" font-size="14.00">has attribute</text>
</g>
<!-- category -->
<g id="node11" class="node">
<title>category</title>
<ellipse fill="none" stroke="black" cx="1152.19" cy="-18" rx="51.19" ry="18"/>
<text text-anchor="middle" x="1152.19" y="-14.3" font-family="Times,serif" font-size="14.00">category</text>
</g>
<!-- power&#45;&gt;category -->
<g id="edge10" class="edge">
<title>power&#45;&gt;category</title>
<path fill="none" stroke="blue" d="M690.75,-92.36C697.06,-90.22 703.78,-88.26 710.19,-87 790.74,-71.13 1001.38,-95.19 1079.19,-69 1096.51,-63.17 1113.5,-51.97 1126.72,-41.64"/>
<polygon fill="blue" stroke="blue" points="1129.28,-44.07 1134.83,-35.04 1124.86,-38.63 1129.28,-44.07"/>
<text text-anchor="middle" x="1139.69" y="-57.8" font-family="Times,serif" font-size="14.00">category</text>
</g>
<!-- in taxon -->
<g id="node13" class="node">
<title>in taxon</title>
<ellipse fill="none" stroke="blue" cx="1294.19" cy="-18" rx="72.59" ry="18"/>
<text text-anchor="middle" x="1294.19" y="-14.3" font-family="Times,serif" font-size="14.00">system taxon</text>
</g>
<!-- power&#45;&gt;in taxon -->
<g id="edge11" class="edge">
<title>power&#45;&gt;in taxon</title>
<path fill="none" stroke="blue" d="M690.74,-92.31C697.05,-90.17 703.77,-88.23 710.19,-87 913.31,-48.03 973.28,-113.78 1175.19,-69 1203.46,-62.73 1233.5,-50.06 1256.33,-39.04"/>
<polygon fill="blue" stroke="blue" points="1257.92,-42.16 1265.34,-34.6 1254.82,-35.88 1257.92,-42.16"/>
<text text-anchor="middle" x="1251.19" y="-57.8" font-family="Times,serif" font-size="14.00">in taxon</text>
</g>
<!-- named thing_category -->
<g id="node12" class="node">
<title>named thing_category</title>
<ellipse fill="none" stroke="blue" cx="789.19" cy="-105" rx="69.59" ry="18"/>
<text text-anchor="middle" x="789.19" y="-101.3" font-family="Times,serif" font-size="14.00">named thing</text>
</g>
</g>
</svg>
