<?xml version="1.0" encoding="UTF-8" standalone="no"?>
<!DOCTYPE svg PUBLIC "-//W3C//DTD SVG 1.1//EN"
 "http://www.w3.org/Graphics/SVG/1.1/DTD/svg11.dtd">
<!-- Generated by graphviz version 2.43.0 (0)
 -->
<!-- Title: %3 Pages: 1 -->
<svg width="1224pt" height="131pt"
 viewBox="0.00 0.00 1224.04 131.00" xmlns="http://www.w3.org/2000/svg" xmlns:xlink="http://www.w3.org/1999/xlink">
<g id="graph0" class="graph" transform="scale(1 1) rotate(0) translate(4 127)">
<title>%3</title>
<polygon fill="white" stroke="transparent" points="-4,4 -4,-127 1220.04,-127 1220.04,4 -4,4"/>
<!-- relationship type -->
<g id="node1" class="node">
<title>relationship type</title>
<ellipse fill="none" stroke="black" cx="599.69" cy="-105" rx="89.88" ry="18"/>
<text text-anchor="middle" x="599.69" y="-101.3" font-family="Times,serif" font-size="14.00">relationship type</text>
</g>
<!-- ontology class -->
<g id="node2" class="node">
<title>ontology class</title>
<ellipse fill="none" stroke="black" cx="76.69" cy="-18" rx="76.89" ry="18"/>
<text text-anchor="middle" x="76.69" y="-14.3" font-family="Times,serif" font-size="14.00">ontology class</text>
</g>
<!-- relationship type&#45;&gt;ontology class -->
<g id="edge1" class="edge">
<title>relationship type&#45;&gt;ontology class</title>
<path fill="none" stroke="black" d="M519.47,-96.94C458.86,-91.05 373.75,-81.59 299.69,-69 243.87,-59.51 180.99,-45.07 136.26,-34.14"/>
<polygon fill="black" stroke="black" points="136.98,-30.71 126.44,-31.72 135.31,-37.51 136.98,-30.71"/>
<text text-anchor="middle" x="313.69" y="-57.8" font-family="Times,serif" font-size="14.00">is_a</text>
</g>
<!-- id -->
<g id="node3" class="node">
<title>id</title>
<ellipse fill="none" stroke="blue" cx="209.69" cy="-18" rx="38.19" ry="18"/>
<text text-anchor="middle" x="209.69" y="-14.3" font-family="Times,serif" font-size="14.00">string</text>
</g>
<!-- relationship type&#45;&gt;id -->
<g id="edge2" class="edge">
<title>relationship type&#45;&gt;id</title>
<path fill="none" stroke="blue" d="M530.12,-93.61C460.44,-82.41 350.53,-62.54 257.69,-36 254.59,-35.11 251.4,-34.13 248.2,-33.11"/>
<polygon fill="blue" stroke="blue" points="249.29,-29.78 238.7,-29.92 247.07,-36.42 249.29,-29.78"/>
<text text-anchor="middle" x="395.69" y="-57.8" font-family="Times,serif" font-size="14.00">id</text>
</g>
<!-- iri -->
<g id="node4" class="node">
<title>iri</title>
<ellipse fill="none" stroke="blue" cx="310.69" cy="-18" rx="44.39" ry="18"/>
<text text-anchor="middle" x="310.69" y="-14.3" font-family="Times,serif" font-size="14.00">iri type</text>
</g>
<!-- relationship type&#45;&gt;iri -->
<g id="edge3" class="edge">
<title>relationship type&#45;&gt;iri</title>
<path fill="none" stroke="blue" d="M549.15,-90.08C526.37,-83.74 499.15,-76.09 474.69,-69 425.67,-54.78 413.48,-51 364.69,-36 361.2,-34.93 357.58,-33.81 353.95,-32.67"/>
<polygon fill="blue" stroke="blue" points="354.96,-29.32 344.37,-29.68 352.87,-36.01 354.96,-29.32"/>
<text text-anchor="middle" x="482.69" y="-57.8" font-family="Times,serif" font-size="14.00">iri</text>
</g>
<!-- type -->
<g id="node5" class="node">
<title>type</title>
<ellipse fill="none" stroke="blue" cx="411.69" cy="-18" rx="38.19" ry="18"/>
<text text-anchor="middle" x="411.69" y="-14.3" font-family="Times,serif" font-size="14.00">string</text>
</g>
<!-- relationship type&#45;&gt;type -->
<g id="edge4" class="edge">
<title>relationship type&#45;&gt;type</title>
<path fill="none" stroke="blue" d="M564.77,-88.21C531.43,-73.14 481.41,-50.52 447.71,-35.28"/>
<polygon fill="blue" stroke="blue" points="448.79,-31.93 438.23,-31 445.9,-38.31 448.79,-31.93"/>
<text text-anchor="middle" x="533.69" y="-57.8" font-family="Times,serif" font-size="14.00">type</text>
</g>
<!-- name -->
<g id="node6" class="node">
<title>name</title>
<ellipse fill="none" stroke="blue" cx="524.69" cy="-18" rx="56.59" ry="18"/>
<text text-anchor="middle" x="524.69" y="-14.3" font-family="Times,serif" font-size="14.00">label type</text>
</g>
<!-- relationship type&#45;&gt;name -->
<g id="edge5" class="edge">
<title>relationship type&#45;&gt;name</title>
<path fill="none" stroke="blue" d="M584.88,-87.21C573.81,-74.67 558.53,-57.35 546.14,-43.3"/>
<polygon fill="blue" stroke="blue" points="548.47,-40.65 539.22,-35.47 543.22,-45.28 548.47,-40.65"/>
<text text-anchor="middle" x="586.69" y="-57.8" font-family="Times,serif" font-size="14.00">name</text>
</g>
<!-- description -->
<g id="node7" class="node">
<title>description</title>
<ellipse fill="none" stroke="blue" cx="674.69" cy="-18" rx="75.29" ry="18"/>
<text text-anchor="middle" x="674.69" y="-14.3" font-family="Times,serif" font-size="14.00">narrative text</text>
</g>
<!-- relationship type&#45;&gt;description -->
<g id="edge6" class="edge">
<title>relationship type&#45;&gt;description</title>
<path fill="none" stroke="blue" d="M614.51,-87.21C625.5,-74.75 640.66,-57.57 653.01,-43.57"/>
<polygon fill="blue" stroke="blue" points="655.91,-45.57 659.91,-35.76 650.67,-40.94 655.91,-45.57"/>
<text text-anchor="middle" x="682.19" y="-57.8" font-family="Times,serif" font-size="14.00">description</text>
</g>
<!-- source -->
<g id="node8" class="node">
<title>source</title>
<ellipse fill="none" stroke="blue" cx="824.69" cy="-18" rx="56.59" ry="18"/>
<text text-anchor="middle" x="824.69" y="-14.3" font-family="Times,serif" font-size="14.00">label type</text>
</g>
<!-- relationship type&#45;&gt;source -->
<g id="edge7" class="edge">
<title>relationship type&#45;&gt;source</title>
<path fill="none" stroke="blue" d="M656.44,-90.99C678.68,-85.21 704.2,-77.73 726.69,-69 748.32,-60.6 771.49,-48.92 789.87,-38.95"/>
<polygon fill="blue" stroke="blue" points="791.66,-41.96 798.74,-34.07 788.29,-35.83 791.66,-41.96"/>
<text text-anchor="middle" x="784.69" y="-57.8" font-family="Times,serif" font-size="14.00">source</text>
</g>
<!-- provided by -->
<g id="node9" class="node">
<title>provided by</title>
<ellipse fill="none" stroke="blue" cx="936.69" cy="-18" rx="37.09" ry="18"/>
<text text-anchor="middle" x="936.69" y="-14.3" font-family="Times,serif" font-size="14.00">agent</text>
</g>
<!-- relationship type&#45;&gt;provided by -->
<g id="edge8" class="edge">
<title>relationship type&#45;&gt;provided by</title>
<path fill="none" stroke="blue" d="M664.77,-92.56C675.75,-90.67 687.04,-88.76 697.69,-87 748.74,-78.58 762.82,-82.76 812.69,-69 843.71,-60.44 877.49,-46.49 901.94,-35.5"/>
<polygon fill="blue" stroke="blue" points="903.52,-38.63 911.16,-31.3 900.61,-32.26 903.52,-38.63"/>
<text text-anchor="middle" x="897.19" y="-57.8" font-family="Times,serif" font-size="14.00">provided by</text>
</g>
<!-- has attribute -->
<g id="node10" class="node">
<title>has attribute</title>
<ellipse fill="none" stroke="blue" cx="1043.69" cy="-18" rx="51.99" ry="18"/>
<text text-anchor="middle" x="1043.69" y="-14.3" font-family="Times,serif" font-size="14.00">attribute</text>
</g>
<!-- relationship type&#45;&gt;has attribute -->
<g id="edge9" class="edge">
<title>relationship type&#45;&gt;has attribute</title>
<path fill="none" stroke="blue" d="M662.55,-92.15C674.21,-90.22 686.3,-88.4 697.69,-87 806.5,-73.62 837.99,-98.07 943.69,-69 967.5,-62.45 992.33,-50.07 1011.3,-39.27"/>
<polygon fill="blue" stroke="blue" points="1013.24,-42.19 1020.11,-34.12 1009.71,-36.14 1013.24,-42.19"/>
<text text-anchor="middle" x="1028.69" y="-57.8" font-family="Times,serif" font-size="14.00">has attribute</text>
</g>
<!-- category -->
<g id="node11" class="node">
<title>category</title>
<ellipse fill="none" stroke="black" cx="1164.69" cy="-18" rx="51.19" ry="18"/>
<text text-anchor="middle" x="1164.69" y="-14.3" font-family="Times,serif" font-size="14.00">category</text>
</g>
<!-- relationship type&#45;&gt;category -->
<g id="edge10" class="edge">
<title>relationship type&#45;&gt;category</title>
<path fill="none" stroke="blue" d="M662,-91.99C673.82,-90.06 686.11,-88.27 697.69,-87 782.17,-77.72 998.24,-93.25 1079.69,-69 1099.91,-62.98 1120.35,-51.18 1136.12,-40.55"/>
<polygon fill="blue" stroke="blue" points="1138.16,-43.39 1144.37,-34.81 1134.16,-37.65 1138.16,-43.39"/>
<text text-anchor="middle" x="1143.19" y="-57.8" font-family="Times,serif" font-size="14.00">category</text>
</g>
<!-- named thing_category -->
<g id="node12" class="node">
<title>named thing_category</title>
<ellipse fill="none" stroke="blue" cx="776.69" cy="-105" rx="69.59" ry="18"/>
<text text-anchor="middle" x="776.69" y="-101.3" font-family="Times,serif" font-size="14.00">named thing</text>
</g>
</g>
</svg>
