<?xml version="1.0" encoding="UTF-8" standalone="no"?>
<!DOCTYPE svg PUBLIC "-//W3C//DTD SVG 1.1//EN"
 "http://www.w3.org/Graphics/SVG/1.1/DTD/svg11.dtd">
<!-- Generated by graphviz version 2.43.0 (0)
 -->
<!-- Title: %3 Pages: 1 -->
<svg width="2021pt" height="131pt"
 viewBox="0.00 0.00 2020.79 131.00" xmlns="http://www.w3.org/2000/svg" xmlns:xlink="http://www.w3.org/1999/xlink">
<g id="graph0" class="graph" transform="scale(1 1) rotate(0) translate(4 127)">
<title>%3</title>
<polygon fill="white" stroke="transparent" points="-4,4 -4,-127 2016.79,-127 2016.79,4 -4,4"/>
<!-- repairing -->
<g id="node1" class="node">
<title>repairing</title>
<ellipse fill="none" stroke="black" cx="991.54" cy="-105" rx="53.89" ry="18"/>
<text text-anchor="middle" x="991.54" y="-101.3" font-family="Times,serif" font-size="14.00">repairing</text>
</g>
<!-- named thing -->
<g id="node2" class="node">
<title>named thing</title>
<ellipse fill="none" stroke="black" cx="69.54" cy="-18" rx="69.59" ry="18"/>
<text text-anchor="middle" x="69.54" y="-14.3" font-family="Times,serif" font-size="14.00">named thing</text>
</g>
<!-- repairing&#45;&gt;named thing -->
<g id="edge1" class="edge">
<title>repairing&#45;&gt;named thing</title>
<path fill="none" stroke="black" d="M937.53,-103.06C826.64,-100.68 565.43,-92.82 347.54,-69 272.28,-60.77 186.69,-44.28 130.6,-32.49"/>
<polygon fill="black" stroke="black" points="130.98,-28.99 120.47,-30.34 129.53,-35.84 130.98,-28.99"/>
<text text-anchor="middle" x="361.54" y="-57.8" font-family="Times,serif" font-size="14.00">is_a</text>
</g>
<!-- exposure event -->
<g id="node3" class="node">
<title>exposure event</title>
<ellipse fill="none" stroke="black" cx="238.54" cy="-18" rx="81.79" ry="18"/>
<text text-anchor="middle" x="238.54" y="-14.3" font-family="Times,serif" font-size="14.00">exposure event</text>
</g>
<!-- repairing&#45;&gt;exposure event -->
<g id="edge2" class="edge">
<title>repairing&#45;&gt;exposure event</title>
<path fill="none" stroke="black" d="M937.81,-103.3C841.21,-101.41 631.99,-94.47 457.54,-69 402.59,-60.98 341.01,-46.41 297.17,-35.06"/>
<polygon fill="black" stroke="black" points="297.83,-31.61 287.27,-32.47 296.06,-38.38 297.83,-31.61"/>
<text text-anchor="middle" x="474.04" y="-57.8" font-family="Times,serif" font-size="14.00">uses</text>
</g>
<!-- id -->
<g id="node4" class="node">
<title>id</title>
<ellipse fill="none" stroke="blue" cx="376.54" cy="-18" rx="38.19" ry="18"/>
<text text-anchor="middle" x="376.54" y="-14.3" font-family="Times,serif" font-size="14.00">string</text>
</g>
<!-- repairing&#45;&gt;id -->
<g id="edge3" class="edge">
<title>repairing&#45;&gt;id</title>
<path fill="none" stroke="blue" d="M938.42,-101.58C859.87,-97.52 708.24,-87.87 580.54,-69 510.44,-58.64 492.76,-55.2 424.54,-36 421.44,-35.13 418.24,-34.15 415.04,-33.13"/>
<polygon fill="blue" stroke="blue" points="416.13,-29.81 405.54,-29.96 413.91,-36.45 416.13,-29.81"/>
<text text-anchor="middle" x="587.54" y="-57.8" font-family="Times,serif" font-size="14.00">id</text>
</g>
<!-- iri -->
<g id="node5" class="node">
<title>iri</title>
<ellipse fill="none" stroke="blue" cx="477.54" cy="-18" rx="44.39" ry="18"/>
<text text-anchor="middle" x="477.54" y="-14.3" font-family="Times,serif" font-size="14.00">iri type</text>
</g>
<!-- repairing&#45;&gt;iri -->
<g id="edge4" class="edge">
<title>repairing&#45;&gt;iri</title>
<path fill="none" stroke="blue" d="M939.28,-100.31C875.52,-95.35 764.6,-85.23 670.54,-69 607.97,-58.2 592.75,-52.88 531.54,-36 527.97,-35.01 524.28,-33.95 520.58,-32.85"/>
<polygon fill="blue" stroke="blue" points="521.43,-29.45 510.85,-29.9 519.4,-36.15 521.43,-29.45"/>
<text text-anchor="middle" x="678.54" y="-57.8" font-family="Times,serif" font-size="14.00">iri</text>
</g>
<!-- type -->
<g id="node6" class="node">
<title>type</title>
<ellipse fill="none" stroke="blue" cx="578.54" cy="-18" rx="38.19" ry="18"/>
<text text-anchor="middle" x="578.54" y="-14.3" font-family="Times,serif" font-size="14.00">string</text>
</g>
<!-- repairing&#45;&gt;type -->
<g id="edge5" class="edge">
<title>repairing&#45;&gt;type</title>
<path fill="none" stroke="blue" d="M941.99,-97.86C894.86,-91.71 822.08,-81.39 759.54,-69 699.38,-57.08 684.24,-53.79 625.54,-36 622.78,-35.16 619.94,-34.26 617.09,-33.31"/>
<polygon fill="blue" stroke="blue" points="618.06,-29.94 607.47,-30 615.79,-36.56 618.06,-29.94"/>
<text text-anchor="middle" x="775.54" y="-57.8" font-family="Times,serif" font-size="14.00">type</text>
</g>
<!-- name -->
<g id="node7" class="node">
<title>name</title>
<ellipse fill="none" stroke="blue" cx="691.54" cy="-18" rx="56.59" ry="18"/>
<text text-anchor="middle" x="691.54" y="-14.3" font-family="Times,serif" font-size="14.00">label type</text>
</g>
<!-- repairing&#45;&gt;name -->
<g id="edge6" class="edge">
<title>repairing&#45;&gt;name</title>
<path fill="none" stroke="blue" d="M946.99,-94.85C916.77,-88.36 876.02,-79.04 840.54,-69 805.4,-59.05 766.27,-45.84 736.93,-35.49"/>
<polygon fill="blue" stroke="blue" points="737.97,-32.15 727.37,-32.1 735.63,-38.74 737.97,-32.15"/>
<text text-anchor="middle" x="860.54" y="-57.8" font-family="Times,serif" font-size="14.00">name</text>
</g>
<!-- description -->
<g id="node8" class="node">
<title>description</title>
<ellipse fill="none" stroke="blue" cx="841.54" cy="-18" rx="75.29" ry="18"/>
<text text-anchor="middle" x="841.54" y="-14.3" font-family="Times,serif" font-size="14.00">narrative text</text>
</g>
<!-- repairing&#45;&gt;description -->
<g id="edge7" class="edge">
<title>repairing&#45;&gt;description</title>
<path fill="none" stroke="blue" d="M955.4,-91.55C939.91,-85.61 921.89,-77.85 906.54,-69 893.15,-61.27 879.41,-51.1 868.04,-41.95"/>
<polygon fill="blue" stroke="blue" points="870.17,-39.16 860.22,-35.52 865.72,-44.57 870.17,-39.16"/>
<text text-anchor="middle" x="947.04" y="-57.8" font-family="Times,serif" font-size="14.00">description</text>
</g>
<!-- source -->
<g id="node9" class="node">
<title>source</title>
<ellipse fill="none" stroke="blue" cx="991.54" cy="-18" rx="56.59" ry="18"/>
<text text-anchor="middle" x="991.54" y="-14.3" font-family="Times,serif" font-size="14.00">label type</text>
</g>
<!-- repairing&#45;&gt;source -->
<g id="edge8" class="edge">
<title>repairing&#45;&gt;source</title>
<path fill="none" stroke="blue" d="M991.54,-86.8C991.54,-75.16 991.54,-59.55 991.54,-46.24"/>
<polygon fill="blue" stroke="blue" points="995.04,-46.18 991.54,-36.18 988.04,-46.18 995.04,-46.18"/>
<text text-anchor="middle" x="1015.54" y="-57.8" font-family="Times,serif" font-size="14.00">source</text>
</g>
<!-- provided by -->
<g id="node10" class="node">
<title>provided by</title>
<ellipse fill="none" stroke="blue" cx="1103.54" cy="-18" rx="37.09" ry="18"/>
<text text-anchor="middle" x="1103.54" y="-14.3" font-family="Times,serif" font-size="14.00">agent</text>
</g>
<!-- repairing&#45;&gt;provided by -->
<g id="edge9" class="edge">
<title>repairing&#45;&gt;provided by</title>
<path fill="none" stroke="blue" d="M1015.2,-88.82C1024.21,-82.84 1034.49,-75.79 1043.54,-69 1055.39,-60.12 1068.04,-49.72 1078.66,-40.71"/>
<polygon fill="blue" stroke="blue" points="1081.01,-43.3 1086.34,-34.14 1076.46,-37.98 1081.01,-43.3"/>
<text text-anchor="middle" x="1105.04" y="-57.8" font-family="Times,serif" font-size="14.00">provided by</text>
</g>
<!-- has attribute -->
<g id="node11" class="node">
<title>has attribute</title>
<ellipse fill="none" stroke="blue" cx="1210.54" cy="-18" rx="51.99" ry="18"/>
<text text-anchor="middle" x="1210.54" y="-14.3" font-family="Times,serif" font-size="14.00">attribute</text>
</g>
<!-- repairing&#45;&gt;has attribute -->
<g id="edge10" class="edge">
<title>repairing&#45;&gt;has attribute</title>
<path fill="none" stroke="blue" d="M1031.11,-92.61C1038.53,-90.62 1046.25,-88.67 1053.54,-87 1096.72,-77.14 1111.52,-87.96 1151.54,-69 1165.08,-62.59 1178.02,-52.27 1188.32,-42.67"/>
<polygon fill="blue" stroke="blue" points="1190.92,-45.02 1195.64,-35.54 1186.04,-40 1190.92,-45.02"/>
<text text-anchor="middle" x="1222.54" y="-57.8" font-family="Times,serif" font-size="14.00">has attribute</text>
</g>
<!-- category -->
<g id="node12" class="node">
<title>category</title>
<ellipse fill="none" stroke="black" cx="1331.54" cy="-18" rx="51.19" ry="18"/>
<text text-anchor="middle" x="1331.54" y="-14.3" font-family="Times,serif" font-size="14.00">category</text>
</g>
<!-- repairing&#45;&gt;category -->
<g id="edge11" class="edge">
<title>repairing&#45;&gt;category</title>
<path fill="none" stroke="blue" d="M1029.99,-92.27C1037.73,-90.24 1045.85,-88.36 1053.54,-87 1150.16,-69.96 1183.05,-106.89 1273.54,-69 1287.42,-63.19 1300.36,-52.75 1310.48,-42.9"/>
<polygon fill="blue" stroke="blue" points="1313.16,-45.18 1317.64,-35.58 1308.15,-40.28 1313.16,-45.18"/>
<text text-anchor="middle" x="1329.04" y="-57.8" font-family="Times,serif" font-size="14.00">category</text>
</g>
<!-- has administrative operation -->
<g id="node14" class="node">
<title>has administrative operation</title>
<ellipse fill="none" stroke="blue" cx="1526.54" cy="-18" rx="126.18" ry="18"/>
<text text-anchor="middle" x="1526.54" y="-14.3" font-family="Times,serif" font-size="14.00">administrative operation</text>
</g>
<!-- repairing&#45;&gt;has administrative operation -->
<g id="edge12" class="edge">
<title>repairing&#45;&gt;has administrative operation</title>
<path fill="none" stroke="blue" d="M1029.63,-92.21C1037.47,-90.16 1045.72,-88.28 1053.54,-87 1190.17,-64.57 1228.29,-93.6 1364.54,-69 1402.34,-62.18 1443.7,-49.32 1475.17,-38.35"/>
<polygon fill="blue" stroke="blue" points="1476.34,-41.65 1484.6,-35.01 1474.01,-35.05 1476.34,-41.65"/>
<text text-anchor="middle" x="1527.04" y="-57.8" font-family="Times,serif" font-size="14.00">has administrative operation</text>
</g>
<!-- has device -->
<g id="node15" class="node">
<title>has device</title>
<ellipse fill="none" stroke="blue" cx="1710.54" cy="-18" rx="40.09" ry="18"/>
<text text-anchor="middle" x="1710.54" y="-14.3" font-family="Times,serif" font-size="14.00">device</text>
</g>
<!-- repairing&#45;&gt;has device -->
<g id="edge13" class="edge">
<title>repairing&#45;&gt;has device</title>
<path fill="none" stroke="blue" d="M1029.27,-92.13C1037.22,-90.06 1045.6,-88.2 1053.54,-87 1181.28,-67.79 1511.39,-107.97 1634.54,-69 1653,-63.16 1671.2,-51.45 1685.17,-40.83"/>
<polygon fill="blue" stroke="blue" points="1687.6,-43.37 1693.28,-34.42 1683.26,-37.88 1687.6,-43.37"/>
<text text-anchor="middle" x="1704.54" y="-57.8" font-family="Times,serif" font-size="14.00">has device</text>
</g>
<!-- has procedure -->
<g id="node16" class="node">
<title>has procedure</title>
<ellipse fill="none" stroke="blue" cx="1826.54" cy="-18" rx="57.69" ry="18"/>
<text text-anchor="middle" x="1826.54" y="-14.3" font-family="Times,serif" font-size="14.00">procedure</text>
</g>
<!-- repairing&#45;&gt;has procedure -->
<g id="edge14" class="edge">
<title>repairing&#45;&gt;has procedure</title>
<path fill="none" stroke="blue" d="M1029.27,-92.1C1037.21,-90.03 1045.59,-88.18 1053.54,-87 1129.74,-75.73 1672.78,-91.19 1746.54,-69 1765.55,-63.28 1784.5,-51.77 1799.17,-41.23"/>
<polygon fill="blue" stroke="blue" points="1801.36,-43.97 1807.29,-35.19 1797.18,-38.35 1801.36,-43.97"/>
<text text-anchor="middle" x="1831.04" y="-57.8" font-family="Times,serif" font-size="14.00">has procedure</text>
</g>
<!-- timepoint -->
<g id="node17" class="node">
<title>timepoint</title>
<ellipse fill="none" stroke="blue" cx="1957.54" cy="-18" rx="55.49" ry="18"/>
<text text-anchor="middle" x="1957.54" y="-14.3" font-family="Times,serif" font-size="14.00">time type</text>
</g>
<!-- repairing&#45;&gt;timepoint -->
<g id="edge15" class="edge">
<title>repairing&#45;&gt;timepoint</title>
<path fill="none" stroke="blue" d="M1029.27,-92.07C1037.21,-90.01 1045.59,-88.16 1053.54,-87 1145.15,-73.66 1798.6,-97.91 1886.54,-69 1903.58,-63.4 1920.11,-52.21 1932.93,-41.83"/>
<polygon fill="blue" stroke="blue" points="1935.41,-44.32 1940.79,-35.2 1930.89,-38.98 1935.41,-44.32"/>
<text text-anchor="middle" x="1950.54" y="-57.8" font-family="Times,serif" font-size="14.00">timepoint</text>
</g>
<!-- named thing_category -->
<g id="node13" class="node">
<title>named thing_category</title>
<ellipse fill="none" stroke="blue" cx="1132.54" cy="-105" rx="69.59" ry="18"/>
<text text-anchor="middle" x="1132.54" y="-101.3" font-family="Times,serif" font-size="14.00">named thing</text>
</g>
</g>
</svg>
