<?xml version="1.0" encoding="UTF-8" standalone="no"?>
<!DOCTYPE svg PUBLIC "-//W3C//DTD SVG 1.1//EN"
 "http://www.w3.org/Graphics/SVG/1.1/DTD/svg11.dtd">
<!-- Generated by graphviz version 2.43.0 (0)
 -->
<!-- Title: %3 Pages: 1 -->
<svg width="3047pt" height="291pt"
 viewBox="0.00 0.00 3046.74 291.00" xmlns="http://www.w3.org/2000/svg" xmlns:xlink="http://www.w3.org/1999/xlink">
<g id="graph0" class="graph" transform="scale(1 1) rotate(0) translate(4 287)">
<title>%3</title>
<polygon fill="white" stroke="transparent" points="-4,4 -4,-287 3042.74,-287 3042.74,4 -4,4"/>
<!-- resource sample to error or observable feature association -->
<g id="node1" class="node">
<title>resource sample to error or observable feature association</title>
<ellipse fill="none" stroke="black" cx="1910.39" cy="-265" rx="284.05" ry="18"/>
<text text-anchor="middle" x="1910.39" y="-261.3" font-family="Times,serif" font-size="14.00">resource sample to error or observable feature association</text>
</g>
<!-- association -->
<g id="node2" class="node">
<title>association</title>
<ellipse fill="none" stroke="black" cx="62.39" cy="-178" rx="62.29" ry="18"/>
<text text-anchor="middle" x="62.39" y="-174.3" font-family="Times,serif" font-size="14.00">association</text>
</g>
<!-- resource sample to error or observable feature association&#45;&gt;association -->
<g id="edge1" class="edge">
<title>resource sample to error or observable feature association&#45;&gt;association</title>
<path fill="none" stroke="black" d="M1654.83,-257.13C1431.45,-250.82 1098.39,-240.7 808.39,-229 508.72,-216.91 431.36,-237.97 134.39,-196 128.61,-195.18 122.61,-194.12 116.65,-192.92"/>
<polygon fill="black" stroke="black" points="117.22,-189.46 106.71,-190.8 115.76,-196.31 117.22,-189.46"/>
<text text-anchor="middle" x="822.39" y="-217.8" font-family="Times,serif" font-size="14.00">is_a</text>
</g>
<!-- resource sample to entity association mixin -->
<g id="node3" class="node">
<title>resource sample to entity association mixin</title>
<ellipse fill="none" stroke="black" cx="356.39" cy="-178" rx="213.36" ry="18"/>
<text text-anchor="middle" x="356.39" y="-174.3" font-family="Times,serif" font-size="14.00">resource sample to entity association mixin</text>
</g>
<!-- resource sample to error or observable feature association&#45;&gt;resource sample to entity association mixin -->
<g id="edge2" class="edge">
<title>resource sample to error or observable feature association&#45;&gt;resource sample to entity association mixin</title>
<path fill="none" stroke="black" d="M1670.86,-255.29C1505.94,-248.94 1281.82,-239.62 1084.39,-229 859.35,-216.9 803.2,-211.94 578.39,-196 558.6,-194.6 537.81,-193.07 517.23,-191.53"/>
<polygon fill="black" stroke="black" points="517.38,-188.03 507.14,-190.77 516.85,-195.01 517.38,-188.03"/>
<text text-anchor="middle" x="1100.89" y="-217.8" font-family="Times,serif" font-size="14.00">uses</text>
</g>
<!-- entity to error or observable feature association mixin -->
<g id="node4" class="node">
<title>entity to error or observable feature association mixin</title>
<ellipse fill="none" stroke="black" cx="850.39" cy="-178" rx="263.45" ry="18"/>
<text text-anchor="middle" x="850.39" y="-174.3" font-family="Times,serif" font-size="14.00">entity to error or observable feature association mixin</text>
</g>
<!-- resource sample to error or observable feature association&#45;&gt;entity to error or observable feature association mixin -->
<g id="edge3" class="edge">
<title>resource sample to error or observable feature association&#45;&gt;entity to error or observable feature association mixin</title>
<path fill="none" stroke="black" d="M1671.35,-255.26C1546.89,-249.7 1392.29,-241.2 1254.39,-229 1158.02,-220.48 1049.19,-206.77 968.79,-195.86"/>
<polygon fill="black" stroke="black" points="969.01,-192.36 958.63,-194.48 968.07,-199.3 969.01,-192.36"/>
<text text-anchor="middle" x="1270.89" y="-217.8" font-family="Times,serif" font-size="14.00">uses</text>
</g>
<!-- id -->
<g id="node5" class="node">
<title>id</title>
<ellipse fill="none" stroke="blue" cx="1170.39" cy="-178" rx="38.19" ry="18"/>
<text text-anchor="middle" x="1170.39" y="-174.3" font-family="Times,serif" font-size="14.00">string</text>
</g>
<!-- resource sample to error or observable feature association&#45;&gt;id -->
<g id="edge4" class="edge">
<title>resource sample to error or observable feature association&#45;&gt;id</title>
<path fill="none" stroke="blue" d="M1673.05,-255.07C1581.62,-249.86 1476.39,-241.7 1381.39,-229 1308.13,-219.2 1289.63,-215.72 1218.39,-196 1215.28,-195.14 1212.09,-194.18 1208.89,-193.16"/>
<polygon fill="blue" stroke="blue" points="1209.97,-189.83 1199.38,-190 1207.76,-196.48 1209.97,-189.83"/>
<text text-anchor="middle" x="1388.39" y="-217.8" font-family="Times,serif" font-size="14.00">id</text>
</g>
<!-- iri -->
<g id="node6" class="node">
<title>iri</title>
<ellipse fill="none" stroke="blue" cx="1271.39" cy="-178" rx="44.39" ry="18"/>
<text text-anchor="middle" x="1271.39" y="-174.3" font-family="Times,serif" font-size="14.00">iri type</text>
</g>
<!-- resource sample to error or observable feature association&#45;&gt;iri -->
<g id="edge5" class="edge">
<title>resource sample to error or observable feature association&#45;&gt;iri</title>
<path fill="none" stroke="blue" d="M1707.49,-252.38C1636.69,-246.99 1556.84,-239.41 1484.39,-229 1412.52,-218.67 1394.62,-214.45 1324.39,-196 1321.02,-195.11 1317.55,-194.14 1314.06,-193.12"/>
<polygon fill="blue" stroke="blue" points="1314.9,-189.72 1304.31,-190.16 1312.87,-196.41 1314.9,-189.72"/>
<text text-anchor="middle" x="1492.39" y="-217.8" font-family="Times,serif" font-size="14.00">iri</text>
</g>
<!-- name -->
<g id="node7" class="node">
<title>name</title>
<ellipse fill="none" stroke="blue" cx="1390.39" cy="-178" rx="56.59" ry="18"/>
<text text-anchor="middle" x="1390.39" y="-174.3" font-family="Times,serif" font-size="14.00">label type</text>
</g>
<!-- resource sample to error or observable feature association&#45;&gt;name -->
<g id="edge6" class="edge">
<title>resource sample to error or observable feature association&#45;&gt;name</title>
<path fill="none" stroke="blue" d="M1727.08,-251.23C1675.19,-246.01 1618.84,-238.81 1567.39,-229 1522.67,-220.47 1472.85,-205.93 1437.49,-194.72"/>
<polygon fill="blue" stroke="blue" points="1438.51,-191.37 1427.92,-191.65 1436.38,-198.04 1438.51,-191.37"/>
<text text-anchor="middle" x="1587.39" y="-217.8" font-family="Times,serif" font-size="14.00">name</text>
</g>
<!-- description -->
<g id="node8" class="node">
<title>description</title>
<ellipse fill="none" stroke="blue" cx="1540.39" cy="-178" rx="75.29" ry="18"/>
<text text-anchor="middle" x="1540.39" y="-174.3" font-family="Times,serif" font-size="14.00">narrative text</text>
</g>
<!-- resource sample to error or observable feature association&#45;&gt;description -->
<g id="edge7" class="edge">
<title>resource sample to error or observable feature association&#45;&gt;description</title>
<path fill="none" stroke="blue" d="M1752.07,-249.99C1718.46,-244.97 1683.46,-238.18 1651.39,-229 1626.2,-221.79 1599.36,-209.83 1578.39,-199.42"/>
<polygon fill="blue" stroke="blue" points="1579.7,-196.16 1569.2,-194.76 1576.54,-202.4 1579.7,-196.16"/>
<text text-anchor="middle" x="1691.89" y="-217.8" font-family="Times,serif" font-size="14.00">description</text>
</g>
<!-- source -->
<g id="node9" class="node">
<title>source</title>
<ellipse fill="none" stroke="blue" cx="1690.39" cy="-178" rx="56.59" ry="18"/>
<text text-anchor="middle" x="1690.39" y="-174.3" font-family="Times,serif" font-size="14.00">label type</text>
</g>
<!-- resource sample to error or observable feature association&#45;&gt;source -->
<g id="edge8" class="edge">
<title>resource sample to error or observable feature association&#45;&gt;source</title>
<path fill="none" stroke="blue" d="M1816.11,-247.94C1797.21,-243.09 1777.82,-236.88 1760.39,-229 1744.92,-222 1729.37,-211.35 1716.88,-201.67"/>
<polygon fill="blue" stroke="blue" points="1718.75,-198.69 1708.75,-195.19 1714.38,-204.16 1718.75,-198.69"/>
<text text-anchor="middle" x="1784.39" y="-217.8" font-family="Times,serif" font-size="14.00">source</text>
</g>
<!-- provided by -->
<g id="node10" class="node">
<title>provided by</title>
<ellipse fill="none" stroke="blue" cx="1802.39" cy="-178" rx="37.09" ry="18"/>
<text text-anchor="middle" x="1802.39" y="-174.3" font-family="Times,serif" font-size="14.00">agent</text>
</g>
<!-- resource sample to error or observable feature association&#45;&gt;provided by -->
<g id="edge9" class="edge">
<title>resource sample to error or observable feature association&#45;&gt;provided by</title>
<path fill="none" stroke="blue" d="M1847.91,-247.22C1838.16,-242.52 1828.86,-236.56 1821.39,-229 1815.18,-222.71 1810.95,-214.18 1808.1,-205.94"/>
<polygon fill="blue" stroke="blue" points="1811.43,-204.83 1805.27,-196.21 1804.71,-206.79 1811.43,-204.83"/>
<text text-anchor="middle" x="1863.89" y="-217.8" font-family="Times,serif" font-size="14.00">provided by</text>
</g>
<!-- has attribute -->
<g id="node11" class="node">
<title>has attribute</title>
<ellipse fill="none" stroke="blue" cx="1909.39" cy="-178" rx="51.99" ry="18"/>
<text text-anchor="middle" x="1909.39" y="-174.3" font-family="Times,serif" font-size="14.00">attribute</text>
</g>
<!-- resource sample to error or observable feature association&#45;&gt;has attribute -->
<g id="edge10" class="edge">
<title>resource sample to error or observable feature association&#45;&gt;has attribute</title>
<path fill="none" stroke="blue" d="M1910.19,-246.8C1910.06,-235.16 1909.87,-219.55 1909.71,-206.24"/>
<polygon fill="blue" stroke="blue" points="1913.21,-206.13 1909.6,-196.18 1906.21,-206.22 1913.21,-206.13"/>
<text text-anchor="middle" x="1957.39" y="-217.8" font-family="Times,serif" font-size="14.00">has attribute</text>
</g>
<!-- subject -->
<g id="node12" class="node">
<title>subject</title>
<ellipse fill="none" stroke="blue" cx="2049.39" cy="-178" rx="69.59" ry="18"/>
<text text-anchor="middle" x="2049.39" y="-174.3" font-family="Times,serif" font-size="14.00">named thing</text>
</g>
<!-- resource sample to error or observable feature association&#45;&gt;subject -->
<g id="edge11" class="edge">
<title>resource sample to error or observable feature association&#45;&gt;subject</title>
<path fill="none" stroke="blue" d="M1973.02,-247.35C1985.35,-242.53 1997.76,-236.49 2008.39,-229 2017.85,-222.34 2026.34,-212.94 2033.11,-204.08"/>
<polygon fill="blue" stroke="blue" points="2036.02,-206.02 2039.04,-195.87 2030.35,-201.92 2036.02,-206.02"/>
<text text-anchor="middle" x="2050.39" y="-217.8" font-family="Times,serif" font-size="14.00">subject</text>
</g>
<!-- predicate -->
<g id="node13" class="node">
<title>predicate</title>
<ellipse fill="none" stroke="blue" cx="2215.39" cy="-178" rx="77.99" ry="18"/>
<text text-anchor="middle" x="2215.39" y="-174.3" font-family="Times,serif" font-size="14.00">predicate type</text>
</g>
<!-- resource sample to error or observable feature association&#45;&gt;predicate -->
<g id="edge12" class="edge">
<title>resource sample to error or observable feature association&#45;&gt;predicate</title>
<path fill="none" stroke="blue" d="M2001.45,-247.9C2027.17,-242.64 2055.05,-236.26 2080.39,-229 2110.76,-220.31 2144.03,-208.01 2169.95,-197.79"/>
<polygon fill="blue" stroke="blue" points="2171.51,-200.94 2179.51,-193.99 2168.92,-194.44 2171.51,-200.94"/>
<text text-anchor="middle" x="2160.39" y="-217.8" font-family="Times,serif" font-size="14.00">predicate</text>
</g>
<!-- object -->
<g id="node14" class="node">
<title>object</title>
<ellipse fill="none" stroke="blue" cx="2264.39" cy="-91" rx="69.59" ry="18"/>
<text text-anchor="middle" x="2264.39" y="-87.3" font-family="Times,serif" font-size="14.00">named thing</text>
</g>
<!-- resource sample to error or observable feature association&#45;&gt;object -->
<g id="edge13" class="edge">
<title>resource sample to error or observable feature association&#45;&gt;object</title>
<path fill="none" stroke="blue" d="M2123.15,-253.07C2202.88,-243.87 2279.73,-226.97 2302.39,-196 2319.91,-172.07 2302.51,-139.2 2285.92,-116.87"/>
<polygon fill="blue" stroke="blue" points="2288.58,-114.6 2279.67,-108.87 2283.07,-118.9 2288.58,-114.6"/>
<text text-anchor="middle" x="2332.39" y="-174.3" font-family="Times,serif" font-size="14.00">object</text>
</g>
<!-- relation -->
<g id="node15" class="node">
<title>relation</title>
<ellipse fill="none" stroke="blue" cx="2264.39" cy="-18" rx="57.39" ry="18"/>
<text text-anchor="middle" x="2264.39" y="-14.3" font-family="Times,serif" font-size="14.00">uriorcurie</text>
</g>
<!-- resource sample to error or observable feature association&#45;&gt;relation -->
<g id="edge14" class="edge">
<title>resource sample to error or observable feature association&#45;&gt;relation</title>
<path fill="none" stroke="blue" d="M2130.47,-253.54C2179.3,-248.31 2230.47,-240.53 2277.39,-229 2315.14,-219.72 2336.7,-228.26 2358.39,-196 2374.14,-172.58 2359.29,-97.74 2343.39,-73 2334.03,-58.41 2319.17,-46.75 2304.86,-38.04"/>
<polygon fill="blue" stroke="blue" points="2306.48,-34.94 2296.07,-33.01 2303,-41.02 2306.48,-34.94"/>
<text text-anchor="middle" x="2392.39" y="-130.8" font-family="Times,serif" font-size="14.00">relation</text>
</g>
<!-- negated -->
<g id="node16" class="node">
<title>negated</title>
<ellipse fill="none" stroke="blue" cx="2476.39" cy="-178" rx="46.59" ry="18"/>
<text text-anchor="middle" x="2476.39" y="-174.3" font-family="Times,serif" font-size="14.00">boolean</text>
</g>
<!-- resource sample to error or observable feature association&#45;&gt;negated -->
<g id="edge15" class="edge">
<title>resource sample to error or observable feature association&#45;&gt;negated</title>
<path fill="none" stroke="blue" d="M2104.79,-251.87C2243.9,-242.98 2407.92,-231.97 2415.39,-229 2430.14,-223.15 2444.04,-212.35 2454.83,-202.28"/>
<polygon fill="blue" stroke="blue" points="2457.41,-204.65 2462.11,-195.16 2452.51,-199.65 2457.41,-204.65"/>
<text text-anchor="middle" x="2469.39" y="-217.8" font-family="Times,serif" font-size="14.00">negated</text>
</g>
<!-- qualifiers -->
<g id="node17" class="node">
<title>qualifiers</title>
<ellipse fill="none" stroke="blue" cx="2617.39" cy="-178" rx="76.89" ry="18"/>
<text text-anchor="middle" x="2617.39" y="-174.3" font-family="Times,serif" font-size="14.00">ontology class</text>
</g>
<!-- resource sample to error or observable feature association&#45;&gt;qualifiers -->
<g id="edge16" class="edge">
<title>resource sample to error or observable feature association&#45;&gt;qualifiers</title>
<path fill="none" stroke="blue" d="M2111.76,-252.3C2282.41,-242.35 2499.96,-229.58 2502.39,-229 2529.26,-222.58 2557.74,-210.24 2579.64,-199.43"/>
<polygon fill="blue" stroke="blue" points="2581.25,-202.54 2588.6,-194.91 2578.09,-196.29 2581.25,-202.54"/>
<text text-anchor="middle" x="2578.89" y="-217.8" font-family="Times,serif" font-size="14.00">qualifiers</text>
</g>
<!-- publications -->
<g id="node18" class="node">
<title>publications</title>
<ellipse fill="none" stroke="blue" cx="2774.39" cy="-178" rx="62.29" ry="18"/>
<text text-anchor="middle" x="2774.39" y="-174.3" font-family="Times,serif" font-size="14.00">publication</text>
</g>
<!-- resource sample to error or observable feature association&#45;&gt;publications -->
<g id="edge17" class="edge">
<title>resource sample to error or observable feature association&#45;&gt;publications</title>
<path fill="none" stroke="blue" d="M2108.96,-252.09C2140.55,-250.31 2172.86,-248.55 2203.39,-247 2386.89,-237.68 2435.47,-260.99 2616.39,-229 2655.51,-222.08 2698.39,-208.09 2729.59,-196.66"/>
<polygon fill="blue" stroke="blue" points="2731.14,-199.81 2739.3,-193.05 2728.7,-193.25 2731.14,-199.81"/>
<text text-anchor="middle" x="2718.39" y="-217.8" font-family="Times,serif" font-size="14.00">publications</text>
</g>
<!-- type -->
<g id="node19" class="node">
<title>type</title>
<ellipse fill="none" stroke="black" cx="2886.39" cy="-178" rx="31.4" ry="18"/>
<text text-anchor="middle" x="2886.39" y="-174.3" font-family="Times,serif" font-size="14.00">type</text>
</g>
<!-- resource sample to error or observable feature association&#45;&gt;type -->
<g id="edge18" class="edge">
<title>resource sample to error or observable feature association&#45;&gt;type</title>
<path fill="none" stroke="blue" d="M2106.18,-251.93C2138.65,-250.14 2171.96,-248.41 2203.39,-247 2328.44,-241.37 2644.06,-255.51 2766.39,-229 2797.99,-222.15 2831.81,-207.31 2855.46,-195.57"/>
<polygon fill="blue" stroke="blue" points="2857.29,-198.56 2864.63,-190.92 2854.12,-192.32 2857.29,-198.56"/>
<text text-anchor="middle" x="2830.39" y="-217.8" font-family="Times,serif" font-size="14.00">type</text>
</g>
<!-- category -->
<g id="node21" class="node">
<title>category</title>
<ellipse fill="none" stroke="black" cx="2987.39" cy="-178" rx="51.19" ry="18"/>
<text text-anchor="middle" x="2987.39" y="-174.3" font-family="Times,serif" font-size="14.00">category</text>
</g>
<!-- resource sample to error or observable feature association&#45;&gt;category -->
<g id="edge19" class="edge">
<title>resource sample to error or observable feature association&#45;&gt;category</title>
<path fill="none" stroke="blue" d="M2105,-251.89C2137.83,-250.08 2171.58,-248.37 2203.39,-247 2347.1,-240.83 2709.12,-256.01 2850.39,-229 2884.61,-222.46 2921.63,-208.5 2948.55,-196.99"/>
<polygon fill="blue" stroke="blue" points="2950.21,-200.09 2957.98,-192.88 2947.42,-193.67 2950.21,-200.09"/>
<text text-anchor="middle" x="2935.89" y="-217.8" font-family="Times,serif" font-size="14.00">category</text>
</g>
<!-- subject&#45;&gt;object -->
<g id="edge20" class="edge">
<title>subject&#45;&gt;object</title>
<path fill="none" stroke="black" d="M2085.87,-162.58C2122.39,-148.14 2178.72,-125.87 2218.31,-110.22"/>
<polygon fill="black" stroke="black" points="2219.73,-113.42 2227.74,-106.49 2217.16,-106.91 2219.73,-113.42"/>
<text text-anchor="middle" x="2198.39" y="-130.8" font-family="Times,serif" font-size="14.00">relation</text>
</g>
<!-- subject&#45;&gt;relation -->
<g id="edge21" class="edge">
<title>subject&#45;&gt;relation</title>
<path fill="none" stroke="black" stroke-dasharray="1,5" d="M2069.87,-160.8C2096.27,-140.04 2143.73,-103.14 2185.39,-73 2200.67,-61.95 2217.92,-50.09 2232.39,-40.31"/>
<polygon fill="black" stroke="black" points="2234.67,-43 2241.01,-34.51 2230.76,-37.19 2234.67,-43"/>
</g>
<!-- object&#45;&gt;relation -->
<g id="edge22" class="edge">
<title>object&#45;&gt;relation</title>
<path fill="none" stroke="black" stroke-dasharray="1,5" d="M2264.39,-72.81C2264.39,-64.79 2264.39,-55.05 2264.39,-46.07"/>
<polygon fill="black" stroke="black" points="2267.89,-46.03 2264.39,-36.03 2260.89,-46.03 2267.89,-46.03"/>
</g>
<!-- association_type -->
<g id="node20" class="node">
<title>association_type</title>
<ellipse fill="none" stroke="blue" cx="2250.39" cy="-265" rx="38.19" ry="18"/>
<text text-anchor="middle" x="2250.39" y="-261.3" font-family="Times,serif" font-size="14.00">string</text>
</g>
<!-- association_category -->
<g id="node22" class="node">
<title>association_category</title>
<ellipse fill="none" stroke="blue" cx="2369.39" cy="-265" rx="62.29" ry="18"/>
<text text-anchor="middle" x="2369.39" y="-261.3" font-family="Times,serif" font-size="14.00">association</text>
</g>
</g>
</svg>
