<?xml version="1.0" encoding="UTF-8" standalone="no"?>
<!DOCTYPE svg PUBLIC "-//W3C//DTD SVG 1.1//EN"
 "http://www.w3.org/Graphics/SVG/1.1/DTD/svg11.dtd">
<!-- Generated by graphviz version 2.43.0 (0)
 -->
<!-- Title: %3 Pages: 1 -->
<svg width="1462pt" height="131pt"
 viewBox="0.00 0.00 1462.29 131.00" xmlns="http://www.w3.org/2000/svg" xmlns:xlink="http://www.w3.org/1999/xlink">
<g id="graph0" class="graph" transform="scale(1 1) rotate(0) translate(4 127)">
<title>%3</title>
<polygon fill="white" stroke="transparent" points="-4,4 -4,-127 1458.29,-127 1458.29,4 -4,4"/>
<!-- resource sample -->
<g id="node1" class="node">
<title>resource sample</title>
<ellipse fill="none" stroke="black" cx="762.94" cy="-105" rx="87.18" ry="18"/>
<text text-anchor="middle" x="762.94" y="-101.3" font-family="Times,serif" font-size="14.00">resource sample</text>
</g>
<!-- cyber entity -->
<g id="node2" class="node">
<title>cyber entity</title>
<ellipse fill="none" stroke="black" cx="66.94" cy="-18" rx="66.89" ry="18"/>
<text text-anchor="middle" x="66.94" y="-14.3" font-family="Times,serif" font-size="14.00">cyber entity</text>
</g>
<!-- resource sample&#45;&gt;cyber entity -->
<g id="edge1" class="edge">
<title>resource sample&#45;&gt;cyber entity</title>
<path fill="none" stroke="black" d="M681.76,-98.26C562.89,-89.14 334.78,-68.92 142.94,-36 137.14,-35 131.11,-33.85 125.1,-32.63"/>
<polygon fill="black" stroke="black" points="125.55,-29.15 115.05,-30.52 124.11,-36 125.55,-29.15"/>
<text text-anchor="middle" x="377.94" y="-57.8" font-family="Times,serif" font-size="14.00">is_a</text>
</g>
<!-- subject of investigation -->
<g id="node3" class="node">
<title>subject of investigation</title>
<ellipse fill="none" stroke="black" cx="271.94" cy="-18" rx="119.68" ry="18"/>
<text text-anchor="middle" x="271.94" y="-14.3" font-family="Times,serif" font-size="14.00">subject of investigation</text>
</g>
<!-- resource sample&#45;&gt;subject of investigation -->
<g id="edge2" class="edge">
<title>resource sample&#45;&gt;subject of investigation</title>
<path fill="none" stroke="black" d="M691.98,-94.49C644.59,-87.92 580.92,-78.64 524.94,-69 465.27,-58.72 398.04,-45.35 347.89,-35.02"/>
<polygon fill="black" stroke="black" points="348.6,-31.59 338.1,-33 347.18,-38.45 348.6,-31.59"/>
<text text-anchor="middle" x="541.44" y="-57.8" font-family="Times,serif" font-size="14.00">uses</text>
</g>
<!-- id -->
<g id="node4" class="node">
<title>id</title>
<ellipse fill="none" stroke="blue" cx="447.94" cy="-18" rx="38.19" ry="18"/>
<text text-anchor="middle" x="447.94" y="-14.3" font-family="Times,serif" font-size="14.00">string</text>
</g>
<!-- resource sample&#45;&gt;id -->
<g id="edge3" class="edge">
<title>resource sample&#45;&gt;id</title>
<path fill="none" stroke="blue" d="M706.54,-91.21C652.21,-78.52 567.92,-57.86 495.94,-36 492.86,-35.06 489.67,-34.05 486.49,-32.99"/>
<polygon fill="blue" stroke="blue" points="487.59,-29.67 476.99,-29.77 485.34,-36.3 487.59,-29.67"/>
<text text-anchor="middle" x="619.94" y="-57.8" font-family="Times,serif" font-size="14.00">id</text>
</g>
<!-- iri -->
<g id="node5" class="node">
<title>iri</title>
<ellipse fill="none" stroke="blue" cx="548.94" cy="-18" rx="44.39" ry="18"/>
<text text-anchor="middle" x="548.94" y="-14.3" font-family="Times,serif" font-size="14.00">iri type</text>
</g>
<!-- resource sample&#45;&gt;iri -->
<g id="edge4" class="edge">
<title>resource sample&#45;&gt;iri</title>
<path fill="none" stroke="blue" d="M724.69,-88.8C686.45,-73.62 627.9,-50.36 589.03,-34.92"/>
<polygon fill="blue" stroke="blue" points="590.19,-31.61 579.6,-31.18 587.6,-38.12 590.19,-31.61"/>
<text text-anchor="middle" x="676.94" y="-57.8" font-family="Times,serif" font-size="14.00">iri</text>
</g>
<!-- type -->
<g id="node6" class="node">
<title>type</title>
<ellipse fill="none" stroke="blue" cx="649.94" cy="-18" rx="38.19" ry="18"/>
<text text-anchor="middle" x="649.94" y="-14.3" font-family="Times,serif" font-size="14.00">string</text>
</g>
<!-- resource sample&#45;&gt;type -->
<g id="edge5" class="edge">
<title>resource sample&#45;&gt;type</title>
<path fill="none" stroke="blue" d="M740.89,-87.41C722.76,-73.77 696.98,-54.38 677.5,-39.73"/>
<polygon fill="blue" stroke="blue" points="679.4,-36.78 669.31,-33.57 675.19,-42.37 679.4,-36.78"/>
<text text-anchor="middle" x="729.94" y="-57.8" font-family="Times,serif" font-size="14.00">type</text>
</g>
<!-- name -->
<g id="node7" class="node">
<title>name</title>
<ellipse fill="none" stroke="blue" cx="762.94" cy="-18" rx="56.59" ry="18"/>
<text text-anchor="middle" x="762.94" y="-14.3" font-family="Times,serif" font-size="14.00">label type</text>
</g>
<!-- resource sample&#45;&gt;name -->
<g id="edge6" class="edge">
<title>resource sample&#45;&gt;name</title>
<path fill="none" stroke="blue" d="M762.94,-86.8C762.94,-75.16 762.94,-59.55 762.94,-46.24"/>
<polygon fill="blue" stroke="blue" points="766.44,-46.18 762.94,-36.18 759.44,-46.18 766.44,-46.18"/>
<text text-anchor="middle" x="782.94" y="-57.8" font-family="Times,serif" font-size="14.00">name</text>
</g>
<!-- description -->
<g id="node8" class="node">
<title>description</title>
<ellipse fill="none" stroke="blue" cx="912.94" cy="-18" rx="75.29" ry="18"/>
<text text-anchor="middle" x="912.94" y="-14.3" font-family="Times,serif" font-size="14.00">narrative text</text>
</g>
<!-- resource sample&#45;&gt;description -->
<g id="edge7" class="edge">
<title>resource sample&#45;&gt;description</title>
<path fill="none" stroke="blue" d="M791.51,-87.81C815.54,-74.2 850.05,-54.64 876.14,-39.85"/>
<polygon fill="blue" stroke="blue" points="878.02,-42.82 884.99,-34.84 874.57,-36.73 878.02,-42.82"/>
<text text-anchor="middle" x="887.44" y="-57.8" font-family="Times,serif" font-size="14.00">description</text>
</g>
<!-- source -->
<g id="node9" class="node">
<title>source</title>
<ellipse fill="none" stroke="blue" cx="1062.94" cy="-18" rx="56.59" ry="18"/>
<text text-anchor="middle" x="1062.94" y="-14.3" font-family="Times,serif" font-size="14.00">label type</text>
</g>
<!-- resource sample&#45;&gt;source -->
<g id="edge8" class="edge">
<title>resource sample&#45;&gt;source</title>
<path fill="none" stroke="blue" d="M828.15,-93.03C859.78,-87.06 898.15,-78.88 931.94,-69 962.5,-60.07 996.03,-47.21 1021.52,-36.77"/>
<polygon fill="blue" stroke="blue" points="1022.97,-39.96 1030.87,-32.9 1020.29,-33.49 1022.97,-39.96"/>
<text text-anchor="middle" x="999.94" y="-57.8" font-family="Times,serif" font-size="14.00">source</text>
</g>
<!-- provided by -->
<g id="node10" class="node">
<title>provided by</title>
<ellipse fill="none" stroke="blue" cx="1174.94" cy="-18" rx="37.09" ry="18"/>
<text text-anchor="middle" x="1174.94" y="-14.3" font-family="Times,serif" font-size="14.00">agent</text>
</g>
<!-- resource sample&#45;&gt;provided by -->
<g id="edge9" class="edge">
<title>resource sample&#45;&gt;provided by</title>
<path fill="none" stroke="blue" d="M825.07,-92.35C836.32,-90.43 847.97,-88.55 858.94,-87 933.73,-76.41 954.08,-84.82 1027.94,-69 1074.12,-59.11 1084.34,-51.52 1128.94,-36 1131.49,-35.11 1134.12,-34.18 1136.76,-33.24"/>
<polygon fill="blue" stroke="blue" points="1138.09,-36.48 1146.3,-29.78 1135.7,-29.9 1138.09,-36.48"/>
<text text-anchor="middle" x="1123.44" y="-57.8" font-family="Times,serif" font-size="14.00">provided by</text>
</g>
<!-- has attribute -->
<g id="node11" class="node">
<title>has attribute</title>
<ellipse fill="none" stroke="blue" cx="1281.94" cy="-18" rx="51.99" ry="18"/>
<text text-anchor="middle" x="1281.94" y="-14.3" font-family="Times,serif" font-size="14.00">attribute</text>
</g>
<!-- resource sample&#45;&gt;has attribute -->
<g id="edge10" class="edge">
<title>resource sample&#45;&gt;has attribute</title>
<path fill="none" stroke="blue" d="M823.98,-92.08C835.56,-90.14 847.6,-88.33 858.94,-87 996.46,-70.9 1035.42,-101.76 1169.94,-69 1196.98,-62.42 1225.59,-49.53 1247.13,-38.49"/>
<polygon fill="blue" stroke="blue" points="1248.97,-41.47 1256.2,-33.73 1245.72,-35.27 1248.97,-41.47"/>
<text text-anchor="middle" x="1258.94" y="-57.8" font-family="Times,serif" font-size="14.00">has attribute</text>
</g>
<!-- category -->
<g id="node12" class="node">
<title>category</title>
<ellipse fill="none" stroke="black" cx="1402.94" cy="-18" rx="51.19" ry="18"/>
<text text-anchor="middle" x="1402.94" y="-14.3" font-family="Times,serif" font-size="14.00">category</text>
</g>
<!-- resource sample&#45;&gt;category -->
<g id="edge11" class="edge">
<title>resource sample&#45;&gt;category</title>
<path fill="none" stroke="blue" d="M823.45,-92C835.19,-90.04 847.42,-88.24 858.94,-87 958.67,-76.23 1213.19,-95.42 1309.94,-69 1332.23,-62.91 1355.11,-50.7 1372.6,-39.87"/>
<polygon fill="blue" stroke="blue" points="1374.68,-42.7 1381.23,-34.37 1370.91,-36.8 1374.68,-42.7"/>
<text text-anchor="middle" x="1378.44" y="-57.8" font-family="Times,serif" font-size="14.00">category</text>
</g>
<!-- named thing_category -->
<g id="node13" class="node">
<title>named thing_category</title>
<ellipse fill="none" stroke="blue" cx="937.94" cy="-105" rx="69.59" ry="18"/>
<text text-anchor="middle" x="937.94" y="-101.3" font-family="Times,serif" font-size="14.00">named thing</text>
</g>
</g>
</svg>
