<?xml version="1.0" encoding="UTF-8" standalone="no"?>
<!DOCTYPE svg PUBLIC "-//W3C//DTD SVG 1.1//EN"
 "http://www.w3.org/Graphics/SVG/1.1/DTD/svg11.dtd">
<!-- Generated by graphviz version 2.43.0 (0)
 -->
<!-- Title: %3 Pages: 1 -->
<svg width="1945pt" height="131pt"
 viewBox="0.00 0.00 1945.19 131.00" xmlns="http://www.w3.org/2000/svg" xmlns:xlink="http://www.w3.org/1999/xlink">
<g id="graph0" class="graph" transform="scale(1 1) rotate(0) translate(4 127)">
<title>%3</title>
<polygon fill="white" stroke="transparent" points="-4,4 -4,-127 1941.19,-127 1941.19,4 -4,4"/>
<!-- sequence variant -->
<g id="node1" class="node">
<title>sequence variant</title>
<ellipse fill="none" stroke="black" cx="853.19" cy="-105" rx="90.18" ry="18"/>
<text text-anchor="middle" x="853.19" y="-101.3" font-family="Times,serif" font-size="14.00">sequence variant</text>
</g>
<!-- workload entity -->
<g id="node2" class="node">
<title>workload entity</title>
<ellipse fill="none" stroke="black" cx="83.19" cy="-18" rx="83.39" ry="18"/>
<text text-anchor="middle" x="83.19" y="-14.3" font-family="Times,serif" font-size="14.00">workload entity</text>
</g>
<!-- sequence variant&#45;&gt;workload entity -->
<g id="edge1" class="edge">
<title>sequence variant&#45;&gt;workload entity</title>
<path fill="none" stroke="black" d="M763.68,-102.01C657.46,-98.75 475.22,-90.33 320.19,-69 260.1,-60.73 192.49,-45.91 144.9,-34.54"/>
<polygon fill="black" stroke="black" points="145.61,-31.11 135.06,-32.17 143.97,-37.91 145.61,-31.11"/>
<text text-anchor="middle" x="334.19" y="-57.8" font-family="Times,serif" font-size="14.00">is_a</text>
</g>
<!-- iri -->
<g id="node3" class="node">
<title>iri</title>
<ellipse fill="none" stroke="blue" cx="228.19" cy="-18" rx="44.39" ry="18"/>
<text text-anchor="middle" x="228.19" y="-14.3" font-family="Times,serif" font-size="14.00">iri type</text>
</g>
<!-- sequence variant&#45;&gt;iri -->
<g id="edge2" class="edge">
<title>sequence variant&#45;&gt;iri</title>
<path fill="none" stroke="blue" d="M765.93,-100.09C680.71,-95.48 547.52,-86.18 433.19,-69 365.26,-58.79 348.58,-53.67 282.19,-36 278.61,-35.05 274.91,-34.01 271.21,-32.92"/>
<polygon fill="blue" stroke="blue" points="272.05,-29.52 261.47,-29.99 270.04,-36.23 272.05,-29.52"/>
<text text-anchor="middle" x="441.19" y="-57.8" font-family="Times,serif" font-size="14.00">iri</text>
</g>
<!-- type -->
<g id="node4" class="node">
<title>type</title>
<ellipse fill="none" stroke="blue" cx="329.19" cy="-18" rx="38.19" ry="18"/>
<text text-anchor="middle" x="329.19" y="-14.3" font-family="Times,serif" font-size="14.00">string</text>
</g>
<!-- sequence variant&#45;&gt;type -->
<g id="edge3" class="edge">
<title>sequence variant&#45;&gt;type</title>
<path fill="none" stroke="blue" d="M767.66,-99.08C671.01,-91.86 509.75,-74.77 376.19,-36 373.29,-35.16 370.3,-34.23 367.31,-33.25"/>
<polygon fill="blue" stroke="blue" points="368.43,-29.93 357.83,-30.02 366.17,-36.56 368.43,-29.93"/>
<text text-anchor="middle" x="534.19" y="-57.8" font-family="Times,serif" font-size="14.00">type</text>
</g>
<!-- name -->
<g id="node5" class="node">
<title>name</title>
<ellipse fill="none" stroke="blue" cx="442.19" cy="-18" rx="56.59" ry="18"/>
<text text-anchor="middle" x="442.19" y="-14.3" font-family="Times,serif" font-size="14.00">label type</text>
</g>
<!-- sequence variant&#45;&gt;name -->
<g id="edge4" class="edge">
<title>sequence variant&#45;&gt;name</title>
<path fill="none" stroke="blue" d="M777.4,-95.14C731.38,-89.15 671.6,-80.27 619.19,-69 574.96,-59.49 525.48,-45.19 490.1,-34.32"/>
<polygon fill="blue" stroke="blue" points="491.1,-30.96 480.51,-31.35 489.03,-37.65 491.1,-30.96"/>
<text text-anchor="middle" x="639.19" y="-57.8" font-family="Times,serif" font-size="14.00">name</text>
</g>
<!-- description -->
<g id="node6" class="node">
<title>description</title>
<ellipse fill="none" stroke="blue" cx="592.19" cy="-18" rx="75.29" ry="18"/>
<text text-anchor="middle" x="592.19" y="-14.3" font-family="Times,serif" font-size="14.00">narrative text</text>
</g>
<!-- sequence variant&#45;&gt;description -->
<g id="edge5" class="edge">
<title>sequence variant&#45;&gt;description</title>
<path fill="none" stroke="blue" d="M788.27,-92.46C760.46,-86.69 727.85,-78.83 699.19,-69 675.75,-60.96 650.59,-49.37 630.57,-39.37"/>
<polygon fill="blue" stroke="blue" points="631.97,-36.16 621.46,-34.76 628.8,-42.4 631.97,-36.16"/>
<text text-anchor="middle" x="739.69" y="-57.8" font-family="Times,serif" font-size="14.00">description</text>
</g>
<!-- source -->
<g id="node7" class="node">
<title>source</title>
<ellipse fill="none" stroke="blue" cx="742.19" cy="-18" rx="56.59" ry="18"/>
<text text-anchor="middle" x="742.19" y="-14.3" font-family="Times,serif" font-size="14.00">label type</text>
</g>
<!-- sequence variant&#45;&gt;source -->
<g id="edge6" class="edge">
<title>sequence variant&#45;&gt;source</title>
<path fill="none" stroke="blue" d="M828.22,-87.54C819.83,-81.84 810.5,-75.29 802.19,-69 790.93,-60.47 778.9,-50.61 768.59,-41.91"/>
<polygon fill="blue" stroke="blue" points="770.63,-39.04 760.74,-35.22 766.09,-44.37 770.63,-39.04"/>
<text text-anchor="middle" x="826.19" y="-57.8" font-family="Times,serif" font-size="14.00">source</text>
</g>
<!-- provided by -->
<g id="node8" class="node">
<title>provided by</title>
<ellipse fill="none" stroke="blue" cx="854.19" cy="-18" rx="37.09" ry="18"/>
<text text-anchor="middle" x="854.19" y="-14.3" font-family="Times,serif" font-size="14.00">agent</text>
</g>
<!-- sequence variant&#45;&gt;provided by -->
<g id="edge7" class="edge">
<title>sequence variant&#45;&gt;provided by</title>
<path fill="none" stroke="blue" d="M853.39,-86.8C853.53,-75.16 853.72,-59.55 853.87,-46.24"/>
<polygon fill="blue" stroke="blue" points="857.37,-46.22 853.99,-36.18 850.37,-46.13 857.37,-46.22"/>
<text text-anchor="middle" x="896.69" y="-57.8" font-family="Times,serif" font-size="14.00">provided by</text>
</g>
<!-- has attribute -->
<g id="node9" class="node">
<title>has attribute</title>
<ellipse fill="none" stroke="blue" cx="961.19" cy="-18" rx="51.99" ry="18"/>
<text text-anchor="middle" x="961.19" y="-14.3" font-family="Times,serif" font-size="14.00">attribute</text>
</g>
<!-- sequence variant&#45;&gt;has attribute -->
<g id="edge8" class="edge">
<title>sequence variant&#45;&gt;has attribute</title>
<path fill="none" stroke="blue" d="M905.24,-90.24C917.49,-85.12 929.72,-78.21 939.19,-69 945.74,-62.63 950.48,-53.98 953.84,-45.66"/>
<polygon fill="blue" stroke="blue" points="957.14,-46.8 957.17,-36.21 950.54,-44.47 957.14,-46.8"/>
<text text-anchor="middle" x="997.19" y="-57.8" font-family="Times,serif" font-size="14.00">has attribute</text>
</g>
<!-- category -->
<g id="node10" class="node">
<title>category</title>
<ellipse fill="none" stroke="black" cx="1082.19" cy="-18" rx="51.19" ry="18"/>
<text text-anchor="middle" x="1082.19" y="-14.3" font-family="Times,serif" font-size="14.00">category</text>
</g>
<!-- sequence variant&#45;&gt;category -->
<g id="edge9" class="edge">
<title>sequence variant&#45;&gt;category</title>
<path fill="none" stroke="blue" d="M918.57,-92.57C974.68,-82.71 1046.79,-69.91 1048.19,-69 1057.21,-63.15 1064.46,-53.97 1069.9,-45.07"/>
<polygon fill="blue" stroke="blue" points="1073.12,-46.49 1074.93,-36.05 1067,-43.09 1073.12,-46.49"/>
<text text-anchor="middle" x="1095.69" y="-57.8" font-family="Times,serif" font-size="14.00">category</text>
</g>
<!-- in taxon -->
<g id="node12" class="node">
<title>in taxon</title>
<ellipse fill="none" stroke="blue" cx="1224.19" cy="-18" rx="72.59" ry="18"/>
<text text-anchor="middle" x="1224.19" y="-14.3" font-family="Times,serif" font-size="14.00">system taxon</text>
</g>
<!-- sequence variant&#45;&gt;in taxon -->
<g id="edge10" class="edge">
<title>sequence variant&#45;&gt;in taxon</title>
<path fill="none" stroke="blue" d="M917.53,-92.28C929.05,-90.37 940.96,-88.53 952.19,-87 1031.42,-76.23 1054.73,-92.38 1131.19,-69 1152.54,-62.47 1174.62,-50.84 1191.91,-40.44"/>
<polygon fill="blue" stroke="blue" points="1193.81,-43.38 1200.48,-35.14 1190.13,-37.42 1193.81,-43.38"/>
<text text-anchor="middle" x="1195.19" y="-57.8" font-family="Times,serif" font-size="14.00">in taxon</text>
</g>
<!-- has componentservice -->
<g id="node13" class="node">
<title>has componentservice</title>
<ellipse fill="none" stroke="black" cx="1429.19" cy="-18" rx="114.28" ry="18"/>
<text text-anchor="middle" x="1429.19" y="-14.3" font-family="Times,serif" font-size="14.00">has componentservice</text>
</g>
<!-- sequence variant&#45;&gt;has componentservice -->
<g id="edge11" class="edge">
<title>sequence variant&#45;&gt;has componentservice</title>
<path fill="none" stroke="blue" d="M916.42,-92.13C928.28,-90.19 940.59,-88.37 952.19,-87 1074.27,-72.58 1106.73,-87.91 1228.19,-69 1276.18,-61.53 1329.48,-48.02 1369.12,-36.93"/>
<polygon fill="blue" stroke="blue" points="1370.23,-40.26 1378.9,-34.17 1368.32,-33.52 1370.23,-40.26"/>
<text text-anchor="middle" x="1381.19" y="-57.8" font-family="Times,serif" font-size="14.00">has componentservice</text>
</g>
<!-- has computational sequence -->
<g id="node15" class="node">
<title>has computational sequence</title>
<ellipse fill="none" stroke="black" cx="1704.19" cy="-18" rx="142.17" ry="18"/>
<text text-anchor="middle" x="1704.19" y="-14.3" font-family="Times,serif" font-size="14.00">has computational sequence</text>
</g>
<!-- sequence variant&#45;&gt;has computational sequence -->
<g id="edge12" class="edge">
<title>sequence variant&#45;&gt;has computational sequence</title>
<path fill="none" stroke="blue" d="M915.6,-91.97C927.7,-90.01 940.31,-88.22 952.19,-87 1179.13,-63.64 1238.71,-96.46 1465.19,-69 1522.95,-62 1587.46,-48.13 1634.9,-36.78"/>
<polygon fill="blue" stroke="blue" points="1635.85,-40.15 1644.75,-34.4 1634.21,-33.34 1635.85,-40.15"/>
<text text-anchor="middle" x="1653.69" y="-57.8" font-family="Times,serif" font-size="14.00">has computational sequence</text>
</g>
<!-- id -->
<g id="node17" class="node">
<title>id</title>
<ellipse fill="none" stroke="black" cx="1910.19" cy="-18" rx="27" ry="18"/>
<text text-anchor="middle" x="1910.19" y="-14.3" font-family="Times,serif" font-size="14.00">id</text>
</g>
<!-- sequence variant&#45;&gt;id -->
<g id="edge13" class="edge">
<title>sequence variant&#45;&gt;id</title>
<path fill="none" stroke="blue" d="M915.32,-91.89C927.5,-89.92 940.22,-88.16 952.19,-87 1130.74,-69.77 1582.43,-99.53 1759.19,-69 1801.73,-61.65 1848.63,-44.63 1878.69,-32.49"/>
<polygon fill="blue" stroke="blue" points="1880.29,-35.62 1888.21,-28.59 1877.63,-29.15 1880.29,-35.62"/>
<text text-anchor="middle" x="1825.19" y="-57.8" font-family="Times,serif" font-size="14.00">id</text>
</g>
<!-- named thing_category -->
<g id="node11" class="node">
<title>named thing_category</title>
<ellipse fill="none" stroke="blue" cx="1031.19" cy="-105" rx="69.59" ry="18"/>
<text text-anchor="middle" x="1031.19" y="-101.3" font-family="Times,serif" font-size="14.00">named thing</text>
</g>
<!-- sequence variant_has componentservice -->
<g id="node14" class="node">
<title>sequence variant_has componentservice</title>
<ellipse fill="none" stroke="blue" cx="1213.19" cy="-105" rx="94.78" ry="18"/>
<text text-anchor="middle" x="1213.19" y="-101.3" font-family="Times,serif" font-size="14.00">componentservice</text>
</g>
<!-- sequence variant_has computational sequence -->
<g id="node16" class="node">
<title>sequence variant_has computational sequence</title>
<ellipse fill="none" stroke="blue" cx="1449.19" cy="-105" rx="123.48" ry="18"/>
<text text-anchor="middle" x="1449.19" y="-101.3" font-family="Times,serif" font-size="14.00">computational sequence</text>
</g>
<!-- sequence variant_id -->
<g id="node18" class="node">
<title>sequence variant_id</title>
<ellipse fill="none" stroke="blue" cx="1629.19" cy="-105" rx="38.19" ry="18"/>
<text text-anchor="middle" x="1629.19" y="-101.3" font-family="Times,serif" font-size="14.00">string</text>
</g>
</g>
</svg>
