<?xml version="1.0" encoding="UTF-8" standalone="no"?>
<!DOCTYPE svg PUBLIC "-//W3C//DTD SVG 1.1//EN"
 "http://www.w3.org/Graphics/SVG/1.1/DTD/svg11.dtd">
<!-- Generated by graphviz version 2.43.0 (0)
 -->
<!-- Title: %3 Pages: 1 -->
<svg width="2106pt" height="131pt"
 viewBox="0.00 0.00 2106.39 131.00" xmlns="http://www.w3.org/2000/svg" xmlns:xlink="http://www.w3.org/1999/xlink">
<g id="graph0" class="graph" transform="scale(1 1) rotate(0) translate(4 127)">
<title>%3</title>
<polygon fill="white" stroke="transparent" points="-4,4 -4,-127 2102.39,-127 2102.39,4 -4,4"/>
<!-- serviceinstance -->
<g id="node1" class="node">
<title>serviceinstance</title>
<ellipse fill="none" stroke="black" cx="1041.19" cy="-105" rx="83.39" ry="18"/>
<text text-anchor="middle" x="1041.19" y="-101.3" font-family="Times,serif" font-size="14.00">serviceinstance</text>
</g>
<!-- workload entity -->
<g id="node2" class="node">
<title>workload entity</title>
<ellipse fill="none" stroke="black" cx="83.19" cy="-18" rx="83.39" ry="18"/>
<text text-anchor="middle" x="83.19" y="-14.3" font-family="Times,serif" font-size="14.00">workload entity</text>
</g>
<!-- serviceinstance&#45;&gt;workload entity -->
<g id="edge1" class="edge">
<title>serviceinstance&#45;&gt;workload entity</title>
<path fill="none" stroke="black" d="M958.91,-102.09C835.66,-98.66 595.91,-89.77 393.19,-69 310.1,-60.49 215.42,-44.25 152.79,-32.59"/>
<polygon fill="black" stroke="black" points="153.11,-29.09 142.64,-30.69 151.82,-35.97 153.11,-29.09"/>
<text text-anchor="middle" x="407.19" y="-57.8" font-family="Times,serif" font-size="14.00">is_a</text>
</g>
<!-- servicetype mixin -->
<g id="node3" class="node">
<title>servicetype mixin</title>
<ellipse fill="none" stroke="black" cx="277.19" cy="-18" rx="92.88" ry="18"/>
<text text-anchor="middle" x="277.19" y="-14.3" font-family="Times,serif" font-size="14.00">servicetype mixin</text>
</g>
<!-- serviceinstance&#45;&gt;servicetype mixin -->
<g id="edge2" class="edge">
<title>serviceinstance&#45;&gt;servicetype mixin</title>
<path fill="none" stroke="black" d="M958.47,-102.38C853.18,-99.46 665.9,-91.33 507.19,-69 450.08,-60.97 386.03,-46.59 340.05,-35.31"/>
<polygon fill="black" stroke="black" points="340.78,-31.89 330.23,-32.88 339.1,-38.68 340.78,-31.89"/>
<text text-anchor="middle" x="523.69" y="-57.8" font-family="Times,serif" font-size="14.00">uses</text>
</g>
<!-- id -->
<g id="node4" class="node">
<title>id</title>
<ellipse fill="none" stroke="blue" cx="426.19" cy="-18" rx="38.19" ry="18"/>
<text text-anchor="middle" x="426.19" y="-14.3" font-family="Times,serif" font-size="14.00">string</text>
</g>
<!-- serviceinstance&#45;&gt;id -->
<g id="edge3" class="edge">
<title>serviceinstance&#45;&gt;id</title>
<path fill="none" stroke="blue" d="M960.91,-100.1C877.82,-95.38 744.43,-85.88 630.19,-69 560.09,-58.64 542.41,-55.2 474.19,-36 471.09,-35.13 467.89,-34.15 464.69,-33.13"/>
<polygon fill="blue" stroke="blue" points="465.78,-29.81 455.19,-29.96 463.56,-36.45 465.78,-29.81"/>
<text text-anchor="middle" x="637.19" y="-57.8" font-family="Times,serif" font-size="14.00">id</text>
</g>
<!-- iri -->
<g id="node5" class="node">
<title>iri</title>
<ellipse fill="none" stroke="blue" cx="527.19" cy="-18" rx="44.39" ry="18"/>
<text text-anchor="middle" x="527.19" y="-14.3" font-family="Times,serif" font-size="14.00">iri type</text>
</g>
<!-- serviceinstance&#45;&gt;iri -->
<g id="edge4" class="edge">
<title>serviceinstance&#45;&gt;iri</title>
<path fill="none" stroke="blue" d="M963.96,-98.29C898.7,-92.82 802.92,-83.27 720.19,-69 657.62,-58.2 642.4,-52.88 581.19,-36 577.62,-35.01 573.93,-33.95 570.23,-32.85"/>
<polygon fill="blue" stroke="blue" points="571.08,-29.45 560.5,-29.9 569.05,-36.15 571.08,-29.45"/>
<text text-anchor="middle" x="728.19" y="-57.8" font-family="Times,serif" font-size="14.00">iri</text>
</g>
<!-- type -->
<g id="node6" class="node">
<title>type</title>
<ellipse fill="none" stroke="blue" cx="628.19" cy="-18" rx="38.19" ry="18"/>
<text text-anchor="middle" x="628.19" y="-14.3" font-family="Times,serif" font-size="14.00">string</text>
</g>
<!-- serviceinstance&#45;&gt;type -->
<g id="edge5" class="edge">
<title>serviceinstance&#45;&gt;type</title>
<path fill="none" stroke="blue" d="M971.36,-95.17C925.16,-88.9 863.33,-79.73 809.19,-69 749.03,-57.08 733.89,-53.79 675.19,-36 672.43,-35.16 669.59,-34.26 666.74,-33.31"/>
<polygon fill="blue" stroke="blue" points="667.71,-29.94 657.12,-30 665.43,-36.56 667.71,-29.94"/>
<text text-anchor="middle" x="825.19" y="-57.8" font-family="Times,serif" font-size="14.00">type</text>
</g>
<!-- name -->
<g id="node7" class="node">
<title>name</title>
<ellipse fill="none" stroke="blue" cx="741.19" cy="-18" rx="56.59" ry="18"/>
<text text-anchor="middle" x="741.19" y="-14.3" font-family="Times,serif" font-size="14.00">label type</text>
</g>
<!-- serviceinstance&#45;&gt;name -->
<g id="edge6" class="edge">
<title>serviceinstance&#45;&gt;name</title>
<path fill="none" stroke="blue" d="M983.5,-91.99C955.22,-85.76 920.75,-77.65 890.19,-69 855.05,-59.05 815.91,-45.84 786.58,-35.49"/>
<polygon fill="blue" stroke="blue" points="787.62,-32.15 777.02,-32.1 785.27,-38.74 787.62,-32.15"/>
<text text-anchor="middle" x="910.19" y="-57.8" font-family="Times,serif" font-size="14.00">name</text>
</g>
<!-- description -->
<g id="node8" class="node">
<title>description</title>
<ellipse fill="none" stroke="blue" cx="891.19" cy="-18" rx="75.29" ry="18"/>
<text text-anchor="middle" x="891.19" y="-14.3" font-family="Times,serif" font-size="14.00">narrative text</text>
</g>
<!-- serviceinstance&#45;&gt;description -->
<g id="edge7" class="edge">
<title>serviceinstance&#45;&gt;description</title>
<path fill="none" stroke="blue" d="M999.51,-89.39C985.37,-83.77 969.74,-76.81 956.19,-69 942.8,-61.27 929.06,-51.1 917.69,-41.95"/>
<polygon fill="blue" stroke="blue" points="919.82,-39.16 909.87,-35.52 915.37,-44.57 919.82,-39.16"/>
<text text-anchor="middle" x="996.69" y="-57.8" font-family="Times,serif" font-size="14.00">description</text>
</g>
<!-- source -->
<g id="node9" class="node">
<title>source</title>
<ellipse fill="none" stroke="blue" cx="1041.19" cy="-18" rx="56.59" ry="18"/>
<text text-anchor="middle" x="1041.19" y="-14.3" font-family="Times,serif" font-size="14.00">label type</text>
</g>
<!-- serviceinstance&#45;&gt;source -->
<g id="edge8" class="edge">
<title>serviceinstance&#45;&gt;source</title>
<path fill="none" stroke="blue" d="M1041.19,-86.8C1041.19,-75.16 1041.19,-59.55 1041.19,-46.24"/>
<polygon fill="blue" stroke="blue" points="1044.69,-46.18 1041.19,-36.18 1037.69,-46.18 1044.69,-46.18"/>
<text text-anchor="middle" x="1065.19" y="-57.8" font-family="Times,serif" font-size="14.00">source</text>
</g>
<!-- provided by -->
<g id="node10" class="node">
<title>provided by</title>
<ellipse fill="none" stroke="blue" cx="1153.19" cy="-18" rx="37.09" ry="18"/>
<text text-anchor="middle" x="1153.19" y="-14.3" font-family="Times,serif" font-size="14.00">agent</text>
</g>
<!-- serviceinstance&#45;&gt;provided by -->
<g id="edge9" class="edge">
<title>serviceinstance&#45;&gt;provided by</title>
<path fill="none" stroke="blue" d="M1066.42,-87.77C1075.04,-82.03 1084.66,-75.4 1093.19,-69 1105.03,-60.12 1117.69,-49.72 1128.31,-40.71"/>
<polygon fill="blue" stroke="blue" points="1130.66,-43.3 1135.98,-34.14 1126.11,-37.98 1130.66,-43.3"/>
<text text-anchor="middle" x="1154.69" y="-57.8" font-family="Times,serif" font-size="14.00">provided by</text>
</g>
<!-- has attribute -->
<g id="node11" class="node">
<title>has attribute</title>
<ellipse fill="none" stroke="blue" cx="1260.19" cy="-18" rx="51.99" ry="18"/>
<text text-anchor="middle" x="1260.19" y="-14.3" font-family="Times,serif" font-size="14.00">attribute</text>
</g>
<!-- serviceinstance&#45;&gt;has attribute -->
<g id="edge10" class="edge">
<title>serviceinstance&#45;&gt;has attribute</title>
<path fill="none" stroke="blue" d="M1101,-92.37C1142.54,-84.04 1192.02,-73.54 1201.19,-69 1214.62,-62.36 1227.55,-52.01 1237.86,-42.45"/>
<polygon fill="blue" stroke="blue" points="1240.44,-44.83 1245.21,-35.36 1235.58,-39.79 1240.44,-44.83"/>
<text text-anchor="middle" x="1272.19" y="-57.8" font-family="Times,serif" font-size="14.00">has attribute</text>
</g>
<!-- category -->
<g id="node12" class="node">
<title>category</title>
<ellipse fill="none" stroke="black" cx="1381.19" cy="-18" rx="51.19" ry="18"/>
<text text-anchor="middle" x="1381.19" y="-14.3" font-family="Times,serif" font-size="14.00">category</text>
</g>
<!-- serviceinstance&#45;&gt;category -->
<g id="edge11" class="edge">
<title>serviceinstance&#45;&gt;category</title>
<path fill="none" stroke="blue" d="M1100.46,-92.25C1111.32,-90.33 1122.58,-88.48 1133.19,-87 1217.2,-75.28 1245.16,-102.26 1323.19,-69 1337.03,-63.1 1349.97,-52.65 1360.1,-42.82"/>
<polygon fill="blue" stroke="blue" points="1362.76,-45.1 1367.26,-35.51 1357.76,-40.2 1362.76,-45.1"/>
<text text-anchor="middle" x="1378.69" y="-57.8" font-family="Times,serif" font-size="14.00">category</text>
</g>
<!-- in taxon -->
<g id="node14" class="node">
<title>in taxon</title>
<ellipse fill="none" stroke="blue" cx="1523.19" cy="-18" rx="72.59" ry="18"/>
<text text-anchor="middle" x="1523.19" y="-14.3" font-family="Times,serif" font-size="14.00">system taxon</text>
</g>
<!-- serviceinstance&#45;&gt;in taxon -->
<g id="edge12" class="edge">
<title>serviceinstance&#45;&gt;in taxon</title>
<path fill="none" stroke="blue" d="M1099.93,-92.07C1110.94,-90.14 1122.39,-88.34 1133.19,-87 1257.39,-71.6 1292.85,-99.6 1414.19,-69 1439.58,-62.6 1466.32,-50.42 1486.97,-39.69"/>
<polygon fill="blue" stroke="blue" points="1488.81,-42.67 1496,-34.89 1485.52,-36.49 1488.81,-42.67"/>
<text text-anchor="middle" x="1484.19" y="-57.8" font-family="Times,serif" font-size="14.00">in taxon</text>
</g>
<!-- has computational sequence -->
<g id="node15" class="node">
<title>has computational sequence</title>
<ellipse fill="none" stroke="blue" cx="1737.19" cy="-18" rx="123.48" ry="18"/>
<text text-anchor="middle" x="1737.19" y="-14.3" font-family="Times,serif" font-size="14.00">computational sequence</text>
</g>
<!-- serviceinstance&#45;&gt;has computational sequence -->
<g id="edge13" class="edge">
<title>serviceinstance&#45;&gt;has computational sequence</title>
<path fill="none" stroke="blue" d="M1099.42,-92.01C1110.59,-90.06 1122.22,-88.26 1133.19,-87 1302.92,-67.43 1347.9,-92.02 1517.19,-69 1570.12,-61.8 1629.09,-48.08 1672.65,-36.83"/>
<polygon fill="blue" stroke="blue" points="1673.74,-40.17 1682.53,-34.25 1671.97,-33.39 1673.74,-40.17"/>
<text text-anchor="middle" x="1698.69" y="-57.8" font-family="Times,serif" font-size="14.00">has computational sequence</text>
</g>
<!-- synonym -->
<g id="node16" class="node">
<title>synonym</title>
<ellipse fill="none" stroke="blue" cx="1935.19" cy="-18" rx="56.59" ry="18"/>
<text text-anchor="middle" x="1935.19" y="-14.3" font-family="Times,serif" font-size="14.00">label type</text>
</g>
<!-- serviceinstance&#45;&gt;synonym -->
<g id="edge14" class="edge">
<title>serviceinstance&#45;&gt;synonym</title>
<path fill="none" stroke="blue" d="M1098.9,-91.92C1110.23,-89.95 1122.05,-88.17 1133.19,-87 1281.54,-71.4 1657.88,-98.01 1804.19,-69 1836.38,-62.62 1870.98,-49.1 1896.54,-37.72"/>
<polygon fill="blue" stroke="blue" points="1898.21,-40.81 1905.87,-33.49 1895.32,-34.44 1898.21,-40.81"/>
<text text-anchor="middle" x="1888.19" y="-57.8" font-family="Times,serif" font-size="14.00">synonym</text>
</g>
<!-- xref -->
<g id="node17" class="node">
<title>xref</title>
<ellipse fill="none" stroke="blue" cx="2054.19" cy="-18" rx="44.39" ry="18"/>
<text text-anchor="middle" x="2054.19" y="-14.3" font-family="Times,serif" font-size="14.00">iri type</text>
</g>
<!-- serviceinstance&#45;&gt;xref -->
<g id="edge15" class="edge">
<title>serviceinstance&#45;&gt;xref</title>
<path fill="none" stroke="blue" d="M1098.9,-91.88C1110.22,-89.91 1122.04,-88.15 1133.19,-87 1308.09,-68.97 1751.7,-103.06 1924.19,-69 1957.01,-62.52 1992.32,-48.44 2017.84,-36.87"/>
<polygon fill="blue" stroke="blue" points="2019.51,-39.96 2027.12,-32.58 2016.58,-33.6 2019.51,-39.96"/>
<text text-anchor="middle" x="1989.69" y="-57.8" font-family="Times,serif" font-size="14.00">xref</text>
</g>
<!-- named thing_category -->
<g id="node13" class="node">
<title>named thing_category</title>
<ellipse fill="none" stroke="blue" cx="1212.19" cy="-105" rx="69.59" ry="18"/>
<text text-anchor="middle" x="1212.19" y="-101.3" font-family="Times,serif" font-size="14.00">named thing</text>
</g>
</g>
</svg>
