<?xml version="1.0" encoding="UTF-8" standalone="no"?>
<!DOCTYPE svg PUBLIC "-//W3C//DTD SVG 1.1//EN"
 "http://www.w3.org/Graphics/SVG/1.1/DTD/svg11.dtd">
<!-- Generated by graphviz version 2.43.0 (0)
 -->
<!-- Title: %3 Pages: 1 -->
<svg width="1832pt" height="131pt"
 viewBox="0.00 0.00 1832.04 131.00" xmlns="http://www.w3.org/2000/svg" xmlns:xlink="http://www.w3.org/1999/xlink">
<g id="graph0" class="graph" transform="scale(1 1) rotate(0) translate(4 127)">
<title>%3</title>
<polygon fill="white" stroke="transparent" points="-4,4 -4,-127 1828.04,-127 1828.04,4 -4,4"/>
<!-- serviceunittype -->
<g id="node1" class="node">
<title>serviceunittype</title>
<ellipse fill="none" stroke="black" cx="838.19" cy="-105" rx="83.39" ry="18"/>
<text text-anchor="middle" x="838.19" y="-101.3" font-family="Times,serif" font-size="14.00">serviceunittype</text>
</g>
<!-- workload entity -->
<g id="node2" class="node">
<title>workload entity</title>
<ellipse fill="none" stroke="black" cx="83.19" cy="-18" rx="83.39" ry="18"/>
<text text-anchor="middle" x="83.19" y="-14.3" font-family="Times,serif" font-size="14.00">workload entity</text>
</g>
<!-- serviceunittype&#45;&gt;workload entity -->
<g id="edge1" class="edge">
<title>serviceunittype&#45;&gt;workload entity</title>
<path fill="none" stroke="black" d="M755.78,-102.41C651.38,-99.52 466.14,-91.42 309.19,-69 252.42,-60.89 188.72,-46.28 143.45,-34.95"/>
<polygon fill="black" stroke="black" points="144.06,-31.49 133.5,-32.43 142.34,-38.28 144.06,-31.49"/>
<text text-anchor="middle" x="323.19" y="-57.8" font-family="Times,serif" font-size="14.00">is_a</text>
</g>
<!-- id -->
<g id="node3" class="node">
<title>id</title>
<ellipse fill="none" stroke="blue" cx="223.19" cy="-18" rx="38.19" ry="18"/>
<text text-anchor="middle" x="223.19" y="-14.3" font-family="Times,serif" font-size="14.00">string</text>
</g>
<!-- serviceunittype&#45;&gt;id -->
<g id="edge2" class="edge">
<title>serviceunittype&#45;&gt;id</title>
<path fill="none" stroke="blue" d="M757.91,-100.1C674.82,-95.38 541.43,-85.88 427.19,-69 357.09,-58.64 339.41,-55.2 271.19,-36 268.09,-35.13 264.89,-34.15 261.69,-33.13"/>
<polygon fill="blue" stroke="blue" points="262.78,-29.81 252.19,-29.96 260.56,-36.45 262.78,-29.81"/>
<text text-anchor="middle" x="434.19" y="-57.8" font-family="Times,serif" font-size="14.00">id</text>
</g>
<!-- iri -->
<g id="node4" class="node">
<title>iri</title>
<ellipse fill="none" stroke="blue" cx="324.19" cy="-18" rx="44.39" ry="18"/>
<text text-anchor="middle" x="324.19" y="-14.3" font-family="Times,serif" font-size="14.00">iri type</text>
</g>
<!-- serviceunittype&#45;&gt;iri -->
<g id="edge3" class="edge">
<title>serviceunittype&#45;&gt;iri</title>
<path fill="none" stroke="blue" d="M760.96,-98.29C695.7,-92.82 599.92,-83.27 517.19,-69 454.62,-58.2 439.4,-52.88 378.19,-36 374.62,-35.01 370.93,-33.95 367.23,-32.85"/>
<polygon fill="blue" stroke="blue" points="368.08,-29.45 357.5,-29.9 366.05,-36.15 368.08,-29.45"/>
<text text-anchor="middle" x="525.19" y="-57.8" font-family="Times,serif" font-size="14.00">iri</text>
</g>
<!-- type -->
<g id="node5" class="node">
<title>type</title>
<ellipse fill="none" stroke="blue" cx="425.19" cy="-18" rx="38.19" ry="18"/>
<text text-anchor="middle" x="425.19" y="-14.3" font-family="Times,serif" font-size="14.00">string</text>
</g>
<!-- serviceunittype&#45;&gt;type -->
<g id="edge4" class="edge">
<title>serviceunittype&#45;&gt;type</title>
<path fill="none" stroke="blue" d="M768.36,-95.17C722.16,-88.9 660.33,-79.73 606.19,-69 546.03,-57.08 530.89,-53.79 472.19,-36 469.43,-35.16 466.59,-34.26 463.74,-33.31"/>
<polygon fill="blue" stroke="blue" points="464.71,-29.94 454.12,-30 462.43,-36.56 464.71,-29.94"/>
<text text-anchor="middle" x="622.19" y="-57.8" font-family="Times,serif" font-size="14.00">type</text>
</g>
<!-- name -->
<g id="node6" class="node">
<title>name</title>
<ellipse fill="none" stroke="blue" cx="538.19" cy="-18" rx="56.59" ry="18"/>
<text text-anchor="middle" x="538.19" y="-14.3" font-family="Times,serif" font-size="14.00">label type</text>
</g>
<!-- serviceunittype&#45;&gt;name -->
<g id="edge5" class="edge">
<title>serviceunittype&#45;&gt;name</title>
<path fill="none" stroke="blue" d="M780.5,-91.99C752.22,-85.76 717.75,-77.65 687.19,-69 652.05,-59.05 612.91,-45.84 583.58,-35.49"/>
<polygon fill="blue" stroke="blue" points="584.62,-32.15 574.02,-32.1 582.27,-38.74 584.62,-32.15"/>
<text text-anchor="middle" x="707.19" y="-57.8" font-family="Times,serif" font-size="14.00">name</text>
</g>
<!-- description -->
<g id="node7" class="node">
<title>description</title>
<ellipse fill="none" stroke="blue" cx="688.19" cy="-18" rx="75.29" ry="18"/>
<text text-anchor="middle" x="688.19" y="-14.3" font-family="Times,serif" font-size="14.00">narrative text</text>
</g>
<!-- serviceunittype&#45;&gt;description -->
<g id="edge6" class="edge">
<title>serviceunittype&#45;&gt;description</title>
<path fill="none" stroke="blue" d="M796.51,-89.39C782.37,-83.77 766.74,-76.81 753.19,-69 739.8,-61.27 726.06,-51.1 714.69,-41.95"/>
<polygon fill="blue" stroke="blue" points="716.82,-39.16 706.87,-35.52 712.37,-44.57 716.82,-39.16"/>
<text text-anchor="middle" x="793.69" y="-57.8" font-family="Times,serif" font-size="14.00">description</text>
</g>
<!-- source -->
<g id="node8" class="node">
<title>source</title>
<ellipse fill="none" stroke="blue" cx="838.19" cy="-18" rx="56.59" ry="18"/>
<text text-anchor="middle" x="838.19" y="-14.3" font-family="Times,serif" font-size="14.00">label type</text>
</g>
<!-- serviceunittype&#45;&gt;source -->
<g id="edge7" class="edge">
<title>serviceunittype&#45;&gt;source</title>
<path fill="none" stroke="blue" d="M838.19,-86.8C838.19,-75.16 838.19,-59.55 838.19,-46.24"/>
<polygon fill="blue" stroke="blue" points="841.69,-46.18 838.19,-36.18 834.69,-46.18 841.69,-46.18"/>
<text text-anchor="middle" x="862.19" y="-57.8" font-family="Times,serif" font-size="14.00">source</text>
</g>
<!-- provided by -->
<g id="node9" class="node">
<title>provided by</title>
<ellipse fill="none" stroke="blue" cx="950.19" cy="-18" rx="37.09" ry="18"/>
<text text-anchor="middle" x="950.19" y="-14.3" font-family="Times,serif" font-size="14.00">agent</text>
</g>
<!-- serviceunittype&#45;&gt;provided by -->
<g id="edge8" class="edge">
<title>serviceunittype&#45;&gt;provided by</title>
<path fill="none" stroke="blue" d="M863.42,-87.77C872.04,-82.03 881.66,-75.4 890.19,-69 902.03,-60.12 914.69,-49.72 925.31,-40.71"/>
<polygon fill="blue" stroke="blue" points="927.66,-43.3 932.98,-34.14 923.11,-37.98 927.66,-43.3"/>
<text text-anchor="middle" x="951.69" y="-57.8" font-family="Times,serif" font-size="14.00">provided by</text>
</g>
<!-- has attribute -->
<g id="node10" class="node">
<title>has attribute</title>
<ellipse fill="none" stroke="blue" cx="1057.19" cy="-18" rx="51.99" ry="18"/>
<text text-anchor="middle" x="1057.19" y="-14.3" font-family="Times,serif" font-size="14.00">attribute</text>
</g>
<!-- serviceunittype&#45;&gt;has attribute -->
<g id="edge9" class="edge">
<title>serviceunittype&#45;&gt;has attribute</title>
<path fill="none" stroke="blue" d="M898,-92.37C939.54,-84.04 989.02,-73.54 998.19,-69 1011.62,-62.36 1024.55,-52.01 1034.86,-42.45"/>
<polygon fill="blue" stroke="blue" points="1037.44,-44.83 1042.21,-35.36 1032.58,-39.79 1037.44,-44.83"/>
<text text-anchor="middle" x="1069.19" y="-57.8" font-family="Times,serif" font-size="14.00">has attribute</text>
</g>
<!-- category -->
<g id="node11" class="node">
<title>category</title>
<ellipse fill="none" stroke="black" cx="1178.19" cy="-18" rx="51.19" ry="18"/>
<text text-anchor="middle" x="1178.19" y="-14.3" font-family="Times,serif" font-size="14.00">category</text>
</g>
<!-- serviceunittype&#45;&gt;category -->
<g id="edge10" class="edge">
<title>serviceunittype&#45;&gt;category</title>
<path fill="none" stroke="blue" d="M897.46,-92.25C908.32,-90.33 919.58,-88.48 930.19,-87 1014.2,-75.28 1042.16,-102.26 1120.19,-69 1134.03,-63.1 1146.97,-52.65 1157.1,-42.82"/>
<polygon fill="blue" stroke="blue" points="1159.76,-45.1 1164.26,-35.51 1154.76,-40.2 1159.76,-45.1"/>
<text text-anchor="middle" x="1175.69" y="-57.8" font-family="Times,serif" font-size="14.00">category</text>
</g>
<!-- in taxon -->
<g id="node13" class="node">
<title>in taxon</title>
<ellipse fill="none" stroke="blue" cx="1320.19" cy="-18" rx="72.59" ry="18"/>
<text text-anchor="middle" x="1320.19" y="-14.3" font-family="Times,serif" font-size="14.00">system taxon</text>
</g>
<!-- serviceunittype&#45;&gt;in taxon -->
<g id="edge11" class="edge">
<title>serviceunittype&#45;&gt;in taxon</title>
<path fill="none" stroke="blue" d="M896.93,-92.07C907.94,-90.14 919.39,-88.34 930.19,-87 1054.39,-71.6 1089.85,-99.6 1211.19,-69 1236.58,-62.6 1263.32,-50.42 1283.97,-39.69"/>
<polygon fill="blue" stroke="blue" points="1285.81,-42.67 1293,-34.89 1282.52,-36.49 1285.81,-42.67"/>
<text text-anchor="middle" x="1281.19" y="-57.8" font-family="Times,serif" font-size="14.00">in taxon</text>
</g>
<!-- has computational sequence -->
<g id="node14" class="node">
<title>has computational sequence</title>
<ellipse fill="none" stroke="blue" cx="1534.19" cy="-18" rx="123.48" ry="18"/>
<text text-anchor="middle" x="1534.19" y="-14.3" font-family="Times,serif" font-size="14.00">computational sequence</text>
</g>
<!-- serviceunittype&#45;&gt;has computational sequence -->
<g id="edge12" class="edge">
<title>serviceunittype&#45;&gt;has computational sequence</title>
<path fill="none" stroke="blue" d="M896.42,-92.01C907.59,-90.06 919.22,-88.26 930.19,-87 1099.92,-67.43 1144.9,-92.02 1314.19,-69 1367.12,-61.8 1426.09,-48.08 1469.65,-36.83"/>
<polygon fill="blue" stroke="blue" points="1470.74,-40.17 1479.53,-34.25 1468.97,-33.39 1470.74,-40.17"/>
<text text-anchor="middle" x="1495.69" y="-57.8" font-family="Times,serif" font-size="14.00">has computational sequence</text>
</g>
<!-- has homogeneity -->
<g id="node15" class="node">
<title>has homogeneity</title>
<ellipse fill="none" stroke="blue" cx="1753.19" cy="-18" rx="70.69" ry="18"/>
<text text-anchor="middle" x="1753.19" y="-14.3" font-family="Times,serif" font-size="14.00">homogeneity</text>
</g>
<!-- serviceunittype&#45;&gt;has homogeneity -->
<g id="edge13" class="edge">
<title>serviceunittype&#45;&gt;has homogeneity</title>
<path fill="none" stroke="blue" d="M895.9,-91.92C907.23,-89.95 919.05,-88.17 930.19,-87 1078.54,-71.4 1454.24,-94.58 1601.19,-69 1638.32,-62.54 1678.79,-48.88 1708.62,-37.47"/>
<polygon fill="blue" stroke="blue" points="1710.26,-40.59 1718.31,-33.7 1707.72,-34.07 1710.26,-40.59"/>
<text text-anchor="middle" x="1721.19" y="-57.8" font-family="Times,serif" font-size="14.00">has homogeneity</text>
</g>
<!-- named thing_category -->
<g id="node12" class="node">
<title>named thing_category</title>
<ellipse fill="none" stroke="blue" cx="1009.19" cy="-105" rx="69.59" ry="18"/>
<text text-anchor="middle" x="1009.19" y="-101.3" font-family="Times,serif" font-size="14.00">named thing</text>
</g>
</g>
</svg>
