<?xml version="1.0" encoding="UTF-8" standalone="no"?>
<!DOCTYPE svg PUBLIC "-//W3C//DTD SVG 1.1//EN"
 "http://www.w3.org/Graphics/SVG/1.1/DTD/svg11.dtd">
<!-- Generated by graphviz version 2.43.0 (0)
 -->
<!-- Title: %3 Pages: 1 -->
<svg width="2605pt" height="131pt"
 viewBox="0.00 0.00 2605.19 131.00" xmlns="http://www.w3.org/2000/svg" xmlns:xlink="http://www.w3.org/1999/xlink">
<g id="graph0" class="graph" transform="scale(1 1) rotate(0) translate(4 127)">
<title>%3</title>
<polygon fill="white" stroke="transparent" points="-4,4 -4,-127 2601.19,-127 2601.19,4 -4,4"/>
<!-- service background exposure -->
<g id="node1" class="node">
<title>service background exposure</title>
<ellipse fill="none" stroke="black" cx="1300.19" cy="-105" rx="146.77" ry="18"/>
<text text-anchor="middle" x="1300.19" y="-101.3" font-family="Times,serif" font-size="14.00">service background exposure</text>
</g>
<!-- workload entity -->
<g id="node2" class="node">
<title>workload entity</title>
<ellipse fill="none" stroke="black" cx="83.19" cy="-18" rx="83.39" ry="18"/>
<text text-anchor="middle" x="83.19" y="-14.3" font-family="Times,serif" font-size="14.00">workload entity</text>
</g>
<!-- service background exposure&#45;&gt;workload entity -->
<g id="edge1" class="edge">
<title>service background exposure&#45;&gt;workload entity</title>
<path fill="none" stroke="black" d="M1157.27,-100.75C993.34,-96.35 716.59,-86.93 479.19,-69 343.67,-58.77 309.66,-55.69 175.19,-36 167.93,-34.94 160.36,-33.72 152.83,-32.43"/>
<polygon fill="black" stroke="black" points="153.42,-28.98 142.97,-30.71 152.22,-35.88 153.42,-28.98"/>
<text text-anchor="middle" x="493.19" y="-57.8" font-family="Times,serif" font-size="14.00">is_a</text>
</g>
<!-- exposure event -->
<g id="node3" class="node">
<title>exposure event</title>
<ellipse fill="none" stroke="black" cx="266.19" cy="-18" rx="81.79" ry="18"/>
<text text-anchor="middle" x="266.19" y="-14.3" font-family="Times,serif" font-size="14.00">exposure event</text>
</g>
<!-- service background exposure&#45;&gt;exposure event -->
<g id="edge2" class="edge">
<title>service background exposure&#45;&gt;exposure event</title>
<path fill="none" stroke="black" d="M1159.38,-99.74C974.51,-92.8 640.24,-75.62 357.19,-36 349.89,-34.98 342.28,-33.78 334.71,-32.49"/>
<polygon fill="black" stroke="black" points="335.26,-29.03 324.81,-30.76 334.06,-35.93 335.26,-29.03"/>
<text text-anchor="middle" x="657.69" y="-57.8" font-family="Times,serif" font-size="14.00">uses</text>
</g>
<!-- componentservice grouping mixin -->
<g id="node4" class="node">
<title>componentservice grouping mixin</title>
<ellipse fill="none" stroke="black" cx="535.19" cy="-18" rx="168.97" ry="18"/>
<text text-anchor="middle" x="535.19" y="-14.3" font-family="Times,serif" font-size="14.00">componentservice grouping mixin</text>
</g>
<!-- service background exposure&#45;&gt;componentservice grouping mixin -->
<g id="edge3" class="edge">
<title>service background exposure&#45;&gt;componentservice grouping mixin</title>
<path fill="none" stroke="black" d="M1169.96,-96.63C1079.96,-90.86 957.58,-81.68 850.19,-69 774.64,-60.08 689.44,-46.33 626.72,-35.51"/>
<polygon fill="black" stroke="black" points="627.31,-32.06 616.86,-33.8 626.11,-38.95 627.31,-32.06"/>
<text text-anchor="middle" x="866.69" y="-57.8" font-family="Times,serif" font-size="14.00">uses</text>
</g>
<!-- id -->
<g id="node5" class="node">
<title>id</title>
<ellipse fill="none" stroke="blue" cx="760.19" cy="-18" rx="38.19" ry="18"/>
<text text-anchor="middle" x="760.19" y="-14.3" font-family="Times,serif" font-size="14.00">string</text>
</g>
<!-- service background exposure&#45;&gt;id -->
<g id="edge4" class="edge">
<title>service background exposure&#45;&gt;id</title>
<path fill="none" stroke="blue" d="M1173.71,-95.84C1073.2,-87.13 929.81,-69.75 808.19,-36 805.08,-35.14 801.88,-34.17 798.69,-33.16"/>
<polygon fill="blue" stroke="blue" points="799.77,-29.83 789.18,-30 797.56,-36.47 799.77,-29.83"/>
<text text-anchor="middle" x="962.19" y="-57.8" font-family="Times,serif" font-size="14.00">id</text>
</g>
<!-- iri -->
<g id="node6" class="node">
<title>iri</title>
<ellipse fill="none" stroke="blue" cx="861.19" cy="-18" rx="44.39" ry="18"/>
<text text-anchor="middle" x="861.19" y="-14.3" font-family="Times,serif" font-size="14.00">iri type</text>
</g>
<!-- service background exposure&#45;&gt;iri -->
<g id="edge5" class="edge">
<title>service background exposure&#45;&gt;iri</title>
<path fill="none" stroke="blue" d="M1202.4,-91.52C1158.75,-85.49 1106.76,-77.68 1060.19,-69 995.22,-56.89 978.99,-53.27 915.19,-36 911.61,-35.03 907.92,-33.98 904.22,-32.89"/>
<polygon fill="blue" stroke="blue" points="905.07,-29.49 894.48,-29.95 903.04,-36.19 905.07,-29.49"/>
<text text-anchor="middle" x="1068.19" y="-57.8" font-family="Times,serif" font-size="14.00">iri</text>
</g>
<!-- type -->
<g id="node7" class="node">
<title>type</title>
<ellipse fill="none" stroke="blue" cx="962.19" cy="-18" rx="38.19" ry="18"/>
<text text-anchor="middle" x="962.19" y="-14.3" font-family="Times,serif" font-size="14.00">string</text>
</g>
<!-- service background exposure&#45;&gt;type -->
<g id="edge6" class="edge">
<title>service background exposure&#45;&gt;type</title>
<path fill="none" stroke="blue" d="M1225.29,-89.44C1166.07,-77.22 1081.61,-58.23 1009.19,-36 1006.43,-35.15 1003.59,-34.24 1000.75,-33.29"/>
<polygon fill="blue" stroke="blue" points="1001.72,-29.92 991.13,-29.97 999.44,-36.54 1001.72,-29.92"/>
<text text-anchor="middle" x="1144.19" y="-57.8" font-family="Times,serif" font-size="14.00">type</text>
</g>
<!-- name -->
<g id="node8" class="node">
<title>name</title>
<ellipse fill="none" stroke="blue" cx="1075.19" cy="-18" rx="56.59" ry="18"/>
<text text-anchor="middle" x="1075.19" y="-14.3" font-family="Times,serif" font-size="14.00">label type</text>
</g>
<!-- service background exposure&#45;&gt;name -->
<g id="edge7" class="edge">
<title>service background exposure&#45;&gt;name</title>
<path fill="none" stroke="blue" d="M1257.08,-87.71C1217.7,-72.84 1159.73,-50.94 1119.87,-35.88"/>
<polygon fill="blue" stroke="blue" points="1121,-32.56 1110.4,-32.3 1118.52,-39.11 1121,-32.56"/>
<text text-anchor="middle" x="1221.19" y="-57.8" font-family="Times,serif" font-size="14.00">name</text>
</g>
<!-- description -->
<g id="node9" class="node">
<title>description</title>
<ellipse fill="none" stroke="blue" cx="1225.19" cy="-18" rx="75.29" ry="18"/>
<text text-anchor="middle" x="1225.19" y="-14.3" font-family="Times,serif" font-size="14.00">narrative text</text>
</g>
<!-- service background exposure&#45;&gt;description -->
<g id="edge8" class="edge">
<title>service background exposure&#45;&gt;description</title>
<path fill="none" stroke="blue" d="M1285.02,-86.8C1274.07,-74.39 1259.13,-57.46 1246.91,-43.62"/>
<polygon fill="blue" stroke="blue" points="1249.33,-41.07 1240.09,-35.89 1244.08,-45.7 1249.33,-41.07"/>
<text text-anchor="middle" x="1307.69" y="-57.8" font-family="Times,serif" font-size="14.00">description</text>
</g>
<!-- source -->
<g id="node10" class="node">
<title>source</title>
<ellipse fill="none" stroke="blue" cx="1375.19" cy="-18" rx="56.59" ry="18"/>
<text text-anchor="middle" x="1375.19" y="-14.3" font-family="Times,serif" font-size="14.00">label type</text>
</g>
<!-- service background exposure&#45;&gt;source -->
<g id="edge9" class="edge">
<title>service background exposure&#45;&gt;source</title>
<path fill="none" stroke="blue" d="M1331.05,-87.26C1338.64,-82.13 1346.27,-75.96 1352.19,-69 1358,-62.17 1362.64,-53.63 1366.19,-45.55"/>
<polygon fill="blue" stroke="blue" points="1369.52,-46.65 1369.98,-36.07 1363.02,-44.05 1369.52,-46.65"/>
<text text-anchor="middle" x="1386.19" y="-57.8" font-family="Times,serif" font-size="14.00">source</text>
</g>
<!-- provided by -->
<g id="node11" class="node">
<title>provided by</title>
<ellipse fill="none" stroke="blue" cx="1487.19" cy="-18" rx="37.09" ry="18"/>
<text text-anchor="middle" x="1487.19" y="-14.3" font-family="Times,serif" font-size="14.00">agent</text>
</g>
<!-- service background exposure&#45;&gt;provided by -->
<g id="edge10" class="edge">
<title>service background exposure&#45;&gt;provided by</title>
<path fill="none" stroke="blue" d="M1362.43,-88.61C1379.6,-83.37 1397.97,-76.82 1414.19,-69 1430.54,-61.12 1447.34,-49.87 1460.7,-40.03"/>
<polygon fill="blue" stroke="blue" points="1463.06,-42.63 1468.94,-33.82 1458.85,-37.04 1463.06,-42.63"/>
<text text-anchor="middle" x="1482.69" y="-57.8" font-family="Times,serif" font-size="14.00">provided by</text>
</g>
<!-- has attribute -->
<g id="node12" class="node">
<title>has attribute</title>
<ellipse fill="none" stroke="blue" cx="1594.19" cy="-18" rx="51.99" ry="18"/>
<text text-anchor="middle" x="1594.19" y="-14.3" font-family="Times,serif" font-size="14.00">attribute</text>
</g>
<!-- service background exposure&#45;&gt;has attribute -->
<g id="edge11" class="edge">
<title>service background exposure&#45;&gt;has attribute</title>
<path fill="none" stroke="blue" d="M1407.84,-92.73C1456.16,-86.62 1507.19,-78.4 1529.19,-69 1544.3,-62.55 1558.99,-51.76 1570.57,-41.85"/>
<polygon fill="blue" stroke="blue" points="1572.91,-44.45 1578.06,-35.19 1568.26,-39.22 1572.91,-44.45"/>
<text text-anchor="middle" x="1602.19" y="-57.8" font-family="Times,serif" font-size="14.00">has attribute</text>
</g>
<!-- category -->
<g id="node13" class="node">
<title>category</title>
<ellipse fill="none" stroke="black" cx="1715.19" cy="-18" rx="51.19" ry="18"/>
<text text-anchor="middle" x="1715.19" y="-14.3" font-family="Times,serif" font-size="14.00">category</text>
</g>
<!-- service background exposure&#45;&gt;category -->
<g id="edge12" class="edge">
<title>service background exposure&#45;&gt;category</title>
<path fill="none" stroke="blue" d="M1404.38,-92.3C1421.36,-90.48 1438.76,-88.65 1455.19,-87 1499.15,-82.59 1612.24,-85.58 1653.19,-69 1667.84,-63.07 1681.76,-52.47 1692.69,-42.56"/>
<polygon fill="blue" stroke="blue" points="1695.25,-44.96 1700.09,-35.53 1690.43,-39.88 1695.25,-44.96"/>
<text text-anchor="middle" x="1709.69" y="-57.8" font-family="Times,serif" font-size="14.00">category</text>
</g>
<!-- in taxon -->
<g id="node15" class="node">
<title>in taxon</title>
<ellipse fill="none" stroke="blue" cx="1857.19" cy="-18" rx="72.59" ry="18"/>
<text text-anchor="middle" x="1857.19" y="-14.3" font-family="Times,serif" font-size="14.00">system taxon</text>
</g>
<!-- service background exposure&#45;&gt;in taxon -->
<g id="edge13" class="edge">
<title>service background exposure&#45;&gt;in taxon</title>
<path fill="none" stroke="blue" d="M1402.68,-92.07C1420.18,-90.23 1438.2,-88.46 1455.19,-87 1583.86,-75.96 1619.79,-99.81 1745.19,-69 1771.31,-62.58 1798.92,-50.33 1820.19,-39.55"/>
<polygon fill="blue" stroke="blue" points="1821.92,-42.6 1829.19,-34.89 1818.71,-36.38 1821.92,-42.6"/>
<text text-anchor="middle" x="1816.19" y="-57.8" font-family="Times,serif" font-size="14.00">in taxon</text>
</g>
<!-- has computational sequence -->
<g id="node16" class="node">
<title>has computational sequence</title>
<ellipse fill="none" stroke="blue" cx="2071.19" cy="-18" rx="123.48" ry="18"/>
<text text-anchor="middle" x="2071.19" y="-14.3" font-family="Times,serif" font-size="14.00">computational sequence</text>
</g>
<!-- service background exposure&#45;&gt;has computational sequence -->
<g id="edge14" class="edge">
<title>service background exposure&#45;&gt;has computational sequence</title>
<path fill="none" stroke="blue" d="M1401.82,-91.92C1419.59,-90.07 1437.92,-88.34 1455.19,-87 1629.96,-73.44 1675.46,-92.35 1849.19,-69 1902.89,-61.78 1962.75,-47.95 2006.78,-36.66"/>
<polygon fill="blue" stroke="blue" points="2007.68,-40.04 2016.48,-34.15 2005.93,-33.27 2007.68,-40.04"/>
<text text-anchor="middle" x="2031.69" y="-57.8" font-family="Times,serif" font-size="14.00">has computational sequence</text>
</g>
<!-- timepoint -->
<g id="node17" class="node">
<title>timepoint</title>
<ellipse fill="none" stroke="blue" cx="2268.19" cy="-18" rx="55.49" ry="18"/>
<text text-anchor="middle" x="2268.19" y="-14.3" font-family="Times,serif" font-size="14.00">time type</text>
</g>
<!-- service background exposure&#45;&gt;timepoint -->
<g id="edge15" class="edge">
<title>service background exposure&#45;&gt;timepoint</title>
<path fill="none" stroke="blue" d="M1400.14,-91.81C1418.43,-89.93 1437.37,-88.21 1455.19,-87 1606.45,-76.73 1988.47,-98.45 2137.19,-69 2169.48,-62.61 2204.21,-49.02 2229.79,-37.62"/>
<polygon fill="blue" stroke="blue" points="2231.47,-40.7 2239.13,-33.37 2228.57,-34.33 2231.47,-40.7"/>
<text text-anchor="middle" x="2224.19" y="-57.8" font-family="Times,serif" font-size="14.00">timepoint</text>
</g>
<!-- has componentservice or servicetype -->
<g id="node18" class="node">
<title>has componentservice or servicetype</title>
<ellipse fill="none" stroke="blue" cx="2436.19" cy="-18" rx="94.78" ry="18"/>
<text text-anchor="middle" x="2436.19" y="-14.3" font-family="Times,serif" font-size="14.00">componentservice</text>
</g>
<!-- service background exposure&#45;&gt;has componentservice or servicetype -->
<g id="edge16" class="edge">
<title>service background exposure&#45;&gt;has componentservice or servicetype</title>
<path fill="none" stroke="blue" d="M1400.14,-91.75C1418.43,-89.87 1437.36,-88.17 1455.19,-87 1634.4,-75.2 2085.66,-96.16 2263.19,-69 2305.1,-62.59 2351.16,-48.94 2385.21,-37.52"/>
<polygon fill="blue" stroke="blue" points="2386.58,-40.75 2394.92,-34.21 2384.33,-34.12 2386.58,-40.75"/>
<text text-anchor="middle" x="2464.19" y="-57.8" font-family="Times,serif" font-size="14.00">has componentservice or servicetype</text>
</g>
<!-- named thing_category -->
<g id="node14" class="node">
<title>named thing_category</title>
<ellipse fill="none" stroke="blue" cx="1534.19" cy="-105" rx="69.59" ry="18"/>
<text text-anchor="middle" x="1534.19" y="-101.3" font-family="Times,serif" font-size="14.00">named thing</text>
</g>
</g>
</svg>
