<?xml version="1.0" encoding="UTF-8" standalone="no"?>
<!DOCTYPE svg PUBLIC "-//W3C//DTD SVG 1.1//EN"
 "http://www.w3.org/Graphics/SVG/1.1/DTD/svg11.dtd">
<!-- Generated by graphviz version 2.43.0 (0)
 -->
<!-- Title: %3 Pages: 1 -->
<svg width="588pt" height="131pt"
 viewBox="0.00 0.00 587.54 131.00" xmlns="http://www.w3.org/2000/svg" xmlns:xlink="http://www.w3.org/1999/xlink">
<g id="graph0" class="graph" transform="scale(1 1) rotate(0) translate(4 127)">
<title>%3</title>
<polygon fill="white" stroke="transparent" points="-4,4 -4,-127 583.54,-127 583.54,4 -4,4"/>
<!-- servicetype isoform mixin -->
<g id="node1" class="node">
<title>servicetype isoform mixin</title>
<ellipse fill="none" stroke="black" cx="294.94" cy="-105" rx="131.08" ry="18"/>
<text text-anchor="middle" x="294.94" y="-101.3" font-family="Times,serif" font-size="14.00">servicetype isoform mixin</text>
</g>
<!-- servicetype mixin -->
<g id="node2" class="node">
<title>servicetype mixin</title>
<ellipse fill="none" stroke="black" cx="92.94" cy="-18" rx="92.88" ry="18"/>
<text text-anchor="middle" x="92.94" y="-14.3" font-family="Times,serif" font-size="14.00">servicetype mixin</text>
</g>
<!-- servicetype isoform mixin&#45;&gt;servicetype mixin -->
<g id="edge1" class="edge">
<title>servicetype isoform mixin&#45;&gt;servicetype mixin</title>
<path fill="none" stroke="black" d="M255.99,-87.61C222.77,-73.63 174.93,-53.5 139.66,-38.66"/>
<polygon fill="black" stroke="black" points="140.64,-35.27 130.07,-34.62 137.92,-41.73 140.64,-35.27"/>
<text text-anchor="middle" x="220.94" y="-57.8" font-family="Times,serif" font-size="14.00">is_a</text>
</g>
<!-- name -->
<g id="node3" class="node">
<title>name</title>
<ellipse fill="none" stroke="black" cx="239.94" cy="-18" rx="36.29" ry="18"/>
<text text-anchor="middle" x="239.94" y="-14.3" font-family="Times,serif" font-size="14.00">name</text>
</g>
<!-- servicetype isoform mixin&#45;&gt;name -->
<g id="edge2" class="edge">
<title>servicetype isoform mixin&#45;&gt;name</title>
<path fill="none" stroke="blue" d="M283.81,-86.8C275.83,-74.46 264.95,-57.66 256.03,-43.86"/>
<polygon fill="blue" stroke="blue" points="258.87,-41.8 250.5,-35.31 252.99,-45.61 258.87,-41.8"/>
<text text-anchor="middle" x="290.94" y="-57.8" font-family="Times,serif" font-size="14.00">name</text>
</g>
<!-- synonym -->
<g id="node5" class="node">
<title>synonym</title>
<ellipse fill="none" stroke="blue" cx="350.94" cy="-18" rx="56.59" ry="18"/>
<text text-anchor="middle" x="350.94" y="-14.3" font-family="Times,serif" font-size="14.00">label type</text>
</g>
<!-- servicetype isoform mixin&#45;&gt;synonym -->
<g id="edge3" class="edge">
<title>servicetype isoform mixin&#45;&gt;synonym</title>
<path fill="none" stroke="blue" d="M306.27,-86.8C314.3,-74.62 325.19,-58.09 334.21,-44.4"/>
<polygon fill="blue" stroke="blue" points="337.24,-46.16 339.82,-35.89 331.39,-42.31 337.24,-46.16"/>
<text text-anchor="middle" x="358.94" y="-57.8" font-family="Times,serif" font-size="14.00">synonym</text>
</g>
<!-- xref -->
<g id="node6" class="node">
<title>xref</title>
<ellipse fill="none" stroke="blue" cx="469.94" cy="-18" rx="44.39" ry="18"/>
<text text-anchor="middle" x="469.94" y="-14.3" font-family="Times,serif" font-size="14.00">iri type</text>
</g>
<!-- servicetype isoform mixin&#45;&gt;xref -->
<g id="edge4" class="edge">
<title>servicetype isoform mixin&#45;&gt;xref</title>
<path fill="none" stroke="blue" d="M347.35,-88.43C362.99,-83.05 379.96,-76.47 394.94,-69 411.14,-60.93 428.01,-49.94 441.64,-40.32"/>
<polygon fill="blue" stroke="blue" points="444.02,-42.93 450.09,-34.25 439.93,-37.25 444.02,-42.93"/>
<text text-anchor="middle" x="434.44" y="-57.8" font-family="Times,serif" font-size="14.00">xref</text>
</g>
<!-- macrooperational machine mixin_name -->
<g id="node4" class="node">
<title>macrooperational machine mixin_name</title>
<ellipse fill="none" stroke="blue" cx="511.94" cy="-105" rx="67.69" ry="18"/>
<text text-anchor="middle" x="511.94" y="-101.3" font-family="Times,serif" font-size="14.00">symbol type</text>
</g>
</g>
</svg>
