<?xml version="1.0" encoding="UTF-8" standalone="no"?>
<!DOCTYPE svg PUBLIC "-//W3C//DTD SVG 1.1//EN"
 "http://www.w3.org/Graphics/SVG/1.1/DTD/svg11.dtd">
<!-- Generated by graphviz version 2.43.0 (0)
 -->
<!-- Title: %3 Pages: 1 -->
<svg width="1464pt" height="131pt"
 viewBox="0.00 0.00 1464.34 131.00" xmlns="http://www.w3.org/2000/svg" xmlns:xlink="http://www.w3.org/1999/xlink">
<g id="graph0" class="graph" transform="scale(1 1) rotate(0) translate(4 127)">
<title>%3</title>
<polygon fill="white" stroke="transparent" points="-4,4 -4,-127 1460.34,-127 1460.34,4 -4,4"/>
<!-- serviceunit -->
<g id="node1" class="node">
<title>serviceunit</title>
<ellipse fill="none" stroke="black" cx="712.54" cy="-105" rx="62.29" ry="18"/>
<text text-anchor="middle" x="712.54" y="-101.3" font-family="Times,serif" font-size="14.00">serviceunit</text>
</g>
<!-- deployment entity -->
<g id="node2" class="node">
<title>deployment entity</title>
<ellipse fill="none" stroke="black" cx="95.54" cy="-18" rx="95.58" ry="18"/>
<text text-anchor="middle" x="95.54" y="-14.3" font-family="Times,serif" font-size="14.00">deployment entity</text>
</g>
<!-- serviceunit&#45;&gt;deployment entity -->
<g id="edge1" class="edge">
<title>serviceunit&#45;&gt;deployment entity</title>
<path fill="none" stroke="black" d="M652.06,-100.24C578.61,-95.23 451.05,-85.07 342.54,-69 281.4,-59.95 212.52,-45.66 163.07,-34.67"/>
<polygon fill="black" stroke="black" points="163.65,-31.22 153.13,-32.45 162.13,-38.05 163.65,-31.22"/>
<text text-anchor="middle" x="356.54" y="-57.8" font-family="Times,serif" font-size="14.00">is_a</text>
</g>
<!-- id -->
<g id="node3" class="node">
<title>id</title>
<ellipse fill="none" stroke="blue" cx="247.54" cy="-18" rx="38.19" ry="18"/>
<text text-anchor="middle" x="247.54" y="-14.3" font-family="Times,serif" font-size="14.00">string</text>
</g>
<!-- serviceunit&#45;&gt;id -->
<g id="edge2" class="edge">
<title>serviceunit&#45;&gt;id</title>
<path fill="none" stroke="blue" d="M653.95,-98.7C572.42,-90.38 420.65,-71.4 295.54,-36 292.44,-35.12 289.24,-34.15 286.04,-33.12"/>
<polygon fill="blue" stroke="blue" points="287.13,-29.8 276.54,-29.95 284.91,-36.44 287.13,-29.8"/>
<text text-anchor="middle" x="438.54" y="-57.8" font-family="Times,serif" font-size="14.00">id</text>
</g>
<!-- iri -->
<g id="node4" class="node">
<title>iri</title>
<ellipse fill="none" stroke="blue" cx="348.54" cy="-18" rx="44.39" ry="18"/>
<text text-anchor="middle" x="348.54" y="-14.3" font-family="Times,serif" font-size="14.00">iri type</text>
</g>
<!-- serviceunit&#45;&gt;iri -->
<g id="edge3" class="edge">
<title>serviceunit&#45;&gt;iri</title>
<path fill="none" stroke="blue" d="M660.4,-95.06C623.45,-88.49 572.79,-78.99 528.54,-69 472.07,-56.25 458.17,-52.03 402.54,-36 399.03,-34.99 395.4,-33.91 391.76,-32.81"/>
<polygon fill="blue" stroke="blue" points="392.75,-29.45 382.17,-29.86 390.7,-36.15 392.75,-29.45"/>
<text text-anchor="middle" x="536.54" y="-57.8" font-family="Times,serif" font-size="14.00">iri</text>
</g>
<!-- type -->
<g id="node5" class="node">
<title>type</title>
<ellipse fill="none" stroke="blue" cx="449.54" cy="-18" rx="38.19" ry="18"/>
<text text-anchor="middle" x="449.54" y="-14.3" font-family="Times,serif" font-size="14.00">string</text>
</g>
<!-- serviceunit&#45;&gt;type -->
<g id="edge4" class="edge">
<title>serviceunit&#45;&gt;type</title>
<path fill="none" stroke="blue" d="M669.72,-91.88C647.02,-85.33 618.69,-76.97 593.54,-69 550.13,-55.24 539.51,-51.08 496.54,-36 493.85,-35.06 491.08,-34.08 488.3,-33.08"/>
<polygon fill="blue" stroke="blue" points="489.44,-29.78 478.84,-29.7 487.08,-36.37 489.44,-29.78"/>
<text text-anchor="middle" x="609.54" y="-57.8" font-family="Times,serif" font-size="14.00">type</text>
</g>
<!-- name -->
<g id="node6" class="node">
<title>name</title>
<ellipse fill="none" stroke="blue" cx="562.54" cy="-18" rx="56.59" ry="18"/>
<text text-anchor="middle" x="562.54" y="-14.3" font-family="Times,serif" font-size="14.00">label type</text>
</g>
<!-- serviceunit&#45;&gt;name -->
<g id="edge5" class="edge">
<title>serviceunit&#45;&gt;name</title>
<path fill="none" stroke="blue" d="M685.38,-88.61C660.91,-74.74 624.78,-54.27 598.03,-39.11"/>
<polygon fill="blue" stroke="blue" points="599.43,-35.88 589,-33.99 595.97,-41.97 599.43,-35.88"/>
<text text-anchor="middle" x="666.54" y="-57.8" font-family="Times,serif" font-size="14.00">name</text>
</g>
<!-- description -->
<g id="node7" class="node">
<title>description</title>
<ellipse fill="none" stroke="blue" cx="712.54" cy="-18" rx="75.29" ry="18"/>
<text text-anchor="middle" x="712.54" y="-14.3" font-family="Times,serif" font-size="14.00">narrative text</text>
</g>
<!-- serviceunit&#45;&gt;description -->
<g id="edge6" class="edge">
<title>serviceunit&#45;&gt;description</title>
<path fill="none" stroke="blue" d="M712.54,-86.8C712.54,-75.16 712.54,-59.55 712.54,-46.24"/>
<polygon fill="blue" stroke="blue" points="716.04,-46.18 712.54,-36.18 709.04,-46.18 716.04,-46.18"/>
<text text-anchor="middle" x="753.04" y="-57.8" font-family="Times,serif" font-size="14.00">description</text>
</g>
<!-- source -->
<g id="node8" class="node">
<title>source</title>
<ellipse fill="none" stroke="blue" cx="862.54" cy="-18" rx="56.59" ry="18"/>
<text text-anchor="middle" x="862.54" y="-14.3" font-family="Times,serif" font-size="14.00">label type</text>
</g>
<!-- serviceunit&#45;&gt;source -->
<g id="edge7" class="edge">
<title>serviceunit&#45;&gt;source</title>
<path fill="none" stroke="blue" d="M750.8,-90.74C765.8,-84.91 782.89,-77.45 797.54,-69 811.14,-61.16 825.08,-50.8 836.54,-41.54"/>
<polygon fill="blue" stroke="blue" points="838.93,-44.11 844.42,-35.05 834.47,-38.71 838.93,-44.11"/>
<text text-anchor="middle" x="844.54" y="-57.8" font-family="Times,serif" font-size="14.00">source</text>
</g>
<!-- provided by -->
<g id="node9" class="node">
<title>provided by</title>
<ellipse fill="none" stroke="blue" cx="974.54" cy="-18" rx="37.09" ry="18"/>
<text text-anchor="middle" x="974.54" y="-14.3" font-family="Times,serif" font-size="14.00">agent</text>
</g>
<!-- serviceunit&#45;&gt;provided by -->
<g id="edge8" class="edge">
<title>serviceunit&#45;&gt;provided by</title>
<path fill="none" stroke="blue" d="M758.7,-92.7C766.96,-90.75 775.5,-88.78 783.54,-87 822.95,-78.3 834.33,-81.99 872.54,-69 897.04,-60.67 923.23,-47.74 942.93,-37.12"/>
<polygon fill="blue" stroke="blue" points="944.68,-40.15 951.77,-32.27 941.32,-34.01 944.68,-40.15"/>
<text text-anchor="middle" x="950.04" y="-57.8" font-family="Times,serif" font-size="14.00">provided by</text>
</g>
<!-- category -->
<g id="node10" class="node">
<title>category</title>
<ellipse fill="none" stroke="black" cx="1080.54" cy="-18" rx="51.19" ry="18"/>
<text text-anchor="middle" x="1080.54" y="-14.3" font-family="Times,serif" font-size="14.00">category</text>
</g>
<!-- serviceunit&#45;&gt;category -->
<g id="edge9" class="edge">
<title>serviceunit&#45;&gt;category</title>
<path fill="none" stroke="blue" d="M757.03,-92.26C765.77,-90.27 774.91,-88.39 783.54,-87 877.34,-71.9 906.08,-98.04 996.54,-69 1016.26,-62.67 1036.27,-51.01 1051.81,-40.54"/>
<polygon fill="blue" stroke="blue" points="1054.2,-43.15 1060.41,-34.57 1050.2,-37.4 1054.2,-43.15"/>
<text text-anchor="middle" x="1060.04" y="-57.8" font-family="Times,serif" font-size="14.00">category</text>
</g>
<!-- has attribute -->
<g id="node12" class="node">
<title>has attribute</title>
<ellipse fill="none" stroke="black" cx="1221.54" cy="-18" rx="71.49" ry="18"/>
<text text-anchor="middle" x="1221.54" y="-14.3" font-family="Times,serif" font-size="14.00">has attribute</text>
</g>
<!-- serviceunit&#45;&gt;has attribute -->
<g id="edge10" class="edge">
<title>serviceunit&#45;&gt;has attribute</title>
<path fill="none" stroke="blue" d="M756.62,-92.17C765.48,-90.15 774.76,-88.29 783.54,-87 920.95,-66.75 959.92,-99 1095.54,-69 1125.46,-62.38 1157.55,-49.56 1181.85,-38.56"/>
<polygon fill="blue" stroke="blue" points="1183.48,-41.66 1191.09,-34.29 1180.55,-35.3 1183.48,-41.66"/>
<text text-anchor="middle" x="1189.54" y="-57.8" font-family="Times,serif" font-size="14.00">has attribute</text>
</g>
<!-- in taxon -->
<g id="node14" class="node">
<title>in taxon</title>
<ellipse fill="none" stroke="blue" cx="1383.54" cy="-18" rx="72.59" ry="18"/>
<text text-anchor="middle" x="1383.54" y="-14.3" font-family="Times,serif" font-size="14.00">system taxon</text>
</g>
<!-- serviceunit&#45;&gt;in taxon -->
<g id="edge11" class="edge">
<title>serviceunit&#45;&gt;in taxon</title>
<path fill="none" stroke="blue" d="M756.22,-92.13C765.2,-90.09 774.63,-88.23 783.54,-87 984.9,-59.2 1040.85,-106.96 1240.54,-69 1274.98,-62.45 1312.32,-49.17 1340.21,-37.94"/>
<polygon fill="blue" stroke="blue" points="1341.73,-41.1 1349.66,-34.07 1339.08,-34.62 1341.73,-41.1"/>
<text text-anchor="middle" x="1321.54" y="-57.8" font-family="Times,serif" font-size="14.00">in taxon</text>
</g>
<!-- named thing_category -->
<g id="node11" class="node">
<title>named thing_category</title>
<ellipse fill="none" stroke="blue" cx="862.54" cy="-105" rx="69.59" ry="18"/>
<text text-anchor="middle" x="862.54" y="-101.3" font-family="Times,serif" font-size="14.00">named thing</text>
</g>
<!-- systemic entity_has attribute -->
<g id="node13" class="node">
<title>systemic entity_has attribute</title>
<ellipse fill="none" stroke="blue" cx="1002.54" cy="-105" rx="51.99" ry="18"/>
<text text-anchor="middle" x="1002.54" y="-101.3" font-family="Times,serif" font-size="14.00">attribute</text>
</g>
</g>
</svg>
