<?xml version="1.0" encoding="UTF-8" standalone="no"?>
<!DOCTYPE svg PUBLIC "-//W3C//DTD SVG 1.1//EN"
 "http://www.w3.org/Graphics/SVG/1.1/DTD/svg11.dtd">
<!-- Generated by graphviz version 2.43.0 (0)
 -->
<!-- Title: %3 Pages: 1 -->
<svg width="3317pt" height="291pt"
 viewBox="0.00 0.00 3316.98 291.00" xmlns="http://www.w3.org/2000/svg" xmlns:xlink="http://www.w3.org/1999/xlink">
<g id="graph0" class="graph" transform="scale(1 1) rotate(0) translate(4 287)">
<title>%3</title>
<polygon fill="white" stroke="transparent" points="-4,4 -4,-287 3312.98,-287 3312.98,4 -4,4"/>
<!-- serviceunittype as a model of error association -->
<g id="node1" class="node">
<title>serviceunittype as a model of error association</title>
<ellipse fill="none" stroke="black" cx="1960.78" cy="-265" rx="228.56" ry="18"/>
<text text-anchor="middle" x="1960.78" y="-261.3" font-family="Times,serif" font-size="14.00">serviceunittype as a model of error association</text>
</g>
<!-- serviceunittype to error association -->
<g id="node2" class="node">
<title>serviceunittype to error association</title>
<ellipse fill="none" stroke="black" cx="176.78" cy="-178" rx="176.57" ry="18"/>
<text text-anchor="middle" x="176.78" y="-174.3" font-family="Times,serif" font-size="14.00">serviceunittype to error association</text>
</g>
<!-- serviceunittype as a model of error association&#45;&gt;serviceunittype to error association -->
<g id="edge1" class="edge">
<title>serviceunittype as a model of error association&#45;&gt;serviceunittype to error association</title>
<path fill="none" stroke="black" d="M1740.95,-259.97C1510.91,-255.13 1139.33,-245.5 818.78,-229 615.86,-218.55 565.3,-212.58 362.78,-196 346.3,-194.65 329.01,-193.16 311.88,-191.65"/>
<polygon fill="black" stroke="black" points="312.09,-188.15 301.82,-190.75 311.47,-195.13 312.09,-188.15"/>
<text text-anchor="middle" x="832.78" y="-217.8" font-family="Times,serif" font-size="14.00">is_a</text>
</g>
<!-- model to error association mixin -->
<g id="node3" class="node">
<title>model to error association mixin</title>
<ellipse fill="none" stroke="black" cx="532.78" cy="-178" rx="161.37" ry="18"/>
<text text-anchor="middle" x="532.78" y="-174.3" font-family="Times,serif" font-size="14.00">model to error association mixin</text>
</g>
<!-- serviceunittype as a model of error association&#45;&gt;model to error association mixin -->
<g id="edge2" class="edge">
<title>serviceunittype as a model of error association&#45;&gt;model to error association mixin</title>
<path fill="none" stroke="black" d="M1741.66,-259.71C1552.25,-255.07 1271.22,-245.93 1026.78,-229 897.08,-220.02 748.75,-204.26 648.75,-192.84"/>
<polygon fill="black" stroke="black" points="648.95,-189.34 638.62,-191.67 648.16,-196.29 648.95,-189.34"/>
<text text-anchor="middle" x="1043.28" y="-217.8" font-family="Times,serif" font-size="14.00">uses</text>
</g>
<!-- entity to error association mixin -->
<g id="node4" class="node">
<title>entity to error association mixin</title>
<ellipse fill="none" stroke="black" cx="872.78" cy="-178" rx="160.57" ry="18"/>
<text text-anchor="middle" x="872.78" y="-174.3" font-family="Times,serif" font-size="14.00">entity to error association mixin</text>
</g>
<!-- serviceunittype as a model of error association&#45;&gt;entity to error association mixin -->
<g id="edge3" class="edge">
<title>serviceunittype as a model of error association&#45;&gt;entity to error association mixin</title>
<path fill="none" stroke="black" d="M1736.49,-261.39C1577.83,-257.76 1360.3,-249.18 1169.78,-229 1097.41,-221.34 1015.93,-207.22 956.65,-195.94"/>
<polygon fill="black" stroke="black" points="957.07,-192.46 946.59,-194.01 955.75,-199.33 957.07,-192.46"/>
<text text-anchor="middle" x="1186.28" y="-217.8" font-family="Times,serif" font-size="14.00">uses</text>
</g>
<!-- id -->
<g id="node5" class="node">
<title>id</title>
<ellipse fill="none" stroke="blue" cx="1089.78" cy="-178" rx="38.19" ry="18"/>
<text text-anchor="middle" x="1089.78" y="-174.3" font-family="Times,serif" font-size="14.00">string</text>
</g>
<!-- serviceunittype as a model of error association&#45;&gt;id -->
<g id="edge4" class="edge">
<title>serviceunittype as a model of error association&#45;&gt;id</title>
<path fill="none" stroke="blue" d="M1739,-260.54C1610.08,-256.46 1444.76,-247.71 1298.78,-229 1226.33,-219.71 1208.16,-215.57 1137.78,-196 1134.68,-195.14 1131.48,-194.17 1128.28,-193.15"/>
<polygon fill="blue" stroke="blue" points="1129.36,-189.83 1118.77,-189.99 1127.15,-196.47 1129.36,-189.83"/>
<text text-anchor="middle" x="1305.78" y="-217.8" font-family="Times,serif" font-size="14.00">id</text>
</g>
<!-- iri -->
<g id="node6" class="node">
<title>iri</title>
<ellipse fill="none" stroke="blue" cx="1190.78" cy="-178" rx="44.39" ry="18"/>
<text text-anchor="middle" x="1190.78" y="-174.3" font-family="Times,serif" font-size="14.00">iri type</text>
</g>
<!-- serviceunittype as a model of error association&#45;&gt;iri -->
<g id="edge5" class="edge">
<title>serviceunittype as a model of error association&#45;&gt;iri</title>
<path fill="none" stroke="blue" d="M1749.66,-258.03C1644.46,-253.22 1515.53,-244.56 1400.78,-229 1330.13,-219.42 1312.71,-214.25 1243.78,-196 1240.41,-195.11 1236.94,-194.13 1233.46,-193.11"/>
<polygon fill="blue" stroke="blue" points="1234.29,-189.7 1223.71,-190.14 1232.26,-196.4 1234.29,-189.7"/>
<text text-anchor="middle" x="1408.78" y="-217.8" font-family="Times,serif" font-size="14.00">iri</text>
</g>
<!-- name -->
<g id="node7" class="node">
<title>name</title>
<ellipse fill="none" stroke="blue" cx="1309.78" cy="-178" rx="56.59" ry="18"/>
<text text-anchor="middle" x="1309.78" y="-174.3" font-family="Times,serif" font-size="14.00">label type</text>
</g>
<!-- serviceunittype as a model of error association&#45;&gt;name -->
<g id="edge6" class="edge">
<title>serviceunittype as a model of error association&#45;&gt;name</title>
<path fill="none" stroke="blue" d="M1749.6,-258.01C1666.02,-253.18 1569.4,-244.51 1482.78,-229 1438.95,-221.15 1390.34,-206.56 1355.83,-195.15"/>
<polygon fill="blue" stroke="blue" points="1356.64,-191.73 1346.05,-191.88 1354.42,-198.37 1356.64,-191.73"/>
<text text-anchor="middle" x="1502.78" y="-217.8" font-family="Times,serif" font-size="14.00">name</text>
</g>
<!-- description -->
<g id="node8" class="node">
<title>description</title>
<ellipse fill="none" stroke="blue" cx="1459.78" cy="-178" rx="75.29" ry="18"/>
<text text-anchor="middle" x="1459.78" y="-174.3" font-family="Times,serif" font-size="14.00">narrative text</text>
</g>
<!-- serviceunittype as a model of error association&#45;&gt;description -->
<g id="edge7" class="edge">
<title>serviceunittype as a model of error association&#45;&gt;description</title>
<path fill="none" stroke="blue" d="M1778.33,-254.11C1694.43,-248.29 1604.78,-239.91 1564.78,-229 1540.57,-222.4 1515.11,-210.41 1495.33,-199.84"/>
<polygon fill="blue" stroke="blue" points="1496.84,-196.67 1486.39,-194.94 1493.48,-202.81 1496.84,-196.67"/>
<text text-anchor="middle" x="1605.28" y="-217.8" font-family="Times,serif" font-size="14.00">description</text>
</g>
<!-- source -->
<g id="node9" class="node">
<title>source</title>
<ellipse fill="none" stroke="blue" cx="1609.78" cy="-178" rx="56.59" ry="18"/>
<text text-anchor="middle" x="1609.78" y="-174.3" font-family="Times,serif" font-size="14.00">label type</text>
</g>
<!-- serviceunittype as a model of error association&#45;&gt;source -->
<g id="edge8" class="edge">
<title>serviceunittype as a model of error association&#45;&gt;source</title>
<path fill="none" stroke="blue" d="M1802.73,-251.98C1750.07,-246.41 1698.74,-238.81 1674.78,-229 1659.58,-222.77 1644.88,-212 1633.32,-202.05"/>
<polygon fill="blue" stroke="blue" points="1635.63,-199.42 1625.84,-195.36 1630.96,-204.64 1635.63,-199.42"/>
<text text-anchor="middle" x="1698.78" y="-217.8" font-family="Times,serif" font-size="14.00">source</text>
</g>
<!-- provided by -->
<g id="node10" class="node">
<title>provided by</title>
<ellipse fill="none" stroke="blue" cx="1721.78" cy="-178" rx="37.09" ry="18"/>
<text text-anchor="middle" x="1721.78" y="-174.3" font-family="Times,serif" font-size="14.00">agent</text>
</g>
<!-- serviceunittype as a model of error association&#45;&gt;provided by -->
<g id="edge9" class="edge">
<title>serviceunittype as a model of error association&#45;&gt;provided by</title>
<path fill="none" stroke="blue" d="M1803.87,-251.86C1773.52,-246.72 1747.5,-239.4 1735.78,-229 1729.27,-223.21 1725.68,-214.67 1723.73,-206.27"/>
<polygon fill="blue" stroke="blue" points="1727.17,-205.59 1722.09,-196.29 1720.26,-206.73 1727.17,-205.59"/>
<text text-anchor="middle" x="1778.28" y="-217.8" font-family="Times,serif" font-size="14.00">provided by</text>
</g>
<!-- has attribute -->
<g id="node11" class="node">
<title>has attribute</title>
<ellipse fill="none" stroke="blue" cx="1828.78" cy="-178" rx="51.99" ry="18"/>
<text text-anchor="middle" x="1828.78" y="-174.3" font-family="Times,serif" font-size="14.00">attribute</text>
</g>
<!-- serviceunittype as a model of error association&#45;&gt;has attribute -->
<g id="edge10" class="edge">
<title>serviceunittype as a model of error association&#45;&gt;has attribute</title>
<path fill="none" stroke="blue" d="M1871.1,-248.37C1852.09,-243.22 1835.88,-236.78 1829.78,-229 1824.79,-222.63 1823.3,-214.28 1823.43,-206.23"/>
<polygon fill="blue" stroke="blue" points="1826.94,-206.28 1824.36,-196.01 1819.96,-205.65 1826.94,-206.28"/>
<text text-anchor="middle" x="1876.78" y="-217.8" font-family="Times,serif" font-size="14.00">has attribute</text>
</g>
<!-- relation -->
<g id="node12" class="node">
<title>relation</title>
<ellipse fill="none" stroke="blue" cx="2838.78" cy="-18" rx="57.39" ry="18"/>
<text text-anchor="middle" x="2838.78" y="-14.3" font-family="Times,serif" font-size="14.00">uriorcurie</text>
</g>
<!-- serviceunittype as a model of error association&#45;&gt;relation -->
<g id="edge11" class="edge">
<title>serviceunittype as a model of error association&#45;&gt;relation</title>
<path fill="none" stroke="blue" d="M1946.48,-246.91C1929.55,-224.53 1906.21,-185.17 1927.78,-160 2037.02,-32.55 2578.9,-19.3 2771.06,-18.66"/>
<polygon fill="blue" stroke="blue" points="2771.32,-22.16 2781.31,-18.64 2771.3,-15.16 2771.32,-22.16"/>
<text text-anchor="middle" x="1997.78" y="-130.8" font-family="Times,serif" font-size="14.00">relation</text>
</g>
<!-- negated -->
<g id="node13" class="node">
<title>negated</title>
<ellipse fill="none" stroke="blue" cx="1983.78" cy="-178" rx="46.59" ry="18"/>
<text text-anchor="middle" x="1983.78" y="-174.3" font-family="Times,serif" font-size="14.00">boolean</text>
</g>
<!-- serviceunittype as a model of error association&#45;&gt;negated -->
<g id="edge12" class="edge">
<title>serviceunittype as a model of error association&#45;&gt;negated</title>
<path fill="none" stroke="blue" d="M1965.44,-246.8C1968.62,-235.05 1972.9,-219.24 1976.52,-205.84"/>
<polygon fill="blue" stroke="blue" points="1979.9,-206.74 1979.14,-196.18 1973.15,-204.91 1979.9,-206.74"/>
<text text-anchor="middle" x="2002.78" y="-217.8" font-family="Times,serif" font-size="14.00">negated</text>
</g>
<!-- qualifiers -->
<g id="node14" class="node">
<title>qualifiers</title>
<ellipse fill="none" stroke="blue" cx="2124.78" cy="-178" rx="76.89" ry="18"/>
<text text-anchor="middle" x="2124.78" y="-174.3" font-family="Times,serif" font-size="14.00">ontology class</text>
</g>
<!-- serviceunittype as a model of error association&#45;&gt;qualifiers -->
<g id="edge13" class="edge">
<title>serviceunittype as a model of error association&#45;&gt;qualifiers</title>
<path fill="none" stroke="blue" d="M1998.44,-247.1C2010.46,-241.53 2023.77,-235.17 2035.78,-229 2053.45,-219.93 2072.69,-209.23 2088.75,-200.05"/>
<polygon fill="blue" stroke="blue" points="2090.88,-202.87 2097.81,-194.85 2087.39,-196.8 2090.88,-202.87"/>
<text text-anchor="middle" x="2097.28" y="-217.8" font-family="Times,serif" font-size="14.00">qualifiers</text>
</g>
<!-- publications -->
<g id="node15" class="node">
<title>publications</title>
<ellipse fill="none" stroke="blue" cx="2281.78" cy="-178" rx="62.29" ry="18"/>
<text text-anchor="middle" x="2281.78" y="-174.3" font-family="Times,serif" font-size="14.00">publication</text>
</g>
<!-- serviceunittype as a model of error association&#45;&gt;publications -->
<g id="edge14" class="edge">
<title>serviceunittype as a model of error association&#45;&gt;publications</title>
<path fill="none" stroke="blue" d="M2049.82,-248.39C2077.24,-242.97 2107.41,-236.37 2134.78,-229 2169.13,-219.75 2207.12,-206.75 2235.87,-196.33"/>
<polygon fill="blue" stroke="blue" points="2237.45,-199.48 2245.64,-192.76 2235.05,-192.9 2237.45,-199.48"/>
<text text-anchor="middle" x="2228.78" y="-217.8" font-family="Times,serif" font-size="14.00">publications</text>
</g>
<!-- type -->
<g id="node16" class="node">
<title>type</title>
<ellipse fill="none" stroke="black" cx="2393.78" cy="-178" rx="31.4" ry="18"/>
<text text-anchor="middle" x="2393.78" y="-174.3" font-family="Times,serif" font-size="14.00">type</text>
</g>
<!-- serviceunittype as a model of error association&#45;&gt;type -->
<g id="edge15" class="edge">
<title>serviceunittype as a model of error association&#45;&gt;type</title>
<path fill="none" stroke="blue" d="M2137.97,-253.61C2183.68,-248.42 2232.48,-240.65 2276.78,-229 2307.01,-221.05 2339.57,-206.61 2362.65,-195.29"/>
<polygon fill="blue" stroke="blue" points="2364.23,-198.41 2371.62,-190.81 2361.11,-192.15 2364.23,-198.41"/>
<text text-anchor="middle" x="2335.78" y="-217.8" font-family="Times,serif" font-size="14.00">type</text>
</g>
<!-- category -->
<g id="node18" class="node">
<title>category</title>
<ellipse fill="none" stroke="black" cx="2494.78" cy="-178" rx="51.19" ry="18"/>
<text text-anchor="middle" x="2494.78" y="-174.3" font-family="Times,serif" font-size="14.00">category</text>
</g>
<!-- serviceunittype as a model of error association&#45;&gt;category -->
<g id="edge16" class="edge">
<title>serviceunittype as a model of error association&#45;&gt;category</title>
<path fill="none" stroke="blue" d="M2118.52,-251.95C2218.18,-244.01 2332.44,-234.14 2355.78,-229 2390.17,-221.42 2427.66,-207.59 2455.03,-196.39"/>
<polygon fill="blue" stroke="blue" points="2456.37,-199.62 2464.27,-192.55 2453.69,-193.16 2456.37,-199.62"/>
<text text-anchor="middle" x="2438.28" y="-217.8" font-family="Times,serif" font-size="14.00">category</text>
</g>
<!-- predicate -->
<g id="node20" class="node">
<title>predicate</title>
<ellipse fill="none" stroke="black" cx="2618.78" cy="-178" rx="54.69" ry="18"/>
<text text-anchor="middle" x="2618.78" y="-174.3" font-family="Times,serif" font-size="14.00">predicate</text>
</g>
<!-- serviceunittype as a model of error association&#45;&gt;predicate -->
<g id="edge17" class="edge">
<title>serviceunittype as a model of error association&#45;&gt;predicate</title>
<path fill="none" stroke="blue" d="M2123.05,-252.28C2148.4,-250.49 2174.3,-248.68 2198.78,-247 2320.98,-238.64 2353.71,-253.18 2473.78,-229 2509.63,-221.78 2548.74,-207.92 2577.29,-196.62"/>
<polygon fill="blue" stroke="blue" points="2578.96,-199.73 2586.93,-192.75 2576.35,-193.23 2578.96,-199.73"/>
<text text-anchor="middle" x="2560.78" y="-217.8" font-family="Times,serif" font-size="14.00">predicate</text>
</g>
<!-- object -->
<g id="node22" class="node">
<title>object</title>
<ellipse fill="none" stroke="black" cx="2838.78" cy="-91" rx="38.99" ry="18"/>
<text text-anchor="middle" x="2838.78" y="-87.3" font-family="Times,serif" font-size="14.00">object</text>
</g>
<!-- serviceunittype as a model of error association&#45;&gt;object -->
<g id="edge18" class="edge">
<title>serviceunittype as a model of error association&#45;&gt;object</title>
<path fill="none" stroke="blue" d="M2119.81,-252.06C2146.18,-250.24 2173.25,-248.49 2198.78,-247 2287.61,-241.83 2511.75,-247.52 2598.78,-229 2638.02,-220.65 2649.23,-217.98 2682.78,-196 2701.71,-183.6 2700.78,-173.7 2718.78,-160 2745.31,-139.81 2778.48,-121.47 2803.21,-108.94"/>
<polygon fill="blue" stroke="blue" points="2804.86,-112.03 2812.25,-104.43 2801.74,-105.76 2804.86,-112.03"/>
<text text-anchor="middle" x="2740.78" y="-174.3" font-family="Times,serif" font-size="14.00">object</text>
</g>
<!-- frequency qualifier -->
<g id="node24" class="node">
<title>frequency qualifier</title>
<ellipse fill="none" stroke="blue" cx="2856.78" cy="-178" rx="85.29" ry="18"/>
<text text-anchor="middle" x="2856.78" y="-174.3" font-family="Times,serif" font-size="14.00">frequency value</text>
</g>
<!-- serviceunittype as a model of error association&#45;&gt;frequency qualifier -->
<g id="edge19" class="edge">
<title>serviceunittype as a model of error association&#45;&gt;frequency qualifier</title>
<path fill="none" stroke="blue" d="M2118.2,-251.93C2145.08,-250.11 2172.72,-248.38 2198.78,-247 2315.36,-240.84 2609.31,-251.84 2723.78,-229 2755.21,-222.73 2788.99,-209.95 2814.64,-198.88"/>
<polygon fill="blue" stroke="blue" points="2816.31,-201.97 2824.05,-194.74 2813.49,-195.56 2816.31,-201.97"/>
<text text-anchor="middle" x="2844.78" y="-217.8" font-family="Times,serif" font-size="14.00">frequency qualifier</text>
</g>
<!-- severity qualifier -->
<g id="node25" class="node">
<title>severity qualifier</title>
<ellipse fill="none" stroke="blue" cx="3035.78" cy="-178" rx="76.09" ry="18"/>
<text text-anchor="middle" x="3035.78" y="-174.3" font-family="Times,serif" font-size="14.00">severity value</text>
</g>
<!-- serviceunittype as a model of error association&#45;&gt;severity qualifier -->
<g id="edge20" class="edge">
<title>serviceunittype as a model of error association&#45;&gt;severity qualifier</title>
<path fill="none" stroke="blue" d="M2116.91,-251.81C2144.19,-249.98 2172.3,-248.28 2198.78,-247 2278.49,-243.16 2838.76,-245.75 2916.78,-229 2945.09,-222.92 2975.14,-210.25 2997.96,-199.18"/>
<polygon fill="blue" stroke="blue" points="2999.55,-202.29 3006.95,-194.71 2996.44,-196.02 2999.55,-202.29"/>
<text text-anchor="middle" x="3025.78" y="-217.8" font-family="Times,serif" font-size="14.00">severity qualifier</text>
</g>
<!-- onset qualifier -->
<g id="node26" class="node">
<title>onset qualifier</title>
<ellipse fill="none" stroke="blue" cx="3165.78" cy="-178" rx="36.29" ry="18"/>
<text text-anchor="middle" x="3165.78" y="-174.3" font-family="Times,serif" font-size="14.00">onset</text>
</g>
<!-- serviceunittype as a model of error association&#45;&gt;onset qualifier -->
<g id="edge21" class="edge">
<title>serviceunittype as a model of error association&#45;&gt;onset qualifier</title>
<path fill="none" stroke="blue" d="M2115.95,-251.77C2143.52,-249.92 2171.99,-248.23 2198.78,-247 2248.3,-244.73 3043.49,-243.84 3090.78,-229 3109.21,-223.22 3127.3,-211.39 3141.09,-200.7"/>
<polygon fill="blue" stroke="blue" points="3143.5,-203.25 3149.09,-194.24 3139.11,-197.8 3143.5,-203.25"/>
<text text-anchor="middle" x="3172.28" y="-217.8" font-family="Times,serif" font-size="14.00">onset qualifier</text>
</g>
<!-- subject -->
<g id="node27" class="node">
<title>subject</title>
<ellipse fill="none" stroke="black" cx="3264.78" cy="-178" rx="44.39" ry="18"/>
<text text-anchor="middle" x="3264.78" y="-174.3" font-family="Times,serif" font-size="14.00">subject</text>
</g>
<!-- serviceunittype as a model of error association&#45;&gt;subject -->
<g id="edge22" class="edge">
<title>serviceunittype as a model of error association&#45;&gt;subject</title>
<path fill="none" stroke="blue" d="M2115.62,-251.73C2143.3,-249.88 2171.88,-248.2 2198.78,-247 2227.34,-245.73 3202.37,-242.09 3227.78,-229 3237.97,-223.75 3246.07,-214.27 3252.06,-204.96"/>
<polygon fill="blue" stroke="blue" points="3255.14,-206.63 3257.16,-196.23 3249.09,-203.1 3255.14,-206.63"/>
<text text-anchor="middle" x="3269.78" y="-217.8" font-family="Times,serif" font-size="14.00">subject</text>
</g>
<!-- association_type -->
<g id="node17" class="node">
<title>association_type</title>
<ellipse fill="none" stroke="blue" cx="2245.78" cy="-265" rx="38.19" ry="18"/>
<text text-anchor="middle" x="2245.78" y="-261.3" font-family="Times,serif" font-size="14.00">string</text>
</g>
<!-- association_category -->
<g id="node19" class="node">
<title>association_category</title>
<ellipse fill="none" stroke="blue" cx="2364.78" cy="-265" rx="62.29" ry="18"/>
<text text-anchor="middle" x="2364.78" y="-261.3" font-family="Times,serif" font-size="14.00">association</text>
</g>
<!-- serviceunittype to error association_predicate -->
<g id="node21" class="node">
<title>serviceunittype to error association_predicate</title>
<ellipse fill="none" stroke="blue" cx="2522.78" cy="-265" rx="77.99" ry="18"/>
<text text-anchor="middle" x="2522.78" y="-261.3" font-family="Times,serif" font-size="14.00">predicate type</text>
</g>
<!-- object&#45;&gt;relation -->
<g id="edge25" class="edge">
<title>object&#45;&gt;relation</title>
<path fill="none" stroke="black" stroke-dasharray="1,5" d="M2838.78,-72.81C2838.78,-64.79 2838.78,-55.05 2838.78,-46.07"/>
<polygon fill="black" stroke="black" points="2842.28,-46.03 2838.78,-36.03 2835.28,-46.03 2842.28,-46.03"/>
</g>
<!-- serviceunittype to error association_object -->
<g id="node23" class="node">
<title>serviceunittype to error association_object</title>
<ellipse fill="none" stroke="blue" cx="2688.78" cy="-265" rx="69.59" ry="18"/>
<text text-anchor="middle" x="2688.78" y="-261.3" font-family="Times,serif" font-size="14.00">named thing</text>
</g>
<!-- subject&#45;&gt;relation -->
<g id="edge24" class="edge">
<title>subject&#45;&gt;relation</title>
<path fill="none" stroke="black" stroke-dasharray="1,5" d="M3234.6,-164.84C3208.93,-154.56 3171.04,-139.55 3137.78,-127 3048.94,-93.47 2944.47,-56.23 2885.5,-35.41"/>
<polygon fill="black" stroke="black" points="2886.33,-31.99 2875.73,-31.97 2884,-38.59 2886.33,-31.99"/>
</g>
<!-- subject&#45;&gt;object -->
<g id="edge23" class="edge">
<title>subject&#45;&gt;object</title>
<path fill="none" stroke="black" d="M3232.18,-165.78C3225.18,-163.64 3217.78,-161.58 3210.78,-160 3154.31,-147.26 3138.83,-151.84 3081.78,-142 3012.04,-129.97 2931.72,-112.79 2883.13,-102.02"/>
<polygon fill="black" stroke="black" points="2883.78,-98.58 2873.26,-99.82 2882.26,-105.41 2883.78,-98.58"/>
<text text-anchor="middle" x="3109.78" y="-130.8" font-family="Times,serif" font-size="14.00">relation</text>
</g>
<!-- serviceunittype as a model of error association_subject -->
<g id="node28" class="node">
<title>serviceunittype as a model of error association_subject</title>
<ellipse fill="none" stroke="blue" cx="2859.78" cy="-265" rx="83.39" ry="18"/>
<text text-anchor="middle" x="2859.78" y="-261.3" font-family="Times,serif" font-size="14.00">serviceunittype</text>
</g>
</g>
</svg>
