<?xml version="1.0" encoding="UTF-8" standalone="no"?>
<!DOCTYPE svg PUBLIC "-//W3C//DTD SVG 1.1//EN"
 "http://www.w3.org/Graphics/SVG/1.1/DTD/svg11.dtd">
<!-- Generated by graphviz version 2.43.0 (0)
 -->
<!-- Title: %3 Pages: 1 -->
<svg width="2617pt" height="291pt"
 viewBox="0.00 0.00 2617.14 291.00" xmlns="http://www.w3.org/2000/svg" xmlns:xlink="http://www.w3.org/1999/xlink">
<g id="graph0" class="graph" transform="scale(1 1) rotate(0) translate(4 287)">
<title>%3</title>
<polygon fill="white" stroke="transparent" points="-4,4 -4,-287 2613.14,-287 2613.14,4 -4,4"/>
<!-- service sequence localization -->
<g id="node1" class="node">
<title>service sequence localization</title>
<ellipse fill="none" stroke="black" cx="1353.54" cy="-265" rx="145.67" ry="18"/>
<text text-anchor="middle" x="1353.54" y="-261.3" font-family="Times,serif" font-size="14.00">service sequence localization</text>
</g>
<!-- sequence association -->
<g id="node2" class="node">
<title>sequence association</title>
<ellipse fill="none" stroke="black" cx="108.54" cy="-178" rx="108.58" ry="18"/>
<text text-anchor="middle" x="108.54" y="-174.3" font-family="Times,serif" font-size="14.00">sequence association</text>
</g>
<!-- service sequence localization&#45;&gt;sequence association -->
<g id="edge1" class="edge">
<title>service sequence localization&#45;&gt;sequence association</title>
<path fill="none" stroke="black" d="M1210.02,-261.84C974.99,-257.81 518.11,-247.82 357.54,-229 295.47,-221.73 225.8,-207.18 175.98,-195.64"/>
<polygon fill="black" stroke="black" points="176.51,-192.17 165.97,-193.31 174.92,-198.99 176.51,-192.17"/>
<text text-anchor="middle" x="371.54" y="-217.8" font-family="Times,serif" font-size="14.00">is_a</text>
</g>
<!-- id -->
<g id="node3" class="node">
<title>id</title>
<ellipse fill="none" stroke="blue" cx="273.54" cy="-178" rx="38.19" ry="18"/>
<text text-anchor="middle" x="273.54" y="-174.3" font-family="Times,serif" font-size="14.00">string</text>
</g>
<!-- service sequence localization&#45;&gt;id -->
<g id="edge2" class="edge">
<title>service sequence localization&#45;&gt;id</title>
<path fill="none" stroke="blue" d="M1211.05,-261.17C1000.58,-256.49 616.69,-245.95 479.54,-229 408.34,-220.2 390.62,-215.35 321.54,-196 318.43,-195.13 315.24,-194.16 312.04,-193.14"/>
<polygon fill="blue" stroke="blue" points="313.12,-189.81 302.53,-189.97 310.91,-196.46 313.12,-189.81"/>
<text text-anchor="middle" x="486.54" y="-217.8" font-family="Times,serif" font-size="14.00">id</text>
</g>
<!-- iri -->
<g id="node4" class="node">
<title>iri</title>
<ellipse fill="none" stroke="blue" cx="374.54" cy="-178" rx="44.39" ry="18"/>
<text text-anchor="middle" x="374.54" y="-174.3" font-family="Times,serif" font-size="14.00">iri type</text>
</g>
<!-- service sequence localization&#45;&gt;iri -->
<g id="edge3" class="edge">
<title>service sequence localization&#45;&gt;iri</title>
<path fill="none" stroke="blue" d="M1207.82,-264.43C1052.52,-263.24 799.74,-256.59 583.54,-229 513.24,-220.03 496.04,-214.18 427.54,-196 424.17,-195.11 420.7,-194.12 417.21,-193.1"/>
<polygon fill="blue" stroke="blue" points="418.05,-189.7 407.47,-190.13 416.01,-196.39 418.05,-189.7"/>
<text text-anchor="middle" x="591.54" y="-217.8" font-family="Times,serif" font-size="14.00">iri</text>
</g>
<!-- name -->
<g id="node5" class="node">
<title>name</title>
<ellipse fill="none" stroke="blue" cx="493.54" cy="-178" rx="56.59" ry="18"/>
<text text-anchor="middle" x="493.54" y="-174.3" font-family="Times,serif" font-size="14.00">label type</text>
</g>
<!-- service sequence localization&#45;&gt;name -->
<g id="edge4" class="edge">
<title>service sequence localization&#45;&gt;name</title>
<path fill="none" stroke="blue" d="M1211.95,-260.67C1041.87,-255.98 766.82,-246.06 665.54,-229 621.72,-221.62 573.23,-206.9 538.94,-195.33"/>
<polygon fill="blue" stroke="blue" points="539.81,-191.93 529.21,-192.01 537.54,-198.56 539.81,-191.93"/>
<text text-anchor="middle" x="685.54" y="-217.8" font-family="Times,serif" font-size="14.00">name</text>
</g>
<!-- description -->
<g id="node6" class="node">
<title>description</title>
<ellipse fill="none" stroke="blue" cx="643.54" cy="-178" rx="75.29" ry="18"/>
<text text-anchor="middle" x="643.54" y="-174.3" font-family="Times,serif" font-size="14.00">narrative text</text>
</g>
<!-- service sequence localization&#45;&gt;description -->
<g id="edge5" class="edge">
<title>service sequence localization&#45;&gt;description</title>
<path fill="none" stroke="blue" d="M1209.83,-262.12C1058.78,-258.99 831.65,-250.74 747.54,-229 723.26,-222.72 697.86,-210.63 678.24,-199.91"/>
<polygon fill="blue" stroke="blue" points="679.81,-196.78 669.38,-194.95 676.39,-202.89 679.81,-196.78"/>
<text text-anchor="middle" x="788.04" y="-217.8" font-family="Times,serif" font-size="14.00">description</text>
</g>
<!-- source -->
<g id="node7" class="node">
<title>source</title>
<ellipse fill="none" stroke="blue" cx="793.54" cy="-178" rx="56.59" ry="18"/>
<text text-anchor="middle" x="793.54" y="-174.3" font-family="Times,serif" font-size="14.00">label type</text>
</g>
<!-- service sequence localization&#45;&gt;source -->
<g id="edge6" class="edge">
<title>service sequence localization&#45;&gt;source</title>
<path fill="none" stroke="blue" d="M1208.71,-263.09C1085.66,-260.62 919.44,-252.78 857.54,-229 842.39,-223.18 827.93,-212.49 816.6,-202.48"/>
<polygon fill="blue" stroke="blue" points="818.66,-199.62 808.94,-195.4 813.91,-204.76 818.66,-199.62"/>
<text text-anchor="middle" x="881.54" y="-217.8" font-family="Times,serif" font-size="14.00">source</text>
</g>
<!-- provided by -->
<g id="node8" class="node">
<title>provided by</title>
<ellipse fill="none" stroke="blue" cx="905.54" cy="-178" rx="37.09" ry="18"/>
<text text-anchor="middle" x="905.54" y="-174.3" font-family="Times,serif" font-size="14.00">agent</text>
</g>
<!-- service sequence localization&#45;&gt;provided by -->
<g id="edge7" class="edge">
<title>service sequence localization&#45;&gt;provided by</title>
<path fill="none" stroke="blue" d="M1212.04,-260.69C1093.76,-256.61 940.88,-247.75 918.54,-229 911.8,-223.34 908.32,-214.68 906.58,-206.14"/>
<polygon fill="blue" stroke="blue" points="910.02,-205.46 905.24,-196 903.09,-206.38 910.02,-205.46"/>
<text text-anchor="middle" x="961.04" y="-217.8" font-family="Times,serif" font-size="14.00">provided by</text>
</g>
<!-- has attribute -->
<g id="node9" class="node">
<title>has attribute</title>
<ellipse fill="none" stroke="blue" cx="1012.54" cy="-178" rx="51.99" ry="18"/>
<text text-anchor="middle" x="1012.54" y="-174.3" font-family="Times,serif" font-size="14.00">attribute</text>
</g>
<!-- service sequence localization&#45;&gt;has attribute -->
<g id="edge8" class="edge">
<title>service sequence localization&#45;&gt;has attribute</title>
<path fill="none" stroke="blue" d="M1217.46,-258.45C1129.05,-253.41 1027.68,-244.36 1013.54,-229 1007.92,-222.89 1006.36,-214.37 1006.61,-206.09"/>
<polygon fill="blue" stroke="blue" points="1010.11,-206.26 1007.72,-195.93 1003.15,-205.49 1010.11,-206.26"/>
<text text-anchor="middle" x="1060.54" y="-217.8" font-family="Times,serif" font-size="14.00">has attribute</text>
</g>
<!-- relation -->
<g id="node10" class="node">
<title>relation</title>
<ellipse fill="none" stroke="blue" cx="2311.54" cy="-18" rx="57.39" ry="18"/>
<text text-anchor="middle" x="2311.54" y="-14.3" font-family="Times,serif" font-size="14.00">uriorcurie</text>
</g>
<!-- service sequence localization&#45;&gt;relation -->
<g id="edge9" class="edge">
<title>service sequence localization&#45;&gt;relation</title>
<path fill="none" stroke="blue" d="M1246.61,-252.69C1161.82,-239.57 1064.74,-212.62 1111.54,-160 1187.51,-74.58 2004.24,-32.39 2245.07,-21.75"/>
<polygon fill="blue" stroke="blue" points="2245.25,-25.25 2255.09,-21.31 2244.94,-18.25 2245.25,-25.25"/>
<text text-anchor="middle" x="1208.54" y="-130.8" font-family="Times,serif" font-size="14.00">relation</text>
</g>
<!-- negated -->
<g id="node11" class="node">
<title>negated</title>
<ellipse fill="none" stroke="blue" cx="1167.54" cy="-178" rx="46.59" ry="18"/>
<text text-anchor="middle" x="1167.54" y="-174.3" font-family="Times,serif" font-size="14.00">boolean</text>
</g>
<!-- service sequence localization&#45;&gt;negated -->
<g id="edge10" class="edge">
<title>service sequence localization&#45;&gt;negated</title>
<path fill="none" stroke="blue" d="M1294.45,-248.46C1277.64,-243.17 1259.55,-236.63 1243.54,-229 1226.89,-221.06 1209.62,-209.96 1195.76,-200.24"/>
<polygon fill="blue" stroke="blue" points="1197.77,-197.38 1187.6,-194.4 1193.7,-203.07 1197.77,-197.38"/>
<text text-anchor="middle" x="1272.54" y="-217.8" font-family="Times,serif" font-size="14.00">negated</text>
</g>
<!-- qualifiers -->
<g id="node12" class="node">
<title>qualifiers</title>
<ellipse fill="none" stroke="blue" cx="1308.54" cy="-178" rx="76.89" ry="18"/>
<text text-anchor="middle" x="1308.54" y="-174.3" font-family="Times,serif" font-size="14.00">ontology class</text>
</g>
<!-- service sequence localization&#45;&gt;qualifiers -->
<g id="edge11" class="edge">
<title>service sequence localization&#45;&gt;qualifiers</title>
<path fill="none" stroke="blue" d="M1324.66,-247.04C1318.6,-242.04 1313,-236 1309.54,-229 1306.1,-222.04 1304.94,-213.85 1304.89,-206.13"/>
<polygon fill="blue" stroke="blue" points="1308.39,-206.22 1305.39,-196.06 1301.4,-205.87 1308.39,-206.22"/>
<text text-anchor="middle" x="1343.04" y="-217.8" font-family="Times,serif" font-size="14.00">qualifiers</text>
</g>
<!-- publications -->
<g id="node13" class="node">
<title>publications</title>
<ellipse fill="none" stroke="blue" cx="1465.54" cy="-178" rx="62.29" ry="18"/>
<text text-anchor="middle" x="1465.54" y="-174.3" font-family="Times,serif" font-size="14.00">publication</text>
</g>
<!-- service sequence localization&#45;&gt;publications -->
<g id="edge12" class="edge">
<title>service sequence localization&#45;&gt;publications</title>
<path fill="none" stroke="blue" d="M1366.79,-246.87C1375.37,-236.51 1387.21,-223.51 1399.54,-214 1407.01,-208.24 1415.55,-202.93 1423.97,-198.27"/>
<polygon fill="blue" stroke="blue" points="1425.79,-201.27 1432.99,-193.49 1422.51,-195.08 1425.79,-201.27"/>
<text text-anchor="middle" x="1443.54" y="-217.8" font-family="Times,serif" font-size="14.00">publications</text>
</g>
<!-- type -->
<g id="node14" class="node">
<title>type</title>
<ellipse fill="none" stroke="black" cx="1577.54" cy="-178" rx="31.4" ry="18"/>
<text text-anchor="middle" x="1577.54" y="-174.3" font-family="Times,serif" font-size="14.00">type</text>
</g>
<!-- service sequence localization&#45;&gt;type -->
<g id="edge13" class="edge">
<title>service sequence localization&#45;&gt;type</title>
<path fill="none" stroke="blue" d="M1426.97,-249.36C1447.06,-244.14 1468.52,-237.42 1487.54,-229 1498.7,-224.06 1500.01,-220.17 1510.54,-214 1521.78,-207.42 1534.37,-200.68 1545.58,-194.9"/>
<polygon fill="blue" stroke="blue" points="1547.29,-197.96 1554.6,-190.29 1544.11,-191.72 1547.29,-197.96"/>
<text text-anchor="middle" x="1526.54" y="-217.8" font-family="Times,serif" font-size="14.00">type</text>
</g>
<!-- category -->
<g id="node16" class="node">
<title>category</title>
<ellipse fill="none" stroke="black" cx="1678.54" cy="-178" rx="51.19" ry="18"/>
<text text-anchor="middle" x="1678.54" y="-174.3" font-family="Times,serif" font-size="14.00">category</text>
</g>
<!-- service sequence localization&#45;&gt;category -->
<g id="edge14" class="edge">
<title>service sequence localization&#45;&gt;category</title>
<path fill="none" stroke="blue" d="M1457.63,-252.3C1485.82,-247.11 1515.89,-239.66 1542.54,-229 1553.87,-224.47 1554.49,-219.19 1565.54,-214 1577.27,-208.49 1604.91,-199.9 1629.92,-192.61"/>
<polygon fill="blue" stroke="blue" points="1631.06,-195.93 1639.7,-189.79 1629.12,-189.2 1631.06,-195.93"/>
<text text-anchor="middle" x="1597.04" y="-217.8" font-family="Times,serif" font-size="14.00">category</text>
</g>
<!-- start interbase coordinate -->
<g id="node18" class="node">
<title>start interbase coordinate</title>
<ellipse fill="none" stroke="blue" cx="1792.54" cy="-178" rx="44.39" ry="18"/>
<text text-anchor="middle" x="1792.54" y="-174.3" font-family="Times,serif" font-size="14.00">integer</text>
</g>
<!-- service sequence localization&#45;&gt;start interbase coordinate -->
<g id="edge15" class="edge">
<title>service sequence localization&#45;&gt;start interbase coordinate</title>
<path fill="none" stroke="blue" d="M1455.37,-252.12C1530.19,-243.21 1620.21,-232.06 1628.54,-229 1640,-224.79 1640.26,-218.65 1651.54,-214 1688.05,-198.95 1700.33,-205.94 1738.54,-196 1742.13,-195.07 1745.83,-194.04 1749.54,-192.97"/>
<polygon fill="blue" stroke="blue" points="1750.7,-196.27 1759.28,-190.05 1748.69,-189.56 1750.7,-196.27"/>
<text text-anchor="middle" x="1745.04" y="-217.8" font-family="Times,serif" font-size="14.00">start interbase coordinate</text>
</g>
<!-- end interbase coordinate -->
<g id="node19" class="node">
<title>end interbase coordinate</title>
<ellipse fill="none" stroke="blue" cx="1898.54" cy="-178" rx="44.39" ry="18"/>
<text text-anchor="middle" x="1898.54" y="-174.3" font-family="Times,serif" font-size="14.00">integer</text>
</g>
<!-- service sequence localization&#45;&gt;end interbase coordinate -->
<g id="edge16" class="edge">
<title>service sequence localization&#45;&gt;end interbase coordinate</title>
<path fill="none" stroke="blue" d="M1455.18,-252.05C1472.95,-250.19 1491.27,-248.42 1508.54,-247 1581.74,-240.99 1770.19,-255.87 1838.54,-229 1846.53,-225.86 1861.31,-213.58 1874.2,-201.97"/>
<polygon fill="blue" stroke="blue" points="1876.89,-204.26 1881.91,-194.93 1872.17,-199.09 1876.89,-204.26"/>
<text text-anchor="middle" x="1950.04" y="-217.8" font-family="Times,serif" font-size="14.00">end interbase coordinate</text>
</g>
<!-- workload build -->
<g id="node20" class="node">
<title>workload build</title>
<ellipse fill="none" stroke="blue" cx="2062.54" cy="-178" rx="38.19" ry="18"/>
<text text-anchor="middle" x="2062.54" y="-174.3" font-family="Times,serif" font-size="14.00">string</text>
</g>
<!-- service sequence localization&#45;&gt;workload build -->
<g id="edge17" class="edge">
<title>service sequence localization&#45;&gt;workload build</title>
<path fill="none" stroke="blue" d="M1453.91,-251.87C1472.07,-250 1490.85,-248.27 1508.54,-247 1538.04,-244.89 2016.05,-245.58 2040.54,-229 2048.41,-223.67 2053.5,-214.84 2056.76,-206.08"/>
<polygon fill="blue" stroke="blue" points="2060.15,-206.99 2059.73,-196.4 2053.45,-204.93 2060.15,-206.99"/>
<text text-anchor="middle" x="2106.54" y="-217.8" font-family="Times,serif" font-size="14.00">workload build</text>
</g>
<!-- strand -->
<g id="node21" class="node">
<title>strand</title>
<ellipse fill="none" stroke="blue" cx="2161.54" cy="-178" rx="38.19" ry="18"/>
<text text-anchor="middle" x="2161.54" y="-174.3" font-family="Times,serif" font-size="14.00">string</text>
</g>
<!-- service sequence localization&#45;&gt;strand -->
<g id="edge18" class="edge">
<title>service sequence localization&#45;&gt;strand</title>
<path fill="none" stroke="blue" d="M1453.49,-251.82C1471.78,-249.94 1490.72,-248.22 1508.54,-247 1526.7,-245.76 2150.85,-242.05 2163.54,-229 2169.4,-222.98 2170.55,-214.37 2169.71,-206"/>
<polygon fill="blue" stroke="blue" points="2173.13,-205.28 2167.88,-196.08 2166.25,-206.55 2173.13,-205.28"/>
<text text-anchor="middle" x="2194.04" y="-217.8" font-family="Times,serif" font-size="14.00">strand</text>
</g>
<!-- phase -->
<g id="node22" class="node">
<title>phase</title>
<ellipse fill="none" stroke="blue" cx="2256.54" cy="-178" rx="38.19" ry="18"/>
<text text-anchor="middle" x="2256.54" y="-174.3" font-family="Times,serif" font-size="14.00">string</text>
</g>
<!-- service sequence localization&#45;&gt;phase -->
<g id="edge19" class="edge">
<title>service sequence localization&#45;&gt;phase</title>
<path fill="none" stroke="blue" d="M1453.07,-251.83C1471.49,-249.94 1490.58,-248.21 1508.54,-247 1548.07,-244.34 2186.63,-247.74 2221.54,-229 2231.34,-223.74 2238.99,-214.38 2244.61,-205.17"/>
<polygon fill="blue" stroke="blue" points="2247.8,-206.62 2249.54,-196.17 2241.67,-203.26 2247.8,-206.62"/>
<text text-anchor="middle" x="2260.04" y="-217.8" font-family="Times,serif" font-size="14.00">phase</text>
</g>
<!-- subject -->
<g id="node23" class="node">
<title>subject</title>
<ellipse fill="none" stroke="black" cx="2357.54" cy="-178" rx="44.39" ry="18"/>
<text text-anchor="middle" x="2357.54" y="-174.3" font-family="Times,serif" font-size="14.00">subject</text>
</g>
<!-- service sequence localization&#45;&gt;subject -->
<g id="edge20" class="edge">
<title>service sequence localization&#45;&gt;subject</title>
<path fill="none" stroke="blue" d="M1453.07,-251.8C1471.49,-249.91 1490.58,-248.19 1508.54,-247 1594.71,-241.29 2203.43,-255.76 2285.54,-229 2302.99,-223.31 2319.97,-211.89 2333.06,-201.4"/>
<polygon fill="blue" stroke="blue" points="2335.64,-203.8 2341.07,-194.7 2331.15,-198.43 2335.64,-203.8"/>
<text text-anchor="middle" x="2341.54" y="-217.8" font-family="Times,serif" font-size="14.00">subject</text>
</g>
<!-- object -->
<g id="node25" class="node">
<title>object</title>
<ellipse fill="none" stroke="black" cx="2378.54" cy="-91" rx="38.99" ry="18"/>
<text text-anchor="middle" x="2378.54" y="-87.3" font-family="Times,serif" font-size="14.00">object</text>
</g>
<!-- service sequence localization&#45;&gt;object -->
<g id="edge21" class="edge">
<title>service sequence localization&#45;&gt;object</title>
<path fill="none" stroke="blue" d="M1452.65,-251.81C1471.2,-249.91 1490.44,-248.18 1508.54,-247 1556.39,-243.88 2326.69,-245.96 2371.54,-229 2419.14,-211 2445.9,-172.71 2423.54,-127 2420.69,-121.17 2416.34,-116.02 2411.45,-111.6"/>
<polygon fill="blue" stroke="blue" points="2413.47,-108.73 2403.46,-105.25 2409.11,-114.21 2413.47,-108.73"/>
<text text-anchor="middle" x="2452.54" y="-174.3" font-family="Times,serif" font-size="14.00">object</text>
</g>
<!-- predicate -->
<g id="node27" class="node">
<title>predicate</title>
<ellipse fill="none" stroke="black" cx="2554.54" cy="-178" rx="54.69" ry="18"/>
<text text-anchor="middle" x="2554.54" y="-174.3" font-family="Times,serif" font-size="14.00">predicate</text>
</g>
<!-- service sequence localization&#45;&gt;predicate -->
<g id="edge22" class="edge">
<title>service sequence localization&#45;&gt;predicate</title>
<path fill="none" stroke="blue" d="M1452.65,-251.79C1471.2,-249.88 1490.44,-248.16 1508.54,-247 1613.12,-240.28 2349.64,-253.45 2451.54,-229 2476.4,-223.03 2502.28,-210.44 2521.88,-199.39"/>
<polygon fill="blue" stroke="blue" points="2523.8,-202.32 2530.69,-194.28 2520.29,-196.27 2523.8,-202.32"/>
<text text-anchor="middle" x="2526.54" y="-217.8" font-family="Times,serif" font-size="14.00">predicate</text>
</g>
<!-- association_type -->
<g id="node15" class="node">
<title>association_type</title>
<ellipse fill="none" stroke="blue" cx="1555.54" cy="-265" rx="38.19" ry="18"/>
<text text-anchor="middle" x="1555.54" y="-261.3" font-family="Times,serif" font-size="14.00">string</text>
</g>
<!-- association_category -->
<g id="node17" class="node">
<title>association_category</title>
<ellipse fill="none" stroke="blue" cx="1674.54" cy="-265" rx="62.29" ry="18"/>
<text text-anchor="middle" x="1674.54" y="-261.3" font-family="Times,serif" font-size="14.00">association</text>
</g>
<!-- subject&#45;&gt;relation -->
<g id="edge24" class="edge">
<title>subject&#45;&gt;relation</title>
<path fill="none" stroke="black" stroke-dasharray="1,5" d="M2349.96,-160.24C2344.04,-146.64 2335.93,-126.88 2330.54,-109 2324.28,-88.27 2319.32,-64.24 2316.04,-46.23"/>
<polygon fill="black" stroke="black" points="2319.45,-45.38 2314.26,-36.14 2312.55,-46.59 2319.45,-45.38"/>
</g>
<!-- subject&#45;&gt;object -->
<g id="edge23" class="edge">
<title>subject&#45;&gt;object</title>
<path fill="none" stroke="black" d="M2360.51,-159.77C2362.3,-150.09 2364.77,-137.8 2367.54,-127 2368.23,-124.32 2369,-121.53 2369.81,-118.76"/>
<polygon fill="black" stroke="black" points="2373.22,-119.57 2372.8,-108.98 2366.53,-117.52 2373.22,-119.57"/>
<text text-anchor="middle" x="2395.54" y="-130.8" font-family="Times,serif" font-size="14.00">relation</text>
</g>
<!-- service sequence localization_subject -->
<g id="node24" class="node">
<title>service sequence localization_subject</title>
<ellipse fill="none" stroke="blue" cx="1838.54" cy="-265" rx="83.39" ry="18"/>
<text text-anchor="middle" x="1838.54" y="-261.3" font-family="Times,serif" font-size="14.00">workload entity</text>
</g>
<!-- object&#45;&gt;relation -->
<g id="edge25" class="edge">
<title>object&#45;&gt;relation</title>
<path fill="none" stroke="black" stroke-dasharray="1,5" d="M2363.67,-74.24C2355.07,-65.13 2344.06,-53.47 2334.38,-43.21"/>
<polygon fill="black" stroke="black" points="2336.71,-40.57 2327.3,-35.7 2331.62,-45.38 2336.71,-40.57"/>
</g>
<!-- service sequence localization_object -->
<g id="node26" class="node">
<title>service sequence localization_object</title>
<ellipse fill="none" stroke="blue" cx="2022.54" cy="-265" rx="83.39" ry="18"/>
<text text-anchor="middle" x="2022.54" y="-261.3" font-family="Times,serif" font-size="14.00">workload entity</text>
</g>
<!-- service sequence localization_predicate -->
<g id="node28" class="node">
<title>service sequence localization_predicate</title>
<ellipse fill="none" stroke="blue" cx="2201.54" cy="-265" rx="77.99" ry="18"/>
<text text-anchor="middle" x="2201.54" y="-261.3" font-family="Times,serif" font-size="14.00">predicate type</text>
</g>
</g>
</svg>
