<?xml version="1.0" encoding="UTF-8" standalone="no"?>
<!DOCTYPE svg PUBLIC "-//W3C//DTD SVG 1.1//EN"
 "http://www.w3.org/Graphics/SVG/1.1/DTD/svg11.dtd">
<!-- Generated by graphviz version 2.43.0 (0)
 -->
<!-- Title: %3 Pages: 1 -->
<svg width="3655pt" height="291pt"
 viewBox="0.00 0.00 3655.48 291.00" xmlns="http://www.w3.org/2000/svg" xmlns:xlink="http://www.w3.org/1999/xlink">
<g id="graph0" class="graph" transform="scale(1 1) rotate(0) translate(4 287)">
<title>%3</title>
<polygon fill="white" stroke="transparent" points="-4,4 -4,-287 3651.48,-287 3651.48,4 -4,4"/>
<!-- serviceunittype to observable feature association -->
<g id="node1" class="node">
<title>serviceunittype to observable feature association</title>
<ellipse fill="none" stroke="black" cx="1946.39" cy="-265" rx="239.66" ry="18"/>
<text text-anchor="middle" x="1946.39" y="-261.3" font-family="Times,serif" font-size="14.00">serviceunittype to observable feature association</text>
</g>
<!-- association -->
<g id="node2" class="node">
<title>association</title>
<ellipse fill="none" stroke="black" cx="62.39" cy="-178" rx="62.29" ry="18"/>
<text text-anchor="middle" x="62.39" y="-174.3" font-family="Times,serif" font-size="14.00">association</text>
</g>
<!-- serviceunittype to observable feature association&#45;&gt;association -->
<g id="edge1" class="edge">
<title>serviceunittype to observable feature association&#45;&gt;association</title>
<path fill="none" stroke="black" d="M1720.63,-258.89C1481.98,-253.12 1094.59,-242.72 760.39,-229 481.58,-217.55 409.57,-235.99 133.39,-196 127.91,-195.21 122.22,-194.19 116.56,-193.04"/>
<polygon fill="black" stroke="black" points="116.98,-189.55 106.47,-190.87 115.51,-196.39 116.98,-189.55"/>
<text text-anchor="middle" x="774.39" y="-217.8" font-family="Times,serif" font-size="14.00">is_a</text>
</g>
<!-- entity to observable feature association mixin -->
<g id="node3" class="node">
<title>entity to observable feature association mixin</title>
<ellipse fill="none" stroke="black" cx="366.39" cy="-178" rx="223.66" ry="18"/>
<text text-anchor="middle" x="366.39" y="-174.3" font-family="Times,serif" font-size="14.00">entity to observable feature association mixin</text>
</g>
<!-- serviceunittype to observable feature association&#45;&gt;entity to observable feature association mixin -->
<g id="edge2" class="edge">
<title>serviceunittype to observable feature association&#45;&gt;entity to observable feature association mixin</title>
<path fill="none" stroke="black" d="M1723.35,-258.35C1531.78,-252.88 1248.27,-243.29 1001.39,-229 836.4,-219.45 647.63,-204.01 519.08,-192.81"/>
<polygon fill="black" stroke="black" points="519.04,-189.3 508.77,-191.91 518.43,-196.27 519.04,-189.3"/>
<text text-anchor="middle" x="1017.89" y="-217.8" font-family="Times,serif" font-size="14.00">uses</text>
</g>
<!-- serviceunittype to entity association mixin -->
<g id="node4" class="node">
<title>serviceunittype to entity association mixin</title>
<ellipse fill="none" stroke="black" cx="816.39" cy="-178" rx="208.76" ry="18"/>
<text text-anchor="middle" x="816.39" y="-174.3" font-family="Times,serif" font-size="14.00">serviceunittype to entity association mixin</text>
</g>
<!-- serviceunittype to observable feature association&#45;&gt;serviceunittype to entity association mixin -->
<g id="edge3" class="edge">
<title>serviceunittype to observable feature association&#45;&gt;serviceunittype to entity association mixin</title>
<path fill="none" stroke="black" d="M1716.7,-259.77C1559.97,-255.41 1347.8,-246.62 1161.39,-229 1077.98,-221.12 983.89,-207.14 915.06,-195.96"/>
<polygon fill="black" stroke="black" points="915.53,-192.49 905.1,-194.33 914.4,-199.4 915.53,-192.49"/>
<text text-anchor="middle" x="1177.89" y="-217.8" font-family="Times,serif" font-size="14.00">uses</text>
</g>
<!-- id -->
<g id="node5" class="node">
<title>id</title>
<ellipse fill="none" stroke="blue" cx="1081.39" cy="-178" rx="38.19" ry="18"/>
<text text-anchor="middle" x="1081.39" y="-174.3" font-family="Times,serif" font-size="14.00">string</text>
</g>
<!-- serviceunittype to observable feature association&#45;&gt;id -->
<g id="edge4" class="edge">
<title>serviceunittype to observable feature association&#45;&gt;id</title>
<path fill="none" stroke="blue" d="M1715.67,-260.08C1589.6,-255.83 1430.95,-247.05 1290.39,-229 1217.95,-219.7 1199.77,-215.57 1129.39,-196 1126.29,-195.14 1123.09,-194.17 1119.89,-193.15"/>
<polygon fill="blue" stroke="blue" points="1120.97,-189.83 1110.38,-189.99 1118.76,-196.47 1120.97,-189.83"/>
<text text-anchor="middle" x="1297.39" y="-217.8" font-family="Times,serif" font-size="14.00">id</text>
</g>
<!-- iri -->
<g id="node6" class="node">
<title>iri</title>
<ellipse fill="none" stroke="blue" cx="1182.39" cy="-178" rx="44.39" ry="18"/>
<text text-anchor="middle" x="1182.39" y="-174.3" font-family="Times,serif" font-size="14.00">iri type</text>
</g>
<!-- serviceunittype to observable feature association&#45;&gt;iri -->
<g id="edge5" class="edge">
<title>serviceunittype to observable feature association&#45;&gt;iri</title>
<path fill="none" stroke="blue" d="M1727.88,-257.56C1625.37,-252.67 1501.76,-244.07 1391.39,-229 1321.18,-219.41 1303.89,-214.18 1235.39,-196 1232.02,-195.11 1228.55,-194.12 1225.07,-193.1"/>
<polygon fill="blue" stroke="blue" points="1225.91,-189.7 1215.32,-190.13 1223.87,-196.39 1225.91,-189.7"/>
<text text-anchor="middle" x="1399.39" y="-217.8" font-family="Times,serif" font-size="14.00">iri</text>
</g>
<!-- name -->
<g id="node7" class="node">
<title>name</title>
<ellipse fill="none" stroke="blue" cx="1301.39" cy="-178" rx="56.59" ry="18"/>
<text text-anchor="middle" x="1301.39" y="-174.3" font-family="Times,serif" font-size="14.00">label type</text>
</g>
<!-- serviceunittype to observable feature association&#45;&gt;name -->
<g id="edge6" class="edge">
<title>serviceunittype to observable feature association&#45;&gt;name</title>
<path fill="none" stroke="blue" d="M1728.09,-257.52C1647.29,-252.59 1555.21,-243.99 1472.39,-229 1429.18,-221.18 1381.3,-206.65 1347.22,-195.26"/>
<polygon fill="blue" stroke="blue" points="1348.15,-191.88 1337.55,-191.99 1345.9,-198.51 1348.15,-191.88"/>
<text text-anchor="middle" x="1492.39" y="-217.8" font-family="Times,serif" font-size="14.00">name</text>
</g>
<!-- description -->
<g id="node8" class="node">
<title>description</title>
<ellipse fill="none" stroke="blue" cx="1451.39" cy="-178" rx="75.29" ry="18"/>
<text text-anchor="middle" x="1451.39" y="-174.3" font-family="Times,serif" font-size="14.00">narrative text</text>
</g>
<!-- serviceunittype to observable feature association&#45;&gt;description -->
<g id="edge7" class="edge">
<title>serviceunittype to observable feature association&#45;&gt;description</title>
<path fill="none" stroke="blue" d="M1758.76,-253.78C1677.4,-248.01 1591.99,-239.78 1553.39,-229 1529.89,-222.44 1505.27,-210.53 1486.11,-199.99"/>
<polygon fill="blue" stroke="blue" points="1487.61,-196.81 1477.18,-194.95 1484.17,-202.91 1487.61,-196.81"/>
<text text-anchor="middle" x="1593.89" y="-217.8" font-family="Times,serif" font-size="14.00">description</text>
</g>
<!-- source -->
<g id="node9" class="node">
<title>source</title>
<ellipse fill="none" stroke="blue" cx="1601.39" cy="-178" rx="56.59" ry="18"/>
<text text-anchor="middle" x="1601.39" y="-174.3" font-family="Times,serif" font-size="14.00">label type</text>
</g>
<!-- serviceunittype to observable feature association&#45;&gt;source -->
<g id="edge8" class="edge">
<title>serviceunittype to observable feature association&#45;&gt;source</title>
<path fill="none" stroke="blue" d="M1782.61,-251.8C1732.28,-246.33 1684.15,-238.85 1661.39,-229 1647.51,-222.99 1634.33,-212.72 1623.88,-203.05"/>
<polygon fill="blue" stroke="blue" points="1626.07,-200.3 1616.46,-195.85 1621.2,-205.32 1626.07,-200.3"/>
<text text-anchor="middle" x="1685.39" y="-217.8" font-family="Times,serif" font-size="14.00">source</text>
</g>
<!-- provided by -->
<g id="node10" class="node">
<title>provided by</title>
<ellipse fill="none" stroke="blue" cx="1713.39" cy="-178" rx="37.09" ry="18"/>
<text text-anchor="middle" x="1713.39" y="-174.3" font-family="Times,serif" font-size="14.00">agent</text>
</g>
<!-- serviceunittype to observable feature association&#45;&gt;provided by -->
<g id="edge9" class="edge">
<title>serviceunittype to observable feature association&#45;&gt;provided by</title>
<path fill="none" stroke="blue" d="M1781.48,-251.9C1753.78,-246.75 1730.67,-239.43 1720.39,-229 1714.51,-223.03 1712.05,-214.54 1711.27,-206.25"/>
<polygon fill="blue" stroke="blue" points="1714.76,-205.99 1711.05,-196.06 1707.76,-206.13 1714.76,-205.99"/>
<text text-anchor="middle" x="1762.89" y="-217.8" font-family="Times,serif" font-size="14.00">provided by</text>
</g>
<!-- has attribute -->
<g id="node11" class="node">
<title>has attribute</title>
<ellipse fill="none" stroke="blue" cx="1820.39" cy="-178" rx="51.99" ry="18"/>
<text text-anchor="middle" x="1820.39" y="-174.3" font-family="Times,serif" font-size="14.00">attribute</text>
</g>
<!-- serviceunittype to observable feature association&#45;&gt;has attribute -->
<g id="edge10" class="edge">
<title>serviceunittype to observable feature association&#45;&gt;has attribute</title>
<path fill="none" stroke="blue" d="M1854.22,-248.31C1835.36,-243.21 1819.41,-236.8 1813.39,-229 1808.3,-222.39 1807.96,-213.77 1809.55,-205.56"/>
<polygon fill="blue" stroke="blue" points="1812.93,-206.48 1812.25,-195.91 1806.19,-204.59 1812.93,-206.48"/>
<text text-anchor="middle" x="1860.39" y="-217.8" font-family="Times,serif" font-size="14.00">has attribute</text>
</g>
<!-- object -->
<g id="node12" class="node">
<title>object</title>
<ellipse fill="none" stroke="blue" cx="2353.39" cy="-91" rx="69.59" ry="18"/>
<text text-anchor="middle" x="2353.39" y="-87.3" font-family="Times,serif" font-size="14.00">named thing</text>
</g>
<!-- serviceunittype to observable feature association&#45;&gt;object -->
<g id="edge11" class="edge">
<title>serviceunittype to observable feature association&#45;&gt;object</title>
<path fill="none" stroke="blue" d="M1942.15,-246.75C1937.64,-223.82 1933.79,-183.47 1955.39,-160 1997.32,-114.45 2170.83,-99.39 2274.41,-94.42"/>
<polygon fill="blue" stroke="blue" points="2274.69,-97.91 2284.52,-93.96 2274.37,-90.92 2274.69,-97.91"/>
<text text-anchor="middle" x="1977.39" y="-174.3" font-family="Times,serif" font-size="14.00">object</text>
</g>
<!-- relation -->
<g id="node13" class="node">
<title>relation</title>
<ellipse fill="none" stroke="blue" cx="2353.39" cy="-18" rx="57.39" ry="18"/>
<text text-anchor="middle" x="2353.39" y="-14.3" font-family="Times,serif" font-size="14.00">uriorcurie</text>
</g>
<!-- serviceunittype to observable feature association&#45;&gt;relation -->
<g id="edge12" class="edge">
<title>serviceunittype to observable feature association&#45;&gt;relation</title>
<path fill="none" stroke="blue" d="M1936.37,-246.79C1921.44,-218.63 1897.89,-162.31 1925.39,-127 1969.88,-69.9 2181.77,-38.26 2289.77,-25.6"/>
<polygon fill="blue" stroke="blue" points="2290.36,-29.06 2299.89,-24.43 2289.56,-22.1 2290.36,-29.06"/>
<text text-anchor="middle" x="1953.39" y="-130.8" font-family="Times,serif" font-size="14.00">relation</text>
</g>
<!-- negated -->
<g id="node14" class="node">
<title>negated</title>
<ellipse fill="none" stroke="blue" cx="2055.39" cy="-178" rx="46.59" ry="18"/>
<text text-anchor="middle" x="2055.39" y="-174.3" font-family="Times,serif" font-size="14.00">boolean</text>
</g>
<!-- serviceunittype to observable feature association&#45;&gt;negated -->
<g id="edge13" class="edge">
<title>serviceunittype to observable feature association&#45;&gt;negated</title>
<path fill="none" stroke="blue" d="M1968.19,-247C1985.21,-233.73 2009,-215.18 2027.42,-200.81"/>
<polygon fill="blue" stroke="blue" points="2029.74,-203.45 2035.47,-194.54 2025.43,-197.93 2029.74,-203.45"/>
<text text-anchor="middle" x="2037.39" y="-217.8" font-family="Times,serif" font-size="14.00">negated</text>
</g>
<!-- qualifiers -->
<g id="node15" class="node">
<title>qualifiers</title>
<ellipse fill="none" stroke="blue" cx="2196.39" cy="-178" rx="76.89" ry="18"/>
<text text-anchor="middle" x="2196.39" y="-174.3" font-family="Times,serif" font-size="14.00">ontology class</text>
</g>
<!-- serviceunittype to observable feature association&#45;&gt;qualifiers -->
<g id="edge14" class="edge">
<title>serviceunittype to observable feature association&#45;&gt;qualifiers</title>
<path fill="none" stroke="blue" d="M2009.23,-247.61C2028.94,-242.11 2050.69,-235.67 2070.39,-229 2097.73,-219.75 2127.78,-207.89 2151.68,-198.04"/>
<polygon fill="blue" stroke="blue" points="2153.29,-201.16 2161.18,-194.1 2150.6,-194.7 2153.29,-201.16"/>
<text text-anchor="middle" x="2142.89" y="-217.8" font-family="Times,serif" font-size="14.00">qualifiers</text>
</g>
<!-- publications -->
<g id="node16" class="node">
<title>publications</title>
<ellipse fill="none" stroke="blue" cx="2353.39" cy="-178" rx="62.29" ry="18"/>
<text text-anchor="middle" x="2353.39" y="-174.3" font-family="Times,serif" font-size="14.00">publication</text>
</g>
<!-- serviceunittype to observable feature association&#45;&gt;publications -->
<g id="edge15" class="edge">
<title>serviceunittype to observable feature association&#45;&gt;publications</title>
<path fill="none" stroke="blue" d="M2065.39,-249.32C2102.43,-243.92 2143.27,-237.1 2180.39,-229 2222.65,-219.78 2269.76,-205.92 2304.13,-195.13"/>
<polygon fill="blue" stroke="blue" points="2305.45,-198.39 2313.92,-192.03 2303.33,-191.71 2305.45,-198.39"/>
<text text-anchor="middle" x="2282.39" y="-217.8" font-family="Times,serif" font-size="14.00">publications</text>
</g>
<!-- type -->
<g id="node17" class="node">
<title>type</title>
<ellipse fill="none" stroke="black" cx="2465.39" cy="-178" rx="31.4" ry="18"/>
<text text-anchor="middle" x="2465.39" y="-174.3" font-family="Times,serif" font-size="14.00">type</text>
</g>
<!-- serviceunittype to observable feature association&#45;&gt;type -->
<g id="edge16" class="edge">
<title>serviceunittype to observable feature association&#45;&gt;type</title>
<path fill="none" stroke="blue" d="M2118.58,-252.45C2201.05,-246.07 2290.41,-237.7 2330.39,-229 2366.28,-221.19 2405.45,-205.87 2432.31,-194.24"/>
<polygon fill="blue" stroke="blue" points="2433.88,-197.37 2441.62,-190.14 2431.06,-190.96 2433.88,-197.37"/>
<text text-anchor="middle" x="2396.39" y="-217.8" font-family="Times,serif" font-size="14.00">type</text>
</g>
<!-- category -->
<g id="node19" class="node">
<title>category</title>
<ellipse fill="none" stroke="black" cx="2566.39" cy="-178" rx="51.19" ry="18"/>
<text text-anchor="middle" x="2566.39" y="-174.3" font-family="Times,serif" font-size="14.00">category</text>
</g>
<!-- serviceunittype to observable feature association&#45;&gt;category -->
<g id="edge17" class="edge">
<title>serviceunittype to observable feature association&#45;&gt;category</title>
<path fill="none" stroke="blue" d="M2116.57,-252.32C2244.95,-243.34 2401.47,-232 2416.39,-229 2453.99,-221.45 2495.23,-207.25 2524.93,-195.91"/>
<polygon fill="blue" stroke="blue" points="2526.48,-199.06 2534.54,-192.18 2523.95,-192.53 2526.48,-199.06"/>
<text text-anchor="middle" x="2502.89" y="-217.8" font-family="Times,serif" font-size="14.00">category</text>
</g>
<!-- predicate -->
<g id="node21" class="node">
<title>predicate</title>
<ellipse fill="none" stroke="black" cx="2690.39" cy="-178" rx="54.69" ry="18"/>
<text text-anchor="middle" x="2690.39" y="-174.3" font-family="Times,serif" font-size="14.00">predicate</text>
</g>
<!-- serviceunittype to observable feature association&#45;&gt;predicate -->
<g id="edge18" class="edge">
<title>serviceunittype to observable feature association&#45;&gt;predicate</title>
<path fill="none" stroke="blue" d="M2114.8,-252.14C2141.75,-250.35 2169.34,-248.57 2195.39,-247 2347.77,-237.8 2388.35,-257.1 2538.39,-229 2576.58,-221.85 2618.42,-207.59 2648.51,-196.12"/>
<polygon fill="blue" stroke="blue" points="2649.78,-199.38 2657.85,-192.51 2647.26,-192.85 2649.78,-199.38"/>
<text text-anchor="middle" x="2628.39" y="-217.8" font-family="Times,serif" font-size="14.00">predicate</text>
</g>
<!-- subject -->
<g id="node23" class="node">
<title>subject</title>
<ellipse fill="none" stroke="black" cx="2807.39" cy="-178" rx="44.39" ry="18"/>
<text text-anchor="middle" x="2807.39" y="-174.3" font-family="Times,serif" font-size="14.00">subject</text>
</g>
<!-- serviceunittype to observable feature association&#45;&gt;subject -->
<g id="edge19" class="edge">
<title>serviceunittype to observable feature association&#45;&gt;subject</title>
<path fill="none" stroke="blue" d="M2112.44,-251.97C2140.13,-250.16 2168.57,-248.43 2195.39,-247 2299.99,-241.43 2563.53,-248.73 2666.39,-229 2702.45,-222.09 2741.67,-207.57 2769.57,-195.95"/>
<polygon fill="blue" stroke="blue" points="2771.1,-199.1 2778.94,-191.97 2768.37,-192.65 2771.1,-199.1"/>
<text text-anchor="middle" x="2744.39" y="-217.8" font-family="Times,serif" font-size="14.00">subject</text>
</g>
<!-- frequency qualifier -->
<g id="node25" class="node">
<title>frequency qualifier</title>
<ellipse fill="none" stroke="blue" cx="2954.39" cy="-178" rx="85.29" ry="18"/>
<text text-anchor="middle" x="2954.39" y="-174.3" font-family="Times,serif" font-size="14.00">frequency value</text>
</g>
<!-- serviceunittype to observable feature association&#45;&gt;frequency qualifier -->
<g id="edge20" class="edge">
<title>serviceunittype to observable feature association&#45;&gt;frequency qualifier</title>
<path fill="none" stroke="blue" d="M2111.09,-251.89C2139.21,-250.07 2168.13,-248.35 2195.39,-247 2323.96,-240.61 2647.13,-248.37 2774.39,-229 2818.5,-222.29 2867.19,-208.35 2902.79,-196.89"/>
<polygon fill="blue" stroke="blue" points="2904.05,-200.16 2912.47,-193.73 2901.87,-193.51 2904.05,-200.16"/>
<text text-anchor="middle" x="2908.39" y="-217.8" font-family="Times,serif" font-size="14.00">frequency qualifier</text>
</g>
<!-- severity qualifier -->
<g id="node26" class="node">
<title>severity qualifier</title>
<ellipse fill="none" stroke="blue" cx="3133.39" cy="-178" rx="76.09" ry="18"/>
<text text-anchor="middle" x="3133.39" y="-174.3" font-family="Times,serif" font-size="14.00">severity value</text>
</g>
<!-- serviceunittype to observable feature association&#45;&gt;severity qualifier -->
<g id="edge21" class="edge">
<title>serviceunittype to observable feature association&#45;&gt;severity qualifier</title>
<path fill="none" stroke="blue" d="M2109.74,-251.79C2138.28,-249.96 2167.69,-248.26 2195.39,-247 2369.7,-239.06 2808.4,-258.42 2980.39,-229 3017.68,-222.62 3058.31,-209.01 3088.32,-197.6"/>
<polygon fill="blue" stroke="blue" points="3089.61,-200.85 3097.67,-193.98 3087.08,-194.32 3089.61,-200.85"/>
<text text-anchor="middle" x="3101.39" y="-217.8" font-family="Times,serif" font-size="14.00">severity qualifier</text>
</g>
<!-- onset qualifier -->
<g id="node27" class="node">
<title>onset qualifier</title>
<ellipse fill="none" stroke="blue" cx="3263.39" cy="-178" rx="36.29" ry="18"/>
<text text-anchor="middle" x="3263.39" y="-174.3" font-family="Times,serif" font-size="14.00">onset</text>
</g>
<!-- serviceunittype to observable feature association&#45;&gt;onset qualifier -->
<g id="edge22" class="edge">
<title>serviceunittype to observable feature association&#45;&gt;onset qualifier</title>
<path fill="none" stroke="blue" d="M2108.73,-251.75C2137.58,-249.9 2167.36,-248.22 2195.39,-247 2303.2,-242.32 3061.77,-255.41 3166.39,-229 3190.71,-222.86 3215.8,-209.71 3234.38,-198.43"/>
<polygon fill="blue" stroke="blue" points="3236.31,-201.35 3242.94,-193.09 3232.61,-195.41 3236.31,-201.35"/>
<text text-anchor="middle" x="3257.89" y="-217.8" font-family="Times,serif" font-size="14.00">onset qualifier</text>
</g>
<!-- architectural style qualifier -->
<g id="node28" class="node">
<title>architectural style qualifier</title>
<ellipse fill="none" stroke="blue" cx="3482.39" cy="-178" rx="165.17" ry="18"/>
<text text-anchor="middle" x="3482.39" y="-174.3" font-family="Times,serif" font-size="14.00">computational architectural style</text>
</g>
<!-- serviceunittype to observable feature association&#45;&gt;architectural style qualifier -->
<g id="edge23" class="edge">
<title>serviceunittype to observable feature association&#45;&gt;architectural style qualifier</title>
<path fill="none" stroke="blue" d="M2108.4,-251.71C2137.35,-249.87 2167.26,-248.19 2195.39,-247 2319.52,-241.77 3190.59,-247.8 3313.39,-229 3353,-222.94 3396.31,-209.99 3429.17,-198.8"/>
<polygon fill="blue" stroke="blue" points="3430.71,-201.97 3439.02,-195.39 3428.42,-195.35 3430.71,-201.97"/>
<text text-anchor="middle" x="3477.39" y="-217.8" font-family="Times,serif" font-size="14.00">architectural style qualifier</text>
</g>
<!-- object&#45;&gt;relation -->
<g id="edge26" class="edge">
<title>object&#45;&gt;relation</title>
<path fill="none" stroke="black" stroke-dasharray="1,5" d="M2353.39,-72.81C2353.39,-64.79 2353.39,-55.05 2353.39,-46.07"/>
<polygon fill="black" stroke="black" points="2356.89,-46.03 2353.39,-36.03 2349.89,-46.03 2356.89,-46.03"/>
</g>
<!-- association_type -->
<g id="node18" class="node">
<title>association_type</title>
<ellipse fill="none" stroke="blue" cx="2242.39" cy="-265" rx="38.19" ry="18"/>
<text text-anchor="middle" x="2242.39" y="-261.3" font-family="Times,serif" font-size="14.00">string</text>
</g>
<!-- association_category -->
<g id="node20" class="node">
<title>association_category</title>
<ellipse fill="none" stroke="blue" cx="2361.39" cy="-265" rx="62.29" ry="18"/>
<text text-anchor="middle" x="2361.39" y="-261.3" font-family="Times,serif" font-size="14.00">association</text>
</g>
<!-- serviceunittype to observable feature association_predicate -->
<g id="node22" class="node">
<title>serviceunittype to observable feature association_predicate</title>
<ellipse fill="none" stroke="blue" cx="2519.39" cy="-265" rx="77.99" ry="18"/>
<text text-anchor="middle" x="2519.39" y="-261.3" font-family="Times,serif" font-size="14.00">predicate type</text>
</g>
<!-- subject&#45;&gt;object -->
<g id="edge24" class="edge">
<title>subject&#45;&gt;object</title>
<path fill="none" stroke="black" d="M2775.46,-165.52C2768.59,-163.4 2761.31,-161.41 2754.39,-160 2669.12,-142.6 2645.25,-156.3 2559.39,-142 2507.41,-133.34 2449.13,-118.72 2407.86,-107.53"/>
<polygon fill="black" stroke="black" points="2408.58,-104.09 2398.01,-104.83 2406.73,-110.85 2408.58,-104.09"/>
<text text-anchor="middle" x="2587.39" y="-130.8" font-family="Times,serif" font-size="14.00">relation</text>
</g>
<!-- subject&#45;&gt;relation -->
<g id="edge25" class="edge">
<title>subject&#45;&gt;relation</title>
<path fill="none" stroke="black" stroke-dasharray="1,5" d="M2774.74,-165.64C2695.39,-138.02 2492.19,-67.3 2400.06,-35.24"/>
<polygon fill="black" stroke="black" points="2401.04,-31.87 2390.44,-31.89 2398.74,-38.49 2401.04,-31.87"/>
</g>
<!-- serviceunittype to observable feature association_subject -->
<g id="node24" class="node">
<title>serviceunittype to observable feature association_subject</title>
<ellipse fill="none" stroke="blue" cx="2698.39" cy="-265" rx="83.39" ry="18"/>
<text text-anchor="middle" x="2698.39" y="-261.3" font-family="Times,serif" font-size="14.00">serviceunittype</text>
</g>
</g>
</svg>
