<?xml version="1.0" encoding="UTF-8" standalone="no"?>
<!DOCTYPE svg PUBLIC "-//W3C//DTD SVG 1.1//EN"
 "http://www.w3.org/Graphics/SVG/1.1/DTD/svg11.dtd">
<!-- Generated by graphviz version 2.43.0 (0)
 -->
<!-- Title: %3 Pages: 1 -->
<svg width="3207pt" height="291pt"
 viewBox="0.00 0.00 3207.39 291.00" xmlns="http://www.w3.org/2000/svg" xmlns:xlink="http://www.w3.org/1999/xlink">
<g id="graph0" class="graph" transform="scale(1 1) rotate(0) translate(4 287)">
<title>%3</title>
<polygon fill="white" stroke="transparent" points="-4,4 -4,-287 3203.39,-287 3203.39,4 -4,4"/>
<!-- serviceunittype to error association -->
<g id="node1" class="node">
<title>serviceunittype to error association</title>
<ellipse fill="none" stroke="black" cx="1826.39" cy="-265" rx="176.57" ry="18"/>
<text text-anchor="middle" x="1826.39" y="-261.3" font-family="Times,serif" font-size="14.00">serviceunittype to error association</text>
</g>
<!-- association -->
<g id="node2" class="node">
<title>association</title>
<ellipse fill="none" stroke="black" cx="62.39" cy="-178" rx="62.29" ry="18"/>
<text text-anchor="middle" x="62.39" y="-174.3" font-family="Times,serif" font-size="14.00">association</text>
</g>
<!-- serviceunittype to error association&#45;&gt;association -->
<g id="edge1" class="edge">
<title>serviceunittype to error association&#45;&gt;association</title>
<path fill="none" stroke="black" d="M1655.29,-260.34C1431.58,-255.19 1027.54,-244.65 682.39,-229 438.2,-217.93 375.18,-231.93 133.39,-196 127.91,-195.18 122.23,-194.15 116.57,-193"/>
<polygon fill="black" stroke="black" points="116.99,-189.51 106.47,-190.82 115.51,-196.35 116.99,-189.51"/>
<text text-anchor="middle" x="696.39" y="-217.8" font-family="Times,serif" font-size="14.00">is_a</text>
</g>
<!-- serviceunittype to entity association mixin -->
<g id="node3" class="node">
<title>serviceunittype to entity association mixin</title>
<ellipse fill="none" stroke="black" cx="351.39" cy="-178" rx="208.76" ry="18"/>
<text text-anchor="middle" x="351.39" y="-174.3" font-family="Times,serif" font-size="14.00">serviceunittype to entity association mixin</text>
</g>
<!-- serviceunittype to error association&#45;&gt;serviceunittype to entity association mixin -->
<g id="edge2" class="edge">
<title>serviceunittype to error association&#45;&gt;serviceunittype to entity association mixin</title>
<path fill="none" stroke="black" d="M1655.39,-260.4C1467.99,-255.79 1158.56,-246.27 892.39,-229 753.65,-220 595.33,-204.78 485.97,-193.5"/>
<polygon fill="black" stroke="black" points="486.18,-190 475.87,-192.45 485.46,-196.97 486.18,-190"/>
<text text-anchor="middle" x="908.89" y="-217.8" font-family="Times,serif" font-size="14.00">uses</text>
</g>
<!-- entity to error association mixin -->
<g id="node4" class="node">
<title>entity to error association mixin</title>
<ellipse fill="none" stroke="black" cx="738.39" cy="-178" rx="160.57" ry="18"/>
<text text-anchor="middle" x="738.39" y="-174.3" font-family="Times,serif" font-size="14.00">entity to error association mixin</text>
</g>
<!-- serviceunittype to error association&#45;&gt;entity to error association mixin -->
<g id="edge3" class="edge">
<title>serviceunittype to error association&#45;&gt;entity to error association mixin</title>
<path fill="none" stroke="black" d="M1651.17,-262.4C1490.58,-259.47 1246.42,-251.35 1035.39,-229 963.02,-221.34 881.54,-207.22 822.26,-195.94"/>
<polygon fill="black" stroke="black" points="822.68,-192.46 812.2,-194.01 821.36,-199.33 822.68,-192.46"/>
<text text-anchor="middle" x="1051.89" y="-217.8" font-family="Times,serif" font-size="14.00">uses</text>
</g>
<!-- id -->
<g id="node5" class="node">
<title>id</title>
<ellipse fill="none" stroke="blue" cx="955.39" cy="-178" rx="38.19" ry="18"/>
<text text-anchor="middle" x="955.39" y="-174.3" font-family="Times,serif" font-size="14.00">string</text>
</g>
<!-- serviceunittype to error association&#45;&gt;id -->
<g id="edge4" class="edge">
<title>serviceunittype to error association&#45;&gt;id</title>
<path fill="none" stroke="blue" d="M1652.22,-261.88C1518.35,-258.54 1329.07,-250.11 1164.39,-229 1091.94,-219.71 1073.77,-215.57 1003.39,-196 1000.29,-195.14 997.09,-194.17 993.89,-193.15"/>
<polygon fill="blue" stroke="blue" points="994.97,-189.83 984.38,-189.99 992.76,-196.47 994.97,-189.83"/>
<text text-anchor="middle" x="1171.39" y="-217.8" font-family="Times,serif" font-size="14.00">id</text>
</g>
<!-- iri -->
<g id="node6" class="node">
<title>iri</title>
<ellipse fill="none" stroke="blue" cx="1056.39" cy="-178" rx="44.39" ry="18"/>
<text text-anchor="middle" x="1056.39" y="-174.3" font-family="Times,serif" font-size="14.00">iri type</text>
</g>
<!-- serviceunittype to error association&#45;&gt;iri -->
<g id="edge5" class="edge">
<title>serviceunittype to error association&#45;&gt;iri</title>
<path fill="none" stroke="blue" d="M1656.99,-259.79C1545.59,-255.46 1396.83,-246.69 1266.39,-229 1195.74,-219.42 1178.32,-214.25 1109.39,-196 1106.02,-195.11 1102.55,-194.13 1099.07,-193.11"/>
<polygon fill="blue" stroke="blue" points="1099.9,-189.7 1089.32,-190.14 1097.87,-196.4 1099.9,-189.7"/>
<text text-anchor="middle" x="1274.39" y="-217.8" font-family="Times,serif" font-size="14.00">iri</text>
</g>
<!-- name -->
<g id="node7" class="node">
<title>name</title>
<ellipse fill="none" stroke="blue" cx="1175.39" cy="-178" rx="56.59" ry="18"/>
<text text-anchor="middle" x="1175.39" y="-174.3" font-family="Times,serif" font-size="14.00">label type</text>
</g>
<!-- serviceunittype to error association&#45;&gt;name -->
<g id="edge6" class="edge">
<title>serviceunittype to error association&#45;&gt;name</title>
<path fill="none" stroke="blue" d="M1656.09,-260.14C1564.35,-255.9 1449.55,-247.12 1348.39,-229 1304.56,-221.15 1255.95,-206.56 1221.44,-195.15"/>
<polygon fill="blue" stroke="blue" points="1222.25,-191.73 1211.66,-191.88 1220.03,-198.37 1222.25,-191.73"/>
<text text-anchor="middle" x="1368.39" y="-217.8" font-family="Times,serif" font-size="14.00">name</text>
</g>
<!-- description -->
<g id="node8" class="node">
<title>description</title>
<ellipse fill="none" stroke="blue" cx="1325.39" cy="-178" rx="75.29" ry="18"/>
<text text-anchor="middle" x="1325.39" y="-174.3" font-family="Times,serif" font-size="14.00">narrative text</text>
</g>
<!-- serviceunittype to error association&#45;&gt;description -->
<g id="edge7" class="edge">
<title>serviceunittype to error association&#45;&gt;description</title>
<path fill="none" stroke="blue" d="M1672.96,-256.04C1581.61,-250.2 1475.05,-241.18 1430.39,-229 1406.18,-222.4 1380.72,-210.41 1360.94,-199.84"/>
<polygon fill="blue" stroke="blue" points="1362.45,-196.67 1352,-194.94 1359.09,-202.81 1362.45,-196.67"/>
<text text-anchor="middle" x="1470.89" y="-217.8" font-family="Times,serif" font-size="14.00">description</text>
</g>
<!-- source -->
<g id="node9" class="node">
<title>source</title>
<ellipse fill="none" stroke="blue" cx="1475.39" cy="-178" rx="56.59" ry="18"/>
<text text-anchor="middle" x="1475.39" y="-174.3" font-family="Times,serif" font-size="14.00">label type</text>
</g>
<!-- serviceunittype to error association&#45;&gt;source -->
<g id="edge8" class="edge">
<title>serviceunittype to error association&#45;&gt;source</title>
<path fill="none" stroke="blue" d="M1687.05,-253.88C1628.22,-248.18 1567.19,-239.97 1540.39,-229 1525.19,-222.77 1510.49,-212 1498.93,-202.05"/>
<polygon fill="blue" stroke="blue" points="1501.24,-199.42 1491.45,-195.36 1496.57,-204.64 1501.24,-199.42"/>
<text text-anchor="middle" x="1564.39" y="-217.8" font-family="Times,serif" font-size="14.00">source</text>
</g>
<!-- provided by -->
<g id="node10" class="node">
<title>provided by</title>
<ellipse fill="none" stroke="blue" cx="1587.39" cy="-178" rx="37.09" ry="18"/>
<text text-anchor="middle" x="1587.39" y="-174.3" font-family="Times,serif" font-size="14.00">agent</text>
</g>
<!-- serviceunittype to error association&#45;&gt;provided by -->
<g id="edge9" class="edge">
<title>serviceunittype to error association&#45;&gt;provided by</title>
<path fill="none" stroke="blue" d="M1684.73,-254.22C1648.06,-249.03 1615.03,-241.11 1601.39,-229 1594.88,-223.21 1591.29,-214.67 1589.34,-206.27"/>
<polygon fill="blue" stroke="blue" points="1592.78,-205.59 1587.7,-196.29 1585.87,-206.73 1592.78,-205.59"/>
<text text-anchor="middle" x="1643.89" y="-217.8" font-family="Times,serif" font-size="14.00">provided by</text>
</g>
<!-- has attribute -->
<g id="node11" class="node">
<title>has attribute</title>
<ellipse fill="none" stroke="blue" cx="1694.39" cy="-178" rx="51.99" ry="18"/>
<text text-anchor="middle" x="1694.39" y="-174.3" font-family="Times,serif" font-size="14.00">attribute</text>
</g>
<!-- serviceunittype to error association&#45;&gt;has attribute -->
<g id="edge10" class="edge">
<title>serviceunittype to error association&#45;&gt;has attribute</title>
<path fill="none" stroke="blue" d="M1740.14,-249.27C1719.66,-243.99 1701.86,-237.24 1695.39,-229 1690.4,-222.63 1688.91,-214.28 1689.04,-206.23"/>
<polygon fill="blue" stroke="blue" points="1692.55,-206.28 1689.97,-196.01 1685.57,-205.65 1692.55,-206.28"/>
<text text-anchor="middle" x="1742.39" y="-217.8" font-family="Times,serif" font-size="14.00">has attribute</text>
</g>
<!-- relation -->
<g id="node12" class="node">
<title>relation</title>
<ellipse fill="none" stroke="blue" cx="2449.39" cy="-18" rx="57.39" ry="18"/>
<text text-anchor="middle" x="2449.39" y="-14.3" font-family="Times,serif" font-size="14.00">uriorcurie</text>
</g>
<!-- serviceunittype to error association&#45;&gt;relation -->
<g id="edge11" class="edge">
<title>serviceunittype to error association&#45;&gt;relation</title>
<path fill="none" stroke="blue" d="M1812.03,-246.72C1795.37,-224.47 1772.68,-185.64 1793.39,-160 1867.28,-68.54 2232.53,-33.65 2383.7,-22.98"/>
<polygon fill="blue" stroke="blue" points="2384.04,-26.46 2393.78,-22.28 2383.56,-19.48 2384.04,-26.46"/>
<text text-anchor="middle" x="1863.39" y="-130.8" font-family="Times,serif" font-size="14.00">relation</text>
</g>
<!-- negated -->
<g id="node13" class="node">
<title>negated</title>
<ellipse fill="none" stroke="blue" cx="1849.39" cy="-178" rx="46.59" ry="18"/>
<text text-anchor="middle" x="1849.39" y="-174.3" font-family="Times,serif" font-size="14.00">boolean</text>
</g>
<!-- serviceunittype to error association&#45;&gt;negated -->
<g id="edge12" class="edge">
<title>serviceunittype to error association&#45;&gt;negated</title>
<path fill="none" stroke="blue" d="M1831.05,-246.8C1834.23,-235.05 1838.51,-219.24 1842.13,-205.84"/>
<polygon fill="blue" stroke="blue" points="1845.51,-206.74 1844.75,-196.18 1838.76,-204.91 1845.51,-206.74"/>
<text text-anchor="middle" x="1868.39" y="-217.8" font-family="Times,serif" font-size="14.00">negated</text>
</g>
<!-- qualifiers -->
<g id="node14" class="node">
<title>qualifiers</title>
<ellipse fill="none" stroke="blue" cx="1990.39" cy="-178" rx="76.89" ry="18"/>
<text text-anchor="middle" x="1990.39" y="-174.3" font-family="Times,serif" font-size="14.00">ontology class</text>
</g>
<!-- serviceunittype to error association&#45;&gt;qualifiers -->
<g id="edge13" class="edge">
<title>serviceunittype to error association&#45;&gt;qualifiers</title>
<path fill="none" stroke="blue" d="M1863.67,-247.28C1875.79,-241.66 1889.25,-235.23 1901.39,-229 1919.06,-219.93 1938.3,-209.23 1954.36,-200.05"/>
<polygon fill="blue" stroke="blue" points="1956.49,-202.87 1963.42,-194.85 1953,-196.8 1956.49,-202.87"/>
<text text-anchor="middle" x="1962.89" y="-217.8" font-family="Times,serif" font-size="14.00">qualifiers</text>
</g>
<!-- publications -->
<g id="node15" class="node">
<title>publications</title>
<ellipse fill="none" stroke="blue" cx="2147.39" cy="-178" rx="62.29" ry="18"/>
<text text-anchor="middle" x="2147.39" y="-174.3" font-family="Times,serif" font-size="14.00">publication</text>
</g>
<!-- serviceunittype to error association&#45;&gt;publications -->
<g id="edge14" class="edge">
<title>serviceunittype to error association&#45;&gt;publications</title>
<path fill="none" stroke="blue" d="M1911.43,-249.18C1939.89,-243.61 1971.68,-236.74 2000.39,-229 2034.74,-219.75 2072.73,-206.75 2101.48,-196.33"/>
<polygon fill="blue" stroke="blue" points="2103.06,-199.48 2111.25,-192.76 2100.66,-192.9 2103.06,-199.48"/>
<text text-anchor="middle" x="2094.39" y="-217.8" font-family="Times,serif" font-size="14.00">publications</text>
</g>
<!-- type -->
<g id="node16" class="node">
<title>type</title>
<ellipse fill="none" stroke="black" cx="2259.39" cy="-178" rx="31.4" ry="18"/>
<text text-anchor="middle" x="2259.39" y="-174.3" font-family="Times,serif" font-size="14.00">type</text>
</g>
<!-- serviceunittype to error association&#45;&gt;type -->
<g id="edge15" class="edge">
<title>serviceunittype to error association&#45;&gt;type</title>
<path fill="none" stroke="blue" d="M1949.87,-252.07C2030.29,-243.99 2123.64,-233.93 2142.39,-229 2172.62,-221.05 2205.18,-206.61 2228.26,-195.29"/>
<polygon fill="blue" stroke="blue" points="2229.84,-198.41 2237.23,-190.81 2226.72,-192.15 2229.84,-198.41"/>
<text text-anchor="middle" x="2201.39" y="-217.8" font-family="Times,serif" font-size="14.00">type</text>
</g>
<!-- category -->
<g id="node18" class="node">
<title>category</title>
<ellipse fill="none" stroke="black" cx="2360.39" cy="-178" rx="51.19" ry="18"/>
<text text-anchor="middle" x="2360.39" y="-174.3" font-family="Times,serif" font-size="14.00">category</text>
</g>
<!-- serviceunittype to error association&#45;&gt;category -->
<g id="edge16" class="edge">
<title>serviceunittype to error association&#45;&gt;category</title>
<path fill="none" stroke="blue" d="M1952.7,-252.37C1972.67,-250.55 1993.1,-248.71 2012.39,-247 2105.26,-238.76 2130.32,-248.95 2221.39,-229 2255.79,-221.47 2293.28,-207.63 2320.65,-196.42"/>
<polygon fill="blue" stroke="blue" points="2321.99,-199.65 2329.88,-192.58 2319.31,-193.19 2321.99,-199.65"/>
<text text-anchor="middle" x="2303.89" y="-217.8" font-family="Times,serif" font-size="14.00">category</text>
</g>
<!-- subject -->
<g id="node20" class="node">
<title>subject</title>
<ellipse fill="none" stroke="black" cx="2474.39" cy="-178" rx="44.39" ry="18"/>
<text text-anchor="middle" x="2474.39" y="-174.3" font-family="Times,serif" font-size="14.00">subject</text>
</g>
<!-- serviceunittype to error association&#45;&gt;subject -->
<g id="edge17" class="edge">
<title>serviceunittype to error association&#45;&gt;subject</title>
<path fill="none" stroke="blue" d="M1949.91,-252.08C1970.75,-250.25 1992.18,-248.48 2012.39,-247 2157.56,-236.37 2196.88,-258.61 2339.39,-229 2373.61,-221.89 2410.73,-207.63 2437.36,-196.15"/>
<polygon fill="blue" stroke="blue" points="2438.93,-199.29 2446.68,-192.07 2436.11,-192.88 2438.93,-199.29"/>
<text text-anchor="middle" x="2415.39" y="-217.8" font-family="Times,serif" font-size="14.00">subject</text>
</g>
<!-- predicate -->
<g id="node22" class="node">
<title>predicate</title>
<ellipse fill="none" stroke="black" cx="2591.39" cy="-178" rx="54.69" ry="18"/>
<text text-anchor="middle" x="2591.39" y="-174.3" font-family="Times,serif" font-size="14.00">predicate</text>
</g>
<!-- serviceunittype to error association&#45;&gt;predicate -->
<g id="edge18" class="edge">
<title>serviceunittype to error association&#45;&gt;predicate</title>
<path fill="none" stroke="blue" d="M1948.64,-251.96C1969.88,-250.11 1991.77,-248.37 2012.39,-247 2108.49,-240.62 2350.75,-246.79 2445.39,-229 2481.94,-222.13 2521.78,-208.01 2550.6,-196.52"/>
<polygon fill="blue" stroke="blue" points="2551.97,-199.74 2559.93,-192.74 2549.34,-193.25 2551.97,-199.74"/>
<text text-anchor="middle" x="2533.39" y="-217.8" font-family="Times,serif" font-size="14.00">predicate</text>
</g>
<!-- object -->
<g id="node24" class="node">
<title>object</title>
<ellipse fill="none" stroke="black" cx="2516.39" cy="-91" rx="38.99" ry="18"/>
<text text-anchor="middle" x="2516.39" y="-87.3" font-family="Times,serif" font-size="14.00">object</text>
</g>
<!-- serviceunittype to error association&#45;&gt;object -->
<g id="edge19" class="edge">
<title>serviceunittype to error association&#45;&gt;object</title>
<path fill="none" stroke="blue" d="M1947.88,-251.86C1969.36,-250.01 1991.52,-248.29 2012.39,-247 2136.44,-239.34 2449.67,-254.09 2571.39,-229 2610.68,-220.9 2632.8,-229.15 2655.39,-196 2684.91,-152.69 2610.18,-120.23 2559.22,-103.86"/>
<polygon fill="blue" stroke="blue" points="2559.97,-100.43 2549.38,-100.81 2557.89,-107.12 2559.97,-100.43"/>
<text text-anchor="middle" x="2684.39" y="-174.3" font-family="Times,serif" font-size="14.00">object</text>
</g>
<!-- frequency qualifier -->
<g id="node26" class="node">
<title>frequency qualifier</title>
<ellipse fill="none" stroke="blue" cx="2829.39" cy="-178" rx="85.29" ry="18"/>
<text text-anchor="middle" x="2829.39" y="-174.3" font-family="Times,serif" font-size="14.00">frequency value</text>
</g>
<!-- serviceunittype to error association&#45;&gt;frequency qualifier -->
<g id="edge20" class="edge">
<title>serviceunittype to error association&#45;&gt;frequency qualifier</title>
<path fill="none" stroke="blue" d="M1947.37,-251.8C1969.01,-249.94 1991.35,-248.24 2012.39,-247 2164.18,-238.08 2547.16,-258.16 2696.39,-229 2727.95,-222.83 2761.85,-209.98 2787.53,-198.86"/>
<polygon fill="blue" stroke="blue" points="2789.22,-201.94 2796.95,-194.69 2786.39,-195.54 2789.22,-201.94"/>
<text text-anchor="middle" x="2817.39" y="-217.8" font-family="Times,serif" font-size="14.00">frequency qualifier</text>
</g>
<!-- severity qualifier -->
<g id="node27" class="node">
<title>severity qualifier</title>
<ellipse fill="none" stroke="blue" cx="3008.39" cy="-178" rx="76.09" ry="18"/>
<text text-anchor="middle" x="3008.39" y="-174.3" font-family="Times,serif" font-size="14.00">severity value</text>
</g>
<!-- serviceunittype to error association&#45;&gt;severity qualifier -->
<g id="edge21" class="edge">
<title>serviceunittype to error association&#45;&gt;severity qualifier</title>
<path fill="none" stroke="blue" d="M1946.87,-251.74C1968.66,-249.88 1991.19,-248.19 2012.39,-247 2109.71,-241.56 2794.05,-249.24 2889.39,-229 2917.72,-222.99 2947.76,-210.31 2970.58,-199.22"/>
<polygon fill="blue" stroke="blue" points="2972.17,-202.34 2979.57,-194.75 2969.06,-196.07 2972.17,-202.34"/>
<text text-anchor="middle" x="2998.39" y="-217.8" font-family="Times,serif" font-size="14.00">severity qualifier</text>
</g>
<!-- onset qualifier -->
<g id="node28" class="node">
<title>onset qualifier</title>
<ellipse fill="none" stroke="blue" cx="3145.39" cy="-178" rx="36.29" ry="18"/>
<text text-anchor="middle" x="3145.39" y="-174.3" font-family="Times,serif" font-size="14.00">onset</text>
</g>
<!-- serviceunittype to error association&#45;&gt;onset qualifier -->
<g id="edge22" class="edge">
<title>serviceunittype to error association&#45;&gt;onset qualifier</title>
<path fill="none" stroke="blue" d="M1946.37,-251.72C1968.31,-249.85 1991.02,-248.16 2012.39,-247 2070.71,-243.84 3007.31,-245.27 3063.39,-229 3083.61,-223.14 3103.82,-210.9 3119.13,-200"/>
<polygon fill="blue" stroke="blue" points="3121.56,-202.55 3127.53,-193.79 3117.41,-196.92 3121.56,-202.55"/>
<text text-anchor="middle" x="3147.89" y="-217.8" font-family="Times,serif" font-size="14.00">onset qualifier</text>
</g>
<!-- association_type -->
<g id="node17" class="node">
<title>association_type</title>
<ellipse fill="none" stroke="blue" cx="2059.39" cy="-265" rx="38.19" ry="18"/>
<text text-anchor="middle" x="2059.39" y="-261.3" font-family="Times,serif" font-size="14.00">string</text>
</g>
<!-- association_category -->
<g id="node19" class="node">
<title>association_category</title>
<ellipse fill="none" stroke="blue" cx="2178.39" cy="-265" rx="62.29" ry="18"/>
<text text-anchor="middle" x="2178.39" y="-261.3" font-family="Times,serif" font-size="14.00">association</text>
</g>
<!-- subject&#45;&gt;relation -->
<g id="edge24" class="edge">
<title>subject&#45;&gt;relation</title>
<path fill="none" stroke="black" stroke-dasharray="1,5" d="M2471.67,-159.79C2467.35,-132.48 2458.89,-78.99 2453.73,-46.38"/>
<polygon fill="black" stroke="black" points="2457.13,-45.52 2452.11,-36.19 2450.22,-46.61 2457.13,-45.52"/>
</g>
<!-- subject&#45;&gt;object -->
<g id="edge23" class="edge">
<title>subject&#45;&gt;object</title>
<path fill="none" stroke="black" d="M2482.69,-160.21C2488.67,-148.1 2496.86,-131.53 2503.67,-117.76"/>
<polygon fill="black" stroke="black" points="2506.82,-119.27 2508.11,-108.76 2500.55,-116.17 2506.82,-119.27"/>
<text text-anchor="middle" x="2526.39" y="-130.8" font-family="Times,serif" font-size="14.00">relation</text>
</g>
<!-- serviceunittype to error association_subject -->
<g id="node21" class="node">
<title>serviceunittype to error association_subject</title>
<ellipse fill="none" stroke="blue" cx="2328.39" cy="-265" rx="69.59" ry="18"/>
<text text-anchor="middle" x="2328.39" y="-261.3" font-family="Times,serif" font-size="14.00">named thing</text>
</g>
<!-- serviceunittype to error association_predicate -->
<g id="node23" class="node">
<title>serviceunittype to error association_predicate</title>
<ellipse fill="none" stroke="blue" cx="2494.39" cy="-265" rx="77.99" ry="18"/>
<text text-anchor="middle" x="2494.39" y="-261.3" font-family="Times,serif" font-size="14.00">predicate type</text>
</g>
<!-- object&#45;&gt;relation -->
<g id="edge25" class="edge">
<title>object&#45;&gt;relation</title>
<path fill="none" stroke="black" stroke-dasharray="1,5" d="M2501.52,-74.24C2492.92,-65.13 2481.92,-53.47 2472.24,-43.21"/>
<polygon fill="black" stroke="black" points="2474.56,-40.57 2465.16,-35.7 2469.47,-45.38 2474.56,-40.57"/>
</g>
<!-- serviceunittype to error association_object -->
<g id="node25" class="node">
<title>serviceunittype to error association_object</title>
<ellipse fill="none" stroke="blue" cx="2660.39" cy="-265" rx="69.59" ry="18"/>
<text text-anchor="middle" x="2660.39" y="-261.3" font-family="Times,serif" font-size="14.00">named thing</text>
</g>
</g>
</svg>
