<?xml version="1.0" encoding="UTF-8" standalone="no"?>
<!DOCTYPE svg PUBLIC "-//W3C//DTD SVG 1.1//EN"
 "http://www.w3.org/Graphics/SVG/1.1/DTD/svg11.dtd">
<!-- Generated by graphviz version 2.43.0 (0)
 -->
<!-- Title: %3 Pages: 1 -->
<svg width="2183pt" height="131pt"
 viewBox="0.00 0.00 2183.39 131.00" xmlns="http://www.w3.org/2000/svg" xmlns:xlink="http://www.w3.org/1999/xlink">
<g id="graph0" class="graph" transform="scale(1 1) rotate(0) translate(4 127)">
<title>%3</title>
<polygon fill="white" stroke="transparent" points="-4,4 -4,-127 2179.39,-127 2179.39,4 -4,4"/>
<!-- serviceinstance isoform -->
<g id="node1" class="node">
<title>serviceinstance isoform</title>
<ellipse fill="none" stroke="black" cx="1118.19" cy="-105" rx="120.78" ry="18"/>
<text text-anchor="middle" x="1118.19" y="-101.3" font-family="Times,serif" font-size="14.00">serviceinstance isoform</text>
</g>
<!-- serviceinstance -->
<g id="node2" class="node">
<title>serviceinstance</title>
<ellipse fill="none" stroke="black" cx="83.19" cy="-18" rx="83.39" ry="18"/>
<text text-anchor="middle" x="83.19" y="-14.3" font-family="Times,serif" font-size="14.00">serviceinstance</text>
</g>
<!-- serviceinstance isoform&#45;&gt;serviceinstance -->
<g id="edge1" class="edge">
<title>serviceinstance isoform&#45;&gt;serviceinstance</title>
<path fill="none" stroke="black" d="M999.56,-101.36C820.17,-96.04 469.57,-80.43 175.19,-36 167.93,-34.9 160.37,-33.67 152.84,-32.37"/>
<polygon fill="black" stroke="black" points="153.43,-28.92 142.98,-30.64 152.22,-35.81 153.43,-28.92"/>
<text text-anchor="middle" x="447.19" y="-57.8" font-family="Times,serif" font-size="14.00">is_a</text>
</g>
<!-- servicetype isoform mixin -->
<g id="node3" class="node">
<title>servicetype isoform mixin</title>
<ellipse fill="none" stroke="black" cx="315.19" cy="-18" rx="131.08" ry="18"/>
<text text-anchor="middle" x="315.19" y="-14.3" font-family="Times,serif" font-size="14.00">servicetype isoform mixin</text>
</g>
<!-- serviceinstance isoform&#45;&gt;servicetype isoform mixin -->
<g id="edge2" class="edge">
<title>serviceinstance isoform&#45;&gt;servicetype isoform mixin</title>
<path fill="none" stroke="black" d="M1001.41,-100.32C892.97,-95.97 727.2,-86.91 584.19,-69 518.77,-60.81 445.21,-46.8 391.57,-35.69"/>
<polygon fill="black" stroke="black" points="391.96,-32.2 381.46,-33.58 390.53,-39.05 391.96,-32.2"/>
<text text-anchor="middle" x="600.69" y="-57.8" font-family="Times,serif" font-size="14.00">uses</text>
</g>
<!-- id -->
<g id="node4" class="node">
<title>id</title>
<ellipse fill="none" stroke="blue" cx="503.19" cy="-18" rx="38.19" ry="18"/>
<text text-anchor="middle" x="503.19" y="-14.3" font-family="Times,serif" font-size="14.00">string</text>
</g>
<!-- serviceinstance isoform&#45;&gt;id -->
<g id="edge3" class="edge">
<title>serviceinstance isoform&#45;&gt;id</title>
<path fill="none" stroke="blue" d="M1006.12,-98.2C923.24,-93.01 807.79,-83.87 707.19,-69 637.09,-58.64 619.41,-55.2 551.19,-36 548.09,-35.13 544.89,-34.15 541.69,-33.13"/>
<polygon fill="blue" stroke="blue" points="542.78,-29.81 532.19,-29.96 540.56,-36.45 542.78,-29.81"/>
<text text-anchor="middle" x="714.19" y="-57.8" font-family="Times,serif" font-size="14.00">id</text>
</g>
<!-- iri -->
<g id="node5" class="node">
<title>iri</title>
<ellipse fill="none" stroke="blue" cx="604.19" cy="-18" rx="44.39" ry="18"/>
<text text-anchor="middle" x="604.19" y="-14.3" font-family="Times,serif" font-size="14.00">iri type</text>
</g>
<!-- serviceinstance isoform&#45;&gt;iri -->
<g id="edge4" class="edge">
<title>serviceinstance isoform&#45;&gt;iri</title>
<path fill="none" stroke="blue" d="M1013.65,-95.91C950.66,-90.22 869.01,-81.39 797.19,-69 734.62,-58.2 719.4,-52.88 658.19,-36 654.62,-35.01 650.93,-33.95 647.23,-32.85"/>
<polygon fill="blue" stroke="blue" points="648.08,-29.45 637.5,-29.9 646.05,-36.15 648.08,-29.45"/>
<text text-anchor="middle" x="805.19" y="-57.8" font-family="Times,serif" font-size="14.00">iri</text>
</g>
<!-- type -->
<g id="node6" class="node">
<title>type</title>
<ellipse fill="none" stroke="blue" cx="705.19" cy="-18" rx="38.19" ry="18"/>
<text text-anchor="middle" x="705.19" y="-14.3" font-family="Times,serif" font-size="14.00">string</text>
</g>
<!-- serviceinstance isoform&#45;&gt;type -->
<g id="edge5" class="edge">
<title>serviceinstance isoform&#45;&gt;type</title>
<path fill="none" stroke="blue" d="M1030.01,-92.64C986.54,-86.54 933.44,-78.36 886.19,-69 826.03,-57.08 810.89,-53.79 752.19,-36 749.43,-35.16 746.59,-34.26 743.74,-33.31"/>
<polygon fill="blue" stroke="blue" points="744.71,-29.94 734.12,-30 742.43,-36.56 744.71,-29.94"/>
<text text-anchor="middle" x="902.19" y="-57.8" font-family="Times,serif" font-size="14.00">type</text>
</g>
<!-- name -->
<g id="node7" class="node">
<title>name</title>
<ellipse fill="none" stroke="blue" cx="818.19" cy="-18" rx="56.59" ry="18"/>
<text text-anchor="middle" x="818.19" y="-14.3" font-family="Times,serif" font-size="14.00">label type</text>
</g>
<!-- serviceinstance isoform&#45;&gt;name -->
<g id="edge6" class="edge">
<title>serviceinstance isoform&#45;&gt;name</title>
<path fill="none" stroke="blue" d="M1051.31,-89.95C1024.96,-84.03 994.51,-76.73 967.19,-69 932.05,-59.05 892.91,-45.84 863.58,-35.49"/>
<polygon fill="blue" stroke="blue" points="864.62,-32.15 854.02,-32.1 862.27,-38.74 864.62,-32.15"/>
<text text-anchor="middle" x="987.19" y="-57.8" font-family="Times,serif" font-size="14.00">name</text>
</g>
<!-- description -->
<g id="node8" class="node">
<title>description</title>
<ellipse fill="none" stroke="blue" cx="968.19" cy="-18" rx="75.29" ry="18"/>
<text text-anchor="middle" x="968.19" y="-14.3" font-family="Times,serif" font-size="14.00">narrative text</text>
</g>
<!-- serviceinstance isoform&#45;&gt;description -->
<g id="edge7" class="edge">
<title>serviceinstance isoform&#45;&gt;description</title>
<path fill="none" stroke="blue" d="M1073.46,-88.17C1060.15,-82.78 1045.77,-76.26 1033.19,-69 1019.8,-61.27 1006.06,-51.1 994.69,-41.95"/>
<polygon fill="blue" stroke="blue" points="996.82,-39.16 986.87,-35.52 992.37,-44.57 996.82,-39.16"/>
<text text-anchor="middle" x="1073.69" y="-57.8" font-family="Times,serif" font-size="14.00">description</text>
</g>
<!-- source -->
<g id="node9" class="node">
<title>source</title>
<ellipse fill="none" stroke="blue" cx="1118.19" cy="-18" rx="56.59" ry="18"/>
<text text-anchor="middle" x="1118.19" y="-14.3" font-family="Times,serif" font-size="14.00">label type</text>
</g>
<!-- serviceinstance isoform&#45;&gt;source -->
<g id="edge8" class="edge">
<title>serviceinstance isoform&#45;&gt;source</title>
<path fill="none" stroke="blue" d="M1118.19,-86.8C1118.19,-75.16 1118.19,-59.55 1118.19,-46.24"/>
<polygon fill="blue" stroke="blue" points="1121.69,-46.18 1118.19,-36.18 1114.69,-46.18 1121.69,-46.18"/>
<text text-anchor="middle" x="1142.19" y="-57.8" font-family="Times,serif" font-size="14.00">source</text>
</g>
<!-- provided by -->
<g id="node10" class="node">
<title>provided by</title>
<ellipse fill="none" stroke="blue" cx="1230.19" cy="-18" rx="37.09" ry="18"/>
<text text-anchor="middle" x="1230.19" y="-14.3" font-family="Times,serif" font-size="14.00">agent</text>
</g>
<!-- serviceinstance isoform&#45;&gt;provided by -->
<g id="edge9" class="edge">
<title>serviceinstance isoform&#45;&gt;provided by</title>
<path fill="none" stroke="blue" d="M1144.21,-87.24C1152.63,-81.62 1161.92,-75.2 1170.19,-69 1182.03,-60.12 1194.69,-49.72 1205.31,-40.71"/>
<polygon fill="blue" stroke="blue" points="1207.66,-43.3 1212.98,-34.14 1203.11,-37.98 1207.66,-43.3"/>
<text text-anchor="middle" x="1231.69" y="-57.8" font-family="Times,serif" font-size="14.00">provided by</text>
</g>
<!-- has attribute -->
<g id="node11" class="node">
<title>has attribute</title>
<ellipse fill="none" stroke="blue" cx="1337.19" cy="-18" rx="51.99" ry="18"/>
<text text-anchor="middle" x="1337.19" y="-14.3" font-family="Times,serif" font-size="14.00">attribute</text>
</g>
<!-- serviceinstance isoform&#45;&gt;has attribute -->
<g id="edge10" class="edge">
<title>serviceinstance isoform&#45;&gt;has attribute</title>
<path fill="none" stroke="blue" d="M1206.74,-92.62C1230.73,-87.43 1256.14,-79.9 1278.19,-69 1291.62,-62.36 1304.55,-52.01 1314.86,-42.45"/>
<polygon fill="blue" stroke="blue" points="1317.44,-44.83 1322.21,-35.36 1312.58,-39.79 1317.44,-44.83"/>
<text text-anchor="middle" x="1349.19" y="-57.8" font-family="Times,serif" font-size="14.00">has attribute</text>
</g>
<!-- category -->
<g id="node12" class="node">
<title>category</title>
<ellipse fill="none" stroke="black" cx="1458.19" cy="-18" rx="51.19" ry="18"/>
<text text-anchor="middle" x="1458.19" y="-14.3" font-family="Times,serif" font-size="14.00">category</text>
</g>
<!-- serviceinstance isoform&#45;&gt;category -->
<g id="edge11" class="edge">
<title>serviceinstance isoform&#45;&gt;category</title>
<path fill="none" stroke="blue" d="M1204.91,-92.4C1219.04,-90.56 1233.52,-88.71 1247.19,-87 1315.14,-78.53 1337.52,-96.56 1400.19,-69 1413.96,-62.94 1426.89,-52.47 1437.03,-42.67"/>
<polygon fill="blue" stroke="blue" points="1439.68,-44.97 1444.21,-35.39 1434.7,-40.06 1439.68,-44.97"/>
<text text-anchor="middle" x="1455.69" y="-57.8" font-family="Times,serif" font-size="14.00">category</text>
</g>
<!-- in taxon -->
<g id="node14" class="node">
<title>in taxon</title>
<ellipse fill="none" stroke="blue" cx="1600.19" cy="-18" rx="72.59" ry="18"/>
<text text-anchor="middle" x="1600.19" y="-14.3" font-family="Times,serif" font-size="14.00">system taxon</text>
</g>
<!-- serviceinstance isoform&#45;&gt;in taxon -->
<g id="edge12" class="edge">
<title>serviceinstance isoform&#45;&gt;in taxon</title>
<path fill="none" stroke="blue" d="M1203.11,-92.1C1217.8,-90.25 1232.92,-88.47 1247.19,-87 1355.36,-75.89 1385.88,-96.1 1491.19,-69 1516.55,-62.48 1543.29,-50.3 1563.94,-39.59"/>
<polygon fill="blue" stroke="blue" points="1565.78,-42.58 1572.98,-34.81 1562.5,-36.4 1565.78,-42.58"/>
<text text-anchor="middle" x="1561.19" y="-57.8" font-family="Times,serif" font-size="14.00">in taxon</text>
</g>
<!-- has computational sequence -->
<g id="node15" class="node">
<title>has computational sequence</title>
<ellipse fill="none" stroke="blue" cx="1814.19" cy="-18" rx="123.48" ry="18"/>
<text text-anchor="middle" x="1814.19" y="-14.3" font-family="Times,serif" font-size="14.00">computational sequence</text>
</g>
<!-- serviceinstance isoform&#45;&gt;has computational sequence -->
<g id="edge13" class="edge">
<title>serviceinstance isoform&#45;&gt;has computational sequence</title>
<path fill="none" stroke="blue" d="M1202.05,-91.97C1217.06,-90.1 1232.57,-88.34 1247.19,-87 1400.98,-72.9 1441.22,-90.19 1594.19,-69 1647.1,-61.67 1706.08,-47.96 1749.64,-36.75"/>
<polygon fill="blue" stroke="blue" points="1750.73,-40.08 1759.52,-34.18 1748.96,-33.31 1750.73,-40.08"/>
<text text-anchor="middle" x="1775.69" y="-57.8" font-family="Times,serif" font-size="14.00">has computational sequence</text>
</g>
<!-- synonym -->
<g id="node16" class="node">
<title>synonym</title>
<ellipse fill="none" stroke="blue" cx="2012.19" cy="-18" rx="56.59" ry="18"/>
<text text-anchor="middle" x="2012.19" y="-14.3" font-family="Times,serif" font-size="14.00">label type</text>
</g>
<!-- serviceinstance isoform&#45;&gt;synonym -->
<g id="edge14" class="edge">
<title>serviceinstance isoform&#45;&gt;synonym</title>
<path fill="none" stroke="blue" d="M1200.99,-91.81C1216.32,-89.92 1232.22,-88.2 1247.19,-87 1387.69,-75.78 1742.96,-96.52 1881.19,-69 1913.37,-62.59 1947.98,-49.07 1973.54,-37.71"/>
<polygon fill="blue" stroke="blue" points="1975.21,-40.79 1982.87,-33.47 1972.31,-34.42 1975.21,-40.79"/>
<text text-anchor="middle" x="1965.19" y="-57.8" font-family="Times,serif" font-size="14.00">synonym</text>
</g>
<!-- xref -->
<g id="node17" class="node">
<title>xref</title>
<ellipse fill="none" stroke="blue" cx="2131.19" cy="-18" rx="44.39" ry="18"/>
<text text-anchor="middle" x="2131.19" y="-14.3" font-family="Times,serif" font-size="14.00">iri type</text>
</g>
<!-- serviceinstance isoform&#45;&gt;xref -->
<g id="edge15" class="edge">
<title>serviceinstance isoform&#45;&gt;xref</title>
<path fill="none" stroke="blue" d="M1200.64,-91.8C1216.08,-89.89 1232.1,-88.17 1247.19,-87 1414.29,-74.03 1836.78,-101.56 2001.19,-69 2034,-62.5 2069.31,-48.43 2094.84,-36.86"/>
<polygon fill="blue" stroke="blue" points="2096.51,-39.95 2104.12,-32.57 2093.57,-33.59 2096.51,-39.95"/>
<text text-anchor="middle" x="2066.69" y="-57.8" font-family="Times,serif" font-size="14.00">xref</text>
</g>
<!-- named thing_category -->
<g id="node13" class="node">
<title>named thing_category</title>
<ellipse fill="none" stroke="blue" cx="1326.19" cy="-105" rx="69.59" ry="18"/>
<text text-anchor="middle" x="1326.19" y="-101.3" font-family="Times,serif" font-size="14.00">named thing</text>
</g>
</g>
</svg>
