<?xml version="1.0" encoding="UTF-8" standalone="no"?>
<!DOCTYPE svg PUBLIC "-//W3C//DTD SVG 1.1//EN"
 "http://www.w3.org/Graphics/SVG/1.1/DTD/svg11.dtd">
<!-- Generated by graphviz version 2.43.0 (0)
 -->
<!-- Title: %3 Pages: 1 -->
<svg width="693pt" height="131pt"
 viewBox="0.00 0.00 693.03 131.00" xmlns="http://www.w3.org/2000/svg" xmlns:xlink="http://www.w3.org/1999/xlink">
<g id="graph0" class="graph" transform="scale(1 1) rotate(0) translate(4 127)">
<title>%3</title>
<polygon fill="white" stroke="transparent" points="-4,4 -4,-127 689.03,-127 689.03,4 -4,4"/>
<!-- servicetype mixin -->
<g id="node1" class="node">
<title>servicetype mixin</title>
<ellipse fill="none" stroke="black" cx="438.44" cy="-105" rx="92.88" ry="18"/>
<text text-anchor="middle" x="438.44" y="-101.3" font-family="Times,serif" font-size="14.00">servicetype mixin</text>
</g>
<!-- componentservice or servicetype -->
<g id="node2" class="node">
<title>componentservice or servicetype</title>
<ellipse fill="none" stroke="black" cx="164.44" cy="-18" rx="164.37" ry="18"/>
<text text-anchor="middle" x="164.44" y="-14.3" font-family="Times,serif" font-size="14.00">componentservice or servicetype</text>
</g>
<!-- servicetype mixin&#45;&gt;componentservice or servicetype -->
<g id="edge1" class="edge">
<title>servicetype mixin&#45;&gt;componentservice or servicetype</title>
<path fill="none" stroke="black" d="M391.33,-89.39C345.72,-75.24 276.29,-53.7 226.26,-38.18"/>
<polygon fill="black" stroke="black" points="227.11,-34.78 216.52,-35.16 225.03,-41.46 227.11,-34.78"/>
<text text-anchor="middle" x="332.44" y="-57.8" font-family="Times,serif" font-size="14.00">is_a</text>
</g>
<!-- name -->
<g id="node3" class="node">
<title>name</title>
<ellipse fill="none" stroke="black" cx="383.44" cy="-18" rx="36.29" ry="18"/>
<text text-anchor="middle" x="383.44" y="-14.3" font-family="Times,serif" font-size="14.00">name</text>
</g>
<!-- servicetype mixin&#45;&gt;name -->
<g id="edge2" class="edge">
<title>servicetype mixin&#45;&gt;name</title>
<path fill="none" stroke="blue" d="M427.31,-86.8C419.32,-74.46 408.45,-57.66 399.52,-43.86"/>
<polygon fill="blue" stroke="blue" points="402.36,-41.8 393.99,-35.31 396.48,-45.61 402.36,-41.8"/>
<text text-anchor="middle" x="434.44" y="-57.8" font-family="Times,serif" font-size="14.00">name</text>
</g>
<!-- synonym -->
<g id="node5" class="node">
<title>synonym</title>
<ellipse fill="none" stroke="blue" cx="494.44" cy="-18" rx="56.59" ry="18"/>
<text text-anchor="middle" x="494.44" y="-14.3" font-family="Times,serif" font-size="14.00">label type</text>
</g>
<!-- servicetype mixin&#45;&gt;synonym -->
<g id="edge3" class="edge">
<title>servicetype mixin&#45;&gt;synonym</title>
<path fill="none" stroke="blue" d="M449.77,-86.8C457.79,-74.62 468.68,-58.09 477.7,-44.4"/>
<polygon fill="blue" stroke="blue" points="480.73,-46.16 483.31,-35.89 474.89,-42.31 480.73,-46.16"/>
<text text-anchor="middle" x="502.44" y="-57.8" font-family="Times,serif" font-size="14.00">synonym</text>
</g>
<!-- xref -->
<g id="node6" class="node">
<title>xref</title>
<ellipse fill="none" stroke="blue" cx="613.44" cy="-18" rx="44.39" ry="18"/>
<text text-anchor="middle" x="613.44" y="-14.3" font-family="Times,serif" font-size="14.00">iri type</text>
</g>
<!-- servicetype mixin&#45;&gt;xref -->
<g id="edge4" class="edge">
<title>servicetype mixin&#45;&gt;xref</title>
<path fill="none" stroke="blue" d="M487.26,-89.65C503.87,-84.05 522.3,-77.04 538.44,-69 554.64,-60.93 571.51,-49.94 585.14,-40.32"/>
<polygon fill="blue" stroke="blue" points="587.51,-42.93 593.58,-34.25 583.42,-37.25 587.51,-42.93"/>
<text text-anchor="middle" x="577.94" y="-57.8" font-family="Times,serif" font-size="14.00">xref</text>
</g>
<!-- macrooperational machine mixin_name -->
<g id="node4" class="node">
<title>macrooperational machine mixin_name</title>
<ellipse fill="none" stroke="blue" cx="617.44" cy="-105" rx="67.69" ry="18"/>
<text text-anchor="middle" x="617.44" y="-101.3" font-family="Times,serif" font-size="14.00">symbol type</text>
</g>
</g>
</svg>
