<?xml version="1.0" encoding="UTF-8" standalone="no"?>
<!DOCTYPE svg PUBLIC "-//W3C//DTD SVG 1.1//EN"
 "http://www.w3.org/Graphics/SVG/1.1/DTD/svg11.dtd">
<!-- Generated by graphviz version 2.43.0 (0)
 -->
<!-- Title: %3 Pages: 1 -->
<svg width="1596pt" height="131pt"
 viewBox="0.00 0.00 1595.98 131.00" xmlns="http://www.w3.org/2000/svg" xmlns:xlink="http://www.w3.org/1999/xlink">
<g id="graph0" class="graph" transform="scale(1 1) rotate(0) translate(4 127)">
<title>%3</title>
<polygon fill="white" stroke="transparent" points="-4,4 -4,-127 1591.98,-127 1591.98,4 -4,4"/>
<!-- study population -->
<g id="node1" class="node">
<title>study population</title>
<ellipse fill="none" stroke="black" cx="844.19" cy="-105" rx="89.08" ry="18"/>
<text text-anchor="middle" x="844.19" y="-101.3" font-family="Times,serif" font-size="14.00">study population</text>
</g>
<!-- population of individual systems -->
<g id="node2" class="node">
<title>population of individual systems</title>
<ellipse fill="none" stroke="black" cx="161.19" cy="-18" rx="161.37" ry="18"/>
<text text-anchor="middle" x="161.19" y="-14.3" font-family="Times,serif" font-size="14.00">population of individual systems</text>
</g>
<!-- study population&#45;&gt;population of individual systems -->
<g id="edge1" class="edge">
<title>study population&#45;&gt;population of individual systems</title>
<path fill="none" stroke="black" d="M762.45,-97.78C687.37,-91.71 573.08,-81.56 474.19,-69 399.59,-59.52 315.45,-45.92 253.21,-35.29"/>
<polygon fill="black" stroke="black" points="253.47,-31.79 243.03,-33.55 252.29,-38.69 253.47,-31.79"/>
<text text-anchor="middle" x="488.19" y="-57.8" font-family="Times,serif" font-size="14.00">is_a</text>
</g>
<!-- id -->
<g id="node3" class="node">
<title>id</title>
<ellipse fill="none" stroke="blue" cx="379.19" cy="-18" rx="38.19" ry="18"/>
<text text-anchor="middle" x="379.19" y="-14.3" font-family="Times,serif" font-size="14.00">string</text>
</g>
<!-- study population&#45;&gt;id -->
<g id="edge2" class="edge">
<title>study population&#45;&gt;id</title>
<path fill="none" stroke="blue" d="M765.4,-96.57C680.68,-87.33 542.59,-68.65 427.19,-36 424.08,-35.12 420.89,-34.15 417.69,-33.12"/>
<polygon fill="blue" stroke="blue" points="418.78,-29.8 408.18,-29.95 416.56,-36.44 418.78,-29.8"/>
<text text-anchor="middle" x="570.19" y="-57.8" font-family="Times,serif" font-size="14.00">id</text>
</g>
<!-- iri -->
<g id="node4" class="node">
<title>iri</title>
<ellipse fill="none" stroke="blue" cx="480.19" cy="-18" rx="44.39" ry="18"/>
<text text-anchor="middle" x="480.19" y="-14.3" font-family="Times,serif" font-size="14.00">iri type</text>
</g>
<!-- study population&#45;&gt;iri -->
<g id="edge3" class="edge">
<title>study population&#45;&gt;iri</title>
<path fill="none" stroke="blue" d="M778.82,-92.69C743.56,-86.3 699.36,-77.84 660.19,-69 603.72,-56.25 589.81,-52.03 534.19,-36 530.67,-34.99 527.04,-33.91 523.4,-32.81"/>
<polygon fill="blue" stroke="blue" points="524.4,-29.45 513.81,-29.86 522.34,-36.15 524.4,-29.45"/>
<text text-anchor="middle" x="668.19" y="-57.8" font-family="Times,serif" font-size="14.00">iri</text>
</g>
<!-- type -->
<g id="node5" class="node">
<title>type</title>
<ellipse fill="none" stroke="blue" cx="581.19" cy="-18" rx="38.19" ry="18"/>
<text text-anchor="middle" x="581.19" y="-14.3" font-family="Times,serif" font-size="14.00">string</text>
</g>
<!-- study population&#45;&gt;type -->
<g id="edge4" class="edge">
<title>study population&#45;&gt;type</title>
<path fill="none" stroke="blue" d="M794.83,-89.99C773.37,-83.76 747.97,-76.22 725.19,-69 681.78,-55.24 671.15,-51.08 628.19,-36 625.5,-35.06 622.73,-34.08 619.94,-33.08"/>
<polygon fill="blue" stroke="blue" points="621.08,-29.78 610.49,-29.7 618.72,-36.37 621.08,-29.78"/>
<text text-anchor="middle" x="741.19" y="-57.8" font-family="Times,serif" font-size="14.00">type</text>
</g>
<!-- name -->
<g id="node6" class="node">
<title>name</title>
<ellipse fill="none" stroke="blue" cx="694.19" cy="-18" rx="56.59" ry="18"/>
<text text-anchor="middle" x="694.19" y="-14.3" font-family="Times,serif" font-size="14.00">label type</text>
</g>
<!-- study population&#45;&gt;name -->
<g id="edge5" class="edge">
<title>study population&#45;&gt;name</title>
<path fill="none" stroke="blue" d="M815.62,-87.81C791.13,-73.94 755.77,-53.9 729.51,-39.02"/>
<polygon fill="blue" stroke="blue" points="731.06,-35.87 720.63,-33.99 727.61,-41.96 731.06,-35.87"/>
<text text-anchor="middle" x="798.19" y="-57.8" font-family="Times,serif" font-size="14.00">name</text>
</g>
<!-- description -->
<g id="node7" class="node">
<title>description</title>
<ellipse fill="none" stroke="blue" cx="844.19" cy="-18" rx="75.29" ry="18"/>
<text text-anchor="middle" x="844.19" y="-14.3" font-family="Times,serif" font-size="14.00">narrative text</text>
</g>
<!-- study population&#45;&gt;description -->
<g id="edge6" class="edge">
<title>study population&#45;&gt;description</title>
<path fill="none" stroke="blue" d="M844.19,-86.8C844.19,-75.16 844.19,-59.55 844.19,-46.24"/>
<polygon fill="blue" stroke="blue" points="847.69,-46.18 844.19,-36.18 840.69,-46.18 847.69,-46.18"/>
<text text-anchor="middle" x="884.69" y="-57.8" font-family="Times,serif" font-size="14.00">description</text>
</g>
<!-- source -->
<g id="node8" class="node">
<title>source</title>
<ellipse fill="none" stroke="blue" cx="994.19" cy="-18" rx="56.59" ry="18"/>
<text text-anchor="middle" x="994.19" y="-14.3" font-family="Times,serif" font-size="14.00">label type</text>
</g>
<!-- study population&#45;&gt;source -->
<g id="edge7" class="edge">
<title>study population&#45;&gt;source</title>
<path fill="none" stroke="blue" d="M886.74,-89.04C900.64,-83.49 915.91,-76.65 929.19,-69 942.78,-61.16 956.72,-50.8 968.19,-41.54"/>
<polygon fill="blue" stroke="blue" points="970.57,-44.11 976.06,-35.05 966.12,-38.71 970.57,-44.11"/>
<text text-anchor="middle" x="976.19" y="-57.8" font-family="Times,serif" font-size="14.00">source</text>
</g>
<!-- provided by -->
<g id="node9" class="node">
<title>provided by</title>
<ellipse fill="none" stroke="blue" cx="1106.19" cy="-18" rx="37.09" ry="18"/>
<text text-anchor="middle" x="1106.19" y="-14.3" font-family="Times,serif" font-size="14.00">agent</text>
</g>
<!-- study population&#45;&gt;provided by -->
<g id="edge8" class="edge">
<title>study population&#45;&gt;provided by</title>
<path fill="none" stroke="blue" d="M911.35,-93.04C940.35,-87.35 974.38,-79.39 1004.19,-69 1028.46,-60.53 1054.46,-47.73 1074.14,-37.19"/>
<polygon fill="blue" stroke="blue" points="1075.86,-40.24 1082.97,-32.39 1072.52,-34.09 1075.86,-40.24"/>
<text text-anchor="middle" x="1081.69" y="-57.8" font-family="Times,serif" font-size="14.00">provided by</text>
</g>
<!-- category -->
<g id="node10" class="node">
<title>category</title>
<ellipse fill="none" stroke="black" cx="1212.19" cy="-18" rx="51.19" ry="18"/>
<text text-anchor="middle" x="1212.19" y="-14.3" font-family="Times,serif" font-size="14.00">category</text>
</g>
<!-- study population&#45;&gt;category -->
<g id="edge9" class="edge">
<title>study population&#45;&gt;category</title>
<path fill="none" stroke="blue" d="M907.6,-92.28C919.09,-90.36 930.98,-88.51 942.19,-87 1024.49,-75.89 1049.26,-94.86 1128.19,-69 1147.73,-62.59 1167.6,-51.04 1183.1,-40.66"/>
<polygon fill="blue" stroke="blue" points="1185.45,-43.29 1191.69,-34.73 1181.48,-37.53 1185.45,-43.29"/>
<text text-anchor="middle" x="1191.69" y="-57.8" font-family="Times,serif" font-size="14.00">category</text>
</g>
<!-- has attribute -->
<g id="node12" class="node">
<title>has attribute</title>
<ellipse fill="none" stroke="black" cx="1353.19" cy="-18" rx="71.49" ry="18"/>
<text text-anchor="middle" x="1353.19" y="-14.3" font-family="Times,serif" font-size="14.00">has attribute</text>
</g>
<!-- study population&#45;&gt;has attribute -->
<g id="edge10" class="edge">
<title>study population&#45;&gt;has attribute</title>
<path fill="none" stroke="blue" d="M906.51,-92.14C918.33,-90.19 930.61,-88.37 942.19,-87 1068.23,-72.13 1103.34,-96.75 1227.19,-69 1256.99,-62.32 1288.95,-49.57 1313.23,-38.61"/>
<polygon fill="blue" stroke="blue" points="1314.85,-41.72 1322.47,-34.36 1311.92,-35.36 1314.85,-41.72"/>
<text text-anchor="middle" x="1321.19" y="-57.8" font-family="Times,serif" font-size="14.00">has attribute</text>
</g>
<!-- in taxon -->
<g id="node14" class="node">
<title>in taxon</title>
<ellipse fill="none" stroke="blue" cx="1515.19" cy="-18" rx="72.59" ry="18"/>
<text text-anchor="middle" x="1515.19" y="-14.3" font-family="Times,serif" font-size="14.00">system taxon</text>
</g>
<!-- study population&#45;&gt;in taxon -->
<g id="edge11" class="edge">
<title>study population&#45;&gt;in taxon</title>
<path fill="none" stroke="blue" d="M905.96,-92.03C917.94,-90.06 930.42,-88.26 942.19,-87 1132.37,-66.61 1184.32,-104.96 1372.19,-69 1406.62,-62.41 1443.96,-49.13 1471.85,-37.91"/>
<polygon fill="blue" stroke="blue" points="1473.37,-41.07 1481.3,-34.04 1470.71,-34.59 1473.37,-41.07"/>
<text text-anchor="middle" x="1453.19" y="-57.8" font-family="Times,serif" font-size="14.00">in taxon</text>
</g>
<!-- named thing_category -->
<g id="node11" class="node">
<title>named thing_category</title>
<ellipse fill="none" stroke="blue" cx="1021.19" cy="-105" rx="69.59" ry="18"/>
<text text-anchor="middle" x="1021.19" y="-101.3" font-family="Times,serif" font-size="14.00">named thing</text>
</g>
<!-- systemic entity_has attribute -->
<g id="node13" class="node">
<title>systemic entity_has attribute</title>
<ellipse fill="none" stroke="blue" cx="1161.19" cy="-105" rx="51.99" ry="18"/>
<text text-anchor="middle" x="1161.19" y="-101.3" font-family="Times,serif" font-size="14.00">attribute</text>
</g>
</g>
</svg>
