<?xml version="1.0" encoding="UTF-8" standalone="no"?>
<!DOCTYPE svg PUBLIC "-//W3C//DTD SVG 1.1//EN"
 "http://www.w3.org/Graphics/SVG/1.1/DTD/svg11.dtd">
<!-- Generated by graphviz version 2.43.0 (0)
 -->
<!-- Title: %3 Pages: 1 -->
<svg width="3144pt" height="291pt"
 viewBox="0.00 0.00 3144.39 291.00" xmlns="http://www.w3.org/2000/svg" xmlns:xlink="http://www.w3.org/1999/xlink">
<g id="graph0" class="graph" transform="scale(1 1) rotate(0) translate(4 287)">
<title>%3</title>
<polygon fill="white" stroke="transparent" points="-4,4 -4,-287 3140.39,-287 3140.39,4 -4,4"/>
<!-- systemic entity as a model of error association -->
<g id="node1" class="node">
<title>systemic entity as a model of error association</title>
<ellipse fill="none" stroke="black" cx="1801.39" cy="-265" rx="227.46" ry="18"/>
<text text-anchor="middle" x="1801.39" y="-261.3" font-family="Times,serif" font-size="14.00">systemic entity as a model of error association</text>
</g>
<!-- association -->
<g id="node2" class="node">
<title>association</title>
<ellipse fill="none" stroke="black" cx="62.39" cy="-178" rx="62.29" ry="18"/>
<text text-anchor="middle" x="62.39" y="-174.3" font-family="Times,serif" font-size="14.00">association</text>
</g>
<!-- systemic entity as a model of error association&#45;&gt;association -->
<g id="edge1" class="edge">
<title>systemic entity as a model of error association&#45;&gt;association</title>
<path fill="none" stroke="black" d="M1581.13,-260.5C1338.36,-255.98 936.34,-246.51 590.39,-229 387.46,-218.73 335.25,-226.78 134.39,-196 128.7,-195.13 122.79,-194.04 116.92,-192.84"/>
<polygon fill="black" stroke="black" points="117.63,-189.41 107.11,-190.73 116.15,-196.25 117.63,-189.41"/>
<text text-anchor="middle" x="604.39" y="-217.8" font-family="Times,serif" font-size="14.00">is_a</text>
</g>
<!-- model to error association mixin -->
<g id="node3" class="node">
<title>model to error association mixin</title>
<ellipse fill="none" stroke="black" cx="304.39" cy="-178" rx="161.37" ry="18"/>
<text text-anchor="middle" x="304.39" y="-174.3" font-family="Times,serif" font-size="14.00">model to error association mixin</text>
</g>
<!-- systemic entity as a model of error association&#45;&gt;model to error association mixin -->
<g id="edge2" class="edge">
<title>systemic entity as a model of error association&#45;&gt;model to error association mixin</title>
<path fill="none" stroke="black" d="M1581.06,-260.49C1377.69,-256.26 1067.41,-247.29 798.39,-229 668.48,-220.17 519.87,-204.35 419.87,-192.86"/>
<polygon fill="black" stroke="black" points="420.08,-189.37 409.74,-191.7 419.28,-196.32 420.08,-189.37"/>
<text text-anchor="middle" x="814.89" y="-217.8" font-family="Times,serif" font-size="14.00">uses</text>
</g>
<!-- entity to error association mixin -->
<g id="node4" class="node">
<title>entity to error association mixin</title>
<ellipse fill="none" stroke="black" cx="644.39" cy="-178" rx="160.57" ry="18"/>
<text text-anchor="middle" x="644.39" y="-174.3" font-family="Times,serif" font-size="14.00">entity to error association mixin</text>
</g>
<!-- systemic entity as a model of error association&#45;&gt;entity to error association mixin -->
<g id="edge3" class="edge">
<title>systemic entity as a model of error association&#45;&gt;entity to error association mixin</title>
<path fill="none" stroke="black" d="M1575.66,-262.53C1402.09,-259.53 1156.54,-251.24 942.39,-229 869.64,-221.44 787.73,-207.29 728.23,-195.96"/>
<polygon fill="black" stroke="black" points="728.61,-192.47 718.13,-194.02 727.3,-199.34 728.61,-192.47"/>
<text text-anchor="middle" x="958.89" y="-217.8" font-family="Times,serif" font-size="14.00">uses</text>
</g>
<!-- id -->
<g id="node5" class="node">
<title>id</title>
<ellipse fill="none" stroke="blue" cx="861.39" cy="-178" rx="38.19" ry="18"/>
<text text-anchor="middle" x="861.39" y="-174.3" font-family="Times,serif" font-size="14.00">string</text>
</g>
<!-- systemic entity as a model of error association&#45;&gt;id -->
<g id="edge4" class="edge">
<title>systemic entity as a model of error association&#45;&gt;id</title>
<path fill="none" stroke="blue" d="M1576.9,-262.01C1432.36,-258.57 1240.73,-249.96 1072.39,-229 999.05,-219.87 980.63,-215.72 909.39,-196 906.28,-195.14 903.09,-194.18 899.89,-193.16"/>
<polygon fill="blue" stroke="blue" points="900.97,-189.83 890.38,-190 898.76,-196.48 900.97,-189.83"/>
<text text-anchor="middle" x="1079.39" y="-217.8" font-family="Times,serif" font-size="14.00">id</text>
</g>
<!-- iri -->
<g id="node6" class="node">
<title>iri</title>
<ellipse fill="none" stroke="blue" cx="962.39" cy="-178" rx="44.39" ry="18"/>
<text text-anchor="middle" x="962.39" y="-174.3" font-family="Times,serif" font-size="14.00">iri type</text>
</g>
<!-- systemic entity as a model of error association&#45;&gt;iri -->
<g id="edge5" class="edge">
<title>systemic entity as a model of error association&#45;&gt;iri</title>
<path fill="none" stroke="blue" d="M1585.88,-259.24C1466.34,-254.74 1315.22,-245.99 1181.39,-229 1106.77,-219.52 1088.22,-214.85 1015.39,-196 1012.02,-195.13 1008.54,-194.16 1005.06,-193.15"/>
<polygon fill="blue" stroke="blue" points="1005.89,-189.74 995.3,-190.2 1003.86,-196.44 1005.89,-189.74"/>
<text text-anchor="middle" x="1189.39" y="-217.8" font-family="Times,serif" font-size="14.00">iri</text>
</g>
<!-- name -->
<g id="node7" class="node">
<title>name</title>
<ellipse fill="none" stroke="blue" cx="1081.39" cy="-178" rx="56.59" ry="18"/>
<text text-anchor="middle" x="1081.39" y="-174.3" font-family="Times,serif" font-size="14.00">label type</text>
</g>
<!-- systemic entity as a model of error association&#45;&gt;name -->
<g id="edge6" class="edge">
<title>systemic entity as a model of error association&#45;&gt;name</title>
<path fill="none" stroke="blue" d="M1585.05,-259.4C1487.75,-254.87 1371.79,-246.05 1268.39,-229 1220.15,-221.04 1166.34,-205.98 1128.87,-194.46"/>
<polygon fill="blue" stroke="blue" points="1129.83,-191.09 1119.24,-191.46 1127.75,-197.77 1129.83,-191.09"/>
<text text-anchor="middle" x="1288.39" y="-217.8" font-family="Times,serif" font-size="14.00">name</text>
</g>
<!-- description -->
<g id="node8" class="node">
<title>description</title>
<ellipse fill="none" stroke="blue" cx="1231.39" cy="-178" rx="75.29" ry="18"/>
<text text-anchor="middle" x="1231.39" y="-174.3" font-family="Times,serif" font-size="14.00">narrative text</text>
</g>
<!-- systemic entity as a model of error association&#45;&gt;description -->
<g id="edge7" class="edge">
<title>systemic entity as a model of error association&#45;&gt;description</title>
<path fill="none" stroke="blue" d="M1583.98,-259.66C1511.52,-254.82 1430.84,-245.73 1358.39,-229 1328.64,-222.13 1296.65,-209.5 1272.22,-198.66"/>
<polygon fill="blue" stroke="blue" points="1273.47,-195.38 1262.92,-194.45 1270.59,-201.76 1273.47,-195.38"/>
<text text-anchor="middle" x="1398.89" y="-217.8" font-family="Times,serif" font-size="14.00">description</text>
</g>
<!-- source -->
<g id="node9" class="node">
<title>source</title>
<ellipse fill="none" stroke="blue" cx="1381.39" cy="-178" rx="56.59" ry="18"/>
<text text-anchor="middle" x="1381.39" y="-174.3" font-family="Times,serif" font-size="14.00">label type</text>
</g>
<!-- systemic entity as a model of error association&#45;&gt;source -->
<g id="edge8" class="edge">
<title>systemic entity as a model of error association&#45;&gt;source</title>
<path fill="none" stroke="blue" d="M1611.81,-254.96C1567.73,-249.69 1521.42,-241.54 1479.39,-229 1456.53,-222.18 1432.65,-210.11 1414.19,-199.54"/>
<polygon fill="blue" stroke="blue" points="1415.72,-196.38 1405.33,-194.34 1412.18,-202.42 1415.72,-196.38"/>
<text text-anchor="middle" x="1503.39" y="-217.8" font-family="Times,serif" font-size="14.00">source</text>
</g>
<!-- provided by -->
<g id="node10" class="node">
<title>provided by</title>
<ellipse fill="none" stroke="blue" cx="1493.39" cy="-178" rx="37.09" ry="18"/>
<text text-anchor="middle" x="1493.39" y="-174.3" font-family="Times,serif" font-size="14.00">agent</text>
</g>
<!-- systemic entity as a model of error association&#45;&gt;provided by -->
<g id="edge9" class="edge">
<title>systemic entity as a model of error association&#45;&gt;provided by</title>
<path fill="none" stroke="blue" d="M1633.53,-252.83C1606.37,-247.47 1579.08,-239.84 1554.39,-229 1539.87,-222.62 1525.99,-211.77 1515.16,-201.81"/>
<polygon fill="blue" stroke="blue" points="1517.48,-199.18 1507.84,-194.79 1512.63,-204.23 1517.48,-199.18"/>
<text text-anchor="middle" x="1596.89" y="-217.8" font-family="Times,serif" font-size="14.00">provided by</text>
</g>
<!-- has attribute -->
<g id="node11" class="node">
<title>has attribute</title>
<ellipse fill="none" stroke="blue" cx="1600.39" cy="-178" rx="51.99" ry="18"/>
<text text-anchor="middle" x="1600.39" y="-174.3" font-family="Times,serif" font-size="14.00">attribute</text>
</g>
<!-- systemic entity as a model of error association&#45;&gt;has attribute -->
<g id="edge10" class="edge">
<title>systemic entity as a model of error association&#45;&gt;has attribute</title>
<path fill="none" stroke="blue" d="M1718.88,-248.12C1701.09,-243.2 1682.74,-236.92 1666.39,-229 1651.68,-221.87 1637.01,-211.21 1625.25,-201.56"/>
<polygon fill="blue" stroke="blue" points="1627.51,-198.88 1617.61,-195.09 1622.98,-204.22 1627.51,-198.88"/>
<text text-anchor="middle" x="1713.39" y="-217.8" font-family="Times,serif" font-size="14.00">has attribute</text>
</g>
<!-- predicate -->
<g id="node12" class="node">
<title>predicate</title>
<ellipse fill="none" stroke="blue" cx="1748.39" cy="-178" rx="77.99" ry="18"/>
<text text-anchor="middle" x="1748.39" y="-174.3" font-family="Times,serif" font-size="14.00">predicate type</text>
</g>
<!-- systemic entity as a model of error association&#45;&gt;predicate -->
<g id="edge11" class="edge">
<title>systemic entity as a model of error association&#45;&gt;predicate</title>
<path fill="none" stroke="blue" d="M1785.76,-246.84C1781.16,-241.35 1776.31,-235.11 1772.39,-229 1767.67,-221.62 1763.27,-213.17 1759.56,-205.34"/>
<polygon fill="blue" stroke="blue" points="1762.74,-203.87 1755.41,-196.22 1756.37,-206.77 1762.74,-203.87"/>
<text text-anchor="middle" x="1806.39" y="-217.8" font-family="Times,serif" font-size="14.00">predicate</text>
</g>
<!-- object -->
<g id="node13" class="node">
<title>object</title>
<ellipse fill="none" stroke="blue" cx="2244.39" cy="-91" rx="69.59" ry="18"/>
<text text-anchor="middle" x="2244.39" y="-87.3" font-family="Times,serif" font-size="14.00">named thing</text>
</g>
<!-- systemic entity as a model of error association&#45;&gt;object -->
<g id="edge12" class="edge">
<title>systemic entity as a model of error association&#45;&gt;object</title>
<path fill="none" stroke="blue" d="M1842.39,-247.16C1851.6,-242.19 1860.87,-236.13 1868.39,-229 1894.3,-204.48 1880.31,-180.65 1909.39,-160 1950.66,-130.7 2085.65,-110.26 2171.16,-99.87"/>
<polygon fill="blue" stroke="blue" points="2171.81,-103.32 2181.33,-98.66 2170.98,-96.37 2171.81,-103.32"/>
<text text-anchor="middle" x="1931.39" y="-174.3" font-family="Times,serif" font-size="14.00">object</text>
</g>
<!-- relation -->
<g id="node14" class="node">
<title>relation</title>
<ellipse fill="none" stroke="blue" cx="2244.39" cy="-18" rx="57.39" ry="18"/>
<text text-anchor="middle" x="2244.39" y="-14.3" font-family="Times,serif" font-size="14.00">uriorcurie</text>
</g>
<!-- systemic entity as a model of error association&#45;&gt;relation -->
<g id="edge13" class="edge">
<title>systemic entity as a model of error association&#45;&gt;relation</title>
<path fill="none" stroke="blue" d="M1823.43,-246.76C1829.38,-241.47 1835.51,-235.35 1840.39,-229 1871.41,-188.66 1853.43,-159.72 1892.39,-127 1975.2,-57.46 2102.26,-32.67 2178.94,-23.85"/>
<polygon fill="blue" stroke="blue" points="2179.39,-27.32 2188.96,-22.75 2178.63,-20.36 2179.39,-27.32"/>
<text text-anchor="middle" x="1920.39" y="-130.8" font-family="Times,serif" font-size="14.00">relation</text>
</g>
<!-- negated -->
<g id="node15" class="node">
<title>negated</title>
<ellipse fill="none" stroke="blue" cx="2009.39" cy="-178" rx="46.59" ry="18"/>
<text text-anchor="middle" x="2009.39" y="-174.3" font-family="Times,serif" font-size="14.00">boolean</text>
</g>
<!-- systemic entity as a model of error association&#45;&gt;negated -->
<g id="edge14" class="edge">
<title>systemic entity as a model of error association&#45;&gt;negated</title>
<path fill="none" stroke="blue" d="M1861.65,-247.58C1878.91,-242.28 1897.6,-235.95 1914.39,-229 1935.51,-220.26 1958.2,-208.42 1976.1,-198.46"/>
<polygon fill="blue" stroke="blue" points="1978,-201.4 1984.99,-193.44 1974.56,-195.3 1978,-201.4"/>
<text text-anchor="middle" x="1976.39" y="-217.8" font-family="Times,serif" font-size="14.00">negated</text>
</g>
<!-- qualifiers -->
<g id="node16" class="node">
<title>qualifiers</title>
<ellipse fill="none" stroke="blue" cx="2150.39" cy="-178" rx="76.89" ry="18"/>
<text text-anchor="middle" x="2150.39" y="-174.3" font-family="Times,serif" font-size="14.00">ontology class</text>
</g>
<!-- systemic entity as a model of error association&#45;&gt;qualifiers -->
<g id="edge15" class="edge">
<title>systemic entity as a model of error association&#45;&gt;qualifiers</title>
<path fill="none" stroke="blue" d="M1911.18,-249.19C1943.1,-243.9 1977.85,-237.18 2009.39,-229 2041.64,-220.64 2076.96,-208.11 2104.19,-197.68"/>
<polygon fill="blue" stroke="blue" points="2105.77,-200.82 2113.83,-193.95 2103.24,-194.29 2105.77,-200.82"/>
<text text-anchor="middle" x="2090.89" y="-217.8" font-family="Times,serif" font-size="14.00">qualifiers</text>
</g>
<!-- publications -->
<g id="node17" class="node">
<title>publications</title>
<ellipse fill="none" stroke="blue" cx="2307.39" cy="-178" rx="62.29" ry="18"/>
<text text-anchor="middle" x="2307.39" y="-174.3" font-family="Times,serif" font-size="14.00">publication</text>
</g>
<!-- systemic entity as a model of error association&#45;&gt;publications -->
<g id="edge16" class="edge">
<title>systemic entity as a model of error association&#45;&gt;publications</title>
<path fill="none" stroke="blue" d="M1961.85,-252.17C2015.12,-246.83 2074.56,-239.33 2128.39,-229 2173,-220.44 2222.67,-206.18 2258.35,-195.07"/>
<polygon fill="blue" stroke="blue" points="2259.54,-198.37 2268.03,-192.03 2257.44,-191.69 2259.54,-198.37"/>
<text text-anchor="middle" x="2232.39" y="-217.8" font-family="Times,serif" font-size="14.00">publications</text>
</g>
<!-- type -->
<g id="node18" class="node">
<title>type</title>
<ellipse fill="none" stroke="black" cx="2419.39" cy="-178" rx="31.4" ry="18"/>
<text text-anchor="middle" x="2419.39" y="-174.3" font-family="Times,serif" font-size="14.00">type</text>
</g>
<!-- systemic entity as a model of error association&#45;&gt;type -->
<g id="edge17" class="edge">
<title>systemic entity as a model of error association&#45;&gt;type</title>
<path fill="none" stroke="blue" d="M1963.73,-252.38C2101.11,-242.5 2276.43,-229.8 2280.39,-229 2317.95,-221.43 2359.01,-205.67 2386.69,-193.85"/>
<polygon fill="blue" stroke="blue" points="2388.12,-197.05 2395.9,-189.86 2385.33,-190.63 2388.12,-197.05"/>
<text text-anchor="middle" x="2347.39" y="-217.8" font-family="Times,serif" font-size="14.00">type</text>
</g>
<!-- category -->
<g id="node20" class="node">
<title>category</title>
<ellipse fill="none" stroke="black" cx="2520.39" cy="-178" rx="51.19" ry="18"/>
<text text-anchor="middle" x="2520.39" y="-174.3" font-family="Times,serif" font-size="14.00">category</text>
</g>
<!-- systemic entity as a model of error association&#45;&gt;category -->
<g id="edge18" class="edge">
<title>systemic entity as a model of error association&#45;&gt;category</title>
<path fill="none" stroke="blue" d="M1961.04,-252.18C1986.9,-250.37 2013.38,-248.58 2038.39,-247 2184.54,-237.76 2223.46,-255.97 2367.39,-229 2406.18,-221.73 2448.73,-207.27 2479.09,-195.76"/>
<polygon fill="blue" stroke="blue" points="2480.43,-199 2488.5,-192.14 2477.91,-192.46 2480.43,-199"/>
<text text-anchor="middle" x="2454.89" y="-217.8" font-family="Times,serif" font-size="14.00">category</text>
</g>
<!-- subject -->
<g id="node22" class="node">
<title>subject</title>
<ellipse fill="none" stroke="black" cx="2634.39" cy="-178" rx="44.39" ry="18"/>
<text text-anchor="middle" x="2634.39" y="-174.3" font-family="Times,serif" font-size="14.00">subject</text>
</g>
<!-- systemic entity as a model of error association&#45;&gt;subject -->
<g id="edge19" class="edge">
<title>systemic entity as a model of error association&#45;&gt;subject</title>
<path fill="none" stroke="blue" d="M1959.11,-251.98C1985.57,-250.17 2012.76,-248.43 2038.39,-247 2138.76,-241.4 2391.62,-247.69 2490.39,-229 2527.26,-222.02 2567.46,-207.44 2596,-195.81"/>
<polygon fill="blue" stroke="blue" points="2597.68,-198.9 2605.58,-191.84 2595,-192.44 2597.68,-198.9"/>
<text text-anchor="middle" x="2569.39" y="-217.8" font-family="Times,serif" font-size="14.00">subject</text>
</g>
<!-- frequency qualifier -->
<g id="node24" class="node">
<title>frequency qualifier</title>
<ellipse fill="none" stroke="blue" cx="2781.39" cy="-178" rx="85.29" ry="18"/>
<text text-anchor="middle" x="2781.39" y="-174.3" font-family="Times,serif" font-size="14.00">frequency value</text>
</g>
<!-- systemic entity as a model of error association&#45;&gt;frequency qualifier -->
<g id="edge20" class="edge">
<title>systemic entity as a model of error association&#45;&gt;frequency qualifier</title>
<path fill="none" stroke="blue" d="M1957.83,-251.9C1984.69,-250.07 2012.34,-248.35 2038.39,-247 2162.96,-240.54 2476.07,-247.65 2599.39,-229 2643.97,-222.26 2693.19,-208.33 2729.2,-196.87"/>
<polygon fill="blue" stroke="blue" points="2730.54,-200.12 2738.99,-193.72 2728.39,-193.46 2730.54,-200.12"/>
<text text-anchor="middle" x="2733.39" y="-217.8" font-family="Times,serif" font-size="14.00">frequency qualifier</text>
</g>
<!-- severity qualifier -->
<g id="node25" class="node">
<title>severity qualifier</title>
<ellipse fill="none" stroke="blue" cx="2960.39" cy="-178" rx="76.09" ry="18"/>
<text text-anchor="middle" x="2960.39" y="-174.3" font-family="Times,serif" font-size="14.00">severity value</text>
</g>
<!-- systemic entity as a model of error association&#45;&gt;severity qualifier -->
<g id="edge21" class="edge">
<title>systemic entity as a model of error association&#45;&gt;severity qualifier</title>
<path fill="none" stroke="blue" d="M1956.54,-251.79C1983.81,-249.96 2011.92,-248.26 2038.39,-247 2208.69,-238.9 2637.3,-257.47 2805.39,-229 2843.13,-222.61 2884.29,-209 2914.71,-197.59"/>
<polygon fill="blue" stroke="blue" points="2916.09,-200.81 2924.19,-193.98 2913.6,-194.27 2916.09,-200.81"/>
<text text-anchor="middle" x="2927.39" y="-217.8" font-family="Times,serif" font-size="14.00">severity qualifier</text>
</g>
<!-- onset qualifier -->
<g id="node26" class="node">
<title>onset qualifier</title>
<ellipse fill="none" stroke="blue" cx="3097.39" cy="-178" rx="36.29" ry="18"/>
<text text-anchor="middle" x="3097.39" y="-174.3" font-family="Times,serif" font-size="14.00">onset</text>
</g>
<!-- systemic entity as a model of error association&#45;&gt;onset qualifier -->
<g id="edge22" class="edge">
<title>systemic entity as a model of error association&#45;&gt;onset qualifier</title>
<path fill="none" stroke="blue" d="M1955.58,-251.76C1983.15,-249.91 2011.61,-248.21 2038.39,-247 2144.3,-242.21 2889.21,-253.34 2992.39,-229 3018.98,-222.73 3046.79,-209.12 3067.1,-197.69"/>
<polygon fill="blue" stroke="blue" points="3068.97,-200.65 3075.88,-192.62 3065.47,-194.59 3068.97,-200.65"/>
<text text-anchor="middle" x="3084.89" y="-217.8" font-family="Times,serif" font-size="14.00">onset qualifier</text>
</g>
<!-- object&#45;&gt;relation -->
<g id="edge25" class="edge">
<title>object&#45;&gt;relation</title>
<path fill="none" stroke="black" stroke-dasharray="1,5" d="M2244.39,-72.81C2244.39,-64.79 2244.39,-55.05 2244.39,-46.07"/>
<polygon fill="black" stroke="black" points="2247.89,-46.03 2244.39,-36.03 2240.89,-46.03 2247.89,-46.03"/>
</g>
<!-- association_type -->
<g id="node19" class="node">
<title>association_type</title>
<ellipse fill="none" stroke="blue" cx="2085.39" cy="-265" rx="38.19" ry="18"/>
<text text-anchor="middle" x="2085.39" y="-261.3" font-family="Times,serif" font-size="14.00">string</text>
</g>
<!-- association_category -->
<g id="node21" class="node">
<title>association_category</title>
<ellipse fill="none" stroke="blue" cx="2204.39" cy="-265" rx="62.29" ry="18"/>
<text text-anchor="middle" x="2204.39" y="-261.3" font-family="Times,serif" font-size="14.00">association</text>
</g>
<!-- subject&#45;&gt;object -->
<g id="edge23" class="edge">
<title>subject&#45;&gt;object</title>
<path fill="none" stroke="black" d="M2601.83,-165.63C2594.82,-163.5 2587.41,-161.48 2580.39,-160 2509.51,-145.05 2489.46,-156.05 2418.39,-142 2376.02,-133.62 2328.99,-119.83 2294.52,-108.85"/>
<polygon fill="black" stroke="black" points="2295.29,-105.42 2284.7,-105.69 2293.15,-112.08 2295.29,-105.42"/>
<text text-anchor="middle" x="2446.39" y="-130.8" font-family="Times,serif" font-size="14.00">relation</text>
</g>
<!-- subject&#45;&gt;relation -->
<g id="edge24" class="edge">
<title>subject&#45;&gt;relation</title>
<path fill="none" stroke="black" stroke-dasharray="1,5" d="M2604.12,-164.73C2535.38,-136.89 2367.35,-68.81 2287.67,-36.53"/>
<polygon fill="black" stroke="black" points="2288.53,-33.1 2277.95,-32.59 2285.9,-39.59 2288.53,-33.1"/>
</g>
<!-- systemic entity as a model of error association_subject -->
<g id="node23" class="node">
<title>systemic entity as a model of error association_subject</title>
<ellipse fill="none" stroke="blue" cx="2366.39" cy="-265" rx="81.79" ry="18"/>
<text text-anchor="middle" x="2366.39" y="-261.3" font-family="Times,serif" font-size="14.00">systemic entity</text>
</g>
</g>
</svg>
