<?xml version="1.0" encoding="UTF-8" standalone="no"?>
<!DOCTYPE svg PUBLIC "-//W3C//DTD SVG 1.1//EN"
 "http://www.w3.org/Graphics/SVG/1.1/DTD/svg11.dtd">
<!-- Generated by graphviz version 2.43.0 (0)
 -->
<!-- Title: %3 Pages: 1 -->
<svg width="1586pt" height="131pt"
 viewBox="0.00 0.00 1586.44 131.00" xmlns="http://www.w3.org/2000/svg" xmlns:xlink="http://www.w3.org/1999/xlink">
<g id="graph0" class="graph" transform="scale(1 1) rotate(0) translate(4 127)">
<title>%3</title>
<polygon fill="white" stroke="transparent" points="-4,4 -4,-127 1582.44,-127 1582.44,4 -4,4"/>
<!-- system taxon -->
<g id="node1" class="node">
<title>system taxon</title>
<ellipse fill="none" stroke="black" cx="749.69" cy="-105" rx="72.59" ry="18"/>
<text text-anchor="middle" x="749.69" y="-101.3" font-family="Times,serif" font-size="14.00">system taxon</text>
</g>
<!-- ontology class -->
<g id="node2" class="node">
<title>ontology class</title>
<ellipse fill="none" stroke="black" cx="76.69" cy="-18" rx="76.89" ry="18"/>
<text text-anchor="middle" x="76.69" y="-14.3" font-family="Times,serif" font-size="14.00">ontology class</text>
</g>
<!-- system taxon&#45;&gt;ontology class -->
<g id="edge1" class="edge">
<title>system taxon&#45;&gt;ontology class</title>
<path fill="none" stroke="black" d="M678.06,-101.4C589.84,-97.5 435.59,-88.41 304.69,-69 246.81,-60.42 181.68,-45.61 135.9,-34.33"/>
<polygon fill="black" stroke="black" points="136.69,-30.92 126.14,-31.91 135.01,-37.71 136.69,-30.92"/>
<text text-anchor="middle" x="318.69" y="-57.8" font-family="Times,serif" font-size="14.00">is_a</text>
</g>
<!-- id -->
<g id="node3" class="node">
<title>id</title>
<ellipse fill="none" stroke="blue" cx="209.69" cy="-18" rx="38.19" ry="18"/>
<text text-anchor="middle" x="209.69" y="-14.3" font-family="Times,serif" font-size="14.00">string</text>
</g>
<!-- system taxon&#45;&gt;id -->
<g id="edge2" class="edge">
<title>system taxon&#45;&gt;id</title>
<path fill="none" stroke="blue" d="M679.25,-100.17C582.65,-93.6 404.35,-76.69 257.69,-36 254.58,-35.14 251.39,-34.17 248.19,-33.16"/>
<polygon fill="blue" stroke="blue" points="249.27,-29.83 238.68,-30 247.06,-36.47 249.27,-29.83"/>
<text text-anchor="middle" x="411.69" y="-57.8" font-family="Times,serif" font-size="14.00">id</text>
</g>
<!-- iri -->
<g id="node4" class="node">
<title>iri</title>
<ellipse fill="none" stroke="blue" cx="310.69" cy="-18" rx="44.39" ry="18"/>
<text text-anchor="middle" x="310.69" y="-14.3" font-family="Times,serif" font-size="14.00">iri type</text>
</g>
<!-- system taxon&#45;&gt;iri -->
<g id="edge3" class="edge">
<title>system taxon&#45;&gt;iri</title>
<path fill="none" stroke="blue" d="M686.3,-96.14C637.79,-89.8 569.3,-80.11 509.69,-69 444.72,-56.89 428.49,-53.27 364.69,-36 361.11,-35.03 357.42,-33.98 353.72,-32.89"/>
<polygon fill="blue" stroke="blue" points="354.57,-29.49 343.98,-29.95 352.54,-36.19 354.57,-29.49"/>
<text text-anchor="middle" x="517.69" y="-57.8" font-family="Times,serif" font-size="14.00">iri</text>
</g>
<!-- type -->
<g id="node5" class="node">
<title>type</title>
<ellipse fill="none" stroke="blue" cx="411.69" cy="-18" rx="38.19" ry="18"/>
<text text-anchor="middle" x="411.69" y="-14.3" font-family="Times,serif" font-size="14.00">string</text>
</g>
<!-- system taxon&#45;&gt;type -->
<g id="edge4" class="edge">
<title>system taxon&#45;&gt;type</title>
<path fill="none" stroke="blue" d="M694.12,-93.37C635.11,-81.53 539.41,-60.78 458.69,-36 455.93,-35.15 453.1,-34.24 450.25,-33.29"/>
<polygon fill="blue" stroke="blue" points="451.22,-29.92 440.63,-29.97 448.94,-36.54 451.22,-29.92"/>
<text text-anchor="middle" x="593.69" y="-57.8" font-family="Times,serif" font-size="14.00">type</text>
</g>
<!-- name -->
<g id="node6" class="node">
<title>name</title>
<ellipse fill="none" stroke="blue" cx="524.69" cy="-18" rx="56.59" ry="18"/>
<text text-anchor="middle" x="524.69" y="-14.3" font-family="Times,serif" font-size="14.00">label type</text>
</g>
<!-- system taxon&#45;&gt;name -->
<g id="edge5" class="edge">
<title>system taxon&#45;&gt;name</title>
<path fill="none" stroke="blue" d="M711.53,-89.58C672.18,-74.72 610.87,-51.56 569.31,-35.85"/>
<polygon fill="blue" stroke="blue" points="570.3,-32.49 559.71,-32.23 567.83,-39.04 570.3,-32.49"/>
<text text-anchor="middle" x="670.69" y="-57.8" font-family="Times,serif" font-size="14.00">name</text>
</g>
<!-- description -->
<g id="node7" class="node">
<title>description</title>
<ellipse fill="none" stroke="blue" cx="674.69" cy="-18" rx="75.29" ry="18"/>
<text text-anchor="middle" x="674.69" y="-14.3" font-family="Times,serif" font-size="14.00">narrative text</text>
</g>
<!-- system taxon&#45;&gt;description -->
<g id="edge6" class="edge">
<title>system taxon&#45;&gt;description</title>
<path fill="none" stroke="blue" d="M734.88,-87.21C723.88,-74.75 708.73,-57.57 696.38,-43.57"/>
<polygon fill="blue" stroke="blue" points="698.72,-40.94 689.48,-35.76 693.47,-45.57 698.72,-40.94"/>
<text text-anchor="middle" x="757.19" y="-57.8" font-family="Times,serif" font-size="14.00">description</text>
</g>
<!-- source -->
<g id="node8" class="node">
<title>source</title>
<ellipse fill="none" stroke="blue" cx="824.69" cy="-18" rx="56.59" ry="18"/>
<text text-anchor="middle" x="824.69" y="-14.3" font-family="Times,serif" font-size="14.00">label type</text>
</g>
<!-- system taxon&#45;&gt;source -->
<g id="edge7" class="edge">
<title>system taxon&#45;&gt;source</title>
<path fill="none" stroke="blue" d="M778.93,-88.35C787.04,-83 795.35,-76.46 801.69,-69 807.5,-62.17 812.14,-53.63 815.69,-45.55"/>
<polygon fill="blue" stroke="blue" points="819.02,-46.65 819.48,-36.07 812.52,-44.05 819.02,-46.65"/>
<text text-anchor="middle" x="835.69" y="-57.8" font-family="Times,serif" font-size="14.00">source</text>
</g>
<!-- provided by -->
<g id="node9" class="node">
<title>provided by</title>
<ellipse fill="none" stroke="blue" cx="936.69" cy="-18" rx="37.09" ry="18"/>
<text text-anchor="middle" x="936.69" y="-14.3" font-family="Times,serif" font-size="14.00">agent</text>
</g>
<!-- system taxon&#45;&gt;provided by -->
<g id="edge8" class="edge">
<title>system taxon&#45;&gt;provided by</title>
<path fill="none" stroke="blue" d="M800.31,-92.01C820.55,-86.31 843.74,-78.62 863.69,-69 880.04,-61.12 896.84,-49.87 910.2,-40.03"/>
<polygon fill="blue" stroke="blue" points="912.56,-42.63 918.44,-33.82 908.35,-37.04 912.56,-42.63"/>
<text text-anchor="middle" x="932.19" y="-57.8" font-family="Times,serif" font-size="14.00">provided by</text>
</g>
<!-- has attribute -->
<g id="node10" class="node">
<title>has attribute</title>
<ellipse fill="none" stroke="blue" cx="1043.69" cy="-18" rx="51.99" ry="18"/>
<text text-anchor="middle" x="1043.69" y="-14.3" font-family="Times,serif" font-size="14.00">attribute</text>
</g>
<!-- system taxon&#45;&gt;has attribute -->
<g id="edge9" class="edge">
<title>system taxon&#45;&gt;has attribute</title>
<path fill="none" stroke="blue" d="M801.86,-92.37C811.42,-90.43 821.34,-88.55 830.69,-87 896.07,-76.18 917.37,-94.09 978.69,-69 993.9,-62.78 1008.6,-52.01 1020.16,-42.06"/>
<polygon fill="blue" stroke="blue" points="1022.52,-44.64 1027.64,-35.36 1017.85,-39.43 1022.52,-44.64"/>
<text text-anchor="middle" x="1051.69" y="-57.8" font-family="Times,serif" font-size="14.00">has attribute</text>
</g>
<!-- category -->
<g id="node11" class="node">
<title>category</title>
<ellipse fill="none" stroke="black" cx="1164.69" cy="-18" rx="51.19" ry="18"/>
<text text-anchor="middle" x="1164.69" y="-14.3" font-family="Times,serif" font-size="14.00">category</text>
</g>
<!-- system taxon&#45;&gt;category -->
<g id="edge10" class="edge">
<title>system taxon&#45;&gt;category</title>
<path fill="none" stroke="blue" d="M800.92,-92.11C810.76,-90.15 821.01,-88.33 830.69,-87 890.71,-78.76 1046.27,-91.04 1102.69,-69 1117.41,-63.25 1131.34,-52.67 1142.26,-42.72"/>
<polygon fill="blue" stroke="blue" points="1144.83,-45.1 1149.64,-35.66 1139.99,-40.04 1144.83,-45.1"/>
<text text-anchor="middle" x="1159.19" y="-57.8" font-family="Times,serif" font-size="14.00">category</text>
</g>
<!-- has taxonomic rank -->
<g id="node13" class="node">
<title>has taxonomic rank</title>
<ellipse fill="none" stroke="black" cx="1335.69" cy="-18" rx="101.28" ry="18"/>
<text text-anchor="middle" x="1335.69" y="-14.3" font-family="Times,serif" font-size="14.00">has taxonomic rank</text>
</g>
<!-- system taxon&#45;&gt;has taxonomic rank -->
<g id="edge11" class="edge">
<title>system taxon&#45;&gt;has taxonomic rank</title>
<path fill="none" stroke="blue" d="M800.47,-92.07C810.44,-90.09 820.86,-88.27 830.69,-87 991.34,-66.3 1035.79,-100.4 1194.69,-69 1227.74,-62.47 1263.5,-49.72 1290.73,-38.73"/>
<polygon fill="blue" stroke="blue" points="1292.07,-41.97 1299.99,-34.93 1289.41,-35.49 1292.07,-41.97"/>
<text text-anchor="middle" x="1316.69" y="-57.8" font-family="Times,serif" font-size="14.00">has taxonomic rank</text>
</g>
<!-- subclass of -->
<g id="node15" class="node">
<title>subclass of</title>
<ellipse fill="none" stroke="black" cx="1516.69" cy="-18" rx="61.99" ry="18"/>
<text text-anchor="middle" x="1516.69" y="-14.3" font-family="Times,serif" font-size="14.00">subclass of</text>
</g>
<!-- system taxon&#45;&gt;subclass of -->
<g id="edge12" class="edge">
<title>system taxon&#45;&gt;subclass of</title>
<path fill="none" stroke="blue" d="M800.45,-91.93C810.43,-89.96 820.85,-88.18 830.69,-87 954.31,-72.16 1268.79,-94.34 1390.69,-69 1421.21,-62.66 1453.87,-49.5 1478.29,-38.27"/>
<polygon fill="blue" stroke="blue" points="1479.99,-41.34 1487.55,-33.92 1477.01,-35 1479.99,-41.34"/>
<text text-anchor="middle" x="1479.19" y="-57.8" font-family="Times,serif" font-size="14.00">subclass of</text>
</g>
<!-- named thing_category -->
<g id="node12" class="node">
<title>named thing_category</title>
<ellipse fill="none" stroke="blue" cx="909.69" cy="-105" rx="69.59" ry="18"/>
<text text-anchor="middle" x="909.69" y="-101.3" font-family="Times,serif" font-size="14.00">named thing</text>
</g>
<!-- system taxon_has taxonomic rank -->
<g id="node14" class="node">
<title>system taxon_has taxonomic rank</title>
<ellipse fill="none" stroke="blue" cx="1079.69" cy="-105" rx="82.59" ry="18"/>
<text text-anchor="middle" x="1079.69" y="-101.3" font-family="Times,serif" font-size="14.00">taxonomic rank</text>
</g>
<!-- system taxon_subclass of -->
<g id="node16" class="node">
<title>system taxon_subclass of</title>
<ellipse fill="none" stroke="blue" cx="1252.69" cy="-105" rx="72.59" ry="18"/>
<text text-anchor="middle" x="1252.69" y="-101.3" font-family="Times,serif" font-size="14.00">system taxon</text>
</g>
</g>
</svg>
