<?xml version="1.0" encoding="UTF-8" standalone="no"?>
<!DOCTYPE svg PUBLIC "-//W3C//DTD SVG 1.1//EN"
 "http://www.w3.org/Graphics/SVG/1.1/DTD/svg11.dtd">
<!-- Generated by graphviz version 2.43.0 (0)
 -->
<!-- Title: %3 Pages: 1 -->
<svg width="1325pt" height="131pt"
 viewBox="0.00 0.00 1324.73 131.00" xmlns="http://www.w3.org/2000/svg" xmlns:xlink="http://www.w3.org/1999/xlink">
<g id="graph0" class="graph" transform="scale(1 1) rotate(0) translate(4 127)">
<title>%3</title>
<polygon fill="white" stroke="transparent" points="-4,4 -4,-127 1320.73,-127 1320.73,4 -4,4"/>
<!-- systemic entity -->
<g id="node1" class="node">
<title>systemic entity</title>
<ellipse fill="none" stroke="black" cx="661.24" cy="-105" rx="81.79" ry="18"/>
<text text-anchor="middle" x="661.24" y="-101.3" font-family="Times,serif" font-size="14.00">systemic entity</text>
</g>
<!-- computational entity -->
<g id="node2" class="node">
<title>computational entity</title>
<ellipse fill="none" stroke="black" cx="107.24" cy="-18" rx="107.48" ry="18"/>
<text text-anchor="middle" x="107.24" y="-14.3" font-family="Times,serif" font-size="14.00">computational entity</text>
</g>
<!-- systemic entity&#45;&gt;computational entity -->
<g id="edge1" class="edge">
<title>systemic entity&#45;&gt;computational entity</title>
<path fill="none" stroke="black" d="M587.66,-97.04C526.8,-90.89 438.17,-81.04 361.24,-69 299.63,-59.36 230.19,-45.48 179.51,-34.79"/>
<polygon fill="black" stroke="black" points="180.14,-31.35 169.63,-32.7 178.69,-38.19 180.14,-31.35"/>
<text text-anchor="middle" x="375.24" y="-57.8" font-family="Times,serif" font-size="14.00">is_a</text>
</g>
<!-- id -->
<g id="node3" class="node">
<title>id</title>
<ellipse fill="none" stroke="blue" cx="271.24" cy="-18" rx="38.19" ry="18"/>
<text text-anchor="middle" x="271.24" y="-14.3" font-family="Times,serif" font-size="14.00">string</text>
</g>
<!-- systemic entity&#45;&gt;id -->
<g id="edge2" class="edge">
<title>systemic entity&#45;&gt;id</title>
<path fill="none" stroke="blue" d="M595.55,-94.23C526.13,-83.15 413.82,-63.04 319.24,-36 316.14,-35.11 312.94,-34.13 309.75,-33.11"/>
<polygon fill="blue" stroke="blue" points="310.84,-29.78 300.24,-29.92 308.62,-36.42 310.84,-29.78"/>
<text text-anchor="middle" x="457.24" y="-57.8" font-family="Times,serif" font-size="14.00">id</text>
</g>
<!-- iri -->
<g id="node4" class="node">
<title>iri</title>
<ellipse fill="none" stroke="blue" cx="372.24" cy="-18" rx="44.39" ry="18"/>
<text text-anchor="middle" x="372.24" y="-14.3" font-family="Times,serif" font-size="14.00">iri type</text>
</g>
<!-- systemic entity&#45;&gt;iri -->
<g id="edge3" class="edge">
<title>systemic entity&#45;&gt;iri</title>
<path fill="none" stroke="blue" d="M612.2,-90.5C589.13,-84.08 561.24,-76.25 536.24,-69 487.22,-54.78 475.03,-51 426.24,-36 422.75,-34.93 419.13,-33.81 415.5,-32.67"/>
<polygon fill="blue" stroke="blue" points="416.51,-29.32 405.92,-29.68 414.42,-36.01 416.51,-29.32"/>
<text text-anchor="middle" x="544.24" y="-57.8" font-family="Times,serif" font-size="14.00">iri</text>
</g>
<!-- type -->
<g id="node5" class="node">
<title>type</title>
<ellipse fill="none" stroke="blue" cx="473.24" cy="-18" rx="38.19" ry="18"/>
<text text-anchor="middle" x="473.24" y="-14.3" font-family="Times,serif" font-size="14.00">string</text>
</g>
<!-- systemic entity&#45;&gt;type -->
<g id="edge4" class="edge">
<title>systemic entity&#45;&gt;type</title>
<path fill="none" stroke="blue" d="M627.2,-88.61C593.83,-73.52 543.16,-50.61 509.16,-35.24"/>
<polygon fill="blue" stroke="blue" points="510.6,-32.05 500.04,-31.12 507.71,-38.43 510.6,-32.05"/>
<text text-anchor="middle" x="595.24" y="-57.8" font-family="Times,serif" font-size="14.00">type</text>
</g>
<!-- name -->
<g id="node6" class="node">
<title>name</title>
<ellipse fill="none" stroke="blue" cx="586.24" cy="-18" rx="56.59" ry="18"/>
<text text-anchor="middle" x="586.24" y="-14.3" font-family="Times,serif" font-size="14.00">label type</text>
</g>
<!-- systemic entity&#45;&gt;name -->
<g id="edge5" class="edge">
<title>systemic entity&#45;&gt;name</title>
<path fill="none" stroke="blue" d="M646.42,-87.21C635.36,-74.67 620.08,-57.35 607.68,-43.3"/>
<polygon fill="blue" stroke="blue" points="610.01,-40.65 600.77,-35.47 604.76,-45.28 610.01,-40.65"/>
<text text-anchor="middle" x="648.24" y="-57.8" font-family="Times,serif" font-size="14.00">name</text>
</g>
<!-- description -->
<g id="node7" class="node">
<title>description</title>
<ellipse fill="none" stroke="blue" cx="736.24" cy="-18" rx="75.29" ry="18"/>
<text text-anchor="middle" x="736.24" y="-14.3" font-family="Times,serif" font-size="14.00">narrative text</text>
</g>
<!-- systemic entity&#45;&gt;description -->
<g id="edge6" class="edge">
<title>systemic entity&#45;&gt;description</title>
<path fill="none" stroke="blue" d="M676.06,-87.21C687.05,-74.75 702.21,-57.57 714.56,-43.57"/>
<polygon fill="blue" stroke="blue" points="717.46,-45.57 721.45,-35.76 712.21,-40.94 717.46,-45.57"/>
<text text-anchor="middle" x="743.74" y="-57.8" font-family="Times,serif" font-size="14.00">description</text>
</g>
<!-- source -->
<g id="node8" class="node">
<title>source</title>
<ellipse fill="none" stroke="blue" cx="886.24" cy="-18" rx="56.59" ry="18"/>
<text text-anchor="middle" x="886.24" y="-14.3" font-family="Times,serif" font-size="14.00">label type</text>
</g>
<!-- systemic entity&#45;&gt;source -->
<g id="edge7" class="edge">
<title>systemic entity&#45;&gt;source</title>
<path fill="none" stroke="blue" d="M715.79,-91.56C738.53,-85.71 765,-78.02 788.24,-69 809.87,-60.6 833.04,-48.92 851.42,-38.95"/>
<polygon fill="blue" stroke="blue" points="853.21,-41.96 860.29,-34.07 849.84,-35.83 853.21,-41.96"/>
<text text-anchor="middle" x="846.24" y="-57.8" font-family="Times,serif" font-size="14.00">source</text>
</g>
<!-- provided by -->
<g id="node9" class="node">
<title>provided by</title>
<ellipse fill="none" stroke="blue" cx="998.24" cy="-18" rx="37.09" ry="18"/>
<text text-anchor="middle" x="998.24" y="-14.3" font-family="Times,serif" font-size="14.00">agent</text>
</g>
<!-- systemic entity&#45;&gt;provided by -->
<g id="edge8" class="edge">
<title>systemic entity&#45;&gt;provided by</title>
<path fill="none" stroke="blue" d="M720.24,-92.49C730.56,-90.58 741.2,-88.68 751.24,-87 805.73,-77.87 820.91,-83.43 874.24,-69 905.3,-60.6 939.07,-46.64 963.52,-35.6"/>
<polygon fill="blue" stroke="blue" points="965.1,-38.72 972.73,-31.38 962.18,-32.36 965.1,-38.72"/>
<text text-anchor="middle" x="958.74" y="-57.8" font-family="Times,serif" font-size="14.00">provided by</text>
</g>
<!-- category -->
<g id="node10" class="node">
<title>category</title>
<ellipse fill="none" stroke="black" cx="1104.24" cy="-18" rx="51.19" ry="18"/>
<text text-anchor="middle" x="1104.24" y="-14.3" font-family="Times,serif" font-size="14.00">category</text>
</g>
<!-- systemic entity&#45;&gt;category -->
<g id="edge9" class="edge">
<title>systemic entity&#45;&gt;category</title>
<path fill="none" stroke="blue" d="M718.7,-92.12C729.47,-90.18 740.67,-88.37 751.24,-87 863.48,-72.47 896.14,-99.1 1005.24,-69 1028.85,-62.49 1053.44,-50.1 1072.2,-39.29"/>
<polygon fill="blue" stroke="blue" points="1074.09,-42.24 1080.92,-34.14 1070.53,-36.22 1074.09,-42.24"/>
<text text-anchor="middle" x="1073.74" y="-57.8" font-family="Times,serif" font-size="14.00">category</text>
</g>
<!-- has attribute -->
<g id="node12" class="node">
<title>has attribute</title>
<ellipse fill="none" stroke="black" cx="1245.24" cy="-18" rx="71.49" ry="18"/>
<text text-anchor="middle" x="1245.24" y="-14.3" font-family="Times,serif" font-size="14.00">has attribute</text>
</g>
<!-- systemic entity&#45;&gt;has attribute -->
<g id="edge10" class="edge">
<title>systemic entity&#45;&gt;has attribute</title>
<path fill="none" stroke="blue" d="M718.19,-92.03C729.12,-90.08 740.5,-88.28 751.24,-87 909.44,-68.17 953.14,-100.85 1109.24,-69 1141.84,-62.35 1177.06,-49.22 1203.48,-38.09"/>
<polygon fill="blue" stroke="blue" points="1204.99,-41.25 1212.8,-34.09 1202.23,-34.82 1204.99,-41.25"/>
<text text-anchor="middle" x="1205.24" y="-57.8" font-family="Times,serif" font-size="14.00">has attribute</text>
</g>
<!-- named thing_category -->
<g id="node11" class="node">
<title>named thing_category</title>
<ellipse fill="none" stroke="blue" cx="830.24" cy="-105" rx="69.59" ry="18"/>
<text text-anchor="middle" x="830.24" y="-101.3" font-family="Times,serif" font-size="14.00">named thing</text>
</g>
<!-- systemic entity_has attribute -->
<g id="node13" class="node">
<title>systemic entity_has attribute</title>
<ellipse fill="none" stroke="blue" cx="970.24" cy="-105" rx="51.99" ry="18"/>
<text text-anchor="middle" x="970.24" y="-101.3" font-family="Times,serif" font-size="14.00">attribute</text>
</g>
</g>
</svg>
