<?xml version="1.0" encoding="UTF-8" standalone="no"?>
<!DOCTYPE svg PUBLIC "-//W3C//DTD SVG 1.1//EN"
 "http://www.w3.org/Graphics/SVG/1.1/DTD/svg11.dtd">
<!-- Generated by graphviz version 2.43.0 (0)
 -->
<!-- Title: %3 Pages: 1 -->
<svg width="1224pt" height="131pt"
 viewBox="0.00 0.00 1224.04 131.00" xmlns="http://www.w3.org/2000/svg" xmlns:xlink="http://www.w3.org/1999/xlink">
<g id="graph0" class="graph" transform="scale(1 1) rotate(0) translate(4 127)">
<title>%3</title>
<polygon fill="white" stroke="transparent" points="-4,4 -4,-127 1220.04,-127 1220.04,4 -4,4"/>
<!-- taxonomic rank -->
<g id="node1" class="node">
<title>taxonomic rank</title>
<ellipse fill="none" stroke="black" cx="599.69" cy="-105" rx="82.59" ry="18"/>
<text text-anchor="middle" x="599.69" y="-101.3" font-family="Times,serif" font-size="14.00">taxonomic rank</text>
</g>
<!-- ontology class -->
<g id="node2" class="node">
<title>ontology class</title>
<ellipse fill="none" stroke="black" cx="76.69" cy="-18" rx="76.89" ry="18"/>
<text text-anchor="middle" x="76.69" y="-14.3" font-family="Times,serif" font-size="14.00">ontology class</text>
</g>
<!-- taxonomic rank&#45;&gt;ontology class -->
<g id="edge1" class="edge">
<title>taxonomic rank&#45;&gt;ontology class</title>
<path fill="none" stroke="black" d="M524.49,-97.42C463.62,-91.57 375.81,-81.94 299.69,-69 243.87,-59.51 180.99,-45.07 136.26,-34.14"/>
<polygon fill="black" stroke="black" points="136.98,-30.71 126.44,-31.72 135.31,-37.51 136.98,-30.71"/>
<text text-anchor="middle" x="313.69" y="-57.8" font-family="Times,serif" font-size="14.00">is_a</text>
</g>
<!-- id -->
<g id="node3" class="node">
<title>id</title>
<ellipse fill="none" stroke="blue" cx="209.69" cy="-18" rx="38.19" ry="18"/>
<text text-anchor="middle" x="209.69" y="-14.3" font-family="Times,serif" font-size="14.00">string</text>
</g>
<!-- taxonomic rank&#45;&gt;id -->
<g id="edge2" class="edge">
<title>taxonomic rank&#45;&gt;id</title>
<path fill="none" stroke="blue" d="M533.68,-94.18C464.24,-83.09 352.13,-63 257.69,-36 254.59,-35.11 251.4,-34.13 248.2,-33.11"/>
<polygon fill="blue" stroke="blue" points="249.29,-29.78 238.7,-29.92 247.07,-36.42 249.29,-29.78"/>
<text text-anchor="middle" x="395.69" y="-57.8" font-family="Times,serif" font-size="14.00">id</text>
</g>
<!-- iri -->
<g id="node4" class="node">
<title>iri</title>
<ellipse fill="none" stroke="blue" cx="310.69" cy="-18" rx="44.39" ry="18"/>
<text text-anchor="middle" x="310.69" y="-14.3" font-family="Times,serif" font-size="14.00">iri type</text>
</g>
<!-- taxonomic rank&#45;&gt;iri -->
<g id="edge3" class="edge">
<title>taxonomic rank&#45;&gt;iri</title>
<path fill="none" stroke="blue" d="M550.66,-90.5C527.58,-84.08 499.69,-76.25 474.69,-69 425.67,-54.78 413.48,-51 364.69,-36 361.2,-34.93 357.58,-33.81 353.95,-32.67"/>
<polygon fill="blue" stroke="blue" points="354.96,-29.32 344.37,-29.68 352.87,-36.01 354.96,-29.32"/>
<text text-anchor="middle" x="482.69" y="-57.8" font-family="Times,serif" font-size="14.00">iri</text>
</g>
<!-- type -->
<g id="node5" class="node">
<title>type</title>
<ellipse fill="none" stroke="blue" cx="411.69" cy="-18" rx="38.19" ry="18"/>
<text text-anchor="middle" x="411.69" y="-14.3" font-family="Times,serif" font-size="14.00">string</text>
</g>
<!-- taxonomic rank&#45;&gt;type -->
<g id="edge4" class="edge">
<title>taxonomic rank&#45;&gt;type</title>
<path fill="none" stroke="blue" d="M565.21,-88.41C531.93,-73.36 481.73,-50.66 447.88,-35.36"/>
<polygon fill="blue" stroke="blue" points="448.92,-31.99 438.36,-31.06 446.03,-38.37 448.92,-31.99"/>
<text text-anchor="middle" x="533.69" y="-57.8" font-family="Times,serif" font-size="14.00">type</text>
</g>
<!-- name -->
<g id="node6" class="node">
<title>name</title>
<ellipse fill="none" stroke="blue" cx="524.69" cy="-18" rx="56.59" ry="18"/>
<text text-anchor="middle" x="524.69" y="-14.3" font-family="Times,serif" font-size="14.00">label type</text>
</g>
<!-- taxonomic rank&#45;&gt;name -->
<g id="edge5" class="edge">
<title>taxonomic rank&#45;&gt;name</title>
<path fill="none" stroke="blue" d="M584.88,-87.21C573.81,-74.67 558.53,-57.35 546.14,-43.3"/>
<polygon fill="blue" stroke="blue" points="548.47,-40.65 539.22,-35.47 543.22,-45.28 548.47,-40.65"/>
<text text-anchor="middle" x="586.69" y="-57.8" font-family="Times,serif" font-size="14.00">name</text>
</g>
<!-- description -->
<g id="node7" class="node">
<title>description</title>
<ellipse fill="none" stroke="blue" cx="674.69" cy="-18" rx="75.29" ry="18"/>
<text text-anchor="middle" x="674.69" y="-14.3" font-family="Times,serif" font-size="14.00">narrative text</text>
</g>
<!-- taxonomic rank&#45;&gt;description -->
<g id="edge6" class="edge">
<title>taxonomic rank&#45;&gt;description</title>
<path fill="none" stroke="blue" d="M614.51,-87.21C625.5,-74.75 640.66,-57.57 653.01,-43.57"/>
<polygon fill="blue" stroke="blue" points="655.91,-45.57 659.91,-35.76 650.67,-40.94 655.91,-45.57"/>
<text text-anchor="middle" x="682.19" y="-57.8" font-family="Times,serif" font-size="14.00">description</text>
</g>
<!-- source -->
<g id="node8" class="node">
<title>source</title>
<ellipse fill="none" stroke="blue" cx="824.69" cy="-18" rx="56.59" ry="18"/>
<text text-anchor="middle" x="824.69" y="-14.3" font-family="Times,serif" font-size="14.00">label type</text>
</g>
<!-- taxonomic rank&#45;&gt;source -->
<g id="edge7" class="edge">
<title>taxonomic rank&#45;&gt;source</title>
<path fill="none" stroke="blue" d="M654.55,-91.48C677.22,-85.64 703.56,-77.98 726.69,-69 748.32,-60.6 771.49,-48.92 789.87,-38.95"/>
<polygon fill="blue" stroke="blue" points="791.66,-41.96 798.74,-34.07 788.29,-35.83 791.66,-41.96"/>
<text text-anchor="middle" x="784.69" y="-57.8" font-family="Times,serif" font-size="14.00">source</text>
</g>
<!-- provided by -->
<g id="node9" class="node">
<title>provided by</title>
<ellipse fill="none" stroke="blue" cx="936.69" cy="-18" rx="37.09" ry="18"/>
<text text-anchor="middle" x="936.69" y="-14.3" font-family="Times,serif" font-size="14.00">agent</text>
</g>
<!-- taxonomic rank&#45;&gt;provided by -->
<g id="edge8" class="edge">
<title>taxonomic rank&#45;&gt;provided by</title>
<path fill="none" stroke="blue" d="M659.35,-92.52C669.79,-90.61 680.55,-88.7 690.69,-87 744.75,-77.97 759.8,-83.35 812.69,-69 843.74,-60.58 877.52,-46.62 901.97,-35.59"/>
<polygon fill="blue" stroke="blue" points="903.55,-38.71 911.18,-31.37 900.63,-32.35 903.55,-38.71"/>
<text text-anchor="middle" x="897.19" y="-57.8" font-family="Times,serif" font-size="14.00">provided by</text>
</g>
<!-- has attribute -->
<g id="node10" class="node">
<title>has attribute</title>
<ellipse fill="none" stroke="blue" cx="1043.69" cy="-18" rx="51.99" ry="18"/>
<text text-anchor="middle" x="1043.69" y="-14.3" font-family="Times,serif" font-size="14.00">attribute</text>
</g>
<!-- taxonomic rank&#45;&gt;has attribute -->
<g id="edge9" class="edge">
<title>taxonomic rank&#45;&gt;has attribute</title>
<path fill="none" stroke="blue" d="M657.79,-92.13C668.69,-90.19 680.01,-88.37 690.69,-87 802.5,-72.63 834.97,-98.78 943.69,-69 967.5,-62.48 992.34,-50.1 1011.3,-39.28"/>
<polygon fill="blue" stroke="blue" points="1013.24,-42.2 1020.11,-34.14 1009.71,-36.16 1013.24,-42.2"/>
<text text-anchor="middle" x="1028.69" y="-57.8" font-family="Times,serif" font-size="14.00">has attribute</text>
</g>
<!-- category -->
<g id="node11" class="node">
<title>category</title>
<ellipse fill="none" stroke="black" cx="1164.69" cy="-18" rx="51.19" ry="18"/>
<text text-anchor="middle" x="1164.69" y="-14.3" font-family="Times,serif" font-size="14.00">category</text>
</g>
<!-- taxonomic rank&#45;&gt;category -->
<g id="edge10" class="edge">
<title>taxonomic rank&#45;&gt;category</title>
<path fill="none" stroke="blue" d="M657.28,-92C668.33,-90.05 679.84,-88.26 690.69,-87 776.65,-77.03 996.74,-93.66 1079.69,-69 1099.91,-62.99 1120.35,-51.19 1136.12,-40.56"/>
<polygon fill="blue" stroke="blue" points="1138.16,-43.4 1144.37,-34.82 1134.16,-37.65 1138.16,-43.4"/>
<text text-anchor="middle" x="1143.19" y="-57.8" font-family="Times,serif" font-size="14.00">category</text>
</g>
<!-- named thing_category -->
<g id="node12" class="node">
<title>named thing_category</title>
<ellipse fill="none" stroke="blue" cx="769.69" cy="-105" rx="69.59" ry="18"/>
<text text-anchor="middle" x="769.69" y="-101.3" font-family="Times,serif" font-size="14.00">named thing</text>
</g>
</g>
</svg>
