<?xml version="1.0" encoding="UTF-8" standalone="no"?>
<!DOCTYPE svg PUBLIC "-//W3C//DTD SVG 1.1//EN"
 "http://www.w3.org/Graphics/SVG/1.1/DTD/svg11.dtd">
<!-- Generated by graphviz version 2.43.0 (0)
 -->
<!-- Title: %3 Pages: 1 -->
<svg width="1666pt" height="131pt"
 viewBox="0.00 0.00 1665.68 131.00" xmlns="http://www.w3.org/2000/svg" xmlns:xlink="http://www.w3.org/1999/xlink">
<g id="graph0" class="graph" transform="scale(1 1) rotate(0) translate(4 127)">
<title>%3</title>
<polygon fill="white" stroke="transparent" points="-4,4 -4,-127 1661.68,-127 1661.68,4 -4,4"/>
<!-- variantcomponentservicetype -->
<g id="node1" class="node">
<title>variantcomponentservicetype</title>
<ellipse fill="none" stroke="black" cx="763.19" cy="-105" rx="148.67" ry="18"/>
<text text-anchor="middle" x="763.19" y="-101.3" font-family="Times,serif" font-size="14.00">variantcomponentservicetype</text>
</g>
<!-- workload entity -->
<g id="node2" class="node">
<title>workload entity</title>
<ellipse fill="none" stroke="black" cx="83.19" cy="-18" rx="83.39" ry="18"/>
<text text-anchor="middle" x="83.19" y="-14.3" font-family="Times,serif" font-size="14.00">workload entity</text>
</g>
<!-- variantcomponentservicetype&#45;&gt;workload entity -->
<g id="edge1" class="edge">
<title>variantcomponentservicetype&#45;&gt;workload entity</title>
<path fill="none" stroke="black" d="M626.35,-97.89C538.07,-92.8 420.96,-83.91 318.19,-69 258.84,-60.39 192.04,-45.68 144.87,-34.44"/>
<polygon fill="black" stroke="black" points="145.65,-31.03 135.11,-32.1 144.01,-37.83 145.65,-31.03"/>
<text text-anchor="middle" x="332.19" y="-57.8" font-family="Times,serif" font-size="14.00">is_a</text>
</g>
<!-- id -->
<g id="node3" class="node">
<title>id</title>
<ellipse fill="none" stroke="blue" cx="223.19" cy="-18" rx="38.19" ry="18"/>
<text text-anchor="middle" x="223.19" y="-14.3" font-family="Times,serif" font-size="14.00">string</text>
</g>
<!-- variantcomponentservicetype&#45;&gt;id -->
<g id="edge2" class="edge">
<title>variantcomponentservicetype&#45;&gt;id</title>
<path fill="none" stroke="blue" d="M635.42,-95.72C534.98,-86.99 392.3,-69.6 271.19,-36 268.08,-35.14 264.88,-34.17 261.69,-33.16"/>
<polygon fill="blue" stroke="blue" points="262.77,-29.83 252.18,-30 260.56,-36.47 262.77,-29.83"/>
<text text-anchor="middle" x="425.19" y="-57.8" font-family="Times,serif" font-size="14.00">id</text>
</g>
<!-- iri -->
<g id="node4" class="node">
<title>iri</title>
<ellipse fill="none" stroke="blue" cx="324.19" cy="-18" rx="44.39" ry="18"/>
<text text-anchor="middle" x="324.19" y="-14.3" font-family="Times,serif" font-size="14.00">iri type</text>
</g>
<!-- variantcomponentservicetype&#45;&gt;iri -->
<g id="edge3" class="edge">
<title>variantcomponentservicetype&#45;&gt;iri</title>
<path fill="none" stroke="blue" d="M664.82,-91.44C621.29,-85.42 569.55,-77.64 523.19,-69 458.22,-56.89 441.99,-53.27 378.19,-36 374.61,-35.03 370.92,-33.98 367.22,-32.89"/>
<polygon fill="blue" stroke="blue" points="368.07,-29.49 357.48,-29.95 366.04,-36.19 368.07,-29.49"/>
<text text-anchor="middle" x="531.19" y="-57.8" font-family="Times,serif" font-size="14.00">iri</text>
</g>
<!-- type -->
<g id="node5" class="node">
<title>type</title>
<ellipse fill="none" stroke="blue" cx="425.19" cy="-18" rx="38.19" ry="18"/>
<text text-anchor="middle" x="425.19" y="-14.3" font-family="Times,serif" font-size="14.00">string</text>
</g>
<!-- variantcomponentservicetype&#45;&gt;type -->
<g id="edge4" class="edge">
<title>variantcomponentservicetype&#45;&gt;type</title>
<path fill="none" stroke="blue" d="M688.29,-89.44C629.07,-77.22 544.61,-58.23 472.19,-36 469.43,-35.15 466.59,-34.24 463.75,-33.29"/>
<polygon fill="blue" stroke="blue" points="464.72,-29.92 454.13,-29.97 462.44,-36.54 464.72,-29.92"/>
<text text-anchor="middle" x="607.19" y="-57.8" font-family="Times,serif" font-size="14.00">type</text>
</g>
<!-- name -->
<g id="node6" class="node">
<title>name</title>
<ellipse fill="none" stroke="blue" cx="538.19" cy="-18" rx="56.59" ry="18"/>
<text text-anchor="middle" x="538.19" y="-14.3" font-family="Times,serif" font-size="14.00">label type</text>
</g>
<!-- variantcomponentservicetype&#45;&gt;name -->
<g id="edge5" class="edge">
<title>variantcomponentservicetype&#45;&gt;name</title>
<path fill="none" stroke="blue" d="M720.08,-87.71C680.7,-72.84 622.73,-50.94 582.87,-35.88"/>
<polygon fill="blue" stroke="blue" points="584,-32.56 573.4,-32.3 581.52,-39.11 584,-32.56"/>
<text text-anchor="middle" x="684.19" y="-57.8" font-family="Times,serif" font-size="14.00">name</text>
</g>
<!-- description -->
<g id="node7" class="node">
<title>description</title>
<ellipse fill="none" stroke="blue" cx="688.19" cy="-18" rx="75.29" ry="18"/>
<text text-anchor="middle" x="688.19" y="-14.3" font-family="Times,serif" font-size="14.00">narrative text</text>
</g>
<!-- variantcomponentservicetype&#45;&gt;description -->
<g id="edge6" class="edge">
<title>variantcomponentservicetype&#45;&gt;description</title>
<path fill="none" stroke="blue" d="M748.02,-86.8C737.07,-74.39 722.13,-57.46 709.91,-43.62"/>
<polygon fill="blue" stroke="blue" points="712.33,-41.07 703.09,-35.89 707.08,-45.7 712.33,-41.07"/>
<text text-anchor="middle" x="770.69" y="-57.8" font-family="Times,serif" font-size="14.00">description</text>
</g>
<!-- source -->
<g id="node8" class="node">
<title>source</title>
<ellipse fill="none" stroke="blue" cx="838.19" cy="-18" rx="56.59" ry="18"/>
<text text-anchor="middle" x="838.19" y="-14.3" font-family="Times,serif" font-size="14.00">label type</text>
</g>
<!-- variantcomponentservicetype&#45;&gt;source -->
<g id="edge7" class="edge">
<title>variantcomponentservicetype&#45;&gt;source</title>
<path fill="none" stroke="blue" d="M794.05,-87.26C801.64,-82.13 809.27,-75.96 815.19,-69 821,-62.17 825.64,-53.63 829.19,-45.55"/>
<polygon fill="blue" stroke="blue" points="832.52,-46.65 832.98,-36.07 826.02,-44.05 832.52,-46.65"/>
<text text-anchor="middle" x="849.19" y="-57.8" font-family="Times,serif" font-size="14.00">source</text>
</g>
<!-- provided by -->
<g id="node9" class="node">
<title>provided by</title>
<ellipse fill="none" stroke="blue" cx="950.19" cy="-18" rx="37.09" ry="18"/>
<text text-anchor="middle" x="950.19" y="-14.3" font-family="Times,serif" font-size="14.00">agent</text>
</g>
<!-- variantcomponentservicetype&#45;&gt;provided by -->
<g id="edge8" class="edge">
<title>variantcomponentservicetype&#45;&gt;provided by</title>
<path fill="none" stroke="blue" d="M825.43,-88.61C842.6,-83.37 860.97,-76.82 877.19,-69 893.54,-61.12 910.34,-49.87 923.7,-40.03"/>
<polygon fill="blue" stroke="blue" points="926.06,-42.63 931.94,-33.82 921.85,-37.04 926.06,-42.63"/>
<text text-anchor="middle" x="945.69" y="-57.8" font-family="Times,serif" font-size="14.00">provided by</text>
</g>
<!-- has attribute -->
<g id="node10" class="node">
<title>has attribute</title>
<ellipse fill="none" stroke="blue" cx="1057.19" cy="-18" rx="51.99" ry="18"/>
<text text-anchor="middle" x="1057.19" y="-14.3" font-family="Times,serif" font-size="14.00">attribute</text>
</g>
<!-- variantcomponentservicetype&#45;&gt;has attribute -->
<g id="edge9" class="edge">
<title>variantcomponentservicetype&#45;&gt;has attribute</title>
<path fill="none" stroke="blue" d="M871.76,-92.62C919.8,-86.52 970.32,-78.34 992.19,-69 1007.3,-62.55 1021.99,-51.76 1033.57,-41.85"/>
<polygon fill="blue" stroke="blue" points="1035.91,-44.45 1041.06,-35.19 1031.26,-39.22 1035.91,-44.45"/>
<text text-anchor="middle" x="1065.19" y="-57.8" font-family="Times,serif" font-size="14.00">has attribute</text>
</g>
<!-- category -->
<g id="node11" class="node">
<title>category</title>
<ellipse fill="none" stroke="black" cx="1178.19" cy="-18" rx="51.19" ry="18"/>
<text text-anchor="middle" x="1178.19" y="-14.3" font-family="Times,serif" font-size="14.00">category</text>
</g>
<!-- variantcomponentservicetype&#45;&gt;category -->
<g id="edge10" class="edge">
<title>variantcomponentservicetype&#45;&gt;category</title>
<path fill="none" stroke="blue" d="M869.16,-92.29C886.22,-90.47 903.69,-88.65 920.19,-87 963.71,-82.65 1075.66,-85.43 1116.19,-69 1130.84,-63.06 1144.76,-52.47 1155.69,-42.55"/>
<polygon fill="blue" stroke="blue" points="1158.24,-44.95 1163.08,-35.53 1153.42,-39.87 1158.24,-44.95"/>
<text text-anchor="middle" x="1172.69" y="-57.8" font-family="Times,serif" font-size="14.00">category</text>
</g>
<!-- in taxon -->
<g id="node13" class="node">
<title>in taxon</title>
<ellipse fill="none" stroke="blue" cx="1320.19" cy="-18" rx="72.59" ry="18"/>
<text text-anchor="middle" x="1320.19" y="-14.3" font-family="Times,serif" font-size="14.00">system taxon</text>
</g>
<!-- variantcomponentservicetype&#45;&gt;in taxon -->
<g id="edge11" class="edge">
<title>variantcomponentservicetype&#45;&gt;in taxon</title>
<path fill="none" stroke="blue" d="M867,-92.09C884.74,-90.24 902.98,-88.47 920.19,-87 1047.98,-76.09 1083.65,-99.63 1208.19,-69 1234.31,-62.58 1261.92,-50.32 1283.19,-39.55"/>
<polygon fill="blue" stroke="blue" points="1284.92,-42.6 1292.19,-34.89 1281.7,-36.38 1284.92,-42.6"/>
<text text-anchor="middle" x="1279.19" y="-57.8" font-family="Times,serif" font-size="14.00">in taxon</text>
</g>
<!-- has computational sequence -->
<g id="node14" class="node">
<title>has computational sequence</title>
<ellipse fill="none" stroke="blue" cx="1534.19" cy="-18" rx="123.48" ry="18"/>
<text text-anchor="middle" x="1534.19" y="-14.3" font-family="Times,serif" font-size="14.00">computational sequence</text>
</g>
<!-- variantcomponentservicetype&#45;&gt;has computational sequence -->
<g id="edge12" class="edge">
<title>variantcomponentservicetype&#45;&gt;has computational sequence</title>
<path fill="none" stroke="blue" d="M866.14,-91.93C884.14,-90.08 902.7,-88.35 920.19,-87 1094.08,-73.61 1139.34,-92.25 1312.19,-69 1365.88,-61.78 1425.75,-47.95 1469.78,-36.66"/>
<polygon fill="blue" stroke="blue" points="1470.68,-40.04 1479.48,-34.15 1468.93,-33.26 1470.68,-40.04"/>
<text text-anchor="middle" x="1494.69" y="-57.8" font-family="Times,serif" font-size="14.00">has computational sequence</text>
</g>
<!-- named thing_category -->
<g id="node12" class="node">
<title>named thing_category</title>
<ellipse fill="none" stroke="blue" cx="999.19" cy="-105" rx="69.59" ry="18"/>
<text text-anchor="middle" x="999.19" y="-101.3" font-family="Times,serif" font-size="14.00">named thing</text>
</g>
</g>
</svg>
