<?xml version="1.0" encoding="UTF-8" standalone="no"?>
<!DOCTYPE svg PUBLIC "-//W3C//DTD SVG 1.1//EN"
 "http://www.w3.org/Graphics/SVG/1.1/DTD/svg11.dtd">
<!-- Generated by graphviz version 2.43.0 (0)
 -->
<!-- Title: %3 Pages: 1 -->
<svg width="3239pt" height="291pt"
 viewBox="0.00 0.00 3238.98 291.00" xmlns="http://www.w3.org/2000/svg" xmlns:xlink="http://www.w3.org/1999/xlink">
<g id="graph0" class="graph" transform="scale(1 1) rotate(0) translate(4 287)">
<title>%3</title>
<polygon fill="white" stroke="transparent" points="-4,4 -4,-287 3234.98,-287 3234.98,4 -4,4"/>
<!-- variant as a model of error association -->
<g id="node1" class="node">
<title>variant as a model of error association</title>
<ellipse fill="none" stroke="black" cx="1882.79" cy="-265" rx="189.57" ry="18"/>
<text text-anchor="middle" x="1882.79" y="-261.3" font-family="Times,serif" font-size="14.00">variant as a model of error association</text>
</g>
<!-- variant to error association -->
<g id="node2" class="node">
<title>variant to error association</title>
<ellipse fill="none" stroke="black" cx="137.79" cy="-178" rx="137.58" ry="18"/>
<text text-anchor="middle" x="137.79" y="-174.3" font-family="Times,serif" font-size="14.00">variant to error association</text>
</g>
<!-- variant as a model of error association&#45;&gt;variant to error association -->
<g id="edge1" class="edge">
<title>variant as a model of error association&#45;&gt;variant to error association</title>
<path fill="none" stroke="black" d="M1698.25,-260.7C1472.38,-256.13 1078.29,-246.38 740.79,-229 537.86,-218.55 487.09,-215.01 284.79,-196 271.95,-194.79 258.49,-193.41 245.15,-191.96"/>
<polygon fill="black" stroke="black" points="245.31,-188.45 234.98,-190.84 244.54,-195.41 245.31,-188.45"/>
<text text-anchor="middle" x="754.79" y="-217.8" font-family="Times,serif" font-size="14.00">is_a</text>
</g>
<!-- model to error association mixin -->
<g id="node3" class="node">
<title>model to error association mixin</title>
<ellipse fill="none" stroke="black" cx="454.79" cy="-178" rx="161.37" ry="18"/>
<text text-anchor="middle" x="454.79" y="-174.3" font-family="Times,serif" font-size="14.00">model to error association mixin</text>
</g>
<!-- variant as a model of error association&#45;&gt;model to error association mixin -->
<g id="edge2" class="edge">
<title>variant as a model of error association&#45;&gt;model to error association mixin</title>
<path fill="none" stroke="black" d="M1698.74,-260.55C1510.23,-256.2 1208.81,-247.01 948.79,-229 819.09,-220.02 670.75,-204.26 570.75,-192.84"/>
<polygon fill="black" stroke="black" points="570.96,-189.34 560.62,-191.67 570.16,-196.29 570.96,-189.34"/>
<text text-anchor="middle" x="965.29" y="-217.8" font-family="Times,serif" font-size="14.00">uses</text>
</g>
<!-- entity to error association mixin -->
<g id="node4" class="node">
<title>entity to error association mixin</title>
<ellipse fill="none" stroke="black" cx="794.79" cy="-178" rx="160.57" ry="18"/>
<text text-anchor="middle" x="794.79" y="-174.3" font-family="Times,serif" font-size="14.00">entity to error association mixin</text>
</g>
<!-- variant as a model of error association&#45;&gt;entity to error association mixin -->
<g id="edge3" class="edge">
<title>variant as a model of error association&#45;&gt;entity to error association mixin</title>
<path fill="none" stroke="black" d="M1695.31,-262.17C1534.73,-259.05 1297.52,-250.79 1091.79,-229 1019.41,-221.34 937.93,-207.22 878.65,-195.94"/>
<polygon fill="black" stroke="black" points="879.07,-192.46 868.59,-194.01 877.75,-199.33 879.07,-192.46"/>
<text text-anchor="middle" x="1108.29" y="-217.8" font-family="Times,serif" font-size="14.00">uses</text>
</g>
<!-- id -->
<g id="node5" class="node">
<title>id</title>
<ellipse fill="none" stroke="blue" cx="1011.79" cy="-178" rx="38.19" ry="18"/>
<text text-anchor="middle" x="1011.79" y="-174.3" font-family="Times,serif" font-size="14.00">string</text>
</g>
<!-- variant as a model of error association&#45;&gt;id -->
<g id="edge4" class="edge">
<title>variant as a model of error association&#45;&gt;id</title>
<path fill="none" stroke="blue" d="M1696.29,-261.56C1563.28,-258.02 1380.46,-249.47 1220.79,-229 1148.34,-219.71 1130.16,-215.57 1059.79,-196 1056.68,-195.14 1053.48,-194.17 1050.28,-193.15"/>
<polygon fill="blue" stroke="blue" points="1051.37,-189.83 1040.77,-189.99 1049.16,-196.47 1051.37,-189.83"/>
<text text-anchor="middle" x="1227.79" y="-217.8" font-family="Times,serif" font-size="14.00">id</text>
</g>
<!-- iri -->
<g id="node6" class="node">
<title>iri</title>
<ellipse fill="none" stroke="blue" cx="1112.79" cy="-178" rx="44.39" ry="18"/>
<text text-anchor="middle" x="1112.79" y="-174.3" font-family="Times,serif" font-size="14.00">iri type</text>
</g>
<!-- variant as a model of error association&#45;&gt;iri -->
<g id="edge5" class="edge">
<title>variant as a model of error association&#45;&gt;iri</title>
<path fill="none" stroke="blue" d="M1702.44,-259.36C1592.37,-254.88 1449,-246.12 1322.79,-229 1252.13,-219.42 1234.72,-214.25 1165.79,-196 1162.42,-195.11 1158.94,-194.13 1155.46,-193.11"/>
<polygon fill="blue" stroke="blue" points="1156.3,-189.7 1145.71,-190.14 1154.26,-196.4 1156.3,-189.7"/>
<text text-anchor="middle" x="1330.79" y="-217.8" font-family="Times,serif" font-size="14.00">iri</text>
</g>
<!-- name -->
<g id="node7" class="node">
<title>name</title>
<ellipse fill="none" stroke="blue" cx="1231.79" cy="-178" rx="56.59" ry="18"/>
<text text-anchor="middle" x="1231.79" y="-174.3" font-family="Times,serif" font-size="14.00">label type</text>
</g>
<!-- variant as a model of error association&#45;&gt;name -->
<g id="edge6" class="edge">
<title>variant as a model of error association&#45;&gt;name</title>
<path fill="none" stroke="blue" d="M1701.51,-259.61C1611.7,-255.19 1501.95,-246.4 1404.79,-229 1360.95,-221.15 1312.34,-206.56 1277.84,-195.15"/>
<polygon fill="blue" stroke="blue" points="1278.64,-191.73 1268.05,-191.88 1276.42,-198.37 1278.64,-191.73"/>
<text text-anchor="middle" x="1424.79" y="-217.8" font-family="Times,serif" font-size="14.00">name</text>
</g>
<!-- description -->
<g id="node8" class="node">
<title>description</title>
<ellipse fill="none" stroke="blue" cx="1381.79" cy="-178" rx="75.29" ry="18"/>
<text text-anchor="middle" x="1381.79" y="-174.3" font-family="Times,serif" font-size="14.00">narrative text</text>
</g>
<!-- variant as a model of error association&#45;&gt;description -->
<g id="edge7" class="edge">
<title>variant as a model of error association&#45;&gt;description</title>
<path fill="none" stroke="blue" d="M1721.4,-255.52C1631.9,-249.68 1530.15,-240.83 1486.79,-229 1462.57,-222.4 1437.12,-210.41 1417.33,-199.84"/>
<polygon fill="blue" stroke="blue" points="1418.84,-196.67 1408.39,-194.94 1415.48,-202.81 1418.84,-196.67"/>
<text text-anchor="middle" x="1527.29" y="-217.8" font-family="Times,serif" font-size="14.00">description</text>
</g>
<!-- source -->
<g id="node9" class="node">
<title>source</title>
<ellipse fill="none" stroke="blue" cx="1531.79" cy="-178" rx="56.59" ry="18"/>
<text text-anchor="middle" x="1531.79" y="-174.3" font-family="Times,serif" font-size="14.00">label type</text>
</g>
<!-- variant as a model of error association&#45;&gt;source -->
<g id="edge8" class="edge">
<title>variant as a model of error association&#45;&gt;source</title>
<path fill="none" stroke="blue" d="M1737.72,-253.31C1680.69,-247.64 1622.71,-239.62 1596.79,-229 1581.59,-222.77 1566.89,-212 1555.32,-202.05"/>
<polygon fill="blue" stroke="blue" points="1557.63,-199.42 1547.85,-195.36 1552.96,-204.64 1557.63,-199.42"/>
<text text-anchor="middle" x="1620.79" y="-217.8" font-family="Times,serif" font-size="14.00">source</text>
</g>
<!-- provided by -->
<g id="node10" class="node">
<title>provided by</title>
<ellipse fill="none" stroke="blue" cx="1643.79" cy="-178" rx="37.09" ry="18"/>
<text text-anchor="middle" x="1643.79" y="-174.3" font-family="Times,serif" font-size="14.00">agent</text>
</g>
<!-- variant as a model of error association&#45;&gt;provided by -->
<g id="edge9" class="edge">
<title>variant as a model of error association&#45;&gt;provided by</title>
<path fill="none" stroke="blue" d="M1736.37,-253.53C1701.62,-248.34 1670.83,-240.58 1657.79,-229 1651.27,-223.21 1647.68,-214.67 1645.73,-206.27"/>
<polygon fill="blue" stroke="blue" points="1649.17,-205.59 1644.09,-196.29 1642.26,-206.73 1649.17,-205.59"/>
<text text-anchor="middle" x="1700.29" y="-217.8" font-family="Times,serif" font-size="14.00">provided by</text>
</g>
<!-- has attribute -->
<g id="node11" class="node">
<title>has attribute</title>
<ellipse fill="none" stroke="blue" cx="1750.79" cy="-178" rx="51.99" ry="18"/>
<text text-anchor="middle" x="1750.79" y="-174.3" font-family="Times,serif" font-size="14.00">attribute</text>
</g>
<!-- variant as a model of error association&#45;&gt;has attribute -->
<g id="edge10" class="edge">
<title>variant as a model of error association&#45;&gt;has attribute</title>
<path fill="none" stroke="blue" d="M1795.5,-249.01C1775.46,-243.76 1758.14,-237.11 1751.79,-229 1746.8,-222.63 1745.31,-214.28 1745.43,-206.23"/>
<polygon fill="blue" stroke="blue" points="1748.94,-206.28 1746.36,-196.01 1741.97,-205.65 1748.94,-206.28"/>
<text text-anchor="middle" x="1798.79" y="-217.8" font-family="Times,serif" font-size="14.00">has attribute</text>
</g>
<!-- relation -->
<g id="node12" class="node">
<title>relation</title>
<ellipse fill="none" stroke="blue" cx="2760.79" cy="-18" rx="57.39" ry="18"/>
<text text-anchor="middle" x="2760.79" y="-14.3" font-family="Times,serif" font-size="14.00">uriorcurie</text>
</g>
<!-- variant as a model of error association&#45;&gt;relation -->
<g id="edge11" class="edge">
<title>variant as a model of error association&#45;&gt;relation</title>
<path fill="none" stroke="blue" d="M1868.49,-246.91C1851.56,-224.53 1828.21,-185.17 1849.79,-160 1959.03,-32.55 2500.9,-19.3 2693.07,-18.66"/>
<polygon fill="blue" stroke="blue" points="2693.32,-22.16 2703.31,-18.64 2693.31,-15.16 2693.32,-22.16"/>
<text text-anchor="middle" x="1919.79" y="-130.8" font-family="Times,serif" font-size="14.00">relation</text>
</g>
<!-- negated -->
<g id="node13" class="node">
<title>negated</title>
<ellipse fill="none" stroke="blue" cx="1905.79" cy="-178" rx="46.59" ry="18"/>
<text text-anchor="middle" x="1905.79" y="-174.3" font-family="Times,serif" font-size="14.00">boolean</text>
</g>
<!-- variant as a model of error association&#45;&gt;negated -->
<g id="edge12" class="edge">
<title>variant as a model of error association&#45;&gt;negated</title>
<path fill="none" stroke="blue" d="M1887.44,-246.8C1890.62,-235.05 1894.9,-219.24 1898.52,-205.84"/>
<polygon fill="blue" stroke="blue" points="1901.91,-206.74 1901.14,-196.18 1895.15,-204.91 1901.91,-206.74"/>
<text text-anchor="middle" x="1924.79" y="-217.8" font-family="Times,serif" font-size="14.00">negated</text>
</g>
<!-- qualifiers -->
<g id="node14" class="node">
<title>qualifiers</title>
<ellipse fill="none" stroke="blue" cx="2046.79" cy="-178" rx="76.89" ry="18"/>
<text text-anchor="middle" x="2046.79" y="-174.3" font-family="Times,serif" font-size="14.00">ontology class</text>
</g>
<!-- variant as a model of error association&#45;&gt;qualifiers -->
<g id="edge13" class="edge">
<title>variant as a model of error association&#45;&gt;qualifiers</title>
<path fill="none" stroke="blue" d="M1920.06,-247.28C1932.18,-241.66 1945.64,-235.23 1957.79,-229 1975.45,-219.93 1994.69,-209.23 2010.76,-200.05"/>
<polygon fill="blue" stroke="blue" points="2012.88,-202.87 2019.81,-194.85 2009.39,-196.8 2012.88,-202.87"/>
<text text-anchor="middle" x="2019.29" y="-217.8" font-family="Times,serif" font-size="14.00">qualifiers</text>
</g>
<!-- publications -->
<g id="node15" class="node">
<title>publications</title>
<ellipse fill="none" stroke="blue" cx="2203.79" cy="-178" rx="62.29" ry="18"/>
<text text-anchor="middle" x="2203.79" y="-174.3" font-family="Times,serif" font-size="14.00">publication</text>
</g>
<!-- variant as a model of error association&#45;&gt;publications -->
<g id="edge14" class="edge">
<title>variant as a model of error association&#45;&gt;publications</title>
<path fill="none" stroke="blue" d="M1969.15,-248.92C1997.27,-243.4 2028.52,-236.62 2056.79,-229 2091.13,-219.75 2129.12,-206.75 2157.88,-196.33"/>
<polygon fill="blue" stroke="blue" points="2159.45,-199.48 2167.64,-192.76 2157.05,-192.9 2159.45,-199.48"/>
<text text-anchor="middle" x="2150.79" y="-217.8" font-family="Times,serif" font-size="14.00">publications</text>
</g>
<!-- type -->
<g id="node16" class="node">
<title>type</title>
<ellipse fill="none" stroke="black" cx="2315.79" cy="-178" rx="31.4" ry="18"/>
<text text-anchor="middle" x="2315.79" y="-174.3" font-family="Times,serif" font-size="14.00">type</text>
</g>
<!-- variant as a model of error association&#45;&gt;type -->
<g id="edge15" class="edge">
<title>variant as a model of error association&#45;&gt;type</title>
<path fill="none" stroke="blue" d="M2021.38,-252.66C2090.21,-246.22 2165.62,-237.72 2198.79,-229 2229.02,-221.05 2261.58,-206.61 2284.65,-195.29"/>
<polygon fill="blue" stroke="blue" points="2286.24,-198.41 2293.62,-190.81 2283.11,-192.15 2286.24,-198.41"/>
<text text-anchor="middle" x="2257.79" y="-217.8" font-family="Times,serif" font-size="14.00">type</text>
</g>
<!-- category -->
<g id="node18" class="node">
<title>category</title>
<ellipse fill="none" stroke="black" cx="2416.79" cy="-178" rx="51.19" ry="18"/>
<text text-anchor="middle" x="2416.79" y="-174.3" font-family="Times,serif" font-size="14.00">category</text>
</g>
<!-- variant as a model of error association&#45;&gt;category -->
<g id="edge16" class="edge">
<title>variant as a model of error association&#45;&gt;category</title>
<path fill="none" stroke="blue" d="M2018.4,-252.39C2130.15,-242.76 2271.33,-230.42 2277.79,-229 2312.18,-221.42 2349.67,-207.59 2377.03,-196.39"/>
<polygon fill="blue" stroke="blue" points="2378.38,-199.62 2386.27,-192.55 2375.69,-193.16 2378.38,-199.62"/>
<text text-anchor="middle" x="2360.29" y="-217.8" font-family="Times,serif" font-size="14.00">category</text>
</g>
<!-- predicate -->
<g id="node20" class="node">
<title>predicate</title>
<ellipse fill="none" stroke="black" cx="2540.79" cy="-178" rx="54.69" ry="18"/>
<text text-anchor="middle" x="2540.79" y="-174.3" font-family="Times,serif" font-size="14.00">predicate</text>
</g>
<!-- variant as a model of error association&#45;&gt;predicate -->
<g id="edge17" class="edge">
<title>variant as a model of error association&#45;&gt;predicate</title>
<path fill="none" stroke="blue" d="M2015.75,-252.12C2037.8,-250.3 2060.43,-248.52 2081.79,-247 2221.22,-237.05 2258.64,-256.04 2395.79,-229 2431.78,-221.9 2471.02,-207.97 2499.6,-196.61"/>
<polygon fill="blue" stroke="blue" points="2501.28,-199.7 2509.24,-192.71 2498.65,-193.21 2501.28,-199.7"/>
<text text-anchor="middle" x="2482.79" y="-217.8" font-family="Times,serif" font-size="14.00">predicate</text>
</g>
<!-- object -->
<g id="node22" class="node">
<title>object</title>
<ellipse fill="none" stroke="black" cx="2760.79" cy="-91" rx="38.99" ry="18"/>
<text text-anchor="middle" x="2760.79" y="-87.3" font-family="Times,serif" font-size="14.00">object</text>
</g>
<!-- variant as a model of error association&#45;&gt;object -->
<g id="edge18" class="edge">
<title>variant as a model of error association&#45;&gt;object</title>
<path fill="none" stroke="blue" d="M2013.85,-251.97C2036.5,-250.13 2059.81,-248.39 2081.79,-247 2179.23,-240.84 2425.25,-249.13 2520.79,-229 2560.04,-220.73 2571.23,-217.98 2604.79,-196 2623.72,-183.6 2622.78,-173.7 2640.79,-160 2667.32,-139.81 2700.48,-121.47 2725.22,-108.94"/>
<polygon fill="blue" stroke="blue" points="2726.87,-112.03 2734.25,-104.43 2723.74,-105.76 2726.87,-112.03"/>
<text text-anchor="middle" x="2662.79" y="-174.3" font-family="Times,serif" font-size="14.00">object</text>
</g>
<!-- frequency qualifier -->
<g id="node24" class="node">
<title>frequency qualifier</title>
<ellipse fill="none" stroke="blue" cx="2778.79" cy="-178" rx="85.29" ry="18"/>
<text text-anchor="middle" x="2778.79" y="-174.3" font-family="Times,serif" font-size="14.00">frequency value</text>
</g>
<!-- variant as a model of error association&#45;&gt;frequency qualifier -->
<g id="edge19" class="edge">
<title>variant as a model of error association&#45;&gt;frequency qualifier</title>
<path fill="none" stroke="blue" d="M2013.04,-251.87C2035.94,-250.02 2059.55,-248.3 2081.79,-247 2206.97,-239.66 2522.79,-253.39 2645.79,-229 2677.22,-222.77 2711,-209.99 2736.65,-198.91"/>
<polygon fill="blue" stroke="blue" points="2738.32,-201.99 2746.06,-194.76 2735.5,-195.59 2738.32,-201.99"/>
<text text-anchor="middle" x="2766.79" y="-217.8" font-family="Times,serif" font-size="14.00">frequency qualifier</text>
</g>
<!-- severity qualifier -->
<g id="node25" class="node">
<title>severity qualifier</title>
<ellipse fill="none" stroke="blue" cx="2957.79" cy="-178" rx="76.09" ry="18"/>
<text text-anchor="middle" x="2957.79" y="-174.3" font-family="Times,serif" font-size="14.00">severity value</text>
</g>
<!-- variant as a model of error association&#45;&gt;severity qualifier -->
<g id="edge20" class="edge">
<title>variant as a model of error association&#45;&gt;severity qualifier</title>
<path fill="none" stroke="blue" d="M2011.97,-251.8C2035.19,-249.94 2059.2,-248.23 2081.79,-247 2165.8,-242.42 2756.51,-246.6 2838.79,-229 2867.1,-222.94 2897.14,-210.26 2919.96,-199.19"/>
<polygon fill="blue" stroke="blue" points="2921.56,-202.31 2928.96,-194.73 2918.44,-196.04 2921.56,-202.31"/>
<text text-anchor="middle" x="2947.79" y="-217.8" font-family="Times,serif" font-size="14.00">severity qualifier</text>
</g>
<!-- onset qualifier -->
<g id="node26" class="node">
<title>onset qualifier</title>
<ellipse fill="none" stroke="blue" cx="3087.79" cy="-178" rx="36.29" ry="18"/>
<text text-anchor="middle" x="3087.79" y="-174.3" font-family="Times,serif" font-size="14.00">onset</text>
</g>
<!-- variant as a model of error association&#45;&gt;onset qualifier -->
<g id="edge21" class="edge">
<title>variant as a model of error association&#45;&gt;onset qualifier</title>
<path fill="none" stroke="blue" d="M2011.43,-251.76C2034.82,-249.89 2059.02,-248.19 2081.79,-247 2133.45,-244.3 2963.42,-244.47 3012.79,-229 3031.21,-223.23 3049.3,-211.4 3063.1,-200.7"/>
<polygon fill="blue" stroke="blue" points="3065.51,-203.25 3071.09,-194.25 3061.11,-197.8 3065.51,-203.25"/>
<text text-anchor="middle" x="3094.29" y="-217.8" font-family="Times,serif" font-size="14.00">onset qualifier</text>
</g>
<!-- subject -->
<g id="node27" class="node">
<title>subject</title>
<ellipse fill="none" stroke="black" cx="3186.79" cy="-178" rx="44.39" ry="18"/>
<text text-anchor="middle" x="3186.79" y="-174.3" font-family="Times,serif" font-size="14.00">subject</text>
</g>
<!-- variant as a model of error association&#45;&gt;subject -->
<g id="edge22" class="edge">
<title>variant as a model of error association&#45;&gt;subject</title>
<path fill="none" stroke="blue" d="M2011.16,-251.74C2034.63,-249.86 2058.93,-248.17 2081.79,-247 2111.42,-245.49 3123.41,-242.58 3149.79,-229 3159.97,-223.76 3168.07,-214.27 3174.06,-204.96"/>
<polygon fill="blue" stroke="blue" points="3177.14,-206.63 3179.16,-196.23 3171.1,-203.1 3177.14,-206.63"/>
<text text-anchor="middle" x="3191.79" y="-217.8" font-family="Times,serif" font-size="14.00">subject</text>
</g>
<!-- association_type -->
<g id="node17" class="node">
<title>association_type</title>
<ellipse fill="none" stroke="blue" cx="2128.79" cy="-265" rx="38.19" ry="18"/>
<text text-anchor="middle" x="2128.79" y="-261.3" font-family="Times,serif" font-size="14.00">string</text>
</g>
<!-- association_category -->
<g id="node19" class="node">
<title>association_category</title>
<ellipse fill="none" stroke="blue" cx="2247.79" cy="-265" rx="62.29" ry="18"/>
<text text-anchor="middle" x="2247.79" y="-261.3" font-family="Times,serif" font-size="14.00">association</text>
</g>
<!-- variant to error association_predicate -->
<g id="node21" class="node">
<title>variant to error association_predicate</title>
<ellipse fill="none" stroke="blue" cx="2405.79" cy="-265" rx="77.99" ry="18"/>
<text text-anchor="middle" x="2405.79" y="-261.3" font-family="Times,serif" font-size="14.00">predicate type</text>
</g>
<!-- object&#45;&gt;relation -->
<g id="edge25" class="edge">
<title>object&#45;&gt;relation</title>
<path fill="none" stroke="black" stroke-dasharray="1,5" d="M2760.79,-72.81C2760.79,-64.79 2760.79,-55.05 2760.79,-46.07"/>
<polygon fill="black" stroke="black" points="2764.29,-46.03 2760.79,-36.03 2757.29,-46.03 2764.29,-46.03"/>
</g>
<!-- variant to error association_object -->
<g id="node23" class="node">
<title>variant to error association_object</title>
<ellipse fill="none" stroke="blue" cx="2571.79" cy="-265" rx="69.59" ry="18"/>
<text text-anchor="middle" x="2571.79" y="-261.3" font-family="Times,serif" font-size="14.00">named thing</text>
</g>
<!-- subject&#45;&gt;relation -->
<g id="edge24" class="edge">
<title>subject&#45;&gt;relation</title>
<path fill="none" stroke="black" stroke-dasharray="1,5" d="M3156.6,-164.84C3130.93,-154.56 3093.04,-139.55 3059.79,-127 2970.95,-93.47 2866.47,-56.23 2807.5,-35.41"/>
<polygon fill="black" stroke="black" points="2808.33,-31.99 2797.74,-31.97 2806,-38.59 2808.33,-31.99"/>
</g>
<!-- subject&#45;&gt;object -->
<g id="edge23" class="edge">
<title>subject&#45;&gt;object</title>
<path fill="none" stroke="black" d="M3154.19,-165.78C3147.19,-163.64 3139.79,-161.58 3132.79,-160 3076.32,-147.26 3060.83,-151.84 3003.79,-142 2934.05,-129.97 2853.72,-112.79 2805.13,-102.02"/>
<polygon fill="black" stroke="black" points="2805.78,-98.58 2795.26,-99.82 2804.26,-105.41 2805.78,-98.58"/>
<text text-anchor="middle" x="3031.79" y="-130.8" font-family="Times,serif" font-size="14.00">relation</text>
</g>
<!-- variant as a model of error association_subject -->
<g id="node28" class="node">
<title>variant as a model of error association_subject</title>
<ellipse fill="none" stroke="blue" cx="2749.79" cy="-265" rx="90.18" ry="18"/>
<text text-anchor="middle" x="2749.79" y="-261.3" font-family="Times,serif" font-size="14.00">sequence variant</text>
</g>
</g>
</svg>
