<?xml version="1.0" encoding="UTF-8" standalone="no"?>
<!DOCTYPE svg PUBLIC "-//W3C//DTD SVG 1.1//EN"
 "http://www.w3.org/Graphics/SVG/1.1/DTD/svg11.dtd">
<!-- Generated by graphviz version 2.43.0 (0)
 -->
<!-- Title: %3 Pages: 1 -->
<svg width="3624pt" height="291pt"
 viewBox="0.00 0.00 3624.48 291.00" xmlns="http://www.w3.org/2000/svg" xmlns:xlink="http://www.w3.org/1999/xlink">
<g id="graph0" class="graph" transform="scale(1 1) rotate(0) translate(4 287)">
<title>%3</title>
<polygon fill="white" stroke="transparent" points="-4,4 -4,-287 3620.48,-287 3620.48,4 -4,4"/>
<!-- variant to observable feature association -->
<g id="node1" class="node">
<title>variant to observable feature association</title>
<ellipse fill="none" stroke="black" cx="1996.39" cy="-265" rx="200.66" ry="18"/>
<text text-anchor="middle" x="1996.39" y="-261.3" font-family="Times,serif" font-size="14.00">variant to observable feature association</text>
</g>
<!-- association -->
<g id="node2" class="node">
<title>association</title>
<ellipse fill="none" stroke="black" cx="62.39" cy="-178" rx="62.29" ry="18"/>
<text text-anchor="middle" x="62.39" y="-174.3" font-family="Times,serif" font-size="14.00">association</text>
</g>
<!-- variant to observable feature association&#45;&gt;association -->
<g id="edge1" class="edge">
<title>variant to observable feature association&#45;&gt;association</title>
<path fill="none" stroke="black" d="M1800.39,-261.03C1540.74,-256.6 1068.51,-246.8 665.39,-229 428.73,-218.55 367.69,-231.05 133.39,-196 127.91,-195.18 122.23,-194.14 116.57,-192.99"/>
<polygon fill="black" stroke="black" points="116.99,-189.5 106.48,-190.8 115.51,-196.34 116.99,-189.5"/>
<text text-anchor="middle" x="679.39" y="-217.8" font-family="Times,serif" font-size="14.00">is_a</text>
</g>
<!-- variant to entity association mixin -->
<g id="node3" class="node">
<title>variant to entity association mixin</title>
<ellipse fill="none" stroke="black" cx="312.39" cy="-178" rx="169.77" ry="18"/>
<text text-anchor="middle" x="312.39" y="-174.3" font-family="Times,serif" font-size="14.00">variant to entity association mixin</text>
</g>
<!-- variant to observable feature association&#45;&gt;variant to entity association mixin -->
<g id="edge2" class="edge">
<title>variant to observable feature association&#45;&gt;variant to entity association mixin</title>
<path fill="none" stroke="black" d="M1802.52,-260.3C1586.63,-255.58 1227.36,-245.92 918.39,-229 727.89,-218.57 680.47,-212.4 490.39,-196 474.9,-194.66 458.65,-193.2 442.54,-191.71"/>
<polygon fill="black" stroke="black" points="442.81,-188.22 432.53,-190.78 442.16,-195.19 442.81,-188.22"/>
<text text-anchor="middle" x="934.89" y="-217.8" font-family="Times,serif" font-size="14.00">uses</text>
</g>
<!-- entity to observable feature association mixin -->
<g id="node4" class="node">
<title>entity to observable feature association mixin</title>
<ellipse fill="none" stroke="black" cx="723.39" cy="-178" rx="223.66" ry="18"/>
<text text-anchor="middle" x="723.39" y="-174.3" font-family="Times,serif" font-size="14.00">entity to observable feature association mixin</text>
</g>
<!-- variant to observable feature association&#45;&gt;entity to observable feature association mixin -->
<g id="edge3" class="edge">
<title>variant to observable feature association&#45;&gt;entity to observable feature association mixin</title>
<path fill="none" stroke="black" d="M1798.12,-262.06C1613.14,-258.9 1329.63,-250.64 1084.39,-229 996.96,-221.29 898.28,-207.25 826.21,-196.01"/>
<polygon fill="black" stroke="black" points="826.65,-192.53 816.23,-194.44 825.56,-199.45 826.65,-192.53"/>
<text text-anchor="middle" x="1100.89" y="-217.8" font-family="Times,serif" font-size="14.00">uses</text>
</g>
<!-- id -->
<g id="node5" class="node">
<title>id</title>
<ellipse fill="none" stroke="blue" cx="1003.39" cy="-178" rx="38.19" ry="18"/>
<text text-anchor="middle" x="1003.39" y="-174.3" font-family="Times,serif" font-size="14.00">string</text>
</g>
<!-- variant to observable feature association&#45;&gt;id -->
<g id="edge4" class="edge">
<title>variant to observable feature association&#45;&gt;id</title>
<path fill="none" stroke="blue" d="M1795.74,-263.64C1637.13,-261.29 1410.4,-253.32 1213.39,-229 1140.47,-220 1122.2,-215.65 1051.39,-196 1048.29,-195.14 1045.09,-194.17 1041.89,-193.16"/>
<polygon fill="blue" stroke="blue" points="1042.97,-189.83 1032.38,-190 1040.76,-196.47 1042.97,-189.83"/>
<text text-anchor="middle" x="1220.39" y="-217.8" font-family="Times,serif" font-size="14.00">id</text>
</g>
<!-- iri -->
<g id="node6" class="node">
<title>iri</title>
<ellipse fill="none" stroke="blue" cx="1104.39" cy="-178" rx="44.39" ry="18"/>
<text text-anchor="middle" x="1104.39" y="-174.3" font-family="Times,serif" font-size="14.00">iri type</text>
</g>
<!-- variant to observable feature association&#45;&gt;iri -->
<g id="edge5" class="edge">
<title>variant to observable feature association&#45;&gt;iri</title>
<path fill="none" stroke="blue" d="M1799.6,-261.32C1664.83,-257.64 1482.26,-249.03 1322.39,-229 1248.19,-219.7 1229.78,-214.78 1157.39,-196 1154.02,-195.12 1150.54,-194.16 1147.06,-193.14"/>
<polygon fill="blue" stroke="blue" points="1147.89,-189.74 1137.3,-190.19 1145.86,-196.44 1147.89,-189.74"/>
<text text-anchor="middle" x="1330.39" y="-217.8" font-family="Times,serif" font-size="14.00">iri</text>
</g>
<!-- name -->
<g id="node7" class="node">
<title>name</title>
<ellipse fill="none" stroke="blue" cx="1223.39" cy="-178" rx="56.59" ry="18"/>
<text text-anchor="middle" x="1223.39" y="-174.3" font-family="Times,serif" font-size="14.00">label type</text>
</g>
<!-- variant to observable feature association&#45;&gt;name -->
<g id="edge6" class="edge">
<title>variant to observable feature association&#45;&gt;name</title>
<path fill="none" stroke="blue" d="M1797.95,-262.17C1683.7,-258.62 1537.75,-249.86 1409.39,-229 1361.37,-221.2 1307.85,-206.11 1270.6,-194.54"/>
<polygon fill="blue" stroke="blue" points="1271.61,-191.19 1261.02,-191.53 1269.51,-197.87 1271.61,-191.19"/>
<text text-anchor="middle" x="1429.39" y="-217.8" font-family="Times,serif" font-size="14.00">name</text>
</g>
<!-- description -->
<g id="node8" class="node">
<title>description</title>
<ellipse fill="none" stroke="blue" cx="1373.39" cy="-178" rx="75.29" ry="18"/>
<text text-anchor="middle" x="1373.39" y="-174.3" font-family="Times,serif" font-size="14.00">narrative text</text>
</g>
<!-- variant to observable feature association&#45;&gt;description -->
<g id="edge7" class="edge">
<title>variant to observable feature association&#45;&gt;description</title>
<path fill="none" stroke="blue" d="M1815.57,-257.15C1698.37,-251.59 1557,-242.43 1498.39,-229 1469.03,-222.27 1437.55,-209.64 1413.52,-198.76"/>
<polygon fill="blue" stroke="blue" points="1414.92,-195.55 1404.37,-194.54 1411.99,-201.91 1414.92,-195.55"/>
<text text-anchor="middle" x="1538.89" y="-217.8" font-family="Times,serif" font-size="14.00">description</text>
</g>
<!-- source -->
<g id="node9" class="node">
<title>source</title>
<ellipse fill="none" stroke="blue" cx="1523.39" cy="-178" rx="56.59" ry="18"/>
<text text-anchor="middle" x="1523.39" y="-174.3" font-family="Times,serif" font-size="14.00">label type</text>
</g>
<!-- variant to observable feature association&#45;&gt;source -->
<g id="edge8" class="edge">
<title>variant to observable feature association&#45;&gt;source</title>
<path fill="none" stroke="blue" d="M1829.29,-254.91C1747.12,-249.16 1657.49,-240.6 1618.39,-229 1596.18,-222.41 1573.14,-210.43 1555.31,-199.84"/>
<polygon fill="blue" stroke="blue" points="1556.85,-196.69 1546.49,-194.47 1553.21,-202.67 1556.85,-196.69"/>
<text text-anchor="middle" x="1642.39" y="-217.8" font-family="Times,serif" font-size="14.00">source</text>
</g>
<!-- provided by -->
<g id="node10" class="node">
<title>provided by</title>
<ellipse fill="none" stroke="blue" cx="1635.39" cy="-178" rx="37.09" ry="18"/>
<text text-anchor="middle" x="1635.39" y="-174.3" font-family="Times,serif" font-size="14.00">agent</text>
</g>
<!-- variant to observable feature association&#45;&gt;provided by -->
<g id="edge9" class="edge">
<title>variant to observable feature association&#45;&gt;provided by</title>
<path fill="none" stroke="blue" d="M1836.74,-254.02C1778.14,-248.58 1719.7,-240.54 1693.39,-229 1679.42,-222.87 1666.32,-212.19 1656.12,-202.27"/>
<polygon fill="blue" stroke="blue" points="1658.42,-199.61 1648.92,-194.92 1653.42,-204.51 1658.42,-199.61"/>
<text text-anchor="middle" x="1735.89" y="-217.8" font-family="Times,serif" font-size="14.00">provided by</text>
</g>
<!-- has attribute -->
<g id="node11" class="node">
<title>has attribute</title>
<ellipse fill="none" stroke="blue" cx="1742.39" cy="-178" rx="51.99" ry="18"/>
<text text-anchor="middle" x="1742.39" y="-174.3" font-family="Times,serif" font-size="14.00">attribute</text>
</g>
<!-- variant to observable feature association&#45;&gt;has attribute -->
<g id="edge10" class="edge">
<title>variant to observable feature association&#45;&gt;has attribute</title>
<path fill="none" stroke="blue" d="M1874.9,-250.62C1851.54,-245.56 1827.73,-238.6 1806.39,-229 1791.8,-222.44 1777.58,-211.87 1766.25,-202.14"/>
<polygon fill="blue" stroke="blue" points="1768.35,-199.32 1758.56,-195.27 1763.69,-204.54 1768.35,-199.32"/>
<text text-anchor="middle" x="1853.39" y="-217.8" font-family="Times,serif" font-size="14.00">has attribute</text>
</g>
<!-- predicate -->
<g id="node12" class="node">
<title>predicate</title>
<ellipse fill="none" stroke="blue" cx="1890.39" cy="-178" rx="77.99" ry="18"/>
<text text-anchor="middle" x="1890.39" y="-174.3" font-family="Times,serif" font-size="14.00">predicate type</text>
</g>
<!-- variant to observable feature association&#45;&gt;predicate -->
<g id="edge11" class="edge">
<title>variant to observable feature association&#45;&gt;predicate</title>
<path fill="none" stroke="blue" d="M1942.26,-247.49C1932.18,-242.67 1922.33,-236.6 1914.39,-229 1907.69,-222.59 1902.64,-213.92 1898.94,-205.61"/>
<polygon fill="blue" stroke="blue" points="1902.13,-204.18 1895.2,-196.17 1895.63,-206.75 1902.13,-204.18"/>
<text text-anchor="middle" x="1948.39" y="-217.8" font-family="Times,serif" font-size="14.00">predicate</text>
</g>
<!-- object -->
<g id="node13" class="node">
<title>object</title>
<ellipse fill="none" stroke="blue" cx="2386.39" cy="-91" rx="69.59" ry="18"/>
<text text-anchor="middle" x="2386.39" y="-87.3" font-family="Times,serif" font-size="14.00">named thing</text>
</g>
<!-- variant to observable feature association&#45;&gt;object -->
<g id="edge12" class="edge">
<title>variant to observable feature association&#45;&gt;object</title>
<path fill="none" stroke="blue" d="M2003.43,-246.62C2014.52,-220.06 2036.35,-171.26 2051.39,-160 2091.9,-129.69 2227.05,-109.59 2312.81,-99.55"/>
<polygon fill="blue" stroke="blue" points="2313.22,-103.02 2322.75,-98.4 2312.42,-96.07 2313.22,-103.02"/>
<text text-anchor="middle" x="2073.39" y="-174.3" font-family="Times,serif" font-size="14.00">object</text>
</g>
<!-- relation -->
<g id="node14" class="node">
<title>relation</title>
<ellipse fill="none" stroke="blue" cx="2386.39" cy="-18" rx="57.39" ry="18"/>
<text text-anchor="middle" x="2386.39" y="-14.3" font-family="Times,serif" font-size="14.00">uriorcurie</text>
</g>
<!-- variant to observable feature association&#45;&gt;relation -->
<g id="edge13" class="edge">
<title>variant to observable feature association&#45;&gt;relation</title>
<path fill="none" stroke="blue" d="M1995.59,-246.75C1995.24,-218.01 1998.83,-160.22 2030.39,-127 2106.33,-47.07 2239.28,-25.71 2319.45,-20.36"/>
<polygon fill="blue" stroke="blue" points="2319.67,-23.85 2329.44,-19.76 2319.25,-16.86 2319.67,-23.85"/>
<text text-anchor="middle" x="2058.39" y="-130.8" font-family="Times,serif" font-size="14.00">relation</text>
</g>
<!-- negated -->
<g id="node15" class="node">
<title>negated</title>
<ellipse fill="none" stroke="blue" cx="2151.39" cy="-178" rx="46.59" ry="18"/>
<text text-anchor="middle" x="2151.39" y="-174.3" font-family="Times,serif" font-size="14.00">boolean</text>
</g>
<!-- variant to observable feature association&#45;&gt;negated -->
<g id="edge14" class="edge">
<title>variant to observable feature association&#45;&gt;negated</title>
<path fill="none" stroke="blue" d="M2027.02,-247.21C2052.82,-233.05 2089.74,-212.81 2116.65,-198.05"/>
<polygon fill="blue" stroke="blue" points="2118.63,-200.96 2125.71,-193.08 2115.26,-194.82 2118.63,-200.96"/>
<text text-anchor="middle" x="2112.39" y="-217.8" font-family="Times,serif" font-size="14.00">negated</text>
</g>
<!-- qualifiers -->
<g id="node16" class="node">
<title>qualifiers</title>
<ellipse fill="none" stroke="blue" cx="2292.39" cy="-178" rx="76.89" ry="18"/>
<text text-anchor="middle" x="2292.39" y="-174.3" font-family="Times,serif" font-size="14.00">ontology class</text>
</g>
<!-- variant to observable feature association&#45;&gt;qualifiers -->
<g id="edge15" class="edge">
<title>variant to observable feature association&#45;&gt;qualifiers</title>
<path fill="none" stroke="blue" d="M2069.89,-248.23C2094.07,-242.64 2121,-236 2145.39,-229 2178.42,-219.53 2215.01,-207.09 2243.42,-196.99"/>
<polygon fill="blue" stroke="blue" points="2244.87,-200.19 2253.1,-193.53 2242.51,-193.6 2244.87,-200.19"/>
<text text-anchor="middle" x="2223.89" y="-217.8" font-family="Times,serif" font-size="14.00">qualifiers</text>
</g>
<!-- publications -->
<g id="node17" class="node">
<title>publications</title>
<ellipse fill="none" stroke="blue" cx="2449.39" cy="-178" rx="62.29" ry="18"/>
<text text-anchor="middle" x="2449.39" y="-174.3" font-family="Times,serif" font-size="14.00">publication</text>
</g>
<!-- variant to observable feature association&#45;&gt;publications -->
<g id="edge16" class="edge">
<title>variant to observable feature association&#45;&gt;publications</title>
<path fill="none" stroke="blue" d="M2121.3,-250.86C2165.73,-245.3 2215.99,-238 2261.39,-229 2308.38,-219.69 2361.01,-205.35 2398.6,-194.41"/>
<polygon fill="blue" stroke="blue" points="2399.7,-197.74 2408.31,-191.56 2397.73,-191.02 2399.7,-197.74"/>
<text text-anchor="middle" x="2368.39" y="-217.8" font-family="Times,serif" font-size="14.00">publications</text>
</g>
<!-- type -->
<g id="node18" class="node">
<title>type</title>
<ellipse fill="none" stroke="black" cx="2561.39" cy="-178" rx="31.4" ry="18"/>
<text text-anchor="middle" x="2561.39" y="-174.3" font-family="Times,serif" font-size="14.00">type</text>
</g>
<!-- variant to observable feature association&#45;&gt;type -->
<g id="edge17" class="edge">
<title>variant to observable feature association&#45;&gt;type</title>
<path fill="none" stroke="blue" d="M2140,-252.41C2258.9,-242.75 2409.49,-230.37 2416.39,-229 2455.65,-221.24 2498.79,-205.36 2527.72,-193.57"/>
<polygon fill="blue" stroke="blue" points="2529.43,-196.65 2537.33,-189.59 2526.75,-190.18 2529.43,-196.65"/>
<text text-anchor="middle" x="2485.39" y="-217.8" font-family="Times,serif" font-size="14.00">type</text>
</g>
<!-- category -->
<g id="node20" class="node">
<title>category</title>
<ellipse fill="none" stroke="black" cx="2662.39" cy="-178" rx="51.19" ry="18"/>
<text text-anchor="middle" x="2662.39" y="-174.3" font-family="Times,serif" font-size="14.00">category</text>
</g>
<!-- variant to observable feature association&#45;&gt;category -->
<g id="edge18" class="edge">
<title>variant to observable feature association&#45;&gt;category</title>
<path fill="none" stroke="blue" d="M2137.57,-252.17C2160.56,-250.36 2184.14,-248.57 2206.39,-247 2339.19,-237.63 2374.52,-253.39 2505.39,-229 2545.23,-221.58 2589.06,-207.06 2620.26,-195.57"/>
<polygon fill="blue" stroke="blue" points="2621.78,-198.74 2629.92,-191.96 2619.33,-192.18 2621.78,-198.74"/>
<text text-anchor="middle" x="2594.89" y="-217.8" font-family="Times,serif" font-size="14.00">category</text>
</g>
<!-- subject -->
<g id="node22" class="node">
<title>subject</title>
<ellipse fill="none" stroke="black" cx="2776.39" cy="-178" rx="44.39" ry="18"/>
<text text-anchor="middle" x="2776.39" y="-174.3" font-family="Times,serif" font-size="14.00">subject</text>
</g>
<!-- variant to observable feature association&#45;&gt;subject -->
<g id="edge19" class="edge">
<title>variant to observable feature association&#45;&gt;subject</title>
<path fill="none" stroke="blue" d="M2135.56,-251.98C2159.19,-250.15 2183.49,-248.41 2206.39,-247 2300.52,-241.19 2537.72,-246.46 2630.39,-229 2668.01,-221.92 2709.1,-207.17 2738.09,-195.52"/>
<polygon fill="blue" stroke="blue" points="2739.49,-198.72 2747.43,-191.7 2736.85,-192.24 2739.49,-198.72"/>
<text text-anchor="middle" x="2710.39" y="-217.8" font-family="Times,serif" font-size="14.00">subject</text>
</g>
<!-- frequency qualifier -->
<g id="node24" class="node">
<title>frequency qualifier</title>
<ellipse fill="none" stroke="blue" cx="2923.39" cy="-178" rx="85.29" ry="18"/>
<text text-anchor="middle" x="2923.39" y="-174.3" font-family="Times,serif" font-size="14.00">frequency value</text>
</g>
<!-- variant to observable feature association&#45;&gt;frequency qualifier -->
<g id="edge20" class="edge">
<title>variant to observable feature association&#45;&gt;frequency qualifier</title>
<path fill="none" stroke="blue" d="M2134.42,-251.89C2158.41,-250.06 2183.11,-248.33 2206.39,-247 2443.47,-233.42 2505.6,-264.53 2740.39,-229 2785.19,-222.22 2834.69,-208.29 2870.9,-196.85"/>
<polygon fill="blue" stroke="blue" points="2872.29,-200.08 2880.74,-193.7 2870.15,-193.41 2872.29,-200.08"/>
<text text-anchor="middle" x="2875.39" y="-217.8" font-family="Times,serif" font-size="14.00">frequency qualifier</text>
</g>
<!-- severity qualifier -->
<g id="node25" class="node">
<title>severity qualifier</title>
<ellipse fill="none" stroke="blue" cx="3102.39" cy="-178" rx="76.09" ry="18"/>
<text text-anchor="middle" x="3102.39" y="-174.3" font-family="Times,serif" font-size="14.00">severity value</text>
</g>
<!-- variant to observable feature association&#45;&gt;severity qualifier -->
<g id="edge21" class="edge">
<title>variant to observable feature association&#45;&gt;severity qualifier</title>
<path fill="none" stroke="blue" d="M2133.29,-251.79C2157.62,-249.95 2182.74,-248.24 2206.39,-247 2370.88,-238.35 2785,-256.57 2947.39,-229 2985.13,-222.59 3026.29,-208.99 3056.7,-197.58"/>
<polygon fill="blue" stroke="blue" points="3058.09,-200.8 3066.19,-193.97 3055.59,-194.26 3058.09,-200.8"/>
<text text-anchor="middle" x="3069.39" y="-217.8" font-family="Times,serif" font-size="14.00">severity qualifier</text>
</g>
<!-- onset qualifier -->
<g id="node26" class="node">
<title>onset qualifier</title>
<ellipse fill="none" stroke="blue" cx="3232.39" cy="-178" rx="36.29" ry="18"/>
<text text-anchor="middle" x="3232.39" y="-174.3" font-family="Times,serif" font-size="14.00">onset</text>
</g>
<!-- variant to observable feature association&#45;&gt;onset qualifier -->
<g id="edge22" class="edge">
<title>variant to observable feature association&#45;&gt;onset qualifier</title>
<path fill="none" stroke="blue" d="M2132.72,-251.74C2157.23,-249.89 2182.56,-248.19 2206.39,-247 2309.4,-241.84 3034.36,-254.07 3134.39,-229 3158.91,-222.85 3184.27,-209.7 3203.05,-198.43"/>
<polygon fill="blue" stroke="blue" points="3205.04,-201.31 3211.71,-193.08 3201.36,-195.36 3205.04,-201.31"/>
<text text-anchor="middle" x="3225.89" y="-217.8" font-family="Times,serif" font-size="14.00">onset qualifier</text>
</g>
<!-- architectural style qualifier -->
<g id="node27" class="node">
<title>architectural style qualifier</title>
<ellipse fill="none" stroke="blue" cx="3451.39" cy="-178" rx="165.17" ry="18"/>
<text text-anchor="middle" x="3451.39" y="-174.3" font-family="Times,serif" font-size="14.00">computational architectural style</text>
</g>
<!-- variant to observable feature association&#45;&gt;architectural style qualifier -->
<g id="edge23" class="edge">
<title>variant to observable feature association&#45;&gt;architectural style qualifier</title>
<path fill="none" stroke="blue" d="M2132.15,-251.73C2156.84,-249.86 2182.37,-248.17 2206.39,-247 2325.71,-241.18 3163.3,-247.02 3281.39,-229 3321.39,-222.9 3365.16,-209.87 3398.27,-198.64"/>
<polygon fill="blue" stroke="blue" points="3399.43,-201.94 3407.75,-195.38 3397.15,-195.32 3399.43,-201.94"/>
<text text-anchor="middle" x="3445.39" y="-217.8" font-family="Times,serif" font-size="14.00">architectural style qualifier</text>
</g>
<!-- object&#45;&gt;relation -->
<g id="edge26" class="edge">
<title>object&#45;&gt;relation</title>
<path fill="none" stroke="black" stroke-dasharray="1,5" d="M2386.39,-72.81C2386.39,-64.79 2386.39,-55.05 2386.39,-46.07"/>
<polygon fill="black" stroke="black" points="2389.89,-46.03 2386.39,-36.03 2382.89,-46.03 2389.89,-46.03"/>
</g>
<!-- association_type -->
<g id="node19" class="node">
<title>association_type</title>
<ellipse fill="none" stroke="blue" cx="2253.39" cy="-265" rx="38.19" ry="18"/>
<text text-anchor="middle" x="2253.39" y="-261.3" font-family="Times,serif" font-size="14.00">string</text>
</g>
<!-- association_category -->
<g id="node21" class="node">
<title>association_category</title>
<ellipse fill="none" stroke="blue" cx="2372.39" cy="-265" rx="62.29" ry="18"/>
<text text-anchor="middle" x="2372.39" y="-261.3" font-family="Times,serif" font-size="14.00">association</text>
</g>
<!-- subject&#45;&gt;object -->
<g id="edge24" class="edge">
<title>subject&#45;&gt;object</title>
<path fill="none" stroke="black" d="M2743.83,-165.63C2736.82,-163.5 2729.41,-161.48 2722.39,-160 2651.51,-145.05 2631.46,-156.05 2560.39,-142 2518.02,-133.62 2470.99,-119.83 2436.52,-108.85"/>
<polygon fill="black" stroke="black" points="2437.29,-105.42 2426.7,-105.69 2435.15,-112.08 2437.29,-105.42"/>
<text text-anchor="middle" x="2588.39" y="-130.8" font-family="Times,serif" font-size="14.00">relation</text>
</g>
<!-- subject&#45;&gt;relation -->
<g id="edge25" class="edge">
<title>subject&#45;&gt;relation</title>
<path fill="none" stroke="black" stroke-dasharray="1,5" d="M2746.12,-164.73C2677.38,-136.89 2509.35,-68.81 2429.67,-36.53"/>
<polygon fill="black" stroke="black" points="2430.53,-33.1 2419.95,-32.59 2427.9,-39.59 2430.53,-33.1"/>
</g>
<!-- variant to observable feature association_subject -->
<g id="node23" class="node">
<title>variant to observable feature association_subject</title>
<ellipse fill="none" stroke="blue" cx="2543.39" cy="-265" rx="90.18" ry="18"/>
<text text-anchor="middle" x="2543.39" y="-261.3" font-family="Times,serif" font-size="14.00">sequence variant</text>
</g>
</g>
</svg>
