<?xml version="1.0" encoding="UTF-8" standalone="no"?>
<!DOCTYPE svg PUBLIC "-//W3C//DTD SVG 1.1//EN"
 "http://www.w3.org/Graphics/SVG/1.1/DTD/svg11.dtd">
<!-- Generated by graphviz version 2.43.0 (0)
 -->
<!-- Title: %3 Pages: 1 -->
<svg width="2368pt" height="291pt"
 viewBox="0.00 0.00 2367.99 291.00" xmlns="http://www.w3.org/2000/svg" xmlns:xlink="http://www.w3.org/1999/xlink">
<g id="graph0" class="graph" transform="scale(1 1) rotate(0) translate(4 287)">
<title>%3</title>
<polygon fill="white" stroke="transparent" points="-4,4 -4,-287 2363.99,-287 2363.99,4 -4,4"/>
<!-- variant to componentservice association -->
<g id="node1" class="node">
<title>variant to componentservice association</title>
<ellipse fill="none" stroke="black" cx="1331.39" cy="-265" rx="198.47" ry="18"/>
<text text-anchor="middle" x="1331.39" y="-261.3" font-family="Times,serif" font-size="14.00">variant to componentservice association</text>
</g>
<!-- association -->
<g id="node2" class="node">
<title>association</title>
<ellipse fill="none" stroke="black" cx="62.39" cy="-178" rx="62.29" ry="18"/>
<text text-anchor="middle" x="62.39" y="-174.3" font-family="Times,serif" font-size="14.00">association</text>
</g>
<!-- variant to componentservice association&#45;&gt;association -->
<g id="edge1" class="edge">
<title>variant to componentservice association&#45;&gt;association</title>
<path fill="none" stroke="black" d="M1143.41,-259.19C970.67,-254.08 707.59,-244.56 479.39,-229 325.28,-218.49 285.77,-221.38 133.39,-196 128,-195.1 122.41,-194.02 116.84,-192.85"/>
<polygon fill="black" stroke="black" points="117.41,-189.39 106.89,-190.66 115.91,-196.23 117.41,-189.39"/>
<text text-anchor="middle" x="493.39" y="-217.8" font-family="Times,serif" font-size="14.00">is_a</text>
</g>
<!-- variant to entity association mixin -->
<g id="node3" class="node">
<title>variant to entity association mixin</title>
<ellipse fill="none" stroke="black" cx="312.39" cy="-178" rx="169.77" ry="18"/>
<text text-anchor="middle" x="312.39" y="-174.3" font-family="Times,serif" font-size="14.00">variant to entity association mixin</text>
</g>
<!-- variant to componentservice association&#45;&gt;variant to entity association mixin -->
<g id="edge2" class="edge">
<title>variant to componentservice association&#45;&gt;variant to entity association mixin</title>
<path fill="none" stroke="black" d="M1139.6,-260.31C996.47,-256.16 796.29,-247.4 621.39,-229 546.39,-221.11 461.9,-207.08 400.25,-195.89"/>
<polygon fill="black" stroke="black" points="400.64,-192.4 390.18,-194.05 399.38,-199.29 400.64,-192.4"/>
<text text-anchor="middle" x="637.89" y="-217.8" font-family="Times,serif" font-size="14.00">uses</text>
</g>
<!-- id -->
<g id="node4" class="node">
<title>id</title>
<ellipse fill="none" stroke="blue" cx="538.39" cy="-178" rx="38.19" ry="18"/>
<text text-anchor="middle" x="538.39" y="-174.3" font-family="Times,serif" font-size="14.00">string</text>
</g>
<!-- variant to componentservice association&#45;&gt;id -->
<g id="edge3" class="edge">
<title>variant to componentservice association&#45;&gt;id</title>
<path fill="none" stroke="blue" d="M1142.37,-259.48C1027.71,-255.06 878.68,-246.3 747.39,-229 674.98,-219.46 656.77,-215.57 586.39,-196 583.29,-195.14 580.09,-194.17 576.89,-193.15"/>
<polygon fill="blue" stroke="blue" points="577.97,-189.83 567.38,-189.99 575.76,-196.47 577.97,-189.83"/>
<text text-anchor="middle" x="754.39" y="-217.8" font-family="Times,serif" font-size="14.00">id</text>
</g>
<!-- iri -->
<g id="node5" class="node">
<title>iri</title>
<ellipse fill="none" stroke="blue" cx="639.39" cy="-178" rx="44.39" ry="18"/>
<text text-anchor="middle" x="639.39" y="-174.3" font-family="Times,serif" font-size="14.00">iri type</text>
</g>
<!-- variant to componentservice association&#45;&gt;iri -->
<g id="edge4" class="edge">
<title>variant to componentservice association&#45;&gt;iri</title>
<path fill="none" stroke="blue" d="M1154.51,-256.87C1063.1,-251.74 949.92,-243.15 849.39,-229 778.79,-219.06 761.32,-214.25 692.39,-196 689.02,-195.11 685.55,-194.13 682.07,-193.11"/>
<polygon fill="blue" stroke="blue" points="682.9,-189.7 672.32,-190.14 680.87,-196.4 682.9,-189.7"/>
<text text-anchor="middle" x="857.39" y="-217.8" font-family="Times,serif" font-size="14.00">iri</text>
</g>
<!-- name -->
<g id="node6" class="node">
<title>name</title>
<ellipse fill="none" stroke="blue" cx="758.39" cy="-178" rx="56.59" ry="18"/>
<text text-anchor="middle" x="758.39" y="-174.3" font-family="Times,serif" font-size="14.00">label type</text>
</g>
<!-- variant to componentservice association&#45;&gt;name -->
<g id="edge5" class="edge">
<title>variant to componentservice association&#45;&gt;name</title>
<path fill="none" stroke="blue" d="M1158.12,-256.2C1087.4,-251.11 1005.06,-242.73 931.39,-229 887.76,-220.86 839.31,-206.37 804.81,-195.08"/>
<polygon fill="blue" stroke="blue" points="805.61,-191.66 795.02,-191.84 803.41,-198.3 805.61,-191.66"/>
<text text-anchor="middle" x="951.39" y="-217.8" font-family="Times,serif" font-size="14.00">name</text>
</g>
<!-- description -->
<g id="node7" class="node">
<title>description</title>
<ellipse fill="none" stroke="blue" cx="908.39" cy="-178" rx="75.29" ry="18"/>
<text text-anchor="middle" x="908.39" y="-174.3" font-family="Times,serif" font-size="14.00">narrative text</text>
</g>
<!-- variant to componentservice association&#45;&gt;description -->
<g id="edge6" class="edge">
<title>variant to componentservice association&#45;&gt;description</title>
<path fill="none" stroke="blue" d="M1161.6,-255.68C1113.39,-250.52 1061.28,-242.25 1014.39,-229 990.22,-222.17 964.71,-210.3 944.78,-199.84"/>
<polygon fill="blue" stroke="blue" points="946.22,-196.64 935.75,-195 942.91,-202.81 946.22,-196.64"/>
<text text-anchor="middle" x="1054.89" y="-217.8" font-family="Times,serif" font-size="14.00">description</text>
</g>
<!-- source -->
<g id="node8" class="node">
<title>source</title>
<ellipse fill="none" stroke="blue" cx="1058.39" cy="-178" rx="56.59" ry="18"/>
<text text-anchor="middle" x="1058.39" y="-174.3" font-family="Times,serif" font-size="14.00">label type</text>
</g>
<!-- variant to componentservice association&#45;&gt;source -->
<g id="edge7" class="edge">
<title>variant to componentservice association&#45;&gt;source</title>
<path fill="none" stroke="blue" d="M1199.72,-251.5C1174.09,-246.38 1147.9,-239.16 1124.39,-229 1109.28,-222.47 1094.47,-211.77 1082.73,-201.94"/>
<polygon fill="blue" stroke="blue" points="1084.97,-199.25 1075.12,-195.34 1080.38,-204.53 1084.97,-199.25"/>
<text text-anchor="middle" x="1148.39" y="-217.8" font-family="Times,serif" font-size="14.00">source</text>
</g>
<!-- provided by -->
<g id="node9" class="node">
<title>provided by</title>
<ellipse fill="none" stroke="blue" cx="1170.39" cy="-178" rx="37.09" ry="18"/>
<text text-anchor="middle" x="1170.39" y="-174.3" font-family="Times,serif" font-size="14.00">agent</text>
</g>
<!-- variant to componentservice association&#45;&gt;provided by -->
<g id="edge8" class="edge">
<title>variant to componentservice association&#45;&gt;provided by</title>
<path fill="none" stroke="blue" d="M1237.59,-249.1C1214.49,-243.78 1193.92,-237.06 1185.39,-229 1179.03,-222.98 1175.33,-214.38 1173.19,-206"/>
<polygon fill="blue" stroke="blue" points="1176.61,-205.24 1171.29,-196.08 1169.74,-206.56 1176.61,-205.24"/>
<text text-anchor="middle" x="1227.89" y="-217.8" font-family="Times,serif" font-size="14.00">provided by</text>
</g>
<!-- has attribute -->
<g id="node10" class="node">
<title>has attribute</title>
<ellipse fill="none" stroke="blue" cx="1277.39" cy="-178" rx="51.99" ry="18"/>
<text text-anchor="middle" x="1277.39" y="-174.3" font-family="Times,serif" font-size="14.00">attribute</text>
</g>
<!-- variant to componentservice association&#45;&gt;has attribute -->
<g id="edge9" class="edge">
<title>variant to componentservice association&#45;&gt;has attribute</title>
<path fill="none" stroke="blue" d="M1295.36,-247.11C1288.59,-242.25 1282.39,-236.24 1278.39,-229 1274.65,-222.2 1273.4,-214.06 1273.35,-206.33"/>
<polygon fill="blue" stroke="blue" points="1276.86,-206.41 1273.92,-196.23 1269.87,-206.02 1276.86,-206.41"/>
<text text-anchor="middle" x="1325.39" y="-217.8" font-family="Times,serif" font-size="14.00">has attribute</text>
</g>
<!-- subject -->
<g id="node11" class="node">
<title>subject</title>
<ellipse fill="none" stroke="blue" cx="1455.39" cy="-178" rx="69.59" ry="18"/>
<text text-anchor="middle" x="1455.39" y="-174.3" font-family="Times,serif" font-size="14.00">named thing</text>
</g>
<!-- variant to componentservice association&#45;&gt;subject -->
<g id="edge10" class="edge">
<title>variant to componentservice association&#45;&gt;subject</title>
<path fill="none" stroke="blue" d="M1368.97,-247.23C1379.47,-241.94 1390.66,-235.71 1400.39,-229 1411.52,-221.33 1422.74,-211.57 1432.12,-202.72"/>
<polygon fill="blue" stroke="blue" points="1434.77,-205.02 1439.53,-195.56 1429.9,-199.99 1434.77,-205.02"/>
<text text-anchor="middle" x="1444.39" y="-217.8" font-family="Times,serif" font-size="14.00">subject</text>
</g>
<!-- relation -->
<g id="node12" class="node">
<title>relation</title>
<ellipse fill="none" stroke="blue" cx="1441.39" cy="-18" rx="57.39" ry="18"/>
<text text-anchor="middle" x="1441.39" y="-14.3" font-family="Times,serif" font-size="14.00">uriorcurie</text>
</g>
<!-- variant to componentservice association&#45;&gt;relation -->
<g id="edge11" class="edge">
<title>variant to componentservice association&#45;&gt;relation</title>
<path fill="none" stroke="blue" d="M1357.74,-247C1363.55,-241.93 1368.98,-235.87 1372.39,-229 1379.23,-215.24 1372.71,-174.91 1376.39,-160 1386.86,-117.63 1410.09,-72.45 1425.75,-44.97"/>
<polygon fill="blue" stroke="blue" points="1428.95,-46.43 1430.94,-36.02 1422.9,-42.91 1428.95,-46.43"/>
<text text-anchor="middle" x="1415.39" y="-130.8" font-family="Times,serif" font-size="14.00">relation</text>
</g>
<!-- negated -->
<g id="node13" class="node">
<title>negated</title>
<ellipse fill="none" stroke="blue" cx="1670.39" cy="-178" rx="46.59" ry="18"/>
<text text-anchor="middle" x="1670.39" y="-174.3" font-family="Times,serif" font-size="14.00">boolean</text>
</g>
<!-- variant to componentservice association&#45;&gt;negated -->
<g id="edge12" class="edge">
<title>variant to componentservice association&#45;&gt;negated</title>
<path fill="none" stroke="blue" d="M1471.66,-252.23C1506.11,-247.07 1542.52,-239.66 1575.39,-229 1597.59,-221.81 1620.79,-209.69 1638.71,-199.19"/>
<polygon fill="blue" stroke="blue" points="1640.79,-202.02 1647.57,-193.88 1637.19,-196.02 1640.79,-202.02"/>
<text text-anchor="middle" x="1640.39" y="-217.8" font-family="Times,serif" font-size="14.00">negated</text>
</g>
<!-- qualifiers -->
<g id="node14" class="node">
<title>qualifiers</title>
<ellipse fill="none" stroke="blue" cx="1811.39" cy="-178" rx="76.89" ry="18"/>
<text text-anchor="middle" x="1811.39" y="-174.3" font-family="Times,serif" font-size="14.00">ontology class</text>
</g>
<!-- variant to componentservice association&#45;&gt;qualifiers -->
<g id="edge13" class="edge">
<title>variant to componentservice association&#45;&gt;qualifiers</title>
<path fill="none" stroke="blue" d="M1476.7,-252.69C1552.32,-246.09 1636.52,-237.43 1673.39,-229 1705.7,-221.61 1740.79,-208.83 1767.5,-198.04"/>
<polygon fill="blue" stroke="blue" points="1769.02,-201.2 1776.94,-194.17 1766.36,-194.72 1769.02,-201.2"/>
<text text-anchor="middle" x="1757.89" y="-217.8" font-family="Times,serif" font-size="14.00">qualifiers</text>
</g>
<!-- publications -->
<g id="node15" class="node">
<title>publications</title>
<ellipse fill="none" stroke="blue" cx="1968.39" cy="-178" rx="62.29" ry="18"/>
<text text-anchor="middle" x="1968.39" y="-174.3" font-family="Times,serif" font-size="14.00">publication</text>
</g>
<!-- variant to componentservice association&#45;&gt;publications -->
<g id="edge14" class="edge">
<title>variant to componentservice association&#45;&gt;publications</title>
<path fill="none" stroke="blue" d="M1472.07,-252.28C1494.59,-250.47 1517.63,-248.65 1539.39,-247 1653.12,-238.35 1683.09,-248.95 1795.39,-229 1838.54,-221.34 1886.3,-207.08 1920.69,-195.74"/>
<polygon fill="blue" stroke="blue" points="1922.09,-198.96 1930.46,-192.48 1919.87,-192.32 1922.09,-198.96"/>
<text text-anchor="middle" x="1902.39" y="-217.8" font-family="Times,serif" font-size="14.00">publications</text>
</g>
<!-- type -->
<g id="node16" class="node">
<title>type</title>
<ellipse fill="none" stroke="black" cx="2080.39" cy="-178" rx="31.4" ry="18"/>
<text text-anchor="middle" x="2080.39" y="-174.3" font-family="Times,serif" font-size="14.00">type</text>
</g>
<!-- variant to componentservice association&#45;&gt;type -->
<g id="edge15" class="edge">
<title>variant to componentservice association&#45;&gt;type</title>
<path fill="none" stroke="blue" d="M1468.96,-252.02C1492.45,-250.18 1516.61,-248.43 1539.39,-247 1630.64,-241.28 1860.79,-247.11 1950.39,-229 1985.07,-221.99 2022.57,-206.66 2048.35,-194.81"/>
<polygon fill="blue" stroke="blue" points="2050.05,-197.88 2057.62,-190.47 2047.08,-191.54 2050.05,-197.88"/>
<text text-anchor="middle" x="2018.39" y="-217.8" font-family="Times,serif" font-size="14.00">type</text>
</g>
<!-- category -->
<g id="node18" class="node">
<title>category</title>
<ellipse fill="none" stroke="black" cx="2181.39" cy="-178" rx="51.19" ry="18"/>
<text text-anchor="middle" x="2181.39" y="-174.3" font-family="Times,serif" font-size="14.00">category</text>
</g>
<!-- variant to componentservice association&#45;&gt;category -->
<g id="edge16" class="edge">
<title>variant to componentservice association&#45;&gt;category</title>
<path fill="none" stroke="blue" d="M1468.11,-251.93C1491.86,-250.09 1516.34,-248.36 1539.39,-247 1650.16,-240.48 1929.35,-249.54 2038.39,-229 2074.35,-222.23 2113.45,-208.05 2141.66,-196.52"/>
<polygon fill="blue" stroke="blue" points="2143.28,-199.64 2151.16,-192.57 2140.59,-193.18 2143.28,-199.64"/>
<text text-anchor="middle" x="2126.89" y="-217.8" font-family="Times,serif" font-size="14.00">category</text>
</g>
<!-- object -->
<g id="node20" class="node">
<title>object</title>
<ellipse fill="none" stroke="black" cx="1508.39" cy="-91" rx="38.99" ry="18"/>
<text text-anchor="middle" x="1508.39" y="-87.3" font-family="Times,serif" font-size="14.00">object</text>
</g>
<!-- variant to componentservice association&#45;&gt;object -->
<g id="edge17" class="edge">
<title>variant to componentservice association&#45;&gt;object</title>
<path fill="none" stroke="blue" d="M1448.04,-250.42C1481.16,-240.6 1513.8,-223.99 1534.39,-196 1552.8,-170.99 1557.68,-155.52 1545.39,-127 1543.31,-122.15 1540.18,-117.66 1536.61,-113.62"/>
<polygon fill="blue" stroke="blue" points="1538.93,-110.99 1529.36,-106.44 1534.01,-115.97 1538.93,-110.99"/>
<text text-anchor="middle" x="1574.39" y="-174.3" font-family="Times,serif" font-size="14.00">object</text>
</g>
<!-- predicate -->
<g id="node22" class="node">
<title>predicate</title>
<ellipse fill="none" stroke="black" cx="2305.39" cy="-178" rx="54.69" ry="18"/>
<text text-anchor="middle" x="2305.39" y="-174.3" font-family="Times,serif" font-size="14.00">predicate</text>
</g>
<!-- variant to componentservice association&#45;&gt;predicate -->
<g id="edge18" class="edge">
<title>variant to componentservice association&#45;&gt;predicate</title>
<path fill="none" stroke="blue" d="M1467.27,-251.86C1491.28,-250.01 1516.06,-248.29 1539.39,-247 1677.69,-239.36 2026.2,-254.15 2162.39,-229 2198.02,-222.42 2236.71,-208.44 2264.86,-196.94"/>
<polygon fill="blue" stroke="blue" points="2266.46,-200.06 2274.35,-192.98 2263.77,-193.6 2266.46,-200.06"/>
<text text-anchor="middle" x="2252.39" y="-217.8" font-family="Times,serif" font-size="14.00">predicate</text>
</g>
<!-- subject&#45;&gt;relation -->
<g id="edge20" class="edge">
<title>subject&#45;&gt;relation</title>
<path fill="none" stroke="black" stroke-dasharray="1,5" d="M1453.87,-159.79C1451.45,-132.48 1446.71,-78.99 1443.82,-46.38"/>
<polygon fill="black" stroke="black" points="1447.29,-45.84 1442.92,-36.19 1440.31,-46.46 1447.29,-45.84"/>
</g>
<!-- subject&#45;&gt;object -->
<g id="edge19" class="edge">
<title>subject&#45;&gt;object</title>
<path fill="none" stroke="black" d="M1466.12,-159.8C1473.76,-147.54 1484.16,-130.87 1492.73,-117.13"/>
<polygon fill="black" stroke="black" points="1495.72,-118.93 1498.05,-108.6 1489.78,-115.23 1495.72,-118.93"/>
<text text-anchor="middle" x="1513.39" y="-130.8" font-family="Times,serif" font-size="14.00">relation</text>
</g>
<!-- association_type -->
<g id="node17" class="node">
<title>association_type</title>
<ellipse fill="none" stroke="blue" cx="1586.39" cy="-265" rx="38.19" ry="18"/>
<text text-anchor="middle" x="1586.39" y="-261.3" font-family="Times,serif" font-size="14.00">string</text>
</g>
<!-- association_category -->
<g id="node19" class="node">
<title>association_category</title>
<ellipse fill="none" stroke="blue" cx="1705.39" cy="-265" rx="62.29" ry="18"/>
<text text-anchor="middle" x="1705.39" y="-261.3" font-family="Times,serif" font-size="14.00">association</text>
</g>
<!-- object&#45;&gt;relation -->
<g id="edge21" class="edge">
<title>object&#45;&gt;relation</title>
<path fill="none" stroke="black" stroke-dasharray="1,5" d="M1493.52,-74.24C1484.92,-65.13 1473.92,-53.47 1464.24,-43.21"/>
<polygon fill="black" stroke="black" points="1466.56,-40.57 1457.16,-35.7 1461.47,-45.38 1466.56,-40.57"/>
</g>
<!-- variant to componentservice association_object -->
<g id="node21" class="node">
<title>variant to componentservice association_object</title>
<ellipse fill="none" stroke="blue" cx="1880.39" cy="-265" rx="94.78" ry="18"/>
<text text-anchor="middle" x="1880.39" y="-261.3" font-family="Times,serif" font-size="14.00">componentservice</text>
</g>
<!-- variant to componentservice association_predicate -->
<g id="node23" class="node">
<title>variant to componentservice association_predicate</title>
<ellipse fill="none" stroke="blue" cx="2071.39" cy="-265" rx="77.99" ry="18"/>
<text text-anchor="middle" x="2071.39" y="-261.3" font-family="Times,serif" font-size="14.00">predicate type</text>
</g>
</g>
</svg>
