<?xml version="1.0" encoding="UTF-8" standalone="no"?>
<!DOCTYPE svg PUBLIC "-//W3C//DTD SVG 1.1//EN"
 "http://www.w3.org/Graphics/SVG/1.1/DTD/svg11.dtd">
<!-- Generated by graphviz version 2.43.0 (0)
 -->
<!-- Title: %3 Pages: 1 -->
<svg width="3544pt" height="291pt"
 viewBox="0.00 0.00 3544.02 291.00" xmlns="http://www.w3.org/2000/svg" xmlns:xlink="http://www.w3.org/1999/xlink">
<g id="graph0" class="graph" transform="scale(1 1) rotate(0) translate(4 287)">
<title>%3</title>
<polygon fill="white" stroke="transparent" points="-4,4 -4,-287 3540.02,-287 3540.02,4 -4,4"/>
<!-- variant to componentservice availability association -->
<g id="node1" class="node">
<title>variant to componentservice availability association</title>
<ellipse fill="none" stroke="black" cx="1815.23" cy="-265" rx="252.36" ry="18"/>
<text text-anchor="middle" x="1815.23" y="-261.3" font-family="Times,serif" font-size="14.00">variant to componentservice availability association</text>
</g>
<!-- variant to componentservice association -->
<g id="node2" class="node">
<title>variant to componentservice association</title>
<ellipse fill="none" stroke="black" cx="198.23" cy="-178" rx="198.47" ry="18"/>
<text text-anchor="middle" x="198.23" y="-174.3" font-family="Times,serif" font-size="14.00">variant to componentservice association</text>
</g>
<!-- variant to componentservice availability association&#45;&gt;variant to componentservice association -->
<g id="edge1" class="edge">
<title>variant to componentservice availability association&#45;&gt;variant to componentservice association</title>
<path fill="none" stroke="black" d="M1573.83,-259.78C1360.08,-255.14 1039.69,-245.98 761.23,-229 614.58,-220.06 446.88,-204.47 332.92,-193.07"/>
<polygon fill="black" stroke="black" points="333.05,-189.57 322.75,-192.05 332.35,-196.53 333.05,-189.57"/>
<text text-anchor="middle" x="775.23" y="-217.8" font-family="Times,serif" font-size="14.00">is_a</text>
</g>
<!-- componentservice availability mixin -->
<g id="node3" class="node">
<title>componentservice availability mixin</title>
<ellipse fill="none" stroke="black" cx="592.23" cy="-178" rx="178.17" ry="18"/>
<text text-anchor="middle" x="592.23" y="-174.3" font-family="Times,serif" font-size="14.00">componentservice availability mixin</text>
</g>
<!-- variant to componentservice availability association&#45;&gt;componentservice availability mixin -->
<g id="edge2" class="edge">
<title>variant to componentservice availability association&#45;&gt;componentservice availability mixin</title>
<path fill="none" stroke="black" d="M1565.56,-262.45C1382.4,-259.36 1127.87,-250.98 905.23,-229 829.11,-221.48 743.36,-207.39 680.89,-196.07"/>
<polygon fill="black" stroke="black" points="681.15,-192.56 670.68,-194.21 679.89,-199.45 681.15,-192.56"/>
<text text-anchor="middle" x="921.73" y="-217.8" font-family="Times,serif" font-size="14.00">uses</text>
</g>
<!-- id -->
<g id="node4" class="node">
<title>id</title>
<ellipse fill="none" stroke="blue" cx="826.23" cy="-178" rx="38.19" ry="18"/>
<text text-anchor="middle" x="826.23" y="-174.3" font-family="Times,serif" font-size="14.00">string</text>
</g>
<!-- variant to componentservice availability association&#45;&gt;id -->
<g id="edge3" class="edge">
<title>variant to componentservice availability association&#45;&gt;id</title>
<path fill="none" stroke="blue" d="M1564.43,-263.06C1410.36,-259.93 1209.26,-251.3 1032.23,-229 961.06,-220.04 943.31,-215.35 874.23,-196 871.13,-195.13 867.93,-194.16 864.73,-193.14"/>
<polygon fill="blue" stroke="blue" points="865.82,-189.81 855.22,-189.97 863.6,-196.46 865.82,-189.81"/>
<text text-anchor="middle" x="1039.23" y="-217.8" font-family="Times,serif" font-size="14.00">id</text>
</g>
<!-- iri -->
<g id="node5" class="node">
<title>iri</title>
<ellipse fill="none" stroke="blue" cx="927.23" cy="-178" rx="44.39" ry="18"/>
<text text-anchor="middle" x="927.23" y="-174.3" font-family="Times,serif" font-size="14.00">iri type</text>
</g>
<!-- variant to componentservice availability association&#45;&gt;iri -->
<g id="edge4" class="edge">
<title>variant to componentservice availability association&#45;&gt;iri</title>
<path fill="none" stroke="blue" d="M1570.44,-260.65C1440.92,-256.54 1279.46,-247.72 1136.23,-229 1065.96,-219.81 1048.73,-214.18 980.23,-196 976.86,-195.11 973.39,-194.12 969.91,-193.1"/>
<polygon fill="blue" stroke="blue" points="970.74,-189.7 960.16,-190.13 968.71,-196.39 970.74,-189.7"/>
<text text-anchor="middle" x="1144.23" y="-217.8" font-family="Times,serif" font-size="14.00">iri</text>
</g>
<!-- name -->
<g id="node6" class="node">
<title>name</title>
<ellipse fill="none" stroke="blue" cx="1046.23" cy="-178" rx="56.59" ry="18"/>
<text text-anchor="middle" x="1046.23" y="-174.3" font-family="Times,serif" font-size="14.00">label type</text>
</g>
<!-- variant to componentservice availability association&#45;&gt;name -->
<g id="edge5" class="edge">
<title>variant to componentservice availability association&#45;&gt;name</title>
<path fill="none" stroke="blue" d="M1566.56,-261.87C1458.84,-257.74 1331.67,-248.56 1218.23,-229 1174.58,-221.47 1126.26,-206.84 1091.97,-195.34"/>
<polygon fill="blue" stroke="blue" points="1092.84,-191.94 1082.25,-192.04 1090.59,-198.57 1092.84,-191.94"/>
<text text-anchor="middle" x="1238.23" y="-217.8" font-family="Times,serif" font-size="14.00">name</text>
</g>
<!-- description -->
<g id="node7" class="node">
<title>description</title>
<ellipse fill="none" stroke="blue" cx="1196.23" cy="-178" rx="75.29" ry="18"/>
<text text-anchor="middle" x="1196.23" y="-174.3" font-family="Times,serif" font-size="14.00">narrative text</text>
</g>
<!-- variant to componentservice availability association&#45;&gt;description -->
<g id="edge6" class="edge">
<title>variant to componentservice availability association&#45;&gt;description</title>
<path fill="none" stroke="blue" d="M1589.19,-257.02C1476.96,-251.87 1354.06,-243.21 1300.23,-229 1276.15,-222.65 1250.93,-210.67 1231.36,-200.04"/>
<polygon fill="blue" stroke="blue" points="1232.96,-196.92 1222.52,-195.11 1229.55,-203.03 1232.96,-196.92"/>
<text text-anchor="middle" x="1340.73" y="-217.8" font-family="Times,serif" font-size="14.00">description</text>
</g>
<!-- source -->
<g id="node8" class="node">
<title>source</title>
<ellipse fill="none" stroke="blue" cx="1346.23" cy="-178" rx="56.59" ry="18"/>
<text text-anchor="middle" x="1346.23" y="-174.3" font-family="Times,serif" font-size="14.00">label type</text>
</g>
<!-- variant to componentservice availability association&#45;&gt;source -->
<g id="edge7" class="edge">
<title>variant to componentservice availability association&#45;&gt;source</title>
<path fill="none" stroke="blue" d="M1596.08,-256.08C1519.93,-250.98 1444.92,-242.64 1410.23,-229 1395.24,-223.1 1380.88,-212.51 1369.58,-202.59"/>
<polygon fill="blue" stroke="blue" points="1371.65,-199.74 1361.92,-195.56 1366.92,-204.9 1371.65,-199.74"/>
<text text-anchor="middle" x="1434.23" y="-217.8" font-family="Times,serif" font-size="14.00">source</text>
</g>
<!-- provided by -->
<g id="node9" class="node">
<title>provided by</title>
<ellipse fill="none" stroke="blue" cx="1458.23" cy="-178" rx="37.09" ry="18"/>
<text text-anchor="middle" x="1458.23" y="-174.3" font-family="Times,serif" font-size="14.00">agent</text>
</g>
<!-- variant to componentservice availability association&#45;&gt;provided by -->
<g id="edge8" class="edge">
<title>variant to componentservice availability association&#45;&gt;provided by</title>
<path fill="none" stroke="blue" d="M1621.34,-253.47C1550.23,-247.87 1483.88,-239.84 1471.23,-229 1464.65,-223.35 1461.18,-214.84 1459.42,-206.43"/>
<polygon fill="blue" stroke="blue" points="1462.87,-205.84 1458.02,-196.42 1455.94,-206.81 1462.87,-205.84"/>
<text text-anchor="middle" x="1513.73" y="-217.8" font-family="Times,serif" font-size="14.00">provided by</text>
</g>
<!-- has attribute -->
<g id="node10" class="node">
<title>has attribute</title>
<ellipse fill="none" stroke="blue" cx="1565.23" cy="-178" rx="51.99" ry="18"/>
<text text-anchor="middle" x="1565.23" y="-174.3" font-family="Times,serif" font-size="14.00">attribute</text>
</g>
<!-- variant to componentservice availability association&#45;&gt;has attribute -->
<g id="edge9" class="edge">
<title>variant to componentservice availability association&#45;&gt;has attribute</title>
<path fill="none" stroke="blue" d="M1625.54,-253.06C1598.27,-247.78 1576.08,-240.1 1566.23,-229 1560.8,-222.88 1559.24,-214.49 1559.42,-206.33"/>
<polygon fill="blue" stroke="blue" points="1562.91,-206.62 1560.44,-196.31 1555.95,-205.91 1562.91,-206.62"/>
<text text-anchor="middle" x="1613.23" y="-217.8" font-family="Times,serif" font-size="14.00">has attribute</text>
</g>
<!-- subject -->
<g id="node11" class="node">
<title>subject</title>
<ellipse fill="none" stroke="blue" cx="1743.23" cy="-178" rx="69.59" ry="18"/>
<text text-anchor="middle" x="1743.23" y="-174.3" font-family="Times,serif" font-size="14.00">named thing</text>
</g>
<!-- variant to componentservice availability association&#45;&gt;subject -->
<g id="edge10" class="edge">
<title>variant to componentservice availability association&#45;&gt;subject</title>
<path fill="none" stroke="blue" d="M1799.05,-246.76C1793.91,-241.16 1788.26,-234.88 1783.23,-229 1776.37,-220.98 1769.09,-212.02 1762.65,-203.93"/>
<polygon fill="blue" stroke="blue" points="1765.24,-201.57 1756.29,-195.89 1759.75,-205.91 1765.24,-201.57"/>
<text text-anchor="middle" x="1809.23" y="-217.8" font-family="Times,serif" font-size="14.00">subject</text>
</g>
<!-- relation -->
<g id="node12" class="node">
<title>relation</title>
<ellipse fill="none" stroke="blue" cx="1729.23" cy="-18" rx="57.39" ry="18"/>
<text text-anchor="middle" x="1729.23" y="-14.3" font-family="Times,serif" font-size="14.00">uriorcurie</text>
</g>
<!-- variant to componentservice availability association&#45;&gt;relation -->
<g id="edge11" class="edge">
<title>variant to componentservice availability association&#45;&gt;relation</title>
<path fill="none" stroke="blue" d="M1737.9,-247.82C1709.78,-237.8 1680.85,-221.72 1664.23,-196 1632.23,-146.5 1677.41,-79.06 1707.02,-43.41"/>
<polygon fill="blue" stroke="blue" points="1709.97,-45.36 1713.8,-35.48 1704.64,-40.81 1709.97,-45.36"/>
<text text-anchor="middle" x="1686.23" y="-130.8" font-family="Times,serif" font-size="14.00">relation</text>
</g>
<!-- negated -->
<g id="node13" class="node">
<title>negated</title>
<ellipse fill="none" stroke="blue" cx="1958.23" cy="-178" rx="46.59" ry="18"/>
<text text-anchor="middle" x="1958.23" y="-174.3" font-family="Times,serif" font-size="14.00">boolean</text>
</g>
<!-- variant to componentservice availability association&#45;&gt;negated -->
<g id="edge12" class="edge">
<title>variant to componentservice availability association&#45;&gt;negated</title>
<path fill="none" stroke="blue" d="M1843.83,-247C1867.35,-233.02 1900.69,-213.2 1925.32,-198.56"/>
<polygon fill="blue" stroke="blue" points="1927.16,-201.54 1933.97,-193.42 1923.58,-195.52 1927.16,-201.54"/>
<text text-anchor="middle" x="1925.23" y="-217.8" font-family="Times,serif" font-size="14.00">negated</text>
</g>
<!-- qualifiers -->
<g id="node14" class="node">
<title>qualifiers</title>
<ellipse fill="none" stroke="blue" cx="2099.23" cy="-178" rx="76.89" ry="18"/>
<text text-anchor="middle" x="2099.23" y="-174.3" font-family="Times,serif" font-size="14.00">ontology class</text>
</g>
<!-- variant to componentservice availability association&#45;&gt;qualifiers -->
<g id="edge13" class="edge">
<title>variant to componentservice availability association&#45;&gt;qualifiers</title>
<path fill="none" stroke="blue" d="M1888,-247.69C1910.63,-242.22 1935.58,-235.77 1958.23,-229 1989.59,-219.63 2024.25,-207.37 2051.35,-197.33"/>
<polygon fill="blue" stroke="blue" points="2052.83,-200.52 2060.98,-193.74 2050.38,-193.96 2052.83,-200.52"/>
<text text-anchor="middle" x="2035.73" y="-217.8" font-family="Times,serif" font-size="14.00">qualifiers</text>
</g>
<!-- publications -->
<g id="node15" class="node">
<title>publications</title>
<ellipse fill="none" stroke="blue" cx="2256.23" cy="-178" rx="62.29" ry="18"/>
<text text-anchor="middle" x="2256.23" y="-174.3" font-family="Times,serif" font-size="14.00">publication</text>
</g>
<!-- variant to componentservice availability association&#45;&gt;publications -->
<g id="edge14" class="edge">
<title>variant to componentservice availability association&#45;&gt;publications</title>
<path fill="none" stroke="blue" d="M1946.38,-249.61C1987.21,-244.22 2032.26,-237.34 2073.23,-229 2118.52,-219.78 2169.13,-205.65 2205.63,-194.76"/>
<polygon fill="blue" stroke="blue" points="2206.97,-198.01 2215.54,-191.78 2204.95,-191.31 2206.97,-198.01"/>
<text text-anchor="middle" x="2178.23" y="-217.8" font-family="Times,serif" font-size="14.00">publications</text>
</g>
<!-- type -->
<g id="node16" class="node">
<title>type</title>
<ellipse fill="none" stroke="black" cx="2368.23" cy="-178" rx="31.4" ry="18"/>
<text text-anchor="middle" x="2368.23" y="-174.3" font-family="Times,serif" font-size="14.00">type</text>
</g>
<!-- variant to componentservice availability association&#45;&gt;type -->
<g id="edge15" class="edge">
<title>variant to componentservice availability association&#45;&gt;type</title>
<path fill="none" stroke="blue" d="M1997.82,-252.57C2086.51,-246.19 2183.07,-237.77 2226.23,-229 2264.61,-221.21 2306.71,-205.41 2335.02,-193.64"/>
<polygon fill="blue" stroke="blue" points="2336.58,-196.78 2344.44,-189.67 2333.86,-190.34 2336.58,-196.78"/>
<text text-anchor="middle" x="2294.23" y="-217.8" font-family="Times,serif" font-size="14.00">type</text>
</g>
<!-- category -->
<g id="node18" class="node">
<title>category</title>
<ellipse fill="none" stroke="black" cx="2469.23" cy="-178" rx="51.19" ry="18"/>
<text text-anchor="middle" x="2469.23" y="-174.3" font-family="Times,serif" font-size="14.00">category</text>
</g>
<!-- variant to componentservice availability association&#45;&gt;category -->
<g id="edge16" class="edge">
<title>variant to componentservice availability association&#45;&gt;category</title>
<path fill="none" stroke="blue" d="M1995.56,-252.38C2131.92,-243.42 2298.35,-232.07 2314.23,-229 2353.44,-221.42 2396.55,-206.99 2427.34,-195.57"/>
<polygon fill="blue" stroke="blue" points="2428.75,-198.78 2436.88,-191.98 2426.29,-192.23 2428.75,-198.78"/>
<text text-anchor="middle" x="2402.73" y="-217.8" font-family="Times,serif" font-size="14.00">category</text>
</g>
<!-- object -->
<g id="node20" class="node">
<title>object</title>
<ellipse fill="none" stroke="black" cx="1796.23" cy="-91" rx="38.99" ry="18"/>
<text text-anchor="middle" x="1796.23" y="-87.3" font-family="Times,serif" font-size="14.00">object</text>
</g>
<!-- variant to componentservice availability association&#45;&gt;object -->
<g id="edge17" class="edge">
<title>variant to componentservice availability association&#45;&gt;object</title>
<path fill="none" stroke="blue" d="M1827.31,-246.97C1830.53,-241.49 1833.58,-235.22 1835.23,-229 1841.65,-204.82 1867.66,-204.49 1833.23,-127 1831.09,-122.17 1827.93,-117.7 1824.35,-113.66"/>
<polygon fill="blue" stroke="blue" points="1826.67,-111.03 1817.1,-106.49 1821.75,-116.01 1826.67,-111.03"/>
<text text-anchor="middle" x="1873.23" y="-174.3" font-family="Times,serif" font-size="14.00">object</text>
</g>
<!-- predicate -->
<g id="node22" class="node">
<title>predicate</title>
<ellipse fill="none" stroke="black" cx="2593.23" cy="-178" rx="54.69" ry="18"/>
<text text-anchor="middle" x="2593.23" y="-174.3" font-family="Times,serif" font-size="14.00">predicate</text>
</g>
<!-- variant to componentservice availability association&#45;&gt;predicate -->
<g id="edge18" class="edge">
<title>variant to componentservice availability association&#45;&gt;predicate</title>
<path fill="none" stroke="blue" d="M1992.08,-252.16C2020.55,-250.36 2049.7,-248.58 2077.23,-247 2237.61,-237.8 2280.21,-257.91 2438.23,-229 2477.26,-221.86 2520.07,-207.53 2550.79,-196.03"/>
<polygon fill="blue" stroke="blue" points="2552.22,-199.23 2560.32,-192.41 2549.73,-192.69 2552.22,-199.23"/>
<text text-anchor="middle" x="2529.23" y="-217.8" font-family="Times,serif" font-size="14.00">predicate</text>
</g>
<!-- quantifier qualifier -->
<g id="node24" class="node">
<title>quantifier qualifier</title>
<ellipse fill="none" stroke="black" cx="2763.23" cy="-178" rx="97.48" ry="18"/>
<text text-anchor="middle" x="2763.23" y="-174.3" font-family="Times,serif" font-size="14.00">quantifier qualifier</text>
</g>
<!-- variant to componentservice availability association&#45;&gt;quantifier qualifier -->
<g id="edge19" class="edge">
<title>variant to componentservice availability association&#45;&gt;quantifier qualifier</title>
<path fill="none" stroke="blue" d="M1989.95,-251.98C2019.09,-250.17 2049.01,-248.43 2077.23,-247 2294.88,-235.94 2351.54,-260.11 2567.23,-229 2614.93,-222.12 2667.82,-208.25 2706.62,-196.86"/>
<polygon fill="blue" stroke="blue" points="2708.08,-200.07 2716.67,-193.87 2706.09,-193.36 2708.08,-200.07"/>
<text text-anchor="middle" x="2705.23" y="-217.8" font-family="Times,serif" font-size="14.00">quantifier qualifier</text>
</g>
<!-- availability site -->
<g id="node26" class="node">
<title>availability site</title>
<ellipse fill="none" stroke="blue" cx="2974.23" cy="-178" rx="95.58" ry="18"/>
<text text-anchor="middle" x="2974.23" y="-174.3" font-family="Times,serif" font-size="14.00">deployment entity</text>
</g>
<!-- variant to componentservice availability association&#45;&gt;availability site -->
<g id="edge20" class="edge">
<title>variant to componentservice availability association&#45;&gt;availability site</title>
<path fill="none" stroke="blue" d="M1987.82,-251.84C2017.63,-250.02 2048.32,-248.31 2077.23,-247 2232.46,-239.97 2622.29,-250.15 2776.23,-229 2824.96,-222.3 2879.03,-208.18 2918.34,-196.65"/>
<polygon fill="blue" stroke="blue" points="2919.41,-199.98 2928,-193.78 2917.42,-193.27 2919.41,-199.98"/>
<text text-anchor="middle" x="2909.23" y="-217.8" font-family="Times,serif" font-size="14.00">availability site</text>
</g>
<!-- stage qualifier -->
<g id="node27" class="node">
<title>stage qualifier</title>
<ellipse fill="none" stroke="blue" cx="3165.23" cy="-178" rx="77.19" ry="18"/>
<text text-anchor="middle" x="3165.23" y="-174.3" font-family="Times,serif" font-size="14.00">lifecycle stage</text>
</g>
<!-- variant to componentservice availability association&#45;&gt;stage qualifier -->
<g id="edge21" class="edge">
<title>variant to componentservice availability association&#45;&gt;stage qualifier</title>
<path fill="none" stroke="blue" d="M1986.76,-251.77C2016.9,-249.93 2047.97,-248.24 2077.23,-247 2275.09,-238.59 2771.98,-255.53 2968.23,-229 3017.88,-222.29 3073.04,-207.64 3112.34,-195.93"/>
<polygon fill="blue" stroke="blue" points="3113.42,-199.26 3121.98,-193.02 3111.39,-192.56 3113.42,-199.26"/>
<text text-anchor="middle" x="3096.73" y="-217.8" font-family="Times,serif" font-size="14.00">stage qualifier</text>
</g>
<!-- observable state -->
<g id="node28" class="node">
<title>observable state</title>
<ellipse fill="none" stroke="blue" cx="3398.23" cy="-178" rx="137.58" ry="18"/>
<text text-anchor="middle" x="3398.23" y="-174.3" font-family="Times,serif" font-size="14.00">error or observable feature</text>
</g>
<!-- variant to componentservice availability association&#45;&gt;observable state -->
<g id="edge22" class="edge">
<title>variant to componentservice availability association&#45;&gt;observable state</title>
<path fill="none" stroke="blue" d="M1986.05,-251.73C2016.41,-249.88 2047.74,-248.2 2077.23,-247 2315.96,-237.26 2914.72,-254.9 3152.23,-229 3212.42,-222.44 3279.73,-208.27 3328.71,-196.69"/>
<polygon fill="blue" stroke="blue" points="3329.65,-200.06 3338.56,-194.33 3328.02,-193.25 3329.65,-200.06"/>
<text text-anchor="middle" x="3307.73" y="-217.8" font-family="Times,serif" font-size="14.00">observable state</text>
</g>
<!-- subject&#45;&gt;relation -->
<g id="edge24" class="edge">
<title>subject&#45;&gt;relation</title>
<path fill="none" stroke="black" stroke-dasharray="1,5" d="M1741.71,-159.79C1739.29,-132.48 1734.55,-78.99 1731.66,-46.38"/>
<polygon fill="black" stroke="black" points="1735.12,-45.84 1730.76,-36.19 1728.15,-46.46 1735.12,-45.84"/>
</g>
<!-- subject&#45;&gt;object -->
<g id="edge23" class="edge">
<title>subject&#45;&gt;object</title>
<path fill="none" stroke="black" d="M1753.96,-159.8C1761.6,-147.54 1771.99,-130.87 1780.56,-117.13"/>
<polygon fill="black" stroke="black" points="1783.56,-118.93 1785.88,-108.6 1777.62,-115.23 1783.56,-118.93"/>
<text text-anchor="middle" x="1801.23" y="-130.8" font-family="Times,serif" font-size="14.00">relation</text>
</g>
<!-- association_type -->
<g id="node17" class="node">
<title>association_type</title>
<ellipse fill="none" stroke="blue" cx="2124.23" cy="-265" rx="38.19" ry="18"/>
<text text-anchor="middle" x="2124.23" y="-261.3" font-family="Times,serif" font-size="14.00">string</text>
</g>
<!-- association_category -->
<g id="node19" class="node">
<title>association_category</title>
<ellipse fill="none" stroke="blue" cx="2243.23" cy="-265" rx="62.29" ry="18"/>
<text text-anchor="middle" x="2243.23" y="-261.3" font-family="Times,serif" font-size="14.00">association</text>
</g>
<!-- object&#45;&gt;relation -->
<g id="edge25" class="edge">
<title>object&#45;&gt;relation</title>
<path fill="none" stroke="black" stroke-dasharray="1,5" d="M1781.36,-74.24C1772.76,-65.13 1761.76,-53.47 1752.08,-43.21"/>
<polygon fill="black" stroke="black" points="1754.4,-40.57 1744.99,-35.7 1749.31,-45.38 1754.4,-40.57"/>
</g>
<!-- variant to componentservice association_object -->
<g id="node21" class="node">
<title>variant to componentservice association_object</title>
<ellipse fill="none" stroke="blue" cx="2418.23" cy="-265" rx="94.78" ry="18"/>
<text text-anchor="middle" x="2418.23" y="-261.3" font-family="Times,serif" font-size="14.00">componentservice</text>
</g>
<!-- variant to componentservice availability association_predicate -->
<g id="node23" class="node">
<title>variant to componentservice availability association_predicate</title>
<ellipse fill="none" stroke="blue" cx="2609.23" cy="-265" rx="77.99" ry="18"/>
<text text-anchor="middle" x="2609.23" y="-261.3" font-family="Times,serif" font-size="14.00">predicate type</text>
</g>
<!-- componentservice availability mixin_quantifier qualifier -->
<g id="node25" class="node">
<title>componentservice availability mixin_quantifier qualifier</title>
<ellipse fill="none" stroke="blue" cx="2782.23" cy="-265" rx="76.89" ry="18"/>
<text text-anchor="middle" x="2782.23" y="-261.3" font-family="Times,serif" font-size="14.00">ontology class</text>
</g>
</g>
</svg>
