<?xml version="1.0" encoding="UTF-8" standalone="no"?>
<!DOCTYPE svg PUBLIC "-//W3C//DTD SVG 1.1//EN"
 "http://www.w3.org/Graphics/SVG/1.1/DTD/svg11.dtd">
<!-- Generated by graphviz version 2.43.0 (0)
 -->
<!-- Title: %3 Pages: 1 -->
<svg width="3129pt" height="291pt"
 viewBox="0.00 0.00 3129.39 291.00" xmlns="http://www.w3.org/2000/svg" xmlns:xlink="http://www.w3.org/1999/xlink">
<g id="graph0" class="graph" transform="scale(1 1) rotate(0) translate(4 287)">
<title>%3</title>
<polygon fill="white" stroke="transparent" points="-4,4 -4,-287 3125.39,-287 3125.39,4 -4,4"/>
<!-- variant to error association -->
<g id="node1" class="node">
<title>variant to error association</title>
<ellipse fill="none" stroke="black" cx="1748.39" cy="-265" rx="137.58" ry="18"/>
<text text-anchor="middle" x="1748.39" y="-261.3" font-family="Times,serif" font-size="14.00">variant to error association</text>
</g>
<!-- association -->
<g id="node2" class="node">
<title>association</title>
<ellipse fill="none" stroke="black" cx="62.39" cy="-178" rx="62.29" ry="18"/>
<text text-anchor="middle" x="62.39" y="-174.3" font-family="Times,serif" font-size="14.00">association</text>
</g>
<!-- variant to error association&#45;&gt;association -->
<g id="edge1" class="edge">
<title>variant to error association&#45;&gt;association</title>
<path fill="none" stroke="black" d="M1613.04,-261.59C1398.72,-257.4 968.12,-247.37 603.39,-229 394.26,-218.47 340.37,-227.82 133.39,-196 127.91,-195.16 122.23,-194.11 116.58,-192.94"/>
<polygon fill="black" stroke="black" points="117,-189.45 106.48,-190.75 115.51,-196.29 117,-189.45"/>
<text text-anchor="middle" x="617.39" y="-217.8" font-family="Times,serif" font-size="14.00">is_a</text>
</g>
<!-- variant to entity association mixin -->
<g id="node3" class="node">
<title>variant to entity association mixin</title>
<ellipse fill="none" stroke="black" cx="312.39" cy="-178" rx="169.77" ry="18"/>
<text text-anchor="middle" x="312.39" y="-174.3" font-family="Times,serif" font-size="14.00">variant to entity association mixin</text>
</g>
<!-- variant to error association&#45;&gt;variant to entity association mixin -->
<g id="edge2" class="edge">
<title>variant to error association&#45;&gt;variant to entity association mixin</title>
<path fill="none" stroke="black" d="M1612.92,-261.55C1431.08,-257.66 1098.1,-248.43 814.39,-229 683.11,-220.01 533.01,-204.35 431.41,-192.95"/>
<polygon fill="black" stroke="black" points="431.75,-189.46 421.42,-191.82 430.96,-196.42 431.75,-189.46"/>
<text text-anchor="middle" x="830.89" y="-217.8" font-family="Times,serif" font-size="14.00">uses</text>
</g>
<!-- entity to error association mixin -->
<g id="node4" class="node">
<title>entity to error association mixin</title>
<ellipse fill="none" stroke="black" cx="660.39" cy="-178" rx="160.57" ry="18"/>
<text text-anchor="middle" x="660.39" y="-174.3" font-family="Times,serif" font-size="14.00">entity to error association mixin</text>
</g>
<!-- variant to error association&#45;&gt;entity to error association mixin -->
<g id="edge3" class="edge">
<title>variant to error association&#45;&gt;entity to error association mixin</title>
<path fill="none" stroke="black" d="M1611.19,-263.02C1453.13,-260.71 1185.85,-253.19 957.39,-229 885.02,-221.34 803.54,-207.22 744.26,-195.94"/>
<polygon fill="black" stroke="black" points="744.68,-192.46 734.2,-194.01 743.36,-199.33 744.68,-192.46"/>
<text text-anchor="middle" x="973.89" y="-217.8" font-family="Times,serif" font-size="14.00">uses</text>
</g>
<!-- id -->
<g id="node5" class="node">
<title>id</title>
<ellipse fill="none" stroke="blue" cx="877.39" cy="-178" rx="38.19" ry="18"/>
<text text-anchor="middle" x="877.39" y="-174.3" font-family="Times,serif" font-size="14.00">string</text>
</g>
<!-- variant to error association&#45;&gt;id -->
<g id="edge4" class="edge">
<title>variant to error association&#45;&gt;id</title>
<path fill="none" stroke="blue" d="M1611.56,-262.72C1477.32,-260.06 1267.05,-252.16 1086.39,-229 1013.94,-219.71 995.77,-215.57 925.39,-196 922.29,-195.14 919.09,-194.17 915.89,-193.15"/>
<polygon fill="blue" stroke="blue" points="916.97,-189.83 906.38,-189.99 914.76,-196.47 916.97,-189.83"/>
<text text-anchor="middle" x="1093.39" y="-217.8" font-family="Times,serif" font-size="14.00">id</text>
</g>
<!-- iri -->
<g id="node6" class="node">
<title>iri</title>
<ellipse fill="none" stroke="blue" cx="978.39" cy="-178" rx="44.39" ry="18"/>
<text text-anchor="middle" x="978.39" y="-174.3" font-family="Times,serif" font-size="14.00">iri type</text>
</g>
<!-- variant to error association&#45;&gt;iri -->
<g id="edge5" class="edge">
<title>variant to error association&#45;&gt;iri</title>
<path fill="none" stroke="blue" d="M1613.77,-261.05C1500,-257.25 1332.95,-248.6 1188.39,-229 1117.74,-219.42 1100.32,-214.25 1031.39,-196 1028.02,-195.11 1024.55,-194.13 1021.07,-193.11"/>
<polygon fill="blue" stroke="blue" points="1021.9,-189.7 1011.32,-190.14 1019.87,-196.4 1021.9,-189.7"/>
<text text-anchor="middle" x="1196.39" y="-217.8" font-family="Times,serif" font-size="14.00">iri</text>
</g>
<!-- name -->
<g id="node7" class="node">
<title>name</title>
<ellipse fill="none" stroke="blue" cx="1097.39" cy="-178" rx="56.59" ry="18"/>
<text text-anchor="middle" x="1097.39" y="-174.3" font-family="Times,serif" font-size="14.00">label type</text>
</g>
<!-- variant to error association&#45;&gt;name -->
<g id="edge6" class="edge">
<title>variant to error association&#45;&gt;name</title>
<path fill="none" stroke="blue" d="M1613.02,-261.58C1516.8,-258.05 1384.86,-249.5 1270.39,-229 1226.56,-221.15 1177.95,-206.56 1143.44,-195.15"/>
<polygon fill="blue" stroke="blue" points="1144.25,-191.73 1133.66,-191.88 1142.03,-198.37 1144.25,-191.73"/>
<text text-anchor="middle" x="1290.39" y="-217.8" font-family="Times,serif" font-size="14.00">name</text>
</g>
<!-- description -->
<g id="node8" class="node">
<title>description</title>
<ellipse fill="none" stroke="blue" cx="1247.39" cy="-178" rx="75.29" ry="18"/>
<text text-anchor="middle" x="1247.39" y="-174.3" font-family="Times,serif" font-size="14.00">narrative text</text>
</g>
<!-- variant to error association&#45;&gt;description -->
<g id="edge7" class="edge">
<title>variant to error association&#45;&gt;description</title>
<path fill="none" stroke="blue" d="M1622.24,-257.72C1525.9,-252.01 1401.58,-242.42 1352.39,-229 1328.18,-222.4 1302.72,-210.41 1282.94,-199.84"/>
<polygon fill="blue" stroke="blue" points="1284.45,-196.67 1274,-194.94 1281.09,-202.81 1284.45,-196.67"/>
<text text-anchor="middle" x="1392.89" y="-217.8" font-family="Times,serif" font-size="14.00">description</text>
</g>
<!-- source -->
<g id="node9" class="node">
<title>source</title>
<ellipse fill="none" stroke="blue" cx="1397.39" cy="-178" rx="56.59" ry="18"/>
<text text-anchor="middle" x="1397.39" y="-174.3" font-family="Times,serif" font-size="14.00">label type</text>
</g>
<!-- variant to error association&#45;&gt;source -->
<g id="edge8" class="edge">
<title>variant to error association&#45;&gt;source</title>
<path fill="none" stroke="blue" d="M1629.86,-255.8C1565.2,-250.09 1492.37,-241.28 1462.39,-229 1447.19,-222.77 1432.49,-212 1420.93,-202.05"/>
<polygon fill="blue" stroke="blue" points="1423.24,-199.42 1413.45,-195.36 1418.57,-204.64 1423.24,-199.42"/>
<text text-anchor="middle" x="1486.39" y="-217.8" font-family="Times,serif" font-size="14.00">source</text>
</g>
<!-- provided by -->
<g id="node10" class="node">
<title>provided by</title>
<ellipse fill="none" stroke="blue" cx="1509.39" cy="-178" rx="37.09" ry="18"/>
<text text-anchor="middle" x="1509.39" y="-174.3" font-family="Times,serif" font-size="14.00">agent</text>
</g>
<!-- variant to error association&#45;&gt;provided by -->
<g id="edge9" class="edge">
<title>variant to error association&#45;&gt;provided by</title>
<path fill="none" stroke="blue" d="M1626.05,-256.68C1582.09,-251.66 1539.4,-243.21 1523.39,-229 1516.88,-223.21 1513.29,-214.67 1511.34,-206.27"/>
<polygon fill="blue" stroke="blue" points="1514.78,-205.59 1509.7,-196.29 1507.87,-206.73 1514.78,-205.59"/>
<text text-anchor="middle" x="1565.89" y="-217.8" font-family="Times,serif" font-size="14.00">provided by</text>
</g>
<!-- has attribute -->
<g id="node11" class="node">
<title>has attribute</title>
<ellipse fill="none" stroke="blue" cx="1616.39" cy="-178" rx="51.99" ry="18"/>
<text text-anchor="middle" x="1616.39" y="-174.3" font-family="Times,serif" font-size="14.00">attribute</text>
</g>
<!-- variant to error association&#45;&gt;has attribute -->
<g id="edge10" class="edge">
<title>variant to error association&#45;&gt;has attribute</title>
<path fill="none" stroke="blue" d="M1666.66,-250.41C1644.32,-244.96 1624.33,-237.85 1617.39,-229 1612.4,-222.63 1610.91,-214.28 1611.04,-206.23"/>
<polygon fill="blue" stroke="blue" points="1614.55,-206.28 1611.97,-196.01 1607.57,-205.65 1614.55,-206.28"/>
<text text-anchor="middle" x="1664.39" y="-217.8" font-family="Times,serif" font-size="14.00">has attribute</text>
</g>
<!-- relation -->
<g id="node12" class="node">
<title>relation</title>
<ellipse fill="none" stroke="blue" cx="2371.39" cy="-18" rx="57.39" ry="18"/>
<text text-anchor="middle" x="2371.39" y="-14.3" font-family="Times,serif" font-size="14.00">uriorcurie</text>
</g>
<!-- variant to error association&#45;&gt;relation -->
<g id="edge11" class="edge">
<title>variant to error association&#45;&gt;relation</title>
<path fill="none" stroke="blue" d="M1734.03,-246.72C1717.37,-224.47 1694.68,-185.64 1715.39,-160 1789.28,-68.54 2154.53,-33.65 2305.7,-22.98"/>
<polygon fill="blue" stroke="blue" points="2306.04,-26.46 2315.78,-22.28 2305.56,-19.48 2306.04,-26.46"/>
<text text-anchor="middle" x="1785.39" y="-130.8" font-family="Times,serif" font-size="14.00">relation</text>
</g>
<!-- negated -->
<g id="node13" class="node">
<title>negated</title>
<ellipse fill="none" stroke="blue" cx="1771.39" cy="-178" rx="46.59" ry="18"/>
<text text-anchor="middle" x="1771.39" y="-174.3" font-family="Times,serif" font-size="14.00">boolean</text>
</g>
<!-- variant to error association&#45;&gt;negated -->
<g id="edge12" class="edge">
<title>variant to error association&#45;&gt;negated</title>
<path fill="none" stroke="blue" d="M1753.05,-246.8C1756.23,-235.05 1760.51,-219.24 1764.13,-205.84"/>
<polygon fill="blue" stroke="blue" points="1767.51,-206.74 1766.75,-196.18 1760.76,-204.91 1767.51,-206.74"/>
<text text-anchor="middle" x="1790.39" y="-217.8" font-family="Times,serif" font-size="14.00">negated</text>
</g>
<!-- qualifiers -->
<g id="node14" class="node">
<title>qualifiers</title>
<ellipse fill="none" stroke="blue" cx="1912.39" cy="-178" rx="76.89" ry="18"/>
<text text-anchor="middle" x="1912.39" y="-174.3" font-family="Times,serif" font-size="14.00">ontology class</text>
</g>
<!-- variant to error association&#45;&gt;qualifiers -->
<g id="edge13" class="edge">
<title>variant to error association&#45;&gt;qualifiers</title>
<path fill="none" stroke="blue" d="M1784.9,-247.63C1797.22,-241.93 1810.99,-235.36 1823.39,-229 1841.06,-219.93 1860.3,-209.23 1876.36,-200.05"/>
<polygon fill="blue" stroke="blue" points="1878.49,-202.87 1885.42,-194.85 1875,-196.8 1878.49,-202.87"/>
<text text-anchor="middle" x="1884.89" y="-217.8" font-family="Times,serif" font-size="14.00">qualifiers</text>
</g>
<!-- publications -->
<g id="node15" class="node">
<title>publications</title>
<ellipse fill="none" stroke="blue" cx="2069.39" cy="-178" rx="62.29" ry="18"/>
<text text-anchor="middle" x="2069.39" y="-174.3" font-family="Times,serif" font-size="14.00">publication</text>
</g>
<!-- variant to error association&#45;&gt;publications -->
<g id="edge14" class="edge">
<title>variant to error association&#45;&gt;publications</title>
<path fill="none" stroke="blue" d="M1828.16,-250.2C1857.93,-244.46 1891.9,-237.22 1922.39,-229 1956.74,-219.75 1994.73,-206.75 2023.48,-196.33"/>
<polygon fill="blue" stroke="blue" points="2025.06,-199.48 2033.25,-192.76 2022.66,-192.9 2025.06,-199.48"/>
<text text-anchor="middle" x="2016.39" y="-217.8" font-family="Times,serif" font-size="14.00">publications</text>
</g>
<!-- type -->
<g id="node16" class="node">
<title>type</title>
<ellipse fill="none" stroke="black" cx="2181.39" cy="-178" rx="31.4" ry="18"/>
<text text-anchor="middle" x="2181.39" y="-174.3" font-family="Times,serif" font-size="14.00">type</text>
</g>
<!-- variant to error association&#45;&gt;type -->
<g id="edge15" class="edge">
<title>variant to error association&#45;&gt;type</title>
<path fill="none" stroke="blue" d="M1847.22,-252.45C1863.32,-250.6 1879.82,-248.73 1895.39,-247 1970.47,-238.66 1991.3,-248.05 2064.39,-229 2094.64,-221.12 2127.2,-206.67 2150.27,-195.33"/>
<polygon fill="blue" stroke="blue" points="2151.86,-198.45 2159.23,-190.84 2148.72,-192.19 2151.86,-198.45"/>
<text text-anchor="middle" x="2123.39" y="-217.8" font-family="Times,serif" font-size="14.00">type</text>
</g>
<!-- category -->
<g id="node18" class="node">
<title>category</title>
<ellipse fill="none" stroke="black" cx="2282.39" cy="-178" rx="51.19" ry="18"/>
<text text-anchor="middle" x="2282.39" y="-174.3" font-family="Times,serif" font-size="14.00">category</text>
</g>
<!-- variant to error association&#45;&gt;category -->
<g id="edge16" class="edge">
<title>variant to error association&#45;&gt;category</title>
<path fill="none" stroke="blue" d="M1845.59,-252.17C1862.19,-250.32 1879.28,-248.52 1895.39,-247 2005.42,-236.65 2035.28,-251.92 2143.39,-229 2177.96,-221.67 2215.57,-207.75 2242.95,-196.46"/>
<polygon fill="blue" stroke="blue" points="2244.31,-199.68 2252.18,-192.59 2241.6,-193.23 2244.31,-199.68"/>
<text text-anchor="middle" x="2225.89" y="-217.8" font-family="Times,serif" font-size="14.00">category</text>
</g>
<!-- subject -->
<g id="node20" class="node">
<title>subject</title>
<ellipse fill="none" stroke="black" cx="2396.39" cy="-178" rx="44.39" ry="18"/>
<text text-anchor="middle" x="2396.39" y="-174.3" font-family="Times,serif" font-size="14.00">subject</text>
</g>
<!-- variant to error association&#45;&gt;subject -->
<g id="edge17" class="edge">
<title>variant to error association&#45;&gt;subject</title>
<path fill="none" stroke="blue" d="M1843.98,-252.02C1861.08,-250.14 1878.75,-248.37 1895.39,-247 2057.71,-233.64 2101.84,-261.66 2261.39,-229 2295.63,-221.99 2332.74,-207.72 2359.38,-196.21"/>
<polygon fill="blue" stroke="blue" points="2360.94,-199.35 2368.69,-192.12 2358.13,-192.94 2360.94,-199.35"/>
<text text-anchor="middle" x="2337.39" y="-217.8" font-family="Times,serif" font-size="14.00">subject</text>
</g>
<!-- predicate -->
<g id="node22" class="node">
<title>predicate</title>
<ellipse fill="none" stroke="black" cx="2513.39" cy="-178" rx="54.69" ry="18"/>
<text text-anchor="middle" x="2513.39" y="-174.3" font-family="Times,serif" font-size="14.00">predicate</text>
</g>
<!-- variant to error association&#45;&gt;predicate -->
<g id="edge18" class="edge">
<title>variant to error association&#45;&gt;predicate</title>
<path fill="none" stroke="blue" d="M1843.58,-251.91C1860.8,-250.03 1878.62,-248.29 1895.39,-247 2000.05,-238.96 2264.2,-248.21 2367.39,-229 2403.96,-222.19 2443.79,-208.07 2472.6,-196.56"/>
<polygon fill="blue" stroke="blue" points="2473.98,-199.78 2481.93,-192.77 2471.35,-193.29 2473.98,-199.78"/>
<text text-anchor="middle" x="2455.39" y="-217.8" font-family="Times,serif" font-size="14.00">predicate</text>
</g>
<!-- object -->
<g id="node24" class="node">
<title>object</title>
<ellipse fill="none" stroke="black" cx="2438.39" cy="-91" rx="38.99" ry="18"/>
<text text-anchor="middle" x="2438.39" y="-87.3" font-family="Times,serif" font-size="14.00">object</text>
</g>
<!-- variant to error association&#45;&gt;object -->
<g id="edge19" class="edge">
<title>variant to error association&#45;&gt;object</title>
<path fill="none" stroke="blue" d="M1842.78,-251.88C1860.25,-249.98 1878.36,-248.24 1895.39,-247 2027.99,-237.35 2363.15,-255.7 2493.39,-229 2532.69,-220.94 2554.8,-229.15 2577.39,-196 2606.91,-152.69 2532.18,-120.23 2481.22,-103.86"/>
<polygon fill="blue" stroke="blue" points="2481.97,-100.43 2471.38,-100.81 2479.89,-107.12 2481.97,-100.43"/>
<text text-anchor="middle" x="2606.39" y="-174.3" font-family="Times,serif" font-size="14.00">object</text>
</g>
<!-- frequency qualifier -->
<g id="node26" class="node">
<title>frequency qualifier</title>
<ellipse fill="none" stroke="blue" cx="2751.39" cy="-178" rx="85.29" ry="18"/>
<text text-anchor="middle" x="2751.39" y="-174.3" font-family="Times,serif" font-size="14.00">frequency value</text>
</g>
<!-- variant to error association&#45;&gt;frequency qualifier -->
<g id="edge20" class="edge">
<title>variant to error association&#45;&gt;frequency qualifier</title>
<path fill="none" stroke="blue" d="M1842.77,-251.81C1860.24,-249.92 1878.35,-248.2 1895.39,-247 2055.72,-235.76 2460.64,-259.71 2618.39,-229 2649.96,-222.86 2683.86,-210.01 2709.53,-198.87"/>
<polygon fill="blue" stroke="blue" points="2711.22,-201.95 2718.95,-194.71 2708.39,-195.55 2711.22,-201.95"/>
<text text-anchor="middle" x="2739.39" y="-217.8" font-family="Times,serif" font-size="14.00">frequency qualifier</text>
</g>
<!-- severity qualifier -->
<g id="node27" class="node">
<title>severity qualifier</title>
<ellipse fill="none" stroke="blue" cx="2930.39" cy="-178" rx="76.09" ry="18"/>
<text text-anchor="middle" x="2930.39" y="-174.3" font-family="Times,serif" font-size="14.00">severity value</text>
</g>
<!-- variant to error association&#45;&gt;severity qualifier -->
<g id="edge21" class="edge">
<title>variant to error association&#45;&gt;severity qualifier</title>
<path fill="none" stroke="blue" d="M1842.38,-251.78C1859.97,-249.88 1878.22,-248.16 1895.39,-247 1996.96,-240.14 2711.81,-250.09 2811.39,-229 2839.72,-223 2869.76,-210.32 2892.58,-199.23"/>
<polygon fill="blue" stroke="blue" points="2894.18,-202.35 2901.57,-194.76 2891.06,-196.08 2894.18,-202.35"/>
<text text-anchor="middle" x="2920.39" y="-217.8" font-family="Times,serif" font-size="14.00">severity qualifier</text>
</g>
<!-- onset qualifier -->
<g id="node28" class="node">
<title>onset qualifier</title>
<ellipse fill="none" stroke="blue" cx="3067.39" cy="-178" rx="36.29" ry="18"/>
<text text-anchor="middle" x="3067.39" y="-174.3" font-family="Times,serif" font-size="14.00">onset</text>
</g>
<!-- variant to error association&#45;&gt;onset qualifier -->
<g id="edge22" class="edge">
<title>variant to error association&#45;&gt;onset qualifier</title>
<path fill="none" stroke="blue" d="M1841.98,-251.78C1859.69,-249.86 1878.09,-248.14 1895.39,-247 1955.83,-243.02 2927.22,-245.86 2985.39,-229 3005.61,-223.14 3025.83,-210.91 3041.13,-200"/>
<polygon fill="blue" stroke="blue" points="3043.57,-202.55 3049.53,-193.8 3039.41,-196.92 3043.57,-202.55"/>
<text text-anchor="middle" x="3069.89" y="-217.8" font-family="Times,serif" font-size="14.00">onset qualifier</text>
</g>
<!-- association_type -->
<g id="node17" class="node">
<title>association_type</title>
<ellipse fill="none" stroke="blue" cx="1942.39" cy="-265" rx="38.19" ry="18"/>
<text text-anchor="middle" x="1942.39" y="-261.3" font-family="Times,serif" font-size="14.00">string</text>
</g>
<!-- association_category -->
<g id="node19" class="node">
<title>association_category</title>
<ellipse fill="none" stroke="blue" cx="2061.39" cy="-265" rx="62.29" ry="18"/>
<text text-anchor="middle" x="2061.39" y="-261.3" font-family="Times,serif" font-size="14.00">association</text>
</g>
<!-- subject&#45;&gt;relation -->
<g id="edge24" class="edge">
<title>subject&#45;&gt;relation</title>
<path fill="none" stroke="black" stroke-dasharray="1,5" d="M2393.67,-159.79C2389.35,-132.48 2380.89,-78.99 2375.73,-46.38"/>
<polygon fill="black" stroke="black" points="2379.13,-45.52 2374.11,-36.19 2372.22,-46.61 2379.13,-45.52"/>
</g>
<!-- subject&#45;&gt;object -->
<g id="edge23" class="edge">
<title>subject&#45;&gt;object</title>
<path fill="none" stroke="black" d="M2404.69,-160.21C2410.67,-148.1 2418.86,-131.53 2425.67,-117.76"/>
<polygon fill="black" stroke="black" points="2428.82,-119.27 2430.11,-108.76 2422.55,-116.17 2428.82,-119.27"/>
<text text-anchor="middle" x="2448.39" y="-130.8" font-family="Times,serif" font-size="14.00">relation</text>
</g>
<!-- variant to error association_subject -->
<g id="node21" class="node">
<title>variant to error association_subject</title>
<ellipse fill="none" stroke="blue" cx="2211.39" cy="-265" rx="69.59" ry="18"/>
<text text-anchor="middle" x="2211.39" y="-261.3" font-family="Times,serif" font-size="14.00">named thing</text>
</g>
<!-- variant to error association_predicate -->
<g id="node23" class="node">
<title>variant to error association_predicate</title>
<ellipse fill="none" stroke="blue" cx="2377.39" cy="-265" rx="77.99" ry="18"/>
<text text-anchor="middle" x="2377.39" y="-261.3" font-family="Times,serif" font-size="14.00">predicate type</text>
</g>
<!-- object&#45;&gt;relation -->
<g id="edge25" class="edge">
<title>object&#45;&gt;relation</title>
<path fill="none" stroke="black" stroke-dasharray="1,5" d="M2423.52,-74.24C2414.92,-65.13 2403.92,-53.47 2394.24,-43.21"/>
<polygon fill="black" stroke="black" points="2396.56,-40.57 2387.16,-35.7 2391.47,-45.38 2396.56,-40.57"/>
</g>
<!-- variant to error association_object -->
<g id="node25" class="node">
<title>variant to error association_object</title>
<ellipse fill="none" stroke="blue" cx="2543.39" cy="-265" rx="69.59" ry="18"/>
<text text-anchor="middle" x="2543.39" y="-261.3" font-family="Times,serif" font-size="14.00">named thing</text>
</g>
</g>
</svg>
