<?xml version="1.0" encoding="UTF-8" standalone="no"?>
<!DOCTYPE svg PUBLIC "-//W3C//DTD SVG 1.1//EN"
 "http://www.w3.org/Graphics/SVG/1.1/DTD/svg11.dtd">
<!-- Generated by graphviz version 2.43.0 (0)
 -->
<!-- Title: %3 Pages: 1 -->
<svg width="1686pt" height="131pt"
 viewBox="0.00 0.00 1686.08 131.00" xmlns="http://www.w3.org/2000/svg" xmlns:xlink="http://www.w3.org/1999/xlink">
<g id="graph0" class="graph" transform="scale(1 1) rotate(0) translate(4 127)">
<title>%3</title>
<polygon fill="white" stroke="transparent" points="-4,4 -4,-127 1682.08,-127 1682.08,4 -4,4"/>
<!-- workload entity -->
<g id="node1" class="node">
<title>workload entity</title>
<ellipse fill="none" stroke="black" cx="783.59" cy="-105" rx="83.39" ry="18"/>
<text text-anchor="middle" x="783.59" y="-101.3" font-family="Times,serif" font-size="14.00">workload entity</text>
</g>
<!-- operational entity -->
<g id="node2" class="node">
<title>operational entity</title>
<ellipse fill="none" stroke="black" cx="93.59" cy="-18" rx="93.68" ry="18"/>
<text text-anchor="middle" x="93.59" y="-14.3" font-family="Times,serif" font-size="14.00">operational entity</text>
</g>
<!-- workload entity&#45;&gt;operational entity -->
<g id="edge1" class="edge">
<title>workload entity&#45;&gt;operational entity</title>
<path fill="none" stroke="black" d="M702.88,-100.64C613.47,-96.22 465.21,-86.83 338.59,-69 277.46,-60.39 208.65,-45.92 159.55,-34.75"/>
<polygon fill="black" stroke="black" points="160.22,-31.32 149.69,-32.5 158.66,-38.14 160.22,-31.32"/>
<text text-anchor="middle" x="352.59" y="-57.8" font-family="Times,serif" font-size="14.00">is_a</text>
</g>
<!-- id -->
<g id="node3" class="node">
<title>id</title>
<ellipse fill="none" stroke="blue" cx="243.59" cy="-18" rx="38.19" ry="18"/>
<text text-anchor="middle" x="243.59" y="-14.3" font-family="Times,serif" font-size="14.00">string</text>
</g>
<!-- workload entity&#45;&gt;id -->
<g id="edge2" class="edge">
<title>workload entity&#45;&gt;id</title>
<path fill="none" stroke="blue" d="M703.88,-99.53C605.47,-92.52 433.67,-75.42 291.59,-36 288.48,-35.14 285.28,-34.17 282.08,-33.16"/>
<polygon fill="blue" stroke="blue" points="283.17,-29.83 272.58,-30 280.96,-36.47 283.17,-29.83"/>
<text text-anchor="middle" x="445.59" y="-57.8" font-family="Times,serif" font-size="14.00">id</text>
</g>
<!-- iri -->
<g id="node4" class="node">
<title>iri</title>
<ellipse fill="none" stroke="blue" cx="344.59" cy="-18" rx="44.39" ry="18"/>
<text text-anchor="middle" x="344.59" y="-14.3" font-family="Times,serif" font-size="14.00">iri type</text>
</g>
<!-- workload entity&#45;&gt;iri -->
<g id="edge3" class="edge">
<title>workload entity&#45;&gt;iri</title>
<path fill="none" stroke="blue" d="M713.51,-95.26C665.52,-88.92 600.51,-79.61 543.59,-69 478.62,-56.89 462.39,-53.27 398.59,-36 395.01,-35.03 391.32,-33.98 387.62,-32.89"/>
<polygon fill="blue" stroke="blue" points="388.47,-29.49 377.88,-29.95 386.44,-36.19 388.47,-29.49"/>
<text text-anchor="middle" x="551.59" y="-57.8" font-family="Times,serif" font-size="14.00">iri</text>
</g>
<!-- type -->
<g id="node5" class="node">
<title>type</title>
<ellipse fill="none" stroke="blue" cx="445.59" cy="-18" rx="38.19" ry="18"/>
<text text-anchor="middle" x="445.59" y="-14.3" font-family="Times,serif" font-size="14.00">string</text>
</g>
<!-- workload entity&#45;&gt;type -->
<g id="edge4" class="edge">
<title>workload entity&#45;&gt;type</title>
<path fill="none" stroke="blue" d="M723.6,-92.48C664.32,-80.51 571.33,-60.17 492.59,-36 489.83,-35.15 486.99,-34.24 484.15,-33.29"/>
<polygon fill="blue" stroke="blue" points="485.12,-29.92 474.52,-29.97 482.84,-36.54 485.12,-29.92"/>
<text text-anchor="middle" x="627.59" y="-57.8" font-family="Times,serif" font-size="14.00">type</text>
</g>
<!-- name -->
<g id="node6" class="node">
<title>name</title>
<ellipse fill="none" stroke="blue" cx="558.59" cy="-18" rx="56.59" ry="18"/>
<text text-anchor="middle" x="558.59" y="-14.3" font-family="Times,serif" font-size="14.00">label type</text>
</g>
<!-- workload entity&#45;&gt;name -->
<g id="edge5" class="edge">
<title>workload entity&#45;&gt;name</title>
<path fill="none" stroke="blue" d="M744.14,-89.1C704.7,-74.2 644.17,-51.33 603.05,-35.8"/>
<polygon fill="blue" stroke="blue" points="604.15,-32.47 593.56,-32.21 601.67,-39.02 604.15,-32.47"/>
<text text-anchor="middle" x="704.59" y="-57.8" font-family="Times,serif" font-size="14.00">name</text>
</g>
<!-- description -->
<g id="node7" class="node">
<title>description</title>
<ellipse fill="none" stroke="blue" cx="708.59" cy="-18" rx="75.29" ry="18"/>
<text text-anchor="middle" x="708.59" y="-14.3" font-family="Times,serif" font-size="14.00">narrative text</text>
</g>
<!-- workload entity&#45;&gt;description -->
<g id="edge6" class="edge">
<title>workload entity&#45;&gt;description</title>
<path fill="none" stroke="blue" d="M768.77,-87.21C757.78,-74.75 742.63,-57.57 730.27,-43.57"/>
<polygon fill="blue" stroke="blue" points="732.62,-40.94 723.38,-35.76 727.37,-45.57 732.62,-40.94"/>
<text text-anchor="middle" x="791.09" y="-57.8" font-family="Times,serif" font-size="14.00">description</text>
</g>
<!-- source -->
<g id="node8" class="node">
<title>source</title>
<ellipse fill="none" stroke="blue" cx="858.59" cy="-18" rx="56.59" ry="18"/>
<text text-anchor="middle" x="858.59" y="-14.3" font-family="Times,serif" font-size="14.00">label type</text>
</g>
<!-- workload entity&#45;&gt;source -->
<g id="edge7" class="edge">
<title>workload entity&#45;&gt;source</title>
<path fill="none" stroke="blue" d="M813.1,-88.17C821.12,-82.86 829.32,-76.38 835.59,-69 841.4,-62.17 846.04,-53.63 849.59,-45.55"/>
<polygon fill="blue" stroke="blue" points="852.92,-46.65 853.38,-36.07 846.42,-44.05 852.92,-46.65"/>
<text text-anchor="middle" x="869.59" y="-57.8" font-family="Times,serif" font-size="14.00">source</text>
</g>
<!-- provided by -->
<g id="node9" class="node">
<title>provided by</title>
<ellipse fill="none" stroke="blue" cx="970.59" cy="-18" rx="37.09" ry="18"/>
<text text-anchor="middle" x="970.59" y="-14.3" font-family="Times,serif" font-size="14.00">agent</text>
</g>
<!-- workload entity&#45;&gt;provided by -->
<g id="edge8" class="edge">
<title>workload entity&#45;&gt;provided by</title>
<path fill="none" stroke="blue" d="M837.07,-91.2C856.61,-85.59 878.57,-78.17 897.59,-69 913.94,-61.12 930.74,-49.87 944.1,-40.03"/>
<polygon fill="blue" stroke="blue" points="946.46,-42.63 952.34,-33.82 942.25,-37.04 946.46,-42.63"/>
<text text-anchor="middle" x="966.09" y="-57.8" font-family="Times,serif" font-size="14.00">provided by</text>
</g>
<!-- has attribute -->
<g id="node10" class="node">
<title>has attribute</title>
<ellipse fill="none" stroke="blue" cx="1077.59" cy="-18" rx="51.99" ry="18"/>
<text text-anchor="middle" x="1077.59" y="-14.3" font-family="Times,serif" font-size="14.00">attribute</text>
</g>
<!-- workload entity&#45;&gt;has attribute -->
<g id="edge9" class="edge">
<title>workload entity&#45;&gt;has attribute</title>
<path fill="none" stroke="blue" d="M843.4,-92.48C854.1,-90.55 865.16,-88.65 875.59,-87 936.25,-77.42 955.87,-92.53 1012.59,-69 1027.76,-62.71 1042.46,-51.93 1054.03,-41.99"/>
<polygon fill="blue" stroke="blue" points="1056.39,-44.58 1061.51,-35.31 1051.72,-39.36 1056.39,-44.58"/>
<text text-anchor="middle" x="1085.59" y="-57.8" font-family="Times,serif" font-size="14.00">has attribute</text>
</g>
<!-- category -->
<g id="node11" class="node">
<title>category</title>
<ellipse fill="none" stroke="black" cx="1198.59" cy="-18" rx="51.19" ry="18"/>
<text text-anchor="middle" x="1198.59" y="-14.3" font-family="Times,serif" font-size="14.00">category</text>
</g>
<!-- workload entity&#45;&gt;category -->
<g id="edge10" class="edge">
<title>workload entity&#45;&gt;category</title>
<path fill="none" stroke="blue" d="M842.33,-92.12C853.35,-90.18 864.8,-88.37 875.59,-87 933.27,-79.71 1082.47,-90.23 1136.59,-69 1151.3,-63.23 1165.23,-52.65 1176.15,-42.7"/>
<polygon fill="blue" stroke="blue" points="1178.72,-45.09 1183.53,-35.65 1173.88,-40.03 1178.72,-45.09"/>
<text text-anchor="middle" x="1193.09" y="-57.8" font-family="Times,serif" font-size="14.00">category</text>
</g>
<!-- in taxon -->
<g id="node13" class="node">
<title>in taxon</title>
<ellipse fill="none" stroke="blue" cx="1340.59" cy="-18" rx="72.59" ry="18"/>
<text text-anchor="middle" x="1340.59" y="-14.3" font-family="Times,serif" font-size="14.00">system taxon</text>
</g>
<!-- workload entity&#45;&gt;in taxon -->
<g id="edge11" class="edge">
<title>workload entity&#45;&gt;in taxon</title>
<path fill="none" stroke="blue" d="M841.82,-92.04C852.99,-90.09 864.62,-88.29 875.59,-87 1031.61,-68.69 1075.83,-105.64 1228.59,-69 1254.93,-62.68 1282.74,-50.3 1304.06,-39.44"/>
<polygon fill="blue" stroke="blue" points="1305.82,-42.47 1313.07,-34.74 1302.59,-36.26 1305.82,-42.47"/>
<text text-anchor="middle" x="1299.59" y="-57.8" font-family="Times,serif" font-size="14.00">in taxon</text>
</g>
<!-- has computational sequence -->
<g id="node14" class="node">
<title>has computational sequence</title>
<ellipse fill="none" stroke="blue" cx="1554.59" cy="-18" rx="123.48" ry="18"/>
<text text-anchor="middle" x="1554.59" y="-14.3" font-family="Times,serif" font-size="14.00">computational sequence</text>
</g>
<!-- workload entity&#45;&gt;has computational sequence -->
<g id="edge12" class="edge">
<title>workload entity&#45;&gt;has computational sequence</title>
<path fill="none" stroke="blue" d="M841.31,-92.03C852.64,-90.05 864.45,-88.24 875.59,-87 1077.61,-64.47 1131.05,-95.44 1332.59,-69 1386.31,-61.95 1446.17,-48.11 1490.19,-36.77"/>
<polygon fill="blue" stroke="blue" points="1491.1,-40.15 1499.9,-34.25 1489.34,-33.38 1491.1,-40.15"/>
<text text-anchor="middle" x="1515.09" y="-57.8" font-family="Times,serif" font-size="14.00">has computational sequence</text>
</g>
<!-- named thing_category -->
<g id="node12" class="node">
<title>named thing_category</title>
<ellipse fill="none" stroke="blue" cx="954.59" cy="-105" rx="69.59" ry="18"/>
<text text-anchor="middle" x="954.59" y="-101.3" font-family="Times,serif" font-size="14.00">named thing</text>
</g>
</g>
</svg>
