<?xml version="1.0" encoding="UTF-8" standalone="no"?>
<!DOCTYPE svg PUBLIC "-//W3C//DTD SVG 1.1//EN"
 "http://www.w3.org/Graphics/SVG/1.1/DTD/svg11.dtd">
<!-- Generated by graphviz version 2.43.0 (0)
 -->
<!-- Title: %3 Pages: 1 -->
<svg width="1666pt" height="131pt"
 viewBox="0.00 0.00 1665.68 131.00" xmlns="http://www.w3.org/2000/svg" xmlns:xlink="http://www.w3.org/1999/xlink">
<g id="graph0" class="graph" transform="scale(1 1) rotate(0) translate(4 127)">
<title>%3</title>
<polygon fill="white" stroke="transparent" points="-4,4 -4,-127 1661.68,-127 1661.68,4 -4,4"/>
<!-- workload -->
<g id="node1" class="node">
<title>workload</title>
<ellipse fill="none" stroke="black" cx="763.19" cy="-105" rx="53.09" ry="18"/>
<text text-anchor="middle" x="763.19" y="-101.3" font-family="Times,serif" font-size="14.00">workload</text>
</g>
<!-- workload entity -->
<g id="node2" class="node">
<title>workload entity</title>
<ellipse fill="none" stroke="black" cx="83.19" cy="-18" rx="83.39" ry="18"/>
<text text-anchor="middle" x="83.19" y="-14.3" font-family="Times,serif" font-size="14.00">workload entity</text>
</g>
<!-- workload&#45;&gt;workload entity -->
<g id="edge1" class="edge">
<title>workload&#45;&gt;workload entity</title>
<path fill="none" stroke="black" d="M710.54,-102.1C627,-98.57 459.12,-89.44 318.19,-69 258.84,-60.39 192.04,-45.68 144.87,-34.44"/>
<polygon fill="black" stroke="black" points="145.65,-31.03 135.11,-32.1 144.01,-37.83 145.65,-31.03"/>
<text text-anchor="middle" x="332.19" y="-57.8" font-family="Times,serif" font-size="14.00">is_a</text>
</g>
<!-- id -->
<g id="node3" class="node">
<title>id</title>
<ellipse fill="none" stroke="blue" cx="223.19" cy="-18" rx="38.19" ry="18"/>
<text text-anchor="middle" x="223.19" y="-14.3" font-family="Times,serif" font-size="14.00">string</text>
</g>
<!-- workload&#45;&gt;id -->
<g id="edge2" class="edge">
<title>workload&#45;&gt;id</title>
<path fill="none" stroke="blue" d="M710.92,-101.35C620.03,-95.74 427.61,-79.4 271.19,-36 268.08,-35.14 264.88,-34.17 261.69,-33.16"/>
<polygon fill="blue" stroke="blue" points="262.77,-29.83 252.18,-30 260.56,-36.47 262.77,-29.83"/>
<text text-anchor="middle" x="425.19" y="-57.8" font-family="Times,serif" font-size="14.00">id</text>
</g>
<!-- iri -->
<g id="node4" class="node">
<title>iri</title>
<ellipse fill="none" stroke="blue" cx="324.19" cy="-18" rx="44.39" ry="18"/>
<text text-anchor="middle" x="324.19" y="-14.3" font-family="Times,serif" font-size="14.00">iri type</text>
</g>
<!-- workload&#45;&gt;iri -->
<g id="edge3" class="edge">
<title>workload&#45;&gt;iri</title>
<path fill="none" stroke="blue" d="M713.82,-97.96C665.17,-91.73 588.8,-81.23 523.19,-69 458.22,-56.89 441.99,-53.27 378.19,-36 374.61,-35.03 370.92,-33.98 367.22,-32.89"/>
<polygon fill="blue" stroke="blue" points="368.07,-29.49 357.48,-29.95 366.04,-36.19 368.07,-29.49"/>
<text text-anchor="middle" x="531.19" y="-57.8" font-family="Times,serif" font-size="14.00">iri</text>
</g>
<!-- type -->
<g id="node5" class="node">
<title>type</title>
<ellipse fill="none" stroke="blue" cx="425.19" cy="-18" rx="38.19" ry="18"/>
<text text-anchor="middle" x="425.19" y="-14.3" font-family="Times,serif" font-size="14.00">string</text>
</g>
<!-- workload&#45;&gt;type -->
<g id="edge4" class="edge">
<title>workload&#45;&gt;type</title>
<path fill="none" stroke="blue" d="M717.82,-95.4C660.13,-84.01 557.75,-62.26 472.19,-36 469.43,-35.15 466.59,-34.24 463.75,-33.29"/>
<polygon fill="blue" stroke="blue" points="464.72,-29.92 454.13,-29.97 462.44,-36.54 464.72,-29.92"/>
<text text-anchor="middle" x="607.19" y="-57.8" font-family="Times,serif" font-size="14.00">type</text>
</g>
<!-- name -->
<g id="node6" class="node">
<title>name</title>
<ellipse fill="none" stroke="blue" cx="538.19" cy="-18" rx="56.59" ry="18"/>
<text text-anchor="middle" x="538.19" y="-14.3" font-family="Times,serif" font-size="14.00">label type</text>
</g>
<!-- workload&#45;&gt;name -->
<g id="edge5" class="edge">
<title>workload&#45;&gt;name</title>
<path fill="none" stroke="blue" d="M729.02,-91.09C689.82,-76.28 625.42,-51.95 582.43,-35.71"/>
<polygon fill="blue" stroke="blue" points="583.65,-32.43 573.06,-32.17 581.18,-38.98 583.65,-32.43"/>
<text text-anchor="middle" x="684.19" y="-57.8" font-family="Times,serif" font-size="14.00">name</text>
</g>
<!-- description -->
<g id="node7" class="node">
<title>description</title>
<ellipse fill="none" stroke="blue" cx="688.19" cy="-18" rx="75.29" ry="18"/>
<text text-anchor="middle" x="688.19" y="-14.3" font-family="Times,serif" font-size="14.00">narrative text</text>
</g>
<!-- workload&#45;&gt;description -->
<g id="edge6" class="edge">
<title>workload&#45;&gt;description</title>
<path fill="none" stroke="blue" d="M748.73,-87.61C737.77,-75.19 722.53,-57.91 710.08,-43.8"/>
<polygon fill="blue" stroke="blue" points="712.36,-41.1 703.12,-35.92 707.11,-45.73 712.36,-41.1"/>
<text text-anchor="middle" x="770.69" y="-57.8" font-family="Times,serif" font-size="14.00">description</text>
</g>
<!-- source -->
<g id="node8" class="node">
<title>source</title>
<ellipse fill="none" stroke="blue" cx="838.19" cy="-18" rx="56.59" ry="18"/>
<text text-anchor="middle" x="838.19" y="-14.3" font-family="Times,serif" font-size="14.00">label type</text>
</g>
<!-- workload&#45;&gt;source -->
<g id="edge7" class="edge">
<title>workload&#45;&gt;source</title>
<path fill="none" stroke="blue" d="M790.81,-89.4C799.42,-83.87 808.42,-76.96 815.19,-69 821,-62.17 825.64,-53.63 829.19,-45.55"/>
<polygon fill="blue" stroke="blue" points="832.52,-46.65 832.98,-36.07 826.02,-44.05 832.52,-46.65"/>
<text text-anchor="middle" x="849.19" y="-57.8" font-family="Times,serif" font-size="14.00">source</text>
</g>
<!-- provided by -->
<g id="node9" class="node">
<title>provided by</title>
<ellipse fill="none" stroke="blue" cx="950.19" cy="-18" rx="37.09" ry="18"/>
<text text-anchor="middle" x="950.19" y="-14.3" font-family="Times,serif" font-size="14.00">agent</text>
</g>
<!-- workload&#45;&gt;provided by -->
<g id="edge8" class="edge">
<title>workload&#45;&gt;provided by</title>
<path fill="none" stroke="blue" d="M803.29,-93.08C830.56,-85.38 864,-75.36 877.19,-69 893.54,-61.12 910.34,-49.87 923.7,-40.03"/>
<polygon fill="blue" stroke="blue" points="926.06,-42.63 931.94,-33.82 921.85,-37.04 926.06,-42.63"/>
<text text-anchor="middle" x="945.69" y="-57.8" font-family="Times,serif" font-size="14.00">provided by</text>
</g>
<!-- has attribute -->
<g id="node10" class="node">
<title>has attribute</title>
<ellipse fill="none" stroke="blue" cx="1057.19" cy="-18" rx="51.99" ry="18"/>
<text text-anchor="middle" x="1057.19" y="-14.3" font-family="Times,serif" font-size="14.00">attribute</text>
</g>
<!-- workload&#45;&gt;has attribute -->
<g id="edge9" class="edge">
<title>workload&#45;&gt;has attribute</title>
<path fill="none" stroke="blue" d="M801.66,-92.42C809.4,-90.39 817.52,-88.46 825.19,-87 898.54,-73.09 922.91,-96.8 992.19,-69 1007.54,-62.84 1022.35,-51.97 1033.94,-41.94"/>
<polygon fill="blue" stroke="blue" points="1036.34,-44.49 1041.42,-35.19 1031.65,-39.29 1036.34,-44.49"/>
<text text-anchor="middle" x="1065.19" y="-57.8" font-family="Times,serif" font-size="14.00">has attribute</text>
</g>
<!-- category -->
<g id="node11" class="node">
<title>category</title>
<ellipse fill="none" stroke="black" cx="1178.19" cy="-18" rx="51.19" ry="18"/>
<text text-anchor="middle" x="1178.19" y="-14.3" font-family="Times,serif" font-size="14.00">category</text>
</g>
<!-- workload&#45;&gt;category -->
<g id="edge10" class="edge">
<title>workload&#45;&gt;category</title>
<path fill="none" stroke="blue" d="M801.28,-92.23C809.13,-90.19 817.38,-88.3 825.19,-87 889.11,-76.38 1055.79,-92.44 1116.19,-69 1130.92,-63.28 1144.86,-52.71 1155.77,-42.75"/>
<polygon fill="blue" stroke="blue" points="1158.34,-45.13 1163.15,-35.69 1153.5,-40.07 1158.34,-45.13"/>
<text text-anchor="middle" x="1172.69" y="-57.8" font-family="Times,serif" font-size="14.00">category</text>
</g>
<!-- in taxon -->
<g id="node13" class="node">
<title>in taxon</title>
<ellipse fill="none" stroke="blue" cx="1320.19" cy="-18" rx="72.59" ry="18"/>
<text text-anchor="middle" x="1320.19" y="-14.3" font-family="Times,serif" font-size="14.00">system taxon</text>
</g>
<!-- workload&#45;&gt;in taxon -->
<g id="edge11" class="edge">
<title>workload&#45;&gt;in taxon</title>
<path fill="none" stroke="blue" d="M800.94,-92.23C808.88,-90.15 817.26,-88.26 825.19,-87 993.5,-60.31 1042.4,-108.42 1208.19,-69 1234.54,-62.74 1262.35,-50.36 1283.67,-39.48"/>
<polygon fill="blue" stroke="blue" points="1285.43,-42.51 1292.68,-34.78 1282.2,-36.3 1285.43,-42.51"/>
<text text-anchor="middle" x="1279.19" y="-57.8" font-family="Times,serif" font-size="14.00">in taxon</text>
</g>
<!-- has computational sequence -->
<g id="node14" class="node">
<title>has computational sequence</title>
<ellipse fill="none" stroke="blue" cx="1534.19" cy="-18" rx="123.48" ry="18"/>
<text text-anchor="middle" x="1534.19" y="-14.3" font-family="Times,serif" font-size="14.00">computational sequence</text>
</g>
<!-- workload&#45;&gt;has computational sequence -->
<g id="edge12" class="edge">
<title>workload&#45;&gt;has computational sequence</title>
<path fill="none" stroke="blue" d="M800.93,-92.17C808.87,-90.1 817.25,-88.22 825.19,-87 1039.28,-54.14 1097.41,-96.91 1312.19,-69 1365.92,-62.02 1425.78,-48.17 1469.8,-36.81"/>
<polygon fill="blue" stroke="blue" points="1470.71,-40.19 1479.5,-34.28 1468.94,-33.42 1470.71,-40.19"/>
<text text-anchor="middle" x="1494.69" y="-57.8" font-family="Times,serif" font-size="14.00">has computational sequence</text>
</g>
<!-- named thing_category -->
<g id="node12" class="node">
<title>named thing_category</title>
<ellipse fill="none" stroke="blue" cx="904.19" cy="-105" rx="69.59" ry="18"/>
<text text-anchor="middle" x="904.19" y="-101.3" font-family="Times,serif" font-size="14.00">named thing</text>
</g>
</g>
</svg>
